G04 #@! TF.GenerationSoftware,KiCad,Pcbnew,(5.0.1)-4*
G04 #@! TF.CreationDate,2018-11-25T16:05:00+01:00*
G04 #@! TF.ProjectId,Flips6,466C697073362E6B696361645F706362,V1.0*
G04 #@! TF.SameCoordinates,Original*
G04 #@! TF.FileFunction,Soldermask,Bot*
G04 #@! TF.FilePolarity,Negative*
%FSLAX46Y46*%
G04 Gerber Fmt 4.6, Leading zero omitted, Abs format (unit mm)*
G04 Created by KiCad (PCBNEW (5.0.1)-4) date 25.11.2018 16:05:00*
%MOMM*%
%LPD*%
G01*
G04 APERTURE LIST*
%ADD10C,0.250000*%
%ADD11C,0.100000*%
G04 APERTURE END LIST*
D10*
X51617619Y-79605000D02*
X52617619Y-79605000D01*
X52236666Y-79605000D02*
X52284285Y-79509761D01*
X52284285Y-79319285D01*
X52236666Y-79224047D01*
X52189047Y-79176428D01*
X52093809Y-79128809D01*
X51808095Y-79128809D01*
X51712857Y-79176428D01*
X51665238Y-79224047D01*
X51617619Y-79319285D01*
X51617619Y-79509761D01*
X51665238Y-79605000D01*
X51617619Y-78271666D02*
X52141428Y-78271666D01*
X52236666Y-78319285D01*
X52284285Y-78414523D01*
X52284285Y-78605000D01*
X52236666Y-78700238D01*
X51665238Y-78271666D02*
X51617619Y-78366904D01*
X51617619Y-78605000D01*
X51665238Y-78700238D01*
X51760476Y-78747857D01*
X51855714Y-78747857D01*
X51950952Y-78700238D01*
X51998571Y-78605000D01*
X51998571Y-78366904D01*
X52046190Y-78271666D01*
X51665238Y-77366904D02*
X51617619Y-77462142D01*
X51617619Y-77652619D01*
X51665238Y-77747857D01*
X51712857Y-77795476D01*
X51808095Y-77843095D01*
X52093809Y-77843095D01*
X52189047Y-77795476D01*
X52236666Y-77747857D01*
X52284285Y-77652619D01*
X52284285Y-77462142D01*
X52236666Y-77366904D01*
X51617619Y-76938333D02*
X52617619Y-76938333D01*
X51998571Y-76843095D02*
X51617619Y-76557380D01*
X52284285Y-76557380D02*
X51903333Y-76938333D01*
D11*
G36*
X146356202Y-93003781D02*
X146631606Y-93058562D01*
X147150455Y-93273476D01*
X147614259Y-93583380D01*
X147617410Y-93585486D01*
X148014514Y-93982590D01*
X148014516Y-93982593D01*
X148326524Y-94449545D01*
X148541438Y-94968394D01*
X148651000Y-95519201D01*
X148651000Y-96080799D01*
X148541438Y-96631606D01*
X148326524Y-97150455D01*
X148016620Y-97614259D01*
X148014514Y-97617410D01*
X147617410Y-98014514D01*
X147617407Y-98014516D01*
X147150455Y-98326524D01*
X146631606Y-98541438D01*
X146080800Y-98651000D01*
X145519200Y-98651000D01*
X145243798Y-98596219D01*
X144968394Y-98541438D01*
X144449545Y-98326524D01*
X143982593Y-98014516D01*
X143982590Y-98014514D01*
X143585486Y-97617410D01*
X143583380Y-97614259D01*
X143273476Y-97150455D01*
X143058562Y-96631606D01*
X142949000Y-96080799D01*
X142949000Y-95519201D01*
X143058562Y-94968394D01*
X143273476Y-94449545D01*
X143585484Y-93982593D01*
X143585486Y-93982590D01*
X143982590Y-93585486D01*
X143985741Y-93583380D01*
X144449545Y-93273476D01*
X144968394Y-93058562D01*
X145519200Y-92949000D01*
X146080800Y-92949000D01*
X146356202Y-93003781D01*
X146356202Y-93003781D01*
G37*
G36*
X56356202Y-93003781D02*
X56631606Y-93058562D01*
X57150455Y-93273476D01*
X57614259Y-93583380D01*
X57617410Y-93585486D01*
X58014514Y-93982590D01*
X58014516Y-93982593D01*
X58326524Y-94449545D01*
X58541438Y-94968394D01*
X58651000Y-95519201D01*
X58651000Y-96080799D01*
X58541438Y-96631606D01*
X58326524Y-97150455D01*
X58016620Y-97614259D01*
X58014514Y-97617410D01*
X57617410Y-98014514D01*
X57617407Y-98014516D01*
X57150455Y-98326524D01*
X56631606Y-98541438D01*
X56080800Y-98651000D01*
X55519200Y-98651000D01*
X55243798Y-98596219D01*
X54968394Y-98541438D01*
X54449545Y-98326524D01*
X53982593Y-98014516D01*
X53982590Y-98014514D01*
X53585486Y-97617410D01*
X53583380Y-97614259D01*
X53273476Y-97150455D01*
X53058562Y-96631606D01*
X52949000Y-96080799D01*
X52949000Y-95519201D01*
X53058562Y-94968394D01*
X53273476Y-94449545D01*
X53585484Y-93982593D01*
X53585486Y-93982590D01*
X53982590Y-93585486D01*
X53985741Y-93583380D01*
X54449545Y-93273476D01*
X54968394Y-93058562D01*
X55243798Y-93003781D01*
X55519200Y-92949000D01*
X56080800Y-92949000D01*
X56356202Y-93003781D01*
X56356202Y-93003781D01*
G37*
G36*
X145525442Y-86100518D02*
X145591627Y-86107037D01*
X145704853Y-86141384D01*
X145761467Y-86158557D01*
X145900087Y-86232652D01*
X145917991Y-86242222D01*
X145953729Y-86271552D01*
X146055186Y-86354814D01*
X146138448Y-86456271D01*
X146167778Y-86492009D01*
X146167779Y-86492011D01*
X146251443Y-86648533D01*
X146251443Y-86648534D01*
X146302963Y-86818373D01*
X146320359Y-86995000D01*
X146302963Y-87171627D01*
X146276819Y-87257812D01*
X146251443Y-87341467D01*
X146208513Y-87421782D01*
X146167778Y-87497991D01*
X146138448Y-87533729D01*
X146055186Y-87635186D01*
X145982480Y-87694853D01*
X145917991Y-87747778D01*
X145917989Y-87747779D01*
X145761467Y-87831443D01*
X145704853Y-87848616D01*
X145591627Y-87882963D01*
X145525443Y-87889481D01*
X145459260Y-87896000D01*
X145370740Y-87896000D01*
X145304557Y-87889481D01*
X145238373Y-87882963D01*
X145125147Y-87848616D01*
X145068533Y-87831443D01*
X144912011Y-87747779D01*
X144912009Y-87747778D01*
X144847520Y-87694853D01*
X144774814Y-87635186D01*
X144691552Y-87533729D01*
X144662222Y-87497991D01*
X144621487Y-87421782D01*
X144578557Y-87341467D01*
X144553181Y-87257812D01*
X144527037Y-87171627D01*
X144509641Y-86995000D01*
X144527037Y-86818373D01*
X144578557Y-86648534D01*
X144578557Y-86648533D01*
X144662221Y-86492011D01*
X144662222Y-86492009D01*
X144691552Y-86456271D01*
X144774814Y-86354814D01*
X144876271Y-86271552D01*
X144912009Y-86242222D01*
X144929913Y-86232652D01*
X145068533Y-86158557D01*
X145125147Y-86141384D01*
X145238373Y-86107037D01*
X145304558Y-86100518D01*
X145370740Y-86094000D01*
X145459260Y-86094000D01*
X145525442Y-86100518D01*
X145525442Y-86100518D01*
G37*
G36*
X135365442Y-86100518D02*
X135431627Y-86107037D01*
X135544853Y-86141384D01*
X135601467Y-86158557D01*
X135740087Y-86232652D01*
X135757991Y-86242222D01*
X135793729Y-86271552D01*
X135895186Y-86354814D01*
X135978448Y-86456271D01*
X136007778Y-86492009D01*
X136007779Y-86492011D01*
X136091443Y-86648533D01*
X136091443Y-86648534D01*
X136142963Y-86818373D01*
X136160359Y-86995000D01*
X136142963Y-87171627D01*
X136116819Y-87257812D01*
X136091443Y-87341467D01*
X136048513Y-87421782D01*
X136007778Y-87497991D01*
X135978448Y-87533729D01*
X135895186Y-87635186D01*
X135822480Y-87694853D01*
X135757991Y-87747778D01*
X135757989Y-87747779D01*
X135601467Y-87831443D01*
X135544853Y-87848616D01*
X135431627Y-87882963D01*
X135365443Y-87889481D01*
X135299260Y-87896000D01*
X135210740Y-87896000D01*
X135144557Y-87889481D01*
X135078373Y-87882963D01*
X134965147Y-87848616D01*
X134908533Y-87831443D01*
X134752011Y-87747779D01*
X134752009Y-87747778D01*
X134687520Y-87694853D01*
X134614814Y-87635186D01*
X134531552Y-87533729D01*
X134502222Y-87497991D01*
X134461487Y-87421782D01*
X134418557Y-87341467D01*
X134393181Y-87257812D01*
X134367037Y-87171627D01*
X134349641Y-86995000D01*
X134367037Y-86818373D01*
X134418557Y-86648534D01*
X134418557Y-86648533D01*
X134502221Y-86492011D01*
X134502222Y-86492009D01*
X134531552Y-86456271D01*
X134614814Y-86354814D01*
X134716271Y-86271552D01*
X134752009Y-86242222D01*
X134769913Y-86232652D01*
X134908533Y-86158557D01*
X134965147Y-86141384D01*
X135078373Y-86107037D01*
X135144558Y-86100518D01*
X135210740Y-86094000D01*
X135299260Y-86094000D01*
X135365442Y-86100518D01*
X135365442Y-86100518D01*
G37*
G36*
X142985442Y-86100518D02*
X143051627Y-86107037D01*
X143164853Y-86141384D01*
X143221467Y-86158557D01*
X143360087Y-86232652D01*
X143377991Y-86242222D01*
X143413729Y-86271552D01*
X143515186Y-86354814D01*
X143598448Y-86456271D01*
X143627778Y-86492009D01*
X143627779Y-86492011D01*
X143711443Y-86648533D01*
X143711443Y-86648534D01*
X143762963Y-86818373D01*
X143780359Y-86995000D01*
X143762963Y-87171627D01*
X143736819Y-87257812D01*
X143711443Y-87341467D01*
X143668513Y-87421782D01*
X143627778Y-87497991D01*
X143598448Y-87533729D01*
X143515186Y-87635186D01*
X143442480Y-87694853D01*
X143377991Y-87747778D01*
X143377989Y-87747779D01*
X143221467Y-87831443D01*
X143164853Y-87848616D01*
X143051627Y-87882963D01*
X142985443Y-87889481D01*
X142919260Y-87896000D01*
X142830740Y-87896000D01*
X142764557Y-87889481D01*
X142698373Y-87882963D01*
X142585147Y-87848616D01*
X142528533Y-87831443D01*
X142372011Y-87747779D01*
X142372009Y-87747778D01*
X142307520Y-87694853D01*
X142234814Y-87635186D01*
X142151552Y-87533729D01*
X142122222Y-87497991D01*
X142081487Y-87421782D01*
X142038557Y-87341467D01*
X142013181Y-87257812D01*
X141987037Y-87171627D01*
X141969641Y-86995000D01*
X141987037Y-86818373D01*
X142038557Y-86648534D01*
X142038557Y-86648533D01*
X142122221Y-86492011D01*
X142122222Y-86492009D01*
X142151552Y-86456271D01*
X142234814Y-86354814D01*
X142336271Y-86271552D01*
X142372009Y-86242222D01*
X142389913Y-86232652D01*
X142528533Y-86158557D01*
X142585147Y-86141384D01*
X142698373Y-86107037D01*
X142764558Y-86100518D01*
X142830740Y-86094000D01*
X142919260Y-86094000D01*
X142985442Y-86100518D01*
X142985442Y-86100518D01*
G37*
G36*
X64397812Y-86128624D02*
X64561784Y-86196544D01*
X64709354Y-86295147D01*
X64834853Y-86420646D01*
X64933456Y-86568216D01*
X65001376Y-86732188D01*
X65036000Y-86906259D01*
X65036000Y-87083741D01*
X65001376Y-87257812D01*
X64933456Y-87421784D01*
X64834853Y-87569354D01*
X64709354Y-87694853D01*
X64561784Y-87793456D01*
X64397812Y-87861376D01*
X64223741Y-87896000D01*
X64046259Y-87896000D01*
X63872188Y-87861376D01*
X63708216Y-87793456D01*
X63560646Y-87694853D01*
X63435147Y-87569354D01*
X63336544Y-87421784D01*
X63268624Y-87257812D01*
X63234000Y-87083741D01*
X63234000Y-86906259D01*
X63268624Y-86732188D01*
X63336544Y-86568216D01*
X63435147Y-86420646D01*
X63560646Y-86295147D01*
X63708216Y-86196544D01*
X63872188Y-86128624D01*
X64046259Y-86094000D01*
X64223741Y-86094000D01*
X64397812Y-86128624D01*
X64397812Y-86128624D01*
G37*
G36*
X61705442Y-86100518D02*
X61771627Y-86107037D01*
X61884853Y-86141384D01*
X61941467Y-86158557D01*
X62080087Y-86232652D01*
X62097991Y-86242222D01*
X62133729Y-86271552D01*
X62235186Y-86354814D01*
X62318448Y-86456271D01*
X62347778Y-86492009D01*
X62347779Y-86492011D01*
X62431443Y-86648533D01*
X62431443Y-86648534D01*
X62482963Y-86818373D01*
X62500359Y-86995000D01*
X62482963Y-87171627D01*
X62456819Y-87257812D01*
X62431443Y-87341467D01*
X62388513Y-87421782D01*
X62347778Y-87497991D01*
X62318448Y-87533729D01*
X62235186Y-87635186D01*
X62162480Y-87694853D01*
X62097991Y-87747778D01*
X62097989Y-87747779D01*
X61941467Y-87831443D01*
X61884853Y-87848616D01*
X61771627Y-87882963D01*
X61705443Y-87889481D01*
X61639260Y-87896000D01*
X61550740Y-87896000D01*
X61484557Y-87889481D01*
X61418373Y-87882963D01*
X61305147Y-87848616D01*
X61248533Y-87831443D01*
X61092011Y-87747779D01*
X61092009Y-87747778D01*
X61027520Y-87694853D01*
X60954814Y-87635186D01*
X60871552Y-87533729D01*
X60842222Y-87497991D01*
X60801487Y-87421782D01*
X60758557Y-87341467D01*
X60733181Y-87257812D01*
X60707037Y-87171627D01*
X60689641Y-86995000D01*
X60707037Y-86818373D01*
X60758557Y-86648534D01*
X60758557Y-86648533D01*
X60842221Y-86492011D01*
X60842222Y-86492009D01*
X60871552Y-86456271D01*
X60954814Y-86354814D01*
X61056271Y-86271552D01*
X61092009Y-86242222D01*
X61109913Y-86232652D01*
X61248533Y-86158557D01*
X61305147Y-86141384D01*
X61418373Y-86107037D01*
X61484558Y-86100518D01*
X61550740Y-86094000D01*
X61639260Y-86094000D01*
X61705442Y-86100518D01*
X61705442Y-86100518D01*
G37*
G36*
X82025442Y-86100518D02*
X82091627Y-86107037D01*
X82204853Y-86141384D01*
X82261467Y-86158557D01*
X82400087Y-86232652D01*
X82417991Y-86242222D01*
X82453729Y-86271552D01*
X82555186Y-86354814D01*
X82638448Y-86456271D01*
X82667778Y-86492009D01*
X82667779Y-86492011D01*
X82751443Y-86648533D01*
X82751443Y-86648534D01*
X82802963Y-86818373D01*
X82820359Y-86995000D01*
X82802963Y-87171627D01*
X82776819Y-87257812D01*
X82751443Y-87341467D01*
X82708513Y-87421782D01*
X82667778Y-87497991D01*
X82638448Y-87533729D01*
X82555186Y-87635186D01*
X82482480Y-87694853D01*
X82417991Y-87747778D01*
X82417989Y-87747779D01*
X82261467Y-87831443D01*
X82204853Y-87848616D01*
X82091627Y-87882963D01*
X82025443Y-87889481D01*
X81959260Y-87896000D01*
X81870740Y-87896000D01*
X81804557Y-87889481D01*
X81738373Y-87882963D01*
X81625147Y-87848616D01*
X81568533Y-87831443D01*
X81412011Y-87747779D01*
X81412009Y-87747778D01*
X81347520Y-87694853D01*
X81274814Y-87635186D01*
X81191552Y-87533729D01*
X81162222Y-87497991D01*
X81121487Y-87421782D01*
X81078557Y-87341467D01*
X81053181Y-87257812D01*
X81027037Y-87171627D01*
X81009641Y-86995000D01*
X81027037Y-86818373D01*
X81078557Y-86648534D01*
X81078557Y-86648533D01*
X81162221Y-86492011D01*
X81162222Y-86492009D01*
X81191552Y-86456271D01*
X81274814Y-86354814D01*
X81376271Y-86271552D01*
X81412009Y-86242222D01*
X81429913Y-86232652D01*
X81568533Y-86158557D01*
X81625147Y-86141384D01*
X81738373Y-86107037D01*
X81804558Y-86100518D01*
X81870740Y-86094000D01*
X81959260Y-86094000D01*
X82025442Y-86100518D01*
X82025442Y-86100518D01*
G37*
G36*
X84565442Y-86100518D02*
X84631627Y-86107037D01*
X84744853Y-86141384D01*
X84801467Y-86158557D01*
X84940087Y-86232652D01*
X84957991Y-86242222D01*
X84993729Y-86271552D01*
X85095186Y-86354814D01*
X85178448Y-86456271D01*
X85207778Y-86492009D01*
X85207779Y-86492011D01*
X85291443Y-86648533D01*
X85291443Y-86648534D01*
X85342963Y-86818373D01*
X85360359Y-86995000D01*
X85342963Y-87171627D01*
X85316819Y-87257812D01*
X85291443Y-87341467D01*
X85248513Y-87421782D01*
X85207778Y-87497991D01*
X85178448Y-87533729D01*
X85095186Y-87635186D01*
X85022480Y-87694853D01*
X84957991Y-87747778D01*
X84957989Y-87747779D01*
X84801467Y-87831443D01*
X84744853Y-87848616D01*
X84631627Y-87882963D01*
X84565443Y-87889481D01*
X84499260Y-87896000D01*
X84410740Y-87896000D01*
X84344557Y-87889481D01*
X84278373Y-87882963D01*
X84165147Y-87848616D01*
X84108533Y-87831443D01*
X83952011Y-87747779D01*
X83952009Y-87747778D01*
X83887520Y-87694853D01*
X83814814Y-87635186D01*
X83731552Y-87533729D01*
X83702222Y-87497991D01*
X83661487Y-87421782D01*
X83618557Y-87341467D01*
X83593181Y-87257812D01*
X83567037Y-87171627D01*
X83549641Y-86995000D01*
X83567037Y-86818373D01*
X83618557Y-86648534D01*
X83618557Y-86648533D01*
X83702221Y-86492011D01*
X83702222Y-86492009D01*
X83731552Y-86456271D01*
X83814814Y-86354814D01*
X83916271Y-86271552D01*
X83952009Y-86242222D01*
X83969913Y-86232652D01*
X84108533Y-86158557D01*
X84165147Y-86141384D01*
X84278373Y-86107037D01*
X84344558Y-86100518D01*
X84410740Y-86094000D01*
X84499260Y-86094000D01*
X84565442Y-86100518D01*
X84565442Y-86100518D01*
G37*
G36*
X74405442Y-86100518D02*
X74471627Y-86107037D01*
X74584853Y-86141384D01*
X74641467Y-86158557D01*
X74780087Y-86232652D01*
X74797991Y-86242222D01*
X74833729Y-86271552D01*
X74935186Y-86354814D01*
X75018448Y-86456271D01*
X75047778Y-86492009D01*
X75047779Y-86492011D01*
X75131443Y-86648533D01*
X75131443Y-86648534D01*
X75182963Y-86818373D01*
X75200359Y-86995000D01*
X75182963Y-87171627D01*
X75156819Y-87257812D01*
X75131443Y-87341467D01*
X75088513Y-87421782D01*
X75047778Y-87497991D01*
X75018448Y-87533729D01*
X74935186Y-87635186D01*
X74862480Y-87694853D01*
X74797991Y-87747778D01*
X74797989Y-87747779D01*
X74641467Y-87831443D01*
X74584853Y-87848616D01*
X74471627Y-87882963D01*
X74405443Y-87889481D01*
X74339260Y-87896000D01*
X74250740Y-87896000D01*
X74184557Y-87889481D01*
X74118373Y-87882963D01*
X74005147Y-87848616D01*
X73948533Y-87831443D01*
X73792011Y-87747779D01*
X73792009Y-87747778D01*
X73727520Y-87694853D01*
X73654814Y-87635186D01*
X73571552Y-87533729D01*
X73542222Y-87497991D01*
X73501487Y-87421782D01*
X73458557Y-87341467D01*
X73433181Y-87257812D01*
X73407037Y-87171627D01*
X73389641Y-86995000D01*
X73407037Y-86818373D01*
X73458557Y-86648534D01*
X73458557Y-86648533D01*
X73542221Y-86492011D01*
X73542222Y-86492009D01*
X73571552Y-86456271D01*
X73654814Y-86354814D01*
X73756271Y-86271552D01*
X73792009Y-86242222D01*
X73809913Y-86232652D01*
X73948533Y-86158557D01*
X74005147Y-86141384D01*
X74118373Y-86107037D01*
X74184558Y-86100518D01*
X74250740Y-86094000D01*
X74339260Y-86094000D01*
X74405442Y-86100518D01*
X74405442Y-86100518D01*
G37*
G36*
X71865442Y-86100518D02*
X71931627Y-86107037D01*
X72044853Y-86141384D01*
X72101467Y-86158557D01*
X72240087Y-86232652D01*
X72257991Y-86242222D01*
X72293729Y-86271552D01*
X72395186Y-86354814D01*
X72478448Y-86456271D01*
X72507778Y-86492009D01*
X72507779Y-86492011D01*
X72591443Y-86648533D01*
X72591443Y-86648534D01*
X72642963Y-86818373D01*
X72660359Y-86995000D01*
X72642963Y-87171627D01*
X72616819Y-87257812D01*
X72591443Y-87341467D01*
X72548513Y-87421782D01*
X72507778Y-87497991D01*
X72478448Y-87533729D01*
X72395186Y-87635186D01*
X72322480Y-87694853D01*
X72257991Y-87747778D01*
X72257989Y-87747779D01*
X72101467Y-87831443D01*
X72044853Y-87848616D01*
X71931627Y-87882963D01*
X71865443Y-87889481D01*
X71799260Y-87896000D01*
X71710740Y-87896000D01*
X71644557Y-87889481D01*
X71578373Y-87882963D01*
X71465147Y-87848616D01*
X71408533Y-87831443D01*
X71252011Y-87747779D01*
X71252009Y-87747778D01*
X71187520Y-87694853D01*
X71114814Y-87635186D01*
X71031552Y-87533729D01*
X71002222Y-87497991D01*
X70961487Y-87421782D01*
X70918557Y-87341467D01*
X70893181Y-87257812D01*
X70867037Y-87171627D01*
X70849641Y-86995000D01*
X70867037Y-86818373D01*
X70918557Y-86648534D01*
X70918557Y-86648533D01*
X71002221Y-86492011D01*
X71002222Y-86492009D01*
X71031552Y-86456271D01*
X71114814Y-86354814D01*
X71216271Y-86271552D01*
X71252009Y-86242222D01*
X71269913Y-86232652D01*
X71408533Y-86158557D01*
X71465147Y-86141384D01*
X71578373Y-86107037D01*
X71644558Y-86100518D01*
X71710740Y-86094000D01*
X71799260Y-86094000D01*
X71865442Y-86100518D01*
X71865442Y-86100518D01*
G37*
G36*
X132825442Y-86100518D02*
X132891627Y-86107037D01*
X133004853Y-86141384D01*
X133061467Y-86158557D01*
X133200087Y-86232652D01*
X133217991Y-86242222D01*
X133253729Y-86271552D01*
X133355186Y-86354814D01*
X133438448Y-86456271D01*
X133467778Y-86492009D01*
X133467779Y-86492011D01*
X133551443Y-86648533D01*
X133551443Y-86648534D01*
X133602963Y-86818373D01*
X133620359Y-86995000D01*
X133602963Y-87171627D01*
X133576819Y-87257812D01*
X133551443Y-87341467D01*
X133508513Y-87421782D01*
X133467778Y-87497991D01*
X133438448Y-87533729D01*
X133355186Y-87635186D01*
X133282480Y-87694853D01*
X133217991Y-87747778D01*
X133217989Y-87747779D01*
X133061467Y-87831443D01*
X133004853Y-87848616D01*
X132891627Y-87882963D01*
X132825443Y-87889481D01*
X132759260Y-87896000D01*
X132670740Y-87896000D01*
X132604557Y-87889481D01*
X132538373Y-87882963D01*
X132425147Y-87848616D01*
X132368533Y-87831443D01*
X132212011Y-87747779D01*
X132212009Y-87747778D01*
X132147520Y-87694853D01*
X132074814Y-87635186D01*
X131991552Y-87533729D01*
X131962222Y-87497991D01*
X131921487Y-87421782D01*
X131878557Y-87341467D01*
X131853181Y-87257812D01*
X131827037Y-87171627D01*
X131809641Y-86995000D01*
X131827037Y-86818373D01*
X131878557Y-86648534D01*
X131878557Y-86648533D01*
X131962221Y-86492011D01*
X131962222Y-86492009D01*
X131991552Y-86456271D01*
X132074814Y-86354814D01*
X132176271Y-86271552D01*
X132212009Y-86242222D01*
X132229913Y-86232652D01*
X132368533Y-86158557D01*
X132425147Y-86141384D01*
X132538373Y-86107037D01*
X132604558Y-86100518D01*
X132670740Y-86094000D01*
X132759260Y-86094000D01*
X132825442Y-86100518D01*
X132825442Y-86100518D01*
G37*
G36*
X122665442Y-86100518D02*
X122731627Y-86107037D01*
X122844853Y-86141384D01*
X122901467Y-86158557D01*
X123040087Y-86232652D01*
X123057991Y-86242222D01*
X123093729Y-86271552D01*
X123195186Y-86354814D01*
X123278448Y-86456271D01*
X123307778Y-86492009D01*
X123307779Y-86492011D01*
X123391443Y-86648533D01*
X123391443Y-86648534D01*
X123442963Y-86818373D01*
X123460359Y-86995000D01*
X123442963Y-87171627D01*
X123416819Y-87257812D01*
X123391443Y-87341467D01*
X123348513Y-87421782D01*
X123307778Y-87497991D01*
X123278448Y-87533729D01*
X123195186Y-87635186D01*
X123122480Y-87694853D01*
X123057991Y-87747778D01*
X123057989Y-87747779D01*
X122901467Y-87831443D01*
X122844853Y-87848616D01*
X122731627Y-87882963D01*
X122665443Y-87889481D01*
X122599260Y-87896000D01*
X122510740Y-87896000D01*
X122444557Y-87889481D01*
X122378373Y-87882963D01*
X122265147Y-87848616D01*
X122208533Y-87831443D01*
X122052011Y-87747779D01*
X122052009Y-87747778D01*
X121987520Y-87694853D01*
X121914814Y-87635186D01*
X121831552Y-87533729D01*
X121802222Y-87497991D01*
X121761487Y-87421782D01*
X121718557Y-87341467D01*
X121693181Y-87257812D01*
X121667037Y-87171627D01*
X121649641Y-86995000D01*
X121667037Y-86818373D01*
X121718557Y-86648534D01*
X121718557Y-86648533D01*
X121802221Y-86492011D01*
X121802222Y-86492009D01*
X121831552Y-86456271D01*
X121914814Y-86354814D01*
X122016271Y-86271552D01*
X122052009Y-86242222D01*
X122069913Y-86232652D01*
X122208533Y-86158557D01*
X122265147Y-86141384D01*
X122378373Y-86107037D01*
X122444558Y-86100518D01*
X122510740Y-86094000D01*
X122599260Y-86094000D01*
X122665442Y-86100518D01*
X122665442Y-86100518D01*
G37*
G36*
X112505442Y-86100518D02*
X112571627Y-86107037D01*
X112684853Y-86141384D01*
X112741467Y-86158557D01*
X112880087Y-86232652D01*
X112897991Y-86242222D01*
X112933729Y-86271552D01*
X113035186Y-86354814D01*
X113118448Y-86456271D01*
X113147778Y-86492009D01*
X113147779Y-86492011D01*
X113231443Y-86648533D01*
X113231443Y-86648534D01*
X113282963Y-86818373D01*
X113300359Y-86995000D01*
X113282963Y-87171627D01*
X113256819Y-87257812D01*
X113231443Y-87341467D01*
X113188513Y-87421782D01*
X113147778Y-87497991D01*
X113118448Y-87533729D01*
X113035186Y-87635186D01*
X112962480Y-87694853D01*
X112897991Y-87747778D01*
X112897989Y-87747779D01*
X112741467Y-87831443D01*
X112684853Y-87848616D01*
X112571627Y-87882963D01*
X112505443Y-87889481D01*
X112439260Y-87896000D01*
X112350740Y-87896000D01*
X112284557Y-87889481D01*
X112218373Y-87882963D01*
X112105147Y-87848616D01*
X112048533Y-87831443D01*
X111892011Y-87747779D01*
X111892009Y-87747778D01*
X111827520Y-87694853D01*
X111754814Y-87635186D01*
X111671552Y-87533729D01*
X111642222Y-87497991D01*
X111601487Y-87421782D01*
X111558557Y-87341467D01*
X111533181Y-87257812D01*
X111507037Y-87171627D01*
X111489641Y-86995000D01*
X111507037Y-86818373D01*
X111558557Y-86648534D01*
X111558557Y-86648533D01*
X111642221Y-86492011D01*
X111642222Y-86492009D01*
X111671552Y-86456271D01*
X111754814Y-86354814D01*
X111856271Y-86271552D01*
X111892009Y-86242222D01*
X111909913Y-86232652D01*
X112048533Y-86158557D01*
X112105147Y-86141384D01*
X112218373Y-86107037D01*
X112284558Y-86100518D01*
X112350740Y-86094000D01*
X112439260Y-86094000D01*
X112505442Y-86100518D01*
X112505442Y-86100518D01*
G37*
G36*
X115045442Y-86100518D02*
X115111627Y-86107037D01*
X115224853Y-86141384D01*
X115281467Y-86158557D01*
X115420087Y-86232652D01*
X115437991Y-86242222D01*
X115473729Y-86271552D01*
X115575186Y-86354814D01*
X115658448Y-86456271D01*
X115687778Y-86492009D01*
X115687779Y-86492011D01*
X115771443Y-86648533D01*
X115771443Y-86648534D01*
X115822963Y-86818373D01*
X115840359Y-86995000D01*
X115822963Y-87171627D01*
X115796819Y-87257812D01*
X115771443Y-87341467D01*
X115728513Y-87421782D01*
X115687778Y-87497991D01*
X115658448Y-87533729D01*
X115575186Y-87635186D01*
X115502480Y-87694853D01*
X115437991Y-87747778D01*
X115437989Y-87747779D01*
X115281467Y-87831443D01*
X115224853Y-87848616D01*
X115111627Y-87882963D01*
X115045443Y-87889481D01*
X114979260Y-87896000D01*
X114890740Y-87896000D01*
X114824557Y-87889481D01*
X114758373Y-87882963D01*
X114645147Y-87848616D01*
X114588533Y-87831443D01*
X114432011Y-87747779D01*
X114432009Y-87747778D01*
X114367520Y-87694853D01*
X114294814Y-87635186D01*
X114211552Y-87533729D01*
X114182222Y-87497991D01*
X114141487Y-87421782D01*
X114098557Y-87341467D01*
X114073181Y-87257812D01*
X114047037Y-87171627D01*
X114029641Y-86995000D01*
X114047037Y-86818373D01*
X114098557Y-86648534D01*
X114098557Y-86648533D01*
X114182221Y-86492011D01*
X114182222Y-86492009D01*
X114211552Y-86456271D01*
X114294814Y-86354814D01*
X114396271Y-86271552D01*
X114432009Y-86242222D01*
X114449913Y-86232652D01*
X114588533Y-86158557D01*
X114645147Y-86141384D01*
X114758373Y-86107037D01*
X114824558Y-86100518D01*
X114890740Y-86094000D01*
X114979260Y-86094000D01*
X115045442Y-86100518D01*
X115045442Y-86100518D01*
G37*
G36*
X104885442Y-86100518D02*
X104951627Y-86107037D01*
X105064853Y-86141384D01*
X105121467Y-86158557D01*
X105260087Y-86232652D01*
X105277991Y-86242222D01*
X105313729Y-86271552D01*
X105415186Y-86354814D01*
X105498448Y-86456271D01*
X105527778Y-86492009D01*
X105527779Y-86492011D01*
X105611443Y-86648533D01*
X105611443Y-86648534D01*
X105662963Y-86818373D01*
X105680359Y-86995000D01*
X105662963Y-87171627D01*
X105636819Y-87257812D01*
X105611443Y-87341467D01*
X105568513Y-87421782D01*
X105527778Y-87497991D01*
X105498448Y-87533729D01*
X105415186Y-87635186D01*
X105342480Y-87694853D01*
X105277991Y-87747778D01*
X105277989Y-87747779D01*
X105121467Y-87831443D01*
X105064853Y-87848616D01*
X104951627Y-87882963D01*
X104885443Y-87889481D01*
X104819260Y-87896000D01*
X104730740Y-87896000D01*
X104664557Y-87889481D01*
X104598373Y-87882963D01*
X104485147Y-87848616D01*
X104428533Y-87831443D01*
X104272011Y-87747779D01*
X104272009Y-87747778D01*
X104207520Y-87694853D01*
X104134814Y-87635186D01*
X104051552Y-87533729D01*
X104022222Y-87497991D01*
X103981487Y-87421782D01*
X103938557Y-87341467D01*
X103913181Y-87257812D01*
X103887037Y-87171627D01*
X103869641Y-86995000D01*
X103887037Y-86818373D01*
X103938557Y-86648534D01*
X103938557Y-86648533D01*
X104022221Y-86492011D01*
X104022222Y-86492009D01*
X104051552Y-86456271D01*
X104134814Y-86354814D01*
X104236271Y-86271552D01*
X104272009Y-86242222D01*
X104289913Y-86232652D01*
X104428533Y-86158557D01*
X104485147Y-86141384D01*
X104598373Y-86107037D01*
X104664558Y-86100518D01*
X104730740Y-86094000D01*
X104819260Y-86094000D01*
X104885442Y-86100518D01*
X104885442Y-86100518D01*
G37*
G36*
X102345442Y-86100518D02*
X102411627Y-86107037D01*
X102524853Y-86141384D01*
X102581467Y-86158557D01*
X102720087Y-86232652D01*
X102737991Y-86242222D01*
X102773729Y-86271552D01*
X102875186Y-86354814D01*
X102958448Y-86456271D01*
X102987778Y-86492009D01*
X102987779Y-86492011D01*
X103071443Y-86648533D01*
X103071443Y-86648534D01*
X103122963Y-86818373D01*
X103140359Y-86995000D01*
X103122963Y-87171627D01*
X103096819Y-87257812D01*
X103071443Y-87341467D01*
X103028513Y-87421782D01*
X102987778Y-87497991D01*
X102958448Y-87533729D01*
X102875186Y-87635186D01*
X102802480Y-87694853D01*
X102737991Y-87747778D01*
X102737989Y-87747779D01*
X102581467Y-87831443D01*
X102524853Y-87848616D01*
X102411627Y-87882963D01*
X102345443Y-87889481D01*
X102279260Y-87896000D01*
X102190740Y-87896000D01*
X102124557Y-87889481D01*
X102058373Y-87882963D01*
X101945147Y-87848616D01*
X101888533Y-87831443D01*
X101732011Y-87747779D01*
X101732009Y-87747778D01*
X101667520Y-87694853D01*
X101594814Y-87635186D01*
X101511552Y-87533729D01*
X101482222Y-87497991D01*
X101441487Y-87421782D01*
X101398557Y-87341467D01*
X101373181Y-87257812D01*
X101347037Y-87171627D01*
X101329641Y-86995000D01*
X101347037Y-86818373D01*
X101398557Y-86648534D01*
X101398557Y-86648533D01*
X101482221Y-86492011D01*
X101482222Y-86492009D01*
X101511552Y-86456271D01*
X101594814Y-86354814D01*
X101696271Y-86271552D01*
X101732009Y-86242222D01*
X101749913Y-86232652D01*
X101888533Y-86158557D01*
X101945147Y-86141384D01*
X102058373Y-86107037D01*
X102124558Y-86100518D01*
X102190740Y-86094000D01*
X102279260Y-86094000D01*
X102345442Y-86100518D01*
X102345442Y-86100518D01*
G37*
G36*
X92185442Y-86100518D02*
X92251627Y-86107037D01*
X92364853Y-86141384D01*
X92421467Y-86158557D01*
X92560087Y-86232652D01*
X92577991Y-86242222D01*
X92613729Y-86271552D01*
X92715186Y-86354814D01*
X92798448Y-86456271D01*
X92827778Y-86492009D01*
X92827779Y-86492011D01*
X92911443Y-86648533D01*
X92911443Y-86648534D01*
X92962963Y-86818373D01*
X92980359Y-86995000D01*
X92962963Y-87171627D01*
X92936819Y-87257812D01*
X92911443Y-87341467D01*
X92868513Y-87421782D01*
X92827778Y-87497991D01*
X92798448Y-87533729D01*
X92715186Y-87635186D01*
X92642480Y-87694853D01*
X92577991Y-87747778D01*
X92577989Y-87747779D01*
X92421467Y-87831443D01*
X92364853Y-87848616D01*
X92251627Y-87882963D01*
X92185443Y-87889481D01*
X92119260Y-87896000D01*
X92030740Y-87896000D01*
X91964557Y-87889481D01*
X91898373Y-87882963D01*
X91785147Y-87848616D01*
X91728533Y-87831443D01*
X91572011Y-87747779D01*
X91572009Y-87747778D01*
X91507520Y-87694853D01*
X91434814Y-87635186D01*
X91351552Y-87533729D01*
X91322222Y-87497991D01*
X91281487Y-87421782D01*
X91238557Y-87341467D01*
X91213181Y-87257812D01*
X91187037Y-87171627D01*
X91169641Y-86995000D01*
X91187037Y-86818373D01*
X91238557Y-86648534D01*
X91238557Y-86648533D01*
X91322221Y-86492011D01*
X91322222Y-86492009D01*
X91351552Y-86456271D01*
X91434814Y-86354814D01*
X91536271Y-86271552D01*
X91572009Y-86242222D01*
X91589913Y-86232652D01*
X91728533Y-86158557D01*
X91785147Y-86141384D01*
X91898373Y-86107037D01*
X91964558Y-86100518D01*
X92030740Y-86094000D01*
X92119260Y-86094000D01*
X92185442Y-86100518D01*
X92185442Y-86100518D01*
G37*
G36*
X94725442Y-86100518D02*
X94791627Y-86107037D01*
X94904853Y-86141384D01*
X94961467Y-86158557D01*
X95100087Y-86232652D01*
X95117991Y-86242222D01*
X95153729Y-86271552D01*
X95255186Y-86354814D01*
X95338448Y-86456271D01*
X95367778Y-86492009D01*
X95367779Y-86492011D01*
X95451443Y-86648533D01*
X95451443Y-86648534D01*
X95502963Y-86818373D01*
X95520359Y-86995000D01*
X95502963Y-87171627D01*
X95476819Y-87257812D01*
X95451443Y-87341467D01*
X95408513Y-87421782D01*
X95367778Y-87497991D01*
X95338448Y-87533729D01*
X95255186Y-87635186D01*
X95182480Y-87694853D01*
X95117991Y-87747778D01*
X95117989Y-87747779D01*
X94961467Y-87831443D01*
X94904853Y-87848616D01*
X94791627Y-87882963D01*
X94725443Y-87889481D01*
X94659260Y-87896000D01*
X94570740Y-87896000D01*
X94504557Y-87889481D01*
X94438373Y-87882963D01*
X94325147Y-87848616D01*
X94268533Y-87831443D01*
X94112011Y-87747779D01*
X94112009Y-87747778D01*
X94047520Y-87694853D01*
X93974814Y-87635186D01*
X93891552Y-87533729D01*
X93862222Y-87497991D01*
X93821487Y-87421782D01*
X93778557Y-87341467D01*
X93753181Y-87257812D01*
X93727037Y-87171627D01*
X93709641Y-86995000D01*
X93727037Y-86818373D01*
X93778557Y-86648534D01*
X93778557Y-86648533D01*
X93862221Y-86492011D01*
X93862222Y-86492009D01*
X93891552Y-86456271D01*
X93974814Y-86354814D01*
X94076271Y-86271552D01*
X94112009Y-86242222D01*
X94129913Y-86232652D01*
X94268533Y-86158557D01*
X94325147Y-86141384D01*
X94438373Y-86107037D01*
X94504558Y-86100518D01*
X94570740Y-86094000D01*
X94659260Y-86094000D01*
X94725442Y-86100518D01*
X94725442Y-86100518D01*
G37*
G36*
X125205442Y-86100518D02*
X125271627Y-86107037D01*
X125384853Y-86141384D01*
X125441467Y-86158557D01*
X125580087Y-86232652D01*
X125597991Y-86242222D01*
X125633729Y-86271552D01*
X125735186Y-86354814D01*
X125818448Y-86456271D01*
X125847778Y-86492009D01*
X125847779Y-86492011D01*
X125931443Y-86648533D01*
X125931443Y-86648534D01*
X125982963Y-86818373D01*
X126000359Y-86995000D01*
X125982963Y-87171627D01*
X125956819Y-87257812D01*
X125931443Y-87341467D01*
X125888513Y-87421782D01*
X125847778Y-87497991D01*
X125818448Y-87533729D01*
X125735186Y-87635186D01*
X125662480Y-87694853D01*
X125597991Y-87747778D01*
X125597989Y-87747779D01*
X125441467Y-87831443D01*
X125384853Y-87848616D01*
X125271627Y-87882963D01*
X125205443Y-87889481D01*
X125139260Y-87896000D01*
X125050740Y-87896000D01*
X124984557Y-87889481D01*
X124918373Y-87882963D01*
X124805147Y-87848616D01*
X124748533Y-87831443D01*
X124592011Y-87747779D01*
X124592009Y-87747778D01*
X124527520Y-87694853D01*
X124454814Y-87635186D01*
X124371552Y-87533729D01*
X124342222Y-87497991D01*
X124301487Y-87421782D01*
X124258557Y-87341467D01*
X124233181Y-87257812D01*
X124207037Y-87171627D01*
X124189641Y-86995000D01*
X124207037Y-86818373D01*
X124258557Y-86648534D01*
X124258557Y-86648533D01*
X124342221Y-86492011D01*
X124342222Y-86492009D01*
X124371552Y-86456271D01*
X124454814Y-86354814D01*
X124556271Y-86271552D01*
X124592009Y-86242222D01*
X124609913Y-86232652D01*
X124748533Y-86158557D01*
X124805147Y-86141384D01*
X124918373Y-86107037D01*
X124984558Y-86100518D01*
X125050740Y-86094000D01*
X125139260Y-86094000D01*
X125205442Y-86100518D01*
X125205442Y-86100518D01*
G37*
G36*
X142985443Y-83560519D02*
X143051627Y-83567037D01*
X143164853Y-83601384D01*
X143221467Y-83618557D01*
X143360087Y-83692652D01*
X143377991Y-83702222D01*
X143413729Y-83731552D01*
X143515186Y-83814814D01*
X143598448Y-83916271D01*
X143627778Y-83952009D01*
X143627779Y-83952011D01*
X143711443Y-84108533D01*
X143711443Y-84108534D01*
X143762963Y-84278373D01*
X143780359Y-84455000D01*
X143762963Y-84631627D01*
X143728616Y-84744853D01*
X143711443Y-84801467D01*
X143637348Y-84940087D01*
X143627778Y-84957991D01*
X143598448Y-84993729D01*
X143515186Y-85095186D01*
X143413729Y-85178448D01*
X143377991Y-85207778D01*
X143377989Y-85207779D01*
X143221467Y-85291443D01*
X143164853Y-85308616D01*
X143051627Y-85342963D01*
X142985442Y-85349482D01*
X142919260Y-85356000D01*
X142830740Y-85356000D01*
X142764558Y-85349482D01*
X142698373Y-85342963D01*
X142585147Y-85308616D01*
X142528533Y-85291443D01*
X142372011Y-85207779D01*
X142372009Y-85207778D01*
X142336271Y-85178448D01*
X142234814Y-85095186D01*
X142151552Y-84993729D01*
X142122222Y-84957991D01*
X142112652Y-84940087D01*
X142038557Y-84801467D01*
X142021384Y-84744853D01*
X141987037Y-84631627D01*
X141969641Y-84455000D01*
X141987037Y-84278373D01*
X142038557Y-84108534D01*
X142038557Y-84108533D01*
X142122221Y-83952011D01*
X142122222Y-83952009D01*
X142151552Y-83916271D01*
X142234814Y-83814814D01*
X142336271Y-83731552D01*
X142372009Y-83702222D01*
X142389913Y-83692652D01*
X142528533Y-83618557D01*
X142585147Y-83601384D01*
X142698373Y-83567037D01*
X142764557Y-83560519D01*
X142830740Y-83554000D01*
X142919260Y-83554000D01*
X142985443Y-83560519D01*
X142985443Y-83560519D01*
G37*
G36*
X64245443Y-83560519D02*
X64311627Y-83567037D01*
X64424853Y-83601384D01*
X64481467Y-83618557D01*
X64620087Y-83692652D01*
X64637991Y-83702222D01*
X64673729Y-83731552D01*
X64775186Y-83814814D01*
X64858448Y-83916271D01*
X64887778Y-83952009D01*
X64887779Y-83952011D01*
X64971443Y-84108533D01*
X64971443Y-84108534D01*
X65022963Y-84278373D01*
X65040359Y-84455000D01*
X65022963Y-84631627D01*
X64988616Y-84744853D01*
X64971443Y-84801467D01*
X64897348Y-84940087D01*
X64887778Y-84957991D01*
X64858448Y-84993729D01*
X64775186Y-85095186D01*
X64673729Y-85178448D01*
X64637991Y-85207778D01*
X64637989Y-85207779D01*
X64481467Y-85291443D01*
X64424853Y-85308616D01*
X64311627Y-85342963D01*
X64245442Y-85349482D01*
X64179260Y-85356000D01*
X64090740Y-85356000D01*
X64024558Y-85349482D01*
X63958373Y-85342963D01*
X63845147Y-85308616D01*
X63788533Y-85291443D01*
X63632011Y-85207779D01*
X63632009Y-85207778D01*
X63596271Y-85178448D01*
X63494814Y-85095186D01*
X63411552Y-84993729D01*
X63382222Y-84957991D01*
X63372652Y-84940087D01*
X63298557Y-84801467D01*
X63281384Y-84744853D01*
X63247037Y-84631627D01*
X63229641Y-84455000D01*
X63247037Y-84278373D01*
X63298557Y-84108534D01*
X63298557Y-84108533D01*
X63382221Y-83952011D01*
X63382222Y-83952009D01*
X63411552Y-83916271D01*
X63494814Y-83814814D01*
X63596271Y-83731552D01*
X63632009Y-83702222D01*
X63649913Y-83692652D01*
X63788533Y-83618557D01*
X63845147Y-83601384D01*
X63958373Y-83567037D01*
X64024557Y-83560519D01*
X64090740Y-83554000D01*
X64179260Y-83554000D01*
X64245443Y-83560519D01*
X64245443Y-83560519D01*
G37*
G36*
X61705443Y-83560519D02*
X61771627Y-83567037D01*
X61884853Y-83601384D01*
X61941467Y-83618557D01*
X62080087Y-83692652D01*
X62097991Y-83702222D01*
X62133729Y-83731552D01*
X62235186Y-83814814D01*
X62318448Y-83916271D01*
X62347778Y-83952009D01*
X62347779Y-83952011D01*
X62431443Y-84108533D01*
X62431443Y-84108534D01*
X62482963Y-84278373D01*
X62500359Y-84455000D01*
X62482963Y-84631627D01*
X62448616Y-84744853D01*
X62431443Y-84801467D01*
X62357348Y-84940087D01*
X62347778Y-84957991D01*
X62318448Y-84993729D01*
X62235186Y-85095186D01*
X62133729Y-85178448D01*
X62097991Y-85207778D01*
X62097989Y-85207779D01*
X61941467Y-85291443D01*
X61884853Y-85308616D01*
X61771627Y-85342963D01*
X61705442Y-85349482D01*
X61639260Y-85356000D01*
X61550740Y-85356000D01*
X61484558Y-85349482D01*
X61418373Y-85342963D01*
X61305147Y-85308616D01*
X61248533Y-85291443D01*
X61092011Y-85207779D01*
X61092009Y-85207778D01*
X61056271Y-85178448D01*
X60954814Y-85095186D01*
X60871552Y-84993729D01*
X60842222Y-84957991D01*
X60832652Y-84940087D01*
X60758557Y-84801467D01*
X60741384Y-84744853D01*
X60707037Y-84631627D01*
X60689641Y-84455000D01*
X60707037Y-84278373D01*
X60758557Y-84108534D01*
X60758557Y-84108533D01*
X60842221Y-83952011D01*
X60842222Y-83952009D01*
X60871552Y-83916271D01*
X60954814Y-83814814D01*
X61056271Y-83731552D01*
X61092009Y-83702222D01*
X61109913Y-83692652D01*
X61248533Y-83618557D01*
X61305147Y-83601384D01*
X61418373Y-83567037D01*
X61484557Y-83560519D01*
X61550740Y-83554000D01*
X61639260Y-83554000D01*
X61705443Y-83560519D01*
X61705443Y-83560519D01*
G37*
G36*
X135365443Y-83560519D02*
X135431627Y-83567037D01*
X135544853Y-83601384D01*
X135601467Y-83618557D01*
X135740087Y-83692652D01*
X135757991Y-83702222D01*
X135793729Y-83731552D01*
X135895186Y-83814814D01*
X135978448Y-83916271D01*
X136007778Y-83952009D01*
X136007779Y-83952011D01*
X136091443Y-84108533D01*
X136091443Y-84108534D01*
X136142963Y-84278373D01*
X136160359Y-84455000D01*
X136142963Y-84631627D01*
X136108616Y-84744853D01*
X136091443Y-84801467D01*
X136017348Y-84940087D01*
X136007778Y-84957991D01*
X135978448Y-84993729D01*
X135895186Y-85095186D01*
X135793729Y-85178448D01*
X135757991Y-85207778D01*
X135757989Y-85207779D01*
X135601467Y-85291443D01*
X135544853Y-85308616D01*
X135431627Y-85342963D01*
X135365442Y-85349482D01*
X135299260Y-85356000D01*
X135210740Y-85356000D01*
X135144558Y-85349482D01*
X135078373Y-85342963D01*
X134965147Y-85308616D01*
X134908533Y-85291443D01*
X134752011Y-85207779D01*
X134752009Y-85207778D01*
X134716271Y-85178448D01*
X134614814Y-85095186D01*
X134531552Y-84993729D01*
X134502222Y-84957991D01*
X134492652Y-84940087D01*
X134418557Y-84801467D01*
X134401384Y-84744853D01*
X134367037Y-84631627D01*
X134349641Y-84455000D01*
X134367037Y-84278373D01*
X134418557Y-84108534D01*
X134418557Y-84108533D01*
X134502221Y-83952011D01*
X134502222Y-83952009D01*
X134531552Y-83916271D01*
X134614814Y-83814814D01*
X134716271Y-83731552D01*
X134752009Y-83702222D01*
X134769913Y-83692652D01*
X134908533Y-83618557D01*
X134965147Y-83601384D01*
X135078373Y-83567037D01*
X135144557Y-83560519D01*
X135210740Y-83554000D01*
X135299260Y-83554000D01*
X135365443Y-83560519D01*
X135365443Y-83560519D01*
G37*
G36*
X104885443Y-83560519D02*
X104951627Y-83567037D01*
X105064853Y-83601384D01*
X105121467Y-83618557D01*
X105260087Y-83692652D01*
X105277991Y-83702222D01*
X105313729Y-83731552D01*
X105415186Y-83814814D01*
X105498448Y-83916271D01*
X105527778Y-83952009D01*
X105527779Y-83952011D01*
X105611443Y-84108533D01*
X105611443Y-84108534D01*
X105662963Y-84278373D01*
X105680359Y-84455000D01*
X105662963Y-84631627D01*
X105628616Y-84744853D01*
X105611443Y-84801467D01*
X105537348Y-84940087D01*
X105527778Y-84957991D01*
X105498448Y-84993729D01*
X105415186Y-85095186D01*
X105313729Y-85178448D01*
X105277991Y-85207778D01*
X105277989Y-85207779D01*
X105121467Y-85291443D01*
X105064853Y-85308616D01*
X104951627Y-85342963D01*
X104885442Y-85349482D01*
X104819260Y-85356000D01*
X104730740Y-85356000D01*
X104664558Y-85349482D01*
X104598373Y-85342963D01*
X104485147Y-85308616D01*
X104428533Y-85291443D01*
X104272011Y-85207779D01*
X104272009Y-85207778D01*
X104236271Y-85178448D01*
X104134814Y-85095186D01*
X104051552Y-84993729D01*
X104022222Y-84957991D01*
X104012652Y-84940087D01*
X103938557Y-84801467D01*
X103921384Y-84744853D01*
X103887037Y-84631627D01*
X103869641Y-84455000D01*
X103887037Y-84278373D01*
X103938557Y-84108534D01*
X103938557Y-84108533D01*
X104022221Y-83952011D01*
X104022222Y-83952009D01*
X104051552Y-83916271D01*
X104134814Y-83814814D01*
X104236271Y-83731552D01*
X104272009Y-83702222D01*
X104289913Y-83692652D01*
X104428533Y-83618557D01*
X104485147Y-83601384D01*
X104598373Y-83567037D01*
X104664557Y-83560519D01*
X104730740Y-83554000D01*
X104819260Y-83554000D01*
X104885443Y-83560519D01*
X104885443Y-83560519D01*
G37*
G36*
X132825443Y-83560519D02*
X132891627Y-83567037D01*
X133004853Y-83601384D01*
X133061467Y-83618557D01*
X133200087Y-83692652D01*
X133217991Y-83702222D01*
X133253729Y-83731552D01*
X133355186Y-83814814D01*
X133438448Y-83916271D01*
X133467778Y-83952009D01*
X133467779Y-83952011D01*
X133551443Y-84108533D01*
X133551443Y-84108534D01*
X133602963Y-84278373D01*
X133620359Y-84455000D01*
X133602963Y-84631627D01*
X133568616Y-84744853D01*
X133551443Y-84801467D01*
X133477348Y-84940087D01*
X133467778Y-84957991D01*
X133438448Y-84993729D01*
X133355186Y-85095186D01*
X133253729Y-85178448D01*
X133217991Y-85207778D01*
X133217989Y-85207779D01*
X133061467Y-85291443D01*
X133004853Y-85308616D01*
X132891627Y-85342963D01*
X132825442Y-85349482D01*
X132759260Y-85356000D01*
X132670740Y-85356000D01*
X132604558Y-85349482D01*
X132538373Y-85342963D01*
X132425147Y-85308616D01*
X132368533Y-85291443D01*
X132212011Y-85207779D01*
X132212009Y-85207778D01*
X132176271Y-85178448D01*
X132074814Y-85095186D01*
X131991552Y-84993729D01*
X131962222Y-84957991D01*
X131952652Y-84940087D01*
X131878557Y-84801467D01*
X131861384Y-84744853D01*
X131827037Y-84631627D01*
X131809641Y-84455000D01*
X131827037Y-84278373D01*
X131878557Y-84108534D01*
X131878557Y-84108533D01*
X131962221Y-83952011D01*
X131962222Y-83952009D01*
X131991552Y-83916271D01*
X132074814Y-83814814D01*
X132176271Y-83731552D01*
X132212009Y-83702222D01*
X132229913Y-83692652D01*
X132368533Y-83618557D01*
X132425147Y-83601384D01*
X132538373Y-83567037D01*
X132604557Y-83560519D01*
X132670740Y-83554000D01*
X132759260Y-83554000D01*
X132825443Y-83560519D01*
X132825443Y-83560519D01*
G37*
G36*
X71865443Y-83560519D02*
X71931627Y-83567037D01*
X72044853Y-83601384D01*
X72101467Y-83618557D01*
X72240087Y-83692652D01*
X72257991Y-83702222D01*
X72293729Y-83731552D01*
X72395186Y-83814814D01*
X72478448Y-83916271D01*
X72507778Y-83952009D01*
X72507779Y-83952011D01*
X72591443Y-84108533D01*
X72591443Y-84108534D01*
X72642963Y-84278373D01*
X72660359Y-84455000D01*
X72642963Y-84631627D01*
X72608616Y-84744853D01*
X72591443Y-84801467D01*
X72517348Y-84940087D01*
X72507778Y-84957991D01*
X72478448Y-84993729D01*
X72395186Y-85095186D01*
X72293729Y-85178448D01*
X72257991Y-85207778D01*
X72257989Y-85207779D01*
X72101467Y-85291443D01*
X72044853Y-85308616D01*
X71931627Y-85342963D01*
X71865442Y-85349482D01*
X71799260Y-85356000D01*
X71710740Y-85356000D01*
X71644558Y-85349482D01*
X71578373Y-85342963D01*
X71465147Y-85308616D01*
X71408533Y-85291443D01*
X71252011Y-85207779D01*
X71252009Y-85207778D01*
X71216271Y-85178448D01*
X71114814Y-85095186D01*
X71031552Y-84993729D01*
X71002222Y-84957991D01*
X70992652Y-84940087D01*
X70918557Y-84801467D01*
X70901384Y-84744853D01*
X70867037Y-84631627D01*
X70849641Y-84455000D01*
X70867037Y-84278373D01*
X70918557Y-84108534D01*
X70918557Y-84108533D01*
X71002221Y-83952011D01*
X71002222Y-83952009D01*
X71031552Y-83916271D01*
X71114814Y-83814814D01*
X71216271Y-83731552D01*
X71252009Y-83702222D01*
X71269913Y-83692652D01*
X71408533Y-83618557D01*
X71465147Y-83601384D01*
X71578373Y-83567037D01*
X71644557Y-83560519D01*
X71710740Y-83554000D01*
X71799260Y-83554000D01*
X71865443Y-83560519D01*
X71865443Y-83560519D01*
G37*
G36*
X74405443Y-83560519D02*
X74471627Y-83567037D01*
X74584853Y-83601384D01*
X74641467Y-83618557D01*
X74780087Y-83692652D01*
X74797991Y-83702222D01*
X74833729Y-83731552D01*
X74935186Y-83814814D01*
X75018448Y-83916271D01*
X75047778Y-83952009D01*
X75047779Y-83952011D01*
X75131443Y-84108533D01*
X75131443Y-84108534D01*
X75182963Y-84278373D01*
X75200359Y-84455000D01*
X75182963Y-84631627D01*
X75148616Y-84744853D01*
X75131443Y-84801467D01*
X75057348Y-84940087D01*
X75047778Y-84957991D01*
X75018448Y-84993729D01*
X74935186Y-85095186D01*
X74833729Y-85178448D01*
X74797991Y-85207778D01*
X74797989Y-85207779D01*
X74641467Y-85291443D01*
X74584853Y-85308616D01*
X74471627Y-85342963D01*
X74405442Y-85349482D01*
X74339260Y-85356000D01*
X74250740Y-85356000D01*
X74184558Y-85349482D01*
X74118373Y-85342963D01*
X74005147Y-85308616D01*
X73948533Y-85291443D01*
X73792011Y-85207779D01*
X73792009Y-85207778D01*
X73756271Y-85178448D01*
X73654814Y-85095186D01*
X73571552Y-84993729D01*
X73542222Y-84957991D01*
X73532652Y-84940087D01*
X73458557Y-84801467D01*
X73441384Y-84744853D01*
X73407037Y-84631627D01*
X73389641Y-84455000D01*
X73407037Y-84278373D01*
X73458557Y-84108534D01*
X73458557Y-84108533D01*
X73542221Y-83952011D01*
X73542222Y-83952009D01*
X73571552Y-83916271D01*
X73654814Y-83814814D01*
X73756271Y-83731552D01*
X73792009Y-83702222D01*
X73809913Y-83692652D01*
X73948533Y-83618557D01*
X74005147Y-83601384D01*
X74118373Y-83567037D01*
X74184557Y-83560519D01*
X74250740Y-83554000D01*
X74339260Y-83554000D01*
X74405443Y-83560519D01*
X74405443Y-83560519D01*
G37*
G36*
X122665443Y-83560519D02*
X122731627Y-83567037D01*
X122844853Y-83601384D01*
X122901467Y-83618557D01*
X123040087Y-83692652D01*
X123057991Y-83702222D01*
X123093729Y-83731552D01*
X123195186Y-83814814D01*
X123278448Y-83916271D01*
X123307778Y-83952009D01*
X123307779Y-83952011D01*
X123391443Y-84108533D01*
X123391443Y-84108534D01*
X123442963Y-84278373D01*
X123460359Y-84455000D01*
X123442963Y-84631627D01*
X123408616Y-84744853D01*
X123391443Y-84801467D01*
X123317348Y-84940087D01*
X123307778Y-84957991D01*
X123278448Y-84993729D01*
X123195186Y-85095186D01*
X123093729Y-85178448D01*
X123057991Y-85207778D01*
X123057989Y-85207779D01*
X122901467Y-85291443D01*
X122844853Y-85308616D01*
X122731627Y-85342963D01*
X122665442Y-85349482D01*
X122599260Y-85356000D01*
X122510740Y-85356000D01*
X122444558Y-85349482D01*
X122378373Y-85342963D01*
X122265147Y-85308616D01*
X122208533Y-85291443D01*
X122052011Y-85207779D01*
X122052009Y-85207778D01*
X122016271Y-85178448D01*
X121914814Y-85095186D01*
X121831552Y-84993729D01*
X121802222Y-84957991D01*
X121792652Y-84940087D01*
X121718557Y-84801467D01*
X121701384Y-84744853D01*
X121667037Y-84631627D01*
X121649641Y-84455000D01*
X121667037Y-84278373D01*
X121718557Y-84108534D01*
X121718557Y-84108533D01*
X121802221Y-83952011D01*
X121802222Y-83952009D01*
X121831552Y-83916271D01*
X121914814Y-83814814D01*
X122016271Y-83731552D01*
X122052009Y-83702222D01*
X122069913Y-83692652D01*
X122208533Y-83618557D01*
X122265147Y-83601384D01*
X122378373Y-83567037D01*
X122444557Y-83560519D01*
X122510740Y-83554000D01*
X122599260Y-83554000D01*
X122665443Y-83560519D01*
X122665443Y-83560519D01*
G37*
G36*
X94725443Y-83560519D02*
X94791627Y-83567037D01*
X94904853Y-83601384D01*
X94961467Y-83618557D01*
X95100087Y-83692652D01*
X95117991Y-83702222D01*
X95153729Y-83731552D01*
X95255186Y-83814814D01*
X95338448Y-83916271D01*
X95367778Y-83952009D01*
X95367779Y-83952011D01*
X95451443Y-84108533D01*
X95451443Y-84108534D01*
X95502963Y-84278373D01*
X95520359Y-84455000D01*
X95502963Y-84631627D01*
X95468616Y-84744853D01*
X95451443Y-84801467D01*
X95377348Y-84940087D01*
X95367778Y-84957991D01*
X95338448Y-84993729D01*
X95255186Y-85095186D01*
X95153729Y-85178448D01*
X95117991Y-85207778D01*
X95117989Y-85207779D01*
X94961467Y-85291443D01*
X94904853Y-85308616D01*
X94791627Y-85342963D01*
X94725442Y-85349482D01*
X94659260Y-85356000D01*
X94570740Y-85356000D01*
X94504558Y-85349482D01*
X94438373Y-85342963D01*
X94325147Y-85308616D01*
X94268533Y-85291443D01*
X94112011Y-85207779D01*
X94112009Y-85207778D01*
X94076271Y-85178448D01*
X93974814Y-85095186D01*
X93891552Y-84993729D01*
X93862222Y-84957991D01*
X93852652Y-84940087D01*
X93778557Y-84801467D01*
X93761384Y-84744853D01*
X93727037Y-84631627D01*
X93709641Y-84455000D01*
X93727037Y-84278373D01*
X93778557Y-84108534D01*
X93778557Y-84108533D01*
X93862221Y-83952011D01*
X93862222Y-83952009D01*
X93891552Y-83916271D01*
X93974814Y-83814814D01*
X94076271Y-83731552D01*
X94112009Y-83702222D01*
X94129913Y-83692652D01*
X94268533Y-83618557D01*
X94325147Y-83601384D01*
X94438373Y-83567037D01*
X94504557Y-83560519D01*
X94570740Y-83554000D01*
X94659260Y-83554000D01*
X94725443Y-83560519D01*
X94725443Y-83560519D01*
G37*
G36*
X92185443Y-83560519D02*
X92251627Y-83567037D01*
X92364853Y-83601384D01*
X92421467Y-83618557D01*
X92560087Y-83692652D01*
X92577991Y-83702222D01*
X92613729Y-83731552D01*
X92715186Y-83814814D01*
X92798448Y-83916271D01*
X92827778Y-83952009D01*
X92827779Y-83952011D01*
X92911443Y-84108533D01*
X92911443Y-84108534D01*
X92962963Y-84278373D01*
X92980359Y-84455000D01*
X92962963Y-84631627D01*
X92928616Y-84744853D01*
X92911443Y-84801467D01*
X92837348Y-84940087D01*
X92827778Y-84957991D01*
X92798448Y-84993729D01*
X92715186Y-85095186D01*
X92613729Y-85178448D01*
X92577991Y-85207778D01*
X92577989Y-85207779D01*
X92421467Y-85291443D01*
X92364853Y-85308616D01*
X92251627Y-85342963D01*
X92185442Y-85349482D01*
X92119260Y-85356000D01*
X92030740Y-85356000D01*
X91964558Y-85349482D01*
X91898373Y-85342963D01*
X91785147Y-85308616D01*
X91728533Y-85291443D01*
X91572011Y-85207779D01*
X91572009Y-85207778D01*
X91536271Y-85178448D01*
X91434814Y-85095186D01*
X91351552Y-84993729D01*
X91322222Y-84957991D01*
X91312652Y-84940087D01*
X91238557Y-84801467D01*
X91221384Y-84744853D01*
X91187037Y-84631627D01*
X91169641Y-84455000D01*
X91187037Y-84278373D01*
X91238557Y-84108534D01*
X91238557Y-84108533D01*
X91322221Y-83952011D01*
X91322222Y-83952009D01*
X91351552Y-83916271D01*
X91434814Y-83814814D01*
X91536271Y-83731552D01*
X91572009Y-83702222D01*
X91589913Y-83692652D01*
X91728533Y-83618557D01*
X91785147Y-83601384D01*
X91898373Y-83567037D01*
X91964557Y-83560519D01*
X92030740Y-83554000D01*
X92119260Y-83554000D01*
X92185443Y-83560519D01*
X92185443Y-83560519D01*
G37*
G36*
X125205443Y-83560519D02*
X125271627Y-83567037D01*
X125384853Y-83601384D01*
X125441467Y-83618557D01*
X125580087Y-83692652D01*
X125597991Y-83702222D01*
X125633729Y-83731552D01*
X125735186Y-83814814D01*
X125818448Y-83916271D01*
X125847778Y-83952009D01*
X125847779Y-83952011D01*
X125931443Y-84108533D01*
X125931443Y-84108534D01*
X125982963Y-84278373D01*
X126000359Y-84455000D01*
X125982963Y-84631627D01*
X125948616Y-84744853D01*
X125931443Y-84801467D01*
X125857348Y-84940087D01*
X125847778Y-84957991D01*
X125818448Y-84993729D01*
X125735186Y-85095186D01*
X125633729Y-85178448D01*
X125597991Y-85207778D01*
X125597989Y-85207779D01*
X125441467Y-85291443D01*
X125384853Y-85308616D01*
X125271627Y-85342963D01*
X125205442Y-85349482D01*
X125139260Y-85356000D01*
X125050740Y-85356000D01*
X124984558Y-85349482D01*
X124918373Y-85342963D01*
X124805147Y-85308616D01*
X124748533Y-85291443D01*
X124592011Y-85207779D01*
X124592009Y-85207778D01*
X124556271Y-85178448D01*
X124454814Y-85095186D01*
X124371552Y-84993729D01*
X124342222Y-84957991D01*
X124332652Y-84940087D01*
X124258557Y-84801467D01*
X124241384Y-84744853D01*
X124207037Y-84631627D01*
X124189641Y-84455000D01*
X124207037Y-84278373D01*
X124258557Y-84108534D01*
X124258557Y-84108533D01*
X124342221Y-83952011D01*
X124342222Y-83952009D01*
X124371552Y-83916271D01*
X124454814Y-83814814D01*
X124556271Y-83731552D01*
X124592009Y-83702222D01*
X124609913Y-83692652D01*
X124748533Y-83618557D01*
X124805147Y-83601384D01*
X124918373Y-83567037D01*
X124984557Y-83560519D01*
X125050740Y-83554000D01*
X125139260Y-83554000D01*
X125205443Y-83560519D01*
X125205443Y-83560519D01*
G37*
G36*
X84565443Y-83560519D02*
X84631627Y-83567037D01*
X84744853Y-83601384D01*
X84801467Y-83618557D01*
X84940087Y-83692652D01*
X84957991Y-83702222D01*
X84993729Y-83731552D01*
X85095186Y-83814814D01*
X85178448Y-83916271D01*
X85207778Y-83952009D01*
X85207779Y-83952011D01*
X85291443Y-84108533D01*
X85291443Y-84108534D01*
X85342963Y-84278373D01*
X85360359Y-84455000D01*
X85342963Y-84631627D01*
X85308616Y-84744853D01*
X85291443Y-84801467D01*
X85217348Y-84940087D01*
X85207778Y-84957991D01*
X85178448Y-84993729D01*
X85095186Y-85095186D01*
X84993729Y-85178448D01*
X84957991Y-85207778D01*
X84957989Y-85207779D01*
X84801467Y-85291443D01*
X84744853Y-85308616D01*
X84631627Y-85342963D01*
X84565442Y-85349482D01*
X84499260Y-85356000D01*
X84410740Y-85356000D01*
X84344558Y-85349482D01*
X84278373Y-85342963D01*
X84165147Y-85308616D01*
X84108533Y-85291443D01*
X83952011Y-85207779D01*
X83952009Y-85207778D01*
X83916271Y-85178448D01*
X83814814Y-85095186D01*
X83731552Y-84993729D01*
X83702222Y-84957991D01*
X83692652Y-84940087D01*
X83618557Y-84801467D01*
X83601384Y-84744853D01*
X83567037Y-84631627D01*
X83549641Y-84455000D01*
X83567037Y-84278373D01*
X83618557Y-84108534D01*
X83618557Y-84108533D01*
X83702221Y-83952011D01*
X83702222Y-83952009D01*
X83731552Y-83916271D01*
X83814814Y-83814814D01*
X83916271Y-83731552D01*
X83952009Y-83702222D01*
X83969913Y-83692652D01*
X84108533Y-83618557D01*
X84165147Y-83601384D01*
X84278373Y-83567037D01*
X84344557Y-83560519D01*
X84410740Y-83554000D01*
X84499260Y-83554000D01*
X84565443Y-83560519D01*
X84565443Y-83560519D01*
G37*
G36*
X82025443Y-83560519D02*
X82091627Y-83567037D01*
X82204853Y-83601384D01*
X82261467Y-83618557D01*
X82400087Y-83692652D01*
X82417991Y-83702222D01*
X82453729Y-83731552D01*
X82555186Y-83814814D01*
X82638448Y-83916271D01*
X82667778Y-83952009D01*
X82667779Y-83952011D01*
X82751443Y-84108533D01*
X82751443Y-84108534D01*
X82802963Y-84278373D01*
X82820359Y-84455000D01*
X82802963Y-84631627D01*
X82768616Y-84744853D01*
X82751443Y-84801467D01*
X82677348Y-84940087D01*
X82667778Y-84957991D01*
X82638448Y-84993729D01*
X82555186Y-85095186D01*
X82453729Y-85178448D01*
X82417991Y-85207778D01*
X82417989Y-85207779D01*
X82261467Y-85291443D01*
X82204853Y-85308616D01*
X82091627Y-85342963D01*
X82025442Y-85349482D01*
X81959260Y-85356000D01*
X81870740Y-85356000D01*
X81804558Y-85349482D01*
X81738373Y-85342963D01*
X81625147Y-85308616D01*
X81568533Y-85291443D01*
X81412011Y-85207779D01*
X81412009Y-85207778D01*
X81376271Y-85178448D01*
X81274814Y-85095186D01*
X81191552Y-84993729D01*
X81162222Y-84957991D01*
X81152652Y-84940087D01*
X81078557Y-84801467D01*
X81061384Y-84744853D01*
X81027037Y-84631627D01*
X81009641Y-84455000D01*
X81027037Y-84278373D01*
X81078557Y-84108534D01*
X81078557Y-84108533D01*
X81162221Y-83952011D01*
X81162222Y-83952009D01*
X81191552Y-83916271D01*
X81274814Y-83814814D01*
X81376271Y-83731552D01*
X81412009Y-83702222D01*
X81429913Y-83692652D01*
X81568533Y-83618557D01*
X81625147Y-83601384D01*
X81738373Y-83567037D01*
X81804557Y-83560519D01*
X81870740Y-83554000D01*
X81959260Y-83554000D01*
X82025443Y-83560519D01*
X82025443Y-83560519D01*
G37*
G36*
X112505443Y-83560519D02*
X112571627Y-83567037D01*
X112684853Y-83601384D01*
X112741467Y-83618557D01*
X112880087Y-83692652D01*
X112897991Y-83702222D01*
X112933729Y-83731552D01*
X113035186Y-83814814D01*
X113118448Y-83916271D01*
X113147778Y-83952009D01*
X113147779Y-83952011D01*
X113231443Y-84108533D01*
X113231443Y-84108534D01*
X113282963Y-84278373D01*
X113300359Y-84455000D01*
X113282963Y-84631627D01*
X113248616Y-84744853D01*
X113231443Y-84801467D01*
X113157348Y-84940087D01*
X113147778Y-84957991D01*
X113118448Y-84993729D01*
X113035186Y-85095186D01*
X112933729Y-85178448D01*
X112897991Y-85207778D01*
X112897989Y-85207779D01*
X112741467Y-85291443D01*
X112684853Y-85308616D01*
X112571627Y-85342963D01*
X112505442Y-85349482D01*
X112439260Y-85356000D01*
X112350740Y-85356000D01*
X112284558Y-85349482D01*
X112218373Y-85342963D01*
X112105147Y-85308616D01*
X112048533Y-85291443D01*
X111892011Y-85207779D01*
X111892009Y-85207778D01*
X111856271Y-85178448D01*
X111754814Y-85095186D01*
X111671552Y-84993729D01*
X111642222Y-84957991D01*
X111632652Y-84940087D01*
X111558557Y-84801467D01*
X111541384Y-84744853D01*
X111507037Y-84631627D01*
X111489641Y-84455000D01*
X111507037Y-84278373D01*
X111558557Y-84108534D01*
X111558557Y-84108533D01*
X111642221Y-83952011D01*
X111642222Y-83952009D01*
X111671552Y-83916271D01*
X111754814Y-83814814D01*
X111856271Y-83731552D01*
X111892009Y-83702222D01*
X111909913Y-83692652D01*
X112048533Y-83618557D01*
X112105147Y-83601384D01*
X112218373Y-83567037D01*
X112284557Y-83560519D01*
X112350740Y-83554000D01*
X112439260Y-83554000D01*
X112505443Y-83560519D01*
X112505443Y-83560519D01*
G37*
G36*
X115045443Y-83560519D02*
X115111627Y-83567037D01*
X115224853Y-83601384D01*
X115281467Y-83618557D01*
X115420087Y-83692652D01*
X115437991Y-83702222D01*
X115473729Y-83731552D01*
X115575186Y-83814814D01*
X115658448Y-83916271D01*
X115687778Y-83952009D01*
X115687779Y-83952011D01*
X115771443Y-84108533D01*
X115771443Y-84108534D01*
X115822963Y-84278373D01*
X115840359Y-84455000D01*
X115822963Y-84631627D01*
X115788616Y-84744853D01*
X115771443Y-84801467D01*
X115697348Y-84940087D01*
X115687778Y-84957991D01*
X115658448Y-84993729D01*
X115575186Y-85095186D01*
X115473729Y-85178448D01*
X115437991Y-85207778D01*
X115437989Y-85207779D01*
X115281467Y-85291443D01*
X115224853Y-85308616D01*
X115111627Y-85342963D01*
X115045442Y-85349482D01*
X114979260Y-85356000D01*
X114890740Y-85356000D01*
X114824558Y-85349482D01*
X114758373Y-85342963D01*
X114645147Y-85308616D01*
X114588533Y-85291443D01*
X114432011Y-85207779D01*
X114432009Y-85207778D01*
X114396271Y-85178448D01*
X114294814Y-85095186D01*
X114211552Y-84993729D01*
X114182222Y-84957991D01*
X114172652Y-84940087D01*
X114098557Y-84801467D01*
X114081384Y-84744853D01*
X114047037Y-84631627D01*
X114029641Y-84455000D01*
X114047037Y-84278373D01*
X114098557Y-84108534D01*
X114098557Y-84108533D01*
X114182221Y-83952011D01*
X114182222Y-83952009D01*
X114211552Y-83916271D01*
X114294814Y-83814814D01*
X114396271Y-83731552D01*
X114432009Y-83702222D01*
X114449913Y-83692652D01*
X114588533Y-83618557D01*
X114645147Y-83601384D01*
X114758373Y-83567037D01*
X114824557Y-83560519D01*
X114890740Y-83554000D01*
X114979260Y-83554000D01*
X115045443Y-83560519D01*
X115045443Y-83560519D01*
G37*
G36*
X102345443Y-83560519D02*
X102411627Y-83567037D01*
X102524853Y-83601384D01*
X102581467Y-83618557D01*
X102720087Y-83692652D01*
X102737991Y-83702222D01*
X102773729Y-83731552D01*
X102875186Y-83814814D01*
X102958448Y-83916271D01*
X102987778Y-83952009D01*
X102987779Y-83952011D01*
X103071443Y-84108533D01*
X103071443Y-84108534D01*
X103122963Y-84278373D01*
X103140359Y-84455000D01*
X103122963Y-84631627D01*
X103088616Y-84744853D01*
X103071443Y-84801467D01*
X102997348Y-84940087D01*
X102987778Y-84957991D01*
X102958448Y-84993729D01*
X102875186Y-85095186D01*
X102773729Y-85178448D01*
X102737991Y-85207778D01*
X102737989Y-85207779D01*
X102581467Y-85291443D01*
X102524853Y-85308616D01*
X102411627Y-85342963D01*
X102345442Y-85349482D01*
X102279260Y-85356000D01*
X102190740Y-85356000D01*
X102124558Y-85349482D01*
X102058373Y-85342963D01*
X101945147Y-85308616D01*
X101888533Y-85291443D01*
X101732011Y-85207779D01*
X101732009Y-85207778D01*
X101696271Y-85178448D01*
X101594814Y-85095186D01*
X101511552Y-84993729D01*
X101482222Y-84957991D01*
X101472652Y-84940087D01*
X101398557Y-84801467D01*
X101381384Y-84744853D01*
X101347037Y-84631627D01*
X101329641Y-84455000D01*
X101347037Y-84278373D01*
X101398557Y-84108534D01*
X101398557Y-84108533D01*
X101482221Y-83952011D01*
X101482222Y-83952009D01*
X101511552Y-83916271D01*
X101594814Y-83814814D01*
X101696271Y-83731552D01*
X101732009Y-83702222D01*
X101749913Y-83692652D01*
X101888533Y-83618557D01*
X101945147Y-83601384D01*
X102058373Y-83567037D01*
X102124557Y-83560519D01*
X102190740Y-83554000D01*
X102279260Y-83554000D01*
X102345443Y-83560519D01*
X102345443Y-83560519D01*
G37*
G36*
X145525443Y-83560519D02*
X145591627Y-83567037D01*
X145704853Y-83601384D01*
X145761467Y-83618557D01*
X145900087Y-83692652D01*
X145917991Y-83702222D01*
X145953729Y-83731552D01*
X146055186Y-83814814D01*
X146138448Y-83916271D01*
X146167778Y-83952009D01*
X146167779Y-83952011D01*
X146251443Y-84108533D01*
X146251443Y-84108534D01*
X146302963Y-84278373D01*
X146320359Y-84455000D01*
X146302963Y-84631627D01*
X146268616Y-84744853D01*
X146251443Y-84801467D01*
X146177348Y-84940087D01*
X146167778Y-84957991D01*
X146138448Y-84993729D01*
X146055186Y-85095186D01*
X145953729Y-85178448D01*
X145917991Y-85207778D01*
X145917989Y-85207779D01*
X145761467Y-85291443D01*
X145704853Y-85308616D01*
X145591627Y-85342963D01*
X145525442Y-85349482D01*
X145459260Y-85356000D01*
X145370740Y-85356000D01*
X145304558Y-85349482D01*
X145238373Y-85342963D01*
X145125147Y-85308616D01*
X145068533Y-85291443D01*
X144912011Y-85207779D01*
X144912009Y-85207778D01*
X144876271Y-85178448D01*
X144774814Y-85095186D01*
X144691552Y-84993729D01*
X144662222Y-84957991D01*
X144652652Y-84940087D01*
X144578557Y-84801467D01*
X144561384Y-84744853D01*
X144527037Y-84631627D01*
X144509641Y-84455000D01*
X144527037Y-84278373D01*
X144578557Y-84108534D01*
X144578557Y-84108533D01*
X144662221Y-83952011D01*
X144662222Y-83952009D01*
X144691552Y-83916271D01*
X144774814Y-83814814D01*
X144876271Y-83731552D01*
X144912009Y-83702222D01*
X144929913Y-83692652D01*
X145068533Y-83618557D01*
X145125147Y-83601384D01*
X145238373Y-83567037D01*
X145304557Y-83560519D01*
X145370740Y-83554000D01*
X145459260Y-83554000D01*
X145525443Y-83560519D01*
X145525443Y-83560519D01*
G37*
G36*
X132825442Y-81020518D02*
X132891627Y-81027037D01*
X133004853Y-81061384D01*
X133061467Y-81078557D01*
X133200087Y-81152652D01*
X133217991Y-81162222D01*
X133253729Y-81191552D01*
X133355186Y-81274814D01*
X133438448Y-81376271D01*
X133467778Y-81412009D01*
X133467779Y-81412011D01*
X133551443Y-81568533D01*
X133551443Y-81568534D01*
X133602963Y-81738373D01*
X133620359Y-81915000D01*
X133602963Y-82091627D01*
X133568616Y-82204853D01*
X133551443Y-82261467D01*
X133477348Y-82400087D01*
X133467778Y-82417991D01*
X133438448Y-82453729D01*
X133355186Y-82555186D01*
X133253729Y-82638448D01*
X133217991Y-82667778D01*
X133217989Y-82667779D01*
X133061467Y-82751443D01*
X133004853Y-82768616D01*
X132891627Y-82802963D01*
X132825442Y-82809482D01*
X132759260Y-82816000D01*
X132670740Y-82816000D01*
X132604558Y-82809482D01*
X132538373Y-82802963D01*
X132425147Y-82768616D01*
X132368533Y-82751443D01*
X132212011Y-82667779D01*
X132212009Y-82667778D01*
X132176271Y-82638448D01*
X132074814Y-82555186D01*
X131991552Y-82453729D01*
X131962222Y-82417991D01*
X131952652Y-82400087D01*
X131878557Y-82261467D01*
X131861384Y-82204853D01*
X131827037Y-82091627D01*
X131809641Y-81915000D01*
X131827037Y-81738373D01*
X131878557Y-81568534D01*
X131878557Y-81568533D01*
X131962221Y-81412011D01*
X131962222Y-81412009D01*
X131991552Y-81376271D01*
X132074814Y-81274814D01*
X132176271Y-81191552D01*
X132212009Y-81162222D01*
X132229913Y-81152652D01*
X132368533Y-81078557D01*
X132425147Y-81061384D01*
X132538373Y-81027037D01*
X132604558Y-81020518D01*
X132670740Y-81014000D01*
X132759260Y-81014000D01*
X132825442Y-81020518D01*
X132825442Y-81020518D01*
G37*
G36*
X125205442Y-81020518D02*
X125271627Y-81027037D01*
X125384853Y-81061384D01*
X125441467Y-81078557D01*
X125580087Y-81152652D01*
X125597991Y-81162222D01*
X125633729Y-81191552D01*
X125735186Y-81274814D01*
X125818448Y-81376271D01*
X125847778Y-81412009D01*
X125847779Y-81412011D01*
X125931443Y-81568533D01*
X125931443Y-81568534D01*
X125982963Y-81738373D01*
X126000359Y-81915000D01*
X125982963Y-82091627D01*
X125948616Y-82204853D01*
X125931443Y-82261467D01*
X125857348Y-82400087D01*
X125847778Y-82417991D01*
X125818448Y-82453729D01*
X125735186Y-82555186D01*
X125633729Y-82638448D01*
X125597991Y-82667778D01*
X125597989Y-82667779D01*
X125441467Y-82751443D01*
X125384853Y-82768616D01*
X125271627Y-82802963D01*
X125205442Y-82809482D01*
X125139260Y-82816000D01*
X125050740Y-82816000D01*
X124984558Y-82809482D01*
X124918373Y-82802963D01*
X124805147Y-82768616D01*
X124748533Y-82751443D01*
X124592011Y-82667779D01*
X124592009Y-82667778D01*
X124556271Y-82638448D01*
X124454814Y-82555186D01*
X124371552Y-82453729D01*
X124342222Y-82417991D01*
X124332652Y-82400087D01*
X124258557Y-82261467D01*
X124241384Y-82204853D01*
X124207037Y-82091627D01*
X124189641Y-81915000D01*
X124207037Y-81738373D01*
X124258557Y-81568534D01*
X124258557Y-81568533D01*
X124342221Y-81412011D01*
X124342222Y-81412009D01*
X124371552Y-81376271D01*
X124454814Y-81274814D01*
X124556271Y-81191552D01*
X124592009Y-81162222D01*
X124609913Y-81152652D01*
X124748533Y-81078557D01*
X124805147Y-81061384D01*
X124918373Y-81027037D01*
X124984558Y-81020518D01*
X125050740Y-81014000D01*
X125139260Y-81014000D01*
X125205442Y-81020518D01*
X125205442Y-81020518D01*
G37*
G36*
X115045442Y-81020518D02*
X115111627Y-81027037D01*
X115224853Y-81061384D01*
X115281467Y-81078557D01*
X115420087Y-81152652D01*
X115437991Y-81162222D01*
X115473729Y-81191552D01*
X115575186Y-81274814D01*
X115658448Y-81376271D01*
X115687778Y-81412009D01*
X115687779Y-81412011D01*
X115771443Y-81568533D01*
X115771443Y-81568534D01*
X115822963Y-81738373D01*
X115840359Y-81915000D01*
X115822963Y-82091627D01*
X115788616Y-82204853D01*
X115771443Y-82261467D01*
X115697348Y-82400087D01*
X115687778Y-82417991D01*
X115658448Y-82453729D01*
X115575186Y-82555186D01*
X115473729Y-82638448D01*
X115437991Y-82667778D01*
X115437989Y-82667779D01*
X115281467Y-82751443D01*
X115224853Y-82768616D01*
X115111627Y-82802963D01*
X115045442Y-82809482D01*
X114979260Y-82816000D01*
X114890740Y-82816000D01*
X114824558Y-82809482D01*
X114758373Y-82802963D01*
X114645147Y-82768616D01*
X114588533Y-82751443D01*
X114432011Y-82667779D01*
X114432009Y-82667778D01*
X114396271Y-82638448D01*
X114294814Y-82555186D01*
X114211552Y-82453729D01*
X114182222Y-82417991D01*
X114172652Y-82400087D01*
X114098557Y-82261467D01*
X114081384Y-82204853D01*
X114047037Y-82091627D01*
X114029641Y-81915000D01*
X114047037Y-81738373D01*
X114098557Y-81568534D01*
X114098557Y-81568533D01*
X114182221Y-81412011D01*
X114182222Y-81412009D01*
X114211552Y-81376271D01*
X114294814Y-81274814D01*
X114396271Y-81191552D01*
X114432009Y-81162222D01*
X114449913Y-81152652D01*
X114588533Y-81078557D01*
X114645147Y-81061384D01*
X114758373Y-81027037D01*
X114824558Y-81020518D01*
X114890740Y-81014000D01*
X114979260Y-81014000D01*
X115045442Y-81020518D01*
X115045442Y-81020518D01*
G37*
G36*
X112505442Y-81020518D02*
X112571627Y-81027037D01*
X112684853Y-81061384D01*
X112741467Y-81078557D01*
X112880087Y-81152652D01*
X112897991Y-81162222D01*
X112933729Y-81191552D01*
X113035186Y-81274814D01*
X113118448Y-81376271D01*
X113147778Y-81412009D01*
X113147779Y-81412011D01*
X113231443Y-81568533D01*
X113231443Y-81568534D01*
X113282963Y-81738373D01*
X113300359Y-81915000D01*
X113282963Y-82091627D01*
X113248616Y-82204853D01*
X113231443Y-82261467D01*
X113157348Y-82400087D01*
X113147778Y-82417991D01*
X113118448Y-82453729D01*
X113035186Y-82555186D01*
X112933729Y-82638448D01*
X112897991Y-82667778D01*
X112897989Y-82667779D01*
X112741467Y-82751443D01*
X112684853Y-82768616D01*
X112571627Y-82802963D01*
X112505442Y-82809482D01*
X112439260Y-82816000D01*
X112350740Y-82816000D01*
X112284558Y-82809482D01*
X112218373Y-82802963D01*
X112105147Y-82768616D01*
X112048533Y-82751443D01*
X111892011Y-82667779D01*
X111892009Y-82667778D01*
X111856271Y-82638448D01*
X111754814Y-82555186D01*
X111671552Y-82453729D01*
X111642222Y-82417991D01*
X111632652Y-82400087D01*
X111558557Y-82261467D01*
X111541384Y-82204853D01*
X111507037Y-82091627D01*
X111489641Y-81915000D01*
X111507037Y-81738373D01*
X111558557Y-81568534D01*
X111558557Y-81568533D01*
X111642221Y-81412011D01*
X111642222Y-81412009D01*
X111671552Y-81376271D01*
X111754814Y-81274814D01*
X111856271Y-81191552D01*
X111892009Y-81162222D01*
X111909913Y-81152652D01*
X112048533Y-81078557D01*
X112105147Y-81061384D01*
X112218373Y-81027037D01*
X112284558Y-81020518D01*
X112350740Y-81014000D01*
X112439260Y-81014000D01*
X112505442Y-81020518D01*
X112505442Y-81020518D01*
G37*
G36*
X122665442Y-81020518D02*
X122731627Y-81027037D01*
X122844853Y-81061384D01*
X122901467Y-81078557D01*
X123040087Y-81152652D01*
X123057991Y-81162222D01*
X123093729Y-81191552D01*
X123195186Y-81274814D01*
X123278448Y-81376271D01*
X123307778Y-81412009D01*
X123307779Y-81412011D01*
X123391443Y-81568533D01*
X123391443Y-81568534D01*
X123442963Y-81738373D01*
X123460359Y-81915000D01*
X123442963Y-82091627D01*
X123408616Y-82204853D01*
X123391443Y-82261467D01*
X123317348Y-82400087D01*
X123307778Y-82417991D01*
X123278448Y-82453729D01*
X123195186Y-82555186D01*
X123093729Y-82638448D01*
X123057991Y-82667778D01*
X123057989Y-82667779D01*
X122901467Y-82751443D01*
X122844853Y-82768616D01*
X122731627Y-82802963D01*
X122665442Y-82809482D01*
X122599260Y-82816000D01*
X122510740Y-82816000D01*
X122444558Y-82809482D01*
X122378373Y-82802963D01*
X122265147Y-82768616D01*
X122208533Y-82751443D01*
X122052011Y-82667779D01*
X122052009Y-82667778D01*
X122016271Y-82638448D01*
X121914814Y-82555186D01*
X121831552Y-82453729D01*
X121802222Y-82417991D01*
X121792652Y-82400087D01*
X121718557Y-82261467D01*
X121701384Y-82204853D01*
X121667037Y-82091627D01*
X121649641Y-81915000D01*
X121667037Y-81738373D01*
X121718557Y-81568534D01*
X121718557Y-81568533D01*
X121802221Y-81412011D01*
X121802222Y-81412009D01*
X121831552Y-81376271D01*
X121914814Y-81274814D01*
X122016271Y-81191552D01*
X122052009Y-81162222D01*
X122069913Y-81152652D01*
X122208533Y-81078557D01*
X122265147Y-81061384D01*
X122378373Y-81027037D01*
X122444558Y-81020518D01*
X122510740Y-81014000D01*
X122599260Y-81014000D01*
X122665442Y-81020518D01*
X122665442Y-81020518D01*
G37*
G36*
X145525442Y-81020518D02*
X145591627Y-81027037D01*
X145704853Y-81061384D01*
X145761467Y-81078557D01*
X145900087Y-81152652D01*
X145917991Y-81162222D01*
X145953729Y-81191552D01*
X146055186Y-81274814D01*
X146138448Y-81376271D01*
X146167778Y-81412009D01*
X146167779Y-81412011D01*
X146251443Y-81568533D01*
X146251443Y-81568534D01*
X146302963Y-81738373D01*
X146320359Y-81915000D01*
X146302963Y-82091627D01*
X146268616Y-82204853D01*
X146251443Y-82261467D01*
X146177348Y-82400087D01*
X146167778Y-82417991D01*
X146138448Y-82453729D01*
X146055186Y-82555186D01*
X145953729Y-82638448D01*
X145917991Y-82667778D01*
X145917989Y-82667779D01*
X145761467Y-82751443D01*
X145704853Y-82768616D01*
X145591627Y-82802963D01*
X145525442Y-82809482D01*
X145459260Y-82816000D01*
X145370740Y-82816000D01*
X145304558Y-82809482D01*
X145238373Y-82802963D01*
X145125147Y-82768616D01*
X145068533Y-82751443D01*
X144912011Y-82667779D01*
X144912009Y-82667778D01*
X144876271Y-82638448D01*
X144774814Y-82555186D01*
X144691552Y-82453729D01*
X144662222Y-82417991D01*
X144652652Y-82400087D01*
X144578557Y-82261467D01*
X144561384Y-82204853D01*
X144527037Y-82091627D01*
X144509641Y-81915000D01*
X144527037Y-81738373D01*
X144578557Y-81568534D01*
X144578557Y-81568533D01*
X144662221Y-81412011D01*
X144662222Y-81412009D01*
X144691552Y-81376271D01*
X144774814Y-81274814D01*
X144876271Y-81191552D01*
X144912009Y-81162222D01*
X144929913Y-81152652D01*
X145068533Y-81078557D01*
X145125147Y-81061384D01*
X145238373Y-81027037D01*
X145304558Y-81020518D01*
X145370740Y-81014000D01*
X145459260Y-81014000D01*
X145525442Y-81020518D01*
X145525442Y-81020518D01*
G37*
G36*
X61705442Y-81020518D02*
X61771627Y-81027037D01*
X61884853Y-81061384D01*
X61941467Y-81078557D01*
X62080087Y-81152652D01*
X62097991Y-81162222D01*
X62133729Y-81191552D01*
X62235186Y-81274814D01*
X62318448Y-81376271D01*
X62347778Y-81412009D01*
X62347779Y-81412011D01*
X62431443Y-81568533D01*
X62431443Y-81568534D01*
X62482963Y-81738373D01*
X62500359Y-81915000D01*
X62482963Y-82091627D01*
X62448616Y-82204853D01*
X62431443Y-82261467D01*
X62357348Y-82400087D01*
X62347778Y-82417991D01*
X62318448Y-82453729D01*
X62235186Y-82555186D01*
X62133729Y-82638448D01*
X62097991Y-82667778D01*
X62097989Y-82667779D01*
X61941467Y-82751443D01*
X61884853Y-82768616D01*
X61771627Y-82802963D01*
X61705442Y-82809482D01*
X61639260Y-82816000D01*
X61550740Y-82816000D01*
X61484558Y-82809482D01*
X61418373Y-82802963D01*
X61305147Y-82768616D01*
X61248533Y-82751443D01*
X61092011Y-82667779D01*
X61092009Y-82667778D01*
X61056271Y-82638448D01*
X60954814Y-82555186D01*
X60871552Y-82453729D01*
X60842222Y-82417991D01*
X60832652Y-82400087D01*
X60758557Y-82261467D01*
X60741384Y-82204853D01*
X60707037Y-82091627D01*
X60689641Y-81915000D01*
X60707037Y-81738373D01*
X60758557Y-81568534D01*
X60758557Y-81568533D01*
X60842221Y-81412011D01*
X60842222Y-81412009D01*
X60871552Y-81376271D01*
X60954814Y-81274814D01*
X61056271Y-81191552D01*
X61092009Y-81162222D01*
X61109913Y-81152652D01*
X61248533Y-81078557D01*
X61305147Y-81061384D01*
X61418373Y-81027037D01*
X61484558Y-81020518D01*
X61550740Y-81014000D01*
X61639260Y-81014000D01*
X61705442Y-81020518D01*
X61705442Y-81020518D01*
G37*
G36*
X64245442Y-81020518D02*
X64311627Y-81027037D01*
X64424853Y-81061384D01*
X64481467Y-81078557D01*
X64620087Y-81152652D01*
X64637991Y-81162222D01*
X64673729Y-81191552D01*
X64775186Y-81274814D01*
X64858448Y-81376271D01*
X64887778Y-81412009D01*
X64887779Y-81412011D01*
X64971443Y-81568533D01*
X64971443Y-81568534D01*
X65022963Y-81738373D01*
X65040359Y-81915000D01*
X65022963Y-82091627D01*
X64988616Y-82204853D01*
X64971443Y-82261467D01*
X64897348Y-82400087D01*
X64887778Y-82417991D01*
X64858448Y-82453729D01*
X64775186Y-82555186D01*
X64673729Y-82638448D01*
X64637991Y-82667778D01*
X64637989Y-82667779D01*
X64481467Y-82751443D01*
X64424853Y-82768616D01*
X64311627Y-82802963D01*
X64245442Y-82809482D01*
X64179260Y-82816000D01*
X64090740Y-82816000D01*
X64024558Y-82809482D01*
X63958373Y-82802963D01*
X63845147Y-82768616D01*
X63788533Y-82751443D01*
X63632011Y-82667779D01*
X63632009Y-82667778D01*
X63596271Y-82638448D01*
X63494814Y-82555186D01*
X63411552Y-82453729D01*
X63382222Y-82417991D01*
X63372652Y-82400087D01*
X63298557Y-82261467D01*
X63281384Y-82204853D01*
X63247037Y-82091627D01*
X63229641Y-81915000D01*
X63247037Y-81738373D01*
X63298557Y-81568534D01*
X63298557Y-81568533D01*
X63382221Y-81412011D01*
X63382222Y-81412009D01*
X63411552Y-81376271D01*
X63494814Y-81274814D01*
X63596271Y-81191552D01*
X63632009Y-81162222D01*
X63649913Y-81152652D01*
X63788533Y-81078557D01*
X63845147Y-81061384D01*
X63958373Y-81027037D01*
X64024558Y-81020518D01*
X64090740Y-81014000D01*
X64179260Y-81014000D01*
X64245442Y-81020518D01*
X64245442Y-81020518D01*
G37*
G36*
X142985442Y-81020518D02*
X143051627Y-81027037D01*
X143164853Y-81061384D01*
X143221467Y-81078557D01*
X143360087Y-81152652D01*
X143377991Y-81162222D01*
X143413729Y-81191552D01*
X143515186Y-81274814D01*
X143598448Y-81376271D01*
X143627778Y-81412009D01*
X143627779Y-81412011D01*
X143711443Y-81568533D01*
X143711443Y-81568534D01*
X143762963Y-81738373D01*
X143780359Y-81915000D01*
X143762963Y-82091627D01*
X143728616Y-82204853D01*
X143711443Y-82261467D01*
X143637348Y-82400087D01*
X143627778Y-82417991D01*
X143598448Y-82453729D01*
X143515186Y-82555186D01*
X143413729Y-82638448D01*
X143377991Y-82667778D01*
X143377989Y-82667779D01*
X143221467Y-82751443D01*
X143164853Y-82768616D01*
X143051627Y-82802963D01*
X142985442Y-82809482D01*
X142919260Y-82816000D01*
X142830740Y-82816000D01*
X142764558Y-82809482D01*
X142698373Y-82802963D01*
X142585147Y-82768616D01*
X142528533Y-82751443D01*
X142372011Y-82667779D01*
X142372009Y-82667778D01*
X142336271Y-82638448D01*
X142234814Y-82555186D01*
X142151552Y-82453729D01*
X142122222Y-82417991D01*
X142112652Y-82400087D01*
X142038557Y-82261467D01*
X142021384Y-82204853D01*
X141987037Y-82091627D01*
X141969641Y-81915000D01*
X141987037Y-81738373D01*
X142038557Y-81568534D01*
X142038557Y-81568533D01*
X142122221Y-81412011D01*
X142122222Y-81412009D01*
X142151552Y-81376271D01*
X142234814Y-81274814D01*
X142336271Y-81191552D01*
X142372009Y-81162222D01*
X142389913Y-81152652D01*
X142528533Y-81078557D01*
X142585147Y-81061384D01*
X142698373Y-81027037D01*
X142764558Y-81020518D01*
X142830740Y-81014000D01*
X142919260Y-81014000D01*
X142985442Y-81020518D01*
X142985442Y-81020518D01*
G37*
G36*
X104885442Y-81020518D02*
X104951627Y-81027037D01*
X105064853Y-81061384D01*
X105121467Y-81078557D01*
X105260087Y-81152652D01*
X105277991Y-81162222D01*
X105313729Y-81191552D01*
X105415186Y-81274814D01*
X105498448Y-81376271D01*
X105527778Y-81412009D01*
X105527779Y-81412011D01*
X105611443Y-81568533D01*
X105611443Y-81568534D01*
X105662963Y-81738373D01*
X105680359Y-81915000D01*
X105662963Y-82091627D01*
X105628616Y-82204853D01*
X105611443Y-82261467D01*
X105537348Y-82400087D01*
X105527778Y-82417991D01*
X105498448Y-82453729D01*
X105415186Y-82555186D01*
X105313729Y-82638448D01*
X105277991Y-82667778D01*
X105277989Y-82667779D01*
X105121467Y-82751443D01*
X105064853Y-82768616D01*
X104951627Y-82802963D01*
X104885442Y-82809482D01*
X104819260Y-82816000D01*
X104730740Y-82816000D01*
X104664558Y-82809482D01*
X104598373Y-82802963D01*
X104485147Y-82768616D01*
X104428533Y-82751443D01*
X104272011Y-82667779D01*
X104272009Y-82667778D01*
X104236271Y-82638448D01*
X104134814Y-82555186D01*
X104051552Y-82453729D01*
X104022222Y-82417991D01*
X104012652Y-82400087D01*
X103938557Y-82261467D01*
X103921384Y-82204853D01*
X103887037Y-82091627D01*
X103869641Y-81915000D01*
X103887037Y-81738373D01*
X103938557Y-81568534D01*
X103938557Y-81568533D01*
X104022221Y-81412011D01*
X104022222Y-81412009D01*
X104051552Y-81376271D01*
X104134814Y-81274814D01*
X104236271Y-81191552D01*
X104272009Y-81162222D01*
X104289913Y-81152652D01*
X104428533Y-81078557D01*
X104485147Y-81061384D01*
X104598373Y-81027037D01*
X104664558Y-81020518D01*
X104730740Y-81014000D01*
X104819260Y-81014000D01*
X104885442Y-81020518D01*
X104885442Y-81020518D01*
G37*
G36*
X102345442Y-81020518D02*
X102411627Y-81027037D01*
X102524853Y-81061384D01*
X102581467Y-81078557D01*
X102720087Y-81152652D01*
X102737991Y-81162222D01*
X102773729Y-81191552D01*
X102875186Y-81274814D01*
X102958448Y-81376271D01*
X102987778Y-81412009D01*
X102987779Y-81412011D01*
X103071443Y-81568533D01*
X103071443Y-81568534D01*
X103122963Y-81738373D01*
X103140359Y-81915000D01*
X103122963Y-82091627D01*
X103088616Y-82204853D01*
X103071443Y-82261467D01*
X102997348Y-82400087D01*
X102987778Y-82417991D01*
X102958448Y-82453729D01*
X102875186Y-82555186D01*
X102773729Y-82638448D01*
X102737991Y-82667778D01*
X102737989Y-82667779D01*
X102581467Y-82751443D01*
X102524853Y-82768616D01*
X102411627Y-82802963D01*
X102345442Y-82809482D01*
X102279260Y-82816000D01*
X102190740Y-82816000D01*
X102124558Y-82809482D01*
X102058373Y-82802963D01*
X101945147Y-82768616D01*
X101888533Y-82751443D01*
X101732011Y-82667779D01*
X101732009Y-82667778D01*
X101696271Y-82638448D01*
X101594814Y-82555186D01*
X101511552Y-82453729D01*
X101482222Y-82417991D01*
X101472652Y-82400087D01*
X101398557Y-82261467D01*
X101381384Y-82204853D01*
X101347037Y-82091627D01*
X101329641Y-81915000D01*
X101347037Y-81738373D01*
X101398557Y-81568534D01*
X101398557Y-81568533D01*
X101482221Y-81412011D01*
X101482222Y-81412009D01*
X101511552Y-81376271D01*
X101594814Y-81274814D01*
X101696271Y-81191552D01*
X101732009Y-81162222D01*
X101749913Y-81152652D01*
X101888533Y-81078557D01*
X101945147Y-81061384D01*
X102058373Y-81027037D01*
X102124558Y-81020518D01*
X102190740Y-81014000D01*
X102279260Y-81014000D01*
X102345442Y-81020518D01*
X102345442Y-81020518D01*
G37*
G36*
X84565442Y-81020518D02*
X84631627Y-81027037D01*
X84744853Y-81061384D01*
X84801467Y-81078557D01*
X84940087Y-81152652D01*
X84957991Y-81162222D01*
X84993729Y-81191552D01*
X85095186Y-81274814D01*
X85178448Y-81376271D01*
X85207778Y-81412009D01*
X85207779Y-81412011D01*
X85291443Y-81568533D01*
X85291443Y-81568534D01*
X85342963Y-81738373D01*
X85360359Y-81915000D01*
X85342963Y-82091627D01*
X85308616Y-82204853D01*
X85291443Y-82261467D01*
X85217348Y-82400087D01*
X85207778Y-82417991D01*
X85178448Y-82453729D01*
X85095186Y-82555186D01*
X84993729Y-82638448D01*
X84957991Y-82667778D01*
X84957989Y-82667779D01*
X84801467Y-82751443D01*
X84744853Y-82768616D01*
X84631627Y-82802963D01*
X84565442Y-82809482D01*
X84499260Y-82816000D01*
X84410740Y-82816000D01*
X84344558Y-82809482D01*
X84278373Y-82802963D01*
X84165147Y-82768616D01*
X84108533Y-82751443D01*
X83952011Y-82667779D01*
X83952009Y-82667778D01*
X83916271Y-82638448D01*
X83814814Y-82555186D01*
X83731552Y-82453729D01*
X83702222Y-82417991D01*
X83692652Y-82400087D01*
X83618557Y-82261467D01*
X83601384Y-82204853D01*
X83567037Y-82091627D01*
X83549641Y-81915000D01*
X83567037Y-81738373D01*
X83618557Y-81568534D01*
X83618557Y-81568533D01*
X83702221Y-81412011D01*
X83702222Y-81412009D01*
X83731552Y-81376271D01*
X83814814Y-81274814D01*
X83916271Y-81191552D01*
X83952009Y-81162222D01*
X83969913Y-81152652D01*
X84108533Y-81078557D01*
X84165147Y-81061384D01*
X84278373Y-81027037D01*
X84344558Y-81020518D01*
X84410740Y-81014000D01*
X84499260Y-81014000D01*
X84565442Y-81020518D01*
X84565442Y-81020518D01*
G37*
G36*
X82025442Y-81020518D02*
X82091627Y-81027037D01*
X82204853Y-81061384D01*
X82261467Y-81078557D01*
X82400087Y-81152652D01*
X82417991Y-81162222D01*
X82453729Y-81191552D01*
X82555186Y-81274814D01*
X82638448Y-81376271D01*
X82667778Y-81412009D01*
X82667779Y-81412011D01*
X82751443Y-81568533D01*
X82751443Y-81568534D01*
X82802963Y-81738373D01*
X82820359Y-81915000D01*
X82802963Y-82091627D01*
X82768616Y-82204853D01*
X82751443Y-82261467D01*
X82677348Y-82400087D01*
X82667778Y-82417991D01*
X82638448Y-82453729D01*
X82555186Y-82555186D01*
X82453729Y-82638448D01*
X82417991Y-82667778D01*
X82417989Y-82667779D01*
X82261467Y-82751443D01*
X82204853Y-82768616D01*
X82091627Y-82802963D01*
X82025442Y-82809482D01*
X81959260Y-82816000D01*
X81870740Y-82816000D01*
X81804558Y-82809482D01*
X81738373Y-82802963D01*
X81625147Y-82768616D01*
X81568533Y-82751443D01*
X81412011Y-82667779D01*
X81412009Y-82667778D01*
X81376271Y-82638448D01*
X81274814Y-82555186D01*
X81191552Y-82453729D01*
X81162222Y-82417991D01*
X81152652Y-82400087D01*
X81078557Y-82261467D01*
X81061384Y-82204853D01*
X81027037Y-82091627D01*
X81009641Y-81915000D01*
X81027037Y-81738373D01*
X81078557Y-81568534D01*
X81078557Y-81568533D01*
X81162221Y-81412011D01*
X81162222Y-81412009D01*
X81191552Y-81376271D01*
X81274814Y-81274814D01*
X81376271Y-81191552D01*
X81412009Y-81162222D01*
X81429913Y-81152652D01*
X81568533Y-81078557D01*
X81625147Y-81061384D01*
X81738373Y-81027037D01*
X81804558Y-81020518D01*
X81870740Y-81014000D01*
X81959260Y-81014000D01*
X82025442Y-81020518D01*
X82025442Y-81020518D01*
G37*
G36*
X74405442Y-81020518D02*
X74471627Y-81027037D01*
X74584853Y-81061384D01*
X74641467Y-81078557D01*
X74780087Y-81152652D01*
X74797991Y-81162222D01*
X74833729Y-81191552D01*
X74935186Y-81274814D01*
X75018448Y-81376271D01*
X75047778Y-81412009D01*
X75047779Y-81412011D01*
X75131443Y-81568533D01*
X75131443Y-81568534D01*
X75182963Y-81738373D01*
X75200359Y-81915000D01*
X75182963Y-82091627D01*
X75148616Y-82204853D01*
X75131443Y-82261467D01*
X75057348Y-82400087D01*
X75047778Y-82417991D01*
X75018448Y-82453729D01*
X74935186Y-82555186D01*
X74833729Y-82638448D01*
X74797991Y-82667778D01*
X74797989Y-82667779D01*
X74641467Y-82751443D01*
X74584853Y-82768616D01*
X74471627Y-82802963D01*
X74405442Y-82809482D01*
X74339260Y-82816000D01*
X74250740Y-82816000D01*
X74184558Y-82809482D01*
X74118373Y-82802963D01*
X74005147Y-82768616D01*
X73948533Y-82751443D01*
X73792011Y-82667779D01*
X73792009Y-82667778D01*
X73756271Y-82638448D01*
X73654814Y-82555186D01*
X73571552Y-82453729D01*
X73542222Y-82417991D01*
X73532652Y-82400087D01*
X73458557Y-82261467D01*
X73441384Y-82204853D01*
X73407037Y-82091627D01*
X73389641Y-81915000D01*
X73407037Y-81738373D01*
X73458557Y-81568534D01*
X73458557Y-81568533D01*
X73542221Y-81412011D01*
X73542222Y-81412009D01*
X73571552Y-81376271D01*
X73654814Y-81274814D01*
X73756271Y-81191552D01*
X73792009Y-81162222D01*
X73809913Y-81152652D01*
X73948533Y-81078557D01*
X74005147Y-81061384D01*
X74118373Y-81027037D01*
X74184558Y-81020518D01*
X74250740Y-81014000D01*
X74339260Y-81014000D01*
X74405442Y-81020518D01*
X74405442Y-81020518D01*
G37*
G36*
X94725442Y-81020518D02*
X94791627Y-81027037D01*
X94904853Y-81061384D01*
X94961467Y-81078557D01*
X95100087Y-81152652D01*
X95117991Y-81162222D01*
X95153729Y-81191552D01*
X95255186Y-81274814D01*
X95338448Y-81376271D01*
X95367778Y-81412009D01*
X95367779Y-81412011D01*
X95451443Y-81568533D01*
X95451443Y-81568534D01*
X95502963Y-81738373D01*
X95520359Y-81915000D01*
X95502963Y-82091627D01*
X95468616Y-82204853D01*
X95451443Y-82261467D01*
X95377348Y-82400087D01*
X95367778Y-82417991D01*
X95338448Y-82453729D01*
X95255186Y-82555186D01*
X95153729Y-82638448D01*
X95117991Y-82667778D01*
X95117989Y-82667779D01*
X94961467Y-82751443D01*
X94904853Y-82768616D01*
X94791627Y-82802963D01*
X94725442Y-82809482D01*
X94659260Y-82816000D01*
X94570740Y-82816000D01*
X94504558Y-82809482D01*
X94438373Y-82802963D01*
X94325147Y-82768616D01*
X94268533Y-82751443D01*
X94112011Y-82667779D01*
X94112009Y-82667778D01*
X94076271Y-82638448D01*
X93974814Y-82555186D01*
X93891552Y-82453729D01*
X93862222Y-82417991D01*
X93852652Y-82400087D01*
X93778557Y-82261467D01*
X93761384Y-82204853D01*
X93727037Y-82091627D01*
X93709641Y-81915000D01*
X93727037Y-81738373D01*
X93778557Y-81568534D01*
X93778557Y-81568533D01*
X93862221Y-81412011D01*
X93862222Y-81412009D01*
X93891552Y-81376271D01*
X93974814Y-81274814D01*
X94076271Y-81191552D01*
X94112009Y-81162222D01*
X94129913Y-81152652D01*
X94268533Y-81078557D01*
X94325147Y-81061384D01*
X94438373Y-81027037D01*
X94504558Y-81020518D01*
X94570740Y-81014000D01*
X94659260Y-81014000D01*
X94725442Y-81020518D01*
X94725442Y-81020518D01*
G37*
G36*
X71865442Y-81020518D02*
X71931627Y-81027037D01*
X72044853Y-81061384D01*
X72101467Y-81078557D01*
X72240087Y-81152652D01*
X72257991Y-81162222D01*
X72293729Y-81191552D01*
X72395186Y-81274814D01*
X72478448Y-81376271D01*
X72507778Y-81412009D01*
X72507779Y-81412011D01*
X72591443Y-81568533D01*
X72591443Y-81568534D01*
X72642963Y-81738373D01*
X72660359Y-81915000D01*
X72642963Y-82091627D01*
X72608616Y-82204853D01*
X72591443Y-82261467D01*
X72517348Y-82400087D01*
X72507778Y-82417991D01*
X72478448Y-82453729D01*
X72395186Y-82555186D01*
X72293729Y-82638448D01*
X72257991Y-82667778D01*
X72257989Y-82667779D01*
X72101467Y-82751443D01*
X72044853Y-82768616D01*
X71931627Y-82802963D01*
X71865442Y-82809482D01*
X71799260Y-82816000D01*
X71710740Y-82816000D01*
X71644558Y-82809482D01*
X71578373Y-82802963D01*
X71465147Y-82768616D01*
X71408533Y-82751443D01*
X71252011Y-82667779D01*
X71252009Y-82667778D01*
X71216271Y-82638448D01*
X71114814Y-82555186D01*
X71031552Y-82453729D01*
X71002222Y-82417991D01*
X70992652Y-82400087D01*
X70918557Y-82261467D01*
X70901384Y-82204853D01*
X70867037Y-82091627D01*
X70849641Y-81915000D01*
X70867037Y-81738373D01*
X70918557Y-81568534D01*
X70918557Y-81568533D01*
X71002221Y-81412011D01*
X71002222Y-81412009D01*
X71031552Y-81376271D01*
X71114814Y-81274814D01*
X71216271Y-81191552D01*
X71252009Y-81162222D01*
X71269913Y-81152652D01*
X71408533Y-81078557D01*
X71465147Y-81061384D01*
X71578373Y-81027037D01*
X71644558Y-81020518D01*
X71710740Y-81014000D01*
X71799260Y-81014000D01*
X71865442Y-81020518D01*
X71865442Y-81020518D01*
G37*
G36*
X92185442Y-81020518D02*
X92251627Y-81027037D01*
X92364853Y-81061384D01*
X92421467Y-81078557D01*
X92560087Y-81152652D01*
X92577991Y-81162222D01*
X92613729Y-81191552D01*
X92715186Y-81274814D01*
X92798448Y-81376271D01*
X92827778Y-81412009D01*
X92827779Y-81412011D01*
X92911443Y-81568533D01*
X92911443Y-81568534D01*
X92962963Y-81738373D01*
X92980359Y-81915000D01*
X92962963Y-82091627D01*
X92928616Y-82204853D01*
X92911443Y-82261467D01*
X92837348Y-82400087D01*
X92827778Y-82417991D01*
X92798448Y-82453729D01*
X92715186Y-82555186D01*
X92613729Y-82638448D01*
X92577991Y-82667778D01*
X92577989Y-82667779D01*
X92421467Y-82751443D01*
X92364853Y-82768616D01*
X92251627Y-82802963D01*
X92185442Y-82809482D01*
X92119260Y-82816000D01*
X92030740Y-82816000D01*
X91964558Y-82809482D01*
X91898373Y-82802963D01*
X91785147Y-82768616D01*
X91728533Y-82751443D01*
X91572011Y-82667779D01*
X91572009Y-82667778D01*
X91536271Y-82638448D01*
X91434814Y-82555186D01*
X91351552Y-82453729D01*
X91322222Y-82417991D01*
X91312652Y-82400087D01*
X91238557Y-82261467D01*
X91221384Y-82204853D01*
X91187037Y-82091627D01*
X91169641Y-81915000D01*
X91187037Y-81738373D01*
X91238557Y-81568534D01*
X91238557Y-81568533D01*
X91322221Y-81412011D01*
X91322222Y-81412009D01*
X91351552Y-81376271D01*
X91434814Y-81274814D01*
X91536271Y-81191552D01*
X91572009Y-81162222D01*
X91589913Y-81152652D01*
X91728533Y-81078557D01*
X91785147Y-81061384D01*
X91898373Y-81027037D01*
X91964558Y-81020518D01*
X92030740Y-81014000D01*
X92119260Y-81014000D01*
X92185442Y-81020518D01*
X92185442Y-81020518D01*
G37*
G36*
X135365442Y-81020518D02*
X135431627Y-81027037D01*
X135544853Y-81061384D01*
X135601467Y-81078557D01*
X135740087Y-81152652D01*
X135757991Y-81162222D01*
X135793729Y-81191552D01*
X135895186Y-81274814D01*
X135978448Y-81376271D01*
X136007778Y-81412009D01*
X136007779Y-81412011D01*
X136091443Y-81568533D01*
X136091443Y-81568534D01*
X136142963Y-81738373D01*
X136160359Y-81915000D01*
X136142963Y-82091627D01*
X136108616Y-82204853D01*
X136091443Y-82261467D01*
X136017348Y-82400087D01*
X136007778Y-82417991D01*
X135978448Y-82453729D01*
X135895186Y-82555186D01*
X135793729Y-82638448D01*
X135757991Y-82667778D01*
X135757989Y-82667779D01*
X135601467Y-82751443D01*
X135544853Y-82768616D01*
X135431627Y-82802963D01*
X135365442Y-82809482D01*
X135299260Y-82816000D01*
X135210740Y-82816000D01*
X135144558Y-82809482D01*
X135078373Y-82802963D01*
X134965147Y-82768616D01*
X134908533Y-82751443D01*
X134752011Y-82667779D01*
X134752009Y-82667778D01*
X134716271Y-82638448D01*
X134614814Y-82555186D01*
X134531552Y-82453729D01*
X134502222Y-82417991D01*
X134492652Y-82400087D01*
X134418557Y-82261467D01*
X134401384Y-82204853D01*
X134367037Y-82091627D01*
X134349641Y-81915000D01*
X134367037Y-81738373D01*
X134418557Y-81568534D01*
X134418557Y-81568533D01*
X134502221Y-81412011D01*
X134502222Y-81412009D01*
X134531552Y-81376271D01*
X134614814Y-81274814D01*
X134716271Y-81191552D01*
X134752009Y-81162222D01*
X134769913Y-81152652D01*
X134908533Y-81078557D01*
X134965147Y-81061384D01*
X135078373Y-81027037D01*
X135144558Y-81020518D01*
X135210740Y-81014000D01*
X135299260Y-81014000D01*
X135365442Y-81020518D01*
X135365442Y-81020518D01*
G37*
G36*
X132825442Y-78480518D02*
X132891627Y-78487037D01*
X133004853Y-78521384D01*
X133061467Y-78538557D01*
X133200087Y-78612652D01*
X133217991Y-78622222D01*
X133253729Y-78651552D01*
X133355186Y-78734814D01*
X133438448Y-78836271D01*
X133467778Y-78872009D01*
X133467779Y-78872011D01*
X133551443Y-79028533D01*
X133551443Y-79028534D01*
X133602963Y-79198373D01*
X133620359Y-79375000D01*
X133602963Y-79551627D01*
X133568616Y-79664853D01*
X133551443Y-79721467D01*
X133477348Y-79860087D01*
X133467778Y-79877991D01*
X133438448Y-79913729D01*
X133355186Y-80015186D01*
X133253729Y-80098448D01*
X133217991Y-80127778D01*
X133217989Y-80127779D01*
X133061467Y-80211443D01*
X133004853Y-80228616D01*
X132891627Y-80262963D01*
X132825442Y-80269482D01*
X132759260Y-80276000D01*
X132670740Y-80276000D01*
X132604558Y-80269482D01*
X132538373Y-80262963D01*
X132425147Y-80228616D01*
X132368533Y-80211443D01*
X132212011Y-80127779D01*
X132212009Y-80127778D01*
X132176271Y-80098448D01*
X132074814Y-80015186D01*
X131991552Y-79913729D01*
X131962222Y-79877991D01*
X131952652Y-79860087D01*
X131878557Y-79721467D01*
X131861384Y-79664853D01*
X131827037Y-79551627D01*
X131809641Y-79375000D01*
X131827037Y-79198373D01*
X131878557Y-79028534D01*
X131878557Y-79028533D01*
X131962221Y-78872011D01*
X131962222Y-78872009D01*
X131991552Y-78836271D01*
X132074814Y-78734814D01*
X132176271Y-78651552D01*
X132212009Y-78622222D01*
X132229913Y-78612652D01*
X132368533Y-78538557D01*
X132425147Y-78521384D01*
X132538373Y-78487037D01*
X132604558Y-78480518D01*
X132670740Y-78474000D01*
X132759260Y-78474000D01*
X132825442Y-78480518D01*
X132825442Y-78480518D01*
G37*
G36*
X82025442Y-78480518D02*
X82091627Y-78487037D01*
X82204853Y-78521384D01*
X82261467Y-78538557D01*
X82400087Y-78612652D01*
X82417991Y-78622222D01*
X82453729Y-78651552D01*
X82555186Y-78734814D01*
X82638448Y-78836271D01*
X82667778Y-78872009D01*
X82667779Y-78872011D01*
X82751443Y-79028533D01*
X82751443Y-79028534D01*
X82802963Y-79198373D01*
X82820359Y-79375000D01*
X82802963Y-79551627D01*
X82768616Y-79664853D01*
X82751443Y-79721467D01*
X82677348Y-79860087D01*
X82667778Y-79877991D01*
X82638448Y-79913729D01*
X82555186Y-80015186D01*
X82453729Y-80098448D01*
X82417991Y-80127778D01*
X82417989Y-80127779D01*
X82261467Y-80211443D01*
X82204853Y-80228616D01*
X82091627Y-80262963D01*
X82025442Y-80269482D01*
X81959260Y-80276000D01*
X81870740Y-80276000D01*
X81804558Y-80269482D01*
X81738373Y-80262963D01*
X81625147Y-80228616D01*
X81568533Y-80211443D01*
X81412011Y-80127779D01*
X81412009Y-80127778D01*
X81376271Y-80098448D01*
X81274814Y-80015186D01*
X81191552Y-79913729D01*
X81162222Y-79877991D01*
X81152652Y-79860087D01*
X81078557Y-79721467D01*
X81061384Y-79664853D01*
X81027037Y-79551627D01*
X81009641Y-79375000D01*
X81027037Y-79198373D01*
X81078557Y-79028534D01*
X81078557Y-79028533D01*
X81162221Y-78872011D01*
X81162222Y-78872009D01*
X81191552Y-78836271D01*
X81274814Y-78734814D01*
X81376271Y-78651552D01*
X81412009Y-78622222D01*
X81429913Y-78612652D01*
X81568533Y-78538557D01*
X81625147Y-78521384D01*
X81738373Y-78487037D01*
X81804558Y-78480518D01*
X81870740Y-78474000D01*
X81959260Y-78474000D01*
X82025442Y-78480518D01*
X82025442Y-78480518D01*
G37*
G36*
X64245442Y-78480518D02*
X64311627Y-78487037D01*
X64424853Y-78521384D01*
X64481467Y-78538557D01*
X64620087Y-78612652D01*
X64637991Y-78622222D01*
X64673729Y-78651552D01*
X64775186Y-78734814D01*
X64858448Y-78836271D01*
X64887778Y-78872009D01*
X64887779Y-78872011D01*
X64971443Y-79028533D01*
X64971443Y-79028534D01*
X65022963Y-79198373D01*
X65040359Y-79375000D01*
X65022963Y-79551627D01*
X64988616Y-79664853D01*
X64971443Y-79721467D01*
X64897348Y-79860087D01*
X64887778Y-79877991D01*
X64858448Y-79913729D01*
X64775186Y-80015186D01*
X64673729Y-80098448D01*
X64637991Y-80127778D01*
X64637989Y-80127779D01*
X64481467Y-80211443D01*
X64424853Y-80228616D01*
X64311627Y-80262963D01*
X64245442Y-80269482D01*
X64179260Y-80276000D01*
X64090740Y-80276000D01*
X64024558Y-80269482D01*
X63958373Y-80262963D01*
X63845147Y-80228616D01*
X63788533Y-80211443D01*
X63632011Y-80127779D01*
X63632009Y-80127778D01*
X63596271Y-80098448D01*
X63494814Y-80015186D01*
X63411552Y-79913729D01*
X63382222Y-79877991D01*
X63372652Y-79860087D01*
X63298557Y-79721467D01*
X63281384Y-79664853D01*
X63247037Y-79551627D01*
X63229641Y-79375000D01*
X63247037Y-79198373D01*
X63298557Y-79028534D01*
X63298557Y-79028533D01*
X63382221Y-78872011D01*
X63382222Y-78872009D01*
X63411552Y-78836271D01*
X63494814Y-78734814D01*
X63596271Y-78651552D01*
X63632009Y-78622222D01*
X63649913Y-78612652D01*
X63788533Y-78538557D01*
X63845147Y-78521384D01*
X63958373Y-78487037D01*
X64024558Y-78480518D01*
X64090740Y-78474000D01*
X64179260Y-78474000D01*
X64245442Y-78480518D01*
X64245442Y-78480518D01*
G37*
G36*
X94725442Y-78480518D02*
X94791627Y-78487037D01*
X94904853Y-78521384D01*
X94961467Y-78538557D01*
X95100087Y-78612652D01*
X95117991Y-78622222D01*
X95153729Y-78651552D01*
X95255186Y-78734814D01*
X95338448Y-78836271D01*
X95367778Y-78872009D01*
X95367779Y-78872011D01*
X95451443Y-79028533D01*
X95451443Y-79028534D01*
X95502963Y-79198373D01*
X95520359Y-79375000D01*
X95502963Y-79551627D01*
X95468616Y-79664853D01*
X95451443Y-79721467D01*
X95377348Y-79860087D01*
X95367778Y-79877991D01*
X95338448Y-79913729D01*
X95255186Y-80015186D01*
X95153729Y-80098448D01*
X95117991Y-80127778D01*
X95117989Y-80127779D01*
X94961467Y-80211443D01*
X94904853Y-80228616D01*
X94791627Y-80262963D01*
X94725442Y-80269482D01*
X94659260Y-80276000D01*
X94570740Y-80276000D01*
X94504558Y-80269482D01*
X94438373Y-80262963D01*
X94325147Y-80228616D01*
X94268533Y-80211443D01*
X94112011Y-80127779D01*
X94112009Y-80127778D01*
X94076271Y-80098448D01*
X93974814Y-80015186D01*
X93891552Y-79913729D01*
X93862222Y-79877991D01*
X93852652Y-79860087D01*
X93778557Y-79721467D01*
X93761384Y-79664853D01*
X93727037Y-79551627D01*
X93709641Y-79375000D01*
X93727037Y-79198373D01*
X93778557Y-79028534D01*
X93778557Y-79028533D01*
X93862221Y-78872011D01*
X93862222Y-78872009D01*
X93891552Y-78836271D01*
X93974814Y-78734814D01*
X94076271Y-78651552D01*
X94112009Y-78622222D01*
X94129913Y-78612652D01*
X94268533Y-78538557D01*
X94325147Y-78521384D01*
X94438373Y-78487037D01*
X94504558Y-78480518D01*
X94570740Y-78474000D01*
X94659260Y-78474000D01*
X94725442Y-78480518D01*
X94725442Y-78480518D01*
G37*
G36*
X92185442Y-78480518D02*
X92251627Y-78487037D01*
X92364853Y-78521384D01*
X92421467Y-78538557D01*
X92560087Y-78612652D01*
X92577991Y-78622222D01*
X92613729Y-78651552D01*
X92715186Y-78734814D01*
X92798448Y-78836271D01*
X92827778Y-78872009D01*
X92827779Y-78872011D01*
X92911443Y-79028533D01*
X92911443Y-79028534D01*
X92962963Y-79198373D01*
X92980359Y-79375000D01*
X92962963Y-79551627D01*
X92928616Y-79664853D01*
X92911443Y-79721467D01*
X92837348Y-79860087D01*
X92827778Y-79877991D01*
X92798448Y-79913729D01*
X92715186Y-80015186D01*
X92613729Y-80098448D01*
X92577991Y-80127778D01*
X92577989Y-80127779D01*
X92421467Y-80211443D01*
X92364853Y-80228616D01*
X92251627Y-80262963D01*
X92185442Y-80269482D01*
X92119260Y-80276000D01*
X92030740Y-80276000D01*
X91964558Y-80269482D01*
X91898373Y-80262963D01*
X91785147Y-80228616D01*
X91728533Y-80211443D01*
X91572011Y-80127779D01*
X91572009Y-80127778D01*
X91536271Y-80098448D01*
X91434814Y-80015186D01*
X91351552Y-79913729D01*
X91322222Y-79877991D01*
X91312652Y-79860087D01*
X91238557Y-79721467D01*
X91221384Y-79664853D01*
X91187037Y-79551627D01*
X91169641Y-79375000D01*
X91187037Y-79198373D01*
X91238557Y-79028534D01*
X91238557Y-79028533D01*
X91322221Y-78872011D01*
X91322222Y-78872009D01*
X91351552Y-78836271D01*
X91434814Y-78734814D01*
X91536271Y-78651552D01*
X91572009Y-78622222D01*
X91589913Y-78612652D01*
X91728533Y-78538557D01*
X91785147Y-78521384D01*
X91898373Y-78487037D01*
X91964558Y-78480518D01*
X92030740Y-78474000D01*
X92119260Y-78474000D01*
X92185442Y-78480518D01*
X92185442Y-78480518D01*
G37*
G36*
X84565442Y-78480518D02*
X84631627Y-78487037D01*
X84744853Y-78521384D01*
X84801467Y-78538557D01*
X84940087Y-78612652D01*
X84957991Y-78622222D01*
X84993729Y-78651552D01*
X85095186Y-78734814D01*
X85178448Y-78836271D01*
X85207778Y-78872009D01*
X85207779Y-78872011D01*
X85291443Y-79028533D01*
X85291443Y-79028534D01*
X85342963Y-79198373D01*
X85360359Y-79375000D01*
X85342963Y-79551627D01*
X85308616Y-79664853D01*
X85291443Y-79721467D01*
X85217348Y-79860087D01*
X85207778Y-79877991D01*
X85178448Y-79913729D01*
X85095186Y-80015186D01*
X84993729Y-80098448D01*
X84957991Y-80127778D01*
X84957989Y-80127779D01*
X84801467Y-80211443D01*
X84744853Y-80228616D01*
X84631627Y-80262963D01*
X84565442Y-80269482D01*
X84499260Y-80276000D01*
X84410740Y-80276000D01*
X84344558Y-80269482D01*
X84278373Y-80262963D01*
X84165147Y-80228616D01*
X84108533Y-80211443D01*
X83952011Y-80127779D01*
X83952009Y-80127778D01*
X83916271Y-80098448D01*
X83814814Y-80015186D01*
X83731552Y-79913729D01*
X83702222Y-79877991D01*
X83692652Y-79860087D01*
X83618557Y-79721467D01*
X83601384Y-79664853D01*
X83567037Y-79551627D01*
X83549641Y-79375000D01*
X83567037Y-79198373D01*
X83618557Y-79028534D01*
X83618557Y-79028533D01*
X83702221Y-78872011D01*
X83702222Y-78872009D01*
X83731552Y-78836271D01*
X83814814Y-78734814D01*
X83916271Y-78651552D01*
X83952009Y-78622222D01*
X83969913Y-78612652D01*
X84108533Y-78538557D01*
X84165147Y-78521384D01*
X84278373Y-78487037D01*
X84344558Y-78480518D01*
X84410740Y-78474000D01*
X84499260Y-78474000D01*
X84565442Y-78480518D01*
X84565442Y-78480518D01*
G37*
G36*
X102345442Y-78480518D02*
X102411627Y-78487037D01*
X102524853Y-78521384D01*
X102581467Y-78538557D01*
X102720087Y-78612652D01*
X102737991Y-78622222D01*
X102773729Y-78651552D01*
X102875186Y-78734814D01*
X102958448Y-78836271D01*
X102987778Y-78872009D01*
X102987779Y-78872011D01*
X103071443Y-79028533D01*
X103071443Y-79028534D01*
X103122963Y-79198373D01*
X103140359Y-79375000D01*
X103122963Y-79551627D01*
X103088616Y-79664853D01*
X103071443Y-79721467D01*
X102997348Y-79860087D01*
X102987778Y-79877991D01*
X102958448Y-79913729D01*
X102875186Y-80015186D01*
X102773729Y-80098448D01*
X102737991Y-80127778D01*
X102737989Y-80127779D01*
X102581467Y-80211443D01*
X102524853Y-80228616D01*
X102411627Y-80262963D01*
X102345442Y-80269482D01*
X102279260Y-80276000D01*
X102190740Y-80276000D01*
X102124558Y-80269482D01*
X102058373Y-80262963D01*
X101945147Y-80228616D01*
X101888533Y-80211443D01*
X101732011Y-80127779D01*
X101732009Y-80127778D01*
X101696271Y-80098448D01*
X101594814Y-80015186D01*
X101511552Y-79913729D01*
X101482222Y-79877991D01*
X101472652Y-79860087D01*
X101398557Y-79721467D01*
X101381384Y-79664853D01*
X101347037Y-79551627D01*
X101329641Y-79375000D01*
X101347037Y-79198373D01*
X101398557Y-79028534D01*
X101398557Y-79028533D01*
X101482221Y-78872011D01*
X101482222Y-78872009D01*
X101511552Y-78836271D01*
X101594814Y-78734814D01*
X101696271Y-78651552D01*
X101732009Y-78622222D01*
X101749913Y-78612652D01*
X101888533Y-78538557D01*
X101945147Y-78521384D01*
X102058373Y-78487037D01*
X102124558Y-78480518D01*
X102190740Y-78474000D01*
X102279260Y-78474000D01*
X102345442Y-78480518D01*
X102345442Y-78480518D01*
G37*
G36*
X104885442Y-78480518D02*
X104951627Y-78487037D01*
X105064853Y-78521384D01*
X105121467Y-78538557D01*
X105260087Y-78612652D01*
X105277991Y-78622222D01*
X105313729Y-78651552D01*
X105415186Y-78734814D01*
X105498448Y-78836271D01*
X105527778Y-78872009D01*
X105527779Y-78872011D01*
X105611443Y-79028533D01*
X105611443Y-79028534D01*
X105662963Y-79198373D01*
X105680359Y-79375000D01*
X105662963Y-79551627D01*
X105628616Y-79664853D01*
X105611443Y-79721467D01*
X105537348Y-79860087D01*
X105527778Y-79877991D01*
X105498448Y-79913729D01*
X105415186Y-80015186D01*
X105313729Y-80098448D01*
X105277991Y-80127778D01*
X105277989Y-80127779D01*
X105121467Y-80211443D01*
X105064853Y-80228616D01*
X104951627Y-80262963D01*
X104885442Y-80269482D01*
X104819260Y-80276000D01*
X104730740Y-80276000D01*
X104664558Y-80269482D01*
X104598373Y-80262963D01*
X104485147Y-80228616D01*
X104428533Y-80211443D01*
X104272011Y-80127779D01*
X104272009Y-80127778D01*
X104236271Y-80098448D01*
X104134814Y-80015186D01*
X104051552Y-79913729D01*
X104022222Y-79877991D01*
X104012652Y-79860087D01*
X103938557Y-79721467D01*
X103921384Y-79664853D01*
X103887037Y-79551627D01*
X103869641Y-79375000D01*
X103887037Y-79198373D01*
X103938557Y-79028534D01*
X103938557Y-79028533D01*
X104022221Y-78872011D01*
X104022222Y-78872009D01*
X104051552Y-78836271D01*
X104134814Y-78734814D01*
X104236271Y-78651552D01*
X104272009Y-78622222D01*
X104289913Y-78612652D01*
X104428533Y-78538557D01*
X104485147Y-78521384D01*
X104598373Y-78487037D01*
X104664558Y-78480518D01*
X104730740Y-78474000D01*
X104819260Y-78474000D01*
X104885442Y-78480518D01*
X104885442Y-78480518D01*
G37*
G36*
X115045442Y-78480518D02*
X115111627Y-78487037D01*
X115224853Y-78521384D01*
X115281467Y-78538557D01*
X115420087Y-78612652D01*
X115437991Y-78622222D01*
X115473729Y-78651552D01*
X115575186Y-78734814D01*
X115658448Y-78836271D01*
X115687778Y-78872009D01*
X115687779Y-78872011D01*
X115771443Y-79028533D01*
X115771443Y-79028534D01*
X115822963Y-79198373D01*
X115840359Y-79375000D01*
X115822963Y-79551627D01*
X115788616Y-79664853D01*
X115771443Y-79721467D01*
X115697348Y-79860087D01*
X115687778Y-79877991D01*
X115658448Y-79913729D01*
X115575186Y-80015186D01*
X115473729Y-80098448D01*
X115437991Y-80127778D01*
X115437989Y-80127779D01*
X115281467Y-80211443D01*
X115224853Y-80228616D01*
X115111627Y-80262963D01*
X115045442Y-80269482D01*
X114979260Y-80276000D01*
X114890740Y-80276000D01*
X114824558Y-80269482D01*
X114758373Y-80262963D01*
X114645147Y-80228616D01*
X114588533Y-80211443D01*
X114432011Y-80127779D01*
X114432009Y-80127778D01*
X114396271Y-80098448D01*
X114294814Y-80015186D01*
X114211552Y-79913729D01*
X114182222Y-79877991D01*
X114172652Y-79860087D01*
X114098557Y-79721467D01*
X114081384Y-79664853D01*
X114047037Y-79551627D01*
X114029641Y-79375000D01*
X114047037Y-79198373D01*
X114098557Y-79028534D01*
X114098557Y-79028533D01*
X114182221Y-78872011D01*
X114182222Y-78872009D01*
X114211552Y-78836271D01*
X114294814Y-78734814D01*
X114396271Y-78651552D01*
X114432009Y-78622222D01*
X114449913Y-78612652D01*
X114588533Y-78538557D01*
X114645147Y-78521384D01*
X114758373Y-78487037D01*
X114824558Y-78480518D01*
X114890740Y-78474000D01*
X114979260Y-78474000D01*
X115045442Y-78480518D01*
X115045442Y-78480518D01*
G37*
G36*
X125205442Y-78480518D02*
X125271627Y-78487037D01*
X125384853Y-78521384D01*
X125441467Y-78538557D01*
X125580087Y-78612652D01*
X125597991Y-78622222D01*
X125633729Y-78651552D01*
X125735186Y-78734814D01*
X125818448Y-78836271D01*
X125847778Y-78872009D01*
X125847779Y-78872011D01*
X125931443Y-79028533D01*
X125931443Y-79028534D01*
X125982963Y-79198373D01*
X126000359Y-79375000D01*
X125982963Y-79551627D01*
X125948616Y-79664853D01*
X125931443Y-79721467D01*
X125857348Y-79860087D01*
X125847778Y-79877991D01*
X125818448Y-79913729D01*
X125735186Y-80015186D01*
X125633729Y-80098448D01*
X125597991Y-80127778D01*
X125597989Y-80127779D01*
X125441467Y-80211443D01*
X125384853Y-80228616D01*
X125271627Y-80262963D01*
X125205442Y-80269482D01*
X125139260Y-80276000D01*
X125050740Y-80276000D01*
X124984558Y-80269482D01*
X124918373Y-80262963D01*
X124805147Y-80228616D01*
X124748533Y-80211443D01*
X124592011Y-80127779D01*
X124592009Y-80127778D01*
X124556271Y-80098448D01*
X124454814Y-80015186D01*
X124371552Y-79913729D01*
X124342222Y-79877991D01*
X124332652Y-79860087D01*
X124258557Y-79721467D01*
X124241384Y-79664853D01*
X124207037Y-79551627D01*
X124189641Y-79375000D01*
X124207037Y-79198373D01*
X124258557Y-79028534D01*
X124258557Y-79028533D01*
X124342221Y-78872011D01*
X124342222Y-78872009D01*
X124371552Y-78836271D01*
X124454814Y-78734814D01*
X124556271Y-78651552D01*
X124592009Y-78622222D01*
X124609913Y-78612652D01*
X124748533Y-78538557D01*
X124805147Y-78521384D01*
X124918373Y-78487037D01*
X124984558Y-78480518D01*
X125050740Y-78474000D01*
X125139260Y-78474000D01*
X125205442Y-78480518D01*
X125205442Y-78480518D01*
G37*
G36*
X71865442Y-78480518D02*
X71931627Y-78487037D01*
X72044853Y-78521384D01*
X72101467Y-78538557D01*
X72240087Y-78612652D01*
X72257991Y-78622222D01*
X72293729Y-78651552D01*
X72395186Y-78734814D01*
X72478448Y-78836271D01*
X72507778Y-78872009D01*
X72507779Y-78872011D01*
X72591443Y-79028533D01*
X72591443Y-79028534D01*
X72642963Y-79198373D01*
X72660359Y-79375000D01*
X72642963Y-79551627D01*
X72608616Y-79664853D01*
X72591443Y-79721467D01*
X72517348Y-79860087D01*
X72507778Y-79877991D01*
X72478448Y-79913729D01*
X72395186Y-80015186D01*
X72293729Y-80098448D01*
X72257991Y-80127778D01*
X72257989Y-80127779D01*
X72101467Y-80211443D01*
X72044853Y-80228616D01*
X71931627Y-80262963D01*
X71865442Y-80269482D01*
X71799260Y-80276000D01*
X71710740Y-80276000D01*
X71644558Y-80269482D01*
X71578373Y-80262963D01*
X71465147Y-80228616D01*
X71408533Y-80211443D01*
X71252011Y-80127779D01*
X71252009Y-80127778D01*
X71216271Y-80098448D01*
X71114814Y-80015186D01*
X71031552Y-79913729D01*
X71002222Y-79877991D01*
X70992652Y-79860087D01*
X70918557Y-79721467D01*
X70901384Y-79664853D01*
X70867037Y-79551627D01*
X70849641Y-79375000D01*
X70867037Y-79198373D01*
X70918557Y-79028534D01*
X70918557Y-79028533D01*
X71002221Y-78872011D01*
X71002222Y-78872009D01*
X71031552Y-78836271D01*
X71114814Y-78734814D01*
X71216271Y-78651552D01*
X71252009Y-78622222D01*
X71269913Y-78612652D01*
X71408533Y-78538557D01*
X71465147Y-78521384D01*
X71578373Y-78487037D01*
X71644558Y-78480518D01*
X71710740Y-78474000D01*
X71799260Y-78474000D01*
X71865442Y-78480518D01*
X71865442Y-78480518D01*
G37*
G36*
X74405442Y-78480518D02*
X74471627Y-78487037D01*
X74584853Y-78521384D01*
X74641467Y-78538557D01*
X74780087Y-78612652D01*
X74797991Y-78622222D01*
X74833729Y-78651552D01*
X74935186Y-78734814D01*
X75018448Y-78836271D01*
X75047778Y-78872009D01*
X75047779Y-78872011D01*
X75131443Y-79028533D01*
X75131443Y-79028534D01*
X75182963Y-79198373D01*
X75200359Y-79375000D01*
X75182963Y-79551627D01*
X75148616Y-79664853D01*
X75131443Y-79721467D01*
X75057348Y-79860087D01*
X75047778Y-79877991D01*
X75018448Y-79913729D01*
X74935186Y-80015186D01*
X74833729Y-80098448D01*
X74797991Y-80127778D01*
X74797989Y-80127779D01*
X74641467Y-80211443D01*
X74584853Y-80228616D01*
X74471627Y-80262963D01*
X74405442Y-80269482D01*
X74339260Y-80276000D01*
X74250740Y-80276000D01*
X74184558Y-80269482D01*
X74118373Y-80262963D01*
X74005147Y-80228616D01*
X73948533Y-80211443D01*
X73792011Y-80127779D01*
X73792009Y-80127778D01*
X73756271Y-80098448D01*
X73654814Y-80015186D01*
X73571552Y-79913729D01*
X73542222Y-79877991D01*
X73532652Y-79860087D01*
X73458557Y-79721467D01*
X73441384Y-79664853D01*
X73407037Y-79551627D01*
X73389641Y-79375000D01*
X73407037Y-79198373D01*
X73458557Y-79028534D01*
X73458557Y-79028533D01*
X73542221Y-78872011D01*
X73542222Y-78872009D01*
X73571552Y-78836271D01*
X73654814Y-78734814D01*
X73756271Y-78651552D01*
X73792009Y-78622222D01*
X73809913Y-78612652D01*
X73948533Y-78538557D01*
X74005147Y-78521384D01*
X74118373Y-78487037D01*
X74184558Y-78480518D01*
X74250740Y-78474000D01*
X74339260Y-78474000D01*
X74405442Y-78480518D01*
X74405442Y-78480518D01*
G37*
G36*
X112505442Y-78480518D02*
X112571627Y-78487037D01*
X112684853Y-78521384D01*
X112741467Y-78538557D01*
X112880087Y-78612652D01*
X112897991Y-78622222D01*
X112933729Y-78651552D01*
X113035186Y-78734814D01*
X113118448Y-78836271D01*
X113147778Y-78872009D01*
X113147779Y-78872011D01*
X113231443Y-79028533D01*
X113231443Y-79028534D01*
X113282963Y-79198373D01*
X113300359Y-79375000D01*
X113282963Y-79551627D01*
X113248616Y-79664853D01*
X113231443Y-79721467D01*
X113157348Y-79860087D01*
X113147778Y-79877991D01*
X113118448Y-79913729D01*
X113035186Y-80015186D01*
X112933729Y-80098448D01*
X112897991Y-80127778D01*
X112897989Y-80127779D01*
X112741467Y-80211443D01*
X112684853Y-80228616D01*
X112571627Y-80262963D01*
X112505442Y-80269482D01*
X112439260Y-80276000D01*
X112350740Y-80276000D01*
X112284558Y-80269482D01*
X112218373Y-80262963D01*
X112105147Y-80228616D01*
X112048533Y-80211443D01*
X111892011Y-80127779D01*
X111892009Y-80127778D01*
X111856271Y-80098448D01*
X111754814Y-80015186D01*
X111671552Y-79913729D01*
X111642222Y-79877991D01*
X111632652Y-79860087D01*
X111558557Y-79721467D01*
X111541384Y-79664853D01*
X111507037Y-79551627D01*
X111489641Y-79375000D01*
X111507037Y-79198373D01*
X111558557Y-79028534D01*
X111558557Y-79028533D01*
X111642221Y-78872011D01*
X111642222Y-78872009D01*
X111671552Y-78836271D01*
X111754814Y-78734814D01*
X111856271Y-78651552D01*
X111892009Y-78622222D01*
X111909913Y-78612652D01*
X112048533Y-78538557D01*
X112105147Y-78521384D01*
X112218373Y-78487037D01*
X112284558Y-78480518D01*
X112350740Y-78474000D01*
X112439260Y-78474000D01*
X112505442Y-78480518D01*
X112505442Y-78480518D01*
G37*
G36*
X135365442Y-78480518D02*
X135431627Y-78487037D01*
X135544853Y-78521384D01*
X135601467Y-78538557D01*
X135740087Y-78612652D01*
X135757991Y-78622222D01*
X135793729Y-78651552D01*
X135895186Y-78734814D01*
X135978448Y-78836271D01*
X136007778Y-78872009D01*
X136007779Y-78872011D01*
X136091443Y-79028533D01*
X136091443Y-79028534D01*
X136142963Y-79198373D01*
X136160359Y-79375000D01*
X136142963Y-79551627D01*
X136108616Y-79664853D01*
X136091443Y-79721467D01*
X136017348Y-79860087D01*
X136007778Y-79877991D01*
X135978448Y-79913729D01*
X135895186Y-80015186D01*
X135793729Y-80098448D01*
X135757991Y-80127778D01*
X135757989Y-80127779D01*
X135601467Y-80211443D01*
X135544853Y-80228616D01*
X135431627Y-80262963D01*
X135365442Y-80269482D01*
X135299260Y-80276000D01*
X135210740Y-80276000D01*
X135144558Y-80269482D01*
X135078373Y-80262963D01*
X134965147Y-80228616D01*
X134908533Y-80211443D01*
X134752011Y-80127779D01*
X134752009Y-80127778D01*
X134716271Y-80098448D01*
X134614814Y-80015186D01*
X134531552Y-79913729D01*
X134502222Y-79877991D01*
X134492652Y-79860087D01*
X134418557Y-79721467D01*
X134401384Y-79664853D01*
X134367037Y-79551627D01*
X134349641Y-79375000D01*
X134367037Y-79198373D01*
X134418557Y-79028534D01*
X134418557Y-79028533D01*
X134502221Y-78872011D01*
X134502222Y-78872009D01*
X134531552Y-78836271D01*
X134614814Y-78734814D01*
X134716271Y-78651552D01*
X134752009Y-78622222D01*
X134769913Y-78612652D01*
X134908533Y-78538557D01*
X134965147Y-78521384D01*
X135078373Y-78487037D01*
X135144558Y-78480518D01*
X135210740Y-78474000D01*
X135299260Y-78474000D01*
X135365442Y-78480518D01*
X135365442Y-78480518D01*
G37*
G36*
X142985442Y-78480518D02*
X143051627Y-78487037D01*
X143164853Y-78521384D01*
X143221467Y-78538557D01*
X143360087Y-78612652D01*
X143377991Y-78622222D01*
X143413729Y-78651552D01*
X143515186Y-78734814D01*
X143598448Y-78836271D01*
X143627778Y-78872009D01*
X143627779Y-78872011D01*
X143711443Y-79028533D01*
X143711443Y-79028534D01*
X143762963Y-79198373D01*
X143780359Y-79375000D01*
X143762963Y-79551627D01*
X143728616Y-79664853D01*
X143711443Y-79721467D01*
X143637348Y-79860087D01*
X143627778Y-79877991D01*
X143598448Y-79913729D01*
X143515186Y-80015186D01*
X143413729Y-80098448D01*
X143377991Y-80127778D01*
X143377989Y-80127779D01*
X143221467Y-80211443D01*
X143164853Y-80228616D01*
X143051627Y-80262963D01*
X142985442Y-80269482D01*
X142919260Y-80276000D01*
X142830740Y-80276000D01*
X142764558Y-80269482D01*
X142698373Y-80262963D01*
X142585147Y-80228616D01*
X142528533Y-80211443D01*
X142372011Y-80127779D01*
X142372009Y-80127778D01*
X142336271Y-80098448D01*
X142234814Y-80015186D01*
X142151552Y-79913729D01*
X142122222Y-79877991D01*
X142112652Y-79860087D01*
X142038557Y-79721467D01*
X142021384Y-79664853D01*
X141987037Y-79551627D01*
X141969641Y-79375000D01*
X141987037Y-79198373D01*
X142038557Y-79028534D01*
X142038557Y-79028533D01*
X142122221Y-78872011D01*
X142122222Y-78872009D01*
X142151552Y-78836271D01*
X142234814Y-78734814D01*
X142336271Y-78651552D01*
X142372009Y-78622222D01*
X142389913Y-78612652D01*
X142528533Y-78538557D01*
X142585147Y-78521384D01*
X142698373Y-78487037D01*
X142764558Y-78480518D01*
X142830740Y-78474000D01*
X142919260Y-78474000D01*
X142985442Y-78480518D01*
X142985442Y-78480518D01*
G37*
G36*
X145525442Y-78480518D02*
X145591627Y-78487037D01*
X145704853Y-78521384D01*
X145761467Y-78538557D01*
X145900087Y-78612652D01*
X145917991Y-78622222D01*
X145953729Y-78651552D01*
X146055186Y-78734814D01*
X146138448Y-78836271D01*
X146167778Y-78872009D01*
X146167779Y-78872011D01*
X146251443Y-79028533D01*
X146251443Y-79028534D01*
X146302963Y-79198373D01*
X146320359Y-79375000D01*
X146302963Y-79551627D01*
X146268616Y-79664853D01*
X146251443Y-79721467D01*
X146177348Y-79860087D01*
X146167778Y-79877991D01*
X146138448Y-79913729D01*
X146055186Y-80015186D01*
X145953729Y-80098448D01*
X145917991Y-80127778D01*
X145917989Y-80127779D01*
X145761467Y-80211443D01*
X145704853Y-80228616D01*
X145591627Y-80262963D01*
X145525442Y-80269482D01*
X145459260Y-80276000D01*
X145370740Y-80276000D01*
X145304558Y-80269482D01*
X145238373Y-80262963D01*
X145125147Y-80228616D01*
X145068533Y-80211443D01*
X144912011Y-80127779D01*
X144912009Y-80127778D01*
X144876271Y-80098448D01*
X144774814Y-80015186D01*
X144691552Y-79913729D01*
X144662222Y-79877991D01*
X144652652Y-79860087D01*
X144578557Y-79721467D01*
X144561384Y-79664853D01*
X144527037Y-79551627D01*
X144509641Y-79375000D01*
X144527037Y-79198373D01*
X144578557Y-79028534D01*
X144578557Y-79028533D01*
X144662221Y-78872011D01*
X144662222Y-78872009D01*
X144691552Y-78836271D01*
X144774814Y-78734814D01*
X144876271Y-78651552D01*
X144912009Y-78622222D01*
X144929913Y-78612652D01*
X145068533Y-78538557D01*
X145125147Y-78521384D01*
X145238373Y-78487037D01*
X145304558Y-78480518D01*
X145370740Y-78474000D01*
X145459260Y-78474000D01*
X145525442Y-78480518D01*
X145525442Y-78480518D01*
G37*
G36*
X61705442Y-78480518D02*
X61771627Y-78487037D01*
X61884853Y-78521384D01*
X61941467Y-78538557D01*
X62080087Y-78612652D01*
X62097991Y-78622222D01*
X62133729Y-78651552D01*
X62235186Y-78734814D01*
X62318448Y-78836271D01*
X62347778Y-78872009D01*
X62347779Y-78872011D01*
X62431443Y-79028533D01*
X62431443Y-79028534D01*
X62482963Y-79198373D01*
X62500359Y-79375000D01*
X62482963Y-79551627D01*
X62448616Y-79664853D01*
X62431443Y-79721467D01*
X62357348Y-79860087D01*
X62347778Y-79877991D01*
X62318448Y-79913729D01*
X62235186Y-80015186D01*
X62133729Y-80098448D01*
X62097991Y-80127778D01*
X62097989Y-80127779D01*
X61941467Y-80211443D01*
X61884853Y-80228616D01*
X61771627Y-80262963D01*
X61705442Y-80269482D01*
X61639260Y-80276000D01*
X61550740Y-80276000D01*
X61484558Y-80269482D01*
X61418373Y-80262963D01*
X61305147Y-80228616D01*
X61248533Y-80211443D01*
X61092011Y-80127779D01*
X61092009Y-80127778D01*
X61056271Y-80098448D01*
X60954814Y-80015186D01*
X60871552Y-79913729D01*
X60842222Y-79877991D01*
X60832652Y-79860087D01*
X60758557Y-79721467D01*
X60741384Y-79664853D01*
X60707037Y-79551627D01*
X60689641Y-79375000D01*
X60707037Y-79198373D01*
X60758557Y-79028534D01*
X60758557Y-79028533D01*
X60842221Y-78872011D01*
X60842222Y-78872009D01*
X60871552Y-78836271D01*
X60954814Y-78734814D01*
X61056271Y-78651552D01*
X61092009Y-78622222D01*
X61109913Y-78612652D01*
X61248533Y-78538557D01*
X61305147Y-78521384D01*
X61418373Y-78487037D01*
X61484558Y-78480518D01*
X61550740Y-78474000D01*
X61639260Y-78474000D01*
X61705442Y-78480518D01*
X61705442Y-78480518D01*
G37*
G36*
X122665442Y-78480518D02*
X122731627Y-78487037D01*
X122844853Y-78521384D01*
X122901467Y-78538557D01*
X123040087Y-78612652D01*
X123057991Y-78622222D01*
X123093729Y-78651552D01*
X123195186Y-78734814D01*
X123278448Y-78836271D01*
X123307778Y-78872009D01*
X123307779Y-78872011D01*
X123391443Y-79028533D01*
X123391443Y-79028534D01*
X123442963Y-79198373D01*
X123460359Y-79375000D01*
X123442963Y-79551627D01*
X123408616Y-79664853D01*
X123391443Y-79721467D01*
X123317348Y-79860087D01*
X123307778Y-79877991D01*
X123278448Y-79913729D01*
X123195186Y-80015186D01*
X123093729Y-80098448D01*
X123057991Y-80127778D01*
X123057989Y-80127779D01*
X122901467Y-80211443D01*
X122844853Y-80228616D01*
X122731627Y-80262963D01*
X122665442Y-80269482D01*
X122599260Y-80276000D01*
X122510740Y-80276000D01*
X122444558Y-80269482D01*
X122378373Y-80262963D01*
X122265147Y-80228616D01*
X122208533Y-80211443D01*
X122052011Y-80127779D01*
X122052009Y-80127778D01*
X122016271Y-80098448D01*
X121914814Y-80015186D01*
X121831552Y-79913729D01*
X121802222Y-79877991D01*
X121792652Y-79860087D01*
X121718557Y-79721467D01*
X121701384Y-79664853D01*
X121667037Y-79551627D01*
X121649641Y-79375000D01*
X121667037Y-79198373D01*
X121718557Y-79028534D01*
X121718557Y-79028533D01*
X121802221Y-78872011D01*
X121802222Y-78872009D01*
X121831552Y-78836271D01*
X121914814Y-78734814D01*
X122016271Y-78651552D01*
X122052009Y-78622222D01*
X122069913Y-78612652D01*
X122208533Y-78538557D01*
X122265147Y-78521384D01*
X122378373Y-78487037D01*
X122444558Y-78480518D01*
X122510740Y-78474000D01*
X122599260Y-78474000D01*
X122665442Y-78480518D01*
X122665442Y-78480518D01*
G37*
G36*
X74405442Y-75940518D02*
X74471627Y-75947037D01*
X74584853Y-75981384D01*
X74641467Y-75998557D01*
X74780087Y-76072652D01*
X74797991Y-76082222D01*
X74833729Y-76111552D01*
X74935186Y-76194814D01*
X75018448Y-76296271D01*
X75047778Y-76332009D01*
X75047779Y-76332011D01*
X75131443Y-76488533D01*
X75131443Y-76488534D01*
X75182963Y-76658373D01*
X75200359Y-76835000D01*
X75182963Y-77011627D01*
X75156819Y-77097812D01*
X75131443Y-77181467D01*
X75088513Y-77261782D01*
X75047778Y-77337991D01*
X75018448Y-77373729D01*
X74935186Y-77475186D01*
X74862480Y-77534853D01*
X74797991Y-77587778D01*
X74797989Y-77587779D01*
X74641467Y-77671443D01*
X74584853Y-77688616D01*
X74471627Y-77722963D01*
X74405443Y-77729481D01*
X74339260Y-77736000D01*
X74250740Y-77736000D01*
X74184557Y-77729481D01*
X74118373Y-77722963D01*
X74005147Y-77688616D01*
X73948533Y-77671443D01*
X73792011Y-77587779D01*
X73792009Y-77587778D01*
X73727520Y-77534853D01*
X73654814Y-77475186D01*
X73571552Y-77373729D01*
X73542222Y-77337991D01*
X73501487Y-77261782D01*
X73458557Y-77181467D01*
X73433181Y-77097812D01*
X73407037Y-77011627D01*
X73389641Y-76835000D01*
X73407037Y-76658373D01*
X73458557Y-76488534D01*
X73458557Y-76488533D01*
X73542221Y-76332011D01*
X73542222Y-76332009D01*
X73571552Y-76296271D01*
X73654814Y-76194814D01*
X73756271Y-76111552D01*
X73792009Y-76082222D01*
X73809913Y-76072652D01*
X73948533Y-75998557D01*
X74005147Y-75981384D01*
X74118373Y-75947037D01*
X74184558Y-75940518D01*
X74250740Y-75934000D01*
X74339260Y-75934000D01*
X74405442Y-75940518D01*
X74405442Y-75940518D01*
G37*
G36*
X92337812Y-75968624D02*
X92501784Y-76036544D01*
X92649354Y-76135147D01*
X92774853Y-76260646D01*
X92873456Y-76408216D01*
X92941376Y-76572188D01*
X92976000Y-76746259D01*
X92976000Y-76923741D01*
X92941376Y-77097812D01*
X92873456Y-77261784D01*
X92774853Y-77409354D01*
X92649354Y-77534853D01*
X92501784Y-77633456D01*
X92337812Y-77701376D01*
X92163741Y-77736000D01*
X91986259Y-77736000D01*
X91812188Y-77701376D01*
X91648216Y-77633456D01*
X91500646Y-77534853D01*
X91375147Y-77409354D01*
X91276544Y-77261784D01*
X91208624Y-77097812D01*
X91174000Y-76923741D01*
X91174000Y-76746259D01*
X91208624Y-76572188D01*
X91276544Y-76408216D01*
X91375147Y-76260646D01*
X91500646Y-76135147D01*
X91648216Y-76036544D01*
X91812188Y-75968624D01*
X91986259Y-75934000D01*
X92163741Y-75934000D01*
X92337812Y-75968624D01*
X92337812Y-75968624D01*
G37*
G36*
X94725442Y-75940518D02*
X94791627Y-75947037D01*
X94904853Y-75981384D01*
X94961467Y-75998557D01*
X95100087Y-76072652D01*
X95117991Y-76082222D01*
X95153729Y-76111552D01*
X95255186Y-76194814D01*
X95338448Y-76296271D01*
X95367778Y-76332009D01*
X95367779Y-76332011D01*
X95451443Y-76488533D01*
X95451443Y-76488534D01*
X95502963Y-76658373D01*
X95520359Y-76835000D01*
X95502963Y-77011627D01*
X95476819Y-77097812D01*
X95451443Y-77181467D01*
X95408513Y-77261782D01*
X95367778Y-77337991D01*
X95338448Y-77373729D01*
X95255186Y-77475186D01*
X95182480Y-77534853D01*
X95117991Y-77587778D01*
X95117989Y-77587779D01*
X94961467Y-77671443D01*
X94904853Y-77688616D01*
X94791627Y-77722963D01*
X94725443Y-77729481D01*
X94659260Y-77736000D01*
X94570740Y-77736000D01*
X94504557Y-77729481D01*
X94438373Y-77722963D01*
X94325147Y-77688616D01*
X94268533Y-77671443D01*
X94112011Y-77587779D01*
X94112009Y-77587778D01*
X94047520Y-77534853D01*
X93974814Y-77475186D01*
X93891552Y-77373729D01*
X93862222Y-77337991D01*
X93821487Y-77261782D01*
X93778557Y-77181467D01*
X93753181Y-77097812D01*
X93727037Y-77011627D01*
X93709641Y-76835000D01*
X93727037Y-76658373D01*
X93778557Y-76488534D01*
X93778557Y-76488533D01*
X93862221Y-76332011D01*
X93862222Y-76332009D01*
X93891552Y-76296271D01*
X93974814Y-76194814D01*
X94076271Y-76111552D01*
X94112009Y-76082222D01*
X94129913Y-76072652D01*
X94268533Y-75998557D01*
X94325147Y-75981384D01*
X94438373Y-75947037D01*
X94504558Y-75940518D01*
X94570740Y-75934000D01*
X94659260Y-75934000D01*
X94725442Y-75940518D01*
X94725442Y-75940518D01*
G37*
G36*
X102497812Y-75968624D02*
X102661784Y-76036544D01*
X102809354Y-76135147D01*
X102934853Y-76260646D01*
X103033456Y-76408216D01*
X103101376Y-76572188D01*
X103136000Y-76746259D01*
X103136000Y-76923741D01*
X103101376Y-77097812D01*
X103033456Y-77261784D01*
X102934853Y-77409354D01*
X102809354Y-77534853D01*
X102661784Y-77633456D01*
X102497812Y-77701376D01*
X102323741Y-77736000D01*
X102146259Y-77736000D01*
X101972188Y-77701376D01*
X101808216Y-77633456D01*
X101660646Y-77534853D01*
X101535147Y-77409354D01*
X101436544Y-77261784D01*
X101368624Y-77097812D01*
X101334000Y-76923741D01*
X101334000Y-76746259D01*
X101368624Y-76572188D01*
X101436544Y-76408216D01*
X101535147Y-76260646D01*
X101660646Y-76135147D01*
X101808216Y-76036544D01*
X101972188Y-75968624D01*
X102146259Y-75934000D01*
X102323741Y-75934000D01*
X102497812Y-75968624D01*
X102497812Y-75968624D01*
G37*
G36*
X72017812Y-75968624D02*
X72181784Y-76036544D01*
X72329354Y-76135147D01*
X72454853Y-76260646D01*
X72553456Y-76408216D01*
X72621376Y-76572188D01*
X72656000Y-76746259D01*
X72656000Y-76923741D01*
X72621376Y-77097812D01*
X72553456Y-77261784D01*
X72454853Y-77409354D01*
X72329354Y-77534853D01*
X72181784Y-77633456D01*
X72017812Y-77701376D01*
X71843741Y-77736000D01*
X71666259Y-77736000D01*
X71492188Y-77701376D01*
X71328216Y-77633456D01*
X71180646Y-77534853D01*
X71055147Y-77409354D01*
X70956544Y-77261784D01*
X70888624Y-77097812D01*
X70854000Y-76923741D01*
X70854000Y-76746259D01*
X70888624Y-76572188D01*
X70956544Y-76408216D01*
X71055147Y-76260646D01*
X71180646Y-76135147D01*
X71328216Y-76036544D01*
X71492188Y-75968624D01*
X71666259Y-75934000D01*
X71843741Y-75934000D01*
X72017812Y-75968624D01*
X72017812Y-75968624D01*
G37*
G36*
X104885442Y-75940518D02*
X104951627Y-75947037D01*
X105064853Y-75981384D01*
X105121467Y-75998557D01*
X105260087Y-76072652D01*
X105277991Y-76082222D01*
X105313729Y-76111552D01*
X105415186Y-76194814D01*
X105498448Y-76296271D01*
X105527778Y-76332009D01*
X105527779Y-76332011D01*
X105611443Y-76488533D01*
X105611443Y-76488534D01*
X105662963Y-76658373D01*
X105680359Y-76835000D01*
X105662963Y-77011627D01*
X105636819Y-77097812D01*
X105611443Y-77181467D01*
X105568513Y-77261782D01*
X105527778Y-77337991D01*
X105498448Y-77373729D01*
X105415186Y-77475186D01*
X105342480Y-77534853D01*
X105277991Y-77587778D01*
X105277989Y-77587779D01*
X105121467Y-77671443D01*
X105064853Y-77688616D01*
X104951627Y-77722963D01*
X104885443Y-77729481D01*
X104819260Y-77736000D01*
X104730740Y-77736000D01*
X104664557Y-77729481D01*
X104598373Y-77722963D01*
X104485147Y-77688616D01*
X104428533Y-77671443D01*
X104272011Y-77587779D01*
X104272009Y-77587778D01*
X104207520Y-77534853D01*
X104134814Y-77475186D01*
X104051552Y-77373729D01*
X104022222Y-77337991D01*
X103981487Y-77261782D01*
X103938557Y-77181467D01*
X103913181Y-77097812D01*
X103887037Y-77011627D01*
X103869641Y-76835000D01*
X103887037Y-76658373D01*
X103938557Y-76488534D01*
X103938557Y-76488533D01*
X104022221Y-76332011D01*
X104022222Y-76332009D01*
X104051552Y-76296271D01*
X104134814Y-76194814D01*
X104236271Y-76111552D01*
X104272009Y-76082222D01*
X104289913Y-76072652D01*
X104428533Y-75998557D01*
X104485147Y-75981384D01*
X104598373Y-75947037D01*
X104664558Y-75940518D01*
X104730740Y-75934000D01*
X104819260Y-75934000D01*
X104885442Y-75940518D01*
X104885442Y-75940518D01*
G37*
G36*
X112657812Y-75968624D02*
X112821784Y-76036544D01*
X112969354Y-76135147D01*
X113094853Y-76260646D01*
X113193456Y-76408216D01*
X113261376Y-76572188D01*
X113296000Y-76746259D01*
X113296000Y-76923741D01*
X113261376Y-77097812D01*
X113193456Y-77261784D01*
X113094853Y-77409354D01*
X112969354Y-77534853D01*
X112821784Y-77633456D01*
X112657812Y-77701376D01*
X112483741Y-77736000D01*
X112306259Y-77736000D01*
X112132188Y-77701376D01*
X111968216Y-77633456D01*
X111820646Y-77534853D01*
X111695147Y-77409354D01*
X111596544Y-77261784D01*
X111528624Y-77097812D01*
X111494000Y-76923741D01*
X111494000Y-76746259D01*
X111528624Y-76572188D01*
X111596544Y-76408216D01*
X111695147Y-76260646D01*
X111820646Y-76135147D01*
X111968216Y-76036544D01*
X112132188Y-75968624D01*
X112306259Y-75934000D01*
X112483741Y-75934000D01*
X112657812Y-75968624D01*
X112657812Y-75968624D01*
G37*
G36*
X115045442Y-75940518D02*
X115111627Y-75947037D01*
X115224853Y-75981384D01*
X115281467Y-75998557D01*
X115420087Y-76072652D01*
X115437991Y-76082222D01*
X115473729Y-76111552D01*
X115575186Y-76194814D01*
X115658448Y-76296271D01*
X115687778Y-76332009D01*
X115687779Y-76332011D01*
X115771443Y-76488533D01*
X115771443Y-76488534D01*
X115822963Y-76658373D01*
X115840359Y-76835000D01*
X115822963Y-77011627D01*
X115796819Y-77097812D01*
X115771443Y-77181467D01*
X115728513Y-77261782D01*
X115687778Y-77337991D01*
X115658448Y-77373729D01*
X115575186Y-77475186D01*
X115502480Y-77534853D01*
X115437991Y-77587778D01*
X115437989Y-77587779D01*
X115281467Y-77671443D01*
X115224853Y-77688616D01*
X115111627Y-77722963D01*
X115045443Y-77729481D01*
X114979260Y-77736000D01*
X114890740Y-77736000D01*
X114824557Y-77729481D01*
X114758373Y-77722963D01*
X114645147Y-77688616D01*
X114588533Y-77671443D01*
X114432011Y-77587779D01*
X114432009Y-77587778D01*
X114367520Y-77534853D01*
X114294814Y-77475186D01*
X114211552Y-77373729D01*
X114182222Y-77337991D01*
X114141487Y-77261782D01*
X114098557Y-77181467D01*
X114073181Y-77097812D01*
X114047037Y-77011627D01*
X114029641Y-76835000D01*
X114047037Y-76658373D01*
X114098557Y-76488534D01*
X114098557Y-76488533D01*
X114182221Y-76332011D01*
X114182222Y-76332009D01*
X114211552Y-76296271D01*
X114294814Y-76194814D01*
X114396271Y-76111552D01*
X114432009Y-76082222D01*
X114449913Y-76072652D01*
X114588533Y-75998557D01*
X114645147Y-75981384D01*
X114758373Y-75947037D01*
X114824558Y-75940518D01*
X114890740Y-75934000D01*
X114979260Y-75934000D01*
X115045442Y-75940518D01*
X115045442Y-75940518D01*
G37*
G36*
X122817812Y-75968624D02*
X122981784Y-76036544D01*
X123129354Y-76135147D01*
X123254853Y-76260646D01*
X123353456Y-76408216D01*
X123421376Y-76572188D01*
X123456000Y-76746259D01*
X123456000Y-76923741D01*
X123421376Y-77097812D01*
X123353456Y-77261784D01*
X123254853Y-77409354D01*
X123129354Y-77534853D01*
X122981784Y-77633456D01*
X122817812Y-77701376D01*
X122643741Y-77736000D01*
X122466259Y-77736000D01*
X122292188Y-77701376D01*
X122128216Y-77633456D01*
X121980646Y-77534853D01*
X121855147Y-77409354D01*
X121756544Y-77261784D01*
X121688624Y-77097812D01*
X121654000Y-76923741D01*
X121654000Y-76746259D01*
X121688624Y-76572188D01*
X121756544Y-76408216D01*
X121855147Y-76260646D01*
X121980646Y-76135147D01*
X122128216Y-76036544D01*
X122292188Y-75968624D01*
X122466259Y-75934000D01*
X122643741Y-75934000D01*
X122817812Y-75968624D01*
X122817812Y-75968624D01*
G37*
G36*
X125205442Y-75940518D02*
X125271627Y-75947037D01*
X125384853Y-75981384D01*
X125441467Y-75998557D01*
X125580087Y-76072652D01*
X125597991Y-76082222D01*
X125633729Y-76111552D01*
X125735186Y-76194814D01*
X125818448Y-76296271D01*
X125847778Y-76332009D01*
X125847779Y-76332011D01*
X125931443Y-76488533D01*
X125931443Y-76488534D01*
X125982963Y-76658373D01*
X126000359Y-76835000D01*
X125982963Y-77011627D01*
X125956819Y-77097812D01*
X125931443Y-77181467D01*
X125888513Y-77261782D01*
X125847778Y-77337991D01*
X125818448Y-77373729D01*
X125735186Y-77475186D01*
X125662480Y-77534853D01*
X125597991Y-77587778D01*
X125597989Y-77587779D01*
X125441467Y-77671443D01*
X125384853Y-77688616D01*
X125271627Y-77722963D01*
X125205443Y-77729481D01*
X125139260Y-77736000D01*
X125050740Y-77736000D01*
X124984557Y-77729481D01*
X124918373Y-77722963D01*
X124805147Y-77688616D01*
X124748533Y-77671443D01*
X124592011Y-77587779D01*
X124592009Y-77587778D01*
X124527520Y-77534853D01*
X124454814Y-77475186D01*
X124371552Y-77373729D01*
X124342222Y-77337991D01*
X124301487Y-77261782D01*
X124258557Y-77181467D01*
X124233181Y-77097812D01*
X124207037Y-77011627D01*
X124189641Y-76835000D01*
X124207037Y-76658373D01*
X124258557Y-76488534D01*
X124258557Y-76488533D01*
X124342221Y-76332011D01*
X124342222Y-76332009D01*
X124371552Y-76296271D01*
X124454814Y-76194814D01*
X124556271Y-76111552D01*
X124592009Y-76082222D01*
X124609913Y-76072652D01*
X124748533Y-75998557D01*
X124805147Y-75981384D01*
X124918373Y-75947037D01*
X124984558Y-75940518D01*
X125050740Y-75934000D01*
X125139260Y-75934000D01*
X125205442Y-75940518D01*
X125205442Y-75940518D01*
G37*
G36*
X132977812Y-75968624D02*
X133141784Y-76036544D01*
X133289354Y-76135147D01*
X133414853Y-76260646D01*
X133513456Y-76408216D01*
X133581376Y-76572188D01*
X133616000Y-76746259D01*
X133616000Y-76923741D01*
X133581376Y-77097812D01*
X133513456Y-77261784D01*
X133414853Y-77409354D01*
X133289354Y-77534853D01*
X133141784Y-77633456D01*
X132977812Y-77701376D01*
X132803741Y-77736000D01*
X132626259Y-77736000D01*
X132452188Y-77701376D01*
X132288216Y-77633456D01*
X132140646Y-77534853D01*
X132015147Y-77409354D01*
X131916544Y-77261784D01*
X131848624Y-77097812D01*
X131814000Y-76923741D01*
X131814000Y-76746259D01*
X131848624Y-76572188D01*
X131916544Y-76408216D01*
X132015147Y-76260646D01*
X132140646Y-76135147D01*
X132288216Y-76036544D01*
X132452188Y-75968624D01*
X132626259Y-75934000D01*
X132803741Y-75934000D01*
X132977812Y-75968624D01*
X132977812Y-75968624D01*
G37*
G36*
X135365442Y-75940518D02*
X135431627Y-75947037D01*
X135544853Y-75981384D01*
X135601467Y-75998557D01*
X135740087Y-76072652D01*
X135757991Y-76082222D01*
X135793729Y-76111552D01*
X135895186Y-76194814D01*
X135978448Y-76296271D01*
X136007778Y-76332009D01*
X136007779Y-76332011D01*
X136091443Y-76488533D01*
X136091443Y-76488534D01*
X136142963Y-76658373D01*
X136160359Y-76835000D01*
X136142963Y-77011627D01*
X136116819Y-77097812D01*
X136091443Y-77181467D01*
X136048513Y-77261782D01*
X136007778Y-77337991D01*
X135978448Y-77373729D01*
X135895186Y-77475186D01*
X135822480Y-77534853D01*
X135757991Y-77587778D01*
X135757989Y-77587779D01*
X135601467Y-77671443D01*
X135544853Y-77688616D01*
X135431627Y-77722963D01*
X135365443Y-77729481D01*
X135299260Y-77736000D01*
X135210740Y-77736000D01*
X135144557Y-77729481D01*
X135078373Y-77722963D01*
X134965147Y-77688616D01*
X134908533Y-77671443D01*
X134752011Y-77587779D01*
X134752009Y-77587778D01*
X134687520Y-77534853D01*
X134614814Y-77475186D01*
X134531552Y-77373729D01*
X134502222Y-77337991D01*
X134461487Y-77261782D01*
X134418557Y-77181467D01*
X134393181Y-77097812D01*
X134367037Y-77011627D01*
X134349641Y-76835000D01*
X134367037Y-76658373D01*
X134418557Y-76488534D01*
X134418557Y-76488533D01*
X134502221Y-76332011D01*
X134502222Y-76332009D01*
X134531552Y-76296271D01*
X134614814Y-76194814D01*
X134716271Y-76111552D01*
X134752009Y-76082222D01*
X134769913Y-76072652D01*
X134908533Y-75998557D01*
X134965147Y-75981384D01*
X135078373Y-75947037D01*
X135144558Y-75940518D01*
X135210740Y-75934000D01*
X135299260Y-75934000D01*
X135365442Y-75940518D01*
X135365442Y-75940518D01*
G37*
G36*
X143137812Y-75968624D02*
X143301784Y-76036544D01*
X143449354Y-76135147D01*
X143574853Y-76260646D01*
X143673456Y-76408216D01*
X143741376Y-76572188D01*
X143776000Y-76746259D01*
X143776000Y-76923741D01*
X143741376Y-77097812D01*
X143673456Y-77261784D01*
X143574853Y-77409354D01*
X143449354Y-77534853D01*
X143301784Y-77633456D01*
X143137812Y-77701376D01*
X142963741Y-77736000D01*
X142786259Y-77736000D01*
X142612188Y-77701376D01*
X142448216Y-77633456D01*
X142300646Y-77534853D01*
X142175147Y-77409354D01*
X142076544Y-77261784D01*
X142008624Y-77097812D01*
X141974000Y-76923741D01*
X141974000Y-76746259D01*
X142008624Y-76572188D01*
X142076544Y-76408216D01*
X142175147Y-76260646D01*
X142300646Y-76135147D01*
X142448216Y-76036544D01*
X142612188Y-75968624D01*
X142786259Y-75934000D01*
X142963741Y-75934000D01*
X143137812Y-75968624D01*
X143137812Y-75968624D01*
G37*
G36*
X82177812Y-75968624D02*
X82341784Y-76036544D01*
X82489354Y-76135147D01*
X82614853Y-76260646D01*
X82713456Y-76408216D01*
X82781376Y-76572188D01*
X82816000Y-76746259D01*
X82816000Y-76923741D01*
X82781376Y-77097812D01*
X82713456Y-77261784D01*
X82614853Y-77409354D01*
X82489354Y-77534853D01*
X82341784Y-77633456D01*
X82177812Y-77701376D01*
X82003741Y-77736000D01*
X81826259Y-77736000D01*
X81652188Y-77701376D01*
X81488216Y-77633456D01*
X81340646Y-77534853D01*
X81215147Y-77409354D01*
X81116544Y-77261784D01*
X81048624Y-77097812D01*
X81014000Y-76923741D01*
X81014000Y-76746259D01*
X81048624Y-76572188D01*
X81116544Y-76408216D01*
X81215147Y-76260646D01*
X81340646Y-76135147D01*
X81488216Y-76036544D01*
X81652188Y-75968624D01*
X81826259Y-75934000D01*
X82003741Y-75934000D01*
X82177812Y-75968624D01*
X82177812Y-75968624D01*
G37*
G36*
X84565442Y-75940518D02*
X84631627Y-75947037D01*
X84744853Y-75981384D01*
X84801467Y-75998557D01*
X84940087Y-76072652D01*
X84957991Y-76082222D01*
X84993729Y-76111552D01*
X85095186Y-76194814D01*
X85178448Y-76296271D01*
X85207778Y-76332009D01*
X85207779Y-76332011D01*
X85291443Y-76488533D01*
X85291443Y-76488534D01*
X85342963Y-76658373D01*
X85360359Y-76835000D01*
X85342963Y-77011627D01*
X85316819Y-77097812D01*
X85291443Y-77181467D01*
X85248513Y-77261782D01*
X85207778Y-77337991D01*
X85178448Y-77373729D01*
X85095186Y-77475186D01*
X85022480Y-77534853D01*
X84957991Y-77587778D01*
X84957989Y-77587779D01*
X84801467Y-77671443D01*
X84744853Y-77688616D01*
X84631627Y-77722963D01*
X84565443Y-77729481D01*
X84499260Y-77736000D01*
X84410740Y-77736000D01*
X84344557Y-77729481D01*
X84278373Y-77722963D01*
X84165147Y-77688616D01*
X84108533Y-77671443D01*
X83952011Y-77587779D01*
X83952009Y-77587778D01*
X83887520Y-77534853D01*
X83814814Y-77475186D01*
X83731552Y-77373729D01*
X83702222Y-77337991D01*
X83661487Y-77261782D01*
X83618557Y-77181467D01*
X83593181Y-77097812D01*
X83567037Y-77011627D01*
X83549641Y-76835000D01*
X83567037Y-76658373D01*
X83618557Y-76488534D01*
X83618557Y-76488533D01*
X83702221Y-76332011D01*
X83702222Y-76332009D01*
X83731552Y-76296271D01*
X83814814Y-76194814D01*
X83916271Y-76111552D01*
X83952009Y-76082222D01*
X83969913Y-76072652D01*
X84108533Y-75998557D01*
X84165147Y-75981384D01*
X84278373Y-75947037D01*
X84344558Y-75940518D01*
X84410740Y-75934000D01*
X84499260Y-75934000D01*
X84565442Y-75940518D01*
X84565442Y-75940518D01*
G37*
G36*
X145525442Y-75940518D02*
X145591627Y-75947037D01*
X145704853Y-75981384D01*
X145761467Y-75998557D01*
X145900087Y-76072652D01*
X145917991Y-76082222D01*
X145953729Y-76111552D01*
X146055186Y-76194814D01*
X146138448Y-76296271D01*
X146167778Y-76332009D01*
X146167779Y-76332011D01*
X146251443Y-76488533D01*
X146251443Y-76488534D01*
X146302963Y-76658373D01*
X146320359Y-76835000D01*
X146302963Y-77011627D01*
X146276819Y-77097812D01*
X146251443Y-77181467D01*
X146208513Y-77261782D01*
X146167778Y-77337991D01*
X146138448Y-77373729D01*
X146055186Y-77475186D01*
X145982480Y-77534853D01*
X145917991Y-77587778D01*
X145917989Y-77587779D01*
X145761467Y-77671443D01*
X145704853Y-77688616D01*
X145591627Y-77722963D01*
X145525443Y-77729481D01*
X145459260Y-77736000D01*
X145370740Y-77736000D01*
X145304557Y-77729481D01*
X145238373Y-77722963D01*
X145125147Y-77688616D01*
X145068533Y-77671443D01*
X144912011Y-77587779D01*
X144912009Y-77587778D01*
X144847520Y-77534853D01*
X144774814Y-77475186D01*
X144691552Y-77373729D01*
X144662222Y-77337991D01*
X144621487Y-77261782D01*
X144578557Y-77181467D01*
X144553181Y-77097812D01*
X144527037Y-77011627D01*
X144509641Y-76835000D01*
X144527037Y-76658373D01*
X144578557Y-76488534D01*
X144578557Y-76488533D01*
X144662221Y-76332011D01*
X144662222Y-76332009D01*
X144691552Y-76296271D01*
X144774814Y-76194814D01*
X144876271Y-76111552D01*
X144912009Y-76082222D01*
X144929913Y-76072652D01*
X145068533Y-75998557D01*
X145125147Y-75981384D01*
X145238373Y-75947037D01*
X145304558Y-75940518D01*
X145370740Y-75934000D01*
X145459260Y-75934000D01*
X145525442Y-75940518D01*
X145525442Y-75940518D01*
G37*
G36*
X146356202Y-53003781D02*
X146631606Y-53058562D01*
X147150455Y-53273476D01*
X147614259Y-53583380D01*
X147617410Y-53585486D01*
X148014514Y-53982590D01*
X148014516Y-53982593D01*
X148326524Y-54449545D01*
X148541438Y-54968394D01*
X148651000Y-55519201D01*
X148651000Y-56080799D01*
X148541438Y-56631606D01*
X148326524Y-57150455D01*
X148016620Y-57614259D01*
X148014514Y-57617410D01*
X147617410Y-58014514D01*
X147617407Y-58014516D01*
X147150455Y-58326524D01*
X146631606Y-58541438D01*
X146356202Y-58596219D01*
X146080800Y-58651000D01*
X145519200Y-58651000D01*
X145243798Y-58596219D01*
X144968394Y-58541438D01*
X144449545Y-58326524D01*
X143982593Y-58014516D01*
X143982590Y-58014514D01*
X143585486Y-57617410D01*
X143583380Y-57614259D01*
X143273476Y-57150455D01*
X143058562Y-56631606D01*
X142949000Y-56080799D01*
X142949000Y-55519201D01*
X143058562Y-54968394D01*
X143273476Y-54449545D01*
X143585484Y-53982593D01*
X143585486Y-53982590D01*
X143982590Y-53585486D01*
X143985741Y-53583380D01*
X144449545Y-53273476D01*
X144968394Y-53058562D01*
X145243798Y-53003781D01*
X145519200Y-52949000D01*
X146080800Y-52949000D01*
X146356202Y-53003781D01*
X146356202Y-53003781D01*
G37*
G36*
X56356202Y-53003781D02*
X56631606Y-53058562D01*
X57150455Y-53273476D01*
X57614259Y-53583380D01*
X57617410Y-53585486D01*
X58014514Y-53982590D01*
X58014516Y-53982593D01*
X58326524Y-54449545D01*
X58541438Y-54968394D01*
X58651000Y-55519201D01*
X58651000Y-56080799D01*
X58541438Y-56631606D01*
X58326524Y-57150455D01*
X58016620Y-57614259D01*
X58014514Y-57617410D01*
X57617410Y-58014514D01*
X57617407Y-58014516D01*
X57150455Y-58326524D01*
X56631606Y-58541438D01*
X56356202Y-58596219D01*
X56080800Y-58651000D01*
X55519200Y-58651000D01*
X55243798Y-58596219D01*
X54968394Y-58541438D01*
X54449545Y-58326524D01*
X53982593Y-58014516D01*
X53982590Y-58014514D01*
X53585486Y-57617410D01*
X53583380Y-57614259D01*
X53273476Y-57150455D01*
X53058562Y-56631606D01*
X52949000Y-56080799D01*
X52949000Y-55519201D01*
X53058562Y-54968394D01*
X53273476Y-54449545D01*
X53585484Y-53982593D01*
X53585486Y-53982590D01*
X53982590Y-53585486D01*
X53985741Y-53583380D01*
X54449545Y-53273476D01*
X54968394Y-53058562D01*
X55243798Y-53003781D01*
X55519200Y-52949000D01*
X56080800Y-52949000D01*
X56356202Y-53003781D01*
X56356202Y-53003781D01*
G37*
M02*
