M48
;DRILL file {KiCad (5.0.1)-4} date 25.11.2018 16:05:11
;FORMAT={-:-/ absolute / inch / decimal}
FMAT,2
INCH,TZ
T1C0.0118
T2C0.0394
T3C0.1260
%
G90
G05
M72
T1
X2.275Y-3.175
X2.275Y-3.375
X2.475Y-3.525
X2.625Y-2.65
X2.675Y-2.425
X2.675Y-2.475
X2.675Y-2.825
X2.675Y-3.275
X2.675Y-3.375
X2.7Y-2.4
X2.7Y-2.45
X2.84Y-2.49
X2.875Y-3.55
X2.9Y-2.975
X2.9364Y-2.9056
X2.98Y-2.25
X2.985Y-2.745
X3.025Y-2.925
X3.05Y-2.95
X3.075Y-3.025
X3.075Y-3.125
X3.075Y-3.225
X3.075Y-3.325
X3.075Y-3.425
X3.2Y-2.41
X3.2Y-2.475
X3.275Y-3.55
X3.4Y-2.925
X3.425Y-2.65
X3.425Y-2.9
X3.475Y-2.425
X3.475Y-2.475
X3.475Y-2.825
X3.475Y-3.025
X3.475Y-3.225
X3.475Y-3.325
X3.475Y-3.425
X3.5Y-2.4
X3.5Y-2.45
X3.5Y-2.5
X3.64Y-2.49
X3.675Y-3.55
X3.7Y-2.975
X3.7346Y-2.9038
X3.78Y-2.25
X3.785Y-2.745
X3.825Y-2.925
X3.85Y-2.95
X3.875Y-3.025
X3.875Y-3.125
X3.875Y-3.225
X3.875Y-3.325
X3.875Y-3.425
X4.075Y-3.55
X4.2Y-2.925
X4.225Y-2.9
X4.275Y-3.025
X4.275Y-3.125
X4.275Y-3.225
X4.275Y-3.325
X4.275Y-3.425
X4.475Y-3.55
X4.6Y-2.925
X4.625Y-2.65
X4.625Y-2.9
X4.65Y-2.425
X4.65Y-2.475
X4.675Y-3.025
X4.675Y-3.125
X4.675Y-3.225
X4.675Y-3.325
X4.675Y-3.425
X4.7Y-2.4
X4.7Y-2.45
X4.7Y-2.5
X4.725Y-2.75
X4.875Y-3.55
X4.98Y-2.25
X5.Y-2.925
X5.025Y-2.9
X5.075Y-3.025
X5.075Y-3.125
X5.075Y-3.225
X5.075Y-3.325
X5.075Y-3.425
X5.275Y-3.55
X5.4Y-2.925
X5.425Y-2.9
X5.475Y-3.025
X5.475Y-3.125
X5.475Y-3.225
X5.475Y-3.325
X5.475Y-3.425
X5.675Y-2.725
X5.675Y-3.55
X5.8Y-2.925
X5.825Y-2.9
X5.875Y-2.825
X5.875Y-3.025
X5.875Y-3.225
X5.875Y-3.425
T2
X4.825Y-3.025
X4.825Y-3.125
X4.825Y-3.225
X4.825Y-3.325
X4.825Y-3.425
X4.925Y-3.025
X4.925Y-3.125
X4.925Y-3.225
X4.925Y-3.325
X4.925Y-3.425
X2.825Y-3.025
X2.825Y-3.125
X2.825Y-3.225
X2.825Y-3.325
X2.825Y-3.425
X2.925Y-3.025
X2.925Y-3.125
X2.925Y-3.225
X2.925Y-3.325
X2.925Y-3.425
X3.625Y-3.025
X3.625Y-3.125
X3.625Y-3.225
X3.625Y-3.325
X3.625Y-3.425
X3.725Y-3.025
X3.725Y-3.125
X3.725Y-3.225
X3.725Y-3.325
X3.725Y-3.425
X5.625Y-3.025
X5.625Y-3.125
X5.625Y-3.225
X5.625Y-3.325
X5.625Y-3.425
X5.725Y-3.025
X5.725Y-3.125
X5.725Y-3.225
X5.725Y-3.325
X5.725Y-3.425
X2.425Y-3.125
X2.425Y-3.225
X2.425Y-3.325
X2.425Y-3.425
X2.525Y-3.125
X2.525Y-3.225
X2.525Y-3.325
X2.525Y-3.425
X3.225Y-3.025
X3.225Y-3.125
X3.225Y-3.225
X3.225Y-3.325
X3.225Y-3.425
X3.325Y-3.025
X3.325Y-3.125
X3.325Y-3.225
X3.325Y-3.325
X3.325Y-3.425
X4.025Y-3.025
X4.025Y-3.125
X4.025Y-3.225
X4.025Y-3.325
X4.025Y-3.425
X4.125Y-3.025
X4.125Y-3.125
X4.125Y-3.225
X4.125Y-3.325
X4.125Y-3.425
X4.425Y-3.025
X4.425Y-3.125
X4.425Y-3.225
X4.425Y-3.325
X4.425Y-3.425
X4.525Y-3.025
X4.525Y-3.125
X4.525Y-3.225
X4.525Y-3.325
X4.525Y-3.425
X5.225Y-3.025
X5.225Y-3.125
X5.225Y-3.225
X5.225Y-3.325
X5.225Y-3.425
X5.325Y-3.025
X5.325Y-3.125
X5.325Y-3.225
X5.325Y-3.325
X5.325Y-3.425
T3
X2.1969Y-3.7717
X5.7402Y-2.1969
X2.1969Y-2.1969
X5.7402Y-3.7717
T0
M30
