G04 #@! TF.GenerationSoftware,KiCad,Pcbnew,(5.0.1)-4*
G04 #@! TF.CreationDate,2018-11-25T16:05:00+01:00*
G04 #@! TF.ProjectId,Flips6,466C697073362E6B696361645F706362,V1.0*
G04 #@! TF.SameCoordinates,Original*
G04 #@! TF.FileFunction,Legend,Bot*
G04 #@! TF.FilePolarity,Positive*
%FSLAX46Y46*%
G04 Gerber Fmt 4.6, Leading zero omitted, Abs format (unit mm)*
G04 Created by KiCad (PCBNEW (5.0.1)-4) date 25.11.2018 16:05:00*
%MOMM*%
%LPD*%
G01*
G04 APERTURE LIST*
%ADD10C,0.100000*%
%ADD11C,0.200000*%
%ADD12C,0.300000*%
%ADD13C,0.250000*%
%ADD14C,0.010000*%
G04 APERTURE END LIST*
D10*
X126365000Y-66040000D02*
X126365000Y-68580000D01*
X118745000Y-66040000D02*
X118745000Y-68580000D01*
X80645000Y-60960000D02*
X80645000Y-66040000D01*
X103505000Y-66040000D02*
X103505000Y-68580000D01*
X88265000Y-60960000D02*
X88265000Y-66040000D01*
X95885000Y-60960000D02*
X95885000Y-66040000D01*
X111125000Y-60960000D02*
X111125000Y-68580000D01*
X138430000Y-66040000D02*
X73025000Y-66040000D01*
X138430000Y-63500000D02*
X138430000Y-66040000D01*
X73025000Y-63500000D02*
X138430000Y-63500000D01*
D11*
X138430000Y-60960000D02*
X73025000Y-60960000D01*
X133985000Y-58420000D02*
X133985000Y-68580000D01*
X73025000Y-58420000D02*
X138430000Y-58420000D01*
X73025000Y-68580000D02*
X73025000Y-58420000D01*
X138430000Y-68580000D02*
X73025000Y-68580000D01*
X138430000Y-58420000D02*
X138430000Y-68580000D01*
D12*
X136814285Y-57130000D02*
X136885714Y-57058571D01*
X137028571Y-56844285D01*
X137100000Y-56701428D01*
X137171428Y-56487142D01*
X137242857Y-56130000D01*
X137242857Y-55844285D01*
X137171428Y-55487142D01*
X137100000Y-55272857D01*
X137028571Y-55130000D01*
X136885714Y-54915714D01*
X136814285Y-54844285D01*
X136314285Y-56487142D02*
X136100000Y-56558571D01*
X135742857Y-56558571D01*
X135600000Y-56487142D01*
X135528571Y-56415714D01*
X135457142Y-56272857D01*
X135457142Y-56130000D01*
X135528571Y-55987142D01*
X135600000Y-55915714D01*
X135742857Y-55844285D01*
X136028571Y-55772857D01*
X136171428Y-55701428D01*
X136242857Y-55630000D01*
X136314285Y-55487142D01*
X136314285Y-55344285D01*
X136242857Y-55201428D01*
X136171428Y-55130000D01*
X136028571Y-55058571D01*
X135671428Y-55058571D01*
X135457142Y-55130000D01*
X134814285Y-56558571D02*
X134814285Y-55058571D01*
X134171428Y-56558571D02*
X134171428Y-55772857D01*
X134242857Y-55630000D01*
X134385714Y-55558571D01*
X134600000Y-55558571D01*
X134742857Y-55630000D01*
X134814285Y-55701428D01*
X133457142Y-56558571D02*
X133457142Y-55558571D01*
X133457142Y-55058571D02*
X133528571Y-55130000D01*
X133457142Y-55201428D01*
X133385714Y-55130000D01*
X133457142Y-55058571D01*
X133457142Y-55201428D01*
X132957142Y-55558571D02*
X132385714Y-55558571D01*
X132742857Y-56558571D02*
X132742857Y-55272857D01*
X132671428Y-55130000D01*
X132528571Y-55058571D01*
X132385714Y-55058571D01*
X132100000Y-55558571D02*
X131528571Y-55558571D01*
X131885714Y-55058571D02*
X131885714Y-56344285D01*
X131814285Y-56487142D01*
X131671428Y-56558571D01*
X131528571Y-56558571D01*
X131171428Y-57130000D02*
X131100000Y-57058571D01*
X130957142Y-56844285D01*
X130885714Y-56701428D01*
X130814285Y-56487142D01*
X130742857Y-56130000D01*
X130742857Y-55844285D01*
X130814285Y-55487142D01*
X130885714Y-55272857D01*
X130957142Y-55130000D01*
X131100000Y-54915714D01*
X131171428Y-54844285D01*
X128028571Y-56558571D02*
X128528571Y-55844285D01*
X128885714Y-56558571D02*
X128885714Y-55058571D01*
X128314285Y-55058571D01*
X128171428Y-55130000D01*
X128100000Y-55201428D01*
X128028571Y-55344285D01*
X128028571Y-55558571D01*
X128100000Y-55701428D01*
X128171428Y-55772857D01*
X128314285Y-55844285D01*
X128885714Y-55844285D01*
X126814285Y-56487142D02*
X126957142Y-56558571D01*
X127242857Y-56558571D01*
X127385714Y-56487142D01*
X127457142Y-56344285D01*
X127457142Y-55772857D01*
X127385714Y-55630000D01*
X127242857Y-55558571D01*
X126957142Y-55558571D01*
X126814285Y-55630000D01*
X126742857Y-55772857D01*
X126742857Y-55915714D01*
X127457142Y-56058571D01*
X125457142Y-55558571D02*
X125457142Y-56772857D01*
X125528571Y-56915714D01*
X125600000Y-56987142D01*
X125742857Y-57058571D01*
X125957142Y-57058571D01*
X126100000Y-56987142D01*
X125457142Y-56487142D02*
X125600000Y-56558571D01*
X125885714Y-56558571D01*
X126028571Y-56487142D01*
X126100000Y-56415714D01*
X126171428Y-56272857D01*
X126171428Y-55844285D01*
X126100000Y-55701428D01*
X126028571Y-55630000D01*
X125885714Y-55558571D01*
X125600000Y-55558571D01*
X125457142Y-55630000D01*
X124742857Y-56558571D02*
X124742857Y-55558571D01*
X124742857Y-55058571D02*
X124814285Y-55130000D01*
X124742857Y-55201428D01*
X124671428Y-55130000D01*
X124742857Y-55058571D01*
X124742857Y-55201428D01*
X124100000Y-56487142D02*
X123957142Y-56558571D01*
X123671428Y-56558571D01*
X123528571Y-56487142D01*
X123457142Y-56344285D01*
X123457142Y-56272857D01*
X123528571Y-56130000D01*
X123671428Y-56058571D01*
X123885714Y-56058571D01*
X124028571Y-55987142D01*
X124100000Y-55844285D01*
X124100000Y-55772857D01*
X124028571Y-55630000D01*
X123885714Y-55558571D01*
X123671428Y-55558571D01*
X123528571Y-55630000D01*
X123028571Y-55558571D02*
X122457142Y-55558571D01*
X122814285Y-55058571D02*
X122814285Y-56344285D01*
X122742857Y-56487142D01*
X122600000Y-56558571D01*
X122457142Y-56558571D01*
X121385714Y-56487142D02*
X121528571Y-56558571D01*
X121814285Y-56558571D01*
X121957142Y-56487142D01*
X122028571Y-56344285D01*
X122028571Y-55772857D01*
X121957142Y-55630000D01*
X121814285Y-55558571D01*
X121528571Y-55558571D01*
X121385714Y-55630000D01*
X121314285Y-55772857D01*
X121314285Y-55915714D01*
X122028571Y-56058571D01*
X120671428Y-56558571D02*
X120671428Y-55558571D01*
X120671428Y-55844285D02*
X120600000Y-55701428D01*
X120528571Y-55630000D01*
X120385714Y-55558571D01*
X120242857Y-55558571D01*
X118600000Y-56558571D02*
X118600000Y-55058571D01*
X118028571Y-55058571D01*
X117885714Y-55130000D01*
X117814285Y-55201428D01*
X117742857Y-55344285D01*
X117742857Y-55558571D01*
X117814285Y-55701428D01*
X117885714Y-55772857D01*
X118028571Y-55844285D01*
X118600000Y-55844285D01*
X117100000Y-56558571D02*
X117100000Y-55558571D01*
X117100000Y-55058571D02*
X117171428Y-55130000D01*
X117100000Y-55201428D01*
X117028571Y-55130000D01*
X117100000Y-55058571D01*
X117100000Y-55201428D01*
X116385714Y-55558571D02*
X116385714Y-56558571D01*
X116385714Y-55701428D02*
X116314285Y-55630000D01*
X116171428Y-55558571D01*
X115957142Y-55558571D01*
X115814285Y-55630000D01*
X115742857Y-55772857D01*
X115742857Y-56558571D01*
X113885714Y-56558571D02*
X113885714Y-55058571D01*
X113385714Y-56130000D01*
X112885714Y-55058571D01*
X112885714Y-56558571D01*
X111528571Y-56558571D02*
X111528571Y-55772857D01*
X111600000Y-55630000D01*
X111742857Y-55558571D01*
X112028571Y-55558571D01*
X112171428Y-55630000D01*
X111528571Y-56487142D02*
X111671428Y-56558571D01*
X112028571Y-56558571D01*
X112171428Y-56487142D01*
X112242857Y-56344285D01*
X112242857Y-56201428D01*
X112171428Y-56058571D01*
X112028571Y-55987142D01*
X111671428Y-55987142D01*
X111528571Y-55915714D01*
X110814285Y-55558571D02*
X110814285Y-57058571D01*
X110814285Y-55630000D02*
X110671428Y-55558571D01*
X110385714Y-55558571D01*
X110242857Y-55630000D01*
X110171428Y-55701428D01*
X110100000Y-55844285D01*
X110100000Y-56272857D01*
X110171428Y-56415714D01*
X110242857Y-56487142D01*
X110385714Y-56558571D01*
X110671428Y-56558571D01*
X110814285Y-56487142D01*
X109457142Y-55558571D02*
X109457142Y-57058571D01*
X109457142Y-55630000D02*
X109314285Y-55558571D01*
X109028571Y-55558571D01*
X108885714Y-55630000D01*
X108814285Y-55701428D01*
X108742857Y-55844285D01*
X108742857Y-56272857D01*
X108814285Y-56415714D01*
X108885714Y-56487142D01*
X109028571Y-56558571D01*
X109314285Y-56558571D01*
X109457142Y-56487142D01*
X108100000Y-56558571D02*
X108100000Y-55558571D01*
X108100000Y-55058571D02*
X108171428Y-55130000D01*
X108100000Y-55201428D01*
X108028571Y-55130000D01*
X108100000Y-55058571D01*
X108100000Y-55201428D01*
X107385714Y-55558571D02*
X107385714Y-56558571D01*
X107385714Y-55701428D02*
X107314285Y-55630000D01*
X107171428Y-55558571D01*
X106957142Y-55558571D01*
X106814285Y-55630000D01*
X106742857Y-55772857D01*
X106742857Y-56558571D01*
X105385714Y-55558571D02*
X105385714Y-56772857D01*
X105457142Y-56915714D01*
X105528571Y-56987142D01*
X105671428Y-57058571D01*
X105885714Y-57058571D01*
X106028571Y-56987142D01*
X105385714Y-56487142D02*
X105528571Y-56558571D01*
X105814285Y-56558571D01*
X105957142Y-56487142D01*
X106028571Y-56415714D01*
X106100000Y-56272857D01*
X106100000Y-55844285D01*
X106028571Y-55701428D01*
X105957142Y-55630000D01*
X105814285Y-55558571D01*
X105528571Y-55558571D01*
X105385714Y-55630000D01*
X79457857Y-60210714D02*
X79386428Y-60282142D01*
X79457857Y-60353571D01*
X79529285Y-60282142D01*
X79457857Y-60210714D01*
X79457857Y-60353571D01*
X78886428Y-58853571D02*
X77886428Y-58853571D01*
X78529285Y-60353571D01*
X79172142Y-62189285D02*
X79172142Y-62903571D01*
X79672142Y-61403571D02*
X79172142Y-62189285D01*
X78672142Y-61403571D01*
X78243571Y-61546428D02*
X78172142Y-61475000D01*
X78029285Y-61403571D01*
X77672142Y-61403571D01*
X77529285Y-61475000D01*
X77457857Y-61546428D01*
X77386428Y-61689285D01*
X77386428Y-61832142D01*
X77457857Y-62046428D01*
X78315000Y-62903571D01*
X77386428Y-62903571D01*
X76743571Y-62760714D02*
X76672142Y-62832142D01*
X76743571Y-62903571D01*
X76815000Y-62832142D01*
X76743571Y-62760714D01*
X76743571Y-62903571D01*
X76029285Y-62117857D02*
X75529285Y-62117857D01*
X75315000Y-62903571D02*
X76029285Y-62903571D01*
X76029285Y-61403571D01*
X75315000Y-61403571D01*
X74672142Y-62903571D02*
X74672142Y-61403571D01*
X73815000Y-62903571D01*
X73815000Y-61403571D01*
X79600714Y-63953571D02*
X78600714Y-65453571D01*
X78600714Y-63953571D02*
X79600714Y-65453571D01*
X78100714Y-64096428D02*
X78029285Y-64025000D01*
X77886428Y-63953571D01*
X77529285Y-63953571D01*
X77386428Y-64025000D01*
X77315000Y-64096428D01*
X77243571Y-64239285D01*
X77243571Y-64382142D01*
X77315000Y-64596428D01*
X78172142Y-65453571D01*
X77243571Y-65453571D01*
X76600714Y-65310714D02*
X76529285Y-65382142D01*
X76600714Y-65453571D01*
X76672142Y-65382142D01*
X76600714Y-65310714D01*
X76600714Y-65453571D01*
X75886428Y-64667857D02*
X75386428Y-64667857D01*
X75172142Y-65453571D02*
X75886428Y-65453571D01*
X75886428Y-63953571D01*
X75172142Y-63953571D01*
X74529285Y-65453571D02*
X74529285Y-63953571D01*
X73672142Y-65453571D01*
X73672142Y-63953571D01*
X87077857Y-60210714D02*
X87006428Y-60282142D01*
X87077857Y-60353571D01*
X87149285Y-60282142D01*
X87077857Y-60210714D01*
X87077857Y-60353571D01*
X85720714Y-58853571D02*
X86006428Y-58853571D01*
X86149285Y-58925000D01*
X86220714Y-58996428D01*
X86363571Y-59210714D01*
X86435000Y-59496428D01*
X86435000Y-60067857D01*
X86363571Y-60210714D01*
X86292142Y-60282142D01*
X86149285Y-60353571D01*
X85863571Y-60353571D01*
X85720714Y-60282142D01*
X85649285Y-60210714D01*
X85577857Y-60067857D01*
X85577857Y-59710714D01*
X85649285Y-59567857D01*
X85720714Y-59496428D01*
X85863571Y-59425000D01*
X86149285Y-59425000D01*
X86292142Y-59496428D01*
X86363571Y-59567857D01*
X86435000Y-59710714D01*
X86792142Y-62189285D02*
X86792142Y-62903571D01*
X87292142Y-61403571D02*
X86792142Y-62189285D01*
X86292142Y-61403571D01*
X85006428Y-62903571D02*
X85863571Y-62903571D01*
X85435000Y-62903571D02*
X85435000Y-61403571D01*
X85577857Y-61617857D01*
X85720714Y-61760714D01*
X85863571Y-61832142D01*
X84363571Y-62760714D02*
X84292142Y-62832142D01*
X84363571Y-62903571D01*
X84435000Y-62832142D01*
X84363571Y-62760714D01*
X84363571Y-62903571D01*
X83649285Y-62117857D02*
X83149285Y-62117857D01*
X82935000Y-62903571D02*
X83649285Y-62903571D01*
X83649285Y-61403571D01*
X82935000Y-61403571D01*
X82292142Y-62903571D02*
X82292142Y-61403571D01*
X81435000Y-62903571D01*
X81435000Y-61403571D01*
X87220714Y-63953571D02*
X86220714Y-65453571D01*
X86220714Y-63953571D02*
X87220714Y-65453571D01*
X84863571Y-65453571D02*
X85720714Y-65453571D01*
X85292142Y-65453571D02*
X85292142Y-63953571D01*
X85435000Y-64167857D01*
X85577857Y-64310714D01*
X85720714Y-64382142D01*
X84220714Y-65310714D02*
X84149285Y-65382142D01*
X84220714Y-65453571D01*
X84292142Y-65382142D01*
X84220714Y-65310714D01*
X84220714Y-65453571D01*
X83506428Y-64667857D02*
X83006428Y-64667857D01*
X82792142Y-65453571D02*
X83506428Y-65453571D01*
X83506428Y-63953571D01*
X82792142Y-63953571D01*
X82149285Y-65453571D02*
X82149285Y-63953571D01*
X81292142Y-65453571D01*
X81292142Y-63953571D01*
X94697857Y-60210714D02*
X94626428Y-60282142D01*
X94697857Y-60353571D01*
X94769285Y-60282142D01*
X94697857Y-60210714D01*
X94697857Y-60353571D01*
X93269285Y-58853571D02*
X93983571Y-58853571D01*
X94055000Y-59567857D01*
X93983571Y-59496428D01*
X93840714Y-59425000D01*
X93483571Y-59425000D01*
X93340714Y-59496428D01*
X93269285Y-59567857D01*
X93197857Y-59710714D01*
X93197857Y-60067857D01*
X93269285Y-60210714D01*
X93340714Y-60282142D01*
X93483571Y-60353571D01*
X93840714Y-60353571D01*
X93983571Y-60282142D01*
X94055000Y-60210714D01*
X94412142Y-62189285D02*
X94412142Y-62903571D01*
X94912142Y-61403571D02*
X94412142Y-62189285D01*
X93912142Y-61403571D01*
X93412142Y-62760714D02*
X93340714Y-62832142D01*
X93412142Y-62903571D01*
X93483571Y-62832142D01*
X93412142Y-62760714D01*
X93412142Y-62903571D01*
X92697857Y-62903571D02*
X92697857Y-61403571D01*
X92340714Y-61403571D01*
X92126428Y-61475000D01*
X91983571Y-61617857D01*
X91912142Y-61760714D01*
X91840714Y-62046428D01*
X91840714Y-62260714D01*
X91912142Y-62546428D01*
X91983571Y-62689285D01*
X92126428Y-62832142D01*
X92340714Y-62903571D01*
X92697857Y-62903571D01*
X91269285Y-62475000D02*
X90555000Y-62475000D01*
X91412142Y-62903571D02*
X90912142Y-61403571D01*
X90412142Y-62903571D01*
X90126428Y-61403571D02*
X89269285Y-61403571D01*
X89697857Y-62903571D02*
X89697857Y-61403571D01*
X94840714Y-63953571D02*
X93840714Y-65453571D01*
X93840714Y-63953571D02*
X94840714Y-65453571D01*
X93269285Y-65310714D02*
X93197857Y-65382142D01*
X93269285Y-65453571D01*
X93340714Y-65382142D01*
X93269285Y-65310714D01*
X93269285Y-65453571D01*
X92555000Y-65453571D02*
X92555000Y-63953571D01*
X92197857Y-63953571D01*
X91983571Y-64025000D01*
X91840714Y-64167857D01*
X91769285Y-64310714D01*
X91697857Y-64596428D01*
X91697857Y-64810714D01*
X91769285Y-65096428D01*
X91840714Y-65239285D01*
X91983571Y-65382142D01*
X92197857Y-65453571D01*
X92555000Y-65453571D01*
X91126428Y-65025000D02*
X90412142Y-65025000D01*
X91269285Y-65453571D02*
X90769285Y-63953571D01*
X90269285Y-65453571D01*
X89983571Y-63953571D02*
X89126428Y-63953571D01*
X89555000Y-65453571D02*
X89555000Y-63953571D01*
X102317857Y-60210714D02*
X102246428Y-60282142D01*
X102317857Y-60353571D01*
X102389285Y-60282142D01*
X102317857Y-60210714D01*
X102317857Y-60353571D01*
X100960714Y-59353571D02*
X100960714Y-60353571D01*
X101317857Y-58782142D02*
X101675000Y-59853571D01*
X100746428Y-59853571D01*
X102032142Y-62189285D02*
X102032142Y-62903571D01*
X102532142Y-61403571D02*
X102032142Y-62189285D01*
X101532142Y-61403571D01*
X101032142Y-62760714D02*
X100960714Y-62832142D01*
X101032142Y-62903571D01*
X101103571Y-62832142D01*
X101032142Y-62760714D01*
X101032142Y-62903571D01*
X99817857Y-62117857D02*
X99603571Y-62189285D01*
X99532142Y-62260714D01*
X99460714Y-62403571D01*
X99460714Y-62617857D01*
X99532142Y-62760714D01*
X99603571Y-62832142D01*
X99746428Y-62903571D01*
X100317857Y-62903571D01*
X100317857Y-61403571D01*
X99817857Y-61403571D01*
X99675000Y-61475000D01*
X99603571Y-61546428D01*
X99532142Y-61689285D01*
X99532142Y-61832142D01*
X99603571Y-61975000D01*
X99675000Y-62046428D01*
X99817857Y-62117857D01*
X100317857Y-62117857D01*
X98032142Y-62903571D02*
X98889285Y-62903571D01*
X98460714Y-62903571D02*
X98460714Y-61403571D01*
X98603571Y-61617857D01*
X98746428Y-61760714D01*
X98889285Y-61832142D01*
X102460714Y-63953571D02*
X101460714Y-65453571D01*
X101460714Y-63953571D02*
X102460714Y-65453571D01*
X100889285Y-65310714D02*
X100817857Y-65382142D01*
X100889285Y-65453571D01*
X100960714Y-65382142D01*
X100889285Y-65310714D01*
X100889285Y-65453571D01*
X99675000Y-64667857D02*
X99460714Y-64739285D01*
X99389285Y-64810714D01*
X99317857Y-64953571D01*
X99317857Y-65167857D01*
X99389285Y-65310714D01*
X99460714Y-65382142D01*
X99603571Y-65453571D01*
X100175000Y-65453571D01*
X100175000Y-63953571D01*
X99675000Y-63953571D01*
X99532142Y-64025000D01*
X99460714Y-64096428D01*
X99389285Y-64239285D01*
X99389285Y-64382142D01*
X99460714Y-64525000D01*
X99532142Y-64596428D01*
X99675000Y-64667857D01*
X100175000Y-64667857D01*
X97889285Y-65453571D02*
X98746428Y-65453571D01*
X98317857Y-65453571D02*
X98317857Y-63953571D01*
X98460714Y-64167857D01*
X98603571Y-64310714D01*
X98746428Y-64382142D01*
X109937857Y-60210714D02*
X109866428Y-60282142D01*
X109937857Y-60353571D01*
X110009285Y-60282142D01*
X109937857Y-60210714D01*
X109937857Y-60353571D01*
X109366428Y-58853571D02*
X108437857Y-58853571D01*
X108937857Y-59425000D01*
X108723571Y-59425000D01*
X108580714Y-59496428D01*
X108509285Y-59567857D01*
X108437857Y-59710714D01*
X108437857Y-60067857D01*
X108509285Y-60210714D01*
X108580714Y-60282142D01*
X108723571Y-60353571D01*
X109152142Y-60353571D01*
X109295000Y-60282142D01*
X109366428Y-60210714D01*
X109652142Y-62189285D02*
X109652142Y-62903571D01*
X110152142Y-61403571D02*
X109652142Y-62189285D01*
X109152142Y-61403571D01*
X108652142Y-62760714D02*
X108580714Y-62832142D01*
X108652142Y-62903571D01*
X108723571Y-62832142D01*
X108652142Y-62760714D01*
X108652142Y-62903571D01*
X107437857Y-62117857D02*
X107223571Y-62189285D01*
X107152142Y-62260714D01*
X107080714Y-62403571D01*
X107080714Y-62617857D01*
X107152142Y-62760714D01*
X107223571Y-62832142D01*
X107366428Y-62903571D01*
X107937857Y-62903571D01*
X107937857Y-61403571D01*
X107437857Y-61403571D01*
X107295000Y-61475000D01*
X107223571Y-61546428D01*
X107152142Y-61689285D01*
X107152142Y-61832142D01*
X107223571Y-61975000D01*
X107295000Y-62046428D01*
X107437857Y-62117857D01*
X107937857Y-62117857D01*
X106152142Y-61403571D02*
X106009285Y-61403571D01*
X105866428Y-61475000D01*
X105795000Y-61546428D01*
X105723571Y-61689285D01*
X105652142Y-61975000D01*
X105652142Y-62332142D01*
X105723571Y-62617857D01*
X105795000Y-62760714D01*
X105866428Y-62832142D01*
X106009285Y-62903571D01*
X106152142Y-62903571D01*
X106295000Y-62832142D01*
X106366428Y-62760714D01*
X106437857Y-62617857D01*
X106509285Y-62332142D01*
X106509285Y-61975000D01*
X106437857Y-61689285D01*
X106366428Y-61546428D01*
X106295000Y-61475000D01*
X106152142Y-61403571D01*
X110080714Y-63953571D02*
X109080714Y-65453571D01*
X109080714Y-63953571D02*
X110080714Y-65453571D01*
X108509285Y-65310714D02*
X108437857Y-65382142D01*
X108509285Y-65453571D01*
X108580714Y-65382142D01*
X108509285Y-65310714D01*
X108509285Y-65453571D01*
X107295000Y-64667857D02*
X107080714Y-64739285D01*
X107009285Y-64810714D01*
X106937857Y-64953571D01*
X106937857Y-65167857D01*
X107009285Y-65310714D01*
X107080714Y-65382142D01*
X107223571Y-65453571D01*
X107795000Y-65453571D01*
X107795000Y-63953571D01*
X107295000Y-63953571D01*
X107152142Y-64025000D01*
X107080714Y-64096428D01*
X107009285Y-64239285D01*
X107009285Y-64382142D01*
X107080714Y-64525000D01*
X107152142Y-64596428D01*
X107295000Y-64667857D01*
X107795000Y-64667857D01*
X106009285Y-63953571D02*
X105866428Y-63953571D01*
X105723571Y-64025000D01*
X105652142Y-64096428D01*
X105580714Y-64239285D01*
X105509285Y-64525000D01*
X105509285Y-64882142D01*
X105580714Y-65167857D01*
X105652142Y-65310714D01*
X105723571Y-65382142D01*
X105866428Y-65453571D01*
X106009285Y-65453571D01*
X106152142Y-65382142D01*
X106223571Y-65310714D01*
X106295000Y-65167857D01*
X106366428Y-64882142D01*
X106366428Y-64525000D01*
X106295000Y-64239285D01*
X106223571Y-64096428D01*
X106152142Y-64025000D01*
X106009285Y-63953571D01*
X110080714Y-66503571D02*
X109080714Y-68003571D01*
X109080714Y-66503571D02*
X110080714Y-68003571D01*
X107866428Y-66503571D02*
X108152142Y-66503571D01*
X108295000Y-66575000D01*
X108366428Y-66646428D01*
X108509285Y-66860714D01*
X108580714Y-67146428D01*
X108580714Y-67717857D01*
X108509285Y-67860714D01*
X108437857Y-67932142D01*
X108295000Y-68003571D01*
X108009285Y-68003571D01*
X107866428Y-67932142D01*
X107795000Y-67860714D01*
X107723571Y-67717857D01*
X107723571Y-67360714D01*
X107795000Y-67217857D01*
X107866428Y-67146428D01*
X108009285Y-67075000D01*
X108295000Y-67075000D01*
X108437857Y-67146428D01*
X108509285Y-67217857D01*
X108580714Y-67360714D01*
X107080714Y-67860714D02*
X107009285Y-67932142D01*
X107080714Y-68003571D01*
X107152142Y-67932142D01*
X107080714Y-67860714D01*
X107080714Y-68003571D01*
X106366428Y-67217857D02*
X105866428Y-67217857D01*
X105652142Y-68003571D02*
X106366428Y-68003571D01*
X106366428Y-66503571D01*
X105652142Y-66503571D01*
X105009285Y-68003571D02*
X105009285Y-66503571D01*
X104152142Y-68003571D01*
X104152142Y-66503571D01*
X117557857Y-60210714D02*
X117486428Y-60282142D01*
X117557857Y-60353571D01*
X117629285Y-60282142D01*
X117557857Y-60210714D01*
X117557857Y-60353571D01*
X116915000Y-58996428D02*
X116843571Y-58925000D01*
X116700714Y-58853571D01*
X116343571Y-58853571D01*
X116200714Y-58925000D01*
X116129285Y-58996428D01*
X116057857Y-59139285D01*
X116057857Y-59282142D01*
X116129285Y-59496428D01*
X116986428Y-60353571D01*
X116057857Y-60353571D01*
X117272142Y-62189285D02*
X117272142Y-62903571D01*
X117772142Y-61403571D02*
X117272142Y-62189285D01*
X116772142Y-61403571D01*
X116272142Y-62760714D02*
X116200714Y-62832142D01*
X116272142Y-62903571D01*
X116343571Y-62832142D01*
X116272142Y-62760714D01*
X116272142Y-62903571D01*
X115629285Y-62475000D02*
X114915000Y-62475000D01*
X115772142Y-62903571D02*
X115272142Y-61403571D01*
X114772142Y-62903571D01*
X114343571Y-61546428D02*
X114272142Y-61475000D01*
X114129285Y-61403571D01*
X113772142Y-61403571D01*
X113629285Y-61475000D01*
X113557857Y-61546428D01*
X113486428Y-61689285D01*
X113486428Y-61832142D01*
X113557857Y-62046428D01*
X114415000Y-62903571D01*
X113486428Y-62903571D01*
X117700714Y-63953571D02*
X116700714Y-65453571D01*
X116700714Y-63953571D02*
X117700714Y-65453571D01*
X116129285Y-65310714D02*
X116057857Y-65382142D01*
X116129285Y-65453571D01*
X116200714Y-65382142D01*
X116129285Y-65310714D01*
X116129285Y-65453571D01*
X115486428Y-65025000D02*
X114772142Y-65025000D01*
X115629285Y-65453571D02*
X115129285Y-63953571D01*
X114629285Y-65453571D01*
X114200714Y-64096428D02*
X114129285Y-64025000D01*
X113986428Y-63953571D01*
X113629285Y-63953571D01*
X113486428Y-64025000D01*
X113415000Y-64096428D01*
X113343571Y-64239285D01*
X113343571Y-64382142D01*
X113415000Y-64596428D01*
X114272142Y-65453571D01*
X113343571Y-65453571D01*
X117700714Y-66503571D02*
X116700714Y-68003571D01*
X116700714Y-66503571D02*
X117700714Y-68003571D01*
X115415000Y-66503571D02*
X116129285Y-66503571D01*
X116200714Y-67217857D01*
X116129285Y-67146428D01*
X115986428Y-67075000D01*
X115629285Y-67075000D01*
X115486428Y-67146428D01*
X115415000Y-67217857D01*
X115343571Y-67360714D01*
X115343571Y-67717857D01*
X115415000Y-67860714D01*
X115486428Y-67932142D01*
X115629285Y-68003571D01*
X115986428Y-68003571D01*
X116129285Y-67932142D01*
X116200714Y-67860714D01*
X114700714Y-67860714D02*
X114629285Y-67932142D01*
X114700714Y-68003571D01*
X114772142Y-67932142D01*
X114700714Y-67860714D01*
X114700714Y-68003571D01*
X113986428Y-67217857D02*
X113486428Y-67217857D01*
X113272142Y-68003571D02*
X113986428Y-68003571D01*
X113986428Y-66503571D01*
X113272142Y-66503571D01*
X112629285Y-68003571D02*
X112629285Y-66503571D01*
X111772142Y-68003571D01*
X111772142Y-66503571D01*
X125177857Y-60210714D02*
X125106428Y-60282142D01*
X125177857Y-60353571D01*
X125249285Y-60282142D01*
X125177857Y-60210714D01*
X125177857Y-60353571D01*
X123677857Y-60353571D02*
X124535000Y-60353571D01*
X124106428Y-60353571D02*
X124106428Y-58853571D01*
X124249285Y-59067857D01*
X124392142Y-59210714D01*
X124535000Y-59282142D01*
X124892142Y-62189285D02*
X124892142Y-62903571D01*
X125392142Y-61403571D02*
X124892142Y-62189285D01*
X124392142Y-61403571D01*
X123892142Y-62760714D02*
X123820714Y-62832142D01*
X123892142Y-62903571D01*
X123963571Y-62832142D01*
X123892142Y-62760714D01*
X123892142Y-62903571D01*
X123249285Y-62475000D02*
X122535000Y-62475000D01*
X123392142Y-62903571D02*
X122892142Y-61403571D01*
X122392142Y-62903571D01*
X121106428Y-62903571D02*
X121963571Y-62903571D01*
X121535000Y-62903571D02*
X121535000Y-61403571D01*
X121677857Y-61617857D01*
X121820714Y-61760714D01*
X121963571Y-61832142D01*
X125320714Y-63953571D02*
X124320714Y-65453571D01*
X124320714Y-63953571D02*
X125320714Y-65453571D01*
X123749285Y-65310714D02*
X123677857Y-65382142D01*
X123749285Y-65453571D01*
X123820714Y-65382142D01*
X123749285Y-65310714D01*
X123749285Y-65453571D01*
X123106428Y-65025000D02*
X122392142Y-65025000D01*
X123249285Y-65453571D02*
X122749285Y-63953571D01*
X122249285Y-65453571D01*
X120963571Y-65453571D02*
X121820714Y-65453571D01*
X121392142Y-65453571D02*
X121392142Y-63953571D01*
X121535000Y-64167857D01*
X121677857Y-64310714D01*
X121820714Y-64382142D01*
X125320714Y-66503571D02*
X124320714Y-68003571D01*
X124320714Y-66503571D02*
X125320714Y-68003571D01*
X123106428Y-67003571D02*
X123106428Y-68003571D01*
X123463571Y-66432142D02*
X123820714Y-67503571D01*
X122892142Y-67503571D01*
X122320714Y-67860714D02*
X122249285Y-67932142D01*
X122320714Y-68003571D01*
X122392142Y-67932142D01*
X122320714Y-67860714D01*
X122320714Y-68003571D01*
X121606428Y-67217857D02*
X121106428Y-67217857D01*
X120892142Y-68003571D02*
X121606428Y-68003571D01*
X121606428Y-66503571D01*
X120892142Y-66503571D01*
X120249285Y-68003571D02*
X120249285Y-66503571D01*
X119392142Y-68003571D01*
X119392142Y-66503571D01*
X132797857Y-60210714D02*
X132726428Y-60282142D01*
X132797857Y-60353571D01*
X132869285Y-60282142D01*
X132797857Y-60210714D01*
X132797857Y-60353571D01*
X131797857Y-58853571D02*
X131655000Y-58853571D01*
X131512142Y-58925000D01*
X131440714Y-58996428D01*
X131369285Y-59139285D01*
X131297857Y-59425000D01*
X131297857Y-59782142D01*
X131369285Y-60067857D01*
X131440714Y-60210714D01*
X131512142Y-60282142D01*
X131655000Y-60353571D01*
X131797857Y-60353571D01*
X131940714Y-60282142D01*
X132012142Y-60210714D01*
X132083571Y-60067857D01*
X132155000Y-59782142D01*
X132155000Y-59425000D01*
X132083571Y-59139285D01*
X132012142Y-58996428D01*
X131940714Y-58925000D01*
X131797857Y-58853571D01*
X132512142Y-62189285D02*
X132512142Y-62903571D01*
X133012142Y-61403571D02*
X132512142Y-62189285D01*
X132012142Y-61403571D01*
X131512142Y-62760714D02*
X131440714Y-62832142D01*
X131512142Y-62903571D01*
X131583571Y-62832142D01*
X131512142Y-62760714D01*
X131512142Y-62903571D01*
X130869285Y-62475000D02*
X130155000Y-62475000D01*
X131012142Y-62903571D02*
X130512142Y-61403571D01*
X130012142Y-62903571D01*
X129226428Y-61403571D02*
X129083571Y-61403571D01*
X128940714Y-61475000D01*
X128869285Y-61546428D01*
X128797857Y-61689285D01*
X128726428Y-61975000D01*
X128726428Y-62332142D01*
X128797857Y-62617857D01*
X128869285Y-62760714D01*
X128940714Y-62832142D01*
X129083571Y-62903571D01*
X129226428Y-62903571D01*
X129369285Y-62832142D01*
X129440714Y-62760714D01*
X129512142Y-62617857D01*
X129583571Y-62332142D01*
X129583571Y-61975000D01*
X129512142Y-61689285D01*
X129440714Y-61546428D01*
X129369285Y-61475000D01*
X129226428Y-61403571D01*
X132940714Y-63953571D02*
X131940714Y-65453571D01*
X131940714Y-63953571D02*
X132940714Y-65453571D01*
X131369285Y-65310714D02*
X131297857Y-65382142D01*
X131369285Y-65453571D01*
X131440714Y-65382142D01*
X131369285Y-65310714D01*
X131369285Y-65453571D01*
X130726428Y-65025000D02*
X130012142Y-65025000D01*
X130869285Y-65453571D02*
X130369285Y-63953571D01*
X129869285Y-65453571D01*
X129083571Y-63953571D02*
X128940714Y-63953571D01*
X128797857Y-64025000D01*
X128726428Y-64096428D01*
X128655000Y-64239285D01*
X128583571Y-64525000D01*
X128583571Y-64882142D01*
X128655000Y-65167857D01*
X128726428Y-65310714D01*
X128797857Y-65382142D01*
X128940714Y-65453571D01*
X129083571Y-65453571D01*
X129226428Y-65382142D01*
X129297857Y-65310714D01*
X129369285Y-65167857D01*
X129440714Y-64882142D01*
X129440714Y-64525000D01*
X129369285Y-64239285D01*
X129297857Y-64096428D01*
X129226428Y-64025000D01*
X129083571Y-63953571D01*
X132940714Y-66503571D02*
X131940714Y-68003571D01*
X131940714Y-66503571D02*
X132940714Y-68003571D01*
X131512142Y-66503571D02*
X130583571Y-66503571D01*
X131083571Y-67075000D01*
X130869285Y-67075000D01*
X130726428Y-67146428D01*
X130655000Y-67217857D01*
X130583571Y-67360714D01*
X130583571Y-67717857D01*
X130655000Y-67860714D01*
X130726428Y-67932142D01*
X130869285Y-68003571D01*
X131297857Y-68003571D01*
X131440714Y-67932142D01*
X131512142Y-67860714D01*
X129940714Y-67860714D02*
X129869285Y-67932142D01*
X129940714Y-68003571D01*
X130012142Y-67932142D01*
X129940714Y-67860714D01*
X129940714Y-68003571D01*
X129226428Y-67217857D02*
X128726428Y-67217857D01*
X128512142Y-68003571D02*
X129226428Y-68003571D01*
X129226428Y-66503571D01*
X128512142Y-66503571D01*
X127869285Y-68003571D02*
X127869285Y-66503571D01*
X127012142Y-68003571D01*
X127012142Y-66503571D01*
X136957142Y-61403571D02*
X136814285Y-61403571D01*
X136671428Y-61475000D01*
X136600000Y-61546428D01*
X136528571Y-61689285D01*
X136457142Y-61975000D01*
X136457142Y-62332142D01*
X136528571Y-62617857D01*
X136600000Y-62760714D01*
X136671428Y-62832142D01*
X136814285Y-62903571D01*
X136957142Y-62903571D01*
X137100000Y-62832142D01*
X137171428Y-62760714D01*
X137242857Y-62617857D01*
X137314285Y-62332142D01*
X137314285Y-61975000D01*
X137242857Y-61689285D01*
X137171428Y-61546428D01*
X137100000Y-61475000D01*
X136957142Y-61403571D01*
X135814285Y-62760714D02*
X135742857Y-62832142D01*
X135814285Y-62903571D01*
X135885714Y-62832142D01*
X135814285Y-62760714D01*
X135814285Y-62903571D01*
X136457142Y-65453571D02*
X137314285Y-65453571D01*
X136885714Y-65453571D02*
X136885714Y-63953571D01*
X137028571Y-64167857D01*
X137171428Y-64310714D01*
X137314285Y-64382142D01*
X135814285Y-65310714D02*
X135742857Y-65382142D01*
X135814285Y-65453571D01*
X135885714Y-65382142D01*
X135814285Y-65310714D01*
X135814285Y-65453571D01*
X137314285Y-66646428D02*
X137242857Y-66575000D01*
X137100000Y-66503571D01*
X136742857Y-66503571D01*
X136600000Y-66575000D01*
X136528571Y-66646428D01*
X136457142Y-66789285D01*
X136457142Y-66932142D01*
X136528571Y-67146428D01*
X137385714Y-68003571D01*
X136457142Y-68003571D01*
X135814285Y-67860714D02*
X135742857Y-67932142D01*
X135814285Y-68003571D01*
X135885714Y-67932142D01*
X135814285Y-67860714D01*
X135814285Y-68003571D01*
D13*
X51617619Y-89765000D02*
X52617619Y-89765000D01*
X52236666Y-89765000D02*
X52284285Y-89669761D01*
X52284285Y-89479285D01*
X52236666Y-89384047D01*
X52189047Y-89336428D01*
X52093809Y-89288809D01*
X51808095Y-89288809D01*
X51712857Y-89336428D01*
X51665238Y-89384047D01*
X51617619Y-89479285D01*
X51617619Y-89669761D01*
X51665238Y-89765000D01*
X51617619Y-88431666D02*
X52141428Y-88431666D01*
X52236666Y-88479285D01*
X52284285Y-88574523D01*
X52284285Y-88765000D01*
X52236666Y-88860238D01*
X51665238Y-88431666D02*
X51617619Y-88526904D01*
X51617619Y-88765000D01*
X51665238Y-88860238D01*
X51760476Y-88907857D01*
X51855714Y-88907857D01*
X51950952Y-88860238D01*
X51998571Y-88765000D01*
X51998571Y-88526904D01*
X52046190Y-88431666D01*
X51665238Y-87526904D02*
X51617619Y-87622142D01*
X51617619Y-87812619D01*
X51665238Y-87907857D01*
X51712857Y-87955476D01*
X51808095Y-88003095D01*
X52093809Y-88003095D01*
X52189047Y-87955476D01*
X52236666Y-87907857D01*
X52284285Y-87812619D01*
X52284285Y-87622142D01*
X52236666Y-87526904D01*
X51617619Y-87098333D02*
X52617619Y-87098333D01*
X51998571Y-87003095D02*
X51617619Y-86717380D01*
X52284285Y-86717380D02*
X51903333Y-87098333D01*
D14*
G04 #@! TO.C,REF\002A\002A\002A*
G36*
X62387178Y-99537822D02*
X65907971Y-99537822D01*
X65907971Y-98670198D01*
X62387178Y-98670198D01*
X62387178Y-99537822D01*
X62387178Y-99537822D01*
G37*
X62387178Y-99537822D02*
X65907971Y-99537822D01*
X65907971Y-98670198D01*
X62387178Y-98670198D01*
X62387178Y-99537822D01*
G36*
X62010570Y-93584848D02*
X62011189Y-93671931D01*
X62462914Y-94130891D01*
X62914639Y-94589852D01*
X62914968Y-94800471D01*
X62915297Y-95011089D01*
X63190390Y-95011089D01*
X63197478Y-95064530D01*
X63200162Y-95088888D01*
X63204687Y-95134759D01*
X63210809Y-95199405D01*
X63218288Y-95280091D01*
X63226881Y-95374081D01*
X63236346Y-95478637D01*
X63246442Y-95591025D01*
X63256926Y-95708507D01*
X63267556Y-95828348D01*
X63278091Y-95947811D01*
X63288287Y-96064159D01*
X63297905Y-96174657D01*
X63306700Y-96276569D01*
X63314432Y-96367158D01*
X63320858Y-96443687D01*
X63325737Y-96503421D01*
X63328825Y-96543624D01*
X63329883Y-96561559D01*
X63329882Y-96561644D01*
X63322173Y-96576035D01*
X63299019Y-96605748D01*
X63260105Y-96651131D01*
X63205116Y-96712529D01*
X63133736Y-96790288D01*
X63045651Y-96884754D01*
X62940546Y-96996272D01*
X62818105Y-97125188D01*
X62783690Y-97161287D01*
X62237863Y-97733416D01*
X62326119Y-97821436D01*
X62397515Y-97743758D01*
X62423634Y-97715686D01*
X62464434Y-97672274D01*
X62517223Y-97616366D01*
X62579309Y-97550808D01*
X62648000Y-97478441D01*
X62720604Y-97402112D01*
X62764040Y-97356524D01*
X62845584Y-97271119D01*
X62911496Y-97202710D01*
X62963456Y-97150053D01*
X63003145Y-97111905D01*
X63032243Y-97087020D01*
X63052431Y-97074156D01*
X63065390Y-97072068D01*
X63072800Y-97079513D01*
X63076342Y-97095246D01*
X63077697Y-97118023D01*
X63077879Y-97124239D01*
X63087297Y-97167061D01*
X63110503Y-97218819D01*
X63142864Y-97271328D01*
X63179748Y-97316403D01*
X63194507Y-97330328D01*
X63270233Y-97379047D01*
X63358692Y-97406306D01*
X63436900Y-97412773D01*
X63525532Y-97400576D01*
X63607388Y-97364813D01*
X63679836Y-97306722D01*
X63693203Y-97292262D01*
X63742082Y-97236733D01*
X64587674Y-97236733D01*
X64587674Y-97412773D01*
X64814010Y-97412773D01*
X64814010Y-97330531D01*
X64816850Y-97274386D01*
X64826393Y-97235416D01*
X64837991Y-97214219D01*
X64846277Y-97199052D01*
X64853373Y-97177062D01*
X64859748Y-97144987D01*
X64865872Y-97099569D01*
X64872216Y-97037548D01*
X64879250Y-96955662D01*
X64884066Y-96894746D01*
X64906161Y-96609343D01*
X65448565Y-97158805D01*
X65546637Y-97258228D01*
X65640784Y-97353815D01*
X65729285Y-97443810D01*
X65810420Y-97526457D01*
X65882469Y-97600001D01*
X65943712Y-97662684D01*
X65992427Y-97712752D01*
X66026896Y-97748448D01*
X66045379Y-97767995D01*
X66075743Y-97798944D01*
X66101071Y-97820530D01*
X66114695Y-97827723D01*
X66132095Y-97819297D01*
X66157460Y-97798245D01*
X66166058Y-97789671D01*
X66202514Y-97751620D01*
X66001802Y-97547658D01*
X65950596Y-97495699D01*
X65884569Y-97428820D01*
X65806618Y-97349950D01*
X65719638Y-97262014D01*
X65626526Y-97167941D01*
X65530179Y-97070658D01*
X65433492Y-96973093D01*
X65364134Y-96903145D01*
X65258703Y-96796550D01*
X65170129Y-96706307D01*
X65097281Y-96631192D01*
X65039023Y-96569986D01*
X64994225Y-96521466D01*
X64972021Y-96496129D01*
X64793724Y-96496129D01*
X64771401Y-96781555D01*
X64764669Y-96865219D01*
X64758157Y-96941727D01*
X64752234Y-97007081D01*
X64747268Y-97057281D01*
X64743629Y-97088329D01*
X64742458Y-97095273D01*
X64735838Y-97123565D01*
X63786364Y-97123565D01*
X63780026Y-97044606D01*
X63760890Y-96951315D01*
X63720846Y-96868791D01*
X63662418Y-96800038D01*
X63588129Y-96748063D01*
X63504748Y-96716863D01*
X63477698Y-96702228D01*
X63464156Y-96670819D01*
X63463872Y-96669434D01*
X63462247Y-96656174D01*
X63464256Y-96642595D01*
X63471858Y-96626181D01*
X63487016Y-96604411D01*
X63511688Y-96574767D01*
X63547836Y-96534732D01*
X63597420Y-96481785D01*
X63662401Y-96413409D01*
X63666599Y-96409005D01*
X63736493Y-96335611D01*
X63810800Y-96257437D01*
X63884414Y-96179864D01*
X63952229Y-96108275D01*
X64009140Y-96048051D01*
X64021832Y-96034587D01*
X64070487Y-95983820D01*
X64113709Y-95940375D01*
X64148395Y-95907241D01*
X64171444Y-95887405D01*
X64179182Y-95883046D01*
X64190722Y-95892170D01*
X64217710Y-95917200D01*
X64258021Y-95956052D01*
X64309529Y-96006643D01*
X64370109Y-96066888D01*
X64437636Y-96134704D01*
X64492826Y-96190565D01*
X64793724Y-96496129D01*
X64972021Y-96496129D01*
X64961751Y-96484411D01*
X64940471Y-96457599D01*
X64929251Y-96439808D01*
X64926754Y-96431570D01*
X64927700Y-96413590D01*
X64930573Y-96372892D01*
X64935187Y-96311819D01*
X64941358Y-96232713D01*
X64948898Y-96137914D01*
X64957621Y-96029767D01*
X64967343Y-95910612D01*
X64977876Y-95782791D01*
X64986365Y-95680635D01*
X65034396Y-95104674D01*
X64910805Y-95104674D01*
X64910273Y-95117104D01*
X64907769Y-95152110D01*
X64903496Y-95207215D01*
X64897653Y-95279943D01*
X64890443Y-95367814D01*
X64882066Y-95468351D01*
X64872723Y-95579077D01*
X64863758Y-95684205D01*
X64853602Y-95803483D01*
X64844142Y-95916080D01*
X64835596Y-96019305D01*
X64828179Y-96110473D01*
X64822108Y-96186895D01*
X64817601Y-96245883D01*
X64814873Y-96284749D01*
X64814116Y-96299844D01*
X64812935Y-96309238D01*
X64808256Y-96312966D01*
X64798276Y-96309471D01*
X64781190Y-96297199D01*
X64755196Y-96274594D01*
X64718490Y-96240100D01*
X64669267Y-96192162D01*
X64605726Y-96129224D01*
X64538305Y-96061968D01*
X64262601Y-95786477D01*
X64264533Y-95784406D01*
X64082290Y-95784406D01*
X64073984Y-95795780D01*
X64050733Y-95822563D01*
X64014865Y-95862292D01*
X63968713Y-95912507D01*
X63914606Y-95970746D01*
X63854874Y-96034547D01*
X63791848Y-96101449D01*
X63727858Y-96168990D01*
X63665236Y-96234710D01*
X63606310Y-96296146D01*
X63553412Y-96350837D01*
X63508872Y-96396322D01*
X63475020Y-96430138D01*
X63454188Y-96449826D01*
X63448506Y-96453837D01*
X63446634Y-96440891D01*
X63442746Y-96405134D01*
X63437057Y-96348804D01*
X63429781Y-96274140D01*
X63421131Y-96183380D01*
X63411322Y-96078762D01*
X63400566Y-95962526D01*
X63389079Y-95836908D01*
X63379907Y-95735618D01*
X63368174Y-95604279D01*
X63357335Y-95480552D01*
X63347570Y-95366681D01*
X63339063Y-95264911D01*
X63331995Y-95177487D01*
X63326549Y-95106653D01*
X63322908Y-95054653D01*
X63321253Y-95023732D01*
X63321442Y-95015703D01*
X63331334Y-95022854D01*
X63356524Y-95045841D01*
X63394810Y-95082439D01*
X63443989Y-95130422D01*
X63501861Y-95187566D01*
X63566222Y-95251647D01*
X63634871Y-95320438D01*
X63705605Y-95391716D01*
X63776222Y-95463255D01*
X63844520Y-95532830D01*
X63908296Y-95598217D01*
X63965350Y-95657191D01*
X64013478Y-95707527D01*
X64050478Y-95746999D01*
X64074148Y-95773383D01*
X64082290Y-95784406D01*
X64264533Y-95784406D01*
X64365409Y-95676295D01*
X64417768Y-95620377D01*
X64476535Y-95557948D01*
X64539385Y-95491443D01*
X64603995Y-95423298D01*
X64668042Y-95355948D01*
X64729203Y-95291828D01*
X64785153Y-95233372D01*
X64833570Y-95183018D01*
X64872130Y-95143198D01*
X64898509Y-95116350D01*
X64910384Y-95104908D01*
X64910805Y-95104674D01*
X65034396Y-95104674D01*
X65046401Y-94960726D01*
X65646938Y-94329158D01*
X66247475Y-93697589D01*
X66247034Y-93609315D01*
X66246592Y-93521040D01*
X66149583Y-93624666D01*
X66095291Y-93682463D01*
X66031192Y-93750368D01*
X65959016Y-93826572D01*
X65880492Y-93909269D01*
X65797349Y-93996653D01*
X65711319Y-94086915D01*
X65624130Y-94178250D01*
X65537513Y-94268849D01*
X65453197Y-94356907D01*
X65372912Y-94440615D01*
X65298387Y-94518167D01*
X65231354Y-94587757D01*
X65173541Y-94647576D01*
X65126679Y-94695818D01*
X65092496Y-94730676D01*
X65072724Y-94750343D01*
X65068390Y-94754116D01*
X65068092Y-94740992D01*
X65069731Y-94707389D01*
X65073023Y-94657880D01*
X65077682Y-94597037D01*
X65079682Y-94572732D01*
X65094577Y-94394951D01*
X64977955Y-94394951D01*
X64971934Y-94423243D01*
X64968863Y-94445618D01*
X64964548Y-94487717D01*
X64959488Y-94544178D01*
X64954181Y-94609635D01*
X64952344Y-94633862D01*
X64946927Y-94703421D01*
X64941459Y-94768018D01*
X64936488Y-94821548D01*
X64932561Y-94857910D01*
X64931675Y-94864509D01*
X64928334Y-94878056D01*
X64921101Y-94893914D01*
X64908440Y-94913861D01*
X64888811Y-94939673D01*
X64860678Y-94973129D01*
X64822502Y-95016007D01*
X64772746Y-95070083D01*
X64709871Y-95137136D01*
X64632341Y-95218943D01*
X64553251Y-95301950D01*
X64474564Y-95384094D01*
X64401112Y-95460169D01*
X64334724Y-95528325D01*
X64277227Y-95586712D01*
X64230451Y-95633481D01*
X64196224Y-95666782D01*
X64176373Y-95684767D01*
X64172140Y-95687442D01*
X64161003Y-95677741D01*
X64134971Y-95652441D01*
X64096570Y-95614082D01*
X64048328Y-95565200D01*
X63992770Y-95508334D01*
X63952592Y-95466906D01*
X63742831Y-95250000D01*
X64361337Y-95250000D01*
X64361337Y-95011089D01*
X63606881Y-95011089D01*
X63606881Y-95117542D01*
X63468565Y-94979654D01*
X63370447Y-94881840D01*
X63179357Y-94881840D01*
X63177529Y-94897270D01*
X63168277Y-94905867D01*
X63145950Y-94909613D01*
X63104895Y-94910489D01*
X63097624Y-94910495D01*
X63015891Y-94910495D01*
X63015891Y-94691172D01*
X63097624Y-94772179D01*
X63143730Y-94821428D01*
X63171306Y-94859159D01*
X63179357Y-94881840D01*
X63370447Y-94881840D01*
X63330248Y-94841766D01*
X63330248Y-94718952D01*
X63329863Y-94662450D01*
X63328100Y-94626505D01*
X63324050Y-94606530D01*
X63316801Y-94597937D01*
X63305870Y-94596139D01*
X63293712Y-94593498D01*
X63284727Y-94582912D01*
X63277826Y-94560381D01*
X63271924Y-94521909D01*
X63265935Y-94463498D01*
X63264013Y-94442104D01*
X63259852Y-94394951D01*
X64977955Y-94394951D01*
X65094577Y-94394951D01*
X65254109Y-94394951D01*
X65254109Y-94281782D01*
X65186314Y-94281782D01*
X65146662Y-94280696D01*
X65125116Y-94275454D01*
X65122480Y-94272334D01*
X64983616Y-94272334D01*
X64976308Y-94279462D01*
X64950993Y-94281662D01*
X64933908Y-94281782D01*
X64876881Y-94281782D01*
X64664221Y-94281782D01*
X63249698Y-94281782D01*
X63297542Y-94232786D01*
X63371850Y-94172324D01*
X63463816Y-94125691D01*
X63574998Y-94092249D01*
X63685471Y-94073753D01*
X63757773Y-94065122D01*
X63757773Y-94156040D01*
X64336188Y-94156040D01*
X64336188Y-94052893D01*
X64421065Y-94061496D01*
X64480368Y-94068756D01*
X64543551Y-94078379D01*
X64581386Y-94085252D01*
X64656832Y-94100407D01*
X64660526Y-94191095D01*
X64664221Y-94281782D01*
X64876881Y-94281782D01*
X64876881Y-94231485D01*
X64878544Y-94199976D01*
X64882697Y-94182463D01*
X64884371Y-94181188D01*
X64902987Y-94189254D01*
X64930183Y-94208820D01*
X64957448Y-94232944D01*
X64976267Y-94254682D01*
X64977943Y-94257508D01*
X64983616Y-94272334D01*
X65122480Y-94272334D01*
X65114662Y-94263081D01*
X65110442Y-94249604D01*
X65093219Y-94214627D01*
X65060138Y-94172579D01*
X65016893Y-94129356D01*
X64969174Y-94090854D01*
X64937830Y-94070801D01*
X64902123Y-94048851D01*
X64883819Y-94030411D01*
X64877388Y-94008668D01*
X64876894Y-93995718D01*
X64876894Y-93992575D01*
X64235594Y-93992575D01*
X64235594Y-94055446D01*
X63858367Y-94055446D01*
X63858367Y-93992575D01*
X64235594Y-93992575D01*
X64876894Y-93992575D01*
X64876881Y-93954852D01*
X64771048Y-93954852D01*
X64722355Y-93956029D01*
X64684405Y-93959165D01*
X64663308Y-93963671D01*
X64661023Y-93965495D01*
X64647641Y-93968295D01*
X64615074Y-93967148D01*
X64568916Y-93962393D01*
X64537376Y-93958003D01*
X64480188Y-93949378D01*
X64427886Y-93941591D01*
X64388582Y-93935847D01*
X64377055Y-93934215D01*
X64346937Y-93924888D01*
X64336188Y-93910272D01*
X64332920Y-93904320D01*
X64321230Y-93899778D01*
X64298288Y-93896470D01*
X64261265Y-93894215D01*
X64207332Y-93892834D01*
X64133660Y-93892150D01*
X64046980Y-93891980D01*
X63954471Y-93892077D01*
X63884094Y-93892530D01*
X63832836Y-93893590D01*
X63797680Y-93895503D01*
X63775611Y-93898519D01*
X63763615Y-93902885D01*
X63758676Y-93908849D01*
X63757773Y-93915784D01*
X63750079Y-93937795D01*
X63724879Y-93950321D01*
X63678991Y-93954788D01*
X63670736Y-93954852D01*
X63593027Y-93962868D01*
X63504767Y-93984936D01*
X63413915Y-94018084D01*
X63328430Y-94059339D01*
X63256274Y-94105731D01*
X63246928Y-94113082D01*
X63216467Y-94136998D01*
X63198428Y-94146576D01*
X63185831Y-94143480D01*
X63172900Y-94130704D01*
X63134707Y-94105678D01*
X63085002Y-94096071D01*
X63031476Y-94101067D01*
X62981822Y-94119851D01*
X62943733Y-94151606D01*
X62940975Y-94155297D01*
X62912474Y-94214575D01*
X62907172Y-94275934D01*
X62924482Y-94334427D01*
X62963820Y-94385104D01*
X62968630Y-94389289D01*
X62996560Y-94409167D01*
X63024898Y-94417921D01*
X63064737Y-94418553D01*
X63074689Y-94417992D01*
X63113668Y-94416562D01*
X63133746Y-94419839D01*
X63141015Y-94429728D01*
X63141760Y-94438961D01*
X63143284Y-94465744D01*
X63147065Y-94506025D01*
X63149782Y-94530124D01*
X63153723Y-94568401D01*
X63152084Y-94587996D01*
X63142579Y-94595158D01*
X63125649Y-94596139D01*
X63115608Y-94592901D01*
X63099410Y-94582420D01*
X63075855Y-94563548D01*
X63043743Y-94535135D01*
X63001872Y-94496035D01*
X62949043Y-94445097D01*
X62884055Y-94381173D01*
X62805709Y-94303114D01*
X62712803Y-94209772D01*
X62604137Y-94099998D01*
X62551769Y-94046952D01*
X62009951Y-93497767D01*
X62010570Y-93584848D01*
X62010570Y-93584848D01*
G37*
X62010570Y-93584848D02*
X62011189Y-93671931D01*
X62462914Y-94130891D01*
X62914639Y-94589852D01*
X62914968Y-94800471D01*
X62915297Y-95011089D01*
X63190390Y-95011089D01*
X63197478Y-95064530D01*
X63200162Y-95088888D01*
X63204687Y-95134759D01*
X63210809Y-95199405D01*
X63218288Y-95280091D01*
X63226881Y-95374081D01*
X63236346Y-95478637D01*
X63246442Y-95591025D01*
X63256926Y-95708507D01*
X63267556Y-95828348D01*
X63278091Y-95947811D01*
X63288287Y-96064159D01*
X63297905Y-96174657D01*
X63306700Y-96276569D01*
X63314432Y-96367158D01*
X63320858Y-96443687D01*
X63325737Y-96503421D01*
X63328825Y-96543624D01*
X63329883Y-96561559D01*
X63329882Y-96561644D01*
X63322173Y-96576035D01*
X63299019Y-96605748D01*
X63260105Y-96651131D01*
X63205116Y-96712529D01*
X63133736Y-96790288D01*
X63045651Y-96884754D01*
X62940546Y-96996272D01*
X62818105Y-97125188D01*
X62783690Y-97161287D01*
X62237863Y-97733416D01*
X62326119Y-97821436D01*
X62397515Y-97743758D01*
X62423634Y-97715686D01*
X62464434Y-97672274D01*
X62517223Y-97616366D01*
X62579309Y-97550808D01*
X62648000Y-97478441D01*
X62720604Y-97402112D01*
X62764040Y-97356524D01*
X62845584Y-97271119D01*
X62911496Y-97202710D01*
X62963456Y-97150053D01*
X63003145Y-97111905D01*
X63032243Y-97087020D01*
X63052431Y-97074156D01*
X63065390Y-97072068D01*
X63072800Y-97079513D01*
X63076342Y-97095246D01*
X63077697Y-97118023D01*
X63077879Y-97124239D01*
X63087297Y-97167061D01*
X63110503Y-97218819D01*
X63142864Y-97271328D01*
X63179748Y-97316403D01*
X63194507Y-97330328D01*
X63270233Y-97379047D01*
X63358692Y-97406306D01*
X63436900Y-97412773D01*
X63525532Y-97400576D01*
X63607388Y-97364813D01*
X63679836Y-97306722D01*
X63693203Y-97292262D01*
X63742082Y-97236733D01*
X64587674Y-97236733D01*
X64587674Y-97412773D01*
X64814010Y-97412773D01*
X64814010Y-97330531D01*
X64816850Y-97274386D01*
X64826393Y-97235416D01*
X64837991Y-97214219D01*
X64846277Y-97199052D01*
X64853373Y-97177062D01*
X64859748Y-97144987D01*
X64865872Y-97099569D01*
X64872216Y-97037548D01*
X64879250Y-96955662D01*
X64884066Y-96894746D01*
X64906161Y-96609343D01*
X65448565Y-97158805D01*
X65546637Y-97258228D01*
X65640784Y-97353815D01*
X65729285Y-97443810D01*
X65810420Y-97526457D01*
X65882469Y-97600001D01*
X65943712Y-97662684D01*
X65992427Y-97712752D01*
X66026896Y-97748448D01*
X66045379Y-97767995D01*
X66075743Y-97798944D01*
X66101071Y-97820530D01*
X66114695Y-97827723D01*
X66132095Y-97819297D01*
X66157460Y-97798245D01*
X66166058Y-97789671D01*
X66202514Y-97751620D01*
X66001802Y-97547658D01*
X65950596Y-97495699D01*
X65884569Y-97428820D01*
X65806618Y-97349950D01*
X65719638Y-97262014D01*
X65626526Y-97167941D01*
X65530179Y-97070658D01*
X65433492Y-96973093D01*
X65364134Y-96903145D01*
X65258703Y-96796550D01*
X65170129Y-96706307D01*
X65097281Y-96631192D01*
X65039023Y-96569986D01*
X64994225Y-96521466D01*
X64972021Y-96496129D01*
X64793724Y-96496129D01*
X64771401Y-96781555D01*
X64764669Y-96865219D01*
X64758157Y-96941727D01*
X64752234Y-97007081D01*
X64747268Y-97057281D01*
X64743629Y-97088329D01*
X64742458Y-97095273D01*
X64735838Y-97123565D01*
X63786364Y-97123565D01*
X63780026Y-97044606D01*
X63760890Y-96951315D01*
X63720846Y-96868791D01*
X63662418Y-96800038D01*
X63588129Y-96748063D01*
X63504748Y-96716863D01*
X63477698Y-96702228D01*
X63464156Y-96670819D01*
X63463872Y-96669434D01*
X63462247Y-96656174D01*
X63464256Y-96642595D01*
X63471858Y-96626181D01*
X63487016Y-96604411D01*
X63511688Y-96574767D01*
X63547836Y-96534732D01*
X63597420Y-96481785D01*
X63662401Y-96413409D01*
X63666599Y-96409005D01*
X63736493Y-96335611D01*
X63810800Y-96257437D01*
X63884414Y-96179864D01*
X63952229Y-96108275D01*
X64009140Y-96048051D01*
X64021832Y-96034587D01*
X64070487Y-95983820D01*
X64113709Y-95940375D01*
X64148395Y-95907241D01*
X64171444Y-95887405D01*
X64179182Y-95883046D01*
X64190722Y-95892170D01*
X64217710Y-95917200D01*
X64258021Y-95956052D01*
X64309529Y-96006643D01*
X64370109Y-96066888D01*
X64437636Y-96134704D01*
X64492826Y-96190565D01*
X64793724Y-96496129D01*
X64972021Y-96496129D01*
X64961751Y-96484411D01*
X64940471Y-96457599D01*
X64929251Y-96439808D01*
X64926754Y-96431570D01*
X64927700Y-96413590D01*
X64930573Y-96372892D01*
X64935187Y-96311819D01*
X64941358Y-96232713D01*
X64948898Y-96137914D01*
X64957621Y-96029767D01*
X64967343Y-95910612D01*
X64977876Y-95782791D01*
X64986365Y-95680635D01*
X65034396Y-95104674D01*
X64910805Y-95104674D01*
X64910273Y-95117104D01*
X64907769Y-95152110D01*
X64903496Y-95207215D01*
X64897653Y-95279943D01*
X64890443Y-95367814D01*
X64882066Y-95468351D01*
X64872723Y-95579077D01*
X64863758Y-95684205D01*
X64853602Y-95803483D01*
X64844142Y-95916080D01*
X64835596Y-96019305D01*
X64828179Y-96110473D01*
X64822108Y-96186895D01*
X64817601Y-96245883D01*
X64814873Y-96284749D01*
X64814116Y-96299844D01*
X64812935Y-96309238D01*
X64808256Y-96312966D01*
X64798276Y-96309471D01*
X64781190Y-96297199D01*
X64755196Y-96274594D01*
X64718490Y-96240100D01*
X64669267Y-96192162D01*
X64605726Y-96129224D01*
X64538305Y-96061968D01*
X64262601Y-95786477D01*
X64264533Y-95784406D01*
X64082290Y-95784406D01*
X64073984Y-95795780D01*
X64050733Y-95822563D01*
X64014865Y-95862292D01*
X63968713Y-95912507D01*
X63914606Y-95970746D01*
X63854874Y-96034547D01*
X63791848Y-96101449D01*
X63727858Y-96168990D01*
X63665236Y-96234710D01*
X63606310Y-96296146D01*
X63553412Y-96350837D01*
X63508872Y-96396322D01*
X63475020Y-96430138D01*
X63454188Y-96449826D01*
X63448506Y-96453837D01*
X63446634Y-96440891D01*
X63442746Y-96405134D01*
X63437057Y-96348804D01*
X63429781Y-96274140D01*
X63421131Y-96183380D01*
X63411322Y-96078762D01*
X63400566Y-95962526D01*
X63389079Y-95836908D01*
X63379907Y-95735618D01*
X63368174Y-95604279D01*
X63357335Y-95480552D01*
X63347570Y-95366681D01*
X63339063Y-95264911D01*
X63331995Y-95177487D01*
X63326549Y-95106653D01*
X63322908Y-95054653D01*
X63321253Y-95023732D01*
X63321442Y-95015703D01*
X63331334Y-95022854D01*
X63356524Y-95045841D01*
X63394810Y-95082439D01*
X63443989Y-95130422D01*
X63501861Y-95187566D01*
X63566222Y-95251647D01*
X63634871Y-95320438D01*
X63705605Y-95391716D01*
X63776222Y-95463255D01*
X63844520Y-95532830D01*
X63908296Y-95598217D01*
X63965350Y-95657191D01*
X64013478Y-95707527D01*
X64050478Y-95746999D01*
X64074148Y-95773383D01*
X64082290Y-95784406D01*
X64264533Y-95784406D01*
X64365409Y-95676295D01*
X64417768Y-95620377D01*
X64476535Y-95557948D01*
X64539385Y-95491443D01*
X64603995Y-95423298D01*
X64668042Y-95355948D01*
X64729203Y-95291828D01*
X64785153Y-95233372D01*
X64833570Y-95183018D01*
X64872130Y-95143198D01*
X64898509Y-95116350D01*
X64910384Y-95104908D01*
X64910805Y-95104674D01*
X65034396Y-95104674D01*
X65046401Y-94960726D01*
X65646938Y-94329158D01*
X66247475Y-93697589D01*
X66247034Y-93609315D01*
X66246592Y-93521040D01*
X66149583Y-93624666D01*
X66095291Y-93682463D01*
X66031192Y-93750368D01*
X65959016Y-93826572D01*
X65880492Y-93909269D01*
X65797349Y-93996653D01*
X65711319Y-94086915D01*
X65624130Y-94178250D01*
X65537513Y-94268849D01*
X65453197Y-94356907D01*
X65372912Y-94440615D01*
X65298387Y-94518167D01*
X65231354Y-94587757D01*
X65173541Y-94647576D01*
X65126679Y-94695818D01*
X65092496Y-94730676D01*
X65072724Y-94750343D01*
X65068390Y-94754116D01*
X65068092Y-94740992D01*
X65069731Y-94707389D01*
X65073023Y-94657880D01*
X65077682Y-94597037D01*
X65079682Y-94572732D01*
X65094577Y-94394951D01*
X64977955Y-94394951D01*
X64971934Y-94423243D01*
X64968863Y-94445618D01*
X64964548Y-94487717D01*
X64959488Y-94544178D01*
X64954181Y-94609635D01*
X64952344Y-94633862D01*
X64946927Y-94703421D01*
X64941459Y-94768018D01*
X64936488Y-94821548D01*
X64932561Y-94857910D01*
X64931675Y-94864509D01*
X64928334Y-94878056D01*
X64921101Y-94893914D01*
X64908440Y-94913861D01*
X64888811Y-94939673D01*
X64860678Y-94973129D01*
X64822502Y-95016007D01*
X64772746Y-95070083D01*
X64709871Y-95137136D01*
X64632341Y-95218943D01*
X64553251Y-95301950D01*
X64474564Y-95384094D01*
X64401112Y-95460169D01*
X64334724Y-95528325D01*
X64277227Y-95586712D01*
X64230451Y-95633481D01*
X64196224Y-95666782D01*
X64176373Y-95684767D01*
X64172140Y-95687442D01*
X64161003Y-95677741D01*
X64134971Y-95652441D01*
X64096570Y-95614082D01*
X64048328Y-95565200D01*
X63992770Y-95508334D01*
X63952592Y-95466906D01*
X63742831Y-95250000D01*
X64361337Y-95250000D01*
X64361337Y-95011089D01*
X63606881Y-95011089D01*
X63606881Y-95117542D01*
X63468565Y-94979654D01*
X63370447Y-94881840D01*
X63179357Y-94881840D01*
X63177529Y-94897270D01*
X63168277Y-94905867D01*
X63145950Y-94909613D01*
X63104895Y-94910489D01*
X63097624Y-94910495D01*
X63015891Y-94910495D01*
X63015891Y-94691172D01*
X63097624Y-94772179D01*
X63143730Y-94821428D01*
X63171306Y-94859159D01*
X63179357Y-94881840D01*
X63370447Y-94881840D01*
X63330248Y-94841766D01*
X63330248Y-94718952D01*
X63329863Y-94662450D01*
X63328100Y-94626505D01*
X63324050Y-94606530D01*
X63316801Y-94597937D01*
X63305870Y-94596139D01*
X63293712Y-94593498D01*
X63284727Y-94582912D01*
X63277826Y-94560381D01*
X63271924Y-94521909D01*
X63265935Y-94463498D01*
X63264013Y-94442104D01*
X63259852Y-94394951D01*
X64977955Y-94394951D01*
X65094577Y-94394951D01*
X65254109Y-94394951D01*
X65254109Y-94281782D01*
X65186314Y-94281782D01*
X65146662Y-94280696D01*
X65125116Y-94275454D01*
X65122480Y-94272334D01*
X64983616Y-94272334D01*
X64976308Y-94279462D01*
X64950993Y-94281662D01*
X64933908Y-94281782D01*
X64876881Y-94281782D01*
X64664221Y-94281782D01*
X63249698Y-94281782D01*
X63297542Y-94232786D01*
X63371850Y-94172324D01*
X63463816Y-94125691D01*
X63574998Y-94092249D01*
X63685471Y-94073753D01*
X63757773Y-94065122D01*
X63757773Y-94156040D01*
X64336188Y-94156040D01*
X64336188Y-94052893D01*
X64421065Y-94061496D01*
X64480368Y-94068756D01*
X64543551Y-94078379D01*
X64581386Y-94085252D01*
X64656832Y-94100407D01*
X64660526Y-94191095D01*
X64664221Y-94281782D01*
X64876881Y-94281782D01*
X64876881Y-94231485D01*
X64878544Y-94199976D01*
X64882697Y-94182463D01*
X64884371Y-94181188D01*
X64902987Y-94189254D01*
X64930183Y-94208820D01*
X64957448Y-94232944D01*
X64976267Y-94254682D01*
X64977943Y-94257508D01*
X64983616Y-94272334D01*
X65122480Y-94272334D01*
X65114662Y-94263081D01*
X65110442Y-94249604D01*
X65093219Y-94214627D01*
X65060138Y-94172579D01*
X65016893Y-94129356D01*
X64969174Y-94090854D01*
X64937830Y-94070801D01*
X64902123Y-94048851D01*
X64883819Y-94030411D01*
X64877388Y-94008668D01*
X64876894Y-93995718D01*
X64876894Y-93992575D01*
X64235594Y-93992575D01*
X64235594Y-94055446D01*
X63858367Y-94055446D01*
X63858367Y-93992575D01*
X64235594Y-93992575D01*
X64876894Y-93992575D01*
X64876881Y-93954852D01*
X64771048Y-93954852D01*
X64722355Y-93956029D01*
X64684405Y-93959165D01*
X64663308Y-93963671D01*
X64661023Y-93965495D01*
X64647641Y-93968295D01*
X64615074Y-93967148D01*
X64568916Y-93962393D01*
X64537376Y-93958003D01*
X64480188Y-93949378D01*
X64427886Y-93941591D01*
X64388582Y-93935847D01*
X64377055Y-93934215D01*
X64346937Y-93924888D01*
X64336188Y-93910272D01*
X64332920Y-93904320D01*
X64321230Y-93899778D01*
X64298288Y-93896470D01*
X64261265Y-93894215D01*
X64207332Y-93892834D01*
X64133660Y-93892150D01*
X64046980Y-93891980D01*
X63954471Y-93892077D01*
X63884094Y-93892530D01*
X63832836Y-93893590D01*
X63797680Y-93895503D01*
X63775611Y-93898519D01*
X63763615Y-93902885D01*
X63758676Y-93908849D01*
X63757773Y-93915784D01*
X63750079Y-93937795D01*
X63724879Y-93950321D01*
X63678991Y-93954788D01*
X63670736Y-93954852D01*
X63593027Y-93962868D01*
X63504767Y-93984936D01*
X63413915Y-94018084D01*
X63328430Y-94059339D01*
X63256274Y-94105731D01*
X63246928Y-94113082D01*
X63216467Y-94136998D01*
X63198428Y-94146576D01*
X63185831Y-94143480D01*
X63172900Y-94130704D01*
X63134707Y-94105678D01*
X63085002Y-94096071D01*
X63031476Y-94101067D01*
X62981822Y-94119851D01*
X62943733Y-94151606D01*
X62940975Y-94155297D01*
X62912474Y-94214575D01*
X62907172Y-94275934D01*
X62924482Y-94334427D01*
X62963820Y-94385104D01*
X62968630Y-94389289D01*
X62996560Y-94409167D01*
X63024898Y-94417921D01*
X63064737Y-94418553D01*
X63074689Y-94417992D01*
X63113668Y-94416562D01*
X63133746Y-94419839D01*
X63141015Y-94429728D01*
X63141760Y-94438961D01*
X63143284Y-94465744D01*
X63147065Y-94506025D01*
X63149782Y-94530124D01*
X63153723Y-94568401D01*
X63152084Y-94587996D01*
X63142579Y-94595158D01*
X63125649Y-94596139D01*
X63115608Y-94592901D01*
X63099410Y-94582420D01*
X63075855Y-94563548D01*
X63043743Y-94535135D01*
X63001872Y-94496035D01*
X62949043Y-94445097D01*
X62884055Y-94381173D01*
X62805709Y-94303114D01*
X62712803Y-94209772D01*
X62604137Y-94099998D01*
X62551769Y-94046952D01*
X62009951Y-93497767D01*
X62010570Y-93584848D01*
G04 #@! TD*
M02*
