G04 #@! TF.GenerationSoftware,KiCad,Pcbnew,(5.0.1)-4*
G04 #@! TF.CreationDate,2018-11-25T16:05:00+01:00*
G04 #@! TF.ProjectId,Flips6,466C697073362E6B696361645F706362,V1.0*
G04 #@! TF.SameCoordinates,Original*
G04 #@! TF.FileFunction,Legend,Top*
G04 #@! TF.FilePolarity,Positive*
%FSLAX46Y46*%
G04 Gerber Fmt 4.6, Leading zero omitted, Abs format (unit mm)*
G04 Created by KiCad (PCBNEW (5.0.1)-4) date 25.11.2018 16:05:00*
%MOMM*%
%LPD*%
G01*
G04 APERTURE LIST*
%ADD10C,0.100000*%
%ADD11C,0.150000*%
%ADD12C,0.300000*%
%ADD13C,0.250000*%
%ADD14C,0.200000*%
%ADD15C,0.120000*%
%ADD16C,0.010000*%
G04 APERTURE END LIST*
D10*
X139446000Y-61214000D02*
X139446000Y-61976000D01*
X139446000Y-61214000D02*
X141732000Y-61214000D01*
X148844000Y-61214000D02*
X148844000Y-69596000D01*
X144018000Y-61214000D02*
X148844000Y-61214000D01*
X144018000Y-62992000D02*
X144018000Y-61214000D01*
X139446000Y-62992000D02*
X144018000Y-62992000D01*
X139446000Y-69596000D02*
X139446000Y-62992000D01*
X148844000Y-69596000D02*
X139446000Y-69596000D01*
D11*
X145448928Y-62033571D02*
X145591785Y-62081190D01*
X145639404Y-62128809D01*
X145687023Y-62224047D01*
X145687023Y-62366904D01*
X145639404Y-62462142D01*
X145591785Y-62509761D01*
X145496547Y-62557380D01*
X145115595Y-62557380D01*
X145115595Y-61557380D01*
X145448928Y-61557380D01*
X145544166Y-61605000D01*
X145591785Y-61652619D01*
X145639404Y-61747857D01*
X145639404Y-61843095D01*
X145591785Y-61938333D01*
X145544166Y-61985952D01*
X145448928Y-62033571D01*
X145115595Y-62033571D01*
X146306071Y-61557380D02*
X146401309Y-61557380D01*
X146496547Y-61605000D01*
X146544166Y-61652619D01*
X146591785Y-61747857D01*
X146639404Y-61938333D01*
X146639404Y-62176428D01*
X146591785Y-62366904D01*
X146544166Y-62462142D01*
X146496547Y-62509761D01*
X146401309Y-62557380D01*
X146306071Y-62557380D01*
X146210833Y-62509761D01*
X146163214Y-62462142D01*
X146115595Y-62366904D01*
X146067976Y-62176428D01*
X146067976Y-61938333D01*
X146115595Y-61747857D01*
X146163214Y-61652619D01*
X146210833Y-61605000D01*
X146306071Y-61557380D01*
X145115595Y-64207380D02*
X145115595Y-63207380D01*
X145353690Y-63207380D01*
X145496547Y-63255000D01*
X145591785Y-63350238D01*
X145639404Y-63445476D01*
X145687023Y-63635952D01*
X145687023Y-63778809D01*
X145639404Y-63969285D01*
X145591785Y-64064523D01*
X145496547Y-64159761D01*
X145353690Y-64207380D01*
X145115595Y-64207380D01*
X146067976Y-63921666D02*
X146544166Y-63921666D01*
X145972738Y-64207380D02*
X146306071Y-63207380D01*
X146639404Y-64207380D01*
X146829880Y-63207380D02*
X147401309Y-63207380D01*
X147115595Y-64207380D02*
X147115595Y-63207380D01*
X147687023Y-63921666D02*
X148163214Y-63921666D01*
X147591785Y-64207380D02*
X147925119Y-63207380D01*
X148258452Y-64207380D01*
X145639404Y-64905000D02*
X145544166Y-64857380D01*
X145401309Y-64857380D01*
X145258452Y-64905000D01*
X145163214Y-65000238D01*
X145115595Y-65095476D01*
X145067976Y-65285952D01*
X145067976Y-65428809D01*
X145115595Y-65619285D01*
X145163214Y-65714523D01*
X145258452Y-65809761D01*
X145401309Y-65857380D01*
X145496547Y-65857380D01*
X145639404Y-65809761D01*
X145687023Y-65762142D01*
X145687023Y-65428809D01*
X145496547Y-65428809D01*
X146115595Y-65857380D02*
X146115595Y-64857380D01*
X146687023Y-65857380D01*
X146687023Y-64857380D01*
X147163214Y-65857380D02*
X147163214Y-64857380D01*
X147401309Y-64857380D01*
X147544166Y-64905000D01*
X147639404Y-65000238D01*
X147687023Y-65095476D01*
X147734642Y-65285952D01*
X147734642Y-65428809D01*
X147687023Y-65619285D01*
X147639404Y-65714523D01*
X147544166Y-65809761D01*
X147401309Y-65857380D01*
X147163214Y-65857380D01*
X145067976Y-67221666D02*
X145544166Y-67221666D01*
X144972738Y-67507380D02*
X145306071Y-66507380D01*
X145639404Y-67507380D01*
X146496547Y-67507380D02*
X145925119Y-67507380D01*
X146210833Y-67507380D02*
X146210833Y-66507380D01*
X146115595Y-66650238D01*
X146020357Y-66745476D01*
X145925119Y-66793095D01*
X145067976Y-68871666D02*
X145544166Y-68871666D01*
X144972738Y-69157380D02*
X145306071Y-68157380D01*
X145639404Y-69157380D01*
X145925119Y-68252619D02*
X145972738Y-68205000D01*
X146067976Y-68157380D01*
X146306071Y-68157380D01*
X146401309Y-68205000D01*
X146448928Y-68252619D01*
X146496547Y-68347857D01*
X146496547Y-68443095D01*
X146448928Y-68585952D01*
X145877500Y-69157380D01*
X146496547Y-69157380D01*
X142031547Y-62033571D02*
X142174404Y-62081190D01*
X142222023Y-62128809D01*
X142269642Y-62224047D01*
X142269642Y-62366904D01*
X142222023Y-62462142D01*
X142174404Y-62509761D01*
X142079166Y-62557380D01*
X141698214Y-62557380D01*
X141698214Y-61557380D01*
X142031547Y-61557380D01*
X142126785Y-61605000D01*
X142174404Y-61652619D01*
X142222023Y-61747857D01*
X142222023Y-61843095D01*
X142174404Y-61938333D01*
X142126785Y-61985952D01*
X142031547Y-62033571D01*
X141698214Y-62033571D01*
X143222023Y-62557380D02*
X142650595Y-62557380D01*
X142936309Y-62557380D02*
X142936309Y-61557380D01*
X142841071Y-61700238D01*
X142745833Y-61795476D01*
X142650595Y-61843095D01*
X141698214Y-63683571D02*
X142031547Y-63683571D01*
X142174404Y-64207380D02*
X141698214Y-64207380D01*
X141698214Y-63207380D01*
X142174404Y-63207380D01*
X142602976Y-64207380D02*
X142602976Y-63207380D01*
X143174404Y-64207380D01*
X143174404Y-63207380D01*
X141698214Y-64857380D02*
X142031547Y-65857380D01*
X142364880Y-64857380D01*
X142650595Y-65809761D02*
X142793452Y-65857380D01*
X143031547Y-65857380D01*
X143126785Y-65809761D01*
X143174404Y-65762142D01*
X143222023Y-65666904D01*
X143222023Y-65571666D01*
X143174404Y-65476428D01*
X143126785Y-65428809D01*
X143031547Y-65381190D01*
X142841071Y-65333571D01*
X142745833Y-65285952D01*
X142698214Y-65238333D01*
X142650595Y-65143095D01*
X142650595Y-65047857D01*
X142698214Y-64952619D01*
X142745833Y-64905000D01*
X142841071Y-64857380D01*
X143079166Y-64857380D01*
X143222023Y-64905000D01*
X140650595Y-66507380D02*
X140983928Y-67507380D01*
X141317261Y-66507380D01*
X142222023Y-67412142D02*
X142174404Y-67459761D01*
X142031547Y-67507380D01*
X141936309Y-67507380D01*
X141793452Y-67459761D01*
X141698214Y-67364523D01*
X141650595Y-67269285D01*
X141602976Y-67078809D01*
X141602976Y-66935952D01*
X141650595Y-66745476D01*
X141698214Y-66650238D01*
X141793452Y-66555000D01*
X141936309Y-66507380D01*
X142031547Y-66507380D01*
X142174404Y-66555000D01*
X142222023Y-66602619D01*
X143222023Y-67412142D02*
X143174404Y-67459761D01*
X143031547Y-67507380D01*
X142936309Y-67507380D01*
X142793452Y-67459761D01*
X142698214Y-67364523D01*
X142650595Y-67269285D01*
X142602976Y-67078809D01*
X142602976Y-66935952D01*
X142650595Y-66745476D01*
X142698214Y-66650238D01*
X142793452Y-66555000D01*
X142936309Y-66507380D01*
X143031547Y-66507380D01*
X143174404Y-66555000D01*
X143222023Y-66602619D01*
X141793452Y-68871666D02*
X142269642Y-68871666D01*
X141698214Y-69157380D02*
X142031547Y-68157380D01*
X142364880Y-69157380D01*
X142888690Y-68157380D02*
X142983928Y-68157380D01*
X143079166Y-68205000D01*
X143126785Y-68252619D01*
X143174404Y-68347857D01*
X143222023Y-68538333D01*
X143222023Y-68776428D01*
X143174404Y-68966904D01*
X143126785Y-69062142D01*
X143079166Y-69109761D01*
X142983928Y-69157380D01*
X142888690Y-69157380D01*
X142793452Y-69109761D01*
X142745833Y-69062142D01*
X142698214Y-68966904D01*
X142650595Y-68776428D01*
X142650595Y-68538333D01*
X142698214Y-68347857D01*
X142745833Y-68252619D01*
X142793452Y-68205000D01*
X142888690Y-68157380D01*
D10*
X139700000Y-71120000D02*
X148590000Y-71120000D01*
X149225000Y-71755000D02*
X149225000Y-92075000D01*
X148590000Y-92710000D02*
X139700000Y-92710000D01*
X65278000Y-72898000D02*
X63627000Y-72898000D01*
X65278000Y-71882000D02*
X65278000Y-72898000D01*
X58293000Y-65024000D02*
X58293000Y-72898000D01*
X62103000Y-70866000D02*
X65278000Y-70866000D01*
X62103000Y-70866000D02*
X62103000Y-72898000D01*
X65278000Y-65024000D02*
X65278000Y-70866000D01*
X58293000Y-65024000D02*
X65278000Y-65024000D01*
X62103000Y-72898000D02*
X58293000Y-72898000D01*
D11*
X62894785Y-66746380D02*
X62894785Y-65746380D01*
X63132880Y-65746380D01*
X63275738Y-65794000D01*
X63370976Y-65889238D01*
X63418595Y-65984476D01*
X63466214Y-66174952D01*
X63466214Y-66317809D01*
X63418595Y-66508285D01*
X63370976Y-66603523D01*
X63275738Y-66698761D01*
X63132880Y-66746380D01*
X62894785Y-66746380D01*
X63894785Y-66746380D02*
X63894785Y-65746380D01*
X64370976Y-66746380D02*
X64370976Y-65746380D01*
X64942404Y-66746380D01*
X64942404Y-65746380D01*
X62894785Y-67699000D02*
X62799547Y-67651380D01*
X62656690Y-67651380D01*
X62513833Y-67699000D01*
X62418595Y-67794238D01*
X62370976Y-67889476D01*
X62323357Y-68079952D01*
X62323357Y-68222809D01*
X62370976Y-68413285D01*
X62418595Y-68508523D01*
X62513833Y-68603761D01*
X62656690Y-68651380D01*
X62751928Y-68651380D01*
X62894785Y-68603761D01*
X62942404Y-68556142D01*
X62942404Y-68222809D01*
X62751928Y-68222809D01*
X63370976Y-68651380D02*
X63370976Y-67651380D01*
X63942404Y-68651380D01*
X63942404Y-67651380D01*
X64418595Y-68651380D02*
X64418595Y-67651380D01*
X64656690Y-67651380D01*
X64799547Y-67699000D01*
X64894785Y-67794238D01*
X64942404Y-67889476D01*
X64990023Y-68079952D01*
X64990023Y-68222809D01*
X64942404Y-68413285D01*
X64894785Y-68508523D01*
X64799547Y-68603761D01*
X64656690Y-68651380D01*
X64418595Y-68651380D01*
X63466214Y-69556380D02*
X63799547Y-70556380D01*
X64132880Y-69556380D01*
X64418595Y-70508761D02*
X64561452Y-70556380D01*
X64799547Y-70556380D01*
X64894785Y-70508761D01*
X64942404Y-70461142D01*
X64990023Y-70365904D01*
X64990023Y-70270666D01*
X64942404Y-70175428D01*
X64894785Y-70127809D01*
X64799547Y-70080190D01*
X64609071Y-70032571D01*
X64513833Y-69984952D01*
X64466214Y-69937333D01*
X64418595Y-69842095D01*
X64418595Y-69746857D01*
X64466214Y-69651619D01*
X64513833Y-69604000D01*
X64609071Y-69556380D01*
X64847166Y-69556380D01*
X64990023Y-69604000D01*
X62418595Y-71461380D02*
X62751928Y-72461380D01*
X63085261Y-71461380D01*
X63990023Y-72366142D02*
X63942404Y-72413761D01*
X63799547Y-72461380D01*
X63704309Y-72461380D01*
X63561452Y-72413761D01*
X63466214Y-72318523D01*
X63418595Y-72223285D01*
X63370976Y-72032809D01*
X63370976Y-71889952D01*
X63418595Y-71699476D01*
X63466214Y-71604238D01*
X63561452Y-71509000D01*
X63704309Y-71461380D01*
X63799547Y-71461380D01*
X63942404Y-71509000D01*
X63990023Y-71556619D01*
X64990023Y-72366142D02*
X64942404Y-72413761D01*
X64799547Y-72461380D01*
X64704309Y-72461380D01*
X64561452Y-72413761D01*
X64466214Y-72318523D01*
X64418595Y-72223285D01*
X64370976Y-72032809D01*
X64370976Y-71889952D01*
X64418595Y-71699476D01*
X64466214Y-71604238D01*
X64561452Y-71509000D01*
X64704309Y-71461380D01*
X64799547Y-71461380D01*
X64942404Y-71509000D01*
X64990023Y-71556619D01*
X59200023Y-66651142D02*
X59152404Y-66698761D01*
X59009547Y-66746380D01*
X58914309Y-66746380D01*
X58771452Y-66698761D01*
X58676214Y-66603523D01*
X58628595Y-66508285D01*
X58580976Y-66317809D01*
X58580976Y-66174952D01*
X58628595Y-65984476D01*
X58676214Y-65889238D01*
X58771452Y-65794000D01*
X58914309Y-65746380D01*
X59009547Y-65746380D01*
X59152404Y-65794000D01*
X59200023Y-65841619D01*
X60104785Y-66746380D02*
X59628595Y-66746380D01*
X59628595Y-65746380D01*
X60438119Y-66746380D02*
X60438119Y-65746380D01*
X61009547Y-66746380D02*
X60580976Y-66174952D01*
X61009547Y-65746380D02*
X60438119Y-66317809D01*
X58390500Y-71094000D02*
X59438119Y-71094000D01*
X58819071Y-71461380D02*
X59009547Y-71461380D01*
X59104785Y-71509000D01*
X59200023Y-71604238D01*
X59247642Y-71794714D01*
X59247642Y-72128047D01*
X59200023Y-72318523D01*
X59104785Y-72413761D01*
X59009547Y-72461380D01*
X58819071Y-72461380D01*
X58723833Y-72413761D01*
X58628595Y-72318523D01*
X58580976Y-72128047D01*
X58580976Y-71794714D01*
X58628595Y-71604238D01*
X58723833Y-71509000D01*
X58819071Y-71461380D01*
X59438119Y-71094000D02*
X60342880Y-71094000D01*
X59676214Y-71937571D02*
X60009547Y-71937571D01*
X60152404Y-72461380D02*
X59676214Y-72461380D01*
X59676214Y-71461380D01*
X60152404Y-71461380D01*
X58390500Y-69189000D02*
X59390500Y-69189000D01*
X59200023Y-70556380D02*
X58866690Y-70080190D01*
X58628595Y-70556380D02*
X58628595Y-69556380D01*
X59009547Y-69556380D01*
X59104785Y-69604000D01*
X59152404Y-69651619D01*
X59200023Y-69746857D01*
X59200023Y-69889714D01*
X59152404Y-69984952D01*
X59104785Y-70032571D01*
X59009547Y-70080190D01*
X58628595Y-70080190D01*
X59390500Y-69189000D02*
X60342880Y-69189000D01*
X59580976Y-70508761D02*
X59723833Y-70556380D01*
X59961928Y-70556380D01*
X60057166Y-70508761D01*
X60104785Y-70461142D01*
X60152404Y-70365904D01*
X60152404Y-70270666D01*
X60104785Y-70175428D01*
X60057166Y-70127809D01*
X59961928Y-70080190D01*
X59771452Y-70032571D01*
X59676214Y-69984952D01*
X59628595Y-69937333D01*
X59580976Y-69842095D01*
X59580976Y-69746857D01*
X59628595Y-69651619D01*
X59676214Y-69604000D01*
X59771452Y-69556380D01*
X60009547Y-69556380D01*
X60152404Y-69604000D01*
X60342880Y-69189000D02*
X61104785Y-69189000D01*
X60438119Y-69556380D02*
X61009547Y-69556380D01*
X60723833Y-70556380D02*
X60723833Y-69556380D01*
X59104785Y-68651380D02*
X58628595Y-68651380D01*
X58628595Y-67651380D01*
X59390500Y-68365666D02*
X59866690Y-68365666D01*
X59295261Y-68651380D02*
X59628595Y-67651380D01*
X59961928Y-68651380D01*
X60152404Y-67651380D02*
X60723833Y-67651380D01*
X60438119Y-68651380D02*
X60438119Y-67651380D01*
D12*
X105620714Y-56472142D02*
X105835000Y-56543571D01*
X106192142Y-56543571D01*
X106335000Y-56472142D01*
X106406428Y-56400714D01*
X106477857Y-56257857D01*
X106477857Y-56115000D01*
X106406428Y-55972142D01*
X106335000Y-55900714D01*
X106192142Y-55829285D01*
X105906428Y-55757857D01*
X105763571Y-55686428D01*
X105692142Y-55615000D01*
X105620714Y-55472142D01*
X105620714Y-55329285D01*
X105692142Y-55186428D01*
X105763571Y-55115000D01*
X105906428Y-55043571D01*
X106263571Y-55043571D01*
X106477857Y-55115000D01*
X107692142Y-56472142D02*
X107549285Y-56543571D01*
X107263571Y-56543571D01*
X107120714Y-56472142D01*
X107049285Y-56329285D01*
X107049285Y-55757857D01*
X107120714Y-55615000D01*
X107263571Y-55543571D01*
X107549285Y-55543571D01*
X107692142Y-55615000D01*
X107763571Y-55757857D01*
X107763571Y-55900714D01*
X107049285Y-56043571D01*
X108406428Y-56543571D02*
X108406428Y-55543571D01*
X108406428Y-55829285D02*
X108477857Y-55686428D01*
X108549285Y-55615000D01*
X108692142Y-55543571D01*
X108835000Y-55543571D01*
X109335000Y-56543571D02*
X109335000Y-55543571D01*
X109335000Y-55043571D02*
X109263571Y-55115000D01*
X109335000Y-55186428D01*
X109406428Y-55115000D01*
X109335000Y-55043571D01*
X109335000Y-55186428D01*
X110692142Y-56543571D02*
X110692142Y-55757857D01*
X110620714Y-55615000D01*
X110477857Y-55543571D01*
X110192142Y-55543571D01*
X110049285Y-55615000D01*
X110692142Y-56472142D02*
X110549285Y-56543571D01*
X110192142Y-56543571D01*
X110049285Y-56472142D01*
X109977857Y-56329285D01*
X109977857Y-56186428D01*
X110049285Y-56043571D01*
X110192142Y-55972142D01*
X110549285Y-55972142D01*
X110692142Y-55900714D01*
X111620714Y-56543571D02*
X111477857Y-56472142D01*
X111406428Y-56329285D01*
X111406428Y-55043571D01*
X106513571Y-57736428D02*
X106585000Y-57665000D01*
X106727857Y-57593571D01*
X107085000Y-57593571D01*
X107227857Y-57665000D01*
X107299285Y-57736428D01*
X107370714Y-57879285D01*
X107370714Y-58022142D01*
X107299285Y-58236428D01*
X106442142Y-59093571D01*
X107370714Y-59093571D01*
X108013571Y-58522142D02*
X109156428Y-58522142D01*
X108585000Y-59093571D02*
X108585000Y-57950714D01*
X110513571Y-57593571D02*
X110227857Y-57593571D01*
X110085000Y-57665000D01*
X110013571Y-57736428D01*
X109870714Y-57950714D01*
X109799285Y-58236428D01*
X109799285Y-58807857D01*
X109870714Y-58950714D01*
X109942142Y-59022142D01*
X110085000Y-59093571D01*
X110370714Y-59093571D01*
X110513571Y-59022142D01*
X110585000Y-58950714D01*
X110656428Y-58807857D01*
X110656428Y-58450714D01*
X110585000Y-58307857D01*
X110513571Y-58236428D01*
X110370714Y-58165000D01*
X110085000Y-58165000D01*
X109942142Y-58236428D01*
X109870714Y-58307857D01*
X109799285Y-58450714D01*
X104549285Y-60857857D02*
X104049285Y-60857857D01*
X104049285Y-61643571D02*
X104049285Y-60143571D01*
X104763571Y-60143571D01*
X105335000Y-61643571D02*
X105335000Y-60143571D01*
X105906428Y-60143571D01*
X106049285Y-60215000D01*
X106120714Y-60286428D01*
X106192142Y-60429285D01*
X106192142Y-60643571D01*
X106120714Y-60786428D01*
X106049285Y-60857857D01*
X105906428Y-60929285D01*
X105335000Y-60929285D01*
X106763571Y-60286428D02*
X106835000Y-60215000D01*
X106977857Y-60143571D01*
X107335000Y-60143571D01*
X107477857Y-60215000D01*
X107549285Y-60286428D01*
X107620714Y-60429285D01*
X107620714Y-60572142D01*
X107549285Y-60786428D01*
X106692142Y-61643571D01*
X107620714Y-61643571D01*
X108477857Y-60786428D02*
X108335000Y-60715000D01*
X108263571Y-60643571D01*
X108192142Y-60500714D01*
X108192142Y-60429285D01*
X108263571Y-60286428D01*
X108335000Y-60215000D01*
X108477857Y-60143571D01*
X108763571Y-60143571D01*
X108906428Y-60215000D01*
X108977857Y-60286428D01*
X109049285Y-60429285D01*
X109049285Y-60500714D01*
X108977857Y-60643571D01*
X108906428Y-60715000D01*
X108763571Y-60786428D01*
X108477857Y-60786428D01*
X108335000Y-60857857D01*
X108263571Y-60929285D01*
X108192142Y-61072142D01*
X108192142Y-61357857D01*
X108263571Y-61500714D01*
X108335000Y-61572142D01*
X108477857Y-61643571D01*
X108763571Y-61643571D01*
X108906428Y-61572142D01*
X108977857Y-61500714D01*
X109049285Y-61357857D01*
X109049285Y-61072142D01*
X108977857Y-60929285D01*
X108906428Y-60857857D01*
X108763571Y-60786428D01*
X109977857Y-60143571D02*
X110120714Y-60143571D01*
X110263571Y-60215000D01*
X110335000Y-60286428D01*
X110406428Y-60429285D01*
X110477857Y-60715000D01*
X110477857Y-61072142D01*
X110406428Y-61357857D01*
X110335000Y-61500714D01*
X110263571Y-61572142D01*
X110120714Y-61643571D01*
X109977857Y-61643571D01*
X109835000Y-61572142D01*
X109763571Y-61500714D01*
X109692142Y-61357857D01*
X109620714Y-61072142D01*
X109620714Y-60715000D01*
X109692142Y-60429285D01*
X109763571Y-60286428D01*
X109835000Y-60215000D01*
X109977857Y-60143571D01*
X111406428Y-60143571D02*
X111549285Y-60143571D01*
X111692142Y-60215000D01*
X111763571Y-60286428D01*
X111835000Y-60429285D01*
X111906428Y-60715000D01*
X111906428Y-61072142D01*
X111835000Y-61357857D01*
X111763571Y-61500714D01*
X111692142Y-61572142D01*
X111549285Y-61643571D01*
X111406428Y-61643571D01*
X111263571Y-61572142D01*
X111192142Y-61500714D01*
X111120714Y-61357857D01*
X111049285Y-61072142D01*
X111049285Y-60715000D01*
X111120714Y-60429285D01*
X111192142Y-60286428D01*
X111263571Y-60215000D01*
X111406428Y-60143571D01*
X112477857Y-61215000D02*
X113192142Y-61215000D01*
X112335000Y-61643571D02*
X112835000Y-60143571D01*
X113335000Y-61643571D01*
X100477857Y-64193571D02*
X100477857Y-62693571D01*
X101049285Y-62693571D01*
X101192142Y-62765000D01*
X101263571Y-62836428D01*
X101335000Y-62979285D01*
X101335000Y-63193571D01*
X101263571Y-63336428D01*
X101192142Y-63407857D01*
X101049285Y-63479285D01*
X100477857Y-63479285D01*
X102192142Y-64193571D02*
X102049285Y-64122142D01*
X101977857Y-64050714D01*
X101906428Y-63907857D01*
X101906428Y-63479285D01*
X101977857Y-63336428D01*
X102049285Y-63265000D01*
X102192142Y-63193571D01*
X102406428Y-63193571D01*
X102549285Y-63265000D01*
X102620714Y-63336428D01*
X102692142Y-63479285D01*
X102692142Y-63907857D01*
X102620714Y-64050714D01*
X102549285Y-64122142D01*
X102406428Y-64193571D01*
X102192142Y-64193571D01*
X103335000Y-64193571D02*
X103335000Y-63193571D01*
X103335000Y-63479285D02*
X103406428Y-63336428D01*
X103477857Y-63265000D01*
X103620714Y-63193571D01*
X103763571Y-63193571D01*
X104049285Y-63193571D02*
X104620714Y-63193571D01*
X104263571Y-62693571D02*
X104263571Y-63979285D01*
X104335000Y-64122142D01*
X104477857Y-64193571D01*
X104620714Y-64193571D01*
X107120714Y-64050714D02*
X107049285Y-64122142D01*
X106835000Y-64193571D01*
X106692142Y-64193571D01*
X106477857Y-64122142D01*
X106335000Y-63979285D01*
X106263571Y-63836428D01*
X106192142Y-63550714D01*
X106192142Y-63336428D01*
X106263571Y-63050714D01*
X106335000Y-62907857D01*
X106477857Y-62765000D01*
X106692142Y-62693571D01*
X106835000Y-62693571D01*
X107049285Y-62765000D01*
X107120714Y-62836428D01*
X107977857Y-64193571D02*
X107835000Y-64122142D01*
X107763571Y-64050714D01*
X107692142Y-63907857D01*
X107692142Y-63479285D01*
X107763571Y-63336428D01*
X107835000Y-63265000D01*
X107977857Y-63193571D01*
X108192142Y-63193571D01*
X108335000Y-63265000D01*
X108406428Y-63336428D01*
X108477857Y-63479285D01*
X108477857Y-63907857D01*
X108406428Y-64050714D01*
X108335000Y-64122142D01*
X108192142Y-64193571D01*
X107977857Y-64193571D01*
X109120714Y-63193571D02*
X109120714Y-64193571D01*
X109120714Y-63336428D02*
X109192142Y-63265000D01*
X109335000Y-63193571D01*
X109549285Y-63193571D01*
X109692142Y-63265000D01*
X109763571Y-63407857D01*
X109763571Y-64193571D01*
X110263571Y-63193571D02*
X110835000Y-63193571D01*
X110477857Y-62693571D02*
X110477857Y-63979285D01*
X110549285Y-64122142D01*
X110692142Y-64193571D01*
X110835000Y-64193571D01*
X111335000Y-64193571D02*
X111335000Y-63193571D01*
X111335000Y-63479285D02*
X111406428Y-63336428D01*
X111477857Y-63265000D01*
X111620714Y-63193571D01*
X111763571Y-63193571D01*
X112477857Y-64193571D02*
X112335000Y-64122142D01*
X112263571Y-64050714D01*
X112192142Y-63907857D01*
X112192142Y-63479285D01*
X112263571Y-63336428D01*
X112335000Y-63265000D01*
X112477857Y-63193571D01*
X112692142Y-63193571D01*
X112835000Y-63265000D01*
X112906428Y-63336428D01*
X112977857Y-63479285D01*
X112977857Y-63907857D01*
X112906428Y-64050714D01*
X112835000Y-64122142D01*
X112692142Y-64193571D01*
X112477857Y-64193571D01*
X113835000Y-64193571D02*
X113692142Y-64122142D01*
X113620714Y-63979285D01*
X113620714Y-62693571D01*
X114620714Y-64193571D02*
X114477857Y-64122142D01*
X114406428Y-63979285D01*
X114406428Y-62693571D01*
X115763571Y-64122142D02*
X115620714Y-64193571D01*
X115335000Y-64193571D01*
X115192142Y-64122142D01*
X115120714Y-63979285D01*
X115120714Y-63407857D01*
X115192142Y-63265000D01*
X115335000Y-63193571D01*
X115620714Y-63193571D01*
X115763571Y-63265000D01*
X115835000Y-63407857D01*
X115835000Y-63550714D01*
X115120714Y-63693571D01*
X116477857Y-64193571D02*
X116477857Y-63193571D01*
X116477857Y-63479285D02*
X116549285Y-63336428D01*
X116620714Y-63265000D01*
X116763571Y-63193571D01*
X116906428Y-63193571D01*
D13*
X52284285Y-86574523D02*
X52284285Y-86955476D01*
X51617619Y-86717380D02*
X52474761Y-86717380D01*
X52570000Y-86765000D01*
X52617619Y-86860238D01*
X52617619Y-86955476D01*
X51617619Y-87288809D02*
X52284285Y-87288809D01*
X52093809Y-87288809D02*
X52189047Y-87336428D01*
X52236666Y-87384047D01*
X52284285Y-87479285D01*
X52284285Y-87574523D01*
X51617619Y-88050714D02*
X51665238Y-87955476D01*
X51712857Y-87907857D01*
X51808095Y-87860238D01*
X52093809Y-87860238D01*
X52189047Y-87907857D01*
X52236666Y-87955476D01*
X52284285Y-88050714D01*
X52284285Y-88193571D01*
X52236666Y-88288809D01*
X52189047Y-88336428D01*
X52093809Y-88384047D01*
X51808095Y-88384047D01*
X51712857Y-88336428D01*
X51665238Y-88288809D01*
X51617619Y-88193571D01*
X51617619Y-88050714D01*
X52284285Y-88812619D02*
X51617619Y-88812619D01*
X52189047Y-88812619D02*
X52236666Y-88860238D01*
X52284285Y-88955476D01*
X52284285Y-89098333D01*
X52236666Y-89193571D01*
X52141428Y-89241190D01*
X51617619Y-89241190D01*
X52284285Y-89574523D02*
X52284285Y-89955476D01*
X52617619Y-89717380D02*
X51760476Y-89717380D01*
X51665238Y-89765000D01*
X51617619Y-89860238D01*
X51617619Y-89955476D01*
D14*
X108585000Y-95250000D02*
X108585000Y-68580000D01*
X88265000Y-71120000D02*
X98425000Y-71120000D01*
X67945000Y-71120000D02*
X78105000Y-71120000D01*
D10*
X78740000Y-71120000D02*
X87630000Y-71120000D01*
X99060000Y-71120000D02*
X107950000Y-71120000D01*
X109220000Y-71120000D02*
X118110000Y-71120000D01*
X119380000Y-71120000D02*
X128270000Y-71120000D01*
D12*
X69695714Y-97122142D02*
X69910000Y-97193571D01*
X70267142Y-97193571D01*
X70410000Y-97122142D01*
X70481428Y-97050714D01*
X70552857Y-96907857D01*
X70552857Y-96765000D01*
X70481428Y-96622142D01*
X70410000Y-96550714D01*
X70267142Y-96479285D01*
X69981428Y-96407857D01*
X69838571Y-96336428D01*
X69767142Y-96265000D01*
X69695714Y-96122142D01*
X69695714Y-95979285D01*
X69767142Y-95836428D01*
X69838571Y-95765000D01*
X69981428Y-95693571D01*
X70338571Y-95693571D01*
X70552857Y-95765000D01*
X72052857Y-97193571D02*
X71552857Y-96479285D01*
X71195714Y-97193571D02*
X71195714Y-95693571D01*
X71767142Y-95693571D01*
X71910000Y-95765000D01*
X71981428Y-95836428D01*
X72052857Y-95979285D01*
X72052857Y-96193571D01*
X71981428Y-96336428D01*
X71910000Y-96407857D01*
X71767142Y-96479285D01*
X71195714Y-96479285D01*
X72481428Y-95693571D02*
X73338571Y-95693571D01*
X72910000Y-97193571D02*
X72910000Y-95693571D01*
X75481428Y-96407857D02*
X74981428Y-96407857D01*
X74981428Y-97193571D02*
X74981428Y-95693571D01*
X75695714Y-95693571D01*
X76481428Y-97193571D02*
X76338571Y-97122142D01*
X76267142Y-96979285D01*
X76267142Y-95693571D01*
X77052857Y-97193571D02*
X77052857Y-96193571D01*
X77052857Y-95693571D02*
X76981428Y-95765000D01*
X77052857Y-95836428D01*
X77124285Y-95765000D01*
X77052857Y-95693571D01*
X77052857Y-95836428D01*
X77767142Y-96193571D02*
X77767142Y-97693571D01*
X77767142Y-96265000D02*
X77910000Y-96193571D01*
X78195714Y-96193571D01*
X78338571Y-96265000D01*
X78410000Y-96336428D01*
X78481428Y-96479285D01*
X78481428Y-96907857D01*
X78410000Y-97050714D01*
X78338571Y-97122142D01*
X78195714Y-97193571D01*
X77910000Y-97193571D01*
X77767142Y-97122142D01*
X79052857Y-97122142D02*
X79195714Y-97193571D01*
X79481428Y-97193571D01*
X79624285Y-97122142D01*
X79695714Y-96979285D01*
X79695714Y-96907857D01*
X79624285Y-96765000D01*
X79481428Y-96693571D01*
X79267142Y-96693571D01*
X79124285Y-96622142D01*
X79052857Y-96479285D01*
X79052857Y-96407857D01*
X79124285Y-96265000D01*
X79267142Y-96193571D01*
X79481428Y-96193571D01*
X79624285Y-96265000D01*
X82124285Y-95693571D02*
X81838571Y-95693571D01*
X81695714Y-95765000D01*
X81624285Y-95836428D01*
X81481428Y-96050714D01*
X81410000Y-96336428D01*
X81410000Y-96907857D01*
X81481428Y-97050714D01*
X81552857Y-97122142D01*
X81695714Y-97193571D01*
X81981428Y-97193571D01*
X82124285Y-97122142D01*
X82195714Y-97050714D01*
X82267142Y-96907857D01*
X82267142Y-96550714D01*
X82195714Y-96407857D01*
X82124285Y-96336428D01*
X81981428Y-96265000D01*
X81695714Y-96265000D01*
X81552857Y-96336428D01*
X81481428Y-96407857D01*
X81410000Y-96550714D01*
X83838571Y-95693571D02*
X84338571Y-97193571D01*
X84838571Y-95693571D01*
X86124285Y-97193571D02*
X85267142Y-97193571D01*
X85695714Y-97193571D02*
X85695714Y-95693571D01*
X85552857Y-95907857D01*
X85410000Y-96050714D01*
X85267142Y-96122142D01*
X86767142Y-97050714D02*
X86838571Y-97122142D01*
X86767142Y-97193571D01*
X86695714Y-97122142D01*
X86767142Y-97050714D01*
X86767142Y-97193571D01*
X87767142Y-95693571D02*
X87910000Y-95693571D01*
X88052857Y-95765000D01*
X88124285Y-95836428D01*
X88195714Y-95979285D01*
X88267142Y-96265000D01*
X88267142Y-96622142D01*
X88195714Y-96907857D01*
X88124285Y-97050714D01*
X88052857Y-97122142D01*
X87910000Y-97193571D01*
X87767142Y-97193571D01*
X87624285Y-97122142D01*
X87552857Y-97050714D01*
X87481428Y-96907857D01*
X87410000Y-96622142D01*
X87410000Y-96265000D01*
X87481428Y-95979285D01*
X87552857Y-95836428D01*
X87624285Y-95765000D01*
X87767142Y-95693571D01*
X89981428Y-95836428D02*
X90052857Y-95765000D01*
X90195714Y-95693571D01*
X90552857Y-95693571D01*
X90695714Y-95765000D01*
X90767142Y-95836428D01*
X90838571Y-95979285D01*
X90838571Y-96122142D01*
X90767142Y-96336428D01*
X89910000Y-97193571D01*
X90838571Y-97193571D01*
X91767142Y-95693571D02*
X91910000Y-95693571D01*
X92052857Y-95765000D01*
X92124285Y-95836428D01*
X92195714Y-95979285D01*
X92267142Y-96265000D01*
X92267142Y-96622142D01*
X92195714Y-96907857D01*
X92124285Y-97050714D01*
X92052857Y-97122142D01*
X91910000Y-97193571D01*
X91767142Y-97193571D01*
X91624285Y-97122142D01*
X91552857Y-97050714D01*
X91481428Y-96907857D01*
X91410000Y-96622142D01*
X91410000Y-96265000D01*
X91481428Y-95979285D01*
X91552857Y-95836428D01*
X91624285Y-95765000D01*
X91767142Y-95693571D01*
X93695714Y-97193571D02*
X92838571Y-97193571D01*
X93267142Y-97193571D02*
X93267142Y-95693571D01*
X93124285Y-95907857D01*
X92981428Y-96050714D01*
X92838571Y-96122142D01*
X94552857Y-96336428D02*
X94410000Y-96265000D01*
X94338571Y-96193571D01*
X94267142Y-96050714D01*
X94267142Y-95979285D01*
X94338571Y-95836428D01*
X94410000Y-95765000D01*
X94552857Y-95693571D01*
X94838571Y-95693571D01*
X94981428Y-95765000D01*
X95052857Y-95836428D01*
X95124285Y-95979285D01*
X95124285Y-96050714D01*
X95052857Y-96193571D01*
X94981428Y-96265000D01*
X94838571Y-96336428D01*
X94552857Y-96336428D01*
X94410000Y-96407857D01*
X94338571Y-96479285D01*
X94267142Y-96622142D01*
X94267142Y-96907857D01*
X94338571Y-97050714D01*
X94410000Y-97122142D01*
X94552857Y-97193571D01*
X94838571Y-97193571D01*
X94981428Y-97122142D01*
X95052857Y-97050714D01*
X95124285Y-96907857D01*
X95124285Y-96622142D01*
X95052857Y-96479285D01*
X94981428Y-96407857D01*
X94838571Y-96336428D01*
X95767142Y-96622142D02*
X96910000Y-96622142D01*
X98410000Y-97193571D02*
X97552857Y-97193571D01*
X97981428Y-97193571D02*
X97981428Y-95693571D01*
X97838571Y-95907857D01*
X97695714Y-96050714D01*
X97552857Y-96122142D01*
X99838571Y-97193571D02*
X98981428Y-97193571D01*
X99410000Y-97193571D02*
X99410000Y-95693571D01*
X99267142Y-95907857D01*
X99124285Y-96050714D01*
X98981428Y-96122142D01*
X100481428Y-96622142D02*
X101624285Y-96622142D01*
X102267142Y-95836428D02*
X102338571Y-95765000D01*
X102481428Y-95693571D01*
X102838571Y-95693571D01*
X102981428Y-95765000D01*
X103052857Y-95836428D01*
X103124285Y-95979285D01*
X103124285Y-96122142D01*
X103052857Y-96336428D01*
X102195714Y-97193571D01*
X103124285Y-97193571D01*
X103624285Y-95693571D02*
X104552857Y-95693571D01*
X104052857Y-96265000D01*
X104267142Y-96265000D01*
X104410000Y-96336428D01*
X104481428Y-96407857D01*
X104552857Y-96550714D01*
X104552857Y-96907857D01*
X104481428Y-97050714D01*
X104410000Y-97122142D01*
X104267142Y-97193571D01*
X103838571Y-97193571D01*
X103695714Y-97122142D01*
X103624285Y-97050714D01*
X70410000Y-98743571D02*
X70410000Y-99957857D01*
X70338571Y-100100714D01*
X70267142Y-100172142D01*
X70124285Y-100243571D01*
X69910000Y-100243571D01*
X69767142Y-100172142D01*
X70410000Y-99672142D02*
X70267142Y-99743571D01*
X69981428Y-99743571D01*
X69838571Y-99672142D01*
X69767142Y-99600714D01*
X69695714Y-99457857D01*
X69695714Y-99029285D01*
X69767142Y-98886428D01*
X69838571Y-98815000D01*
X69981428Y-98743571D01*
X70267142Y-98743571D01*
X70410000Y-98815000D01*
X71124285Y-99743571D02*
X71124285Y-98743571D01*
X71124285Y-98243571D02*
X71052857Y-98315000D01*
X71124285Y-98386428D01*
X71195714Y-98315000D01*
X71124285Y-98243571D01*
X71124285Y-98386428D01*
X71624285Y-98743571D02*
X72195714Y-98743571D01*
X71838571Y-98243571D02*
X71838571Y-99529285D01*
X71910000Y-99672142D01*
X72052857Y-99743571D01*
X72195714Y-99743571D01*
X72695714Y-99743571D02*
X72695714Y-98243571D01*
X73338571Y-99743571D02*
X73338571Y-98957857D01*
X73267142Y-98815000D01*
X73124285Y-98743571D01*
X72910000Y-98743571D01*
X72767142Y-98815000D01*
X72695714Y-98886428D01*
X74695714Y-98743571D02*
X74695714Y-99743571D01*
X74052857Y-98743571D02*
X74052857Y-99529285D01*
X74124285Y-99672142D01*
X74267142Y-99743571D01*
X74481428Y-99743571D01*
X74624285Y-99672142D01*
X74695714Y-99600714D01*
X75410000Y-99743571D02*
X75410000Y-98243571D01*
X75410000Y-98815000D02*
X75552857Y-98743571D01*
X75838571Y-98743571D01*
X75981428Y-98815000D01*
X76052857Y-98886428D01*
X76124285Y-99029285D01*
X76124285Y-99457857D01*
X76052857Y-99600714D01*
X75981428Y-99672142D01*
X75838571Y-99743571D01*
X75552857Y-99743571D01*
X75410000Y-99672142D01*
X76767142Y-99600714D02*
X76838571Y-99672142D01*
X76767142Y-99743571D01*
X76695714Y-99672142D01*
X76767142Y-99600714D01*
X76767142Y-99743571D01*
X78124285Y-99672142D02*
X77981428Y-99743571D01*
X77695714Y-99743571D01*
X77552857Y-99672142D01*
X77481428Y-99600714D01*
X77410000Y-99457857D01*
X77410000Y-99029285D01*
X77481428Y-98886428D01*
X77552857Y-98815000D01*
X77695714Y-98743571D01*
X77981428Y-98743571D01*
X78124285Y-98815000D01*
X78981428Y-99743571D02*
X78838571Y-99672142D01*
X78767142Y-99600714D01*
X78695714Y-99457857D01*
X78695714Y-99029285D01*
X78767142Y-98886428D01*
X78838571Y-98815000D01*
X78981428Y-98743571D01*
X79195714Y-98743571D01*
X79338571Y-98815000D01*
X79410000Y-98886428D01*
X79481428Y-99029285D01*
X79481428Y-99457857D01*
X79410000Y-99600714D01*
X79338571Y-99672142D01*
X79195714Y-99743571D01*
X78981428Y-99743571D01*
X80124285Y-99743571D02*
X80124285Y-98743571D01*
X80124285Y-98886428D02*
X80195714Y-98815000D01*
X80338571Y-98743571D01*
X80552857Y-98743571D01*
X80695714Y-98815000D01*
X80767142Y-98957857D01*
X80767142Y-99743571D01*
X80767142Y-98957857D02*
X80838571Y-98815000D01*
X80981428Y-98743571D01*
X81195714Y-98743571D01*
X81338571Y-98815000D01*
X81410000Y-98957857D01*
X81410000Y-99743571D01*
X83195714Y-98172142D02*
X81910000Y-100100714D01*
X84338571Y-99672142D02*
X84195714Y-99743571D01*
X83910000Y-99743571D01*
X83767142Y-99672142D01*
X83695714Y-99600714D01*
X83624285Y-99457857D01*
X83624285Y-99029285D01*
X83695714Y-98886428D01*
X83767142Y-98815000D01*
X83910000Y-98743571D01*
X84195714Y-98743571D01*
X84338571Y-98815000D01*
X85624285Y-99743571D02*
X85624285Y-98957857D01*
X85552857Y-98815000D01*
X85410000Y-98743571D01*
X85124285Y-98743571D01*
X84981428Y-98815000D01*
X85624285Y-99672142D02*
X85481428Y-99743571D01*
X85124285Y-99743571D01*
X84981428Y-99672142D01*
X84910000Y-99529285D01*
X84910000Y-99386428D01*
X84981428Y-99243571D01*
X85124285Y-99172142D01*
X85481428Y-99172142D01*
X85624285Y-99100714D01*
X86195714Y-98743571D02*
X86481428Y-99743571D01*
X86767142Y-99029285D01*
X87052857Y-99743571D01*
X87338571Y-98743571D01*
X88552857Y-99743571D02*
X88552857Y-98957857D01*
X88481428Y-98815000D01*
X88338571Y-98743571D01*
X88052857Y-98743571D01*
X87910000Y-98815000D01*
X88552857Y-99672142D02*
X88410000Y-99743571D01*
X88052857Y-99743571D01*
X87910000Y-99672142D01*
X87838571Y-99529285D01*
X87838571Y-99386428D01*
X87910000Y-99243571D01*
X88052857Y-99172142D01*
X88410000Y-99172142D01*
X88552857Y-99100714D01*
X89267142Y-98743571D02*
X89267142Y-100243571D01*
X89267142Y-98815000D02*
X89410000Y-98743571D01*
X89695714Y-98743571D01*
X89838571Y-98815000D01*
X89910000Y-98886428D01*
X89981428Y-99029285D01*
X89981428Y-99457857D01*
X89910000Y-99600714D01*
X89838571Y-99672142D01*
X89695714Y-99743571D01*
X89410000Y-99743571D01*
X89267142Y-99672142D01*
X90481428Y-98743571D02*
X90838571Y-99743571D01*
X91195714Y-98743571D02*
X90838571Y-99743571D01*
X90695714Y-100100714D01*
X90624285Y-100172142D01*
X90481428Y-100243571D01*
X92838571Y-98172142D02*
X91552857Y-100100714D01*
X93838571Y-98957857D02*
X93338571Y-98957857D01*
X93338571Y-99743571D02*
X93338571Y-98243571D01*
X94052857Y-98243571D01*
X94838571Y-99743571D02*
X94695714Y-99672142D01*
X94624285Y-99529285D01*
X94624285Y-98243571D01*
X95410000Y-99743571D02*
X95410000Y-98743571D01*
X95410000Y-98243571D02*
X95338571Y-98315000D01*
X95410000Y-98386428D01*
X95481428Y-98315000D01*
X95410000Y-98243571D01*
X95410000Y-98386428D01*
X96124285Y-98743571D02*
X96124285Y-100243571D01*
X96124285Y-98815000D02*
X96267142Y-98743571D01*
X96552857Y-98743571D01*
X96695714Y-98815000D01*
X96767142Y-98886428D01*
X96838571Y-99029285D01*
X96838571Y-99457857D01*
X96767142Y-99600714D01*
X96695714Y-99672142D01*
X96552857Y-99743571D01*
X96267142Y-99743571D01*
X96124285Y-99672142D01*
X97410000Y-99672142D02*
X97624285Y-99743571D01*
X97981428Y-99743571D01*
X98124285Y-99672142D01*
X98195714Y-99600714D01*
X98267142Y-99457857D01*
X98267142Y-99315000D01*
X98195714Y-99172142D01*
X98124285Y-99100714D01*
X97981428Y-99029285D01*
X97695714Y-98957857D01*
X97552857Y-98886428D01*
X97481428Y-98815000D01*
X97410000Y-98672142D01*
X97410000Y-98529285D01*
X97481428Y-98386428D01*
X97552857Y-98315000D01*
X97695714Y-98243571D01*
X98052857Y-98243571D01*
X98267142Y-98315000D01*
X99552857Y-98743571D02*
X99552857Y-99743571D01*
X98910000Y-98743571D02*
X98910000Y-99529285D01*
X98981428Y-99672142D01*
X99124285Y-99743571D01*
X99338571Y-99743571D01*
X99481428Y-99672142D01*
X99552857Y-99600714D01*
X100267142Y-99743571D02*
X100267142Y-98743571D01*
X100267142Y-98243571D02*
X100195714Y-98315000D01*
X100267142Y-98386428D01*
X100338571Y-98315000D01*
X100267142Y-98243571D01*
X100267142Y-98386428D01*
X100767142Y-98743571D02*
X101338571Y-98743571D01*
X100981428Y-98243571D02*
X100981428Y-99529285D01*
X101052857Y-99672142D01*
X101195714Y-99743571D01*
X101338571Y-99743571D01*
X102410000Y-99672142D02*
X102267142Y-99743571D01*
X101981428Y-99743571D01*
X101838571Y-99672142D01*
X101767142Y-99529285D01*
X101767142Y-98957857D01*
X101838571Y-98815000D01*
X101981428Y-98743571D01*
X102267142Y-98743571D01*
X102410000Y-98815000D01*
X102481428Y-98957857D01*
X102481428Y-99100714D01*
X101767142Y-99243571D01*
D10*
X128905000Y-92075000D02*
X128905000Y-71755000D01*
X118745000Y-71755000D02*
X118745000Y-92075000D01*
X107950000Y-92710000D02*
X99060000Y-92710000D01*
X118110000Y-92710000D02*
X109220000Y-92710000D01*
X128270000Y-92710000D02*
X119380000Y-92710000D01*
X138430000Y-92710000D02*
X129540000Y-92710000D01*
X139065000Y-71755000D02*
X139065000Y-92075000D01*
X129540000Y-71120000D02*
X138430000Y-71120000D01*
X78740000Y-92710000D02*
X87630000Y-92710000D01*
D14*
X60325000Y-92710000D02*
X60325000Y-73660000D01*
X60325000Y-92710000D02*
X50800000Y-92710000D01*
X60325000Y-73660000D02*
X50800000Y-73660000D01*
X98425000Y-92710000D02*
X98425000Y-71120000D01*
X88265000Y-92710000D02*
X98425000Y-92710000D01*
X88265000Y-71120000D02*
X88265000Y-92710000D01*
X78105000Y-92710000D02*
X78105000Y-71120000D01*
X67945000Y-92710000D02*
X78105000Y-92710000D01*
X67945000Y-71120000D02*
X67945000Y-92710000D01*
D15*
G04 #@! TO.C,C1*
X68795000Y-69080000D02*
X68795000Y-68080000D01*
X67095000Y-68080000D02*
X67095000Y-69080000D01*
G04 #@! TO.C,C2*
X89115000Y-69080000D02*
X89115000Y-68080000D01*
X87415000Y-68080000D02*
X87415000Y-69080000D01*
G04 #@! TO.C,C3*
X117895000Y-68080000D02*
X117895000Y-69080000D01*
X119595000Y-69080000D02*
X119595000Y-68080000D01*
G04 #@! TO.C,R2*
X83855000Y-62620000D02*
X85055000Y-62620000D01*
X85055000Y-64380000D02*
X83855000Y-64380000D01*
G04 #@! TO.C,R1*
X85055000Y-60570000D02*
X83855000Y-60570000D01*
X83855000Y-58810000D02*
X85055000Y-58810000D01*
G04 #@! TO.C,CNX1*
X90745000Y-75505000D02*
X92075000Y-75505000D01*
X90745000Y-76835000D02*
X90745000Y-75505000D01*
X93345000Y-75505000D02*
X95945000Y-75505000D01*
X93345000Y-78105000D02*
X93345000Y-75505000D01*
X90745000Y-78105000D02*
X93345000Y-78105000D01*
X95945000Y-75505000D02*
X95945000Y-88325000D01*
X90745000Y-78105000D02*
X90745000Y-79375000D01*
X90745000Y-88325000D02*
X95945000Y-88325000D01*
X90745000Y-84455000D02*
X90745000Y-88325000D01*
G04 #@! TO.C,CNX2*
X100905000Y-84455000D02*
X100905000Y-88325000D01*
X100905000Y-88325000D02*
X106105000Y-88325000D01*
X100905000Y-78105000D02*
X100905000Y-79375000D01*
X106105000Y-75505000D02*
X106105000Y-88325000D01*
X100905000Y-78105000D02*
X103505000Y-78105000D01*
X103505000Y-78105000D02*
X103505000Y-75505000D01*
X103505000Y-75505000D02*
X106105000Y-75505000D01*
X100905000Y-76835000D02*
X100905000Y-75505000D01*
X100905000Y-75505000D02*
X102235000Y-75505000D01*
G04 #@! TO.C,CNX3*
X111065000Y-75505000D02*
X112395000Y-75505000D01*
X111065000Y-76835000D02*
X111065000Y-75505000D01*
X113665000Y-75505000D02*
X116265000Y-75505000D01*
X113665000Y-78105000D02*
X113665000Y-75505000D01*
X111065000Y-78105000D02*
X113665000Y-78105000D01*
X116265000Y-75505000D02*
X116265000Y-88325000D01*
X111065000Y-78105000D02*
X111065000Y-79375000D01*
X111065000Y-88325000D02*
X116265000Y-88325000D01*
X111065000Y-84455000D02*
X111065000Y-88325000D01*
G04 #@! TO.C,CNX4*
X121225000Y-84455000D02*
X121225000Y-88325000D01*
X121225000Y-88325000D02*
X126425000Y-88325000D01*
X121225000Y-78105000D02*
X121225000Y-79375000D01*
X126425000Y-75505000D02*
X126425000Y-88325000D01*
X121225000Y-78105000D02*
X123825000Y-78105000D01*
X123825000Y-78105000D02*
X123825000Y-75505000D01*
X123825000Y-75505000D02*
X126425000Y-75505000D01*
X121225000Y-76835000D02*
X121225000Y-75505000D01*
X121225000Y-75505000D02*
X122555000Y-75505000D01*
G04 #@! TO.C,CNX5*
X131385000Y-75505000D02*
X132715000Y-75505000D01*
X131385000Y-76835000D02*
X131385000Y-75505000D01*
X133985000Y-75505000D02*
X136585000Y-75505000D01*
X133985000Y-78105000D02*
X133985000Y-75505000D01*
X131385000Y-78105000D02*
X133985000Y-78105000D01*
X136585000Y-75505000D02*
X136585000Y-88325000D01*
X131385000Y-78105000D02*
X131385000Y-79375000D01*
X131385000Y-88325000D02*
X136585000Y-88325000D01*
X131385000Y-84455000D02*
X131385000Y-88325000D01*
G04 #@! TO.C,CNY1*
X70425000Y-84455000D02*
X70425000Y-88325000D01*
X70425000Y-88325000D02*
X75625000Y-88325000D01*
X70425000Y-78105000D02*
X70425000Y-79375000D01*
X75625000Y-75505000D02*
X75625000Y-88325000D01*
X70425000Y-78105000D02*
X73025000Y-78105000D01*
X73025000Y-78105000D02*
X73025000Y-75505000D01*
X73025000Y-75505000D02*
X75625000Y-75505000D01*
X70425000Y-76835000D02*
X70425000Y-75505000D01*
X70425000Y-75505000D02*
X71755000Y-75505000D01*
G04 #@! TO.C,CNY2*
X80585000Y-75505000D02*
X81915000Y-75505000D01*
X80585000Y-76835000D02*
X80585000Y-75505000D01*
X83185000Y-75505000D02*
X85785000Y-75505000D01*
X83185000Y-78105000D02*
X83185000Y-75505000D01*
X80585000Y-78105000D02*
X83185000Y-78105000D01*
X85785000Y-75505000D02*
X85785000Y-88325000D01*
X80585000Y-78105000D02*
X80585000Y-79375000D01*
X80585000Y-88325000D02*
X85785000Y-88325000D01*
X80585000Y-84455000D02*
X80585000Y-88325000D01*
G04 #@! TO.C,CN1*
X65465000Y-88325000D02*
X64135000Y-88325000D01*
X65465000Y-86995000D02*
X65465000Y-88325000D01*
X62865000Y-88325000D02*
X60265000Y-88325000D01*
X62865000Y-85725000D02*
X62865000Y-88325000D01*
X65465000Y-85725000D02*
X62865000Y-85725000D01*
X60265000Y-88325000D02*
X60265000Y-78045000D01*
X65465000Y-85725000D02*
X65465000Y-78045000D01*
X65465000Y-78045000D02*
X60265000Y-78045000D01*
D16*
G04 #@! TO.C,REF\002A\002A*
G36*
X123546363Y-95832699D02*
X123568155Y-95839976D01*
X123586586Y-95856420D01*
X123601935Y-95885197D01*
X123614481Y-95929474D01*
X123624505Y-95992418D01*
X123632283Y-96077194D01*
X123638096Y-96186971D01*
X123642223Y-96324914D01*
X123644943Y-96494191D01*
X123646535Y-96697968D01*
X123647277Y-96939411D01*
X123647450Y-97221687D01*
X123647332Y-97547964D01*
X123647203Y-97921407D01*
X123647200Y-97980500D01*
X123647122Y-98355884D01*
X123646849Y-98683711D01*
X123646318Y-98967221D01*
X123645469Y-99209658D01*
X123644240Y-99414261D01*
X123642569Y-99584274D01*
X123640395Y-99722939D01*
X123637657Y-99833496D01*
X123634292Y-99919188D01*
X123630241Y-99983257D01*
X123625441Y-100028944D01*
X123619831Y-100059492D01*
X123613349Y-100078141D01*
X123607285Y-100086885D01*
X123596209Y-100093992D01*
X123576001Y-100100213D01*
X123543490Y-100105606D01*
X123495503Y-100110229D01*
X123428867Y-100114140D01*
X123340410Y-100117396D01*
X123226960Y-100120056D01*
X123085344Y-100122175D01*
X122912390Y-100123813D01*
X122704924Y-100125028D01*
X122459776Y-100125876D01*
X122173771Y-100126415D01*
X121843739Y-100126703D01*
X121466505Y-100126798D01*
X121411999Y-100126800D01*
X121028176Y-100126726D01*
X120691980Y-100126467D01*
X120400239Y-100125965D01*
X120149781Y-100125162D01*
X119937432Y-100124000D01*
X119760021Y-100122422D01*
X119614375Y-100120371D01*
X119497322Y-100117787D01*
X119405688Y-100114615D01*
X119336303Y-100110795D01*
X119285992Y-100106271D01*
X119251584Y-100100985D01*
X119229907Y-100094879D01*
X119217787Y-100087895D01*
X119216714Y-100086885D01*
X119209465Y-100075627D01*
X119203138Y-100055152D01*
X119197672Y-100022219D01*
X119193006Y-99973586D01*
X119189078Y-99906011D01*
X119185826Y-99816252D01*
X119183190Y-99701068D01*
X119181107Y-99557217D01*
X119179517Y-99381456D01*
X119178358Y-99170544D01*
X119177568Y-98921239D01*
X119177086Y-98630300D01*
X119176851Y-98294484D01*
X119176800Y-97980500D01*
X119176877Y-97605115D01*
X119177150Y-97277288D01*
X119177681Y-96993778D01*
X119178530Y-96751341D01*
X119179759Y-96546738D01*
X119180948Y-96425729D01*
X119456199Y-96425729D01*
X119466637Y-96450638D01*
X119492944Y-96504844D01*
X119506999Y-96532699D01*
X119517932Y-96555774D01*
X119527174Y-96581420D01*
X119534867Y-96613859D01*
X119541152Y-96657308D01*
X119546172Y-96715988D01*
X119550068Y-96794117D01*
X119552983Y-96895917D01*
X119555057Y-97025605D01*
X119556434Y-97187401D01*
X119557254Y-97385525D01*
X119557659Y-97624197D01*
X119557791Y-97907635D01*
X119557799Y-98044290D01*
X119557439Y-98307726D01*
X119556402Y-98556037D01*
X119554756Y-98784556D01*
X119552568Y-98988618D01*
X119549903Y-99163558D01*
X119546830Y-99304711D01*
X119543415Y-99407410D01*
X119539724Y-99466991D01*
X119537224Y-99480370D01*
X119512800Y-99520136D01*
X119486968Y-99574350D01*
X119457289Y-99644200D01*
X119983794Y-99643811D01*
X120138967Y-99642849D01*
X120273350Y-99640381D01*
X120379999Y-99636674D01*
X120451970Y-99631992D01*
X120482319Y-99626600D01*
X120482094Y-99624761D01*
X120452145Y-99590826D01*
X120416332Y-99532626D01*
X120412244Y-99524811D01*
X120397318Y-99487521D01*
X120386307Y-99437267D01*
X120378669Y-99366556D01*
X120373866Y-99267898D01*
X120371356Y-99133800D01*
X120370601Y-98956772D01*
X120370600Y-98946961D01*
X120371833Y-98769347D01*
X120375396Y-98626876D01*
X120381078Y-98523727D01*
X120388672Y-98464078D01*
X120395414Y-98450400D01*
X120424914Y-98469770D01*
X120462641Y-98516744D01*
X120464915Y-98520250D01*
X120505493Y-98577268D01*
X120539699Y-98615500D01*
X120570147Y-98652632D01*
X120610083Y-98714966D01*
X120623671Y-98738833D01*
X120665820Y-98805930D01*
X120728527Y-98894720D01*
X120799592Y-98988064D01*
X120813542Y-99005533D01*
X120921661Y-99148344D01*
X121012138Y-99284967D01*
X121080389Y-99407349D01*
X121121831Y-99507440D01*
X121132600Y-99565923D01*
X121132600Y-99644200D01*
X122259055Y-99644200D01*
X122246929Y-99630488D01*
X122402600Y-99630488D01*
X122426699Y-99634757D01*
X122493796Y-99638485D01*
X122596089Y-99641448D01*
X122725778Y-99643426D01*
X122875061Y-99644196D01*
X122885200Y-99644200D01*
X123061967Y-99643408D01*
X123193101Y-99640806D01*
X123283747Y-99636056D01*
X123339050Y-99628818D01*
X123364156Y-99618752D01*
X123366992Y-99612450D01*
X123352038Y-99568554D01*
X123328892Y-99531395D01*
X123319698Y-99512692D01*
X123312102Y-99480195D01*
X123305959Y-99429498D01*
X123301127Y-99356196D01*
X123297464Y-99255883D01*
X123294826Y-99124154D01*
X123293070Y-98956604D01*
X123292053Y-98748827D01*
X123291633Y-98496418D01*
X123291600Y-98382045D01*
X123291600Y-97282000D01*
X122426695Y-97282000D01*
X122465447Y-97356938D01*
X122475478Y-97382815D01*
X122483667Y-97421092D01*
X122490192Y-97476607D01*
X122495226Y-97554197D01*
X122498947Y-97658700D01*
X122501529Y-97794954D01*
X122503148Y-97967797D01*
X122503979Y-98182067D01*
X122504200Y-98424750D01*
X122504086Y-98676440D01*
X122503585Y-98882511D01*
X122502455Y-99048147D01*
X122500455Y-99178527D01*
X122497345Y-99278835D01*
X122492883Y-99354251D01*
X122486829Y-99409957D01*
X122478941Y-99451135D01*
X122468979Y-99482967D01*
X122456701Y-99510635D01*
X122453400Y-99517200D01*
X122422490Y-99580636D01*
X122404480Y-99623110D01*
X122402600Y-99630488D01*
X122246929Y-99630488D01*
X122197477Y-99574570D01*
X122153555Y-99525266D01*
X122125373Y-99494290D01*
X122123200Y-99492020D01*
X122065445Y-99428905D01*
X121993963Y-99344689D01*
X121918897Y-99252065D01*
X121850391Y-99163725D01*
X121798588Y-99092361D01*
X121778376Y-99060547D01*
X121738155Y-98996584D01*
X121674662Y-98905299D01*
X121596804Y-98798680D01*
X121513487Y-98688715D01*
X121433617Y-98587390D01*
X121371273Y-98512607D01*
X121310829Y-98435548D01*
X121254159Y-98351943D01*
X121249978Y-98345050D01*
X121122637Y-98146936D01*
X121026994Y-98016356D01*
X120957036Y-97925212D01*
X121038468Y-97837760D01*
X121108660Y-97758661D01*
X121198715Y-97651892D01*
X121298057Y-97530451D01*
X121396107Y-97407339D01*
X121482289Y-97295555D01*
X121511151Y-97256815D01*
X121815941Y-96876892D01*
X122055279Y-96619787D01*
X122254059Y-96418400D01*
X121708747Y-96418400D01*
X121523550Y-96418523D01*
X121382998Y-96419861D01*
X121280937Y-96423867D01*
X121211212Y-96431993D01*
X121167669Y-96445691D01*
X121144153Y-96466416D01*
X121134511Y-96495618D01*
X121132586Y-96534751D01*
X121132600Y-96554390D01*
X121117012Y-96607842D01*
X121077941Y-96675121D01*
X121060299Y-96698362D01*
X121001652Y-96775668D01*
X120938890Y-96866586D01*
X120916802Y-96901000D01*
X120873552Y-96967764D01*
X120839912Y-97014931D01*
X120828239Y-97028000D01*
X120798445Y-97057339D01*
X120749245Y-97113018D01*
X120689522Y-97184108D01*
X120628162Y-97259681D01*
X120574047Y-97328808D01*
X120536063Y-97380561D01*
X120523000Y-97403483D01*
X120506182Y-97432974D01*
X120464146Y-97480717D01*
X120446799Y-97497900D01*
X120370599Y-97570904D01*
X120370600Y-97151088D01*
X120372193Y-96968302D01*
X120377895Y-96825476D01*
X120389093Y-96711840D01*
X120407172Y-96616629D01*
X120433518Y-96529075D01*
X120459164Y-96462850D01*
X120462394Y-96447771D01*
X120453649Y-96436538D01*
X120426705Y-96428591D01*
X120375338Y-96423367D01*
X120293324Y-96420303D01*
X120174439Y-96418838D01*
X120012460Y-96418410D01*
X119966917Y-96418400D01*
X119812083Y-96418746D01*
X119676122Y-96419712D01*
X119566617Y-96421190D01*
X119491151Y-96423071D01*
X119457308Y-96425245D01*
X119456199Y-96425729D01*
X119180948Y-96425729D01*
X119181430Y-96376725D01*
X119183604Y-96238060D01*
X119186342Y-96127503D01*
X119189707Y-96041811D01*
X119193758Y-95977742D01*
X119198558Y-95932055D01*
X119204168Y-95901507D01*
X119210650Y-95882858D01*
X119216714Y-95874114D01*
X119229178Y-95865934D01*
X119251437Y-95858938D01*
X119287191Y-95853034D01*
X119340141Y-95848133D01*
X119413988Y-95844144D01*
X119512431Y-95840978D01*
X119639173Y-95838544D01*
X119797913Y-95836752D01*
X119992353Y-95835511D01*
X120226193Y-95834733D01*
X120503135Y-95834326D01*
X120826878Y-95834200D01*
X122453400Y-95834200D01*
X122453400Y-95930418D01*
X122473479Y-96046335D01*
X122526525Y-96165000D01*
X122601754Y-96265991D01*
X122654006Y-96310244D01*
X122767546Y-96357370D01*
X122898500Y-96367636D01*
X123032628Y-96343918D01*
X123155690Y-96289089D01*
X123253448Y-96206023D01*
X123268800Y-96186147D01*
X123315806Y-96085428D01*
X123337439Y-95969877D01*
X123348690Y-95834199D01*
X123458030Y-95834200D01*
X123491580Y-95832977D01*
X123520931Y-95831421D01*
X123546363Y-95832699D01*
X123546363Y-95832699D01*
G37*
X123546363Y-95832699D02*
X123568155Y-95839976D01*
X123586586Y-95856420D01*
X123601935Y-95885197D01*
X123614481Y-95929474D01*
X123624505Y-95992418D01*
X123632283Y-96077194D01*
X123638096Y-96186971D01*
X123642223Y-96324914D01*
X123644943Y-96494191D01*
X123646535Y-96697968D01*
X123647277Y-96939411D01*
X123647450Y-97221687D01*
X123647332Y-97547964D01*
X123647203Y-97921407D01*
X123647200Y-97980500D01*
X123647122Y-98355884D01*
X123646849Y-98683711D01*
X123646318Y-98967221D01*
X123645469Y-99209658D01*
X123644240Y-99414261D01*
X123642569Y-99584274D01*
X123640395Y-99722939D01*
X123637657Y-99833496D01*
X123634292Y-99919188D01*
X123630241Y-99983257D01*
X123625441Y-100028944D01*
X123619831Y-100059492D01*
X123613349Y-100078141D01*
X123607285Y-100086885D01*
X123596209Y-100093992D01*
X123576001Y-100100213D01*
X123543490Y-100105606D01*
X123495503Y-100110229D01*
X123428867Y-100114140D01*
X123340410Y-100117396D01*
X123226960Y-100120056D01*
X123085344Y-100122175D01*
X122912390Y-100123813D01*
X122704924Y-100125028D01*
X122459776Y-100125876D01*
X122173771Y-100126415D01*
X121843739Y-100126703D01*
X121466505Y-100126798D01*
X121411999Y-100126800D01*
X121028176Y-100126726D01*
X120691980Y-100126467D01*
X120400239Y-100125965D01*
X120149781Y-100125162D01*
X119937432Y-100124000D01*
X119760021Y-100122422D01*
X119614375Y-100120371D01*
X119497322Y-100117787D01*
X119405688Y-100114615D01*
X119336303Y-100110795D01*
X119285992Y-100106271D01*
X119251584Y-100100985D01*
X119229907Y-100094879D01*
X119217787Y-100087895D01*
X119216714Y-100086885D01*
X119209465Y-100075627D01*
X119203138Y-100055152D01*
X119197672Y-100022219D01*
X119193006Y-99973586D01*
X119189078Y-99906011D01*
X119185826Y-99816252D01*
X119183190Y-99701068D01*
X119181107Y-99557217D01*
X119179517Y-99381456D01*
X119178358Y-99170544D01*
X119177568Y-98921239D01*
X119177086Y-98630300D01*
X119176851Y-98294484D01*
X119176800Y-97980500D01*
X119176877Y-97605115D01*
X119177150Y-97277288D01*
X119177681Y-96993778D01*
X119178530Y-96751341D01*
X119179759Y-96546738D01*
X119180948Y-96425729D01*
X119456199Y-96425729D01*
X119466637Y-96450638D01*
X119492944Y-96504844D01*
X119506999Y-96532699D01*
X119517932Y-96555774D01*
X119527174Y-96581420D01*
X119534867Y-96613859D01*
X119541152Y-96657308D01*
X119546172Y-96715988D01*
X119550068Y-96794117D01*
X119552983Y-96895917D01*
X119555057Y-97025605D01*
X119556434Y-97187401D01*
X119557254Y-97385525D01*
X119557659Y-97624197D01*
X119557791Y-97907635D01*
X119557799Y-98044290D01*
X119557439Y-98307726D01*
X119556402Y-98556037D01*
X119554756Y-98784556D01*
X119552568Y-98988618D01*
X119549903Y-99163558D01*
X119546830Y-99304711D01*
X119543415Y-99407410D01*
X119539724Y-99466991D01*
X119537224Y-99480370D01*
X119512800Y-99520136D01*
X119486968Y-99574350D01*
X119457289Y-99644200D01*
X119983794Y-99643811D01*
X120138967Y-99642849D01*
X120273350Y-99640381D01*
X120379999Y-99636674D01*
X120451970Y-99631992D01*
X120482319Y-99626600D01*
X120482094Y-99624761D01*
X120452145Y-99590826D01*
X120416332Y-99532626D01*
X120412244Y-99524811D01*
X120397318Y-99487521D01*
X120386307Y-99437267D01*
X120378669Y-99366556D01*
X120373866Y-99267898D01*
X120371356Y-99133800D01*
X120370601Y-98956772D01*
X120370600Y-98946961D01*
X120371833Y-98769347D01*
X120375396Y-98626876D01*
X120381078Y-98523727D01*
X120388672Y-98464078D01*
X120395414Y-98450400D01*
X120424914Y-98469770D01*
X120462641Y-98516744D01*
X120464915Y-98520250D01*
X120505493Y-98577268D01*
X120539699Y-98615500D01*
X120570147Y-98652632D01*
X120610083Y-98714966D01*
X120623671Y-98738833D01*
X120665820Y-98805930D01*
X120728527Y-98894720D01*
X120799592Y-98988064D01*
X120813542Y-99005533D01*
X120921661Y-99148344D01*
X121012138Y-99284967D01*
X121080389Y-99407349D01*
X121121831Y-99507440D01*
X121132600Y-99565923D01*
X121132600Y-99644200D01*
X122259055Y-99644200D01*
X122246929Y-99630488D01*
X122402600Y-99630488D01*
X122426699Y-99634757D01*
X122493796Y-99638485D01*
X122596089Y-99641448D01*
X122725778Y-99643426D01*
X122875061Y-99644196D01*
X122885200Y-99644200D01*
X123061967Y-99643408D01*
X123193101Y-99640806D01*
X123283747Y-99636056D01*
X123339050Y-99628818D01*
X123364156Y-99618752D01*
X123366992Y-99612450D01*
X123352038Y-99568554D01*
X123328892Y-99531395D01*
X123319698Y-99512692D01*
X123312102Y-99480195D01*
X123305959Y-99429498D01*
X123301127Y-99356196D01*
X123297464Y-99255883D01*
X123294826Y-99124154D01*
X123293070Y-98956604D01*
X123292053Y-98748827D01*
X123291633Y-98496418D01*
X123291600Y-98382045D01*
X123291600Y-97282000D01*
X122426695Y-97282000D01*
X122465447Y-97356938D01*
X122475478Y-97382815D01*
X122483667Y-97421092D01*
X122490192Y-97476607D01*
X122495226Y-97554197D01*
X122498947Y-97658700D01*
X122501529Y-97794954D01*
X122503148Y-97967797D01*
X122503979Y-98182067D01*
X122504200Y-98424750D01*
X122504086Y-98676440D01*
X122503585Y-98882511D01*
X122502455Y-99048147D01*
X122500455Y-99178527D01*
X122497345Y-99278835D01*
X122492883Y-99354251D01*
X122486829Y-99409957D01*
X122478941Y-99451135D01*
X122468979Y-99482967D01*
X122456701Y-99510635D01*
X122453400Y-99517200D01*
X122422490Y-99580636D01*
X122404480Y-99623110D01*
X122402600Y-99630488D01*
X122246929Y-99630488D01*
X122197477Y-99574570D01*
X122153555Y-99525266D01*
X122125373Y-99494290D01*
X122123200Y-99492020D01*
X122065445Y-99428905D01*
X121993963Y-99344689D01*
X121918897Y-99252065D01*
X121850391Y-99163725D01*
X121798588Y-99092361D01*
X121778376Y-99060547D01*
X121738155Y-98996584D01*
X121674662Y-98905299D01*
X121596804Y-98798680D01*
X121513487Y-98688715D01*
X121433617Y-98587390D01*
X121371273Y-98512607D01*
X121310829Y-98435548D01*
X121254159Y-98351943D01*
X121249978Y-98345050D01*
X121122637Y-98146936D01*
X121026994Y-98016356D01*
X120957036Y-97925212D01*
X121038468Y-97837760D01*
X121108660Y-97758661D01*
X121198715Y-97651892D01*
X121298057Y-97530451D01*
X121396107Y-97407339D01*
X121482289Y-97295555D01*
X121511151Y-97256815D01*
X121815941Y-96876892D01*
X122055279Y-96619787D01*
X122254059Y-96418400D01*
X121708747Y-96418400D01*
X121523550Y-96418523D01*
X121382998Y-96419861D01*
X121280937Y-96423867D01*
X121211212Y-96431993D01*
X121167669Y-96445691D01*
X121144153Y-96466416D01*
X121134511Y-96495618D01*
X121132586Y-96534751D01*
X121132600Y-96554390D01*
X121117012Y-96607842D01*
X121077941Y-96675121D01*
X121060299Y-96698362D01*
X121001652Y-96775668D01*
X120938890Y-96866586D01*
X120916802Y-96901000D01*
X120873552Y-96967764D01*
X120839912Y-97014931D01*
X120828239Y-97028000D01*
X120798445Y-97057339D01*
X120749245Y-97113018D01*
X120689522Y-97184108D01*
X120628162Y-97259681D01*
X120574047Y-97328808D01*
X120536063Y-97380561D01*
X120523000Y-97403483D01*
X120506182Y-97432974D01*
X120464146Y-97480717D01*
X120446799Y-97497900D01*
X120370599Y-97570904D01*
X120370600Y-97151088D01*
X120372193Y-96968302D01*
X120377895Y-96825476D01*
X120389093Y-96711840D01*
X120407172Y-96616629D01*
X120433518Y-96529075D01*
X120459164Y-96462850D01*
X120462394Y-96447771D01*
X120453649Y-96436538D01*
X120426705Y-96428591D01*
X120375338Y-96423367D01*
X120293324Y-96420303D01*
X120174439Y-96418838D01*
X120012460Y-96418410D01*
X119966917Y-96418400D01*
X119812083Y-96418746D01*
X119676122Y-96419712D01*
X119566617Y-96421190D01*
X119491151Y-96423071D01*
X119457308Y-96425245D01*
X119456199Y-96425729D01*
X119180948Y-96425729D01*
X119181430Y-96376725D01*
X119183604Y-96238060D01*
X119186342Y-96127503D01*
X119189707Y-96041811D01*
X119193758Y-95977742D01*
X119198558Y-95932055D01*
X119204168Y-95901507D01*
X119210650Y-95882858D01*
X119216714Y-95874114D01*
X119229178Y-95865934D01*
X119251437Y-95858938D01*
X119287191Y-95853034D01*
X119340141Y-95848133D01*
X119413988Y-95844144D01*
X119512431Y-95840978D01*
X119639173Y-95838544D01*
X119797913Y-95836752D01*
X119992353Y-95835511D01*
X120226193Y-95834733D01*
X120503135Y-95834326D01*
X120826878Y-95834200D01*
X122453400Y-95834200D01*
X122453400Y-95930418D01*
X122473479Y-96046335D01*
X122526525Y-96165000D01*
X122601754Y-96265991D01*
X122654006Y-96310244D01*
X122767546Y-96357370D01*
X122898500Y-96367636D01*
X123032628Y-96343918D01*
X123155690Y-96289089D01*
X123253448Y-96206023D01*
X123268800Y-96186147D01*
X123315806Y-96085428D01*
X123337439Y-95969877D01*
X123348690Y-95834199D01*
X123458030Y-95834200D01*
X123491580Y-95832977D01*
X123520931Y-95831421D01*
X123546363Y-95832699D01*
G36*
X125639676Y-96396341D02*
X125680911Y-96406143D01*
X125751879Y-96428829D01*
X125847173Y-96464963D01*
X125954521Y-96509187D01*
X126061653Y-96556147D01*
X126156298Y-96600487D01*
X126226185Y-96636851D01*
X126257064Y-96657598D01*
X126247374Y-96680582D01*
X126215036Y-96735508D01*
X126166464Y-96812651D01*
X126108074Y-96902288D01*
X126046281Y-96994695D01*
X125987502Y-97080151D01*
X125938152Y-97148930D01*
X125905677Y-97190159D01*
X125877236Y-97187624D01*
X125825081Y-97157335D01*
X125781407Y-97123312D01*
X125636298Y-97031226D01*
X125471487Y-96985559D01*
X125313098Y-96984284D01*
X125142398Y-97024902D01*
X124998259Y-97108127D01*
X124881245Y-97232925D01*
X124791919Y-97398260D01*
X124730843Y-97603097D01*
X124698581Y-97846401D01*
X124695426Y-98120200D01*
X124716867Y-98367826D01*
X124761984Y-98573741D01*
X124832630Y-98742105D01*
X124930657Y-98877080D01*
X125057917Y-98982826D01*
X125087579Y-99001151D01*
X125164773Y-99041415D01*
X125236238Y-99062876D01*
X125324027Y-99070676D01*
X125387100Y-99071009D01*
X125546817Y-99055354D01*
X125685547Y-99007392D01*
X125819625Y-98920613D01*
X125869846Y-98878663D01*
X125924092Y-98834162D01*
X125960414Y-98810225D01*
X125968055Y-98808969D01*
X125990216Y-98842288D01*
X126029498Y-98906333D01*
X126080230Y-98991348D01*
X126136743Y-99087575D01*
X126193366Y-99185257D01*
X126244431Y-99274636D01*
X126284265Y-99345956D01*
X126307201Y-99389460D01*
X126310453Y-99398180D01*
X126285218Y-99411554D01*
X126227344Y-99442253D01*
X126149062Y-99483786D01*
X126144457Y-99486230D01*
X125982147Y-99566612D01*
X125839212Y-99621928D01*
X125697272Y-99656986D01*
X125537947Y-99676593D01*
X125387100Y-99684340D01*
X125194285Y-99685569D01*
X125042250Y-99676113D01*
X124951436Y-99660565D01*
X124719201Y-99575718D01*
X124506159Y-99446718D01*
X124316366Y-99277906D01*
X124153878Y-99073623D01*
X124022752Y-98838209D01*
X123927044Y-98576005D01*
X123922548Y-98559632D01*
X123886250Y-98373026D01*
X123867345Y-98158920D01*
X123865823Y-97935257D01*
X123881669Y-97719982D01*
X123914872Y-97531040D01*
X123923297Y-97499044D01*
X124025061Y-97225435D01*
X124167732Y-96979468D01*
X124348804Y-96764653D01*
X124565770Y-96584495D01*
X124587000Y-96570082D01*
X124764644Y-96477504D01*
X124972698Y-96411748D01*
X125197198Y-96374907D01*
X125424178Y-96369073D01*
X125639676Y-96396341D01*
X125639676Y-96396341D01*
G37*
X125639676Y-96396341D02*
X125680911Y-96406143D01*
X125751879Y-96428829D01*
X125847173Y-96464963D01*
X125954521Y-96509187D01*
X126061653Y-96556147D01*
X126156298Y-96600487D01*
X126226185Y-96636851D01*
X126257064Y-96657598D01*
X126247374Y-96680582D01*
X126215036Y-96735508D01*
X126166464Y-96812651D01*
X126108074Y-96902288D01*
X126046281Y-96994695D01*
X125987502Y-97080151D01*
X125938152Y-97148930D01*
X125905677Y-97190159D01*
X125877236Y-97187624D01*
X125825081Y-97157335D01*
X125781407Y-97123312D01*
X125636298Y-97031226D01*
X125471487Y-96985559D01*
X125313098Y-96984284D01*
X125142398Y-97024902D01*
X124998259Y-97108127D01*
X124881245Y-97232925D01*
X124791919Y-97398260D01*
X124730843Y-97603097D01*
X124698581Y-97846401D01*
X124695426Y-98120200D01*
X124716867Y-98367826D01*
X124761984Y-98573741D01*
X124832630Y-98742105D01*
X124930657Y-98877080D01*
X125057917Y-98982826D01*
X125087579Y-99001151D01*
X125164773Y-99041415D01*
X125236238Y-99062876D01*
X125324027Y-99070676D01*
X125387100Y-99071009D01*
X125546817Y-99055354D01*
X125685547Y-99007392D01*
X125819625Y-98920613D01*
X125869846Y-98878663D01*
X125924092Y-98834162D01*
X125960414Y-98810225D01*
X125968055Y-98808969D01*
X125990216Y-98842288D01*
X126029498Y-98906333D01*
X126080230Y-98991348D01*
X126136743Y-99087575D01*
X126193366Y-99185257D01*
X126244431Y-99274636D01*
X126284265Y-99345956D01*
X126307201Y-99389460D01*
X126310453Y-99398180D01*
X126285218Y-99411554D01*
X126227344Y-99442253D01*
X126149062Y-99483786D01*
X126144457Y-99486230D01*
X125982147Y-99566612D01*
X125839212Y-99621928D01*
X125697272Y-99656986D01*
X125537947Y-99676593D01*
X125387100Y-99684340D01*
X125194285Y-99685569D01*
X125042250Y-99676113D01*
X124951436Y-99660565D01*
X124719201Y-99575718D01*
X124506159Y-99446718D01*
X124316366Y-99277906D01*
X124153878Y-99073623D01*
X124022752Y-98838209D01*
X123927044Y-98576005D01*
X123922548Y-98559632D01*
X123886250Y-98373026D01*
X123867345Y-98158920D01*
X123865823Y-97935257D01*
X123881669Y-97719982D01*
X123914872Y-97531040D01*
X123923297Y-97499044D01*
X124025061Y-97225435D01*
X124167732Y-96979468D01*
X124348804Y-96764653D01*
X124565770Y-96584495D01*
X124587000Y-96570082D01*
X124764644Y-96477504D01*
X124972698Y-96411748D01*
X125197198Y-96374907D01*
X125424178Y-96369073D01*
X125639676Y-96396341D01*
G36*
X127722620Y-97242359D02*
X127898576Y-97282264D01*
X128017513Y-97326895D01*
X128110098Y-97382778D01*
X128192779Y-97456360D01*
X128245917Y-97511188D01*
X128289396Y-97562829D01*
X128324291Y-97616992D01*
X128351676Y-97679387D01*
X128372624Y-97755723D01*
X128388209Y-97851710D01*
X128399504Y-97973058D01*
X128407585Y-98125475D01*
X128413523Y-98314670D01*
X128418394Y-98546355D01*
X128420549Y-98667477D01*
X128424807Y-98899434D01*
X128428930Y-99086051D01*
X128433276Y-99232785D01*
X128438203Y-99345095D01*
X128444068Y-99428437D01*
X128451231Y-99488269D01*
X128460049Y-99530049D01*
X128470880Y-99559234D01*
X128480135Y-99575527D01*
X128525171Y-99644200D01*
X127714418Y-99644200D01*
X127698500Y-99490698D01*
X127599102Y-99558483D01*
X127442946Y-99637254D01*
X127262092Y-99683178D01*
X127072295Y-99694137D01*
X126889309Y-99668011D01*
X126855834Y-99658436D01*
X126669429Y-99576112D01*
X126518520Y-99458585D01*
X126405652Y-99309321D01*
X126333375Y-99131786D01*
X126304235Y-98929443D01*
X126303788Y-98907600D01*
X126304452Y-98878545D01*
X127032707Y-98878545D01*
X127036963Y-98967884D01*
X127047090Y-98998502D01*
X127109779Y-99079089D01*
X127204723Y-99133481D01*
X127318327Y-99157352D01*
X127436996Y-99146378D01*
X127474596Y-99134508D01*
X127561783Y-99092968D01*
X127617424Y-99040366D01*
X127647894Y-98965280D01*
X127659566Y-98856289D01*
X127660400Y-98801572D01*
X127660400Y-98602800D01*
X127494484Y-98602800D01*
X127330747Y-98617824D01*
X127192128Y-98660733D01*
X127096676Y-98721555D01*
X127054069Y-98788298D01*
X127032707Y-98878545D01*
X126304452Y-98878545D01*
X126306403Y-98793273D01*
X126320051Y-98705974D01*
X126349550Y-98622311D01*
X126372882Y-98572215D01*
X126477223Y-98415636D01*
X126621604Y-98289758D01*
X126805369Y-98194878D01*
X127027862Y-98131291D01*
X127288426Y-98099295D01*
X127428794Y-98095241D01*
X127667088Y-98094800D01*
X127653196Y-97991228D01*
X127617262Y-97877960D01*
X127545344Y-97799507D01*
X127438724Y-97756163D01*
X127298687Y-97748223D01*
X127126516Y-97775980D01*
X126949509Y-97830144D01*
X126865051Y-97857413D01*
X126800058Y-97872373D01*
X126768195Y-97871908D01*
X126767862Y-97871589D01*
X126750276Y-97839872D01*
X126720180Y-97773912D01*
X126682902Y-97686745D01*
X126643773Y-97591404D01*
X126608122Y-97500925D01*
X126581280Y-97428340D01*
X126568575Y-97386685D01*
X126568200Y-97383302D01*
X126589990Y-97364617D01*
X126633447Y-97358200D01*
X126685031Y-97352037D01*
X126771850Y-97335424D01*
X126880103Y-97311175D01*
X126957297Y-97292173D01*
X127223096Y-97241360D01*
X127481776Y-97224718D01*
X127722620Y-97242359D01*
X127722620Y-97242359D01*
G37*
X127722620Y-97242359D02*
X127898576Y-97282264D01*
X128017513Y-97326895D01*
X128110098Y-97382778D01*
X128192779Y-97456360D01*
X128245917Y-97511188D01*
X128289396Y-97562829D01*
X128324291Y-97616992D01*
X128351676Y-97679387D01*
X128372624Y-97755723D01*
X128388209Y-97851710D01*
X128399504Y-97973058D01*
X128407585Y-98125475D01*
X128413523Y-98314670D01*
X128418394Y-98546355D01*
X128420549Y-98667477D01*
X128424807Y-98899434D01*
X128428930Y-99086051D01*
X128433276Y-99232785D01*
X128438203Y-99345095D01*
X128444068Y-99428437D01*
X128451231Y-99488269D01*
X128460049Y-99530049D01*
X128470880Y-99559234D01*
X128480135Y-99575527D01*
X128525171Y-99644200D01*
X127714418Y-99644200D01*
X127698500Y-99490698D01*
X127599102Y-99558483D01*
X127442946Y-99637254D01*
X127262092Y-99683178D01*
X127072295Y-99694137D01*
X126889309Y-99668011D01*
X126855834Y-99658436D01*
X126669429Y-99576112D01*
X126518520Y-99458585D01*
X126405652Y-99309321D01*
X126333375Y-99131786D01*
X126304235Y-98929443D01*
X126303788Y-98907600D01*
X126304452Y-98878545D01*
X127032707Y-98878545D01*
X127036963Y-98967884D01*
X127047090Y-98998502D01*
X127109779Y-99079089D01*
X127204723Y-99133481D01*
X127318327Y-99157352D01*
X127436996Y-99146378D01*
X127474596Y-99134508D01*
X127561783Y-99092968D01*
X127617424Y-99040366D01*
X127647894Y-98965280D01*
X127659566Y-98856289D01*
X127660400Y-98801572D01*
X127660400Y-98602800D01*
X127494484Y-98602800D01*
X127330747Y-98617824D01*
X127192128Y-98660733D01*
X127096676Y-98721555D01*
X127054069Y-98788298D01*
X127032707Y-98878545D01*
X126304452Y-98878545D01*
X126306403Y-98793273D01*
X126320051Y-98705974D01*
X126349550Y-98622311D01*
X126372882Y-98572215D01*
X126477223Y-98415636D01*
X126621604Y-98289758D01*
X126805369Y-98194878D01*
X127027862Y-98131291D01*
X127288426Y-98099295D01*
X127428794Y-98095241D01*
X127667088Y-98094800D01*
X127653196Y-97991228D01*
X127617262Y-97877960D01*
X127545344Y-97799507D01*
X127438724Y-97756163D01*
X127298687Y-97748223D01*
X127126516Y-97775980D01*
X126949509Y-97830144D01*
X126865051Y-97857413D01*
X126800058Y-97872373D01*
X126768195Y-97871908D01*
X126767862Y-97871589D01*
X126750276Y-97839872D01*
X126720180Y-97773912D01*
X126682902Y-97686745D01*
X126643773Y-97591404D01*
X126608122Y-97500925D01*
X126581280Y-97428340D01*
X126568575Y-97386685D01*
X126568200Y-97383302D01*
X126589990Y-97364617D01*
X126633447Y-97358200D01*
X126685031Y-97352037D01*
X126771850Y-97335424D01*
X126880103Y-97311175D01*
X126957297Y-97292173D01*
X127223096Y-97241360D01*
X127481776Y-97224718D01*
X127722620Y-97242359D01*
G36*
X130942464Y-97847150D02*
X130944006Y-98177052D01*
X130945566Y-98459981D01*
X130947261Y-98699761D01*
X130949208Y-98900219D01*
X130951523Y-99065181D01*
X130954322Y-99198472D01*
X130957724Y-99303918D01*
X130961844Y-99385345D01*
X130966799Y-99446580D01*
X130972707Y-99491447D01*
X130979683Y-99523774D01*
X130987845Y-99547385D01*
X130994802Y-99561650D01*
X131039904Y-99644200D01*
X130225800Y-99644200D01*
X130225800Y-99568000D01*
X130222441Y-99514452D01*
X130214351Y-99491804D01*
X130214227Y-99491800D01*
X130188109Y-99504784D01*
X130135726Y-99537537D01*
X130108903Y-99555421D01*
X129976603Y-99622647D01*
X129816937Y-99669589D01*
X129648022Y-99693338D01*
X129487977Y-99690984D01*
X129387600Y-99671247D01*
X129203538Y-99589939D01*
X129038410Y-99468200D01*
X128903517Y-99315510D01*
X128842155Y-99213694D01*
X128774731Y-99056029D01*
X128730855Y-98889951D01*
X128707714Y-98701403D01*
X128702241Y-98514913D01*
X128703002Y-98501200D01*
X129503136Y-98501200D01*
X129507634Y-98676895D01*
X129521249Y-98810414D01*
X129546477Y-98909949D01*
X129585812Y-98983691D01*
X129641751Y-99039831D01*
X129674016Y-99062170D01*
X129780421Y-99100164D01*
X129906144Y-99097176D01*
X130041203Y-99053728D01*
X130065499Y-99041773D01*
X130162300Y-98991557D01*
X130169142Y-98442487D01*
X130175985Y-97893416D01*
X130108891Y-97849454D01*
X130045360Y-97822707D01*
X129955668Y-97802044D01*
X129897633Y-97795065D01*
X129809255Y-97791970D01*
X129750291Y-97802095D01*
X129699985Y-97830683D01*
X129673927Y-97851568D01*
X129606583Y-97925167D01*
X129557664Y-98020737D01*
X129525341Y-98145234D01*
X129507787Y-98305611D01*
X129503136Y-98501200D01*
X128703002Y-98501200D01*
X128718675Y-98218965D01*
X128766542Y-97959134D01*
X128845171Y-97736509D01*
X128953889Y-97552180D01*
X129092025Y-97407237D01*
X129258906Y-97302768D01*
X129453860Y-97239864D01*
X129493170Y-97232835D01*
X129608703Y-97224575D01*
X129736063Y-97231429D01*
X129862661Y-97250852D01*
X129975912Y-97280299D01*
X130063228Y-97317225D01*
X130111262Y-97357815D01*
X130132127Y-97382282D01*
X130148170Y-97377192D01*
X130159925Y-97338657D01*
X130167924Y-97262788D01*
X130172702Y-97145701D01*
X130174793Y-96983506D01*
X130175000Y-96893670D01*
X130174477Y-96719573D01*
X130172469Y-96588217D01*
X130168311Y-96491550D01*
X130161343Y-96421519D01*
X130150901Y-96370073D01*
X130136322Y-96329158D01*
X130126938Y-96309470D01*
X130078876Y-96215200D01*
X130935228Y-96215200D01*
X130942464Y-97847150D01*
X130942464Y-97847150D01*
G37*
X130942464Y-97847150D02*
X130944006Y-98177052D01*
X130945566Y-98459981D01*
X130947261Y-98699761D01*
X130949208Y-98900219D01*
X130951523Y-99065181D01*
X130954322Y-99198472D01*
X130957724Y-99303918D01*
X130961844Y-99385345D01*
X130966799Y-99446580D01*
X130972707Y-99491447D01*
X130979683Y-99523774D01*
X130987845Y-99547385D01*
X130994802Y-99561650D01*
X131039904Y-99644200D01*
X130225800Y-99644200D01*
X130225800Y-99568000D01*
X130222441Y-99514452D01*
X130214351Y-99491804D01*
X130214227Y-99491800D01*
X130188109Y-99504784D01*
X130135726Y-99537537D01*
X130108903Y-99555421D01*
X129976603Y-99622647D01*
X129816937Y-99669589D01*
X129648022Y-99693338D01*
X129487977Y-99690984D01*
X129387600Y-99671247D01*
X129203538Y-99589939D01*
X129038410Y-99468200D01*
X128903517Y-99315510D01*
X128842155Y-99213694D01*
X128774731Y-99056029D01*
X128730855Y-98889951D01*
X128707714Y-98701403D01*
X128702241Y-98514913D01*
X128703002Y-98501200D01*
X129503136Y-98501200D01*
X129507634Y-98676895D01*
X129521249Y-98810414D01*
X129546477Y-98909949D01*
X129585812Y-98983691D01*
X129641751Y-99039831D01*
X129674016Y-99062170D01*
X129780421Y-99100164D01*
X129906144Y-99097176D01*
X130041203Y-99053728D01*
X130065499Y-99041773D01*
X130162300Y-98991557D01*
X130169142Y-98442487D01*
X130175985Y-97893416D01*
X130108891Y-97849454D01*
X130045360Y-97822707D01*
X129955668Y-97802044D01*
X129897633Y-97795065D01*
X129809255Y-97791970D01*
X129750291Y-97802095D01*
X129699985Y-97830683D01*
X129673927Y-97851568D01*
X129606583Y-97925167D01*
X129557664Y-98020737D01*
X129525341Y-98145234D01*
X129507787Y-98305611D01*
X129503136Y-98501200D01*
X128703002Y-98501200D01*
X128718675Y-98218965D01*
X128766542Y-97959134D01*
X128845171Y-97736509D01*
X128953889Y-97552180D01*
X129092025Y-97407237D01*
X129258906Y-97302768D01*
X129453860Y-97239864D01*
X129493170Y-97232835D01*
X129608703Y-97224575D01*
X129736063Y-97231429D01*
X129862661Y-97250852D01*
X129975912Y-97280299D01*
X130063228Y-97317225D01*
X130111262Y-97357815D01*
X130132127Y-97382282D01*
X130148170Y-97377192D01*
X130159925Y-97338657D01*
X130167924Y-97262788D01*
X130172702Y-97145701D01*
X130174793Y-96983506D01*
X130175000Y-96893670D01*
X130174477Y-96719573D01*
X130172469Y-96588217D01*
X130168311Y-96491550D01*
X130161343Y-96421519D01*
X130150901Y-96370073D01*
X130136322Y-96329158D01*
X130126938Y-96309470D01*
X130078876Y-96215200D01*
X130935228Y-96215200D01*
X130942464Y-97847150D01*
G04 #@! TO.C,REF\002A\002A\002A*
G36*
X112534744Y-99709918D02*
X112590201Y-99737568D01*
X112639148Y-99788480D01*
X112652629Y-99807338D01*
X112667314Y-99832015D01*
X112676842Y-99858816D01*
X112682293Y-99894587D01*
X112684747Y-99946169D01*
X112685286Y-100014267D01*
X112682852Y-100107588D01*
X112674394Y-100177657D01*
X112658174Y-100229931D01*
X112632454Y-100269869D01*
X112595497Y-100302929D01*
X112592782Y-100304886D01*
X112556360Y-100324908D01*
X112512502Y-100334815D01*
X112456724Y-100337257D01*
X112366048Y-100337257D01*
X112366010Y-100425283D01*
X112365166Y-100474308D01*
X112360024Y-100503065D01*
X112346587Y-100520311D01*
X112320858Y-100534808D01*
X112314679Y-100537769D01*
X112285764Y-100551648D01*
X112263376Y-100560414D01*
X112246729Y-100561171D01*
X112235036Y-100551023D01*
X112227510Y-100527073D01*
X112223366Y-100486426D01*
X112221815Y-100426186D01*
X112222071Y-100343455D01*
X112223349Y-100235339D01*
X112223748Y-100203000D01*
X112225185Y-100091524D01*
X112226472Y-100018603D01*
X112365971Y-100018603D01*
X112366755Y-100080499D01*
X112370240Y-100120997D01*
X112378124Y-100147708D01*
X112392105Y-100168244D01*
X112401597Y-100178260D01*
X112440404Y-100207567D01*
X112474763Y-100209952D01*
X112510216Y-100185750D01*
X112511114Y-100184857D01*
X112525539Y-100166153D01*
X112534313Y-100140732D01*
X112538739Y-100101584D01*
X112540118Y-100041697D01*
X112540143Y-100028430D01*
X112536812Y-99945901D01*
X112525969Y-99888691D01*
X112506340Y-99853766D01*
X112476650Y-99838094D01*
X112459491Y-99836514D01*
X112418766Y-99843926D01*
X112390832Y-99868330D01*
X112374017Y-99912980D01*
X112366650Y-99981130D01*
X112365971Y-100018603D01*
X112226472Y-100018603D01*
X112226708Y-100005245D01*
X112228677Y-99940333D01*
X112231450Y-99892958D01*
X112235388Y-99859290D01*
X112240849Y-99835498D01*
X112248192Y-99817753D01*
X112257777Y-99802224D01*
X112261887Y-99796381D01*
X112316405Y-99741185D01*
X112385336Y-99709890D01*
X112465072Y-99701165D01*
X112534744Y-99709918D01*
X112534744Y-99709918D01*
G37*
X112534744Y-99709918D02*
X112590201Y-99737568D01*
X112639148Y-99788480D01*
X112652629Y-99807338D01*
X112667314Y-99832015D01*
X112676842Y-99858816D01*
X112682293Y-99894587D01*
X112684747Y-99946169D01*
X112685286Y-100014267D01*
X112682852Y-100107588D01*
X112674394Y-100177657D01*
X112658174Y-100229931D01*
X112632454Y-100269869D01*
X112595497Y-100302929D01*
X112592782Y-100304886D01*
X112556360Y-100324908D01*
X112512502Y-100334815D01*
X112456724Y-100337257D01*
X112366048Y-100337257D01*
X112366010Y-100425283D01*
X112365166Y-100474308D01*
X112360024Y-100503065D01*
X112346587Y-100520311D01*
X112320858Y-100534808D01*
X112314679Y-100537769D01*
X112285764Y-100551648D01*
X112263376Y-100560414D01*
X112246729Y-100561171D01*
X112235036Y-100551023D01*
X112227510Y-100527073D01*
X112223366Y-100486426D01*
X112221815Y-100426186D01*
X112222071Y-100343455D01*
X112223349Y-100235339D01*
X112223748Y-100203000D01*
X112225185Y-100091524D01*
X112226472Y-100018603D01*
X112365971Y-100018603D01*
X112366755Y-100080499D01*
X112370240Y-100120997D01*
X112378124Y-100147708D01*
X112392105Y-100168244D01*
X112401597Y-100178260D01*
X112440404Y-100207567D01*
X112474763Y-100209952D01*
X112510216Y-100185750D01*
X112511114Y-100184857D01*
X112525539Y-100166153D01*
X112534313Y-100140732D01*
X112538739Y-100101584D01*
X112540118Y-100041697D01*
X112540143Y-100028430D01*
X112536812Y-99945901D01*
X112525969Y-99888691D01*
X112506340Y-99853766D01*
X112476650Y-99838094D01*
X112459491Y-99836514D01*
X112418766Y-99843926D01*
X112390832Y-99868330D01*
X112374017Y-99912980D01*
X112366650Y-99981130D01*
X112365971Y-100018603D01*
X112226472Y-100018603D01*
X112226708Y-100005245D01*
X112228677Y-99940333D01*
X112231450Y-99892958D01*
X112235388Y-99859290D01*
X112240849Y-99835498D01*
X112248192Y-99817753D01*
X112257777Y-99802224D01*
X112261887Y-99796381D01*
X112316405Y-99741185D01*
X112385336Y-99709890D01*
X112465072Y-99701165D01*
X112534744Y-99709918D01*
G36*
X113651093Y-99717780D02*
X113697672Y-99744723D01*
X113730057Y-99771466D01*
X113753742Y-99799484D01*
X113770059Y-99833748D01*
X113780339Y-99879227D01*
X113785914Y-99940892D01*
X113788116Y-100023711D01*
X113788371Y-100083246D01*
X113788371Y-100302391D01*
X113726686Y-100330044D01*
X113665000Y-100357697D01*
X113657743Y-100117670D01*
X113654744Y-100028028D01*
X113651598Y-99962962D01*
X113647701Y-99918026D01*
X113642447Y-99888770D01*
X113635231Y-99870748D01*
X113625450Y-99859511D01*
X113622312Y-99857079D01*
X113574761Y-99838083D01*
X113526697Y-99845600D01*
X113498086Y-99865543D01*
X113486447Y-99879675D01*
X113478391Y-99898220D01*
X113473271Y-99926334D01*
X113470441Y-99969173D01*
X113469256Y-100031895D01*
X113469057Y-100097261D01*
X113469018Y-100179268D01*
X113467614Y-100237316D01*
X113462914Y-100276465D01*
X113452987Y-100301780D01*
X113435903Y-100318323D01*
X113409732Y-100331156D01*
X113374775Y-100344491D01*
X113336596Y-100359007D01*
X113341141Y-100101389D01*
X113342971Y-100008519D01*
X113345112Y-99939889D01*
X113348181Y-99890711D01*
X113352794Y-99856198D01*
X113359568Y-99831562D01*
X113369119Y-99812016D01*
X113380634Y-99794770D01*
X113436190Y-99739680D01*
X113503980Y-99707822D01*
X113577713Y-99700191D01*
X113651093Y-99717780D01*
X113651093Y-99717780D01*
G37*
X113651093Y-99717780D02*
X113697672Y-99744723D01*
X113730057Y-99771466D01*
X113753742Y-99799484D01*
X113770059Y-99833748D01*
X113780339Y-99879227D01*
X113785914Y-99940892D01*
X113788116Y-100023711D01*
X113788371Y-100083246D01*
X113788371Y-100302391D01*
X113726686Y-100330044D01*
X113665000Y-100357697D01*
X113657743Y-100117670D01*
X113654744Y-100028028D01*
X113651598Y-99962962D01*
X113647701Y-99918026D01*
X113642447Y-99888770D01*
X113635231Y-99870748D01*
X113625450Y-99859511D01*
X113622312Y-99857079D01*
X113574761Y-99838083D01*
X113526697Y-99845600D01*
X113498086Y-99865543D01*
X113486447Y-99879675D01*
X113478391Y-99898220D01*
X113473271Y-99926334D01*
X113470441Y-99969173D01*
X113469256Y-100031895D01*
X113469057Y-100097261D01*
X113469018Y-100179268D01*
X113467614Y-100237316D01*
X113462914Y-100276465D01*
X113452987Y-100301780D01*
X113435903Y-100318323D01*
X113409732Y-100331156D01*
X113374775Y-100344491D01*
X113336596Y-100359007D01*
X113341141Y-100101389D01*
X113342971Y-100008519D01*
X113345112Y-99939889D01*
X113348181Y-99890711D01*
X113352794Y-99856198D01*
X113359568Y-99831562D01*
X113369119Y-99812016D01*
X113380634Y-99794770D01*
X113436190Y-99739680D01*
X113503980Y-99707822D01*
X113577713Y-99700191D01*
X113651093Y-99717780D01*
G36*
X111976115Y-99711962D02*
X112044145Y-99747733D01*
X112094351Y-99805301D01*
X112112185Y-99842312D01*
X112126063Y-99897882D01*
X112133167Y-99968096D01*
X112133840Y-100044727D01*
X112128427Y-100119552D01*
X112117270Y-100184342D01*
X112100714Y-100230873D01*
X112095626Y-100238887D01*
X112035355Y-100298707D01*
X111963769Y-100334535D01*
X111886092Y-100345020D01*
X111807548Y-100328810D01*
X111785689Y-100319092D01*
X111743122Y-100289143D01*
X111705763Y-100249433D01*
X111702232Y-100244397D01*
X111687881Y-100220124D01*
X111678394Y-100194178D01*
X111672790Y-100160022D01*
X111670086Y-100111119D01*
X111669299Y-100040935D01*
X111669286Y-100025200D01*
X111669322Y-100020192D01*
X111814429Y-100020192D01*
X111815273Y-100086430D01*
X111818596Y-100130386D01*
X111825583Y-100158779D01*
X111837416Y-100178325D01*
X111843457Y-100184857D01*
X111878186Y-100209680D01*
X111911903Y-100208548D01*
X111945995Y-100187016D01*
X111966329Y-100164029D01*
X111978371Y-100130478D01*
X111985134Y-100077569D01*
X111985598Y-100071399D01*
X111986752Y-99975513D01*
X111974688Y-99904299D01*
X111949570Y-99858194D01*
X111911560Y-99837635D01*
X111897992Y-99836514D01*
X111862364Y-99842152D01*
X111837994Y-99861686D01*
X111823093Y-99899042D01*
X111815875Y-99958150D01*
X111814429Y-100020192D01*
X111669322Y-100020192D01*
X111669826Y-99950413D01*
X111672096Y-99898159D01*
X111677068Y-99861949D01*
X111685713Y-99835299D01*
X111699005Y-99811722D01*
X111701943Y-99807338D01*
X111751313Y-99748249D01*
X111805109Y-99713947D01*
X111870602Y-99700331D01*
X111892842Y-99699665D01*
X111976115Y-99711962D01*
X111976115Y-99711962D01*
G37*
X111976115Y-99711962D02*
X112044145Y-99747733D01*
X112094351Y-99805301D01*
X112112185Y-99842312D01*
X112126063Y-99897882D01*
X112133167Y-99968096D01*
X112133840Y-100044727D01*
X112128427Y-100119552D01*
X112117270Y-100184342D01*
X112100714Y-100230873D01*
X112095626Y-100238887D01*
X112035355Y-100298707D01*
X111963769Y-100334535D01*
X111886092Y-100345020D01*
X111807548Y-100328810D01*
X111785689Y-100319092D01*
X111743122Y-100289143D01*
X111705763Y-100249433D01*
X111702232Y-100244397D01*
X111687881Y-100220124D01*
X111678394Y-100194178D01*
X111672790Y-100160022D01*
X111670086Y-100111119D01*
X111669299Y-100040935D01*
X111669286Y-100025200D01*
X111669322Y-100020192D01*
X111814429Y-100020192D01*
X111815273Y-100086430D01*
X111818596Y-100130386D01*
X111825583Y-100158779D01*
X111837416Y-100178325D01*
X111843457Y-100184857D01*
X111878186Y-100209680D01*
X111911903Y-100208548D01*
X111945995Y-100187016D01*
X111966329Y-100164029D01*
X111978371Y-100130478D01*
X111985134Y-100077569D01*
X111985598Y-100071399D01*
X111986752Y-99975513D01*
X111974688Y-99904299D01*
X111949570Y-99858194D01*
X111911560Y-99837635D01*
X111897992Y-99836514D01*
X111862364Y-99842152D01*
X111837994Y-99861686D01*
X111823093Y-99899042D01*
X111815875Y-99958150D01*
X111814429Y-100020192D01*
X111669322Y-100020192D01*
X111669826Y-99950413D01*
X111672096Y-99898159D01*
X111677068Y-99861949D01*
X111685713Y-99835299D01*
X111699005Y-99811722D01*
X111701943Y-99807338D01*
X111751313Y-99748249D01*
X111805109Y-99713947D01*
X111870602Y-99700331D01*
X111892842Y-99699665D01*
X111976115Y-99711962D01*
G36*
X113103303Y-99721239D02*
X113160527Y-99759735D01*
X113204749Y-99815335D01*
X113231167Y-99886086D01*
X113236510Y-99938162D01*
X113235903Y-99959893D01*
X113230822Y-99976531D01*
X113216855Y-99991437D01*
X113189589Y-100007973D01*
X113144612Y-100029498D01*
X113077511Y-100059374D01*
X113077171Y-100059524D01*
X113015407Y-100087813D01*
X112964759Y-100112933D01*
X112930404Y-100132179D01*
X112917518Y-100142848D01*
X112917514Y-100142934D01*
X112928872Y-100166166D01*
X112955431Y-100191774D01*
X112985923Y-100210221D01*
X113001370Y-100213886D01*
X113043515Y-100201212D01*
X113079808Y-100169471D01*
X113097517Y-100134572D01*
X113114552Y-100108845D01*
X113147922Y-100079546D01*
X113187149Y-100054235D01*
X113221756Y-100040471D01*
X113228993Y-100039714D01*
X113237139Y-100052160D01*
X113237630Y-100083972D01*
X113231643Y-100126866D01*
X113220357Y-100172558D01*
X113204950Y-100212761D01*
X113204171Y-100214322D01*
X113157804Y-100279062D01*
X113097711Y-100323097D01*
X113029465Y-100344711D01*
X112958638Y-100342185D01*
X112890804Y-100313804D01*
X112887788Y-100311808D01*
X112834427Y-100263448D01*
X112799340Y-100200352D01*
X112779922Y-100117387D01*
X112777316Y-100094078D01*
X112772701Y-99984055D01*
X112778233Y-99932748D01*
X112917514Y-99932748D01*
X112919324Y-99964753D01*
X112929222Y-99974093D01*
X112953898Y-99967105D01*
X112992795Y-99950587D01*
X113036275Y-99929881D01*
X113037356Y-99929333D01*
X113074209Y-99909949D01*
X113089000Y-99897013D01*
X113085353Y-99883451D01*
X113069995Y-99865632D01*
X113030923Y-99839845D01*
X112988846Y-99837950D01*
X112951103Y-99856717D01*
X112925034Y-99892915D01*
X112917514Y-99932748D01*
X112778233Y-99932748D01*
X112782194Y-99896027D01*
X112806550Y-99826212D01*
X112840456Y-99777302D01*
X112901653Y-99727878D01*
X112969063Y-99703359D01*
X113037880Y-99701797D01*
X113103303Y-99721239D01*
X113103303Y-99721239D01*
G37*
X113103303Y-99721239D02*
X113160527Y-99759735D01*
X113204749Y-99815335D01*
X113231167Y-99886086D01*
X113236510Y-99938162D01*
X113235903Y-99959893D01*
X113230822Y-99976531D01*
X113216855Y-99991437D01*
X113189589Y-100007973D01*
X113144612Y-100029498D01*
X113077511Y-100059374D01*
X113077171Y-100059524D01*
X113015407Y-100087813D01*
X112964759Y-100112933D01*
X112930404Y-100132179D01*
X112917518Y-100142848D01*
X112917514Y-100142934D01*
X112928872Y-100166166D01*
X112955431Y-100191774D01*
X112985923Y-100210221D01*
X113001370Y-100213886D01*
X113043515Y-100201212D01*
X113079808Y-100169471D01*
X113097517Y-100134572D01*
X113114552Y-100108845D01*
X113147922Y-100079546D01*
X113187149Y-100054235D01*
X113221756Y-100040471D01*
X113228993Y-100039714D01*
X113237139Y-100052160D01*
X113237630Y-100083972D01*
X113231643Y-100126866D01*
X113220357Y-100172558D01*
X113204950Y-100212761D01*
X113204171Y-100214322D01*
X113157804Y-100279062D01*
X113097711Y-100323097D01*
X113029465Y-100344711D01*
X112958638Y-100342185D01*
X112890804Y-100313804D01*
X112887788Y-100311808D01*
X112834427Y-100263448D01*
X112799340Y-100200352D01*
X112779922Y-100117387D01*
X112777316Y-100094078D01*
X112772701Y-99984055D01*
X112778233Y-99932748D01*
X112917514Y-99932748D01*
X112919324Y-99964753D01*
X112929222Y-99974093D01*
X112953898Y-99967105D01*
X112992795Y-99950587D01*
X113036275Y-99929881D01*
X113037356Y-99929333D01*
X113074209Y-99909949D01*
X113089000Y-99897013D01*
X113085353Y-99883451D01*
X113069995Y-99865632D01*
X113030923Y-99839845D01*
X112988846Y-99837950D01*
X112951103Y-99856717D01*
X112925034Y-99892915D01*
X112917514Y-99932748D01*
X112778233Y-99932748D01*
X112782194Y-99896027D01*
X112806550Y-99826212D01*
X112840456Y-99777302D01*
X112901653Y-99727878D01*
X112969063Y-99703359D01*
X113037880Y-99701797D01*
X113103303Y-99721239D01*
G36*
X114310886Y-99641289D02*
X114315139Y-99700613D01*
X114320025Y-99735572D01*
X114326795Y-99750820D01*
X114336702Y-99751015D01*
X114339914Y-99749195D01*
X114382644Y-99736015D01*
X114438227Y-99736785D01*
X114494737Y-99750333D01*
X114530082Y-99767861D01*
X114566321Y-99795861D01*
X114592813Y-99827549D01*
X114610999Y-99867813D01*
X114622322Y-99921543D01*
X114628222Y-99993626D01*
X114630143Y-100088951D01*
X114630177Y-100107237D01*
X114630200Y-100312646D01*
X114584491Y-100328580D01*
X114552027Y-100339420D01*
X114534215Y-100344468D01*
X114533691Y-100344514D01*
X114531937Y-100330828D01*
X114530444Y-100293076D01*
X114529326Y-100236224D01*
X114528697Y-100165234D01*
X114528600Y-100122073D01*
X114528398Y-100036973D01*
X114527358Y-99975981D01*
X114524831Y-99934177D01*
X114520164Y-99906642D01*
X114512707Y-99888456D01*
X114501811Y-99874698D01*
X114495007Y-99868073D01*
X114448272Y-99841375D01*
X114397272Y-99839375D01*
X114351001Y-99861955D01*
X114342444Y-99870107D01*
X114329893Y-99885436D01*
X114321188Y-99903618D01*
X114315631Y-99929909D01*
X114312526Y-99969562D01*
X114311176Y-100027832D01*
X114310886Y-100108173D01*
X114310886Y-100312646D01*
X114265177Y-100328580D01*
X114232713Y-100339420D01*
X114214901Y-100344468D01*
X114214377Y-100344514D01*
X114213037Y-100330623D01*
X114211828Y-100291439D01*
X114210801Y-100230700D01*
X114210002Y-100152141D01*
X114209481Y-100059498D01*
X114209286Y-99956509D01*
X114209286Y-99559342D01*
X114256457Y-99539444D01*
X114303629Y-99519547D01*
X114310886Y-99641289D01*
X114310886Y-99641289D01*
G37*
X114310886Y-99641289D02*
X114315139Y-99700613D01*
X114320025Y-99735572D01*
X114326795Y-99750820D01*
X114336702Y-99751015D01*
X114339914Y-99749195D01*
X114382644Y-99736015D01*
X114438227Y-99736785D01*
X114494737Y-99750333D01*
X114530082Y-99767861D01*
X114566321Y-99795861D01*
X114592813Y-99827549D01*
X114610999Y-99867813D01*
X114622322Y-99921543D01*
X114628222Y-99993626D01*
X114630143Y-100088951D01*
X114630177Y-100107237D01*
X114630200Y-100312646D01*
X114584491Y-100328580D01*
X114552027Y-100339420D01*
X114534215Y-100344468D01*
X114533691Y-100344514D01*
X114531937Y-100330828D01*
X114530444Y-100293076D01*
X114529326Y-100236224D01*
X114528697Y-100165234D01*
X114528600Y-100122073D01*
X114528398Y-100036973D01*
X114527358Y-99975981D01*
X114524831Y-99934177D01*
X114520164Y-99906642D01*
X114512707Y-99888456D01*
X114501811Y-99874698D01*
X114495007Y-99868073D01*
X114448272Y-99841375D01*
X114397272Y-99839375D01*
X114351001Y-99861955D01*
X114342444Y-99870107D01*
X114329893Y-99885436D01*
X114321188Y-99903618D01*
X114315631Y-99929909D01*
X114312526Y-99969562D01*
X114311176Y-100027832D01*
X114310886Y-100108173D01*
X114310886Y-100312646D01*
X114265177Y-100328580D01*
X114232713Y-100339420D01*
X114214901Y-100344468D01*
X114214377Y-100344514D01*
X114213037Y-100330623D01*
X114211828Y-100291439D01*
X114210801Y-100230700D01*
X114210002Y-100152141D01*
X114209481Y-100059498D01*
X114209286Y-99956509D01*
X114209286Y-99559342D01*
X114256457Y-99539444D01*
X114303629Y-99519547D01*
X114310886Y-99641289D01*
G36*
X114974744Y-99740968D02*
X115031616Y-99762087D01*
X115032267Y-99762493D01*
X115067440Y-99788380D01*
X115093407Y-99818633D01*
X115111670Y-99858058D01*
X115123732Y-99911462D01*
X115131096Y-99983651D01*
X115135264Y-100079432D01*
X115135629Y-100093078D01*
X115140876Y-100298842D01*
X115096716Y-100321678D01*
X115064763Y-100337110D01*
X115045470Y-100344423D01*
X115044578Y-100344514D01*
X115041239Y-100331022D01*
X115038587Y-100294626D01*
X115036956Y-100241452D01*
X115036600Y-100198393D01*
X115036592Y-100128641D01*
X115033403Y-100084837D01*
X115022288Y-100063944D01*
X114998501Y-100062925D01*
X114957296Y-100078741D01*
X114895086Y-100107815D01*
X114849341Y-100131963D01*
X114825813Y-100152913D01*
X114818896Y-100175747D01*
X114818886Y-100176877D01*
X114830299Y-100216212D01*
X114864092Y-100237462D01*
X114915809Y-100240539D01*
X114953061Y-100240006D01*
X114972703Y-100250735D01*
X114984952Y-100276505D01*
X114992002Y-100309337D01*
X114981842Y-100327966D01*
X114978017Y-100330632D01*
X114942001Y-100341340D01*
X114891566Y-100342856D01*
X114839626Y-100335759D01*
X114802822Y-100322788D01*
X114751938Y-100279585D01*
X114723014Y-100219446D01*
X114717286Y-100172462D01*
X114721657Y-100130082D01*
X114737475Y-100095488D01*
X114768797Y-100064763D01*
X114819678Y-100033990D01*
X114894176Y-99999252D01*
X114898714Y-99997288D01*
X114965821Y-99966287D01*
X115007232Y-99940862D01*
X115024981Y-99918014D01*
X115021107Y-99894745D01*
X114997643Y-99868056D01*
X114990627Y-99861914D01*
X114943630Y-99838100D01*
X114894933Y-99839103D01*
X114852522Y-99862451D01*
X114824384Y-99905675D01*
X114821769Y-99914160D01*
X114796308Y-99955308D01*
X114764001Y-99975128D01*
X114717286Y-99994770D01*
X114717286Y-99943950D01*
X114731496Y-99870082D01*
X114773675Y-99802327D01*
X114795624Y-99779661D01*
X114845517Y-99750569D01*
X114908967Y-99737400D01*
X114974744Y-99740968D01*
X114974744Y-99740968D01*
G37*
X114974744Y-99740968D02*
X115031616Y-99762087D01*
X115032267Y-99762493D01*
X115067440Y-99788380D01*
X115093407Y-99818633D01*
X115111670Y-99858058D01*
X115123732Y-99911462D01*
X115131096Y-99983651D01*
X115135264Y-100079432D01*
X115135629Y-100093078D01*
X115140876Y-100298842D01*
X115096716Y-100321678D01*
X115064763Y-100337110D01*
X115045470Y-100344423D01*
X115044578Y-100344514D01*
X115041239Y-100331022D01*
X115038587Y-100294626D01*
X115036956Y-100241452D01*
X115036600Y-100198393D01*
X115036592Y-100128641D01*
X115033403Y-100084837D01*
X115022288Y-100063944D01*
X114998501Y-100062925D01*
X114957296Y-100078741D01*
X114895086Y-100107815D01*
X114849341Y-100131963D01*
X114825813Y-100152913D01*
X114818896Y-100175747D01*
X114818886Y-100176877D01*
X114830299Y-100216212D01*
X114864092Y-100237462D01*
X114915809Y-100240539D01*
X114953061Y-100240006D01*
X114972703Y-100250735D01*
X114984952Y-100276505D01*
X114992002Y-100309337D01*
X114981842Y-100327966D01*
X114978017Y-100330632D01*
X114942001Y-100341340D01*
X114891566Y-100342856D01*
X114839626Y-100335759D01*
X114802822Y-100322788D01*
X114751938Y-100279585D01*
X114723014Y-100219446D01*
X114717286Y-100172462D01*
X114721657Y-100130082D01*
X114737475Y-100095488D01*
X114768797Y-100064763D01*
X114819678Y-100033990D01*
X114894176Y-99999252D01*
X114898714Y-99997288D01*
X114965821Y-99966287D01*
X115007232Y-99940862D01*
X115024981Y-99918014D01*
X115021107Y-99894745D01*
X114997643Y-99868056D01*
X114990627Y-99861914D01*
X114943630Y-99838100D01*
X114894933Y-99839103D01*
X114852522Y-99862451D01*
X114824384Y-99905675D01*
X114821769Y-99914160D01*
X114796308Y-99955308D01*
X114764001Y-99975128D01*
X114717286Y-99994770D01*
X114717286Y-99943950D01*
X114731496Y-99870082D01*
X114773675Y-99802327D01*
X114795624Y-99779661D01*
X114845517Y-99750569D01*
X114908967Y-99737400D01*
X114974744Y-99740968D01*
G36*
X115464926Y-99739755D02*
X115530858Y-99764084D01*
X115584273Y-99807117D01*
X115605164Y-99837409D01*
X115627939Y-99892994D01*
X115627466Y-99933186D01*
X115603562Y-99960217D01*
X115594717Y-99964813D01*
X115556530Y-99979144D01*
X115537028Y-99975472D01*
X115530422Y-99951407D01*
X115530086Y-99938114D01*
X115517992Y-99889210D01*
X115486471Y-99854999D01*
X115442659Y-99838476D01*
X115393695Y-99842634D01*
X115353894Y-99864227D01*
X115340450Y-99876544D01*
X115330921Y-99891487D01*
X115324485Y-99914075D01*
X115320317Y-99949328D01*
X115317597Y-100002266D01*
X115315502Y-100077907D01*
X115314960Y-100101857D01*
X115312981Y-100183790D01*
X115310731Y-100241455D01*
X115307357Y-100279608D01*
X115302006Y-100303004D01*
X115293824Y-100316398D01*
X115281959Y-100324545D01*
X115274362Y-100328144D01*
X115242102Y-100340452D01*
X115223111Y-100344514D01*
X115216836Y-100330948D01*
X115213006Y-100289934D01*
X115211600Y-100220999D01*
X115212598Y-100123669D01*
X115212908Y-100108657D01*
X115215101Y-100019859D01*
X115217693Y-99955019D01*
X115221382Y-99909067D01*
X115226864Y-99876935D01*
X115234835Y-99853553D01*
X115245993Y-99833852D01*
X115251830Y-99825410D01*
X115285296Y-99788057D01*
X115322727Y-99759003D01*
X115327309Y-99756467D01*
X115394426Y-99736443D01*
X115464926Y-99739755D01*
X115464926Y-99739755D01*
G37*
X115464926Y-99739755D02*
X115530858Y-99764084D01*
X115584273Y-99807117D01*
X115605164Y-99837409D01*
X115627939Y-99892994D01*
X115627466Y-99933186D01*
X115603562Y-99960217D01*
X115594717Y-99964813D01*
X115556530Y-99979144D01*
X115537028Y-99975472D01*
X115530422Y-99951407D01*
X115530086Y-99938114D01*
X115517992Y-99889210D01*
X115486471Y-99854999D01*
X115442659Y-99838476D01*
X115393695Y-99842634D01*
X115353894Y-99864227D01*
X115340450Y-99876544D01*
X115330921Y-99891487D01*
X115324485Y-99914075D01*
X115320317Y-99949328D01*
X115317597Y-100002266D01*
X115315502Y-100077907D01*
X115314960Y-100101857D01*
X115312981Y-100183790D01*
X115310731Y-100241455D01*
X115307357Y-100279608D01*
X115302006Y-100303004D01*
X115293824Y-100316398D01*
X115281959Y-100324545D01*
X115274362Y-100328144D01*
X115242102Y-100340452D01*
X115223111Y-100344514D01*
X115216836Y-100330948D01*
X115213006Y-100289934D01*
X115211600Y-100220999D01*
X115212598Y-100123669D01*
X115212908Y-100108657D01*
X115215101Y-100019859D01*
X115217693Y-99955019D01*
X115221382Y-99909067D01*
X115226864Y-99876935D01*
X115234835Y-99853553D01*
X115245993Y-99833852D01*
X115251830Y-99825410D01*
X115285296Y-99788057D01*
X115322727Y-99759003D01*
X115327309Y-99756467D01*
X115394426Y-99736443D01*
X115464926Y-99739755D01*
G36*
X116125117Y-99855358D02*
X116124933Y-99963837D01*
X116124219Y-100047287D01*
X116122675Y-100109704D01*
X116120001Y-100155085D01*
X116115894Y-100187429D01*
X116110055Y-100210733D01*
X116102182Y-100228995D01*
X116096221Y-100239418D01*
X116046855Y-100295945D01*
X115984264Y-100331377D01*
X115915013Y-100344090D01*
X115845668Y-100332463D01*
X115804375Y-100311568D01*
X115761025Y-100275422D01*
X115731481Y-100231276D01*
X115713655Y-100173462D01*
X115705463Y-100096313D01*
X115704302Y-100039714D01*
X115704458Y-100035647D01*
X115805857Y-100035647D01*
X115806476Y-100100550D01*
X115809314Y-100143514D01*
X115815840Y-100171622D01*
X115827523Y-100191953D01*
X115841483Y-100207288D01*
X115888365Y-100236890D01*
X115938701Y-100239419D01*
X115986276Y-100214705D01*
X115989979Y-100211356D01*
X116005783Y-100193935D01*
X116015693Y-100173209D01*
X116021058Y-100142362D01*
X116023228Y-100094577D01*
X116023571Y-100041748D01*
X116022827Y-99975381D01*
X116019748Y-99931106D01*
X116013061Y-99902009D01*
X116001496Y-99881173D01*
X115992013Y-99870107D01*
X115947960Y-99842198D01*
X115897224Y-99838843D01*
X115848796Y-99860159D01*
X115839450Y-99868073D01*
X115823540Y-99885647D01*
X115813610Y-99906587D01*
X115808278Y-99937782D01*
X115806163Y-99986122D01*
X115805857Y-100035647D01*
X115704458Y-100035647D01*
X115707810Y-99948568D01*
X115719726Y-99880086D01*
X115742135Y-99828600D01*
X115777124Y-99788443D01*
X115804375Y-99767861D01*
X115853907Y-99745625D01*
X115911316Y-99735304D01*
X115964682Y-99738067D01*
X115994543Y-99749212D01*
X116006261Y-99752383D01*
X116014037Y-99740557D01*
X116019465Y-99708866D01*
X116023571Y-99660593D01*
X116028067Y-99606829D01*
X116034313Y-99574482D01*
X116045676Y-99555985D01*
X116065528Y-99543770D01*
X116078000Y-99538362D01*
X116125171Y-99518601D01*
X116125117Y-99855358D01*
X116125117Y-99855358D01*
G37*
X116125117Y-99855358D02*
X116124933Y-99963837D01*
X116124219Y-100047287D01*
X116122675Y-100109704D01*
X116120001Y-100155085D01*
X116115894Y-100187429D01*
X116110055Y-100210733D01*
X116102182Y-100228995D01*
X116096221Y-100239418D01*
X116046855Y-100295945D01*
X115984264Y-100331377D01*
X115915013Y-100344090D01*
X115845668Y-100332463D01*
X115804375Y-100311568D01*
X115761025Y-100275422D01*
X115731481Y-100231276D01*
X115713655Y-100173462D01*
X115705463Y-100096313D01*
X115704302Y-100039714D01*
X115704458Y-100035647D01*
X115805857Y-100035647D01*
X115806476Y-100100550D01*
X115809314Y-100143514D01*
X115815840Y-100171622D01*
X115827523Y-100191953D01*
X115841483Y-100207288D01*
X115888365Y-100236890D01*
X115938701Y-100239419D01*
X115986276Y-100214705D01*
X115989979Y-100211356D01*
X116005783Y-100193935D01*
X116015693Y-100173209D01*
X116021058Y-100142362D01*
X116023228Y-100094577D01*
X116023571Y-100041748D01*
X116022827Y-99975381D01*
X116019748Y-99931106D01*
X116013061Y-99902009D01*
X116001496Y-99881173D01*
X115992013Y-99870107D01*
X115947960Y-99842198D01*
X115897224Y-99838843D01*
X115848796Y-99860159D01*
X115839450Y-99868073D01*
X115823540Y-99885647D01*
X115813610Y-99906587D01*
X115808278Y-99937782D01*
X115806163Y-99986122D01*
X115805857Y-100035647D01*
X115704458Y-100035647D01*
X115707810Y-99948568D01*
X115719726Y-99880086D01*
X115742135Y-99828600D01*
X115777124Y-99788443D01*
X115804375Y-99767861D01*
X115853907Y-99745625D01*
X115911316Y-99735304D01*
X115964682Y-99738067D01*
X115994543Y-99749212D01*
X116006261Y-99752383D01*
X116014037Y-99740557D01*
X116019465Y-99708866D01*
X116023571Y-99660593D01*
X116028067Y-99606829D01*
X116034313Y-99574482D01*
X116045676Y-99555985D01*
X116065528Y-99543770D01*
X116078000Y-99538362D01*
X116125171Y-99518601D01*
X116125117Y-99855358D01*
G36*
X116714833Y-99748663D02*
X116717048Y-99786850D01*
X116718784Y-99844886D01*
X116719899Y-99918180D01*
X116720257Y-99995055D01*
X116720257Y-100255196D01*
X116674326Y-100301127D01*
X116642675Y-100329429D01*
X116614890Y-100340893D01*
X116576915Y-100340168D01*
X116561840Y-100338321D01*
X116514726Y-100332948D01*
X116475756Y-100329869D01*
X116466257Y-100329585D01*
X116434233Y-100331445D01*
X116388432Y-100336114D01*
X116370674Y-100338321D01*
X116327057Y-100341735D01*
X116297745Y-100334320D01*
X116268680Y-100311427D01*
X116258188Y-100301127D01*
X116212257Y-100255196D01*
X116212257Y-99768602D01*
X116249226Y-99751758D01*
X116281059Y-99739282D01*
X116299683Y-99734914D01*
X116304458Y-99748718D01*
X116308921Y-99787286D01*
X116312775Y-99846356D01*
X116315722Y-99921663D01*
X116317143Y-99985286D01*
X116321114Y-100235657D01*
X116355759Y-100240556D01*
X116387268Y-100237131D01*
X116402708Y-100226041D01*
X116407023Y-100205308D01*
X116410708Y-100161145D01*
X116413469Y-100099146D01*
X116415012Y-100024909D01*
X116415235Y-99986706D01*
X116415457Y-99766783D01*
X116461166Y-99750849D01*
X116493518Y-99740015D01*
X116511115Y-99734962D01*
X116511623Y-99734914D01*
X116513388Y-99748648D01*
X116515329Y-99786730D01*
X116517282Y-99844482D01*
X116519084Y-99917227D01*
X116520343Y-99985286D01*
X116524314Y-100235657D01*
X116611400Y-100235657D01*
X116615396Y-100007240D01*
X116619392Y-99778822D01*
X116661847Y-99756868D01*
X116693192Y-99741793D01*
X116711744Y-99734951D01*
X116712279Y-99734914D01*
X116714833Y-99748663D01*
X116714833Y-99748663D01*
G37*
X116714833Y-99748663D02*
X116717048Y-99786850D01*
X116718784Y-99844886D01*
X116719899Y-99918180D01*
X116720257Y-99995055D01*
X116720257Y-100255196D01*
X116674326Y-100301127D01*
X116642675Y-100329429D01*
X116614890Y-100340893D01*
X116576915Y-100340168D01*
X116561840Y-100338321D01*
X116514726Y-100332948D01*
X116475756Y-100329869D01*
X116466257Y-100329585D01*
X116434233Y-100331445D01*
X116388432Y-100336114D01*
X116370674Y-100338321D01*
X116327057Y-100341735D01*
X116297745Y-100334320D01*
X116268680Y-100311427D01*
X116258188Y-100301127D01*
X116212257Y-100255196D01*
X116212257Y-99768602D01*
X116249226Y-99751758D01*
X116281059Y-99739282D01*
X116299683Y-99734914D01*
X116304458Y-99748718D01*
X116308921Y-99787286D01*
X116312775Y-99846356D01*
X116315722Y-99921663D01*
X116317143Y-99985286D01*
X116321114Y-100235657D01*
X116355759Y-100240556D01*
X116387268Y-100237131D01*
X116402708Y-100226041D01*
X116407023Y-100205308D01*
X116410708Y-100161145D01*
X116413469Y-100099146D01*
X116415012Y-100024909D01*
X116415235Y-99986706D01*
X116415457Y-99766783D01*
X116461166Y-99750849D01*
X116493518Y-99740015D01*
X116511115Y-99734962D01*
X116511623Y-99734914D01*
X116513388Y-99748648D01*
X116515329Y-99786730D01*
X116517282Y-99844482D01*
X116519084Y-99917227D01*
X116520343Y-99985286D01*
X116524314Y-100235657D01*
X116611400Y-100235657D01*
X116615396Y-100007240D01*
X116619392Y-99778822D01*
X116661847Y-99756868D01*
X116693192Y-99741793D01*
X116711744Y-99734951D01*
X116712279Y-99734914D01*
X116714833Y-99748663D01*
G36*
X117079876Y-99746335D02*
X117121667Y-99765344D01*
X117154469Y-99788378D01*
X117178503Y-99814133D01*
X117195097Y-99847358D01*
X117205577Y-99892800D01*
X117211271Y-99955207D01*
X117213507Y-100039327D01*
X117213743Y-100094721D01*
X117213743Y-100310826D01*
X117176774Y-100327670D01*
X117147656Y-100339981D01*
X117133231Y-100344514D01*
X117130472Y-100331025D01*
X117128282Y-100294653D01*
X117126942Y-100241542D01*
X117126657Y-100199372D01*
X117125434Y-100138447D01*
X117122136Y-100090115D01*
X117117321Y-100060518D01*
X117113496Y-100054229D01*
X117087783Y-100060652D01*
X117047418Y-100077125D01*
X117000679Y-100099458D01*
X116955845Y-100123457D01*
X116921193Y-100144930D01*
X116905002Y-100159685D01*
X116904938Y-100159845D01*
X116906330Y-100187152D01*
X116918818Y-100213219D01*
X116940743Y-100234392D01*
X116972743Y-100241474D01*
X117000092Y-100240649D01*
X117038826Y-100240042D01*
X117059158Y-100249116D01*
X117071369Y-100273092D01*
X117072909Y-100277613D01*
X117078203Y-100311806D01*
X117064047Y-100332568D01*
X117027148Y-100342462D01*
X116987289Y-100344292D01*
X116915562Y-100330727D01*
X116878432Y-100311355D01*
X116832576Y-100265845D01*
X116808256Y-100209983D01*
X116806073Y-100150957D01*
X116826629Y-100095953D01*
X116857549Y-100061486D01*
X116888420Y-100042189D01*
X116936942Y-100017759D01*
X116993485Y-99992985D01*
X117002910Y-99989199D01*
X117065019Y-99961791D01*
X117100822Y-99937634D01*
X117112337Y-99913619D01*
X117101580Y-99886635D01*
X117083114Y-99865543D01*
X117039469Y-99839572D01*
X116991446Y-99837624D01*
X116947406Y-99857637D01*
X116915709Y-99897551D01*
X116911549Y-99907848D01*
X116887327Y-99945724D01*
X116851965Y-99973842D01*
X116807343Y-99996917D01*
X116807343Y-99931485D01*
X116809969Y-99891506D01*
X116821230Y-99859997D01*
X116846199Y-99826378D01*
X116870169Y-99800484D01*
X116907441Y-99763817D01*
X116936401Y-99744121D01*
X116967505Y-99736220D01*
X117002713Y-99734914D01*
X117079876Y-99746335D01*
X117079876Y-99746335D01*
G37*
X117079876Y-99746335D02*
X117121667Y-99765344D01*
X117154469Y-99788378D01*
X117178503Y-99814133D01*
X117195097Y-99847358D01*
X117205577Y-99892800D01*
X117211271Y-99955207D01*
X117213507Y-100039327D01*
X117213743Y-100094721D01*
X117213743Y-100310826D01*
X117176774Y-100327670D01*
X117147656Y-100339981D01*
X117133231Y-100344514D01*
X117130472Y-100331025D01*
X117128282Y-100294653D01*
X117126942Y-100241542D01*
X117126657Y-100199372D01*
X117125434Y-100138447D01*
X117122136Y-100090115D01*
X117117321Y-100060518D01*
X117113496Y-100054229D01*
X117087783Y-100060652D01*
X117047418Y-100077125D01*
X117000679Y-100099458D01*
X116955845Y-100123457D01*
X116921193Y-100144930D01*
X116905002Y-100159685D01*
X116904938Y-100159845D01*
X116906330Y-100187152D01*
X116918818Y-100213219D01*
X116940743Y-100234392D01*
X116972743Y-100241474D01*
X117000092Y-100240649D01*
X117038826Y-100240042D01*
X117059158Y-100249116D01*
X117071369Y-100273092D01*
X117072909Y-100277613D01*
X117078203Y-100311806D01*
X117064047Y-100332568D01*
X117027148Y-100342462D01*
X116987289Y-100344292D01*
X116915562Y-100330727D01*
X116878432Y-100311355D01*
X116832576Y-100265845D01*
X116808256Y-100209983D01*
X116806073Y-100150957D01*
X116826629Y-100095953D01*
X116857549Y-100061486D01*
X116888420Y-100042189D01*
X116936942Y-100017759D01*
X116993485Y-99992985D01*
X117002910Y-99989199D01*
X117065019Y-99961791D01*
X117100822Y-99937634D01*
X117112337Y-99913619D01*
X117101580Y-99886635D01*
X117083114Y-99865543D01*
X117039469Y-99839572D01*
X116991446Y-99837624D01*
X116947406Y-99857637D01*
X116915709Y-99897551D01*
X116911549Y-99907848D01*
X116887327Y-99945724D01*
X116851965Y-99973842D01*
X116807343Y-99996917D01*
X116807343Y-99931485D01*
X116809969Y-99891506D01*
X116821230Y-99859997D01*
X116846199Y-99826378D01*
X116870169Y-99800484D01*
X116907441Y-99763817D01*
X116936401Y-99744121D01*
X116967505Y-99736220D01*
X117002713Y-99734914D01*
X117079876Y-99746335D01*
G36*
X117587600Y-99748752D02*
X117604948Y-99756334D01*
X117646356Y-99789128D01*
X117681765Y-99836547D01*
X117703664Y-99887151D01*
X117707229Y-99912098D01*
X117695279Y-99946927D01*
X117669067Y-99965357D01*
X117640964Y-99976516D01*
X117628095Y-99978572D01*
X117621829Y-99963649D01*
X117609456Y-99931175D01*
X117604028Y-99916502D01*
X117573590Y-99865744D01*
X117529520Y-99840427D01*
X117473010Y-99841206D01*
X117468825Y-99842203D01*
X117438655Y-99856507D01*
X117416476Y-99884393D01*
X117401327Y-99929287D01*
X117392250Y-99994615D01*
X117388286Y-100083804D01*
X117387914Y-100131261D01*
X117387730Y-100206071D01*
X117386522Y-100257069D01*
X117383309Y-100289471D01*
X117377109Y-100308495D01*
X117366940Y-100319356D01*
X117351819Y-100327272D01*
X117350946Y-100327670D01*
X117321828Y-100339981D01*
X117307403Y-100344514D01*
X117305186Y-100330809D01*
X117303289Y-100292925D01*
X117301847Y-100235715D01*
X117300998Y-100164027D01*
X117300829Y-100111565D01*
X117301692Y-100010047D01*
X117305070Y-99933032D01*
X117312142Y-99876023D01*
X117324088Y-99834526D01*
X117342090Y-99804043D01*
X117367327Y-99780080D01*
X117392247Y-99763355D01*
X117452171Y-99741097D01*
X117521911Y-99736076D01*
X117587600Y-99748752D01*
X117587600Y-99748752D01*
G37*
X117587600Y-99748752D02*
X117604948Y-99756334D01*
X117646356Y-99789128D01*
X117681765Y-99836547D01*
X117703664Y-99887151D01*
X117707229Y-99912098D01*
X117695279Y-99946927D01*
X117669067Y-99965357D01*
X117640964Y-99976516D01*
X117628095Y-99978572D01*
X117621829Y-99963649D01*
X117609456Y-99931175D01*
X117604028Y-99916502D01*
X117573590Y-99865744D01*
X117529520Y-99840427D01*
X117473010Y-99841206D01*
X117468825Y-99842203D01*
X117438655Y-99856507D01*
X117416476Y-99884393D01*
X117401327Y-99929287D01*
X117392250Y-99994615D01*
X117388286Y-100083804D01*
X117387914Y-100131261D01*
X117387730Y-100206071D01*
X117386522Y-100257069D01*
X117383309Y-100289471D01*
X117377109Y-100308495D01*
X117366940Y-100319356D01*
X117351819Y-100327272D01*
X117350946Y-100327670D01*
X117321828Y-100339981D01*
X117307403Y-100344514D01*
X117305186Y-100330809D01*
X117303289Y-100292925D01*
X117301847Y-100235715D01*
X117300998Y-100164027D01*
X117300829Y-100111565D01*
X117301692Y-100010047D01*
X117305070Y-99933032D01*
X117312142Y-99876023D01*
X117324088Y-99834526D01*
X117342090Y-99804043D01*
X117367327Y-99780080D01*
X117392247Y-99763355D01*
X117452171Y-99741097D01*
X117521911Y-99736076D01*
X117587600Y-99748752D01*
G36*
X118088595Y-99756966D02*
X118146021Y-99794497D01*
X118173719Y-99828096D01*
X118195662Y-99889064D01*
X118197405Y-99937308D01*
X118193457Y-100001816D01*
X118044686Y-100066934D01*
X117972349Y-100100202D01*
X117925084Y-100126964D01*
X117900507Y-100150144D01*
X117896237Y-100172667D01*
X117909889Y-100197455D01*
X117924943Y-100213886D01*
X117968746Y-100240235D01*
X118016389Y-100242081D01*
X118060145Y-100221546D01*
X118092289Y-100180752D01*
X118098038Y-100166347D01*
X118125576Y-100121356D01*
X118157258Y-100102182D01*
X118200714Y-100085779D01*
X118200714Y-100147966D01*
X118196872Y-100190283D01*
X118181823Y-100225969D01*
X118150280Y-100266943D01*
X118145592Y-100272267D01*
X118110506Y-100308720D01*
X118080347Y-100328283D01*
X118042615Y-100337283D01*
X118011335Y-100340230D01*
X117955385Y-100340965D01*
X117915555Y-100331660D01*
X117890708Y-100317846D01*
X117851656Y-100287467D01*
X117824625Y-100254613D01*
X117807517Y-100213294D01*
X117798238Y-100157521D01*
X117794693Y-100081305D01*
X117794410Y-100042622D01*
X117795372Y-99996247D01*
X117883007Y-99996247D01*
X117884023Y-100021126D01*
X117886556Y-100025200D01*
X117903274Y-100019665D01*
X117939249Y-100005017D01*
X117987331Y-99984190D01*
X117997386Y-99979714D01*
X118058152Y-99948814D01*
X118091632Y-99921657D01*
X118098990Y-99896220D01*
X118081391Y-99870481D01*
X118066856Y-99859109D01*
X118014410Y-99836364D01*
X117965322Y-99840122D01*
X117924227Y-99867884D01*
X117895758Y-99917152D01*
X117886631Y-99956257D01*
X117883007Y-99996247D01*
X117795372Y-99996247D01*
X117796285Y-99952249D01*
X117803196Y-99885384D01*
X117816884Y-99836695D01*
X117839096Y-99800849D01*
X117871574Y-99772513D01*
X117885733Y-99763355D01*
X117950053Y-99739507D01*
X118020473Y-99738006D01*
X118088595Y-99756966D01*
X118088595Y-99756966D01*
G37*
X118088595Y-99756966D02*
X118146021Y-99794497D01*
X118173719Y-99828096D01*
X118195662Y-99889064D01*
X118197405Y-99937308D01*
X118193457Y-100001816D01*
X118044686Y-100066934D01*
X117972349Y-100100202D01*
X117925084Y-100126964D01*
X117900507Y-100150144D01*
X117896237Y-100172667D01*
X117909889Y-100197455D01*
X117924943Y-100213886D01*
X117968746Y-100240235D01*
X118016389Y-100242081D01*
X118060145Y-100221546D01*
X118092289Y-100180752D01*
X118098038Y-100166347D01*
X118125576Y-100121356D01*
X118157258Y-100102182D01*
X118200714Y-100085779D01*
X118200714Y-100147966D01*
X118196872Y-100190283D01*
X118181823Y-100225969D01*
X118150280Y-100266943D01*
X118145592Y-100272267D01*
X118110506Y-100308720D01*
X118080347Y-100328283D01*
X118042615Y-100337283D01*
X118011335Y-100340230D01*
X117955385Y-100340965D01*
X117915555Y-100331660D01*
X117890708Y-100317846D01*
X117851656Y-100287467D01*
X117824625Y-100254613D01*
X117807517Y-100213294D01*
X117798238Y-100157521D01*
X117794693Y-100081305D01*
X117794410Y-100042622D01*
X117795372Y-99996247D01*
X117883007Y-99996247D01*
X117884023Y-100021126D01*
X117886556Y-100025200D01*
X117903274Y-100019665D01*
X117939249Y-100005017D01*
X117987331Y-99984190D01*
X117997386Y-99979714D01*
X118058152Y-99948814D01*
X118091632Y-99921657D01*
X118098990Y-99896220D01*
X118081391Y-99870481D01*
X118066856Y-99859109D01*
X118014410Y-99836364D01*
X117965322Y-99840122D01*
X117924227Y-99867884D01*
X117895758Y-99917152D01*
X117886631Y-99956257D01*
X117883007Y-99996247D01*
X117795372Y-99996247D01*
X117796285Y-99952249D01*
X117803196Y-99885384D01*
X117816884Y-99836695D01*
X117839096Y-99800849D01*
X117871574Y-99772513D01*
X117885733Y-99763355D01*
X117950053Y-99739507D01*
X118020473Y-99738006D01*
X118088595Y-99756966D01*
G36*
X115038910Y-95032348D02*
X115117454Y-95032778D01*
X115174298Y-95033942D01*
X115213105Y-95036207D01*
X115237538Y-95039940D01*
X115251262Y-95045506D01*
X115257940Y-95053273D01*
X115261236Y-95063605D01*
X115261556Y-95064943D01*
X115266562Y-95089079D01*
X115275829Y-95136701D01*
X115288392Y-95202741D01*
X115303287Y-95282128D01*
X115319551Y-95369796D01*
X115320119Y-95372875D01*
X115336410Y-95458789D01*
X115351652Y-95534696D01*
X115364861Y-95596045D01*
X115375054Y-95638282D01*
X115381248Y-95656855D01*
X115381543Y-95657184D01*
X115399788Y-95666253D01*
X115437405Y-95681367D01*
X115486271Y-95699262D01*
X115486543Y-95699358D01*
X115548093Y-95722493D01*
X115620657Y-95751965D01*
X115689057Y-95781597D01*
X115692294Y-95783062D01*
X115803702Y-95833626D01*
X116050399Y-95665160D01*
X116126077Y-95613803D01*
X116194631Y-95567889D01*
X116252088Y-95530030D01*
X116294476Y-95502837D01*
X116317825Y-95488921D01*
X116320042Y-95487889D01*
X116337010Y-95492484D01*
X116368701Y-95514655D01*
X116416352Y-95555447D01*
X116481198Y-95615905D01*
X116547397Y-95680227D01*
X116611214Y-95743612D01*
X116668329Y-95801451D01*
X116715305Y-95850175D01*
X116748703Y-95886210D01*
X116765085Y-95905984D01*
X116765694Y-95907002D01*
X116767505Y-95920572D01*
X116760683Y-95942733D01*
X116743540Y-95976478D01*
X116714393Y-96024800D01*
X116671555Y-96090692D01*
X116614448Y-96175517D01*
X116563766Y-96250177D01*
X116518461Y-96317140D01*
X116481150Y-96372516D01*
X116454452Y-96412420D01*
X116440985Y-96432962D01*
X116440137Y-96434356D01*
X116441781Y-96454038D01*
X116454245Y-96492293D01*
X116475048Y-96541889D01*
X116482462Y-96557728D01*
X116514814Y-96628290D01*
X116549328Y-96708353D01*
X116577365Y-96777629D01*
X116597568Y-96829045D01*
X116613615Y-96868119D01*
X116622888Y-96888541D01*
X116624041Y-96890114D01*
X116641096Y-96892721D01*
X116681298Y-96899863D01*
X116739302Y-96910523D01*
X116809763Y-96923685D01*
X116887335Y-96938333D01*
X116966672Y-96953449D01*
X117042431Y-96968018D01*
X117109264Y-96981022D01*
X117161828Y-96991445D01*
X117194776Y-96998270D01*
X117202857Y-97000199D01*
X117211205Y-97004962D01*
X117217506Y-97015718D01*
X117222045Y-97036098D01*
X117225104Y-97069734D01*
X117226967Y-97120255D01*
X117227918Y-97191292D01*
X117228240Y-97286476D01*
X117228257Y-97325492D01*
X117228257Y-97642799D01*
X117152057Y-97657839D01*
X117109663Y-97665995D01*
X117046400Y-97677899D01*
X116969962Y-97692116D01*
X116888043Y-97707210D01*
X116865400Y-97711355D01*
X116789806Y-97726053D01*
X116723953Y-97740505D01*
X116673366Y-97753375D01*
X116643574Y-97763322D01*
X116638612Y-97766287D01*
X116626426Y-97787283D01*
X116608953Y-97827967D01*
X116589577Y-97880322D01*
X116585734Y-97891600D01*
X116560339Y-97961523D01*
X116528817Y-98040418D01*
X116497969Y-98111266D01*
X116497817Y-98111595D01*
X116446447Y-98222733D01*
X116615399Y-98471253D01*
X116784352Y-98719772D01*
X116567429Y-98937058D01*
X116501819Y-99001726D01*
X116441979Y-99058733D01*
X116391267Y-99105033D01*
X116353046Y-99137584D01*
X116330675Y-99153343D01*
X116327466Y-99154343D01*
X116308626Y-99146469D01*
X116270180Y-99124578D01*
X116216330Y-99091267D01*
X116151276Y-99049131D01*
X116080940Y-99001943D01*
X116009555Y-98953810D01*
X115945908Y-98911928D01*
X115894041Y-98878871D01*
X115857995Y-98857218D01*
X115841867Y-98849543D01*
X115822189Y-98856037D01*
X115784875Y-98873150D01*
X115737621Y-98897326D01*
X115732612Y-98900013D01*
X115668977Y-98931927D01*
X115625341Y-98947579D01*
X115598202Y-98947745D01*
X115584057Y-98933204D01*
X115583975Y-98933000D01*
X115576905Y-98915779D01*
X115560042Y-98874899D01*
X115534695Y-98813525D01*
X115502171Y-98734819D01*
X115463778Y-98641947D01*
X115420822Y-98538072D01*
X115379222Y-98437502D01*
X115333504Y-98326516D01*
X115291526Y-98223703D01*
X115254548Y-98132215D01*
X115223827Y-98055201D01*
X115200622Y-97995815D01*
X115186190Y-97957209D01*
X115181743Y-97942800D01*
X115192896Y-97926272D01*
X115222069Y-97899930D01*
X115260971Y-97870887D01*
X115371757Y-97779039D01*
X115458351Y-97673759D01*
X115519716Y-97557266D01*
X115554815Y-97431776D01*
X115562608Y-97299507D01*
X115556943Y-97238457D01*
X115526078Y-97111795D01*
X115472920Y-96999941D01*
X115400767Y-96904001D01*
X115312917Y-96825076D01*
X115212665Y-96764270D01*
X115103310Y-96722687D01*
X114988147Y-96701428D01*
X114870475Y-96701599D01*
X114753590Y-96724301D01*
X114640789Y-96770638D01*
X114535369Y-96841713D01*
X114491368Y-96881911D01*
X114406979Y-96985129D01*
X114348222Y-97097925D01*
X114314704Y-97217010D01*
X114306035Y-97339095D01*
X114321823Y-97460893D01*
X114361678Y-97579116D01*
X114425207Y-97690475D01*
X114512021Y-97791684D01*
X114609029Y-97870887D01*
X114649437Y-97901162D01*
X114677982Y-97927219D01*
X114688257Y-97942825D01*
X114682877Y-97959843D01*
X114667575Y-98000500D01*
X114643612Y-98061642D01*
X114612244Y-98140119D01*
X114574732Y-98232780D01*
X114532333Y-98336472D01*
X114490663Y-98437526D01*
X114444690Y-98548607D01*
X114402107Y-98651541D01*
X114364221Y-98743165D01*
X114332340Y-98820316D01*
X114307771Y-98879831D01*
X114291820Y-98918544D01*
X114285910Y-98933000D01*
X114271948Y-98947685D01*
X114244940Y-98947642D01*
X114201413Y-98932099D01*
X114137890Y-98900284D01*
X114137388Y-98900013D01*
X114089560Y-98875323D01*
X114050897Y-98857338D01*
X114029095Y-98849614D01*
X114028133Y-98849543D01*
X114011721Y-98857378D01*
X113975487Y-98879165D01*
X113923474Y-98912328D01*
X113859725Y-98954291D01*
X113789060Y-99001943D01*
X113717116Y-99050191D01*
X113652274Y-99092151D01*
X113598735Y-99125227D01*
X113560697Y-99146821D01*
X113542533Y-99154343D01*
X113525808Y-99144457D01*
X113492180Y-99116826D01*
X113445010Y-99074495D01*
X113387658Y-99020505D01*
X113323484Y-98957899D01*
X113302497Y-98936983D01*
X113085499Y-98719623D01*
X113250668Y-98477220D01*
X113300864Y-98402781D01*
X113344919Y-98335972D01*
X113380362Y-98280665D01*
X113404719Y-98240729D01*
X113415522Y-98220036D01*
X113415838Y-98218563D01*
X113410143Y-98199058D01*
X113394826Y-98159822D01*
X113372537Y-98107430D01*
X113356893Y-98072355D01*
X113327641Y-98005201D01*
X113300094Y-97937358D01*
X113278737Y-97880034D01*
X113272935Y-97862572D01*
X113256452Y-97815938D01*
X113240340Y-97779905D01*
X113231490Y-97766287D01*
X113211960Y-97757952D01*
X113169334Y-97746137D01*
X113109145Y-97732181D01*
X113036922Y-97717422D01*
X113004600Y-97711355D01*
X112922522Y-97696273D01*
X112843795Y-97681669D01*
X112776109Y-97668980D01*
X112727160Y-97659642D01*
X112717943Y-97657839D01*
X112641743Y-97642799D01*
X112641743Y-97325492D01*
X112641914Y-97221154D01*
X112642616Y-97142213D01*
X112644134Y-97085038D01*
X112646749Y-97045999D01*
X112650746Y-97021465D01*
X112656409Y-97007805D01*
X112664020Y-97001389D01*
X112667143Y-97000199D01*
X112685978Y-96995980D01*
X112727588Y-96987562D01*
X112786630Y-96975961D01*
X112857757Y-96962195D01*
X112935625Y-96947280D01*
X113014887Y-96932232D01*
X113090198Y-96918069D01*
X113156213Y-96905806D01*
X113207587Y-96896461D01*
X113238975Y-96891050D01*
X113245959Y-96890114D01*
X113252285Y-96877596D01*
X113266290Y-96844246D01*
X113285355Y-96796377D01*
X113292634Y-96777629D01*
X113321996Y-96705195D01*
X113356571Y-96625170D01*
X113387537Y-96557728D01*
X113410323Y-96506159D01*
X113425482Y-96463785D01*
X113430542Y-96437834D01*
X113429736Y-96434356D01*
X113419041Y-96417936D01*
X113394620Y-96381417D01*
X113359095Y-96328687D01*
X113315087Y-96263635D01*
X113265217Y-96190151D01*
X113255356Y-96175645D01*
X113197492Y-96089704D01*
X113154956Y-96024261D01*
X113126054Y-95976304D01*
X113109090Y-95942820D01*
X113102367Y-95920795D01*
X113104190Y-95907217D01*
X113104236Y-95907131D01*
X113118586Y-95889297D01*
X113150323Y-95854817D01*
X113196010Y-95807268D01*
X113252204Y-95750222D01*
X113315468Y-95687255D01*
X113322602Y-95680227D01*
X113402330Y-95603020D01*
X113463857Y-95546330D01*
X113508421Y-95509110D01*
X113537257Y-95490315D01*
X113549958Y-95487889D01*
X113568494Y-95498471D01*
X113606961Y-95522916D01*
X113661386Y-95558612D01*
X113727798Y-95602947D01*
X113802225Y-95653311D01*
X113819601Y-95665160D01*
X114066297Y-95833626D01*
X114177706Y-95783062D01*
X114245457Y-95753595D01*
X114318183Y-95723959D01*
X114380703Y-95700330D01*
X114383457Y-95699358D01*
X114432360Y-95681457D01*
X114470057Y-95666320D01*
X114488425Y-95657210D01*
X114488456Y-95657184D01*
X114494285Y-95640717D01*
X114504192Y-95600219D01*
X114517195Y-95540242D01*
X114532309Y-95465340D01*
X114548552Y-95380064D01*
X114549881Y-95372875D01*
X114566175Y-95285014D01*
X114581133Y-95205260D01*
X114593791Y-95138681D01*
X114603186Y-95090347D01*
X114608354Y-95065325D01*
X114608444Y-95064943D01*
X114611589Y-95054299D01*
X114617704Y-95046262D01*
X114630453Y-95040467D01*
X114653500Y-95036547D01*
X114690509Y-95034135D01*
X114745144Y-95032865D01*
X114821067Y-95032371D01*
X114921944Y-95032286D01*
X114935000Y-95032286D01*
X115038910Y-95032348D01*
X115038910Y-95032348D01*
G37*
X115038910Y-95032348D02*
X115117454Y-95032778D01*
X115174298Y-95033942D01*
X115213105Y-95036207D01*
X115237538Y-95039940D01*
X115251262Y-95045506D01*
X115257940Y-95053273D01*
X115261236Y-95063605D01*
X115261556Y-95064943D01*
X115266562Y-95089079D01*
X115275829Y-95136701D01*
X115288392Y-95202741D01*
X115303287Y-95282128D01*
X115319551Y-95369796D01*
X115320119Y-95372875D01*
X115336410Y-95458789D01*
X115351652Y-95534696D01*
X115364861Y-95596045D01*
X115375054Y-95638282D01*
X115381248Y-95656855D01*
X115381543Y-95657184D01*
X115399788Y-95666253D01*
X115437405Y-95681367D01*
X115486271Y-95699262D01*
X115486543Y-95699358D01*
X115548093Y-95722493D01*
X115620657Y-95751965D01*
X115689057Y-95781597D01*
X115692294Y-95783062D01*
X115803702Y-95833626D01*
X116050399Y-95665160D01*
X116126077Y-95613803D01*
X116194631Y-95567889D01*
X116252088Y-95530030D01*
X116294476Y-95502837D01*
X116317825Y-95488921D01*
X116320042Y-95487889D01*
X116337010Y-95492484D01*
X116368701Y-95514655D01*
X116416352Y-95555447D01*
X116481198Y-95615905D01*
X116547397Y-95680227D01*
X116611214Y-95743612D01*
X116668329Y-95801451D01*
X116715305Y-95850175D01*
X116748703Y-95886210D01*
X116765085Y-95905984D01*
X116765694Y-95907002D01*
X116767505Y-95920572D01*
X116760683Y-95942733D01*
X116743540Y-95976478D01*
X116714393Y-96024800D01*
X116671555Y-96090692D01*
X116614448Y-96175517D01*
X116563766Y-96250177D01*
X116518461Y-96317140D01*
X116481150Y-96372516D01*
X116454452Y-96412420D01*
X116440985Y-96432962D01*
X116440137Y-96434356D01*
X116441781Y-96454038D01*
X116454245Y-96492293D01*
X116475048Y-96541889D01*
X116482462Y-96557728D01*
X116514814Y-96628290D01*
X116549328Y-96708353D01*
X116577365Y-96777629D01*
X116597568Y-96829045D01*
X116613615Y-96868119D01*
X116622888Y-96888541D01*
X116624041Y-96890114D01*
X116641096Y-96892721D01*
X116681298Y-96899863D01*
X116739302Y-96910523D01*
X116809763Y-96923685D01*
X116887335Y-96938333D01*
X116966672Y-96953449D01*
X117042431Y-96968018D01*
X117109264Y-96981022D01*
X117161828Y-96991445D01*
X117194776Y-96998270D01*
X117202857Y-97000199D01*
X117211205Y-97004962D01*
X117217506Y-97015718D01*
X117222045Y-97036098D01*
X117225104Y-97069734D01*
X117226967Y-97120255D01*
X117227918Y-97191292D01*
X117228240Y-97286476D01*
X117228257Y-97325492D01*
X117228257Y-97642799D01*
X117152057Y-97657839D01*
X117109663Y-97665995D01*
X117046400Y-97677899D01*
X116969962Y-97692116D01*
X116888043Y-97707210D01*
X116865400Y-97711355D01*
X116789806Y-97726053D01*
X116723953Y-97740505D01*
X116673366Y-97753375D01*
X116643574Y-97763322D01*
X116638612Y-97766287D01*
X116626426Y-97787283D01*
X116608953Y-97827967D01*
X116589577Y-97880322D01*
X116585734Y-97891600D01*
X116560339Y-97961523D01*
X116528817Y-98040418D01*
X116497969Y-98111266D01*
X116497817Y-98111595D01*
X116446447Y-98222733D01*
X116615399Y-98471253D01*
X116784352Y-98719772D01*
X116567429Y-98937058D01*
X116501819Y-99001726D01*
X116441979Y-99058733D01*
X116391267Y-99105033D01*
X116353046Y-99137584D01*
X116330675Y-99153343D01*
X116327466Y-99154343D01*
X116308626Y-99146469D01*
X116270180Y-99124578D01*
X116216330Y-99091267D01*
X116151276Y-99049131D01*
X116080940Y-99001943D01*
X116009555Y-98953810D01*
X115945908Y-98911928D01*
X115894041Y-98878871D01*
X115857995Y-98857218D01*
X115841867Y-98849543D01*
X115822189Y-98856037D01*
X115784875Y-98873150D01*
X115737621Y-98897326D01*
X115732612Y-98900013D01*
X115668977Y-98931927D01*
X115625341Y-98947579D01*
X115598202Y-98947745D01*
X115584057Y-98933204D01*
X115583975Y-98933000D01*
X115576905Y-98915779D01*
X115560042Y-98874899D01*
X115534695Y-98813525D01*
X115502171Y-98734819D01*
X115463778Y-98641947D01*
X115420822Y-98538072D01*
X115379222Y-98437502D01*
X115333504Y-98326516D01*
X115291526Y-98223703D01*
X115254548Y-98132215D01*
X115223827Y-98055201D01*
X115200622Y-97995815D01*
X115186190Y-97957209D01*
X115181743Y-97942800D01*
X115192896Y-97926272D01*
X115222069Y-97899930D01*
X115260971Y-97870887D01*
X115371757Y-97779039D01*
X115458351Y-97673759D01*
X115519716Y-97557266D01*
X115554815Y-97431776D01*
X115562608Y-97299507D01*
X115556943Y-97238457D01*
X115526078Y-97111795D01*
X115472920Y-96999941D01*
X115400767Y-96904001D01*
X115312917Y-96825076D01*
X115212665Y-96764270D01*
X115103310Y-96722687D01*
X114988147Y-96701428D01*
X114870475Y-96701599D01*
X114753590Y-96724301D01*
X114640789Y-96770638D01*
X114535369Y-96841713D01*
X114491368Y-96881911D01*
X114406979Y-96985129D01*
X114348222Y-97097925D01*
X114314704Y-97217010D01*
X114306035Y-97339095D01*
X114321823Y-97460893D01*
X114361678Y-97579116D01*
X114425207Y-97690475D01*
X114512021Y-97791684D01*
X114609029Y-97870887D01*
X114649437Y-97901162D01*
X114677982Y-97927219D01*
X114688257Y-97942825D01*
X114682877Y-97959843D01*
X114667575Y-98000500D01*
X114643612Y-98061642D01*
X114612244Y-98140119D01*
X114574732Y-98232780D01*
X114532333Y-98336472D01*
X114490663Y-98437526D01*
X114444690Y-98548607D01*
X114402107Y-98651541D01*
X114364221Y-98743165D01*
X114332340Y-98820316D01*
X114307771Y-98879831D01*
X114291820Y-98918544D01*
X114285910Y-98933000D01*
X114271948Y-98947685D01*
X114244940Y-98947642D01*
X114201413Y-98932099D01*
X114137890Y-98900284D01*
X114137388Y-98900013D01*
X114089560Y-98875323D01*
X114050897Y-98857338D01*
X114029095Y-98849614D01*
X114028133Y-98849543D01*
X114011721Y-98857378D01*
X113975487Y-98879165D01*
X113923474Y-98912328D01*
X113859725Y-98954291D01*
X113789060Y-99001943D01*
X113717116Y-99050191D01*
X113652274Y-99092151D01*
X113598735Y-99125227D01*
X113560697Y-99146821D01*
X113542533Y-99154343D01*
X113525808Y-99144457D01*
X113492180Y-99116826D01*
X113445010Y-99074495D01*
X113387658Y-99020505D01*
X113323484Y-98957899D01*
X113302497Y-98936983D01*
X113085499Y-98719623D01*
X113250668Y-98477220D01*
X113300864Y-98402781D01*
X113344919Y-98335972D01*
X113380362Y-98280665D01*
X113404719Y-98240729D01*
X113415522Y-98220036D01*
X113415838Y-98218563D01*
X113410143Y-98199058D01*
X113394826Y-98159822D01*
X113372537Y-98107430D01*
X113356893Y-98072355D01*
X113327641Y-98005201D01*
X113300094Y-97937358D01*
X113278737Y-97880034D01*
X113272935Y-97862572D01*
X113256452Y-97815938D01*
X113240340Y-97779905D01*
X113231490Y-97766287D01*
X113211960Y-97757952D01*
X113169334Y-97746137D01*
X113109145Y-97732181D01*
X113036922Y-97717422D01*
X113004600Y-97711355D01*
X112922522Y-97696273D01*
X112843795Y-97681669D01*
X112776109Y-97668980D01*
X112727160Y-97659642D01*
X112717943Y-97657839D01*
X112641743Y-97642799D01*
X112641743Y-97325492D01*
X112641914Y-97221154D01*
X112642616Y-97142213D01*
X112644134Y-97085038D01*
X112646749Y-97045999D01*
X112650746Y-97021465D01*
X112656409Y-97007805D01*
X112664020Y-97001389D01*
X112667143Y-97000199D01*
X112685978Y-96995980D01*
X112727588Y-96987562D01*
X112786630Y-96975961D01*
X112857757Y-96962195D01*
X112935625Y-96947280D01*
X113014887Y-96932232D01*
X113090198Y-96918069D01*
X113156213Y-96905806D01*
X113207587Y-96896461D01*
X113238975Y-96891050D01*
X113245959Y-96890114D01*
X113252285Y-96877596D01*
X113266290Y-96844246D01*
X113285355Y-96796377D01*
X113292634Y-96777629D01*
X113321996Y-96705195D01*
X113356571Y-96625170D01*
X113387537Y-96557728D01*
X113410323Y-96506159D01*
X113425482Y-96463785D01*
X113430542Y-96437834D01*
X113429736Y-96434356D01*
X113419041Y-96417936D01*
X113394620Y-96381417D01*
X113359095Y-96328687D01*
X113315087Y-96263635D01*
X113265217Y-96190151D01*
X113255356Y-96175645D01*
X113197492Y-96089704D01*
X113154956Y-96024261D01*
X113126054Y-95976304D01*
X113109090Y-95942820D01*
X113102367Y-95920795D01*
X113104190Y-95907217D01*
X113104236Y-95907131D01*
X113118586Y-95889297D01*
X113150323Y-95854817D01*
X113196010Y-95807268D01*
X113252204Y-95750222D01*
X113315468Y-95687255D01*
X113322602Y-95680227D01*
X113402330Y-95603020D01*
X113463857Y-95546330D01*
X113508421Y-95509110D01*
X113537257Y-95490315D01*
X113549958Y-95487889D01*
X113568494Y-95498471D01*
X113606961Y-95522916D01*
X113661386Y-95558612D01*
X113727798Y-95602947D01*
X113802225Y-95653311D01*
X113819601Y-95665160D01*
X114066297Y-95833626D01*
X114177706Y-95783062D01*
X114245457Y-95753595D01*
X114318183Y-95723959D01*
X114380703Y-95700330D01*
X114383457Y-95699358D01*
X114432360Y-95681457D01*
X114470057Y-95666320D01*
X114488425Y-95657210D01*
X114488456Y-95657184D01*
X114494285Y-95640717D01*
X114504192Y-95600219D01*
X114517195Y-95540242D01*
X114532309Y-95465340D01*
X114548552Y-95380064D01*
X114549881Y-95372875D01*
X114566175Y-95285014D01*
X114581133Y-95205260D01*
X114593791Y-95138681D01*
X114603186Y-95090347D01*
X114608354Y-95065325D01*
X114608444Y-95064943D01*
X114611589Y-95054299D01*
X114617704Y-95046262D01*
X114630453Y-95040467D01*
X114653500Y-95036547D01*
X114690509Y-95034135D01*
X114745144Y-95032865D01*
X114821067Y-95032371D01*
X114921944Y-95032286D01*
X114935000Y-95032286D01*
X115038910Y-95032348D01*
D15*
G04 #@! TO.C,CNX6*
X141545000Y-75505000D02*
X142875000Y-75505000D01*
X141545000Y-76835000D02*
X141545000Y-75505000D01*
X144145000Y-75505000D02*
X146745000Y-75505000D01*
X144145000Y-78105000D02*
X144145000Y-75505000D01*
X141545000Y-78105000D02*
X144145000Y-78105000D01*
X146745000Y-75505000D02*
X146745000Y-88325000D01*
X141545000Y-78105000D02*
X141545000Y-79375000D01*
X141545000Y-88325000D02*
X146745000Y-88325000D01*
X141545000Y-84455000D02*
X141545000Y-88325000D01*
D14*
G04 #@! TO.C,REF\002A\002A*
X63754000Y-98425000D02*
X63436500Y-98107500D01*
X61087000Y-95758000D02*
X61417200Y-96088200D01*
D11*
G36*
X63754000Y-96520000D02*
X63754000Y-97663000D01*
X62992000Y-98425000D01*
X61849000Y-98425000D01*
X61087000Y-97663000D01*
X61087000Y-96520000D01*
X61849000Y-95758000D01*
X62992000Y-95758000D01*
X63754000Y-96520000D01*
G37*
X63754000Y-96520000D02*
X63754000Y-97663000D01*
X62992000Y-98425000D01*
X61849000Y-98425000D01*
X61087000Y-97663000D01*
X61087000Y-96520000D01*
X61849000Y-95758000D01*
X62992000Y-95758000D01*
X63754000Y-96520000D01*
D14*
X64516000Y-95758000D02*
X64846200Y-96088200D01*
D10*
X65278000Y-98425000D02*
X66421000Y-98425000D01*
X64516000Y-97663000D02*
X65278000Y-98425000D01*
X64516000Y-96520000D02*
X64516000Y-97663000D01*
X65278000Y-95758000D02*
X64516000Y-96520000D01*
X66294000Y-95758000D02*
X65278000Y-95758000D01*
X67183000Y-96520000D02*
X66421000Y-95758000D01*
X67183000Y-97663000D02*
X67183000Y-96520000D01*
X66421000Y-98425000D02*
X67183000Y-97663000D01*
D14*
X67183000Y-98425000D02*
X66865500Y-98107500D01*
D11*
G04 #@! TO.C,IC1*
X75100000Y-67915000D02*
X76475000Y-67915000D01*
X75100000Y-57790000D02*
X70950000Y-57790000D01*
X75100000Y-67940000D02*
X70950000Y-67940000D01*
X75100000Y-57790000D02*
X75100000Y-57895000D01*
X70950000Y-57790000D02*
X70950000Y-57895000D01*
X70950000Y-67940000D02*
X70950000Y-67835000D01*
X75100000Y-67940000D02*
X75100000Y-67915000D01*
G04 #@! TO.C,IC2*
X95420000Y-67940000D02*
X95420000Y-67915000D01*
X91270000Y-67940000D02*
X91270000Y-67835000D01*
X91270000Y-57790000D02*
X91270000Y-57895000D01*
X95420000Y-57790000D02*
X95420000Y-57895000D01*
X95420000Y-67940000D02*
X91270000Y-67940000D01*
X95420000Y-57790000D02*
X91270000Y-57790000D01*
X95420000Y-67915000D02*
X96795000Y-67915000D01*
G04 #@! TO.C,IC3*
X125900000Y-67915000D02*
X127275000Y-67915000D01*
X125900000Y-57790000D02*
X121750000Y-57790000D01*
X125900000Y-67940000D02*
X121750000Y-67940000D01*
X125900000Y-57790000D02*
X125900000Y-57895000D01*
X121750000Y-57790000D02*
X121750000Y-57895000D01*
X121750000Y-67940000D02*
X121750000Y-67835000D01*
X125900000Y-67940000D02*
X125900000Y-67915000D01*
D15*
G04 #@! TO.C,R3*
X74965000Y-93100000D02*
X76165000Y-93100000D01*
X76165000Y-94860000D02*
X74965000Y-94860000D01*
G04 #@! TO.C,R4*
X86325000Y-94860000D02*
X85125000Y-94860000D01*
X85125000Y-93100000D02*
X86325000Y-93100000D01*
G04 #@! TO.C,R5*
X95285000Y-93100000D02*
X96485000Y-93100000D01*
X96485000Y-94860000D02*
X95285000Y-94860000D01*
G04 #@! TO.C,R6*
X106645000Y-94860000D02*
X105445000Y-94860000D01*
X105445000Y-93100000D02*
X106645000Y-93100000D01*
G04 #@! TO.C,R7*
X115605000Y-93100000D02*
X116805000Y-93100000D01*
X116805000Y-94860000D02*
X115605000Y-94860000D01*
G04 #@! TO.C,R8*
X126965000Y-94860000D02*
X125765000Y-94860000D01*
X125765000Y-93100000D02*
X126965000Y-93100000D01*
G04 #@! TO.C,R9*
X135925000Y-93100000D02*
X137125000Y-93100000D01*
X137125000Y-94860000D02*
X135925000Y-94860000D01*
G04 #@! TO.C,R10*
X140170000Y-95930000D02*
X140170000Y-94730000D01*
X141930000Y-94730000D02*
X141930000Y-95930000D01*
G04 #@! TO.C,C1*
D11*
X67270333Y-64111142D02*
X67222714Y-64158761D01*
X67079857Y-64206380D01*
X66984619Y-64206380D01*
X66841761Y-64158761D01*
X66746523Y-64063523D01*
X66698904Y-63968285D01*
X66651285Y-63777809D01*
X66651285Y-63634952D01*
X66698904Y-63444476D01*
X66746523Y-63349238D01*
X66841761Y-63254000D01*
X66984619Y-63206380D01*
X67079857Y-63206380D01*
X67222714Y-63254000D01*
X67270333Y-63301619D01*
X68222714Y-64206380D02*
X67651285Y-64206380D01*
X67937000Y-64206380D02*
X67937000Y-63206380D01*
X67841761Y-63349238D01*
X67746523Y-63444476D01*
X67651285Y-63492095D01*
X66516380Y-64984380D02*
X66611619Y-64984380D01*
X66706857Y-65032000D01*
X66754476Y-65079619D01*
X66802095Y-65174857D01*
X66849714Y-65365333D01*
X66849714Y-65603428D01*
X66802095Y-65793904D01*
X66754476Y-65889142D01*
X66706857Y-65936761D01*
X66611619Y-65984380D01*
X66516380Y-65984380D01*
X66421142Y-65936761D01*
X66373523Y-65889142D01*
X66325904Y-65793904D01*
X66278285Y-65603428D01*
X66278285Y-65365333D01*
X66325904Y-65174857D01*
X66373523Y-65079619D01*
X66421142Y-65032000D01*
X66516380Y-64984380D01*
X67278285Y-65317714D02*
X67278285Y-66317714D01*
X67754476Y-65841523D02*
X67802095Y-65936761D01*
X67897333Y-65984380D01*
X67278285Y-65841523D02*
X67325904Y-65936761D01*
X67421142Y-65984380D01*
X67611619Y-65984380D01*
X67706857Y-65936761D01*
X67754476Y-65841523D01*
X67754476Y-65317714D01*
X68849714Y-65984380D02*
X68278285Y-65984380D01*
X68564000Y-65984380D02*
X68564000Y-64984380D01*
X68468761Y-65127238D01*
X68373523Y-65222476D01*
X68278285Y-65270095D01*
X67270333Y-64111142D02*
X67222714Y-64158761D01*
X67079857Y-64206380D01*
X66984619Y-64206380D01*
X66841761Y-64158761D01*
X66746523Y-64063523D01*
X66698904Y-63968285D01*
X66651285Y-63777809D01*
X66651285Y-63634952D01*
X66698904Y-63444476D01*
X66746523Y-63349238D01*
X66841761Y-63254000D01*
X66984619Y-63206380D01*
X67079857Y-63206380D01*
X67222714Y-63254000D01*
X67270333Y-63301619D01*
X68222714Y-64206380D02*
X67651285Y-64206380D01*
X67937000Y-64206380D02*
X67937000Y-63206380D01*
X67841761Y-63349238D01*
X67746523Y-63444476D01*
X67651285Y-63492095D01*
G04 #@! TO.C,C2*
X85558333Y-68302142D02*
X85510714Y-68349761D01*
X85367857Y-68397380D01*
X85272619Y-68397380D01*
X85129761Y-68349761D01*
X85034523Y-68254523D01*
X84986904Y-68159285D01*
X84939285Y-67968809D01*
X84939285Y-67825952D01*
X84986904Y-67635476D01*
X85034523Y-67540238D01*
X85129761Y-67445000D01*
X85272619Y-67397380D01*
X85367857Y-67397380D01*
X85510714Y-67445000D01*
X85558333Y-67492619D01*
X85939285Y-67492619D02*
X85986904Y-67445000D01*
X86082142Y-67397380D01*
X86320238Y-67397380D01*
X86415476Y-67445000D01*
X86463095Y-67492619D01*
X86510714Y-67587857D01*
X86510714Y-67683095D01*
X86463095Y-67825952D01*
X85891666Y-68397380D01*
X86510714Y-68397380D01*
X84677380Y-68667380D02*
X84772619Y-68667380D01*
X84867857Y-68715000D01*
X84915476Y-68762619D01*
X84963095Y-68857857D01*
X85010714Y-69048333D01*
X85010714Y-69286428D01*
X84963095Y-69476904D01*
X84915476Y-69572142D01*
X84867857Y-69619761D01*
X84772619Y-69667380D01*
X84677380Y-69667380D01*
X84582142Y-69619761D01*
X84534523Y-69572142D01*
X84486904Y-69476904D01*
X84439285Y-69286428D01*
X84439285Y-69048333D01*
X84486904Y-68857857D01*
X84534523Y-68762619D01*
X84582142Y-68715000D01*
X84677380Y-68667380D01*
X85439285Y-69000714D02*
X85439285Y-70000714D01*
X85915476Y-69524523D02*
X85963095Y-69619761D01*
X86058333Y-69667380D01*
X85439285Y-69524523D02*
X85486904Y-69619761D01*
X85582142Y-69667380D01*
X85772619Y-69667380D01*
X85867857Y-69619761D01*
X85915476Y-69524523D01*
X85915476Y-69000714D01*
X87010714Y-69667380D02*
X86439285Y-69667380D01*
X86725000Y-69667380D02*
X86725000Y-68667380D01*
X86629761Y-68810238D01*
X86534523Y-68905476D01*
X86439285Y-68953095D01*
G04 #@! TO.C,C3*
X116038333Y-68302142D02*
X115990714Y-68349761D01*
X115847857Y-68397380D01*
X115752619Y-68397380D01*
X115609761Y-68349761D01*
X115514523Y-68254523D01*
X115466904Y-68159285D01*
X115419285Y-67968809D01*
X115419285Y-67825952D01*
X115466904Y-67635476D01*
X115514523Y-67540238D01*
X115609761Y-67445000D01*
X115752619Y-67397380D01*
X115847857Y-67397380D01*
X115990714Y-67445000D01*
X116038333Y-67492619D01*
X116371666Y-67397380D02*
X116990714Y-67397380D01*
X116657380Y-67778333D01*
X116800238Y-67778333D01*
X116895476Y-67825952D01*
X116943095Y-67873571D01*
X116990714Y-67968809D01*
X116990714Y-68206904D01*
X116943095Y-68302142D01*
X116895476Y-68349761D01*
X116800238Y-68397380D01*
X116514523Y-68397380D01*
X116419285Y-68349761D01*
X116371666Y-68302142D01*
X115157380Y-68667380D02*
X115252619Y-68667380D01*
X115347857Y-68715000D01*
X115395476Y-68762619D01*
X115443095Y-68857857D01*
X115490714Y-69048333D01*
X115490714Y-69286428D01*
X115443095Y-69476904D01*
X115395476Y-69572142D01*
X115347857Y-69619761D01*
X115252619Y-69667380D01*
X115157380Y-69667380D01*
X115062142Y-69619761D01*
X115014523Y-69572142D01*
X114966904Y-69476904D01*
X114919285Y-69286428D01*
X114919285Y-69048333D01*
X114966904Y-68857857D01*
X115014523Y-68762619D01*
X115062142Y-68715000D01*
X115157380Y-68667380D01*
X115919285Y-69000714D02*
X115919285Y-70000714D01*
X116395476Y-69524523D02*
X116443095Y-69619761D01*
X116538333Y-69667380D01*
X115919285Y-69524523D02*
X115966904Y-69619761D01*
X116062142Y-69667380D01*
X116252619Y-69667380D01*
X116347857Y-69619761D01*
X116395476Y-69524523D01*
X116395476Y-69000714D01*
X117490714Y-69667380D02*
X116919285Y-69667380D01*
X117205000Y-69667380D02*
X117205000Y-68667380D01*
X117109761Y-68810238D01*
X117014523Y-68905476D01*
X116919285Y-68953095D01*
G04 #@! TO.C,R2*
X82383333Y-62047380D02*
X82050000Y-61571190D01*
X81811904Y-62047380D02*
X81811904Y-61047380D01*
X82192857Y-61047380D01*
X82288095Y-61095000D01*
X82335714Y-61142619D01*
X82383333Y-61237857D01*
X82383333Y-61380714D01*
X82335714Y-61475952D01*
X82288095Y-61523571D01*
X82192857Y-61571190D01*
X81811904Y-61571190D01*
X82764285Y-61142619D02*
X82811904Y-61095000D01*
X82907142Y-61047380D01*
X83145238Y-61047380D01*
X83240476Y-61095000D01*
X83288095Y-61142619D01*
X83335714Y-61237857D01*
X83335714Y-61333095D01*
X83288095Y-61475952D01*
X82716666Y-62047380D01*
X83335714Y-62047380D01*
X85764761Y-62047380D02*
X85193333Y-62047380D01*
X85479047Y-62047380D02*
X85479047Y-61047380D01*
X85383809Y-61190238D01*
X85288571Y-61285476D01*
X85193333Y-61333095D01*
X86383809Y-61047380D02*
X86479047Y-61047380D01*
X86574285Y-61095000D01*
X86621904Y-61142619D01*
X86669523Y-61237857D01*
X86717142Y-61428333D01*
X86717142Y-61666428D01*
X86669523Y-61856904D01*
X86621904Y-61952142D01*
X86574285Y-61999761D01*
X86479047Y-62047380D01*
X86383809Y-62047380D01*
X86288571Y-61999761D01*
X86240952Y-61952142D01*
X86193333Y-61856904D01*
X86145714Y-61666428D01*
X86145714Y-61428333D01*
X86193333Y-61237857D01*
X86240952Y-61142619D01*
X86288571Y-61095000D01*
X86383809Y-61047380D01*
X87145714Y-62047380D02*
X87145714Y-61047380D01*
X87240952Y-61666428D02*
X87526666Y-62047380D01*
X87526666Y-61380714D02*
X87145714Y-61761666D01*
G04 #@! TO.C,R1*
X82383333Y-58237380D02*
X82050000Y-57761190D01*
X81811904Y-58237380D02*
X81811904Y-57237380D01*
X82192857Y-57237380D01*
X82288095Y-57285000D01*
X82335714Y-57332619D01*
X82383333Y-57427857D01*
X82383333Y-57570714D01*
X82335714Y-57665952D01*
X82288095Y-57713571D01*
X82192857Y-57761190D01*
X81811904Y-57761190D01*
X83335714Y-58237380D02*
X82764285Y-58237380D01*
X83050000Y-58237380D02*
X83050000Y-57237380D01*
X82954761Y-57380238D01*
X82859523Y-57475476D01*
X82764285Y-57523095D01*
X85764761Y-58237380D02*
X85193333Y-58237380D01*
X85479047Y-58237380D02*
X85479047Y-57237380D01*
X85383809Y-57380238D01*
X85288571Y-57475476D01*
X85193333Y-57523095D01*
X86383809Y-57237380D02*
X86479047Y-57237380D01*
X86574285Y-57285000D01*
X86621904Y-57332619D01*
X86669523Y-57427857D01*
X86717142Y-57618333D01*
X86717142Y-57856428D01*
X86669523Y-58046904D01*
X86621904Y-58142142D01*
X86574285Y-58189761D01*
X86479047Y-58237380D01*
X86383809Y-58237380D01*
X86288571Y-58189761D01*
X86240952Y-58142142D01*
X86193333Y-58046904D01*
X86145714Y-57856428D01*
X86145714Y-57618333D01*
X86193333Y-57427857D01*
X86240952Y-57332619D01*
X86288571Y-57285000D01*
X86383809Y-57237380D01*
X87145714Y-58237380D02*
X87145714Y-57237380D01*
X87240952Y-57856428D02*
X87526666Y-58237380D01*
X87526666Y-57570714D02*
X87145714Y-57951666D01*
G04 #@! TO.C,CNX1*
X89638333Y-94337142D02*
X89590714Y-94384761D01*
X89447857Y-94432380D01*
X89352619Y-94432380D01*
X89209761Y-94384761D01*
X89114523Y-94289523D01*
X89066904Y-94194285D01*
X89019285Y-94003809D01*
X89019285Y-93860952D01*
X89066904Y-93670476D01*
X89114523Y-93575238D01*
X89209761Y-93480000D01*
X89352619Y-93432380D01*
X89447857Y-93432380D01*
X89590714Y-93480000D01*
X89638333Y-93527619D01*
X90066904Y-94432380D02*
X90066904Y-93432380D01*
X90638333Y-94432380D01*
X90638333Y-93432380D01*
X91019285Y-93432380D02*
X91685952Y-94432380D01*
X91685952Y-93432380D02*
X91019285Y-94432380D01*
X92590714Y-94432380D02*
X92019285Y-94432380D01*
X92305000Y-94432380D02*
X92305000Y-93432380D01*
X92209761Y-93575238D01*
X92114523Y-93670476D01*
X92019285Y-93718095D01*
G04 #@! TO.C,CNX2*
X99798333Y-94337142D02*
X99750714Y-94384761D01*
X99607857Y-94432380D01*
X99512619Y-94432380D01*
X99369761Y-94384761D01*
X99274523Y-94289523D01*
X99226904Y-94194285D01*
X99179285Y-94003809D01*
X99179285Y-93860952D01*
X99226904Y-93670476D01*
X99274523Y-93575238D01*
X99369761Y-93480000D01*
X99512619Y-93432380D01*
X99607857Y-93432380D01*
X99750714Y-93480000D01*
X99798333Y-93527619D01*
X100226904Y-94432380D02*
X100226904Y-93432380D01*
X100798333Y-94432380D01*
X100798333Y-93432380D01*
X101179285Y-93432380D02*
X101845952Y-94432380D01*
X101845952Y-93432380D02*
X101179285Y-94432380D01*
X102179285Y-93527619D02*
X102226904Y-93480000D01*
X102322142Y-93432380D01*
X102560238Y-93432380D01*
X102655476Y-93480000D01*
X102703095Y-93527619D01*
X102750714Y-93622857D01*
X102750714Y-93718095D01*
X102703095Y-93860952D01*
X102131666Y-94432380D01*
X102750714Y-94432380D01*
G04 #@! TO.C,CNX3*
X109958333Y-94337142D02*
X109910714Y-94384761D01*
X109767857Y-94432380D01*
X109672619Y-94432380D01*
X109529761Y-94384761D01*
X109434523Y-94289523D01*
X109386904Y-94194285D01*
X109339285Y-94003809D01*
X109339285Y-93860952D01*
X109386904Y-93670476D01*
X109434523Y-93575238D01*
X109529761Y-93480000D01*
X109672619Y-93432380D01*
X109767857Y-93432380D01*
X109910714Y-93480000D01*
X109958333Y-93527619D01*
X110386904Y-94432380D02*
X110386904Y-93432380D01*
X110958333Y-94432380D01*
X110958333Y-93432380D01*
X111339285Y-93432380D02*
X112005952Y-94432380D01*
X112005952Y-93432380D02*
X111339285Y-94432380D01*
X112291666Y-93432380D02*
X112910714Y-93432380D01*
X112577380Y-93813333D01*
X112720238Y-93813333D01*
X112815476Y-93860952D01*
X112863095Y-93908571D01*
X112910714Y-94003809D01*
X112910714Y-94241904D01*
X112863095Y-94337142D01*
X112815476Y-94384761D01*
X112720238Y-94432380D01*
X112434523Y-94432380D01*
X112339285Y-94384761D01*
X112291666Y-94337142D01*
G04 #@! TO.C,CNX4*
X120118333Y-94337142D02*
X120070714Y-94384761D01*
X119927857Y-94432380D01*
X119832619Y-94432380D01*
X119689761Y-94384761D01*
X119594523Y-94289523D01*
X119546904Y-94194285D01*
X119499285Y-94003809D01*
X119499285Y-93860952D01*
X119546904Y-93670476D01*
X119594523Y-93575238D01*
X119689761Y-93480000D01*
X119832619Y-93432380D01*
X119927857Y-93432380D01*
X120070714Y-93480000D01*
X120118333Y-93527619D01*
X120546904Y-94432380D02*
X120546904Y-93432380D01*
X121118333Y-94432380D01*
X121118333Y-93432380D01*
X121499285Y-93432380D02*
X122165952Y-94432380D01*
X122165952Y-93432380D02*
X121499285Y-94432380D01*
X122975476Y-93765714D02*
X122975476Y-94432380D01*
X122737380Y-93384761D02*
X122499285Y-94099047D01*
X123118333Y-94099047D01*
G04 #@! TO.C,CNX5*
X130278333Y-94337142D02*
X130230714Y-94384761D01*
X130087857Y-94432380D01*
X129992619Y-94432380D01*
X129849761Y-94384761D01*
X129754523Y-94289523D01*
X129706904Y-94194285D01*
X129659285Y-94003809D01*
X129659285Y-93860952D01*
X129706904Y-93670476D01*
X129754523Y-93575238D01*
X129849761Y-93480000D01*
X129992619Y-93432380D01*
X130087857Y-93432380D01*
X130230714Y-93480000D01*
X130278333Y-93527619D01*
X130706904Y-94432380D02*
X130706904Y-93432380D01*
X131278333Y-94432380D01*
X131278333Y-93432380D01*
X131659285Y-93432380D02*
X132325952Y-94432380D01*
X132325952Y-93432380D02*
X131659285Y-94432380D01*
X133183095Y-93432380D02*
X132706904Y-93432380D01*
X132659285Y-93908571D01*
X132706904Y-93860952D01*
X132802142Y-93813333D01*
X133040238Y-93813333D01*
X133135476Y-93860952D01*
X133183095Y-93908571D01*
X133230714Y-94003809D01*
X133230714Y-94241904D01*
X133183095Y-94337142D01*
X133135476Y-94384761D01*
X133040238Y-94432380D01*
X132802142Y-94432380D01*
X132706904Y-94384761D01*
X132659285Y-94337142D01*
G04 #@! TO.C,CNY1*
X69365952Y-94337142D02*
X69318333Y-94384761D01*
X69175476Y-94432380D01*
X69080238Y-94432380D01*
X68937380Y-94384761D01*
X68842142Y-94289523D01*
X68794523Y-94194285D01*
X68746904Y-94003809D01*
X68746904Y-93860952D01*
X68794523Y-93670476D01*
X68842142Y-93575238D01*
X68937380Y-93480000D01*
X69080238Y-93432380D01*
X69175476Y-93432380D01*
X69318333Y-93480000D01*
X69365952Y-93527619D01*
X69794523Y-94432380D02*
X69794523Y-93432380D01*
X70365952Y-94432380D01*
X70365952Y-93432380D01*
X71032619Y-93956190D02*
X71032619Y-94432380D01*
X70699285Y-93432380D02*
X71032619Y-93956190D01*
X71365952Y-93432380D01*
X72223095Y-94432380D02*
X71651666Y-94432380D01*
X71937380Y-94432380D02*
X71937380Y-93432380D01*
X71842142Y-93575238D01*
X71746904Y-93670476D01*
X71651666Y-93718095D01*
G04 #@! TO.C,CNY2*
X79525952Y-94337142D02*
X79478333Y-94384761D01*
X79335476Y-94432380D01*
X79240238Y-94432380D01*
X79097380Y-94384761D01*
X79002142Y-94289523D01*
X78954523Y-94194285D01*
X78906904Y-94003809D01*
X78906904Y-93860952D01*
X78954523Y-93670476D01*
X79002142Y-93575238D01*
X79097380Y-93480000D01*
X79240238Y-93432380D01*
X79335476Y-93432380D01*
X79478333Y-93480000D01*
X79525952Y-93527619D01*
X79954523Y-94432380D02*
X79954523Y-93432380D01*
X80525952Y-94432380D01*
X80525952Y-93432380D01*
X81192619Y-93956190D02*
X81192619Y-94432380D01*
X80859285Y-93432380D02*
X81192619Y-93956190D01*
X81525952Y-93432380D01*
X81811666Y-93527619D02*
X81859285Y-93480000D01*
X81954523Y-93432380D01*
X82192619Y-93432380D01*
X82287857Y-93480000D01*
X82335476Y-93527619D01*
X82383095Y-93622857D01*
X82383095Y-93718095D01*
X82335476Y-93860952D01*
X81764047Y-94432380D01*
X82383095Y-94432380D01*
G04 #@! TO.C,CN1*
X62174523Y-89682142D02*
X62126904Y-89729761D01*
X61984047Y-89777380D01*
X61888809Y-89777380D01*
X61745952Y-89729761D01*
X61650714Y-89634523D01*
X61603095Y-89539285D01*
X61555476Y-89348809D01*
X61555476Y-89205952D01*
X61603095Y-89015476D01*
X61650714Y-88920238D01*
X61745952Y-88825000D01*
X61888809Y-88777380D01*
X61984047Y-88777380D01*
X62126904Y-88825000D01*
X62174523Y-88872619D01*
X62603095Y-89777380D02*
X62603095Y-88777380D01*
X63174523Y-89777380D01*
X63174523Y-88777380D01*
X64174523Y-89777380D02*
X63603095Y-89777380D01*
X63888809Y-89777380D02*
X63888809Y-88777380D01*
X63793571Y-88920238D01*
X63698333Y-89015476D01*
X63603095Y-89063095D01*
G04 #@! TO.C,CNX6*
X140438333Y-99417142D02*
X140390714Y-99464761D01*
X140247857Y-99512380D01*
X140152619Y-99512380D01*
X140009761Y-99464761D01*
X139914523Y-99369523D01*
X139866904Y-99274285D01*
X139819285Y-99083809D01*
X139819285Y-98940952D01*
X139866904Y-98750476D01*
X139914523Y-98655238D01*
X140009761Y-98560000D01*
X140152619Y-98512380D01*
X140247857Y-98512380D01*
X140390714Y-98560000D01*
X140438333Y-98607619D01*
X140866904Y-99512380D02*
X140866904Y-98512380D01*
X141438333Y-99512380D01*
X141438333Y-98512380D01*
X141819285Y-98512380D02*
X142485952Y-99512380D01*
X142485952Y-98512380D02*
X141819285Y-99512380D01*
X143295476Y-98512380D02*
X143105000Y-98512380D01*
X143009761Y-98560000D01*
X142962142Y-98607619D01*
X142866904Y-98750476D01*
X142819285Y-98940952D01*
X142819285Y-99321904D01*
X142866904Y-99417142D01*
X142914523Y-99464761D01*
X143009761Y-99512380D01*
X143200238Y-99512380D01*
X143295476Y-99464761D01*
X143343095Y-99417142D01*
X143390714Y-99321904D01*
X143390714Y-99083809D01*
X143343095Y-98988571D01*
X143295476Y-98940952D01*
X143200238Y-98893333D01*
X143009761Y-98893333D01*
X142914523Y-98940952D01*
X142866904Y-98988571D01*
X142819285Y-99083809D01*
G04 #@! TO.C,REF\002A\002A*
D14*
X62620238Y-99369571D02*
X62286904Y-99369571D01*
X62221428Y-99893380D02*
X62346428Y-98893380D01*
X62822619Y-98893380D01*
X63554761Y-99893380D02*
X63078571Y-99893380D01*
X63203571Y-98893380D01*
X63888095Y-99893380D02*
X64013095Y-98893380D01*
X64364285Y-99893380D02*
X64489285Y-98893380D01*
X64870238Y-98893380D01*
X64959523Y-98941000D01*
X65001190Y-98988619D01*
X65036904Y-99083857D01*
X65019047Y-99226714D01*
X64959523Y-99321952D01*
X64905952Y-99369571D01*
X64804761Y-99417190D01*
X64423809Y-99417190D01*
X65322619Y-99845761D02*
X65459523Y-99893380D01*
X65697619Y-99893380D01*
X65798809Y-99845761D01*
X65852380Y-99798142D01*
X65911904Y-99702904D01*
X65923809Y-99607666D01*
X65888095Y-99512428D01*
X65846428Y-99464809D01*
X65757142Y-99417190D01*
X65572619Y-99369571D01*
X65483333Y-99321952D01*
X65441666Y-99274333D01*
X65405952Y-99179095D01*
X65417857Y-99083857D01*
X65477380Y-98988619D01*
X65530952Y-98941000D01*
X65632142Y-98893380D01*
X65870238Y-98893380D01*
X66007142Y-98941000D01*
G04 #@! TO.C,IC1*
D11*
X72048809Y-69317380D02*
X72048809Y-68317380D01*
X73096428Y-69222142D02*
X73048809Y-69269761D01*
X72905952Y-69317380D01*
X72810714Y-69317380D01*
X72667857Y-69269761D01*
X72572619Y-69174523D01*
X72525000Y-69079285D01*
X72477380Y-68888809D01*
X72477380Y-68745952D01*
X72525000Y-68555476D01*
X72572619Y-68460238D01*
X72667857Y-68365000D01*
X72810714Y-68317380D01*
X72905952Y-68317380D01*
X73048809Y-68365000D01*
X73096428Y-68412619D01*
X74048809Y-69317380D02*
X73477380Y-69317380D01*
X73763095Y-69317380D02*
X73763095Y-68317380D01*
X73667857Y-68460238D01*
X73572619Y-68555476D01*
X73477380Y-68603095D01*
G04 #@! TO.C,IC2*
X92368809Y-69317380D02*
X92368809Y-68317380D01*
X93416428Y-69222142D02*
X93368809Y-69269761D01*
X93225952Y-69317380D01*
X93130714Y-69317380D01*
X92987857Y-69269761D01*
X92892619Y-69174523D01*
X92845000Y-69079285D01*
X92797380Y-68888809D01*
X92797380Y-68745952D01*
X92845000Y-68555476D01*
X92892619Y-68460238D01*
X92987857Y-68365000D01*
X93130714Y-68317380D01*
X93225952Y-68317380D01*
X93368809Y-68365000D01*
X93416428Y-68412619D01*
X93797380Y-68412619D02*
X93845000Y-68365000D01*
X93940238Y-68317380D01*
X94178333Y-68317380D01*
X94273571Y-68365000D01*
X94321190Y-68412619D01*
X94368809Y-68507857D01*
X94368809Y-68603095D01*
X94321190Y-68745952D01*
X93749761Y-69317380D01*
X94368809Y-69317380D01*
G04 #@! TO.C,IC3*
X122848809Y-69317380D02*
X122848809Y-68317380D01*
X123896428Y-69222142D02*
X123848809Y-69269761D01*
X123705952Y-69317380D01*
X123610714Y-69317380D01*
X123467857Y-69269761D01*
X123372619Y-69174523D01*
X123325000Y-69079285D01*
X123277380Y-68888809D01*
X123277380Y-68745952D01*
X123325000Y-68555476D01*
X123372619Y-68460238D01*
X123467857Y-68365000D01*
X123610714Y-68317380D01*
X123705952Y-68317380D01*
X123848809Y-68365000D01*
X123896428Y-68412619D01*
X124229761Y-68317380D02*
X124848809Y-68317380D01*
X124515476Y-68698333D01*
X124658333Y-68698333D01*
X124753571Y-68745952D01*
X124801190Y-68793571D01*
X124848809Y-68888809D01*
X124848809Y-69126904D01*
X124801190Y-69222142D01*
X124753571Y-69269761D01*
X124658333Y-69317380D01*
X124372619Y-69317380D01*
X124277380Y-69269761D01*
X124229761Y-69222142D01*
G04 #@! TD*
M02*
