G04 #@! TF.GenerationSoftware,KiCad,Pcbnew,(5.0.1)-4*
G04 #@! TF.CreationDate,2018-11-25T16:04:59+01:00*
G04 #@! TF.ProjectId,Flips6,466C697073362E6B696361645F706362,V1.0*
G04 #@! TF.SameCoordinates,Original*
G04 #@! TF.FileFunction,Copper,L2,Bot,Signal*
G04 #@! TF.FilePolarity,Positive*
%FSLAX46Y46*%
G04 Gerber Fmt 4.6, Leading zero omitted, Abs format (unit mm)*
G04 Created by KiCad (PCBNEW (5.0.1)-4) date 25.11.2018 16:04:59*
%MOMM*%
%LPD*%
G01*
G04 APERTURE LIST*
G04 #@! TA.AperFunction,NonConductor*
%ADD10C,0.250000*%
G04 #@! TD*
G04 #@! TA.AperFunction,NonConductor*
%ADD11C,0.750000*%
G04 #@! TD*
G04 #@! TA.AperFunction,ComponentPad*
%ADD12C,5.600000*%
G04 #@! TD*
G04 #@! TA.AperFunction,ComponentPad*
%ADD13O,1.700000X1.700000*%
G04 #@! TD*
G04 #@! TA.AperFunction,ComponentPad*
%ADD14C,1.700000*%
G04 #@! TD*
G04 #@! TA.AperFunction,Conductor*
%ADD15C,1.700000*%
G04 #@! TD*
G04 #@! TA.AperFunction,ViaPad*
%ADD16C,0.600000*%
G04 #@! TD*
G04 #@! TA.AperFunction,Conductor*
%ADD17C,0.200000*%
G04 #@! TD*
G04 #@! TA.AperFunction,Conductor*
%ADD18C,0.440000*%
G04 #@! TD*
G04 APERTURE END LIST*
D10*
X51617619Y-84685000D02*
X52617619Y-84685000D01*
X52236666Y-84685000D02*
X52284285Y-84589761D01*
X52284285Y-84399285D01*
X52236666Y-84304047D01*
X52189047Y-84256428D01*
X52093809Y-84208809D01*
X51808095Y-84208809D01*
X51712857Y-84256428D01*
X51665238Y-84304047D01*
X51617619Y-84399285D01*
X51617619Y-84589761D01*
X51665238Y-84685000D01*
X51617619Y-83351666D02*
X52141428Y-83351666D01*
X52236666Y-83399285D01*
X52284285Y-83494523D01*
X52284285Y-83685000D01*
X52236666Y-83780238D01*
X51665238Y-83351666D02*
X51617619Y-83446904D01*
X51617619Y-83685000D01*
X51665238Y-83780238D01*
X51760476Y-83827857D01*
X51855714Y-83827857D01*
X51950952Y-83780238D01*
X51998571Y-83685000D01*
X51998571Y-83446904D01*
X52046190Y-83351666D01*
X51665238Y-82446904D02*
X51617619Y-82542142D01*
X51617619Y-82732619D01*
X51665238Y-82827857D01*
X51712857Y-82875476D01*
X51808095Y-82923095D01*
X52093809Y-82923095D01*
X52189047Y-82875476D01*
X52236666Y-82827857D01*
X52284285Y-82732619D01*
X52284285Y-82542142D01*
X52236666Y-82446904D01*
X51617619Y-82018333D02*
X52617619Y-82018333D01*
X51998571Y-81923095D02*
X51617619Y-81637380D01*
X52284285Y-81637380D02*
X51903333Y-82018333D01*
D11*
X53554285Y-71219017D02*
X53554285Y-72219017D01*
X51982857Y-72415446D02*
X54982857Y-72040446D01*
X54982857Y-70611875D01*
X51982857Y-68415446D02*
X51982857Y-69844017D01*
X54982857Y-69469017D01*
X51982857Y-67415446D02*
X54982857Y-67040446D01*
X51982857Y-65986875D02*
X54982857Y-65611875D01*
X54982857Y-64469017D01*
X54840000Y-64201160D01*
X54697142Y-64076160D01*
X54411428Y-63969017D01*
X53982857Y-64022589D01*
X53697142Y-64201160D01*
X53554285Y-64361875D01*
X53411428Y-64665446D01*
X53411428Y-65808303D01*
X52125714Y-63111875D02*
X51982857Y-62701160D01*
X51982857Y-61986875D01*
X52125714Y-61683303D01*
X52268571Y-61522589D01*
X52554285Y-61344017D01*
X52840000Y-61308303D01*
X53125714Y-61415446D01*
X53268571Y-61540446D01*
X53411428Y-61808303D01*
X53554285Y-62361875D01*
X53697142Y-62629732D01*
X53840000Y-62754732D01*
X54125714Y-62861875D01*
X54411428Y-62826160D01*
X54697142Y-62647589D01*
X54840000Y-62486875D01*
X54982857Y-62183303D01*
X54982857Y-61469017D01*
X54840000Y-61058303D01*
D12*
G04 #@! TO.P,REF\002A\002A,1*
G04 #@! TO.N,N/C*
X55800000Y-95800000D03*
G04 #@! TD*
G04 #@! TO.P,REF\002A\002A,1*
G04 #@! TO.N,N/C*
X145800000Y-95800000D03*
G04 #@! TD*
G04 #@! TO.P,REF\002A\002A,1*
G04 #@! TO.N,N/C*
X145800000Y-55800000D03*
G04 #@! TD*
G04 #@! TO.P,REF\002A\002A,1*
G04 #@! TO.N,N/C*
X55800000Y-55800000D03*
G04 #@! TD*
D13*
G04 #@! TO.P,CNX1,10*
G04 #@! TO.N,/XA.2*
X94615000Y-86995000D03*
G04 #@! TO.P,CNX1,9*
G04 #@! TO.N,/XA.0*
X92075000Y-86995000D03*
G04 #@! TO.P,CNX1,8*
G04 #@! TO.N,/XA.1*
X94615000Y-84455000D03*
G04 #@! TO.P,CNX1,7*
G04 #@! TO.N,+5V*
X92075000Y-84455000D03*
G04 #@! TO.P,CNX1,6*
G04 #@! TO.N,GND*
X94615000Y-81915000D03*
G04 #@! TO.P,CNX1,5*
G04 #@! TO.N,+12V*
X92075000Y-81915000D03*
G04 #@! TO.P,CNX1,4*
G04 #@! TO.N,/XDAT*
X94615000Y-79375000D03*
G04 #@! TO.P,CNX1,3*
G04 #@! TO.N,/XEN1*
X92075000Y-79375000D03*
G04 #@! TO.P,CNX1,2*
G04 #@! TO.N,/XB.0*
X94615000Y-76835000D03*
D14*
G04 #@! TO.P,CNX1,1*
G04 #@! TO.N,/XB.1*
X92075000Y-76835000D03*
G04 #@! TD*
G04 #@! TO.P,CNX2,1*
G04 #@! TO.N,/XB.1*
X102235000Y-76835000D03*
D13*
G04 #@! TO.P,CNX2,2*
G04 #@! TO.N,/XB.0*
X104775000Y-76835000D03*
G04 #@! TO.P,CNX2,3*
G04 #@! TO.N,/XEN2*
X102235000Y-79375000D03*
G04 #@! TO.P,CNX2,4*
G04 #@! TO.N,/XDAT*
X104775000Y-79375000D03*
G04 #@! TO.P,CNX2,5*
G04 #@! TO.N,+12V*
X102235000Y-81915000D03*
G04 #@! TO.P,CNX2,6*
G04 #@! TO.N,GND*
X104775000Y-81915000D03*
G04 #@! TO.P,CNX2,7*
G04 #@! TO.N,+5V*
X102235000Y-84455000D03*
G04 #@! TO.P,CNX2,8*
G04 #@! TO.N,/XA.1*
X104775000Y-84455000D03*
G04 #@! TO.P,CNX2,9*
G04 #@! TO.N,/XA.0*
X102235000Y-86995000D03*
G04 #@! TO.P,CNX2,10*
G04 #@! TO.N,/XA.2*
X104775000Y-86995000D03*
G04 #@! TD*
G04 #@! TO.P,CNX3,10*
G04 #@! TO.N,/XA.2*
X114935000Y-86995000D03*
G04 #@! TO.P,CNX3,9*
G04 #@! TO.N,/XA.0*
X112395000Y-86995000D03*
G04 #@! TO.P,CNX3,8*
G04 #@! TO.N,/XA.1*
X114935000Y-84455000D03*
G04 #@! TO.P,CNX3,7*
G04 #@! TO.N,+5V*
X112395000Y-84455000D03*
G04 #@! TO.P,CNX3,6*
G04 #@! TO.N,GND*
X114935000Y-81915000D03*
G04 #@! TO.P,CNX3,5*
G04 #@! TO.N,+12V*
X112395000Y-81915000D03*
G04 #@! TO.P,CNX3,4*
G04 #@! TO.N,/XDAT*
X114935000Y-79375000D03*
G04 #@! TO.P,CNX3,3*
G04 #@! TO.N,/XEN3*
X112395000Y-79375000D03*
G04 #@! TO.P,CNX3,2*
G04 #@! TO.N,/XB.0*
X114935000Y-76835000D03*
D14*
G04 #@! TO.P,CNX3,1*
G04 #@! TO.N,/XB.1*
X112395000Y-76835000D03*
G04 #@! TD*
G04 #@! TO.P,CNX4,1*
G04 #@! TO.N,/XB.1*
X122555000Y-76835000D03*
D13*
G04 #@! TO.P,CNX4,2*
G04 #@! TO.N,/XB.0*
X125095000Y-76835000D03*
G04 #@! TO.P,CNX4,3*
G04 #@! TO.N,/XEN4*
X122555000Y-79375000D03*
G04 #@! TO.P,CNX4,4*
G04 #@! TO.N,/XDAT*
X125095000Y-79375000D03*
G04 #@! TO.P,CNX4,5*
G04 #@! TO.N,+12V*
X122555000Y-81915000D03*
G04 #@! TO.P,CNX4,6*
G04 #@! TO.N,GND*
X125095000Y-81915000D03*
G04 #@! TO.P,CNX4,7*
G04 #@! TO.N,+5V*
X122555000Y-84455000D03*
G04 #@! TO.P,CNX4,8*
G04 #@! TO.N,/XA.1*
X125095000Y-84455000D03*
G04 #@! TO.P,CNX4,9*
G04 #@! TO.N,/XA.0*
X122555000Y-86995000D03*
G04 #@! TO.P,CNX4,10*
G04 #@! TO.N,/XA.2*
X125095000Y-86995000D03*
G04 #@! TD*
G04 #@! TO.P,CNX5,10*
G04 #@! TO.N,/XA.2*
X135255000Y-86995000D03*
G04 #@! TO.P,CNX5,9*
G04 #@! TO.N,/XA.0*
X132715000Y-86995000D03*
G04 #@! TO.P,CNX5,8*
G04 #@! TO.N,/XA.1*
X135255000Y-84455000D03*
G04 #@! TO.P,CNX5,7*
G04 #@! TO.N,+5V*
X132715000Y-84455000D03*
G04 #@! TO.P,CNX5,6*
G04 #@! TO.N,GND*
X135255000Y-81915000D03*
G04 #@! TO.P,CNX5,5*
G04 #@! TO.N,+12V*
X132715000Y-81915000D03*
G04 #@! TO.P,CNX5,4*
G04 #@! TO.N,/XDAT*
X135255000Y-79375000D03*
G04 #@! TO.P,CNX5,3*
G04 #@! TO.N,/XEN5*
X132715000Y-79375000D03*
G04 #@! TO.P,CNX5,2*
G04 #@! TO.N,/XB.0*
X135255000Y-76835000D03*
D14*
G04 #@! TO.P,CNX5,1*
G04 #@! TO.N,/XB.1*
X132715000Y-76835000D03*
G04 #@! TD*
G04 #@! TO.P,CNY1,1*
G04 #@! TO.N,/YB.1*
X71755000Y-76835000D03*
D13*
G04 #@! TO.P,CNY1,2*
G04 #@! TO.N,/YB.0*
X74295000Y-76835000D03*
G04 #@! TO.P,CNY1,3*
G04 #@! TO.N,/YEN1*
X71755000Y-79375000D03*
G04 #@! TO.P,CNY1,4*
G04 #@! TO.N,/YDAT*
X74295000Y-79375000D03*
G04 #@! TO.P,CNY1,5*
G04 #@! TO.N,+12V*
X71755000Y-81915000D03*
G04 #@! TO.P,CNY1,6*
G04 #@! TO.N,GND*
X74295000Y-81915000D03*
G04 #@! TO.P,CNY1,7*
G04 #@! TO.N,+5V*
X71755000Y-84455000D03*
G04 #@! TO.P,CNY1,8*
G04 #@! TO.N,/YA.1*
X74295000Y-84455000D03*
G04 #@! TO.P,CNY1,9*
G04 #@! TO.N,/YA.0*
X71755000Y-86995000D03*
G04 #@! TO.P,CNY1,10*
G04 #@! TO.N,/YA.2*
X74295000Y-86995000D03*
G04 #@! TD*
G04 #@! TO.P,CNY2,10*
G04 #@! TO.N,/YA.2*
X84455000Y-86995000D03*
G04 #@! TO.P,CNY2,9*
G04 #@! TO.N,/YA.0*
X81915000Y-86995000D03*
G04 #@! TO.P,CNY2,8*
G04 #@! TO.N,/YA.1*
X84455000Y-84455000D03*
G04 #@! TO.P,CNY2,7*
G04 #@! TO.N,+5V*
X81915000Y-84455000D03*
G04 #@! TO.P,CNY2,6*
G04 #@! TO.N,GND*
X84455000Y-81915000D03*
G04 #@! TO.P,CNY2,5*
G04 #@! TO.N,+12V*
X81915000Y-81915000D03*
G04 #@! TO.P,CNY2,4*
G04 #@! TO.N,/YDAT*
X84455000Y-79375000D03*
G04 #@! TO.P,CNY2,3*
G04 #@! TO.N,/YEN2*
X81915000Y-79375000D03*
G04 #@! TO.P,CNY2,2*
G04 #@! TO.N,/YB.0*
X84455000Y-76835000D03*
D14*
G04 #@! TO.P,CNY2,1*
G04 #@! TO.N,/YB.1*
X81915000Y-76835000D03*
G04 #@! TD*
D13*
G04 #@! TO.P,CN1,8*
G04 #@! TO.N,/RCLK*
X61595000Y-79375000D03*
G04 #@! TO.P,CN1,7*
G04 #@! TO.N,/DIN*
X64135000Y-79375000D03*
G04 #@! TO.P,CN1,6*
G04 #@! TO.N,/SRCLK*
X61595000Y-81915000D03*
D14*
G04 #@! TO.P,CN1,5*
G04 #@! TO.N,GND*
X64135000Y-81915000D03*
D15*
G04 #@! TD*
G04 #@! TO.N,GND*
G04 #@! TO.C,CN1*
X64135000Y-81915000D02*
X64135000Y-81915000D01*
D13*
G04 #@! TO.P,CN1,4*
G04 #@! TO.N,/~SRCLR*
X61595000Y-84455000D03*
G04 #@! TO.P,CN1,3*
G04 #@! TO.N,+12V*
X64135000Y-84455000D03*
G04 #@! TO.P,CN1,2*
G04 #@! TO.N,/~OE*
X61595000Y-86995000D03*
D14*
G04 #@! TO.P,CN1,1*
G04 #@! TO.N,+5V*
X64135000Y-86995000D03*
G04 #@! TD*
D13*
G04 #@! TO.P,CNX6,10*
G04 #@! TO.N,/XA.2*
X145415000Y-86995000D03*
G04 #@! TO.P,CNX6,9*
G04 #@! TO.N,/XA.0*
X142875000Y-86995000D03*
G04 #@! TO.P,CNX6,8*
G04 #@! TO.N,/XA.1*
X145415000Y-84455000D03*
G04 #@! TO.P,CNX6,7*
G04 #@! TO.N,+5V*
X142875000Y-84455000D03*
G04 #@! TO.P,CNX6,6*
G04 #@! TO.N,GND*
X145415000Y-81915000D03*
G04 #@! TO.P,CNX6,5*
G04 #@! TO.N,+12V*
X142875000Y-81915000D03*
G04 #@! TO.P,CNX6,4*
G04 #@! TO.N,/XDAT*
X145415000Y-79375000D03*
G04 #@! TO.P,CNX6,3*
G04 #@! TO.N,/XEN6*
X142875000Y-79375000D03*
G04 #@! TO.P,CNX6,2*
G04 #@! TO.N,/XB.0*
X145415000Y-76835000D03*
D14*
G04 #@! TO.P,CNX6,1*
G04 #@! TO.N,/XB.1*
X142875000Y-76835000D03*
G04 #@! TD*
D16*
G04 #@! TO.N,+5V*
X86995000Y-67310000D03*
X66675000Y-67310000D03*
X117475000Y-67310000D03*
G04 #@! TO.N,GND*
X88265000Y-84455000D03*
X98425000Y-79375000D03*
X78105000Y-79375000D03*
X108585000Y-79375000D03*
X118745000Y-79375000D03*
X128905000Y-79375000D03*
X67945000Y-71755000D03*
X75819000Y-69723000D03*
X96139000Y-69723000D03*
X118745000Y-81915000D03*
X128905000Y-81915000D03*
X108585000Y-81915000D03*
X98425000Y-81915000D03*
X78105000Y-81915000D03*
X78105000Y-76835000D03*
X78105000Y-84455000D03*
X78105000Y-86995000D03*
X88265000Y-81915000D03*
X88265000Y-86995000D03*
X98425000Y-86995000D03*
X98425000Y-84455000D03*
X98425000Y-76835000D03*
X108585000Y-76835000D03*
X108585000Y-84455000D03*
X108585000Y-86995000D03*
X118745000Y-86995000D03*
X118745000Y-84455000D03*
X118745000Y-76835000D03*
X128905000Y-84455000D03*
X128905000Y-86995000D03*
X128905000Y-76835000D03*
X88265000Y-71755000D03*
X88265000Y-76835000D03*
X103505000Y-90170000D03*
X120015000Y-69850000D03*
X75692000Y-57150000D03*
X96012000Y-57150000D03*
X126492000Y-57150000D03*
X123825000Y-90170000D03*
X73025000Y-90170000D03*
X57785000Y-85725000D03*
X57785000Y-80645000D03*
X139065000Y-84455000D03*
X139065000Y-79375000D03*
X67945000Y-85725000D03*
X67945000Y-83185000D03*
X139065000Y-76835000D03*
X139065000Y-81915000D03*
X139065000Y-86995000D03*
X133985000Y-90170000D03*
X149225000Y-86995000D03*
X149225000Y-81915000D03*
X149225000Y-76835000D03*
X144145000Y-90170000D03*
X113665000Y-90170000D03*
X93345000Y-90170000D03*
X83185000Y-90170000D03*
X62865000Y-89535000D03*
X149225000Y-71755000D03*
X144145000Y-69215000D03*
G04 #@! TO.N,/RCLK*
X88900000Y-62230000D03*
X68580000Y-62230000D03*
X119380000Y-62230000D03*
G04 #@! TO.N,/SRCLK*
X88265000Y-61595000D03*
X67945000Y-61595000D03*
X118110000Y-61595000D03*
G04 #@! TO.N,/~SRCLR*
X68580000Y-60960000D03*
X88900000Y-60960000D03*
X119380000Y-60960000D03*
X81280000Y-61214000D03*
G04 #@! TO.N,Net-(IC1-Pad9)*
X88900000Y-63500000D03*
X72136000Y-63246000D03*
G04 #@! TO.N,/~OE*
X81280000Y-62865000D03*
X67945000Y-62865000D03*
X88265000Y-62865000D03*
X118110000Y-62865000D03*
G04 #@! TO.N,/XB.0*
X97790000Y-74930000D03*
G04 #@! TO.N,/XA.1*
X97155000Y-74295000D03*
X106680000Y-74295000D03*
X116840000Y-74295000D03*
X127000000Y-74295000D03*
X137160000Y-74295000D03*
X147320000Y-74295000D03*
X93980000Y-75565000D03*
G04 #@! TO.N,/XA.2*
X107315000Y-73660000D03*
X117475000Y-73660000D03*
X127635000Y-73660000D03*
X137795000Y-73660000D03*
X147955000Y-73660000D03*
X94858840Y-73756520D03*
G04 #@! TO.N,/YB.0*
X77470000Y-74930000D03*
G04 #@! TO.N,/YA.1*
X76835000Y-74295000D03*
X86360000Y-74295000D03*
X73660000Y-75565000D03*
G04 #@! TO.N,/YA.2*
X86995000Y-73660000D03*
X74584560Y-73802240D03*
G04 #@! TO.N,Net-(IC2-Pad9)*
X119380000Y-63500000D03*
X92456000Y-63246000D03*
G04 #@! TD*
D17*
G04 #@! TO.N,+5V*
X131445000Y-85725000D02*
X122555000Y-85725000D01*
X122555000Y-85725000D02*
X112395000Y-85725000D01*
X112395000Y-85725000D02*
X102235000Y-85725000D01*
X102235000Y-85725000D02*
X92075000Y-85725000D01*
X92075000Y-85725000D02*
X81915000Y-85725000D01*
X81915000Y-85725000D02*
X71755000Y-85725000D01*
X71755000Y-84455000D02*
X71755000Y-85725000D01*
X81915000Y-84455000D02*
X81915000Y-85725000D01*
X92075000Y-84455000D02*
X92075000Y-85725000D01*
X102235000Y-84455000D02*
X102235000Y-85725000D01*
X112395000Y-84455000D02*
X112395000Y-85725000D01*
X122555000Y-84455000D02*
X122555000Y-85725000D01*
X66675000Y-67310000D02*
X86995000Y-67310000D01*
X117475000Y-67310000D02*
X86995000Y-67310000D01*
X70485000Y-85725000D02*
X71755000Y-85725000D01*
X69215000Y-86995000D02*
X70485000Y-85725000D01*
X64135000Y-86995000D02*
X69215000Y-86995000D01*
X131445000Y-85725000D02*
X132715000Y-85725000D01*
X132715000Y-85725000D02*
X141605000Y-85725000D01*
X141605000Y-85725000D02*
X142875000Y-84455000D01*
X132715000Y-84455000D02*
X132715000Y-85725000D01*
D18*
G04 #@! TO.N,+12V*
X131445000Y-83185000D02*
X122555000Y-83185000D01*
X122555000Y-83185000D02*
X112395000Y-83185000D01*
X112395000Y-83185000D02*
X102235000Y-83185000D01*
X102235000Y-83185000D02*
X92075000Y-83185000D01*
X92075000Y-83185000D02*
X81915000Y-83185000D01*
X81915000Y-83185000D02*
X71755000Y-83185000D01*
X71755000Y-81915000D02*
X71755000Y-83185000D01*
X81915000Y-81915000D02*
X81915000Y-83185000D01*
X92075000Y-81915000D02*
X92075000Y-83185000D01*
X102235000Y-81915000D02*
X102235000Y-83185000D01*
X112395000Y-81915000D02*
X112395000Y-83185000D01*
X122555000Y-81915000D02*
X122555000Y-83185000D01*
X70485000Y-83185000D02*
X71755000Y-83185000D01*
X69215000Y-84455000D02*
X70485000Y-83185000D01*
X64135000Y-84455000D02*
X69215000Y-84455000D01*
X131445000Y-83185000D02*
X132715000Y-83185000D01*
X132715000Y-83185000D02*
X141605000Y-83185000D01*
X141605000Y-83185000D02*
X142875000Y-81915000D01*
X132715000Y-81915000D02*
X132715000Y-83185000D01*
D17*
G04 #@! TO.N,/RCLK*
X88900000Y-62230000D02*
X68580000Y-62230000D01*
X88900000Y-62230000D02*
X119380000Y-62230000D01*
G04 #@! TO.N,/SRCLK*
X68834000Y-61595000D02*
X68580000Y-61595000D01*
X86995000Y-61829998D02*
X69723000Y-61829998D01*
X117875002Y-61829998D02*
X118110000Y-61595000D01*
X101365002Y-61829998D02*
X117875002Y-61829998D01*
X90043000Y-61829998D02*
X101365002Y-61829998D01*
X88900000Y-61595000D02*
X89027000Y-61595000D01*
X88900000Y-61595000D02*
X88265000Y-61595000D01*
X86995000Y-61829998D02*
X88030002Y-61829998D01*
X88030002Y-61829998D02*
X88265000Y-61595000D01*
X68580000Y-61595000D02*
X67945000Y-61595000D01*
X69723000Y-61829998D02*
X69068998Y-61829998D01*
X69068998Y-61829998D02*
X68834000Y-61595000D01*
X89027000Y-61595000D02*
X89173002Y-61595000D01*
X89408000Y-61829998D02*
X90043000Y-61829998D01*
X89173002Y-61595000D02*
X89408000Y-61829998D01*
G04 #@! TO.N,/~SRCLR*
X69303996Y-61429996D02*
X68834000Y-60960000D01*
X68834000Y-60960000D02*
X68580000Y-60960000D01*
X69977000Y-61429996D02*
X69303996Y-61429996D01*
X70739000Y-61429996D02*
X69977000Y-61429996D01*
X70739000Y-61429996D02*
X81280000Y-61429996D01*
X88011000Y-60960000D02*
X88900000Y-60960000D01*
X87884000Y-61087000D02*
X88011000Y-60960000D01*
X87541004Y-61429996D02*
X87884000Y-61087000D01*
X81280000Y-61429996D02*
X87541004Y-61429996D01*
X118237000Y-60960000D02*
X119380000Y-60960000D01*
X90297000Y-61429996D02*
X117386004Y-61429996D01*
X117386004Y-61429996D02*
X117856000Y-60960000D01*
X117856000Y-60960000D02*
X118237000Y-60960000D01*
X81280000Y-61429996D02*
X81280000Y-61214000D01*
X90297000Y-61429996D02*
X89573686Y-61429996D01*
X89103690Y-60960000D02*
X88900000Y-60960000D01*
X89573686Y-61429996D02*
X89103690Y-60960000D01*
G04 #@! TO.N,Net-(IC1-Pad9)*
X88011000Y-63500000D02*
X88900000Y-63500000D01*
X87541004Y-63030004D02*
X88011000Y-63500000D01*
X82003996Y-63030004D02*
X87541004Y-63030004D01*
X81534000Y-63500000D02*
X82003996Y-63030004D01*
X81026000Y-63500000D02*
X81534000Y-63500000D01*
X80556004Y-63030004D02*
X81026000Y-63500000D01*
X72517000Y-63030004D02*
X80556004Y-63030004D01*
X72517000Y-63030004D02*
X72351996Y-63030004D01*
X72351996Y-63030004D02*
X72136000Y-63246000D01*
G04 #@! TO.N,/~OE*
X81045002Y-62630002D02*
X81280000Y-62865000D01*
X69596000Y-62630002D02*
X80010000Y-62630002D01*
X80010000Y-62630002D02*
X81045002Y-62630002D01*
X67945000Y-62865000D02*
X68834000Y-62865000D01*
X81280000Y-62865000D02*
X81514998Y-62630002D01*
X88030002Y-62630002D02*
X88265000Y-62865000D01*
X81514998Y-62630002D02*
X88030002Y-62630002D01*
X88265000Y-62865000D02*
X89154000Y-62865000D01*
X117875002Y-62630002D02*
X118110000Y-62865000D01*
X90043000Y-62630002D02*
X117875002Y-62630002D01*
X80010000Y-62630002D02*
X82315002Y-62630002D01*
X69596000Y-62630002D02*
X69068998Y-62630002D01*
X69068998Y-62630002D02*
X68834000Y-62865000D01*
X90043000Y-62630002D02*
X89388998Y-62630002D01*
X89388998Y-62630002D02*
X89154000Y-62865000D01*
G04 #@! TO.N,/XB.0*
X135255000Y-76835000D02*
X135255000Y-75565000D01*
X98024998Y-74695002D02*
X104775000Y-74695002D01*
X98024998Y-74695002D02*
X97790000Y-74930000D01*
X104775000Y-74695002D02*
X106191002Y-74695002D01*
X107188000Y-74695002D02*
X114935000Y-74695002D01*
X106953002Y-74930000D02*
X107188000Y-74695002D01*
X106934000Y-74930000D02*
X106953002Y-74930000D01*
X106426000Y-74930000D02*
X106934000Y-74930000D01*
X106191002Y-74695002D02*
X106426000Y-74930000D01*
X117348000Y-74695002D02*
X125095000Y-74695002D01*
X114935000Y-74695002D02*
X116351002Y-74695002D01*
X116351002Y-74695002D02*
X116586000Y-74930000D01*
X116586000Y-74930000D02*
X117094000Y-74930000D01*
X117094000Y-74930000D02*
X117113002Y-74930000D01*
X117113002Y-74930000D02*
X117348000Y-74695002D01*
X125095000Y-74695002D02*
X126492000Y-74695002D01*
X127508000Y-74695002D02*
X135255000Y-74695002D01*
X127273002Y-74930000D02*
X127508000Y-74695002D01*
X127254000Y-74930000D02*
X127273002Y-74930000D01*
X126746000Y-74930000D02*
X127254000Y-74930000D01*
X126511002Y-74695002D02*
X126746000Y-74930000D01*
X126492000Y-74695002D02*
X126511002Y-74695002D01*
X145415000Y-76835000D02*
X145415000Y-75565000D01*
X135255000Y-74695002D02*
X136398000Y-74695002D01*
X136398000Y-74695002D02*
X136652000Y-74695002D01*
X136652000Y-74695002D02*
X136671002Y-74695002D01*
X136671002Y-74695002D02*
X136906000Y-74930000D01*
X136906000Y-74930000D02*
X137414000Y-74930000D01*
X137414000Y-74930000D02*
X137433002Y-74930000D01*
X137433002Y-74930000D02*
X137668000Y-74695002D01*
X137668000Y-74695002D02*
X144545002Y-74695002D01*
X144545002Y-74695002D02*
X145415000Y-75565000D01*
X135255000Y-76835000D02*
X135255000Y-74695002D01*
X125095000Y-76835000D02*
X125095000Y-74695002D01*
X114935000Y-76835000D02*
X114935000Y-74695002D01*
X104775000Y-76835000D02*
X104775000Y-74695002D01*
X97790000Y-74930000D02*
X97155000Y-74930000D01*
X97155000Y-74930000D02*
X96901000Y-74930000D01*
X94615000Y-76835000D02*
X94615000Y-75565000D01*
X94615000Y-75565000D02*
X95250000Y-74930000D01*
X95250000Y-74930000D02*
X95484998Y-74695002D01*
X96666002Y-74695002D02*
X96901000Y-74930000D01*
X95484998Y-74695002D02*
X96666002Y-74695002D01*
G04 #@! TO.N,/XB.1*
X92075000Y-76835000D02*
X93345000Y-78105000D01*
X93345000Y-78105000D02*
X102235000Y-78105000D01*
X102235000Y-78105000D02*
X112395000Y-78105000D01*
X112395000Y-78105000D02*
X122555000Y-78105000D01*
X122555000Y-78105000D02*
X131445000Y-78105000D01*
X102235000Y-76835000D02*
X102235000Y-78105000D01*
X112395000Y-76835000D02*
X112395000Y-78105000D01*
X122555000Y-76835000D02*
X122555000Y-78105000D01*
X131445000Y-78105000D02*
X141605000Y-78105000D01*
X141605000Y-78105000D02*
X142875000Y-76835000D01*
X132715000Y-78105000D02*
X132715000Y-77470000D01*
X132715000Y-76835000D02*
X132715000Y-77470000D01*
G04 #@! TO.N,/XDAT*
X133985000Y-80645000D02*
X125095000Y-80645000D01*
X125095000Y-80645000D02*
X114935000Y-80645000D01*
X114935000Y-80645000D02*
X104775000Y-80645000D01*
X104775000Y-79375000D02*
X104775000Y-80645000D01*
X114935000Y-79375000D02*
X114935000Y-80645000D01*
X125095000Y-79375000D02*
X125095000Y-80645000D01*
X104775000Y-80645000D02*
X95885000Y-80645000D01*
X95885000Y-80645000D02*
X94615000Y-79375000D01*
X133985000Y-80645000D02*
X135255000Y-80645000D01*
X135255000Y-80645000D02*
X144145000Y-80645000D01*
X144145000Y-80645000D02*
X145415000Y-79375000D01*
X135255000Y-79375000D02*
X135255000Y-80645000D01*
G04 #@! TO.N,/XA.1*
X98425000Y-74295000D02*
X97155000Y-74295000D01*
X106680000Y-74295000D02*
X98425000Y-74295000D01*
X106680000Y-74295000D02*
X116840000Y-74295000D01*
X116840000Y-74295000D02*
X127000000Y-74295000D01*
X127000000Y-74295000D02*
X137160000Y-74295000D01*
X137160000Y-74295000D02*
X147320000Y-74295000D01*
X95484998Y-74295000D02*
X98425000Y-74295000D01*
X95250000Y-74295000D02*
X95484998Y-74295000D01*
X93980000Y-75565000D02*
X95250000Y-74295000D01*
G04 #@! TO.N,/XA.2*
X116586000Y-73660000D02*
X117475000Y-73660000D01*
X126746000Y-73660000D02*
X127635000Y-73660000D01*
X136906000Y-73660000D02*
X137795000Y-73660000D01*
X147066000Y-73660000D02*
X147955000Y-73660000D01*
X97155000Y-73660000D02*
X97428002Y-73660000D01*
X106426000Y-73660000D02*
X107315000Y-73660000D01*
X106191002Y-73894998D02*
X106426000Y-73660000D01*
X97663000Y-73894998D02*
X106191002Y-73894998D01*
X97428002Y-73660000D02*
X97663000Y-73894998D01*
X107315000Y-73660000D02*
X107549998Y-73894998D01*
X116351002Y-73894998D02*
X116586000Y-73660000D01*
X107549998Y-73894998D02*
X116351002Y-73894998D01*
X117475000Y-73660000D02*
X117709998Y-73894998D01*
X126511002Y-73894998D02*
X126746000Y-73660000D01*
X117709998Y-73894998D02*
X126511002Y-73894998D01*
X127635000Y-73660000D02*
X127869998Y-73894998D01*
X136671002Y-73894998D02*
X136906000Y-73660000D01*
X127869998Y-73894998D02*
X136671002Y-73894998D01*
X137795000Y-73660000D02*
X138029998Y-73894998D01*
X146831002Y-73894998D02*
X147066000Y-73660000D01*
X138029998Y-73894998D02*
X146831002Y-73894998D01*
X97155000Y-73660000D02*
X96881998Y-73660000D01*
X96012000Y-73894998D02*
X95484998Y-73894998D01*
X96647000Y-73894998D02*
X96012000Y-73894998D01*
X96881998Y-73660000D02*
X96647000Y-73894998D01*
X95484998Y-73894998D02*
X94997318Y-73894998D01*
X94997318Y-73894998D02*
X94858840Y-73756520D01*
G04 #@! TO.N,/XA.0*
X102235000Y-88265000D02*
X102235000Y-86995000D01*
X112395000Y-86995000D02*
X112395000Y-88265000D01*
X122555000Y-88265000D02*
X122555000Y-86995000D01*
X132715000Y-86995000D02*
X132715000Y-88265000D01*
X93980000Y-88900000D02*
X102235000Y-88900000D01*
X102235000Y-88900000D02*
X112395000Y-88900000D01*
X112395000Y-88900000D02*
X122555000Y-88900000D01*
X122555000Y-88900000D02*
X132715000Y-88900000D01*
X132715000Y-88900000D02*
X140970000Y-88900000D01*
X132715000Y-88265000D02*
X132715000Y-88900000D01*
X122555000Y-88265000D02*
X122555000Y-88900000D01*
X112395000Y-88265000D02*
X112395000Y-88900000D01*
X102235000Y-88265000D02*
X102235000Y-88900000D01*
X92075000Y-86995000D02*
X92075000Y-88265000D01*
X92710000Y-88900000D02*
X93980000Y-88900000D01*
X92075000Y-88265000D02*
X92710000Y-88900000D01*
X142875000Y-86995000D02*
X142875000Y-88265000D01*
X142240000Y-88900000D02*
X140970000Y-88900000D01*
X142875000Y-88265000D02*
X142240000Y-88900000D01*
G04 #@! TO.N,/YB.0*
X84455000Y-76835000D02*
X84455000Y-75565000D01*
X77470000Y-74930000D02*
X77704998Y-74695002D01*
X83585002Y-74695002D02*
X84455000Y-75565000D01*
X77704998Y-74695002D02*
X83585002Y-74695002D01*
X74295000Y-76835000D02*
X74295000Y-75565000D01*
X76346002Y-74695002D02*
X76581000Y-74930000D01*
X75164998Y-74695002D02*
X76346002Y-74695002D01*
X74295000Y-75565000D02*
X75164998Y-74695002D01*
X76581000Y-74930000D02*
X77470000Y-74930000D01*
G04 #@! TO.N,/YB.1*
X71755000Y-76835000D02*
X73025000Y-78105000D01*
X73025000Y-78105000D02*
X80645000Y-78105000D01*
X80645000Y-78105000D02*
X81915000Y-76835000D01*
G04 #@! TO.N,/YDAT*
X83185000Y-80645000D02*
X84455000Y-79375000D01*
X74295000Y-79375000D02*
X75565000Y-80645000D01*
X75565000Y-80645000D02*
X83185000Y-80645000D01*
G04 #@! TO.N,/YA.1*
X76835000Y-74295000D02*
X85090000Y-74295000D01*
X85090000Y-74295000D02*
X86360000Y-74295000D01*
X74930000Y-74295000D02*
X76835000Y-74295000D01*
X73660000Y-75565000D02*
X74930000Y-74295000D01*
G04 #@! TO.N,/YA.2*
X86995000Y-73660000D02*
X86995000Y-73660000D01*
X74910998Y-73894998D02*
X75692000Y-73894998D01*
X76962000Y-73660000D02*
X77089000Y-73660000D01*
X76561998Y-73660000D02*
X76327000Y-73894998D01*
X76327000Y-73894998D02*
X75692000Y-73894998D01*
X76962000Y-73660000D02*
X76561998Y-73660000D01*
X85871002Y-73894998D02*
X86106000Y-73660000D01*
X85217000Y-73894998D02*
X85871002Y-73894998D01*
X77323998Y-73894998D02*
X77089000Y-73660000D01*
X78359000Y-73894998D02*
X77323998Y-73894998D01*
X78359000Y-73894998D02*
X85217000Y-73894998D01*
X86995000Y-73660000D02*
X86106000Y-73660000D01*
X75692000Y-73894998D02*
X75164998Y-73894998D01*
X74910998Y-73894998D02*
X74677318Y-73894998D01*
X74677318Y-73894998D02*
X74584560Y-73802240D01*
G04 #@! TO.N,/YA.0*
X73660000Y-88900000D02*
X80010000Y-88900000D01*
X71755000Y-86995000D02*
X71755000Y-88265000D01*
X72390000Y-88900000D02*
X73660000Y-88900000D01*
X71755000Y-88265000D02*
X72390000Y-88900000D01*
X80010000Y-88900000D02*
X81280000Y-88900000D01*
X81915000Y-88265000D02*
X81915000Y-86995000D01*
X81280000Y-88900000D02*
X81915000Y-88265000D01*
G04 #@! TO.N,Net-(IC2-Pad9)*
X117856000Y-63500000D02*
X119380000Y-63500000D01*
X117386004Y-63030004D02*
X117856000Y-63500000D01*
X92290996Y-63030004D02*
X117386004Y-63030004D01*
X92075000Y-63246000D02*
X92290996Y-63030004D01*
X92671996Y-63030004D02*
X92964000Y-63030004D01*
X92456000Y-63246000D02*
X92671996Y-63030004D01*
G04 #@! TD*
G04 #@! TO.N,GND*
G36*
X146618752Y-51249562D02*
X147411628Y-51466468D01*
X148153558Y-51820351D01*
X148821098Y-52300027D01*
X149393140Y-52890329D01*
X149851613Y-53572609D01*
X150182016Y-54325289D01*
X150374603Y-55127470D01*
X150425000Y-55813751D01*
X150425001Y-95783293D01*
X150350438Y-96618752D01*
X150133533Y-97411622D01*
X149779649Y-98153558D01*
X149299973Y-98821098D01*
X148709671Y-99393140D01*
X148027391Y-99851613D01*
X147274714Y-100182015D01*
X146472530Y-100374603D01*
X145786249Y-100425000D01*
X55816696Y-100425000D01*
X54981248Y-100350438D01*
X54188378Y-100133533D01*
X53446442Y-99779649D01*
X52778902Y-99299973D01*
X52206860Y-98709671D01*
X51748387Y-98027391D01*
X51417985Y-97274714D01*
X51225397Y-96472530D01*
X51175000Y-95786249D01*
X51175000Y-95494677D01*
X52700000Y-95494677D01*
X52700000Y-96105323D01*
X52819131Y-96704237D01*
X53052815Y-97268401D01*
X53392072Y-97776135D01*
X53823865Y-98207928D01*
X54331599Y-98547185D01*
X54895763Y-98780869D01*
X55494677Y-98900000D01*
X56105323Y-98900000D01*
X56704237Y-98780869D01*
X57268401Y-98547185D01*
X57776135Y-98207928D01*
X58207928Y-97776135D01*
X58547185Y-97268401D01*
X58780869Y-96704237D01*
X58900000Y-96105323D01*
X58900000Y-95494677D01*
X142700000Y-95494677D01*
X142700000Y-96105323D01*
X142819131Y-96704237D01*
X143052815Y-97268401D01*
X143392072Y-97776135D01*
X143823865Y-98207928D01*
X144331599Y-98547185D01*
X144895763Y-98780869D01*
X145494677Y-98900000D01*
X146105323Y-98900000D01*
X146704237Y-98780869D01*
X147268401Y-98547185D01*
X147776135Y-98207928D01*
X148207928Y-97776135D01*
X148547185Y-97268401D01*
X148780869Y-96704237D01*
X148900000Y-96105323D01*
X148900000Y-95494677D01*
X148780869Y-94895763D01*
X148547185Y-94331599D01*
X148207928Y-93823865D01*
X147776135Y-93392072D01*
X147268401Y-93052815D01*
X146704237Y-92819131D01*
X146105323Y-92700000D01*
X145494677Y-92700000D01*
X144895763Y-92819131D01*
X144331599Y-93052815D01*
X143823865Y-93392072D01*
X143392072Y-93823865D01*
X143052815Y-94331599D01*
X142819131Y-94895763D01*
X142700000Y-95494677D01*
X58900000Y-95494677D01*
X58780869Y-94895763D01*
X58547185Y-94331599D01*
X58207928Y-93823865D01*
X57776135Y-93392072D01*
X57268401Y-93052815D01*
X56704237Y-92819131D01*
X56105323Y-92700000D01*
X55494677Y-92700000D01*
X54895763Y-92819131D01*
X54331599Y-93052815D01*
X53823865Y-93392072D01*
X53392072Y-93823865D01*
X53052815Y-94331599D01*
X52819131Y-94895763D01*
X52700000Y-95494677D01*
X51175000Y-95494677D01*
X51175000Y-86995000D01*
X60439436Y-86995000D01*
X60461640Y-87220439D01*
X60527398Y-87437215D01*
X60634184Y-87636997D01*
X60777893Y-87812107D01*
X60953003Y-87955816D01*
X61152785Y-88062602D01*
X61369561Y-88128360D01*
X61538508Y-88145000D01*
X61651492Y-88145000D01*
X61820439Y-88128360D01*
X62037215Y-88062602D01*
X62236997Y-87955816D01*
X62412107Y-87812107D01*
X62555816Y-87636997D01*
X62662602Y-87437215D01*
X62728360Y-87220439D01*
X62750564Y-86995000D01*
X62728360Y-86769561D01*
X62662602Y-86552785D01*
X62555816Y-86353003D01*
X62412107Y-86177893D01*
X62236997Y-86034184D01*
X62037215Y-85927398D01*
X61820439Y-85861640D01*
X61651492Y-85845000D01*
X61538508Y-85845000D01*
X61369561Y-85861640D01*
X61152785Y-85927398D01*
X60953003Y-86034184D01*
X60777893Y-86177893D01*
X60634184Y-86353003D01*
X60527398Y-86552785D01*
X60461640Y-86769561D01*
X60439436Y-86995000D01*
X51175000Y-86995000D01*
X51175000Y-85348095D01*
X53152500Y-85348095D01*
X53152500Y-84455000D01*
X60439436Y-84455000D01*
X60461640Y-84680439D01*
X60527398Y-84897215D01*
X60634184Y-85096997D01*
X60777893Y-85272107D01*
X60953003Y-85415816D01*
X61152785Y-85522602D01*
X61369561Y-85588360D01*
X61538508Y-85605000D01*
X61651492Y-85605000D01*
X61820439Y-85588360D01*
X62037215Y-85522602D01*
X62236997Y-85415816D01*
X62412107Y-85272107D01*
X62555816Y-85096997D01*
X62662602Y-84897215D01*
X62728360Y-84680439D01*
X62750564Y-84455000D01*
X62979436Y-84455000D01*
X63001640Y-84680439D01*
X63067398Y-84897215D01*
X63174184Y-85096997D01*
X63317893Y-85272107D01*
X63493003Y-85415816D01*
X63692785Y-85522602D01*
X63909561Y-85588360D01*
X64078508Y-85605000D01*
X64191492Y-85605000D01*
X64360439Y-85588360D01*
X64577215Y-85522602D01*
X64776997Y-85415816D01*
X64952107Y-85272107D01*
X65095816Y-85096997D01*
X65161025Y-84975000D01*
X69189457Y-84975000D01*
X69215000Y-84977516D01*
X69240543Y-84975000D01*
X69240545Y-84975000D01*
X69316938Y-84967476D01*
X69414958Y-84937742D01*
X69505294Y-84889456D01*
X69584475Y-84824475D01*
X69600766Y-84804624D01*
X70700391Y-83705000D01*
X70882820Y-83705000D01*
X70794184Y-83813003D01*
X70687398Y-84012785D01*
X70621640Y-84229561D01*
X70599436Y-84455000D01*
X70621640Y-84680439D01*
X70687398Y-84897215D01*
X70794184Y-85096997D01*
X70937893Y-85272107D01*
X71002343Y-85325000D01*
X70504635Y-85325000D01*
X70484999Y-85323066D01*
X70465363Y-85325000D01*
X70465353Y-85325000D01*
X70406586Y-85330788D01*
X70331186Y-85353660D01*
X70261697Y-85390803D01*
X70261695Y-85390804D01*
X70261696Y-85390804D01*
X70216049Y-85428265D01*
X70216047Y-85428267D01*
X70200789Y-85440789D01*
X70188267Y-85456047D01*
X69049315Y-86595000D01*
X65214065Y-86595000D01*
X65154116Y-86450271D01*
X65028263Y-86261918D01*
X64868082Y-86101737D01*
X64679729Y-85975884D01*
X64470443Y-85889194D01*
X64248265Y-85845000D01*
X64021735Y-85845000D01*
X63799557Y-85889194D01*
X63590271Y-85975884D01*
X63401918Y-86101737D01*
X63241737Y-86261918D01*
X63115884Y-86450271D01*
X63029194Y-86659557D01*
X62985000Y-86881735D01*
X62985000Y-87108265D01*
X63029194Y-87330443D01*
X63115884Y-87539729D01*
X63241737Y-87728082D01*
X63401918Y-87888263D01*
X63590271Y-88014116D01*
X63799557Y-88100806D01*
X64021735Y-88145000D01*
X64248265Y-88145000D01*
X64470443Y-88100806D01*
X64679729Y-88014116D01*
X64868082Y-87888263D01*
X65028263Y-87728082D01*
X65154116Y-87539729D01*
X65214065Y-87395000D01*
X69195354Y-87395000D01*
X69215000Y-87396935D01*
X69234646Y-87395000D01*
X69234647Y-87395000D01*
X69293414Y-87389212D01*
X69368814Y-87366340D01*
X69438303Y-87329197D01*
X69499211Y-87279211D01*
X69511737Y-87263948D01*
X70650686Y-86125000D01*
X71002343Y-86125000D01*
X70937893Y-86177893D01*
X70794184Y-86353003D01*
X70687398Y-86552785D01*
X70621640Y-86769561D01*
X70599436Y-86995000D01*
X70621640Y-87220439D01*
X70687398Y-87437215D01*
X70794184Y-87636997D01*
X70937893Y-87812107D01*
X71113003Y-87955816D01*
X71312785Y-88062602D01*
X71355001Y-88075408D01*
X71355001Y-88245344D01*
X71353065Y-88265000D01*
X71360788Y-88343413D01*
X71383661Y-88418814D01*
X71420803Y-88488302D01*
X71458265Y-88533950D01*
X71458268Y-88533953D01*
X71470790Y-88549211D01*
X71486048Y-88561733D01*
X72093263Y-89168948D01*
X72105789Y-89184211D01*
X72121050Y-89196735D01*
X72166697Y-89234197D01*
X72236186Y-89271340D01*
X72311586Y-89294212D01*
X72390000Y-89301935D01*
X72409647Y-89300000D01*
X81260354Y-89300000D01*
X81280000Y-89301935D01*
X81299646Y-89300000D01*
X81299647Y-89300000D01*
X81358414Y-89294212D01*
X81433814Y-89271340D01*
X81503303Y-89234197D01*
X81564211Y-89184211D01*
X81576737Y-89168948D01*
X82183949Y-88561736D01*
X82199211Y-88549211D01*
X82249197Y-88488303D01*
X82286340Y-88418814D01*
X82309212Y-88343414D01*
X82315000Y-88284647D01*
X82315000Y-88284646D01*
X82316935Y-88265000D01*
X82315000Y-88245353D01*
X82315000Y-88075408D01*
X82357215Y-88062602D01*
X82556997Y-87955816D01*
X82732107Y-87812107D01*
X82875816Y-87636997D01*
X82982602Y-87437215D01*
X83048360Y-87220439D01*
X83070564Y-86995000D01*
X83048360Y-86769561D01*
X82982602Y-86552785D01*
X82875816Y-86353003D01*
X82732107Y-86177893D01*
X82667657Y-86125000D01*
X83702343Y-86125000D01*
X83637893Y-86177893D01*
X83494184Y-86353003D01*
X83387398Y-86552785D01*
X83321640Y-86769561D01*
X83299436Y-86995000D01*
X83321640Y-87220439D01*
X83387398Y-87437215D01*
X83494184Y-87636997D01*
X83637893Y-87812107D01*
X83813003Y-87955816D01*
X84012785Y-88062602D01*
X84229561Y-88128360D01*
X84398508Y-88145000D01*
X84511492Y-88145000D01*
X84680439Y-88128360D01*
X84897215Y-88062602D01*
X85096997Y-87955816D01*
X85272107Y-87812107D01*
X85415816Y-87636997D01*
X85522602Y-87437215D01*
X85588360Y-87220439D01*
X85610564Y-86995000D01*
X85588360Y-86769561D01*
X85522602Y-86552785D01*
X85415816Y-86353003D01*
X85272107Y-86177893D01*
X85207657Y-86125000D01*
X91322343Y-86125000D01*
X91257893Y-86177893D01*
X91114184Y-86353003D01*
X91007398Y-86552785D01*
X90941640Y-86769561D01*
X90919436Y-86995000D01*
X90941640Y-87220439D01*
X91007398Y-87437215D01*
X91114184Y-87636997D01*
X91257893Y-87812107D01*
X91433003Y-87955816D01*
X91632785Y-88062602D01*
X91675001Y-88075408D01*
X91675001Y-88245344D01*
X91673065Y-88265000D01*
X91680788Y-88343413D01*
X91703661Y-88418814D01*
X91740803Y-88488302D01*
X91778265Y-88533950D01*
X91778268Y-88533953D01*
X91790790Y-88549211D01*
X91806048Y-88561733D01*
X92413263Y-89168948D01*
X92425789Y-89184211D01*
X92441050Y-89196735D01*
X92486697Y-89234197D01*
X92556186Y-89271340D01*
X92631586Y-89294212D01*
X92710000Y-89301935D01*
X92729647Y-89300000D01*
X102215354Y-89300000D01*
X102235000Y-89301935D01*
X102254647Y-89300000D01*
X112375354Y-89300000D01*
X112395000Y-89301935D01*
X112414647Y-89300000D01*
X122535354Y-89300000D01*
X122555000Y-89301935D01*
X122574647Y-89300000D01*
X132695354Y-89300000D01*
X132715000Y-89301935D01*
X132734647Y-89300000D01*
X142220354Y-89300000D01*
X142240000Y-89301935D01*
X142259646Y-89300000D01*
X142259647Y-89300000D01*
X142318414Y-89294212D01*
X142393814Y-89271340D01*
X142463303Y-89234197D01*
X142524211Y-89184211D01*
X142536737Y-89168948D01*
X143143948Y-88561737D01*
X143159211Y-88549211D01*
X143209197Y-88488303D01*
X143246340Y-88418814D01*
X143269212Y-88343414D01*
X143275000Y-88284647D01*
X143275000Y-88284646D01*
X143276935Y-88265000D01*
X143275000Y-88245353D01*
X143275000Y-88075408D01*
X143317215Y-88062602D01*
X143516997Y-87955816D01*
X143692107Y-87812107D01*
X143835816Y-87636997D01*
X143942602Y-87437215D01*
X144008360Y-87220439D01*
X144030564Y-86995000D01*
X144259436Y-86995000D01*
X144281640Y-87220439D01*
X144347398Y-87437215D01*
X144454184Y-87636997D01*
X144597893Y-87812107D01*
X144773003Y-87955816D01*
X144972785Y-88062602D01*
X145189561Y-88128360D01*
X145358508Y-88145000D01*
X145471492Y-88145000D01*
X145640439Y-88128360D01*
X145857215Y-88062602D01*
X146056997Y-87955816D01*
X146232107Y-87812107D01*
X146375816Y-87636997D01*
X146482602Y-87437215D01*
X146548360Y-87220439D01*
X146570564Y-86995000D01*
X146548360Y-86769561D01*
X146482602Y-86552785D01*
X146375816Y-86353003D01*
X146232107Y-86177893D01*
X146056997Y-86034184D01*
X145857215Y-85927398D01*
X145640439Y-85861640D01*
X145471492Y-85845000D01*
X145358508Y-85845000D01*
X145189561Y-85861640D01*
X144972785Y-85927398D01*
X144773003Y-86034184D01*
X144597893Y-86177893D01*
X144454184Y-86353003D01*
X144347398Y-86552785D01*
X144281640Y-86769561D01*
X144259436Y-86995000D01*
X144030564Y-86995000D01*
X144008360Y-86769561D01*
X143942602Y-86552785D01*
X143835816Y-86353003D01*
X143692107Y-86177893D01*
X143516997Y-86034184D01*
X143317215Y-85927398D01*
X143100439Y-85861640D01*
X142931492Y-85845000D01*
X142818508Y-85845000D01*
X142649561Y-85861640D01*
X142432785Y-85927398D01*
X142233003Y-86034184D01*
X142057893Y-86177893D01*
X141914184Y-86353003D01*
X141807398Y-86552785D01*
X141741640Y-86769561D01*
X141719436Y-86995000D01*
X141741640Y-87220439D01*
X141807398Y-87437215D01*
X141914184Y-87636997D01*
X142057893Y-87812107D01*
X142233003Y-87955816D01*
X142432785Y-88062602D01*
X142475001Y-88075408D01*
X142475001Y-88099314D01*
X142074315Y-88500000D01*
X133115000Y-88500000D01*
X133115000Y-88075408D01*
X133157215Y-88062602D01*
X133356997Y-87955816D01*
X133532107Y-87812107D01*
X133675816Y-87636997D01*
X133782602Y-87437215D01*
X133848360Y-87220439D01*
X133870564Y-86995000D01*
X133848360Y-86769561D01*
X133782602Y-86552785D01*
X133675816Y-86353003D01*
X133532107Y-86177893D01*
X133467657Y-86125000D01*
X134502343Y-86125000D01*
X134437893Y-86177893D01*
X134294184Y-86353003D01*
X134187398Y-86552785D01*
X134121640Y-86769561D01*
X134099436Y-86995000D01*
X134121640Y-87220439D01*
X134187398Y-87437215D01*
X134294184Y-87636997D01*
X134437893Y-87812107D01*
X134613003Y-87955816D01*
X134812785Y-88062602D01*
X135029561Y-88128360D01*
X135198508Y-88145000D01*
X135311492Y-88145000D01*
X135480439Y-88128360D01*
X135697215Y-88062602D01*
X135896997Y-87955816D01*
X136072107Y-87812107D01*
X136215816Y-87636997D01*
X136322602Y-87437215D01*
X136388360Y-87220439D01*
X136410564Y-86995000D01*
X136388360Y-86769561D01*
X136322602Y-86552785D01*
X136215816Y-86353003D01*
X136072107Y-86177893D01*
X136007657Y-86125000D01*
X141585354Y-86125000D01*
X141605000Y-86126935D01*
X141624646Y-86125000D01*
X141624647Y-86125000D01*
X141683414Y-86119212D01*
X141758814Y-86096340D01*
X141828303Y-86059197D01*
X141889211Y-86009211D01*
X141901737Y-85993948D01*
X142393879Y-85501806D01*
X142432785Y-85522602D01*
X142649561Y-85588360D01*
X142818508Y-85605000D01*
X142931492Y-85605000D01*
X143100439Y-85588360D01*
X143317215Y-85522602D01*
X143516997Y-85415816D01*
X143692107Y-85272107D01*
X143835816Y-85096997D01*
X143942602Y-84897215D01*
X144008360Y-84680439D01*
X144030564Y-84455000D01*
X144259436Y-84455000D01*
X144281640Y-84680439D01*
X144347398Y-84897215D01*
X144454184Y-85096997D01*
X144597893Y-85272107D01*
X144773003Y-85415816D01*
X144972785Y-85522602D01*
X145189561Y-85588360D01*
X145358508Y-85605000D01*
X145471492Y-85605000D01*
X145640439Y-85588360D01*
X145857215Y-85522602D01*
X146056997Y-85415816D01*
X146232107Y-85272107D01*
X146375816Y-85096997D01*
X146482602Y-84897215D01*
X146548360Y-84680439D01*
X146570564Y-84455000D01*
X146548360Y-84229561D01*
X146482602Y-84012785D01*
X146375816Y-83813003D01*
X146232107Y-83637893D01*
X146056997Y-83494184D01*
X145857215Y-83387398D01*
X145640439Y-83321640D01*
X145471492Y-83305000D01*
X145358508Y-83305000D01*
X145189561Y-83321640D01*
X144972785Y-83387398D01*
X144773003Y-83494184D01*
X144597893Y-83637893D01*
X144454184Y-83813003D01*
X144347398Y-84012785D01*
X144281640Y-84229561D01*
X144259436Y-84455000D01*
X144030564Y-84455000D01*
X144008360Y-84229561D01*
X143942602Y-84012785D01*
X143835816Y-83813003D01*
X143692107Y-83637893D01*
X143516997Y-83494184D01*
X143317215Y-83387398D01*
X143100439Y-83321640D01*
X142931492Y-83305000D01*
X142818508Y-83305000D01*
X142649561Y-83321640D01*
X142432785Y-83387398D01*
X142233003Y-83494184D01*
X142057893Y-83637893D01*
X141914184Y-83813003D01*
X141807398Y-84012785D01*
X141741640Y-84229561D01*
X141719436Y-84455000D01*
X141741640Y-84680439D01*
X141807398Y-84897215D01*
X141828194Y-84936121D01*
X141439315Y-85325000D01*
X136007657Y-85325000D01*
X136072107Y-85272107D01*
X136215816Y-85096997D01*
X136322602Y-84897215D01*
X136388360Y-84680439D01*
X136410564Y-84455000D01*
X136388360Y-84229561D01*
X136322602Y-84012785D01*
X136215816Y-83813003D01*
X136127180Y-83705000D01*
X141579457Y-83705000D01*
X141605000Y-83707516D01*
X141630543Y-83705000D01*
X141630545Y-83705000D01*
X141706938Y-83697476D01*
X141804958Y-83667742D01*
X141895294Y-83619456D01*
X141974475Y-83554475D01*
X141990766Y-83534624D01*
X142517186Y-83008205D01*
X142649561Y-83048360D01*
X142818508Y-83065000D01*
X142931492Y-83065000D01*
X143100439Y-83048360D01*
X143317215Y-82982602D01*
X143516997Y-82875816D01*
X143692107Y-82732107D01*
X143835816Y-82556997D01*
X143942602Y-82357215D01*
X143976525Y-82245383D01*
X144313480Y-82245383D01*
X144315561Y-82252272D01*
X144402485Y-82460281D01*
X144528319Y-82647336D01*
X144688228Y-82806247D01*
X144876066Y-82930908D01*
X145084615Y-83016528D01*
X145261000Y-82979650D01*
X145261000Y-82069000D01*
X145569000Y-82069000D01*
X145569000Y-82979650D01*
X145745385Y-83016528D01*
X145953934Y-82930908D01*
X146141772Y-82806247D01*
X146301681Y-82647336D01*
X146427515Y-82460281D01*
X146514439Y-82252272D01*
X146516520Y-82245383D01*
X146478912Y-82069000D01*
X145569000Y-82069000D01*
X145261000Y-82069000D01*
X144351088Y-82069000D01*
X144313480Y-82245383D01*
X143976525Y-82245383D01*
X144008360Y-82140439D01*
X144030564Y-81915000D01*
X144008360Y-81689561D01*
X143976526Y-81584617D01*
X144313480Y-81584617D01*
X144351088Y-81761000D01*
X145261000Y-81761000D01*
X145261000Y-80850350D01*
X145569000Y-80850350D01*
X145569000Y-81761000D01*
X146478912Y-81761000D01*
X146516520Y-81584617D01*
X146514439Y-81577728D01*
X146427515Y-81369719D01*
X146301681Y-81182664D01*
X146141772Y-81023753D01*
X145953934Y-80899092D01*
X145745385Y-80813472D01*
X145569000Y-80850350D01*
X145261000Y-80850350D01*
X145084615Y-80813472D01*
X144876066Y-80899092D01*
X144688228Y-81023753D01*
X144528319Y-81182664D01*
X144402485Y-81369719D01*
X144315561Y-81577728D01*
X144313480Y-81584617D01*
X143976526Y-81584617D01*
X143942602Y-81472785D01*
X143835816Y-81273003D01*
X143692107Y-81097893D01*
X143627657Y-81045000D01*
X144125354Y-81045000D01*
X144145000Y-81046935D01*
X144164646Y-81045000D01*
X144164647Y-81045000D01*
X144223414Y-81039212D01*
X144298814Y-81016340D01*
X144368303Y-80979197D01*
X144429211Y-80929211D01*
X144441737Y-80913948D01*
X144933879Y-80421806D01*
X144972785Y-80442602D01*
X145189561Y-80508360D01*
X145358508Y-80525000D01*
X145471492Y-80525000D01*
X145640439Y-80508360D01*
X145857215Y-80442602D01*
X146056997Y-80335816D01*
X146232107Y-80192107D01*
X146375816Y-80016997D01*
X146482602Y-79817215D01*
X146548360Y-79600439D01*
X146570564Y-79375000D01*
X146548360Y-79149561D01*
X146482602Y-78932785D01*
X146375816Y-78733003D01*
X146232107Y-78557893D01*
X146056997Y-78414184D01*
X145857215Y-78307398D01*
X145640439Y-78241640D01*
X145471492Y-78225000D01*
X145358508Y-78225000D01*
X145189561Y-78241640D01*
X144972785Y-78307398D01*
X144773003Y-78414184D01*
X144597893Y-78557893D01*
X144454184Y-78733003D01*
X144347398Y-78932785D01*
X144281640Y-79149561D01*
X144259436Y-79375000D01*
X144281640Y-79600439D01*
X144347398Y-79817215D01*
X144368194Y-79856121D01*
X143979315Y-80245000D01*
X143627657Y-80245000D01*
X143692107Y-80192107D01*
X143835816Y-80016997D01*
X143942602Y-79817215D01*
X144008360Y-79600439D01*
X144030564Y-79375000D01*
X144008360Y-79149561D01*
X143942602Y-78932785D01*
X143835816Y-78733003D01*
X143692107Y-78557893D01*
X143516997Y-78414184D01*
X143317215Y-78307398D01*
X143100439Y-78241640D01*
X142931492Y-78225000D01*
X142818508Y-78225000D01*
X142649561Y-78241640D01*
X142432785Y-78307398D01*
X142233003Y-78414184D01*
X142057893Y-78557893D01*
X141914184Y-78733003D01*
X141807398Y-78932785D01*
X141741640Y-79149561D01*
X141719436Y-79375000D01*
X141741640Y-79600439D01*
X141807398Y-79817215D01*
X141914184Y-80016997D01*
X142057893Y-80192107D01*
X142122343Y-80245000D01*
X136007657Y-80245000D01*
X136072107Y-80192107D01*
X136215816Y-80016997D01*
X136322602Y-79817215D01*
X136388360Y-79600439D01*
X136410564Y-79375000D01*
X136388360Y-79149561D01*
X136322602Y-78932785D01*
X136215816Y-78733003D01*
X136072107Y-78557893D01*
X136007657Y-78505000D01*
X141585354Y-78505000D01*
X141605000Y-78506935D01*
X141624646Y-78505000D01*
X141624647Y-78505000D01*
X141683414Y-78499212D01*
X141758814Y-78476340D01*
X141828303Y-78439197D01*
X141889211Y-78389211D01*
X141901737Y-78373948D01*
X142394829Y-77880857D01*
X142539557Y-77940806D01*
X142761735Y-77985000D01*
X142988265Y-77985000D01*
X143210443Y-77940806D01*
X143419729Y-77854116D01*
X143608082Y-77728263D01*
X143768263Y-77568082D01*
X143894116Y-77379729D01*
X143980806Y-77170443D01*
X144025000Y-76948265D01*
X144025000Y-76721735D01*
X143980806Y-76499557D01*
X143894116Y-76290271D01*
X143768263Y-76101918D01*
X143608082Y-75941737D01*
X143419729Y-75815884D01*
X143210443Y-75729194D01*
X142988265Y-75685000D01*
X142761735Y-75685000D01*
X142539557Y-75729194D01*
X142330271Y-75815884D01*
X142141918Y-75941737D01*
X141981737Y-76101918D01*
X141855884Y-76290271D01*
X141769194Y-76499557D01*
X141725000Y-76721735D01*
X141725000Y-76948265D01*
X141769194Y-77170443D01*
X141829143Y-77315171D01*
X141439315Y-77705000D01*
X136007657Y-77705000D01*
X136072107Y-77652107D01*
X136215816Y-77476997D01*
X136322602Y-77277215D01*
X136388360Y-77060439D01*
X136410564Y-76835000D01*
X136388360Y-76609561D01*
X136322602Y-76392785D01*
X136215816Y-76193003D01*
X136072107Y-76017893D01*
X135896997Y-75874184D01*
X135697215Y-75767398D01*
X135655000Y-75754592D01*
X135655000Y-75095002D01*
X136505317Y-75095002D01*
X136609259Y-75198943D01*
X136621789Y-75214211D01*
X136682697Y-75264197D01*
X136752186Y-75301340D01*
X136827586Y-75324212D01*
X136886353Y-75330000D01*
X136886363Y-75330000D01*
X136905999Y-75331934D01*
X136925635Y-75330000D01*
X137413356Y-75330000D01*
X137433002Y-75331935D01*
X137452648Y-75330000D01*
X137452649Y-75330000D01*
X137511416Y-75324212D01*
X137586816Y-75301340D01*
X137656305Y-75264197D01*
X137717213Y-75214211D01*
X137729740Y-75198947D01*
X137833684Y-75095002D01*
X144379317Y-75095002D01*
X145015001Y-75730687D01*
X145015001Y-75754592D01*
X144972785Y-75767398D01*
X144773003Y-75874184D01*
X144597893Y-76017893D01*
X144454184Y-76193003D01*
X144347398Y-76392785D01*
X144281640Y-76609561D01*
X144259436Y-76835000D01*
X144281640Y-77060439D01*
X144347398Y-77277215D01*
X144454184Y-77476997D01*
X144597893Y-77652107D01*
X144773003Y-77795816D01*
X144972785Y-77902602D01*
X145189561Y-77968360D01*
X145358508Y-77985000D01*
X145471492Y-77985000D01*
X145640439Y-77968360D01*
X145857215Y-77902602D01*
X146056997Y-77795816D01*
X146232107Y-77652107D01*
X146375816Y-77476997D01*
X146482602Y-77277215D01*
X146548360Y-77060439D01*
X146570564Y-76835000D01*
X146548360Y-76609561D01*
X146482602Y-76392785D01*
X146375816Y-76193003D01*
X146232107Y-76017893D01*
X146056997Y-75874184D01*
X145857215Y-75767398D01*
X145815000Y-75754592D01*
X145815000Y-75584646D01*
X145816935Y-75565000D01*
X145809212Y-75486586D01*
X145801667Y-75461713D01*
X145786340Y-75411186D01*
X145749197Y-75341697D01*
X145739598Y-75330000D01*
X145711735Y-75296049D01*
X145711733Y-75296047D01*
X145699211Y-75280789D01*
X145683953Y-75268267D01*
X145110685Y-74695000D01*
X146871472Y-74695000D01*
X146937522Y-74761050D01*
X147035793Y-74826713D01*
X147144986Y-74871942D01*
X147260905Y-74895000D01*
X147379095Y-74895000D01*
X147495014Y-74871942D01*
X147604207Y-74826713D01*
X147702478Y-74761050D01*
X147786050Y-74677478D01*
X147851713Y-74579207D01*
X147896942Y-74470014D01*
X147920000Y-74354095D01*
X147920000Y-74260000D01*
X148014095Y-74260000D01*
X148130014Y-74236942D01*
X148239207Y-74191713D01*
X148337478Y-74126050D01*
X148421050Y-74042478D01*
X148486713Y-73944207D01*
X148531942Y-73835014D01*
X148555000Y-73719095D01*
X148555000Y-73600905D01*
X148531942Y-73484986D01*
X148486713Y-73375793D01*
X148421050Y-73277522D01*
X148337478Y-73193950D01*
X148239207Y-73128287D01*
X148130014Y-73083058D01*
X148014095Y-73060000D01*
X147895905Y-73060000D01*
X147779986Y-73083058D01*
X147670793Y-73128287D01*
X147572522Y-73193950D01*
X147506472Y-73260000D01*
X147085635Y-73260000D01*
X147065999Y-73258066D01*
X147046363Y-73260000D01*
X147046353Y-73260000D01*
X146987586Y-73265788D01*
X146912186Y-73288660D01*
X146842697Y-73325803D01*
X146781789Y-73375789D01*
X146769259Y-73391057D01*
X146665317Y-73494998D01*
X138373934Y-73494998D01*
X138371942Y-73484986D01*
X138326713Y-73375793D01*
X138261050Y-73277522D01*
X138177478Y-73193950D01*
X138079207Y-73128287D01*
X137970014Y-73083058D01*
X137854095Y-73060000D01*
X137735905Y-73060000D01*
X137619986Y-73083058D01*
X137510793Y-73128287D01*
X137412522Y-73193950D01*
X137346472Y-73260000D01*
X136925635Y-73260000D01*
X136905999Y-73258066D01*
X136886363Y-73260000D01*
X136886353Y-73260000D01*
X136827586Y-73265788D01*
X136752186Y-73288660D01*
X136682697Y-73325803D01*
X136621789Y-73375789D01*
X136609259Y-73391057D01*
X136505317Y-73494998D01*
X128213934Y-73494998D01*
X128211942Y-73484986D01*
X128166713Y-73375793D01*
X128101050Y-73277522D01*
X128017478Y-73193950D01*
X127919207Y-73128287D01*
X127810014Y-73083058D01*
X127694095Y-73060000D01*
X127575905Y-73060000D01*
X127459986Y-73083058D01*
X127350793Y-73128287D01*
X127252522Y-73193950D01*
X127186472Y-73260000D01*
X126765635Y-73260000D01*
X126745999Y-73258066D01*
X126726363Y-73260000D01*
X126726353Y-73260000D01*
X126667586Y-73265788D01*
X126592186Y-73288660D01*
X126522697Y-73325803D01*
X126461789Y-73375789D01*
X126449259Y-73391057D01*
X126345317Y-73494998D01*
X118053934Y-73494998D01*
X118051942Y-73484986D01*
X118006713Y-73375793D01*
X117941050Y-73277522D01*
X117857478Y-73193950D01*
X117759207Y-73128287D01*
X117650014Y-73083058D01*
X117534095Y-73060000D01*
X117415905Y-73060000D01*
X117299986Y-73083058D01*
X117190793Y-73128287D01*
X117092522Y-73193950D01*
X117026472Y-73260000D01*
X116605635Y-73260000D01*
X116585999Y-73258066D01*
X116566363Y-73260000D01*
X116566353Y-73260000D01*
X116507586Y-73265788D01*
X116432186Y-73288660D01*
X116362697Y-73325803D01*
X116301789Y-73375789D01*
X116289259Y-73391057D01*
X116185317Y-73494998D01*
X107893934Y-73494998D01*
X107891942Y-73484986D01*
X107846713Y-73375793D01*
X107781050Y-73277522D01*
X107697478Y-73193950D01*
X107599207Y-73128287D01*
X107490014Y-73083058D01*
X107374095Y-73060000D01*
X107255905Y-73060000D01*
X107139986Y-73083058D01*
X107030793Y-73128287D01*
X106932522Y-73193950D01*
X106866472Y-73260000D01*
X106445635Y-73260000D01*
X106425999Y-73258066D01*
X106406363Y-73260000D01*
X106406353Y-73260000D01*
X106347586Y-73265788D01*
X106272186Y-73288660D01*
X106202697Y-73325803D01*
X106141789Y-73375789D01*
X106129259Y-73391057D01*
X106025317Y-73494998D01*
X97828684Y-73494998D01*
X97724740Y-73391053D01*
X97712213Y-73375789D01*
X97651305Y-73325803D01*
X97581816Y-73288660D01*
X97506416Y-73265788D01*
X97447649Y-73260000D01*
X97447648Y-73260000D01*
X97428002Y-73258065D01*
X97408356Y-73260000D01*
X96901633Y-73260000D01*
X96881997Y-73258066D01*
X96862361Y-73260000D01*
X96862351Y-73260000D01*
X96803584Y-73265788D01*
X96728184Y-73288660D01*
X96658695Y-73325803D01*
X96597787Y-73375789D01*
X96585257Y-73391057D01*
X96481315Y-73494998D01*
X95399949Y-73494998D01*
X95390553Y-73472313D01*
X95324890Y-73374042D01*
X95241318Y-73290470D01*
X95143047Y-73224807D01*
X95033854Y-73179578D01*
X94917935Y-73156520D01*
X94799745Y-73156520D01*
X94683826Y-73179578D01*
X94574633Y-73224807D01*
X94476362Y-73290470D01*
X94392790Y-73374042D01*
X94327127Y-73472313D01*
X94281898Y-73581506D01*
X94258840Y-73697425D01*
X94258840Y-73815615D01*
X94281898Y-73931534D01*
X94327127Y-74040727D01*
X94392790Y-74138998D01*
X94476362Y-74222570D01*
X94574633Y-74288233D01*
X94656974Y-74322340D01*
X94014315Y-74965000D01*
X93920905Y-74965000D01*
X93804986Y-74988058D01*
X93695793Y-75033287D01*
X93597522Y-75098950D01*
X93513950Y-75182522D01*
X93448287Y-75280793D01*
X93403058Y-75389986D01*
X93380000Y-75505905D01*
X93380000Y-75624095D01*
X93403058Y-75740014D01*
X93448287Y-75849207D01*
X93513950Y-75947478D01*
X93597522Y-76031050D01*
X93695793Y-76096713D01*
X93723715Y-76108279D01*
X93654184Y-76193003D01*
X93547398Y-76392785D01*
X93481640Y-76609561D01*
X93459436Y-76835000D01*
X93481640Y-77060439D01*
X93547398Y-77277215D01*
X93654184Y-77476997D01*
X93797893Y-77652107D01*
X93862343Y-77705000D01*
X93510686Y-77705000D01*
X93120857Y-77315171D01*
X93180806Y-77170443D01*
X93225000Y-76948265D01*
X93225000Y-76721735D01*
X93180806Y-76499557D01*
X93094116Y-76290271D01*
X92968263Y-76101918D01*
X92808082Y-75941737D01*
X92619729Y-75815884D01*
X92410443Y-75729194D01*
X92188265Y-75685000D01*
X91961735Y-75685000D01*
X91739557Y-75729194D01*
X91530271Y-75815884D01*
X91341918Y-75941737D01*
X91181737Y-76101918D01*
X91055884Y-76290271D01*
X90969194Y-76499557D01*
X90925000Y-76721735D01*
X90925000Y-76948265D01*
X90969194Y-77170443D01*
X91055884Y-77379729D01*
X91181737Y-77568082D01*
X91341918Y-77728263D01*
X91530271Y-77854116D01*
X91739557Y-77940806D01*
X91961735Y-77985000D01*
X92188265Y-77985000D01*
X92410443Y-77940806D01*
X92555171Y-77880857D01*
X93048267Y-78373953D01*
X93060789Y-78389211D01*
X93076047Y-78401733D01*
X93076049Y-78401735D01*
X93107982Y-78427941D01*
X93121697Y-78439197D01*
X93191186Y-78476340D01*
X93266586Y-78499212D01*
X93325353Y-78505000D01*
X93325363Y-78505000D01*
X93344999Y-78506934D01*
X93364635Y-78505000D01*
X93862343Y-78505000D01*
X93797893Y-78557893D01*
X93654184Y-78733003D01*
X93547398Y-78932785D01*
X93481640Y-79149561D01*
X93459436Y-79375000D01*
X93481640Y-79600439D01*
X93547398Y-79817215D01*
X93654184Y-80016997D01*
X93797893Y-80192107D01*
X93973003Y-80335816D01*
X94172785Y-80442602D01*
X94389561Y-80508360D01*
X94558508Y-80525000D01*
X94671492Y-80525000D01*
X94840439Y-80508360D01*
X95057215Y-80442602D01*
X95096121Y-80421806D01*
X95588267Y-80913953D01*
X95600789Y-80929211D01*
X95616047Y-80941733D01*
X95616049Y-80941735D01*
X95647982Y-80967941D01*
X95661697Y-80979197D01*
X95731186Y-81016340D01*
X95806586Y-81039212D01*
X95865353Y-81045000D01*
X95865363Y-81045000D01*
X95884999Y-81046934D01*
X95904635Y-81045000D01*
X101482343Y-81045000D01*
X101417893Y-81097893D01*
X101274184Y-81273003D01*
X101167398Y-81472785D01*
X101101640Y-81689561D01*
X101079436Y-81915000D01*
X101101640Y-82140439D01*
X101167398Y-82357215D01*
X101274184Y-82556997D01*
X101362820Y-82665000D01*
X95483906Y-82665000D01*
X95501681Y-82647336D01*
X95627515Y-82460281D01*
X95714439Y-82252272D01*
X95716520Y-82245383D01*
X95678912Y-82069000D01*
X94769000Y-82069000D01*
X94769000Y-82089000D01*
X94461000Y-82089000D01*
X94461000Y-82069000D01*
X93551088Y-82069000D01*
X93513480Y-82245383D01*
X93515561Y-82252272D01*
X93602485Y-82460281D01*
X93728319Y-82647336D01*
X93746094Y-82665000D01*
X92947180Y-82665000D01*
X93035816Y-82556997D01*
X93142602Y-82357215D01*
X93208360Y-82140439D01*
X93230564Y-81915000D01*
X93208360Y-81689561D01*
X93176526Y-81584617D01*
X93513480Y-81584617D01*
X93551088Y-81761000D01*
X94461000Y-81761000D01*
X94461000Y-80850350D01*
X94769000Y-80850350D01*
X94769000Y-81761000D01*
X95678912Y-81761000D01*
X95716520Y-81584617D01*
X95714439Y-81577728D01*
X95627515Y-81369719D01*
X95501681Y-81182664D01*
X95341772Y-81023753D01*
X95153934Y-80899092D01*
X94945385Y-80813472D01*
X94769000Y-80850350D01*
X94461000Y-80850350D01*
X94284615Y-80813472D01*
X94076066Y-80899092D01*
X93888228Y-81023753D01*
X93728319Y-81182664D01*
X93602485Y-81369719D01*
X93515561Y-81577728D01*
X93513480Y-81584617D01*
X93176526Y-81584617D01*
X93142602Y-81472785D01*
X93035816Y-81273003D01*
X92892107Y-81097893D01*
X92716997Y-80954184D01*
X92517215Y-80847398D01*
X92300439Y-80781640D01*
X92131492Y-80765000D01*
X92018508Y-80765000D01*
X91849561Y-80781640D01*
X91632785Y-80847398D01*
X91433003Y-80954184D01*
X91257893Y-81097893D01*
X91114184Y-81273003D01*
X91007398Y-81472785D01*
X90941640Y-81689561D01*
X90919436Y-81915000D01*
X90941640Y-82140439D01*
X91007398Y-82357215D01*
X91114184Y-82556997D01*
X91202820Y-82665000D01*
X85323906Y-82665000D01*
X85341681Y-82647336D01*
X85467515Y-82460281D01*
X85554439Y-82252272D01*
X85556520Y-82245383D01*
X85518912Y-82069000D01*
X84609000Y-82069000D01*
X84609000Y-82089000D01*
X84301000Y-82089000D01*
X84301000Y-82069000D01*
X83391088Y-82069000D01*
X83353480Y-82245383D01*
X83355561Y-82252272D01*
X83442485Y-82460281D01*
X83568319Y-82647336D01*
X83586094Y-82665000D01*
X82787180Y-82665000D01*
X82875816Y-82556997D01*
X82982602Y-82357215D01*
X83048360Y-82140439D01*
X83070564Y-81915000D01*
X83048360Y-81689561D01*
X83016526Y-81584617D01*
X83353480Y-81584617D01*
X83391088Y-81761000D01*
X84301000Y-81761000D01*
X84301000Y-80850350D01*
X84609000Y-80850350D01*
X84609000Y-81761000D01*
X85518912Y-81761000D01*
X85556520Y-81584617D01*
X85554439Y-81577728D01*
X85467515Y-81369719D01*
X85341681Y-81182664D01*
X85181772Y-81023753D01*
X84993934Y-80899092D01*
X84785385Y-80813472D01*
X84609000Y-80850350D01*
X84301000Y-80850350D01*
X84124615Y-80813472D01*
X83916066Y-80899092D01*
X83728228Y-81023753D01*
X83568319Y-81182664D01*
X83442485Y-81369719D01*
X83355561Y-81577728D01*
X83353480Y-81584617D01*
X83016526Y-81584617D01*
X82982602Y-81472785D01*
X82875816Y-81273003D01*
X82732107Y-81097893D01*
X82667657Y-81045000D01*
X83165354Y-81045000D01*
X83185000Y-81046935D01*
X83204646Y-81045000D01*
X83204647Y-81045000D01*
X83263414Y-81039212D01*
X83338814Y-81016340D01*
X83408303Y-80979197D01*
X83469211Y-80929211D01*
X83481737Y-80913948D01*
X83973879Y-80421806D01*
X84012785Y-80442602D01*
X84229561Y-80508360D01*
X84398508Y-80525000D01*
X84511492Y-80525000D01*
X84680439Y-80508360D01*
X84897215Y-80442602D01*
X85096997Y-80335816D01*
X85272107Y-80192107D01*
X85415816Y-80016997D01*
X85522602Y-79817215D01*
X85588360Y-79600439D01*
X85610564Y-79375000D01*
X90919436Y-79375000D01*
X90941640Y-79600439D01*
X91007398Y-79817215D01*
X91114184Y-80016997D01*
X91257893Y-80192107D01*
X91433003Y-80335816D01*
X91632785Y-80442602D01*
X91849561Y-80508360D01*
X92018508Y-80525000D01*
X92131492Y-80525000D01*
X92300439Y-80508360D01*
X92517215Y-80442602D01*
X92716997Y-80335816D01*
X92892107Y-80192107D01*
X93035816Y-80016997D01*
X93142602Y-79817215D01*
X93208360Y-79600439D01*
X93230564Y-79375000D01*
X93208360Y-79149561D01*
X93142602Y-78932785D01*
X93035816Y-78733003D01*
X92892107Y-78557893D01*
X92716997Y-78414184D01*
X92517215Y-78307398D01*
X92300439Y-78241640D01*
X92131492Y-78225000D01*
X92018508Y-78225000D01*
X91849561Y-78241640D01*
X91632785Y-78307398D01*
X91433003Y-78414184D01*
X91257893Y-78557893D01*
X91114184Y-78733003D01*
X91007398Y-78932785D01*
X90941640Y-79149561D01*
X90919436Y-79375000D01*
X85610564Y-79375000D01*
X85588360Y-79149561D01*
X85522602Y-78932785D01*
X85415816Y-78733003D01*
X85272107Y-78557893D01*
X85096997Y-78414184D01*
X84897215Y-78307398D01*
X84680439Y-78241640D01*
X84511492Y-78225000D01*
X84398508Y-78225000D01*
X84229561Y-78241640D01*
X84012785Y-78307398D01*
X83813003Y-78414184D01*
X83637893Y-78557893D01*
X83494184Y-78733003D01*
X83387398Y-78932785D01*
X83321640Y-79149561D01*
X83299436Y-79375000D01*
X83321640Y-79600439D01*
X83387398Y-79817215D01*
X83408194Y-79856121D01*
X83019315Y-80245000D01*
X82667657Y-80245000D01*
X82732107Y-80192107D01*
X82875816Y-80016997D01*
X82982602Y-79817215D01*
X83048360Y-79600439D01*
X83070564Y-79375000D01*
X83048360Y-79149561D01*
X82982602Y-78932785D01*
X82875816Y-78733003D01*
X82732107Y-78557893D01*
X82556997Y-78414184D01*
X82357215Y-78307398D01*
X82140439Y-78241640D01*
X81971492Y-78225000D01*
X81858508Y-78225000D01*
X81689561Y-78241640D01*
X81472785Y-78307398D01*
X81273003Y-78414184D01*
X81097893Y-78557893D01*
X80954184Y-78733003D01*
X80847398Y-78932785D01*
X80781640Y-79149561D01*
X80759436Y-79375000D01*
X80781640Y-79600439D01*
X80847398Y-79817215D01*
X80954184Y-80016997D01*
X81097893Y-80192107D01*
X81162343Y-80245000D01*
X75730686Y-80245000D01*
X75341806Y-79856121D01*
X75362602Y-79817215D01*
X75428360Y-79600439D01*
X75450564Y-79375000D01*
X75428360Y-79149561D01*
X75362602Y-78932785D01*
X75255816Y-78733003D01*
X75112107Y-78557893D01*
X75047657Y-78505000D01*
X80625354Y-78505000D01*
X80645000Y-78506935D01*
X80664646Y-78505000D01*
X80664647Y-78505000D01*
X80723414Y-78499212D01*
X80798814Y-78476340D01*
X80868303Y-78439197D01*
X80929211Y-78389211D01*
X80941737Y-78373948D01*
X81434829Y-77880857D01*
X81579557Y-77940806D01*
X81801735Y-77985000D01*
X82028265Y-77985000D01*
X82250443Y-77940806D01*
X82459729Y-77854116D01*
X82648082Y-77728263D01*
X82808263Y-77568082D01*
X82934116Y-77379729D01*
X83020806Y-77170443D01*
X83065000Y-76948265D01*
X83065000Y-76721735D01*
X83020806Y-76499557D01*
X82934116Y-76290271D01*
X82808263Y-76101918D01*
X82648082Y-75941737D01*
X82459729Y-75815884D01*
X82250443Y-75729194D01*
X82028265Y-75685000D01*
X81801735Y-75685000D01*
X81579557Y-75729194D01*
X81370271Y-75815884D01*
X81181918Y-75941737D01*
X81021737Y-76101918D01*
X80895884Y-76290271D01*
X80809194Y-76499557D01*
X80765000Y-76721735D01*
X80765000Y-76948265D01*
X80809194Y-77170443D01*
X80869143Y-77315171D01*
X80479315Y-77705000D01*
X75047657Y-77705000D01*
X75112107Y-77652107D01*
X75255816Y-77476997D01*
X75362602Y-77277215D01*
X75428360Y-77060439D01*
X75450564Y-76835000D01*
X75428360Y-76609561D01*
X75362602Y-76392785D01*
X75255816Y-76193003D01*
X75112107Y-76017893D01*
X74936997Y-75874184D01*
X74737215Y-75767398D01*
X74695000Y-75754592D01*
X74695000Y-75730685D01*
X75330684Y-75095002D01*
X76180317Y-75095002D01*
X76284259Y-75198943D01*
X76296789Y-75214211D01*
X76357697Y-75264197D01*
X76427186Y-75301340D01*
X76502586Y-75324212D01*
X76561353Y-75330000D01*
X76561363Y-75330000D01*
X76580999Y-75331934D01*
X76600635Y-75330000D01*
X77021472Y-75330000D01*
X77087522Y-75396050D01*
X77185793Y-75461713D01*
X77294986Y-75506942D01*
X77410905Y-75530000D01*
X77529095Y-75530000D01*
X77645014Y-75506942D01*
X77754207Y-75461713D01*
X77852478Y-75396050D01*
X77936050Y-75312478D01*
X78001713Y-75214207D01*
X78046942Y-75105014D01*
X78048934Y-75095002D01*
X83419317Y-75095002D01*
X84055001Y-75730687D01*
X84055001Y-75754592D01*
X84012785Y-75767398D01*
X83813003Y-75874184D01*
X83637893Y-76017893D01*
X83494184Y-76193003D01*
X83387398Y-76392785D01*
X83321640Y-76609561D01*
X83299436Y-76835000D01*
X83321640Y-77060439D01*
X83387398Y-77277215D01*
X83494184Y-77476997D01*
X83637893Y-77652107D01*
X83813003Y-77795816D01*
X84012785Y-77902602D01*
X84229561Y-77968360D01*
X84398508Y-77985000D01*
X84511492Y-77985000D01*
X84680439Y-77968360D01*
X84897215Y-77902602D01*
X85096997Y-77795816D01*
X85272107Y-77652107D01*
X85415816Y-77476997D01*
X85522602Y-77277215D01*
X85588360Y-77060439D01*
X85610564Y-76835000D01*
X85588360Y-76609561D01*
X85522602Y-76392785D01*
X85415816Y-76193003D01*
X85272107Y-76017893D01*
X85096997Y-75874184D01*
X84897215Y-75767398D01*
X84855000Y-75754592D01*
X84855000Y-75584646D01*
X84856935Y-75565000D01*
X84849212Y-75486586D01*
X84841667Y-75461713D01*
X84826340Y-75411186D01*
X84789197Y-75341697D01*
X84779598Y-75330000D01*
X84751735Y-75296049D01*
X84751733Y-75296047D01*
X84739211Y-75280789D01*
X84723953Y-75268267D01*
X84150685Y-74695000D01*
X85911472Y-74695000D01*
X85977522Y-74761050D01*
X86075793Y-74826713D01*
X86184986Y-74871942D01*
X86300905Y-74895000D01*
X86419095Y-74895000D01*
X86535014Y-74871942D01*
X86644207Y-74826713D01*
X86742478Y-74761050D01*
X86826050Y-74677478D01*
X86891713Y-74579207D01*
X86936942Y-74470014D01*
X86960000Y-74354095D01*
X86960000Y-74260000D01*
X87054095Y-74260000D01*
X87170014Y-74236942D01*
X87279207Y-74191713D01*
X87377478Y-74126050D01*
X87461050Y-74042478D01*
X87526713Y-73944207D01*
X87571942Y-73835014D01*
X87595000Y-73719095D01*
X87595000Y-73600905D01*
X87571942Y-73484986D01*
X87526713Y-73375793D01*
X87461050Y-73277522D01*
X87377478Y-73193950D01*
X87279207Y-73128287D01*
X87170014Y-73083058D01*
X87054095Y-73060000D01*
X86935905Y-73060000D01*
X86819986Y-73083058D01*
X86710793Y-73128287D01*
X86612522Y-73193950D01*
X86546472Y-73260000D01*
X86125635Y-73260000D01*
X86105999Y-73258066D01*
X86086363Y-73260000D01*
X86086353Y-73260000D01*
X86027586Y-73265788D01*
X85952186Y-73288660D01*
X85882697Y-73325803D01*
X85821789Y-73375789D01*
X85809259Y-73391057D01*
X85705317Y-73494998D01*
X77489682Y-73494998D01*
X77385738Y-73391053D01*
X77373211Y-73375789D01*
X77312303Y-73325803D01*
X77242814Y-73288660D01*
X77167414Y-73265788D01*
X77108647Y-73260000D01*
X77108646Y-73260000D01*
X77089000Y-73258065D01*
X77069354Y-73260000D01*
X76581633Y-73260000D01*
X76561997Y-73258066D01*
X76542361Y-73260000D01*
X76542351Y-73260000D01*
X76483584Y-73265788D01*
X76408184Y-73288660D01*
X76338695Y-73325803D01*
X76277787Y-73375789D01*
X76265257Y-73391057D01*
X76161315Y-73494998D01*
X75100881Y-73494998D01*
X75050610Y-73419762D01*
X74967038Y-73336190D01*
X74868767Y-73270527D01*
X74759574Y-73225298D01*
X74643655Y-73202240D01*
X74525465Y-73202240D01*
X74409546Y-73225298D01*
X74300353Y-73270527D01*
X74202082Y-73336190D01*
X74118510Y-73419762D01*
X74052847Y-73518033D01*
X74007618Y-73627226D01*
X73984560Y-73743145D01*
X73984560Y-73861335D01*
X74007618Y-73977254D01*
X74052847Y-74086447D01*
X74118510Y-74184718D01*
X74202082Y-74268290D01*
X74300353Y-74333953D01*
X74318037Y-74341278D01*
X73694315Y-74965000D01*
X73600905Y-74965000D01*
X73484986Y-74988058D01*
X73375793Y-75033287D01*
X73277522Y-75098950D01*
X73193950Y-75182522D01*
X73128287Y-75280793D01*
X73083058Y-75389986D01*
X73060000Y-75505905D01*
X73060000Y-75624095D01*
X73083058Y-75740014D01*
X73128287Y-75849207D01*
X73193950Y-75947478D01*
X73277522Y-76031050D01*
X73375793Y-76096713D01*
X73403715Y-76108279D01*
X73334184Y-76193003D01*
X73227398Y-76392785D01*
X73161640Y-76609561D01*
X73139436Y-76835000D01*
X73161640Y-77060439D01*
X73227398Y-77277215D01*
X73334184Y-77476997D01*
X73477893Y-77652107D01*
X73542343Y-77705000D01*
X73190686Y-77705000D01*
X72800857Y-77315171D01*
X72860806Y-77170443D01*
X72905000Y-76948265D01*
X72905000Y-76721735D01*
X72860806Y-76499557D01*
X72774116Y-76290271D01*
X72648263Y-76101918D01*
X72488082Y-75941737D01*
X72299729Y-75815884D01*
X72090443Y-75729194D01*
X71868265Y-75685000D01*
X71641735Y-75685000D01*
X71419557Y-75729194D01*
X71210271Y-75815884D01*
X71021918Y-75941737D01*
X70861737Y-76101918D01*
X70735884Y-76290271D01*
X70649194Y-76499557D01*
X70605000Y-76721735D01*
X70605000Y-76948265D01*
X70649194Y-77170443D01*
X70735884Y-77379729D01*
X70861737Y-77568082D01*
X71021918Y-77728263D01*
X71210271Y-77854116D01*
X71419557Y-77940806D01*
X71641735Y-77985000D01*
X71868265Y-77985000D01*
X72090443Y-77940806D01*
X72235171Y-77880857D01*
X72728267Y-78373953D01*
X72740789Y-78389211D01*
X72756047Y-78401733D01*
X72756049Y-78401735D01*
X72787982Y-78427941D01*
X72801697Y-78439197D01*
X72871186Y-78476340D01*
X72946586Y-78499212D01*
X73005353Y-78505000D01*
X73005363Y-78505000D01*
X73024999Y-78506934D01*
X73044635Y-78505000D01*
X73542343Y-78505000D01*
X73477893Y-78557893D01*
X73334184Y-78733003D01*
X73227398Y-78932785D01*
X73161640Y-79149561D01*
X73139436Y-79375000D01*
X73161640Y-79600439D01*
X73227398Y-79817215D01*
X73334184Y-80016997D01*
X73477893Y-80192107D01*
X73653003Y-80335816D01*
X73852785Y-80442602D01*
X74069561Y-80508360D01*
X74238508Y-80525000D01*
X74351492Y-80525000D01*
X74520439Y-80508360D01*
X74737215Y-80442602D01*
X74776121Y-80421806D01*
X75268267Y-80913953D01*
X75280789Y-80929211D01*
X75296047Y-80941733D01*
X75296049Y-80941735D01*
X75327982Y-80967941D01*
X75341697Y-80979197D01*
X75411186Y-81016340D01*
X75486586Y-81039212D01*
X75545353Y-81045000D01*
X75545363Y-81045000D01*
X75564999Y-81046934D01*
X75584635Y-81045000D01*
X81162343Y-81045000D01*
X81097893Y-81097893D01*
X80954184Y-81273003D01*
X80847398Y-81472785D01*
X80781640Y-81689561D01*
X80759436Y-81915000D01*
X80781640Y-82140439D01*
X80847398Y-82357215D01*
X80954184Y-82556997D01*
X81042820Y-82665000D01*
X75163906Y-82665000D01*
X75181681Y-82647336D01*
X75307515Y-82460281D01*
X75394439Y-82252272D01*
X75396520Y-82245383D01*
X75358912Y-82069000D01*
X74449000Y-82069000D01*
X74449000Y-82089000D01*
X74141000Y-82089000D01*
X74141000Y-82069000D01*
X73231088Y-82069000D01*
X73193480Y-82245383D01*
X73195561Y-82252272D01*
X73282485Y-82460281D01*
X73408319Y-82647336D01*
X73426094Y-82665000D01*
X72627180Y-82665000D01*
X72715816Y-82556997D01*
X72822602Y-82357215D01*
X72888360Y-82140439D01*
X72910564Y-81915000D01*
X72888360Y-81689561D01*
X72856526Y-81584617D01*
X73193480Y-81584617D01*
X73231088Y-81761000D01*
X74141000Y-81761000D01*
X74141000Y-80850350D01*
X74449000Y-80850350D01*
X74449000Y-81761000D01*
X75358912Y-81761000D01*
X75396520Y-81584617D01*
X75394439Y-81577728D01*
X75307515Y-81369719D01*
X75181681Y-81182664D01*
X75021772Y-81023753D01*
X74833934Y-80899092D01*
X74625385Y-80813472D01*
X74449000Y-80850350D01*
X74141000Y-80850350D01*
X73964615Y-80813472D01*
X73756066Y-80899092D01*
X73568228Y-81023753D01*
X73408319Y-81182664D01*
X73282485Y-81369719D01*
X73195561Y-81577728D01*
X73193480Y-81584617D01*
X72856526Y-81584617D01*
X72822602Y-81472785D01*
X72715816Y-81273003D01*
X72572107Y-81097893D01*
X72396997Y-80954184D01*
X72197215Y-80847398D01*
X71980439Y-80781640D01*
X71811492Y-80765000D01*
X71698508Y-80765000D01*
X71529561Y-80781640D01*
X71312785Y-80847398D01*
X71113003Y-80954184D01*
X70937893Y-81097893D01*
X70794184Y-81273003D01*
X70687398Y-81472785D01*
X70621640Y-81689561D01*
X70599436Y-81915000D01*
X70621640Y-82140439D01*
X70687398Y-82357215D01*
X70794184Y-82556997D01*
X70882820Y-82665000D01*
X70510542Y-82665000D01*
X70484999Y-82662484D01*
X70459456Y-82665000D01*
X70459455Y-82665000D01*
X70383062Y-82672524D01*
X70285042Y-82702258D01*
X70242991Y-82724735D01*
X70194705Y-82750544D01*
X70163451Y-82776194D01*
X70115525Y-82815525D01*
X70099241Y-82835368D01*
X68999610Y-83935000D01*
X65161025Y-83935000D01*
X65095816Y-83813003D01*
X64952107Y-83637893D01*
X64776997Y-83494184D01*
X64577215Y-83387398D01*
X64360439Y-83321640D01*
X64191492Y-83305000D01*
X64078508Y-83305000D01*
X63909561Y-83321640D01*
X63692785Y-83387398D01*
X63493003Y-83494184D01*
X63317893Y-83637893D01*
X63174184Y-83813003D01*
X63067398Y-84012785D01*
X63001640Y-84229561D01*
X62979436Y-84455000D01*
X62750564Y-84455000D01*
X62728360Y-84229561D01*
X62662602Y-84012785D01*
X62555816Y-83813003D01*
X62412107Y-83637893D01*
X62236997Y-83494184D01*
X62037215Y-83387398D01*
X61820439Y-83321640D01*
X61651492Y-83305000D01*
X61538508Y-83305000D01*
X61369561Y-83321640D01*
X61152785Y-83387398D01*
X60953003Y-83494184D01*
X60777893Y-83637893D01*
X60634184Y-83813003D01*
X60527398Y-84012785D01*
X60461640Y-84229561D01*
X60439436Y-84455000D01*
X53152500Y-84455000D01*
X53152500Y-81915000D01*
X60439436Y-81915000D01*
X60461640Y-82140439D01*
X60527398Y-82357215D01*
X60634184Y-82556997D01*
X60777893Y-82732107D01*
X60953003Y-82875816D01*
X61152785Y-82982602D01*
X61369561Y-83048360D01*
X61538508Y-83065000D01*
X61651492Y-83065000D01*
X61820439Y-83048360D01*
X62037215Y-82982602D01*
X62236997Y-82875816D01*
X62358386Y-82776194D01*
X63491595Y-82776194D01*
X63589724Y-82927508D01*
X63596067Y-82930908D01*
X63804616Y-83016528D01*
X64025862Y-83059818D01*
X64251301Y-83059112D01*
X64472272Y-83014439D01*
X64680280Y-82927515D01*
X64778927Y-82776716D01*
X64135000Y-82132789D01*
X63491595Y-82776194D01*
X62358386Y-82776194D01*
X62412107Y-82732107D01*
X62555816Y-82556997D01*
X62662602Y-82357215D01*
X62728360Y-82140439D01*
X62739814Y-82024138D01*
X62990182Y-82024138D01*
X63033472Y-82245384D01*
X63119092Y-82453933D01*
X63122492Y-82460276D01*
X63273806Y-82558405D01*
X63917211Y-81915000D01*
X64352789Y-81915000D01*
X64996716Y-82558927D01*
X65147515Y-82460280D01*
X65234439Y-82252272D01*
X65279112Y-82031301D01*
X65279818Y-81805862D01*
X65236528Y-81584616D01*
X65150908Y-81376067D01*
X65147508Y-81369724D01*
X64996194Y-81271595D01*
X64352789Y-81915000D01*
X63917211Y-81915000D01*
X63273284Y-81271073D01*
X63122485Y-81369720D01*
X63035561Y-81577728D01*
X62990888Y-81798699D01*
X62990182Y-82024138D01*
X62739814Y-82024138D01*
X62750564Y-81915000D01*
X62728360Y-81689561D01*
X62662602Y-81472785D01*
X62555816Y-81273003D01*
X62412107Y-81097893D01*
X62357751Y-81053284D01*
X63491073Y-81053284D01*
X64135000Y-81697211D01*
X64778405Y-81053806D01*
X64680276Y-80902492D01*
X64673933Y-80899092D01*
X64465384Y-80813472D01*
X64244138Y-80770182D01*
X64018699Y-80770888D01*
X63797728Y-80815561D01*
X63589720Y-80902485D01*
X63491073Y-81053284D01*
X62357751Y-81053284D01*
X62236997Y-80954184D01*
X62037215Y-80847398D01*
X61820439Y-80781640D01*
X61651492Y-80765000D01*
X61538508Y-80765000D01*
X61369561Y-80781640D01*
X61152785Y-80847398D01*
X60953003Y-80954184D01*
X60777893Y-81097893D01*
X60634184Y-81273003D01*
X60527398Y-81472785D01*
X60461640Y-81689561D01*
X60439436Y-81915000D01*
X53152500Y-81915000D01*
X53152500Y-81021905D01*
X51175000Y-81021905D01*
X51175000Y-79375000D01*
X60439436Y-79375000D01*
X60461640Y-79600439D01*
X60527398Y-79817215D01*
X60634184Y-80016997D01*
X60777893Y-80192107D01*
X60953003Y-80335816D01*
X61152785Y-80442602D01*
X61369561Y-80508360D01*
X61538508Y-80525000D01*
X61651492Y-80525000D01*
X61820439Y-80508360D01*
X62037215Y-80442602D01*
X62236997Y-80335816D01*
X62412107Y-80192107D01*
X62555816Y-80016997D01*
X62662602Y-79817215D01*
X62728360Y-79600439D01*
X62750564Y-79375000D01*
X62979436Y-79375000D01*
X63001640Y-79600439D01*
X63067398Y-79817215D01*
X63174184Y-80016997D01*
X63317893Y-80192107D01*
X63493003Y-80335816D01*
X63692785Y-80442602D01*
X63909561Y-80508360D01*
X64078508Y-80525000D01*
X64191492Y-80525000D01*
X64360439Y-80508360D01*
X64577215Y-80442602D01*
X64776997Y-80335816D01*
X64952107Y-80192107D01*
X65095816Y-80016997D01*
X65202602Y-79817215D01*
X65268360Y-79600439D01*
X65290564Y-79375000D01*
X70599436Y-79375000D01*
X70621640Y-79600439D01*
X70687398Y-79817215D01*
X70794184Y-80016997D01*
X70937893Y-80192107D01*
X71113003Y-80335816D01*
X71312785Y-80442602D01*
X71529561Y-80508360D01*
X71698508Y-80525000D01*
X71811492Y-80525000D01*
X71980439Y-80508360D01*
X72197215Y-80442602D01*
X72396997Y-80335816D01*
X72572107Y-80192107D01*
X72715816Y-80016997D01*
X72822602Y-79817215D01*
X72888360Y-79600439D01*
X72910564Y-79375000D01*
X72888360Y-79149561D01*
X72822602Y-78932785D01*
X72715816Y-78733003D01*
X72572107Y-78557893D01*
X72396997Y-78414184D01*
X72197215Y-78307398D01*
X71980439Y-78241640D01*
X71811492Y-78225000D01*
X71698508Y-78225000D01*
X71529561Y-78241640D01*
X71312785Y-78307398D01*
X71113003Y-78414184D01*
X70937893Y-78557893D01*
X70794184Y-78733003D01*
X70687398Y-78932785D01*
X70621640Y-79149561D01*
X70599436Y-79375000D01*
X65290564Y-79375000D01*
X65268360Y-79149561D01*
X65202602Y-78932785D01*
X65095816Y-78733003D01*
X64952107Y-78557893D01*
X64776997Y-78414184D01*
X64577215Y-78307398D01*
X64360439Y-78241640D01*
X64191492Y-78225000D01*
X64078508Y-78225000D01*
X63909561Y-78241640D01*
X63692785Y-78307398D01*
X63493003Y-78414184D01*
X63317893Y-78557893D01*
X63174184Y-78733003D01*
X63067398Y-78932785D01*
X63001640Y-79149561D01*
X62979436Y-79375000D01*
X62750564Y-79375000D01*
X62728360Y-79149561D01*
X62662602Y-78932785D01*
X62555816Y-78733003D01*
X62412107Y-78557893D01*
X62236997Y-78414184D01*
X62037215Y-78307398D01*
X61820439Y-78241640D01*
X61651492Y-78225000D01*
X61538508Y-78225000D01*
X61369561Y-78241640D01*
X61152785Y-78307398D01*
X60953003Y-78414184D01*
X60777893Y-78557893D01*
X60634184Y-78733003D01*
X60527398Y-78932785D01*
X60461640Y-79149561D01*
X60439436Y-79375000D01*
X51175000Y-79375000D01*
X51175000Y-73025714D01*
X55987500Y-73025714D01*
X55987500Y-67250905D01*
X66075000Y-67250905D01*
X66075000Y-67369095D01*
X66098058Y-67485014D01*
X66143287Y-67594207D01*
X66208950Y-67692478D01*
X66292522Y-67776050D01*
X66390793Y-67841713D01*
X66499986Y-67886942D01*
X66615905Y-67910000D01*
X66734095Y-67910000D01*
X66850014Y-67886942D01*
X66959207Y-67841713D01*
X67057478Y-67776050D01*
X67123528Y-67710000D01*
X86546472Y-67710000D01*
X86612522Y-67776050D01*
X86710793Y-67841713D01*
X86819986Y-67886942D01*
X86935905Y-67910000D01*
X87054095Y-67910000D01*
X87170014Y-67886942D01*
X87279207Y-67841713D01*
X87377478Y-67776050D01*
X87443528Y-67710000D01*
X117026472Y-67710000D01*
X117092522Y-67776050D01*
X117190793Y-67841713D01*
X117299986Y-67886942D01*
X117415905Y-67910000D01*
X117534095Y-67910000D01*
X117650014Y-67886942D01*
X117759207Y-67841713D01*
X117857478Y-67776050D01*
X117941050Y-67692478D01*
X118006713Y-67594207D01*
X118051942Y-67485014D01*
X118075000Y-67369095D01*
X118075000Y-67250905D01*
X118051942Y-67134986D01*
X118006713Y-67025793D01*
X117941050Y-66927522D01*
X117857478Y-66843950D01*
X117759207Y-66778287D01*
X117650014Y-66733058D01*
X117534095Y-66710000D01*
X117415905Y-66710000D01*
X117299986Y-66733058D01*
X117190793Y-66778287D01*
X117092522Y-66843950D01*
X117026472Y-66910000D01*
X87443528Y-66910000D01*
X87377478Y-66843950D01*
X87279207Y-66778287D01*
X87170014Y-66733058D01*
X87054095Y-66710000D01*
X86935905Y-66710000D01*
X86819986Y-66733058D01*
X86710793Y-66778287D01*
X86612522Y-66843950D01*
X86546472Y-66910000D01*
X67123528Y-66910000D01*
X67057478Y-66843950D01*
X66959207Y-66778287D01*
X66850014Y-66733058D01*
X66734095Y-66710000D01*
X66615905Y-66710000D01*
X66499986Y-66733058D01*
X66390793Y-66778287D01*
X66292522Y-66843950D01*
X66208950Y-66927522D01*
X66143287Y-67025793D01*
X66098058Y-67134986D01*
X66075000Y-67250905D01*
X55987500Y-67250905D01*
X55987500Y-61535905D01*
X67345000Y-61535905D01*
X67345000Y-61654095D01*
X67368058Y-61770014D01*
X67413287Y-61879207D01*
X67478950Y-61977478D01*
X67562522Y-62061050D01*
X67660793Y-62126713D01*
X67769986Y-62171942D01*
X67885905Y-62195000D01*
X67980000Y-62195000D01*
X67980000Y-62265000D01*
X67885905Y-62265000D01*
X67769986Y-62288058D01*
X67660793Y-62333287D01*
X67562522Y-62398950D01*
X67478950Y-62482522D01*
X67413287Y-62580793D01*
X67368058Y-62689986D01*
X67345000Y-62805905D01*
X67345000Y-62924095D01*
X67368058Y-63040014D01*
X67413287Y-63149207D01*
X67478950Y-63247478D01*
X67562522Y-63331050D01*
X67660793Y-63396713D01*
X67769986Y-63441942D01*
X67885905Y-63465000D01*
X68004095Y-63465000D01*
X68120014Y-63441942D01*
X68229207Y-63396713D01*
X68327478Y-63331050D01*
X68393528Y-63265000D01*
X68814354Y-63265000D01*
X68834000Y-63266935D01*
X68853646Y-63265000D01*
X68853647Y-63265000D01*
X68912414Y-63259212D01*
X68987814Y-63236340D01*
X69057303Y-63199197D01*
X69118211Y-63149211D01*
X69130738Y-63133947D01*
X69234682Y-63030002D01*
X71576034Y-63030002D01*
X71559058Y-63070986D01*
X71536000Y-63186905D01*
X71536000Y-63305095D01*
X71559058Y-63421014D01*
X71604287Y-63530207D01*
X71669950Y-63628478D01*
X71753522Y-63712050D01*
X71851793Y-63777713D01*
X71960986Y-63822942D01*
X72076905Y-63846000D01*
X72195095Y-63846000D01*
X72311014Y-63822942D01*
X72420207Y-63777713D01*
X72518478Y-63712050D01*
X72602050Y-63628478D01*
X72667713Y-63530207D01*
X72709218Y-63430004D01*
X80390319Y-63430004D01*
X80729263Y-63768948D01*
X80741789Y-63784211D01*
X80757050Y-63796735D01*
X80802697Y-63834197D01*
X80872186Y-63871340D01*
X80947586Y-63894212D01*
X81026000Y-63901935D01*
X81045647Y-63900000D01*
X81514354Y-63900000D01*
X81534000Y-63901935D01*
X81553646Y-63900000D01*
X81553647Y-63900000D01*
X81612414Y-63894212D01*
X81687814Y-63871340D01*
X81757303Y-63834197D01*
X81818211Y-63784211D01*
X81830737Y-63768948D01*
X82169681Y-63430004D01*
X87375319Y-63430004D01*
X87714263Y-63768948D01*
X87726789Y-63784211D01*
X87742050Y-63796735D01*
X87787697Y-63834197D01*
X87857186Y-63871340D01*
X87932586Y-63894212D01*
X88011000Y-63901935D01*
X88030647Y-63900000D01*
X88451472Y-63900000D01*
X88517522Y-63966050D01*
X88615793Y-64031713D01*
X88724986Y-64076942D01*
X88840905Y-64100000D01*
X88959095Y-64100000D01*
X89075014Y-64076942D01*
X89184207Y-64031713D01*
X89282478Y-63966050D01*
X89366050Y-63882478D01*
X89431713Y-63784207D01*
X89476942Y-63675014D01*
X89500000Y-63559095D01*
X89500000Y-63440905D01*
X89476942Y-63324986D01*
X89431713Y-63215793D01*
X89405281Y-63176236D01*
X89438211Y-63149211D01*
X89450738Y-63133947D01*
X89554682Y-63030002D01*
X91736899Y-63030002D01*
X91703661Y-63092186D01*
X91680788Y-63167587D01*
X91673065Y-63246000D01*
X91680788Y-63324413D01*
X91703661Y-63399814D01*
X91740803Y-63469302D01*
X91790790Y-63530210D01*
X91851698Y-63580197D01*
X91921186Y-63617339D01*
X91996587Y-63640212D01*
X92002241Y-63640769D01*
X92073522Y-63712050D01*
X92171793Y-63777713D01*
X92280986Y-63822942D01*
X92396905Y-63846000D01*
X92515095Y-63846000D01*
X92631014Y-63822942D01*
X92740207Y-63777713D01*
X92838478Y-63712050D01*
X92922050Y-63628478D01*
X92987713Y-63530207D01*
X93029218Y-63430004D01*
X117220319Y-63430004D01*
X117559263Y-63768948D01*
X117571789Y-63784211D01*
X117587050Y-63796735D01*
X117632697Y-63834197D01*
X117702186Y-63871340D01*
X117777586Y-63894212D01*
X117856000Y-63901935D01*
X117875647Y-63900000D01*
X118931472Y-63900000D01*
X118997522Y-63966050D01*
X119095793Y-64031713D01*
X119204986Y-64076942D01*
X119320905Y-64100000D01*
X119439095Y-64100000D01*
X119555014Y-64076942D01*
X119664207Y-64031713D01*
X119762478Y-63966050D01*
X119846050Y-63882478D01*
X119911713Y-63784207D01*
X119956942Y-63675014D01*
X119980000Y-63559095D01*
X119980000Y-63440905D01*
X119956942Y-63324986D01*
X119911713Y-63215793D01*
X119846050Y-63117522D01*
X119762478Y-63033950D01*
X119664207Y-62968287D01*
X119555014Y-62923058D01*
X119439095Y-62900000D01*
X119320905Y-62900000D01*
X119204986Y-62923058D01*
X119095793Y-62968287D01*
X118997522Y-63033950D01*
X118931472Y-63100000D01*
X118662095Y-63100000D01*
X118686942Y-63040014D01*
X118710000Y-62924095D01*
X118710000Y-62805905D01*
X118686942Y-62689986D01*
X118662095Y-62630000D01*
X118931472Y-62630000D01*
X118997522Y-62696050D01*
X119095793Y-62761713D01*
X119204986Y-62806942D01*
X119320905Y-62830000D01*
X119439095Y-62830000D01*
X119555014Y-62806942D01*
X119664207Y-62761713D01*
X119762478Y-62696050D01*
X119846050Y-62612478D01*
X119911713Y-62514207D01*
X119956942Y-62405014D01*
X119980000Y-62289095D01*
X119980000Y-62170905D01*
X119956942Y-62054986D01*
X119911713Y-61945793D01*
X119846050Y-61847522D01*
X119762478Y-61763950D01*
X119664207Y-61698287D01*
X119555014Y-61653058D01*
X119439095Y-61630000D01*
X119320905Y-61630000D01*
X119204986Y-61653058D01*
X119095793Y-61698287D01*
X118997522Y-61763950D01*
X118931472Y-61830000D01*
X118662095Y-61830000D01*
X118686942Y-61770014D01*
X118710000Y-61654095D01*
X118710000Y-61535905D01*
X118686942Y-61419986D01*
X118662095Y-61360000D01*
X118931472Y-61360000D01*
X118997522Y-61426050D01*
X119095793Y-61491713D01*
X119204986Y-61536942D01*
X119320905Y-61560000D01*
X119439095Y-61560000D01*
X119555014Y-61536942D01*
X119664207Y-61491713D01*
X119762478Y-61426050D01*
X119846050Y-61342478D01*
X119911713Y-61244207D01*
X119956942Y-61135014D01*
X119980000Y-61019095D01*
X119980000Y-60900905D01*
X119956942Y-60784986D01*
X119911713Y-60675793D01*
X119846050Y-60577522D01*
X119762478Y-60493950D01*
X119664207Y-60428287D01*
X119555014Y-60383058D01*
X119439095Y-60360000D01*
X119320905Y-60360000D01*
X119204986Y-60383058D01*
X119095793Y-60428287D01*
X118997522Y-60493950D01*
X118931472Y-60560000D01*
X117875647Y-60560000D01*
X117856000Y-60558065D01*
X117836353Y-60560000D01*
X117777586Y-60565788D01*
X117702186Y-60588660D01*
X117632697Y-60625803D01*
X117571789Y-60675789D01*
X117559263Y-60691052D01*
X117220319Y-61029996D01*
X89739371Y-61029996D01*
X89464625Y-60755250D01*
X89431713Y-60675793D01*
X89366050Y-60577522D01*
X89282478Y-60493950D01*
X89184207Y-60428287D01*
X89075014Y-60383058D01*
X88959095Y-60360000D01*
X88840905Y-60360000D01*
X88724986Y-60383058D01*
X88615793Y-60428287D01*
X88517522Y-60493950D01*
X88451472Y-60560000D01*
X88030635Y-60560000D01*
X88010999Y-60558066D01*
X87991363Y-60560000D01*
X87991353Y-60560000D01*
X87932586Y-60565788D01*
X87857186Y-60588660D01*
X87787697Y-60625803D01*
X87726789Y-60675789D01*
X87714263Y-60691052D01*
X87375319Y-61029996D01*
X81853218Y-61029996D01*
X81811713Y-60929793D01*
X81746050Y-60831522D01*
X81662478Y-60747950D01*
X81564207Y-60682287D01*
X81455014Y-60637058D01*
X81339095Y-60614000D01*
X81220905Y-60614000D01*
X81104986Y-60637058D01*
X80995793Y-60682287D01*
X80897522Y-60747950D01*
X80813950Y-60831522D01*
X80748287Y-60929793D01*
X80706782Y-61029996D01*
X69469681Y-61029996D01*
X69130737Y-60691052D01*
X69118211Y-60675789D01*
X69103817Y-60663976D01*
X69046050Y-60577522D01*
X68962478Y-60493950D01*
X68864207Y-60428287D01*
X68755014Y-60383058D01*
X68639095Y-60360000D01*
X68520905Y-60360000D01*
X68404986Y-60383058D01*
X68295793Y-60428287D01*
X68197522Y-60493950D01*
X68113950Y-60577522D01*
X68048287Y-60675793D01*
X68003058Y-60784986D01*
X67980000Y-60900905D01*
X67980000Y-60995000D01*
X67885905Y-60995000D01*
X67769986Y-61018058D01*
X67660793Y-61063287D01*
X67562522Y-61128950D01*
X67478950Y-61212522D01*
X67413287Y-61310793D01*
X67368058Y-61419986D01*
X67345000Y-61535905D01*
X55987500Y-61535905D01*
X55987500Y-59390000D01*
X51175000Y-59390000D01*
X51175000Y-55816696D01*
X51203739Y-55494677D01*
X52700000Y-55494677D01*
X52700000Y-56105323D01*
X52819131Y-56704237D01*
X53052815Y-57268401D01*
X53392072Y-57776135D01*
X53823865Y-58207928D01*
X54331599Y-58547185D01*
X54895763Y-58780869D01*
X55494677Y-58900000D01*
X56105323Y-58900000D01*
X56704237Y-58780869D01*
X57268401Y-58547185D01*
X57776135Y-58207928D01*
X58207928Y-57776135D01*
X58547185Y-57268401D01*
X58780869Y-56704237D01*
X58900000Y-56105323D01*
X58900000Y-55494677D01*
X142700000Y-55494677D01*
X142700000Y-56105323D01*
X142819131Y-56704237D01*
X143052815Y-57268401D01*
X143392072Y-57776135D01*
X143823865Y-58207928D01*
X144331599Y-58547185D01*
X144895763Y-58780869D01*
X145494677Y-58900000D01*
X146105323Y-58900000D01*
X146704237Y-58780869D01*
X147268401Y-58547185D01*
X147776135Y-58207928D01*
X148207928Y-57776135D01*
X148547185Y-57268401D01*
X148780869Y-56704237D01*
X148900000Y-56105323D01*
X148900000Y-55494677D01*
X148780869Y-54895763D01*
X148547185Y-54331599D01*
X148207928Y-53823865D01*
X147776135Y-53392072D01*
X147268401Y-53052815D01*
X146704237Y-52819131D01*
X146105323Y-52700000D01*
X145494677Y-52700000D01*
X144895763Y-52819131D01*
X144331599Y-53052815D01*
X143823865Y-53392072D01*
X143392072Y-53823865D01*
X143052815Y-54331599D01*
X142819131Y-54895763D01*
X142700000Y-55494677D01*
X58900000Y-55494677D01*
X58780869Y-54895763D01*
X58547185Y-54331599D01*
X58207928Y-53823865D01*
X57776135Y-53392072D01*
X57268401Y-53052815D01*
X56704237Y-52819131D01*
X56105323Y-52700000D01*
X55494677Y-52700000D01*
X54895763Y-52819131D01*
X54331599Y-53052815D01*
X53823865Y-53392072D01*
X53392072Y-53823865D01*
X53052815Y-54331599D01*
X52819131Y-54895763D01*
X52700000Y-55494677D01*
X51203739Y-55494677D01*
X51249562Y-54981248D01*
X51466468Y-54188372D01*
X51820351Y-53446442D01*
X52300027Y-52778902D01*
X52890329Y-52206860D01*
X53572609Y-51748387D01*
X54325289Y-51417984D01*
X55127470Y-51225397D01*
X55813751Y-51175000D01*
X145783304Y-51175000D01*
X146618752Y-51249562D01*
X146618752Y-51249562D01*
G37*
X146618752Y-51249562D02*
X147411628Y-51466468D01*
X148153558Y-51820351D01*
X148821098Y-52300027D01*
X149393140Y-52890329D01*
X149851613Y-53572609D01*
X150182016Y-54325289D01*
X150374603Y-55127470D01*
X150425000Y-55813751D01*
X150425001Y-95783293D01*
X150350438Y-96618752D01*
X150133533Y-97411622D01*
X149779649Y-98153558D01*
X149299973Y-98821098D01*
X148709671Y-99393140D01*
X148027391Y-99851613D01*
X147274714Y-100182015D01*
X146472530Y-100374603D01*
X145786249Y-100425000D01*
X55816696Y-100425000D01*
X54981248Y-100350438D01*
X54188378Y-100133533D01*
X53446442Y-99779649D01*
X52778902Y-99299973D01*
X52206860Y-98709671D01*
X51748387Y-98027391D01*
X51417985Y-97274714D01*
X51225397Y-96472530D01*
X51175000Y-95786249D01*
X51175000Y-95494677D01*
X52700000Y-95494677D01*
X52700000Y-96105323D01*
X52819131Y-96704237D01*
X53052815Y-97268401D01*
X53392072Y-97776135D01*
X53823865Y-98207928D01*
X54331599Y-98547185D01*
X54895763Y-98780869D01*
X55494677Y-98900000D01*
X56105323Y-98900000D01*
X56704237Y-98780869D01*
X57268401Y-98547185D01*
X57776135Y-98207928D01*
X58207928Y-97776135D01*
X58547185Y-97268401D01*
X58780869Y-96704237D01*
X58900000Y-96105323D01*
X58900000Y-95494677D01*
X142700000Y-95494677D01*
X142700000Y-96105323D01*
X142819131Y-96704237D01*
X143052815Y-97268401D01*
X143392072Y-97776135D01*
X143823865Y-98207928D01*
X144331599Y-98547185D01*
X144895763Y-98780869D01*
X145494677Y-98900000D01*
X146105323Y-98900000D01*
X146704237Y-98780869D01*
X147268401Y-98547185D01*
X147776135Y-98207928D01*
X148207928Y-97776135D01*
X148547185Y-97268401D01*
X148780869Y-96704237D01*
X148900000Y-96105323D01*
X148900000Y-95494677D01*
X148780869Y-94895763D01*
X148547185Y-94331599D01*
X148207928Y-93823865D01*
X147776135Y-93392072D01*
X147268401Y-93052815D01*
X146704237Y-92819131D01*
X146105323Y-92700000D01*
X145494677Y-92700000D01*
X144895763Y-92819131D01*
X144331599Y-93052815D01*
X143823865Y-93392072D01*
X143392072Y-93823865D01*
X143052815Y-94331599D01*
X142819131Y-94895763D01*
X142700000Y-95494677D01*
X58900000Y-95494677D01*
X58780869Y-94895763D01*
X58547185Y-94331599D01*
X58207928Y-93823865D01*
X57776135Y-93392072D01*
X57268401Y-93052815D01*
X56704237Y-92819131D01*
X56105323Y-92700000D01*
X55494677Y-92700000D01*
X54895763Y-92819131D01*
X54331599Y-93052815D01*
X53823865Y-93392072D01*
X53392072Y-93823865D01*
X53052815Y-94331599D01*
X52819131Y-94895763D01*
X52700000Y-95494677D01*
X51175000Y-95494677D01*
X51175000Y-86995000D01*
X60439436Y-86995000D01*
X60461640Y-87220439D01*
X60527398Y-87437215D01*
X60634184Y-87636997D01*
X60777893Y-87812107D01*
X60953003Y-87955816D01*
X61152785Y-88062602D01*
X61369561Y-88128360D01*
X61538508Y-88145000D01*
X61651492Y-88145000D01*
X61820439Y-88128360D01*
X62037215Y-88062602D01*
X62236997Y-87955816D01*
X62412107Y-87812107D01*
X62555816Y-87636997D01*
X62662602Y-87437215D01*
X62728360Y-87220439D01*
X62750564Y-86995000D01*
X62728360Y-86769561D01*
X62662602Y-86552785D01*
X62555816Y-86353003D01*
X62412107Y-86177893D01*
X62236997Y-86034184D01*
X62037215Y-85927398D01*
X61820439Y-85861640D01*
X61651492Y-85845000D01*
X61538508Y-85845000D01*
X61369561Y-85861640D01*
X61152785Y-85927398D01*
X60953003Y-86034184D01*
X60777893Y-86177893D01*
X60634184Y-86353003D01*
X60527398Y-86552785D01*
X60461640Y-86769561D01*
X60439436Y-86995000D01*
X51175000Y-86995000D01*
X51175000Y-85348095D01*
X53152500Y-85348095D01*
X53152500Y-84455000D01*
X60439436Y-84455000D01*
X60461640Y-84680439D01*
X60527398Y-84897215D01*
X60634184Y-85096997D01*
X60777893Y-85272107D01*
X60953003Y-85415816D01*
X61152785Y-85522602D01*
X61369561Y-85588360D01*
X61538508Y-85605000D01*
X61651492Y-85605000D01*
X61820439Y-85588360D01*
X62037215Y-85522602D01*
X62236997Y-85415816D01*
X62412107Y-85272107D01*
X62555816Y-85096997D01*
X62662602Y-84897215D01*
X62728360Y-84680439D01*
X62750564Y-84455000D01*
X62979436Y-84455000D01*
X63001640Y-84680439D01*
X63067398Y-84897215D01*
X63174184Y-85096997D01*
X63317893Y-85272107D01*
X63493003Y-85415816D01*
X63692785Y-85522602D01*
X63909561Y-85588360D01*
X64078508Y-85605000D01*
X64191492Y-85605000D01*
X64360439Y-85588360D01*
X64577215Y-85522602D01*
X64776997Y-85415816D01*
X64952107Y-85272107D01*
X65095816Y-85096997D01*
X65161025Y-84975000D01*
X69189457Y-84975000D01*
X69215000Y-84977516D01*
X69240543Y-84975000D01*
X69240545Y-84975000D01*
X69316938Y-84967476D01*
X69414958Y-84937742D01*
X69505294Y-84889456D01*
X69584475Y-84824475D01*
X69600766Y-84804624D01*
X70700391Y-83705000D01*
X70882820Y-83705000D01*
X70794184Y-83813003D01*
X70687398Y-84012785D01*
X70621640Y-84229561D01*
X70599436Y-84455000D01*
X70621640Y-84680439D01*
X70687398Y-84897215D01*
X70794184Y-85096997D01*
X70937893Y-85272107D01*
X71002343Y-85325000D01*
X70504635Y-85325000D01*
X70484999Y-85323066D01*
X70465363Y-85325000D01*
X70465353Y-85325000D01*
X70406586Y-85330788D01*
X70331186Y-85353660D01*
X70261697Y-85390803D01*
X70261695Y-85390804D01*
X70261696Y-85390804D01*
X70216049Y-85428265D01*
X70216047Y-85428267D01*
X70200789Y-85440789D01*
X70188267Y-85456047D01*
X69049315Y-86595000D01*
X65214065Y-86595000D01*
X65154116Y-86450271D01*
X65028263Y-86261918D01*
X64868082Y-86101737D01*
X64679729Y-85975884D01*
X64470443Y-85889194D01*
X64248265Y-85845000D01*
X64021735Y-85845000D01*
X63799557Y-85889194D01*
X63590271Y-85975884D01*
X63401918Y-86101737D01*
X63241737Y-86261918D01*
X63115884Y-86450271D01*
X63029194Y-86659557D01*
X62985000Y-86881735D01*
X62985000Y-87108265D01*
X63029194Y-87330443D01*
X63115884Y-87539729D01*
X63241737Y-87728082D01*
X63401918Y-87888263D01*
X63590271Y-88014116D01*
X63799557Y-88100806D01*
X64021735Y-88145000D01*
X64248265Y-88145000D01*
X64470443Y-88100806D01*
X64679729Y-88014116D01*
X64868082Y-87888263D01*
X65028263Y-87728082D01*
X65154116Y-87539729D01*
X65214065Y-87395000D01*
X69195354Y-87395000D01*
X69215000Y-87396935D01*
X69234646Y-87395000D01*
X69234647Y-87395000D01*
X69293414Y-87389212D01*
X69368814Y-87366340D01*
X69438303Y-87329197D01*
X69499211Y-87279211D01*
X69511737Y-87263948D01*
X70650686Y-86125000D01*
X71002343Y-86125000D01*
X70937893Y-86177893D01*
X70794184Y-86353003D01*
X70687398Y-86552785D01*
X70621640Y-86769561D01*
X70599436Y-86995000D01*
X70621640Y-87220439D01*
X70687398Y-87437215D01*
X70794184Y-87636997D01*
X70937893Y-87812107D01*
X71113003Y-87955816D01*
X71312785Y-88062602D01*
X71355001Y-88075408D01*
X71355001Y-88245344D01*
X71353065Y-88265000D01*
X71360788Y-88343413D01*
X71383661Y-88418814D01*
X71420803Y-88488302D01*
X71458265Y-88533950D01*
X71458268Y-88533953D01*
X71470790Y-88549211D01*
X71486048Y-88561733D01*
X72093263Y-89168948D01*
X72105789Y-89184211D01*
X72121050Y-89196735D01*
X72166697Y-89234197D01*
X72236186Y-89271340D01*
X72311586Y-89294212D01*
X72390000Y-89301935D01*
X72409647Y-89300000D01*
X81260354Y-89300000D01*
X81280000Y-89301935D01*
X81299646Y-89300000D01*
X81299647Y-89300000D01*
X81358414Y-89294212D01*
X81433814Y-89271340D01*
X81503303Y-89234197D01*
X81564211Y-89184211D01*
X81576737Y-89168948D01*
X82183949Y-88561736D01*
X82199211Y-88549211D01*
X82249197Y-88488303D01*
X82286340Y-88418814D01*
X82309212Y-88343414D01*
X82315000Y-88284647D01*
X82315000Y-88284646D01*
X82316935Y-88265000D01*
X82315000Y-88245353D01*
X82315000Y-88075408D01*
X82357215Y-88062602D01*
X82556997Y-87955816D01*
X82732107Y-87812107D01*
X82875816Y-87636997D01*
X82982602Y-87437215D01*
X83048360Y-87220439D01*
X83070564Y-86995000D01*
X83048360Y-86769561D01*
X82982602Y-86552785D01*
X82875816Y-86353003D01*
X82732107Y-86177893D01*
X82667657Y-86125000D01*
X83702343Y-86125000D01*
X83637893Y-86177893D01*
X83494184Y-86353003D01*
X83387398Y-86552785D01*
X83321640Y-86769561D01*
X83299436Y-86995000D01*
X83321640Y-87220439D01*
X83387398Y-87437215D01*
X83494184Y-87636997D01*
X83637893Y-87812107D01*
X83813003Y-87955816D01*
X84012785Y-88062602D01*
X84229561Y-88128360D01*
X84398508Y-88145000D01*
X84511492Y-88145000D01*
X84680439Y-88128360D01*
X84897215Y-88062602D01*
X85096997Y-87955816D01*
X85272107Y-87812107D01*
X85415816Y-87636997D01*
X85522602Y-87437215D01*
X85588360Y-87220439D01*
X85610564Y-86995000D01*
X85588360Y-86769561D01*
X85522602Y-86552785D01*
X85415816Y-86353003D01*
X85272107Y-86177893D01*
X85207657Y-86125000D01*
X91322343Y-86125000D01*
X91257893Y-86177893D01*
X91114184Y-86353003D01*
X91007398Y-86552785D01*
X90941640Y-86769561D01*
X90919436Y-86995000D01*
X90941640Y-87220439D01*
X91007398Y-87437215D01*
X91114184Y-87636997D01*
X91257893Y-87812107D01*
X91433003Y-87955816D01*
X91632785Y-88062602D01*
X91675001Y-88075408D01*
X91675001Y-88245344D01*
X91673065Y-88265000D01*
X91680788Y-88343413D01*
X91703661Y-88418814D01*
X91740803Y-88488302D01*
X91778265Y-88533950D01*
X91778268Y-88533953D01*
X91790790Y-88549211D01*
X91806048Y-88561733D01*
X92413263Y-89168948D01*
X92425789Y-89184211D01*
X92441050Y-89196735D01*
X92486697Y-89234197D01*
X92556186Y-89271340D01*
X92631586Y-89294212D01*
X92710000Y-89301935D01*
X92729647Y-89300000D01*
X102215354Y-89300000D01*
X102235000Y-89301935D01*
X102254647Y-89300000D01*
X112375354Y-89300000D01*
X112395000Y-89301935D01*
X112414647Y-89300000D01*
X122535354Y-89300000D01*
X122555000Y-89301935D01*
X122574647Y-89300000D01*
X132695354Y-89300000D01*
X132715000Y-89301935D01*
X132734647Y-89300000D01*
X142220354Y-89300000D01*
X142240000Y-89301935D01*
X142259646Y-89300000D01*
X142259647Y-89300000D01*
X142318414Y-89294212D01*
X142393814Y-89271340D01*
X142463303Y-89234197D01*
X142524211Y-89184211D01*
X142536737Y-89168948D01*
X143143948Y-88561737D01*
X143159211Y-88549211D01*
X143209197Y-88488303D01*
X143246340Y-88418814D01*
X143269212Y-88343414D01*
X143275000Y-88284647D01*
X143275000Y-88284646D01*
X143276935Y-88265000D01*
X143275000Y-88245353D01*
X143275000Y-88075408D01*
X143317215Y-88062602D01*
X143516997Y-87955816D01*
X143692107Y-87812107D01*
X143835816Y-87636997D01*
X143942602Y-87437215D01*
X144008360Y-87220439D01*
X144030564Y-86995000D01*
X144259436Y-86995000D01*
X144281640Y-87220439D01*
X144347398Y-87437215D01*
X144454184Y-87636997D01*
X144597893Y-87812107D01*
X144773003Y-87955816D01*
X144972785Y-88062602D01*
X145189561Y-88128360D01*
X145358508Y-88145000D01*
X145471492Y-88145000D01*
X145640439Y-88128360D01*
X145857215Y-88062602D01*
X146056997Y-87955816D01*
X146232107Y-87812107D01*
X146375816Y-87636997D01*
X146482602Y-87437215D01*
X146548360Y-87220439D01*
X146570564Y-86995000D01*
X146548360Y-86769561D01*
X146482602Y-86552785D01*
X146375816Y-86353003D01*
X146232107Y-86177893D01*
X146056997Y-86034184D01*
X145857215Y-85927398D01*
X145640439Y-85861640D01*
X145471492Y-85845000D01*
X145358508Y-85845000D01*
X145189561Y-85861640D01*
X144972785Y-85927398D01*
X144773003Y-86034184D01*
X144597893Y-86177893D01*
X144454184Y-86353003D01*
X144347398Y-86552785D01*
X144281640Y-86769561D01*
X144259436Y-86995000D01*
X144030564Y-86995000D01*
X144008360Y-86769561D01*
X143942602Y-86552785D01*
X143835816Y-86353003D01*
X143692107Y-86177893D01*
X143516997Y-86034184D01*
X143317215Y-85927398D01*
X143100439Y-85861640D01*
X142931492Y-85845000D01*
X142818508Y-85845000D01*
X142649561Y-85861640D01*
X142432785Y-85927398D01*
X142233003Y-86034184D01*
X142057893Y-86177893D01*
X141914184Y-86353003D01*
X141807398Y-86552785D01*
X141741640Y-86769561D01*
X141719436Y-86995000D01*
X141741640Y-87220439D01*
X141807398Y-87437215D01*
X141914184Y-87636997D01*
X142057893Y-87812107D01*
X142233003Y-87955816D01*
X142432785Y-88062602D01*
X142475001Y-88075408D01*
X142475001Y-88099314D01*
X142074315Y-88500000D01*
X133115000Y-88500000D01*
X133115000Y-88075408D01*
X133157215Y-88062602D01*
X133356997Y-87955816D01*
X133532107Y-87812107D01*
X133675816Y-87636997D01*
X133782602Y-87437215D01*
X133848360Y-87220439D01*
X133870564Y-86995000D01*
X133848360Y-86769561D01*
X133782602Y-86552785D01*
X133675816Y-86353003D01*
X133532107Y-86177893D01*
X133467657Y-86125000D01*
X134502343Y-86125000D01*
X134437893Y-86177893D01*
X134294184Y-86353003D01*
X134187398Y-86552785D01*
X134121640Y-86769561D01*
X134099436Y-86995000D01*
X134121640Y-87220439D01*
X134187398Y-87437215D01*
X134294184Y-87636997D01*
X134437893Y-87812107D01*
X134613003Y-87955816D01*
X134812785Y-88062602D01*
X135029561Y-88128360D01*
X135198508Y-88145000D01*
X135311492Y-88145000D01*
X135480439Y-88128360D01*
X135697215Y-88062602D01*
X135896997Y-87955816D01*
X136072107Y-87812107D01*
X136215816Y-87636997D01*
X136322602Y-87437215D01*
X136388360Y-87220439D01*
X136410564Y-86995000D01*
X136388360Y-86769561D01*
X136322602Y-86552785D01*
X136215816Y-86353003D01*
X136072107Y-86177893D01*
X136007657Y-86125000D01*
X141585354Y-86125000D01*
X141605000Y-86126935D01*
X141624646Y-86125000D01*
X141624647Y-86125000D01*
X141683414Y-86119212D01*
X141758814Y-86096340D01*
X141828303Y-86059197D01*
X141889211Y-86009211D01*
X141901737Y-85993948D01*
X142393879Y-85501806D01*
X142432785Y-85522602D01*
X142649561Y-85588360D01*
X142818508Y-85605000D01*
X142931492Y-85605000D01*
X143100439Y-85588360D01*
X143317215Y-85522602D01*
X143516997Y-85415816D01*
X143692107Y-85272107D01*
X143835816Y-85096997D01*
X143942602Y-84897215D01*
X144008360Y-84680439D01*
X144030564Y-84455000D01*
X144259436Y-84455000D01*
X144281640Y-84680439D01*
X144347398Y-84897215D01*
X144454184Y-85096997D01*
X144597893Y-85272107D01*
X144773003Y-85415816D01*
X144972785Y-85522602D01*
X145189561Y-85588360D01*
X145358508Y-85605000D01*
X145471492Y-85605000D01*
X145640439Y-85588360D01*
X145857215Y-85522602D01*
X146056997Y-85415816D01*
X146232107Y-85272107D01*
X146375816Y-85096997D01*
X146482602Y-84897215D01*
X146548360Y-84680439D01*
X146570564Y-84455000D01*
X146548360Y-84229561D01*
X146482602Y-84012785D01*
X146375816Y-83813003D01*
X146232107Y-83637893D01*
X146056997Y-83494184D01*
X145857215Y-83387398D01*
X145640439Y-83321640D01*
X145471492Y-83305000D01*
X145358508Y-83305000D01*
X145189561Y-83321640D01*
X144972785Y-83387398D01*
X144773003Y-83494184D01*
X144597893Y-83637893D01*
X144454184Y-83813003D01*
X144347398Y-84012785D01*
X144281640Y-84229561D01*
X144259436Y-84455000D01*
X144030564Y-84455000D01*
X144008360Y-84229561D01*
X143942602Y-84012785D01*
X143835816Y-83813003D01*
X143692107Y-83637893D01*
X143516997Y-83494184D01*
X143317215Y-83387398D01*
X143100439Y-83321640D01*
X142931492Y-83305000D01*
X142818508Y-83305000D01*
X142649561Y-83321640D01*
X142432785Y-83387398D01*
X142233003Y-83494184D01*
X142057893Y-83637893D01*
X141914184Y-83813003D01*
X141807398Y-84012785D01*
X141741640Y-84229561D01*
X141719436Y-84455000D01*
X141741640Y-84680439D01*
X141807398Y-84897215D01*
X141828194Y-84936121D01*
X141439315Y-85325000D01*
X136007657Y-85325000D01*
X136072107Y-85272107D01*
X136215816Y-85096997D01*
X136322602Y-84897215D01*
X136388360Y-84680439D01*
X136410564Y-84455000D01*
X136388360Y-84229561D01*
X136322602Y-84012785D01*
X136215816Y-83813003D01*
X136127180Y-83705000D01*
X141579457Y-83705000D01*
X141605000Y-83707516D01*
X141630543Y-83705000D01*
X141630545Y-83705000D01*
X141706938Y-83697476D01*
X141804958Y-83667742D01*
X141895294Y-83619456D01*
X141974475Y-83554475D01*
X141990766Y-83534624D01*
X142517186Y-83008205D01*
X142649561Y-83048360D01*
X142818508Y-83065000D01*
X142931492Y-83065000D01*
X143100439Y-83048360D01*
X143317215Y-82982602D01*
X143516997Y-82875816D01*
X143692107Y-82732107D01*
X143835816Y-82556997D01*
X143942602Y-82357215D01*
X143976525Y-82245383D01*
X144313480Y-82245383D01*
X144315561Y-82252272D01*
X144402485Y-82460281D01*
X144528319Y-82647336D01*
X144688228Y-82806247D01*
X144876066Y-82930908D01*
X145084615Y-83016528D01*
X145261000Y-82979650D01*
X145261000Y-82069000D01*
X145569000Y-82069000D01*
X145569000Y-82979650D01*
X145745385Y-83016528D01*
X145953934Y-82930908D01*
X146141772Y-82806247D01*
X146301681Y-82647336D01*
X146427515Y-82460281D01*
X146514439Y-82252272D01*
X146516520Y-82245383D01*
X146478912Y-82069000D01*
X145569000Y-82069000D01*
X145261000Y-82069000D01*
X144351088Y-82069000D01*
X144313480Y-82245383D01*
X143976525Y-82245383D01*
X144008360Y-82140439D01*
X144030564Y-81915000D01*
X144008360Y-81689561D01*
X143976526Y-81584617D01*
X144313480Y-81584617D01*
X144351088Y-81761000D01*
X145261000Y-81761000D01*
X145261000Y-80850350D01*
X145569000Y-80850350D01*
X145569000Y-81761000D01*
X146478912Y-81761000D01*
X146516520Y-81584617D01*
X146514439Y-81577728D01*
X146427515Y-81369719D01*
X146301681Y-81182664D01*
X146141772Y-81023753D01*
X145953934Y-80899092D01*
X145745385Y-80813472D01*
X145569000Y-80850350D01*
X145261000Y-80850350D01*
X145084615Y-80813472D01*
X144876066Y-80899092D01*
X144688228Y-81023753D01*
X144528319Y-81182664D01*
X144402485Y-81369719D01*
X144315561Y-81577728D01*
X144313480Y-81584617D01*
X143976526Y-81584617D01*
X143942602Y-81472785D01*
X143835816Y-81273003D01*
X143692107Y-81097893D01*
X143627657Y-81045000D01*
X144125354Y-81045000D01*
X144145000Y-81046935D01*
X144164646Y-81045000D01*
X144164647Y-81045000D01*
X144223414Y-81039212D01*
X144298814Y-81016340D01*
X144368303Y-80979197D01*
X144429211Y-80929211D01*
X144441737Y-80913948D01*
X144933879Y-80421806D01*
X144972785Y-80442602D01*
X145189561Y-80508360D01*
X145358508Y-80525000D01*
X145471492Y-80525000D01*
X145640439Y-80508360D01*
X145857215Y-80442602D01*
X146056997Y-80335816D01*
X146232107Y-80192107D01*
X146375816Y-80016997D01*
X146482602Y-79817215D01*
X146548360Y-79600439D01*
X146570564Y-79375000D01*
X146548360Y-79149561D01*
X146482602Y-78932785D01*
X146375816Y-78733003D01*
X146232107Y-78557893D01*
X146056997Y-78414184D01*
X145857215Y-78307398D01*
X145640439Y-78241640D01*
X145471492Y-78225000D01*
X145358508Y-78225000D01*
X145189561Y-78241640D01*
X144972785Y-78307398D01*
X144773003Y-78414184D01*
X144597893Y-78557893D01*
X144454184Y-78733003D01*
X144347398Y-78932785D01*
X144281640Y-79149561D01*
X144259436Y-79375000D01*
X144281640Y-79600439D01*
X144347398Y-79817215D01*
X144368194Y-79856121D01*
X143979315Y-80245000D01*
X143627657Y-80245000D01*
X143692107Y-80192107D01*
X143835816Y-80016997D01*
X143942602Y-79817215D01*
X144008360Y-79600439D01*
X144030564Y-79375000D01*
X144008360Y-79149561D01*
X143942602Y-78932785D01*
X143835816Y-78733003D01*
X143692107Y-78557893D01*
X143516997Y-78414184D01*
X143317215Y-78307398D01*
X143100439Y-78241640D01*
X142931492Y-78225000D01*
X142818508Y-78225000D01*
X142649561Y-78241640D01*
X142432785Y-78307398D01*
X142233003Y-78414184D01*
X142057893Y-78557893D01*
X141914184Y-78733003D01*
X141807398Y-78932785D01*
X141741640Y-79149561D01*
X141719436Y-79375000D01*
X141741640Y-79600439D01*
X141807398Y-79817215D01*
X141914184Y-80016997D01*
X142057893Y-80192107D01*
X142122343Y-80245000D01*
X136007657Y-80245000D01*
X136072107Y-80192107D01*
X136215816Y-80016997D01*
X136322602Y-79817215D01*
X136388360Y-79600439D01*
X136410564Y-79375000D01*
X136388360Y-79149561D01*
X136322602Y-78932785D01*
X136215816Y-78733003D01*
X136072107Y-78557893D01*
X136007657Y-78505000D01*
X141585354Y-78505000D01*
X141605000Y-78506935D01*
X141624646Y-78505000D01*
X141624647Y-78505000D01*
X141683414Y-78499212D01*
X141758814Y-78476340D01*
X141828303Y-78439197D01*
X141889211Y-78389211D01*
X141901737Y-78373948D01*
X142394829Y-77880857D01*
X142539557Y-77940806D01*
X142761735Y-77985000D01*
X142988265Y-77985000D01*
X143210443Y-77940806D01*
X143419729Y-77854116D01*
X143608082Y-77728263D01*
X143768263Y-77568082D01*
X143894116Y-77379729D01*
X143980806Y-77170443D01*
X144025000Y-76948265D01*
X144025000Y-76721735D01*
X143980806Y-76499557D01*
X143894116Y-76290271D01*
X143768263Y-76101918D01*
X143608082Y-75941737D01*
X143419729Y-75815884D01*
X143210443Y-75729194D01*
X142988265Y-75685000D01*
X142761735Y-75685000D01*
X142539557Y-75729194D01*
X142330271Y-75815884D01*
X142141918Y-75941737D01*
X141981737Y-76101918D01*
X141855884Y-76290271D01*
X141769194Y-76499557D01*
X141725000Y-76721735D01*
X141725000Y-76948265D01*
X141769194Y-77170443D01*
X141829143Y-77315171D01*
X141439315Y-77705000D01*
X136007657Y-77705000D01*
X136072107Y-77652107D01*
X136215816Y-77476997D01*
X136322602Y-77277215D01*
X136388360Y-77060439D01*
X136410564Y-76835000D01*
X136388360Y-76609561D01*
X136322602Y-76392785D01*
X136215816Y-76193003D01*
X136072107Y-76017893D01*
X135896997Y-75874184D01*
X135697215Y-75767398D01*
X135655000Y-75754592D01*
X135655000Y-75095002D01*
X136505317Y-75095002D01*
X136609259Y-75198943D01*
X136621789Y-75214211D01*
X136682697Y-75264197D01*
X136752186Y-75301340D01*
X136827586Y-75324212D01*
X136886353Y-75330000D01*
X136886363Y-75330000D01*
X136905999Y-75331934D01*
X136925635Y-75330000D01*
X137413356Y-75330000D01*
X137433002Y-75331935D01*
X137452648Y-75330000D01*
X137452649Y-75330000D01*
X137511416Y-75324212D01*
X137586816Y-75301340D01*
X137656305Y-75264197D01*
X137717213Y-75214211D01*
X137729740Y-75198947D01*
X137833684Y-75095002D01*
X144379317Y-75095002D01*
X145015001Y-75730687D01*
X145015001Y-75754592D01*
X144972785Y-75767398D01*
X144773003Y-75874184D01*
X144597893Y-76017893D01*
X144454184Y-76193003D01*
X144347398Y-76392785D01*
X144281640Y-76609561D01*
X144259436Y-76835000D01*
X144281640Y-77060439D01*
X144347398Y-77277215D01*
X144454184Y-77476997D01*
X144597893Y-77652107D01*
X144773003Y-77795816D01*
X144972785Y-77902602D01*
X145189561Y-77968360D01*
X145358508Y-77985000D01*
X145471492Y-77985000D01*
X145640439Y-77968360D01*
X145857215Y-77902602D01*
X146056997Y-77795816D01*
X146232107Y-77652107D01*
X146375816Y-77476997D01*
X146482602Y-77277215D01*
X146548360Y-77060439D01*
X146570564Y-76835000D01*
X146548360Y-76609561D01*
X146482602Y-76392785D01*
X146375816Y-76193003D01*
X146232107Y-76017893D01*
X146056997Y-75874184D01*
X145857215Y-75767398D01*
X145815000Y-75754592D01*
X145815000Y-75584646D01*
X145816935Y-75565000D01*
X145809212Y-75486586D01*
X145801667Y-75461713D01*
X145786340Y-75411186D01*
X145749197Y-75341697D01*
X145739598Y-75330000D01*
X145711735Y-75296049D01*
X145711733Y-75296047D01*
X145699211Y-75280789D01*
X145683953Y-75268267D01*
X145110685Y-74695000D01*
X146871472Y-74695000D01*
X146937522Y-74761050D01*
X147035793Y-74826713D01*
X147144986Y-74871942D01*
X147260905Y-74895000D01*
X147379095Y-74895000D01*
X147495014Y-74871942D01*
X147604207Y-74826713D01*
X147702478Y-74761050D01*
X147786050Y-74677478D01*
X147851713Y-74579207D01*
X147896942Y-74470014D01*
X147920000Y-74354095D01*
X147920000Y-74260000D01*
X148014095Y-74260000D01*
X148130014Y-74236942D01*
X148239207Y-74191713D01*
X148337478Y-74126050D01*
X148421050Y-74042478D01*
X148486713Y-73944207D01*
X148531942Y-73835014D01*
X148555000Y-73719095D01*
X148555000Y-73600905D01*
X148531942Y-73484986D01*
X148486713Y-73375793D01*
X148421050Y-73277522D01*
X148337478Y-73193950D01*
X148239207Y-73128287D01*
X148130014Y-73083058D01*
X148014095Y-73060000D01*
X147895905Y-73060000D01*
X147779986Y-73083058D01*
X147670793Y-73128287D01*
X147572522Y-73193950D01*
X147506472Y-73260000D01*
X147085635Y-73260000D01*
X147065999Y-73258066D01*
X147046363Y-73260000D01*
X147046353Y-73260000D01*
X146987586Y-73265788D01*
X146912186Y-73288660D01*
X146842697Y-73325803D01*
X146781789Y-73375789D01*
X146769259Y-73391057D01*
X146665317Y-73494998D01*
X138373934Y-73494998D01*
X138371942Y-73484986D01*
X138326713Y-73375793D01*
X138261050Y-73277522D01*
X138177478Y-73193950D01*
X138079207Y-73128287D01*
X137970014Y-73083058D01*
X137854095Y-73060000D01*
X137735905Y-73060000D01*
X137619986Y-73083058D01*
X137510793Y-73128287D01*
X137412522Y-73193950D01*
X137346472Y-73260000D01*
X136925635Y-73260000D01*
X136905999Y-73258066D01*
X136886363Y-73260000D01*
X136886353Y-73260000D01*
X136827586Y-73265788D01*
X136752186Y-73288660D01*
X136682697Y-73325803D01*
X136621789Y-73375789D01*
X136609259Y-73391057D01*
X136505317Y-73494998D01*
X128213934Y-73494998D01*
X128211942Y-73484986D01*
X128166713Y-73375793D01*
X128101050Y-73277522D01*
X128017478Y-73193950D01*
X127919207Y-73128287D01*
X127810014Y-73083058D01*
X127694095Y-73060000D01*
X127575905Y-73060000D01*
X127459986Y-73083058D01*
X127350793Y-73128287D01*
X127252522Y-73193950D01*
X127186472Y-73260000D01*
X126765635Y-73260000D01*
X126745999Y-73258066D01*
X126726363Y-73260000D01*
X126726353Y-73260000D01*
X126667586Y-73265788D01*
X126592186Y-73288660D01*
X126522697Y-73325803D01*
X126461789Y-73375789D01*
X126449259Y-73391057D01*
X126345317Y-73494998D01*
X118053934Y-73494998D01*
X118051942Y-73484986D01*
X118006713Y-73375793D01*
X117941050Y-73277522D01*
X117857478Y-73193950D01*
X117759207Y-73128287D01*
X117650014Y-73083058D01*
X117534095Y-73060000D01*
X117415905Y-73060000D01*
X117299986Y-73083058D01*
X117190793Y-73128287D01*
X117092522Y-73193950D01*
X117026472Y-73260000D01*
X116605635Y-73260000D01*
X116585999Y-73258066D01*
X116566363Y-73260000D01*
X116566353Y-73260000D01*
X116507586Y-73265788D01*
X116432186Y-73288660D01*
X116362697Y-73325803D01*
X116301789Y-73375789D01*
X116289259Y-73391057D01*
X116185317Y-73494998D01*
X107893934Y-73494998D01*
X107891942Y-73484986D01*
X107846713Y-73375793D01*
X107781050Y-73277522D01*
X107697478Y-73193950D01*
X107599207Y-73128287D01*
X107490014Y-73083058D01*
X107374095Y-73060000D01*
X107255905Y-73060000D01*
X107139986Y-73083058D01*
X107030793Y-73128287D01*
X106932522Y-73193950D01*
X106866472Y-73260000D01*
X106445635Y-73260000D01*
X106425999Y-73258066D01*
X106406363Y-73260000D01*
X106406353Y-73260000D01*
X106347586Y-73265788D01*
X106272186Y-73288660D01*
X106202697Y-73325803D01*
X106141789Y-73375789D01*
X106129259Y-73391057D01*
X106025317Y-73494998D01*
X97828684Y-73494998D01*
X97724740Y-73391053D01*
X97712213Y-73375789D01*
X97651305Y-73325803D01*
X97581816Y-73288660D01*
X97506416Y-73265788D01*
X97447649Y-73260000D01*
X97447648Y-73260000D01*
X97428002Y-73258065D01*
X97408356Y-73260000D01*
X96901633Y-73260000D01*
X96881997Y-73258066D01*
X96862361Y-73260000D01*
X96862351Y-73260000D01*
X96803584Y-73265788D01*
X96728184Y-73288660D01*
X96658695Y-73325803D01*
X96597787Y-73375789D01*
X96585257Y-73391057D01*
X96481315Y-73494998D01*
X95399949Y-73494998D01*
X95390553Y-73472313D01*
X95324890Y-73374042D01*
X95241318Y-73290470D01*
X95143047Y-73224807D01*
X95033854Y-73179578D01*
X94917935Y-73156520D01*
X94799745Y-73156520D01*
X94683826Y-73179578D01*
X94574633Y-73224807D01*
X94476362Y-73290470D01*
X94392790Y-73374042D01*
X94327127Y-73472313D01*
X94281898Y-73581506D01*
X94258840Y-73697425D01*
X94258840Y-73815615D01*
X94281898Y-73931534D01*
X94327127Y-74040727D01*
X94392790Y-74138998D01*
X94476362Y-74222570D01*
X94574633Y-74288233D01*
X94656974Y-74322340D01*
X94014315Y-74965000D01*
X93920905Y-74965000D01*
X93804986Y-74988058D01*
X93695793Y-75033287D01*
X93597522Y-75098950D01*
X93513950Y-75182522D01*
X93448287Y-75280793D01*
X93403058Y-75389986D01*
X93380000Y-75505905D01*
X93380000Y-75624095D01*
X93403058Y-75740014D01*
X93448287Y-75849207D01*
X93513950Y-75947478D01*
X93597522Y-76031050D01*
X93695793Y-76096713D01*
X93723715Y-76108279D01*
X93654184Y-76193003D01*
X93547398Y-76392785D01*
X93481640Y-76609561D01*
X93459436Y-76835000D01*
X93481640Y-77060439D01*
X93547398Y-77277215D01*
X93654184Y-77476997D01*
X93797893Y-77652107D01*
X93862343Y-77705000D01*
X93510686Y-77705000D01*
X93120857Y-77315171D01*
X93180806Y-77170443D01*
X93225000Y-76948265D01*
X93225000Y-76721735D01*
X93180806Y-76499557D01*
X93094116Y-76290271D01*
X92968263Y-76101918D01*
X92808082Y-75941737D01*
X92619729Y-75815884D01*
X92410443Y-75729194D01*
X92188265Y-75685000D01*
X91961735Y-75685000D01*
X91739557Y-75729194D01*
X91530271Y-75815884D01*
X91341918Y-75941737D01*
X91181737Y-76101918D01*
X91055884Y-76290271D01*
X90969194Y-76499557D01*
X90925000Y-76721735D01*
X90925000Y-76948265D01*
X90969194Y-77170443D01*
X91055884Y-77379729D01*
X91181737Y-77568082D01*
X91341918Y-77728263D01*
X91530271Y-77854116D01*
X91739557Y-77940806D01*
X91961735Y-77985000D01*
X92188265Y-77985000D01*
X92410443Y-77940806D01*
X92555171Y-77880857D01*
X93048267Y-78373953D01*
X93060789Y-78389211D01*
X93076047Y-78401733D01*
X93076049Y-78401735D01*
X93107982Y-78427941D01*
X93121697Y-78439197D01*
X93191186Y-78476340D01*
X93266586Y-78499212D01*
X93325353Y-78505000D01*
X93325363Y-78505000D01*
X93344999Y-78506934D01*
X93364635Y-78505000D01*
X93862343Y-78505000D01*
X93797893Y-78557893D01*
X93654184Y-78733003D01*
X93547398Y-78932785D01*
X93481640Y-79149561D01*
X93459436Y-79375000D01*
X93481640Y-79600439D01*
X93547398Y-79817215D01*
X93654184Y-80016997D01*
X93797893Y-80192107D01*
X93973003Y-80335816D01*
X94172785Y-80442602D01*
X94389561Y-80508360D01*
X94558508Y-80525000D01*
X94671492Y-80525000D01*
X94840439Y-80508360D01*
X95057215Y-80442602D01*
X95096121Y-80421806D01*
X95588267Y-80913953D01*
X95600789Y-80929211D01*
X95616047Y-80941733D01*
X95616049Y-80941735D01*
X95647982Y-80967941D01*
X95661697Y-80979197D01*
X95731186Y-81016340D01*
X95806586Y-81039212D01*
X95865353Y-81045000D01*
X95865363Y-81045000D01*
X95884999Y-81046934D01*
X95904635Y-81045000D01*
X101482343Y-81045000D01*
X101417893Y-81097893D01*
X101274184Y-81273003D01*
X101167398Y-81472785D01*
X101101640Y-81689561D01*
X101079436Y-81915000D01*
X101101640Y-82140439D01*
X101167398Y-82357215D01*
X101274184Y-82556997D01*
X101362820Y-82665000D01*
X95483906Y-82665000D01*
X95501681Y-82647336D01*
X95627515Y-82460281D01*
X95714439Y-82252272D01*
X95716520Y-82245383D01*
X95678912Y-82069000D01*
X94769000Y-82069000D01*
X94769000Y-82089000D01*
X94461000Y-82089000D01*
X94461000Y-82069000D01*
X93551088Y-82069000D01*
X93513480Y-82245383D01*
X93515561Y-82252272D01*
X93602485Y-82460281D01*
X93728319Y-82647336D01*
X93746094Y-82665000D01*
X92947180Y-82665000D01*
X93035816Y-82556997D01*
X93142602Y-82357215D01*
X93208360Y-82140439D01*
X93230564Y-81915000D01*
X93208360Y-81689561D01*
X93176526Y-81584617D01*
X93513480Y-81584617D01*
X93551088Y-81761000D01*
X94461000Y-81761000D01*
X94461000Y-80850350D01*
X94769000Y-80850350D01*
X94769000Y-81761000D01*
X95678912Y-81761000D01*
X95716520Y-81584617D01*
X95714439Y-81577728D01*
X95627515Y-81369719D01*
X95501681Y-81182664D01*
X95341772Y-81023753D01*
X95153934Y-80899092D01*
X94945385Y-80813472D01*
X94769000Y-80850350D01*
X94461000Y-80850350D01*
X94284615Y-80813472D01*
X94076066Y-80899092D01*
X93888228Y-81023753D01*
X93728319Y-81182664D01*
X93602485Y-81369719D01*
X93515561Y-81577728D01*
X93513480Y-81584617D01*
X93176526Y-81584617D01*
X93142602Y-81472785D01*
X93035816Y-81273003D01*
X92892107Y-81097893D01*
X92716997Y-80954184D01*
X92517215Y-80847398D01*
X92300439Y-80781640D01*
X92131492Y-80765000D01*
X92018508Y-80765000D01*
X91849561Y-80781640D01*
X91632785Y-80847398D01*
X91433003Y-80954184D01*
X91257893Y-81097893D01*
X91114184Y-81273003D01*
X91007398Y-81472785D01*
X90941640Y-81689561D01*
X90919436Y-81915000D01*
X90941640Y-82140439D01*
X91007398Y-82357215D01*
X91114184Y-82556997D01*
X91202820Y-82665000D01*
X85323906Y-82665000D01*
X85341681Y-82647336D01*
X85467515Y-82460281D01*
X85554439Y-82252272D01*
X85556520Y-82245383D01*
X85518912Y-82069000D01*
X84609000Y-82069000D01*
X84609000Y-82089000D01*
X84301000Y-82089000D01*
X84301000Y-82069000D01*
X83391088Y-82069000D01*
X83353480Y-82245383D01*
X83355561Y-82252272D01*
X83442485Y-82460281D01*
X83568319Y-82647336D01*
X83586094Y-82665000D01*
X82787180Y-82665000D01*
X82875816Y-82556997D01*
X82982602Y-82357215D01*
X83048360Y-82140439D01*
X83070564Y-81915000D01*
X83048360Y-81689561D01*
X83016526Y-81584617D01*
X83353480Y-81584617D01*
X83391088Y-81761000D01*
X84301000Y-81761000D01*
X84301000Y-80850350D01*
X84609000Y-80850350D01*
X84609000Y-81761000D01*
X85518912Y-81761000D01*
X85556520Y-81584617D01*
X85554439Y-81577728D01*
X85467515Y-81369719D01*
X85341681Y-81182664D01*
X85181772Y-81023753D01*
X84993934Y-80899092D01*
X84785385Y-80813472D01*
X84609000Y-80850350D01*
X84301000Y-80850350D01*
X84124615Y-80813472D01*
X83916066Y-80899092D01*
X83728228Y-81023753D01*
X83568319Y-81182664D01*
X83442485Y-81369719D01*
X83355561Y-81577728D01*
X83353480Y-81584617D01*
X83016526Y-81584617D01*
X82982602Y-81472785D01*
X82875816Y-81273003D01*
X82732107Y-81097893D01*
X82667657Y-81045000D01*
X83165354Y-81045000D01*
X83185000Y-81046935D01*
X83204646Y-81045000D01*
X83204647Y-81045000D01*
X83263414Y-81039212D01*
X83338814Y-81016340D01*
X83408303Y-80979197D01*
X83469211Y-80929211D01*
X83481737Y-80913948D01*
X83973879Y-80421806D01*
X84012785Y-80442602D01*
X84229561Y-80508360D01*
X84398508Y-80525000D01*
X84511492Y-80525000D01*
X84680439Y-80508360D01*
X84897215Y-80442602D01*
X85096997Y-80335816D01*
X85272107Y-80192107D01*
X85415816Y-80016997D01*
X85522602Y-79817215D01*
X85588360Y-79600439D01*
X85610564Y-79375000D01*
X90919436Y-79375000D01*
X90941640Y-79600439D01*
X91007398Y-79817215D01*
X91114184Y-80016997D01*
X91257893Y-80192107D01*
X91433003Y-80335816D01*
X91632785Y-80442602D01*
X91849561Y-80508360D01*
X92018508Y-80525000D01*
X92131492Y-80525000D01*
X92300439Y-80508360D01*
X92517215Y-80442602D01*
X92716997Y-80335816D01*
X92892107Y-80192107D01*
X93035816Y-80016997D01*
X93142602Y-79817215D01*
X93208360Y-79600439D01*
X93230564Y-79375000D01*
X93208360Y-79149561D01*
X93142602Y-78932785D01*
X93035816Y-78733003D01*
X92892107Y-78557893D01*
X92716997Y-78414184D01*
X92517215Y-78307398D01*
X92300439Y-78241640D01*
X92131492Y-78225000D01*
X92018508Y-78225000D01*
X91849561Y-78241640D01*
X91632785Y-78307398D01*
X91433003Y-78414184D01*
X91257893Y-78557893D01*
X91114184Y-78733003D01*
X91007398Y-78932785D01*
X90941640Y-79149561D01*
X90919436Y-79375000D01*
X85610564Y-79375000D01*
X85588360Y-79149561D01*
X85522602Y-78932785D01*
X85415816Y-78733003D01*
X85272107Y-78557893D01*
X85096997Y-78414184D01*
X84897215Y-78307398D01*
X84680439Y-78241640D01*
X84511492Y-78225000D01*
X84398508Y-78225000D01*
X84229561Y-78241640D01*
X84012785Y-78307398D01*
X83813003Y-78414184D01*
X83637893Y-78557893D01*
X83494184Y-78733003D01*
X83387398Y-78932785D01*
X83321640Y-79149561D01*
X83299436Y-79375000D01*
X83321640Y-79600439D01*
X83387398Y-79817215D01*
X83408194Y-79856121D01*
X83019315Y-80245000D01*
X82667657Y-80245000D01*
X82732107Y-80192107D01*
X82875816Y-80016997D01*
X82982602Y-79817215D01*
X83048360Y-79600439D01*
X83070564Y-79375000D01*
X83048360Y-79149561D01*
X82982602Y-78932785D01*
X82875816Y-78733003D01*
X82732107Y-78557893D01*
X82556997Y-78414184D01*
X82357215Y-78307398D01*
X82140439Y-78241640D01*
X81971492Y-78225000D01*
X81858508Y-78225000D01*
X81689561Y-78241640D01*
X81472785Y-78307398D01*
X81273003Y-78414184D01*
X81097893Y-78557893D01*
X80954184Y-78733003D01*
X80847398Y-78932785D01*
X80781640Y-79149561D01*
X80759436Y-79375000D01*
X80781640Y-79600439D01*
X80847398Y-79817215D01*
X80954184Y-80016997D01*
X81097893Y-80192107D01*
X81162343Y-80245000D01*
X75730686Y-80245000D01*
X75341806Y-79856121D01*
X75362602Y-79817215D01*
X75428360Y-79600439D01*
X75450564Y-79375000D01*
X75428360Y-79149561D01*
X75362602Y-78932785D01*
X75255816Y-78733003D01*
X75112107Y-78557893D01*
X75047657Y-78505000D01*
X80625354Y-78505000D01*
X80645000Y-78506935D01*
X80664646Y-78505000D01*
X80664647Y-78505000D01*
X80723414Y-78499212D01*
X80798814Y-78476340D01*
X80868303Y-78439197D01*
X80929211Y-78389211D01*
X80941737Y-78373948D01*
X81434829Y-77880857D01*
X81579557Y-77940806D01*
X81801735Y-77985000D01*
X82028265Y-77985000D01*
X82250443Y-77940806D01*
X82459729Y-77854116D01*
X82648082Y-77728263D01*
X82808263Y-77568082D01*
X82934116Y-77379729D01*
X83020806Y-77170443D01*
X83065000Y-76948265D01*
X83065000Y-76721735D01*
X83020806Y-76499557D01*
X82934116Y-76290271D01*
X82808263Y-76101918D01*
X82648082Y-75941737D01*
X82459729Y-75815884D01*
X82250443Y-75729194D01*
X82028265Y-75685000D01*
X81801735Y-75685000D01*
X81579557Y-75729194D01*
X81370271Y-75815884D01*
X81181918Y-75941737D01*
X81021737Y-76101918D01*
X80895884Y-76290271D01*
X80809194Y-76499557D01*
X80765000Y-76721735D01*
X80765000Y-76948265D01*
X80809194Y-77170443D01*
X80869143Y-77315171D01*
X80479315Y-77705000D01*
X75047657Y-77705000D01*
X75112107Y-77652107D01*
X75255816Y-77476997D01*
X75362602Y-77277215D01*
X75428360Y-77060439D01*
X75450564Y-76835000D01*
X75428360Y-76609561D01*
X75362602Y-76392785D01*
X75255816Y-76193003D01*
X75112107Y-76017893D01*
X74936997Y-75874184D01*
X74737215Y-75767398D01*
X74695000Y-75754592D01*
X74695000Y-75730685D01*
X75330684Y-75095002D01*
X76180317Y-75095002D01*
X76284259Y-75198943D01*
X76296789Y-75214211D01*
X76357697Y-75264197D01*
X76427186Y-75301340D01*
X76502586Y-75324212D01*
X76561353Y-75330000D01*
X76561363Y-75330000D01*
X76580999Y-75331934D01*
X76600635Y-75330000D01*
X77021472Y-75330000D01*
X77087522Y-75396050D01*
X77185793Y-75461713D01*
X77294986Y-75506942D01*
X77410905Y-75530000D01*
X77529095Y-75530000D01*
X77645014Y-75506942D01*
X77754207Y-75461713D01*
X77852478Y-75396050D01*
X77936050Y-75312478D01*
X78001713Y-75214207D01*
X78046942Y-75105014D01*
X78048934Y-75095002D01*
X83419317Y-75095002D01*
X84055001Y-75730687D01*
X84055001Y-75754592D01*
X84012785Y-75767398D01*
X83813003Y-75874184D01*
X83637893Y-76017893D01*
X83494184Y-76193003D01*
X83387398Y-76392785D01*
X83321640Y-76609561D01*
X83299436Y-76835000D01*
X83321640Y-77060439D01*
X83387398Y-77277215D01*
X83494184Y-77476997D01*
X83637893Y-77652107D01*
X83813003Y-77795816D01*
X84012785Y-77902602D01*
X84229561Y-77968360D01*
X84398508Y-77985000D01*
X84511492Y-77985000D01*
X84680439Y-77968360D01*
X84897215Y-77902602D01*
X85096997Y-77795816D01*
X85272107Y-77652107D01*
X85415816Y-77476997D01*
X85522602Y-77277215D01*
X85588360Y-77060439D01*
X85610564Y-76835000D01*
X85588360Y-76609561D01*
X85522602Y-76392785D01*
X85415816Y-76193003D01*
X85272107Y-76017893D01*
X85096997Y-75874184D01*
X84897215Y-75767398D01*
X84855000Y-75754592D01*
X84855000Y-75584646D01*
X84856935Y-75565000D01*
X84849212Y-75486586D01*
X84841667Y-75461713D01*
X84826340Y-75411186D01*
X84789197Y-75341697D01*
X84779598Y-75330000D01*
X84751735Y-75296049D01*
X84751733Y-75296047D01*
X84739211Y-75280789D01*
X84723953Y-75268267D01*
X84150685Y-74695000D01*
X85911472Y-74695000D01*
X85977522Y-74761050D01*
X86075793Y-74826713D01*
X86184986Y-74871942D01*
X86300905Y-74895000D01*
X86419095Y-74895000D01*
X86535014Y-74871942D01*
X86644207Y-74826713D01*
X86742478Y-74761050D01*
X86826050Y-74677478D01*
X86891713Y-74579207D01*
X86936942Y-74470014D01*
X86960000Y-74354095D01*
X86960000Y-74260000D01*
X87054095Y-74260000D01*
X87170014Y-74236942D01*
X87279207Y-74191713D01*
X87377478Y-74126050D01*
X87461050Y-74042478D01*
X87526713Y-73944207D01*
X87571942Y-73835014D01*
X87595000Y-73719095D01*
X87595000Y-73600905D01*
X87571942Y-73484986D01*
X87526713Y-73375793D01*
X87461050Y-73277522D01*
X87377478Y-73193950D01*
X87279207Y-73128287D01*
X87170014Y-73083058D01*
X87054095Y-73060000D01*
X86935905Y-73060000D01*
X86819986Y-73083058D01*
X86710793Y-73128287D01*
X86612522Y-73193950D01*
X86546472Y-73260000D01*
X86125635Y-73260000D01*
X86105999Y-73258066D01*
X86086363Y-73260000D01*
X86086353Y-73260000D01*
X86027586Y-73265788D01*
X85952186Y-73288660D01*
X85882697Y-73325803D01*
X85821789Y-73375789D01*
X85809259Y-73391057D01*
X85705317Y-73494998D01*
X77489682Y-73494998D01*
X77385738Y-73391053D01*
X77373211Y-73375789D01*
X77312303Y-73325803D01*
X77242814Y-73288660D01*
X77167414Y-73265788D01*
X77108647Y-73260000D01*
X77108646Y-73260000D01*
X77089000Y-73258065D01*
X77069354Y-73260000D01*
X76581633Y-73260000D01*
X76561997Y-73258066D01*
X76542361Y-73260000D01*
X76542351Y-73260000D01*
X76483584Y-73265788D01*
X76408184Y-73288660D01*
X76338695Y-73325803D01*
X76277787Y-73375789D01*
X76265257Y-73391057D01*
X76161315Y-73494998D01*
X75100881Y-73494998D01*
X75050610Y-73419762D01*
X74967038Y-73336190D01*
X74868767Y-73270527D01*
X74759574Y-73225298D01*
X74643655Y-73202240D01*
X74525465Y-73202240D01*
X74409546Y-73225298D01*
X74300353Y-73270527D01*
X74202082Y-73336190D01*
X74118510Y-73419762D01*
X74052847Y-73518033D01*
X74007618Y-73627226D01*
X73984560Y-73743145D01*
X73984560Y-73861335D01*
X74007618Y-73977254D01*
X74052847Y-74086447D01*
X74118510Y-74184718D01*
X74202082Y-74268290D01*
X74300353Y-74333953D01*
X74318037Y-74341278D01*
X73694315Y-74965000D01*
X73600905Y-74965000D01*
X73484986Y-74988058D01*
X73375793Y-75033287D01*
X73277522Y-75098950D01*
X73193950Y-75182522D01*
X73128287Y-75280793D01*
X73083058Y-75389986D01*
X73060000Y-75505905D01*
X73060000Y-75624095D01*
X73083058Y-75740014D01*
X73128287Y-75849207D01*
X73193950Y-75947478D01*
X73277522Y-76031050D01*
X73375793Y-76096713D01*
X73403715Y-76108279D01*
X73334184Y-76193003D01*
X73227398Y-76392785D01*
X73161640Y-76609561D01*
X73139436Y-76835000D01*
X73161640Y-77060439D01*
X73227398Y-77277215D01*
X73334184Y-77476997D01*
X73477893Y-77652107D01*
X73542343Y-77705000D01*
X73190686Y-77705000D01*
X72800857Y-77315171D01*
X72860806Y-77170443D01*
X72905000Y-76948265D01*
X72905000Y-76721735D01*
X72860806Y-76499557D01*
X72774116Y-76290271D01*
X72648263Y-76101918D01*
X72488082Y-75941737D01*
X72299729Y-75815884D01*
X72090443Y-75729194D01*
X71868265Y-75685000D01*
X71641735Y-75685000D01*
X71419557Y-75729194D01*
X71210271Y-75815884D01*
X71021918Y-75941737D01*
X70861737Y-76101918D01*
X70735884Y-76290271D01*
X70649194Y-76499557D01*
X70605000Y-76721735D01*
X70605000Y-76948265D01*
X70649194Y-77170443D01*
X70735884Y-77379729D01*
X70861737Y-77568082D01*
X71021918Y-77728263D01*
X71210271Y-77854116D01*
X71419557Y-77940806D01*
X71641735Y-77985000D01*
X71868265Y-77985000D01*
X72090443Y-77940806D01*
X72235171Y-77880857D01*
X72728267Y-78373953D01*
X72740789Y-78389211D01*
X72756047Y-78401733D01*
X72756049Y-78401735D01*
X72787982Y-78427941D01*
X72801697Y-78439197D01*
X72871186Y-78476340D01*
X72946586Y-78499212D01*
X73005353Y-78505000D01*
X73005363Y-78505000D01*
X73024999Y-78506934D01*
X73044635Y-78505000D01*
X73542343Y-78505000D01*
X73477893Y-78557893D01*
X73334184Y-78733003D01*
X73227398Y-78932785D01*
X73161640Y-79149561D01*
X73139436Y-79375000D01*
X73161640Y-79600439D01*
X73227398Y-79817215D01*
X73334184Y-80016997D01*
X73477893Y-80192107D01*
X73653003Y-80335816D01*
X73852785Y-80442602D01*
X74069561Y-80508360D01*
X74238508Y-80525000D01*
X74351492Y-80525000D01*
X74520439Y-80508360D01*
X74737215Y-80442602D01*
X74776121Y-80421806D01*
X75268267Y-80913953D01*
X75280789Y-80929211D01*
X75296047Y-80941733D01*
X75296049Y-80941735D01*
X75327982Y-80967941D01*
X75341697Y-80979197D01*
X75411186Y-81016340D01*
X75486586Y-81039212D01*
X75545353Y-81045000D01*
X75545363Y-81045000D01*
X75564999Y-81046934D01*
X75584635Y-81045000D01*
X81162343Y-81045000D01*
X81097893Y-81097893D01*
X80954184Y-81273003D01*
X80847398Y-81472785D01*
X80781640Y-81689561D01*
X80759436Y-81915000D01*
X80781640Y-82140439D01*
X80847398Y-82357215D01*
X80954184Y-82556997D01*
X81042820Y-82665000D01*
X75163906Y-82665000D01*
X75181681Y-82647336D01*
X75307515Y-82460281D01*
X75394439Y-82252272D01*
X75396520Y-82245383D01*
X75358912Y-82069000D01*
X74449000Y-82069000D01*
X74449000Y-82089000D01*
X74141000Y-82089000D01*
X74141000Y-82069000D01*
X73231088Y-82069000D01*
X73193480Y-82245383D01*
X73195561Y-82252272D01*
X73282485Y-82460281D01*
X73408319Y-82647336D01*
X73426094Y-82665000D01*
X72627180Y-82665000D01*
X72715816Y-82556997D01*
X72822602Y-82357215D01*
X72888360Y-82140439D01*
X72910564Y-81915000D01*
X72888360Y-81689561D01*
X72856526Y-81584617D01*
X73193480Y-81584617D01*
X73231088Y-81761000D01*
X74141000Y-81761000D01*
X74141000Y-80850350D01*
X74449000Y-80850350D01*
X74449000Y-81761000D01*
X75358912Y-81761000D01*
X75396520Y-81584617D01*
X75394439Y-81577728D01*
X75307515Y-81369719D01*
X75181681Y-81182664D01*
X75021772Y-81023753D01*
X74833934Y-80899092D01*
X74625385Y-80813472D01*
X74449000Y-80850350D01*
X74141000Y-80850350D01*
X73964615Y-80813472D01*
X73756066Y-80899092D01*
X73568228Y-81023753D01*
X73408319Y-81182664D01*
X73282485Y-81369719D01*
X73195561Y-81577728D01*
X73193480Y-81584617D01*
X72856526Y-81584617D01*
X72822602Y-81472785D01*
X72715816Y-81273003D01*
X72572107Y-81097893D01*
X72396997Y-80954184D01*
X72197215Y-80847398D01*
X71980439Y-80781640D01*
X71811492Y-80765000D01*
X71698508Y-80765000D01*
X71529561Y-80781640D01*
X71312785Y-80847398D01*
X71113003Y-80954184D01*
X70937893Y-81097893D01*
X70794184Y-81273003D01*
X70687398Y-81472785D01*
X70621640Y-81689561D01*
X70599436Y-81915000D01*
X70621640Y-82140439D01*
X70687398Y-82357215D01*
X70794184Y-82556997D01*
X70882820Y-82665000D01*
X70510542Y-82665000D01*
X70484999Y-82662484D01*
X70459456Y-82665000D01*
X70459455Y-82665000D01*
X70383062Y-82672524D01*
X70285042Y-82702258D01*
X70242991Y-82724735D01*
X70194705Y-82750544D01*
X70163451Y-82776194D01*
X70115525Y-82815525D01*
X70099241Y-82835368D01*
X68999610Y-83935000D01*
X65161025Y-83935000D01*
X65095816Y-83813003D01*
X64952107Y-83637893D01*
X64776997Y-83494184D01*
X64577215Y-83387398D01*
X64360439Y-83321640D01*
X64191492Y-83305000D01*
X64078508Y-83305000D01*
X63909561Y-83321640D01*
X63692785Y-83387398D01*
X63493003Y-83494184D01*
X63317893Y-83637893D01*
X63174184Y-83813003D01*
X63067398Y-84012785D01*
X63001640Y-84229561D01*
X62979436Y-84455000D01*
X62750564Y-84455000D01*
X62728360Y-84229561D01*
X62662602Y-84012785D01*
X62555816Y-83813003D01*
X62412107Y-83637893D01*
X62236997Y-83494184D01*
X62037215Y-83387398D01*
X61820439Y-83321640D01*
X61651492Y-83305000D01*
X61538508Y-83305000D01*
X61369561Y-83321640D01*
X61152785Y-83387398D01*
X60953003Y-83494184D01*
X60777893Y-83637893D01*
X60634184Y-83813003D01*
X60527398Y-84012785D01*
X60461640Y-84229561D01*
X60439436Y-84455000D01*
X53152500Y-84455000D01*
X53152500Y-81915000D01*
X60439436Y-81915000D01*
X60461640Y-82140439D01*
X60527398Y-82357215D01*
X60634184Y-82556997D01*
X60777893Y-82732107D01*
X60953003Y-82875816D01*
X61152785Y-82982602D01*
X61369561Y-83048360D01*
X61538508Y-83065000D01*
X61651492Y-83065000D01*
X61820439Y-83048360D01*
X62037215Y-82982602D01*
X62236997Y-82875816D01*
X62358386Y-82776194D01*
X63491595Y-82776194D01*
X63589724Y-82927508D01*
X63596067Y-82930908D01*
X63804616Y-83016528D01*
X64025862Y-83059818D01*
X64251301Y-83059112D01*
X64472272Y-83014439D01*
X64680280Y-82927515D01*
X64778927Y-82776716D01*
X64135000Y-82132789D01*
X63491595Y-82776194D01*
X62358386Y-82776194D01*
X62412107Y-82732107D01*
X62555816Y-82556997D01*
X62662602Y-82357215D01*
X62728360Y-82140439D01*
X62739814Y-82024138D01*
X62990182Y-82024138D01*
X63033472Y-82245384D01*
X63119092Y-82453933D01*
X63122492Y-82460276D01*
X63273806Y-82558405D01*
X63917211Y-81915000D01*
X64352789Y-81915000D01*
X64996716Y-82558927D01*
X65147515Y-82460280D01*
X65234439Y-82252272D01*
X65279112Y-82031301D01*
X65279818Y-81805862D01*
X65236528Y-81584616D01*
X65150908Y-81376067D01*
X65147508Y-81369724D01*
X64996194Y-81271595D01*
X64352789Y-81915000D01*
X63917211Y-81915000D01*
X63273284Y-81271073D01*
X63122485Y-81369720D01*
X63035561Y-81577728D01*
X62990888Y-81798699D01*
X62990182Y-82024138D01*
X62739814Y-82024138D01*
X62750564Y-81915000D01*
X62728360Y-81689561D01*
X62662602Y-81472785D01*
X62555816Y-81273003D01*
X62412107Y-81097893D01*
X62357751Y-81053284D01*
X63491073Y-81053284D01*
X64135000Y-81697211D01*
X64778405Y-81053806D01*
X64680276Y-80902492D01*
X64673933Y-80899092D01*
X64465384Y-80813472D01*
X64244138Y-80770182D01*
X64018699Y-80770888D01*
X63797728Y-80815561D01*
X63589720Y-80902485D01*
X63491073Y-81053284D01*
X62357751Y-81053284D01*
X62236997Y-80954184D01*
X62037215Y-80847398D01*
X61820439Y-80781640D01*
X61651492Y-80765000D01*
X61538508Y-80765000D01*
X61369561Y-80781640D01*
X61152785Y-80847398D01*
X60953003Y-80954184D01*
X60777893Y-81097893D01*
X60634184Y-81273003D01*
X60527398Y-81472785D01*
X60461640Y-81689561D01*
X60439436Y-81915000D01*
X53152500Y-81915000D01*
X53152500Y-81021905D01*
X51175000Y-81021905D01*
X51175000Y-79375000D01*
X60439436Y-79375000D01*
X60461640Y-79600439D01*
X60527398Y-79817215D01*
X60634184Y-80016997D01*
X60777893Y-80192107D01*
X60953003Y-80335816D01*
X61152785Y-80442602D01*
X61369561Y-80508360D01*
X61538508Y-80525000D01*
X61651492Y-80525000D01*
X61820439Y-80508360D01*
X62037215Y-80442602D01*
X62236997Y-80335816D01*
X62412107Y-80192107D01*
X62555816Y-80016997D01*
X62662602Y-79817215D01*
X62728360Y-79600439D01*
X62750564Y-79375000D01*
X62979436Y-79375000D01*
X63001640Y-79600439D01*
X63067398Y-79817215D01*
X63174184Y-80016997D01*
X63317893Y-80192107D01*
X63493003Y-80335816D01*
X63692785Y-80442602D01*
X63909561Y-80508360D01*
X64078508Y-80525000D01*
X64191492Y-80525000D01*
X64360439Y-80508360D01*
X64577215Y-80442602D01*
X64776997Y-80335816D01*
X64952107Y-80192107D01*
X65095816Y-80016997D01*
X65202602Y-79817215D01*
X65268360Y-79600439D01*
X65290564Y-79375000D01*
X70599436Y-79375000D01*
X70621640Y-79600439D01*
X70687398Y-79817215D01*
X70794184Y-80016997D01*
X70937893Y-80192107D01*
X71113003Y-80335816D01*
X71312785Y-80442602D01*
X71529561Y-80508360D01*
X71698508Y-80525000D01*
X71811492Y-80525000D01*
X71980439Y-80508360D01*
X72197215Y-80442602D01*
X72396997Y-80335816D01*
X72572107Y-80192107D01*
X72715816Y-80016997D01*
X72822602Y-79817215D01*
X72888360Y-79600439D01*
X72910564Y-79375000D01*
X72888360Y-79149561D01*
X72822602Y-78932785D01*
X72715816Y-78733003D01*
X72572107Y-78557893D01*
X72396997Y-78414184D01*
X72197215Y-78307398D01*
X71980439Y-78241640D01*
X71811492Y-78225000D01*
X71698508Y-78225000D01*
X71529561Y-78241640D01*
X71312785Y-78307398D01*
X71113003Y-78414184D01*
X70937893Y-78557893D01*
X70794184Y-78733003D01*
X70687398Y-78932785D01*
X70621640Y-79149561D01*
X70599436Y-79375000D01*
X65290564Y-79375000D01*
X65268360Y-79149561D01*
X65202602Y-78932785D01*
X65095816Y-78733003D01*
X64952107Y-78557893D01*
X64776997Y-78414184D01*
X64577215Y-78307398D01*
X64360439Y-78241640D01*
X64191492Y-78225000D01*
X64078508Y-78225000D01*
X63909561Y-78241640D01*
X63692785Y-78307398D01*
X63493003Y-78414184D01*
X63317893Y-78557893D01*
X63174184Y-78733003D01*
X63067398Y-78932785D01*
X63001640Y-79149561D01*
X62979436Y-79375000D01*
X62750564Y-79375000D01*
X62728360Y-79149561D01*
X62662602Y-78932785D01*
X62555816Y-78733003D01*
X62412107Y-78557893D01*
X62236997Y-78414184D01*
X62037215Y-78307398D01*
X61820439Y-78241640D01*
X61651492Y-78225000D01*
X61538508Y-78225000D01*
X61369561Y-78241640D01*
X61152785Y-78307398D01*
X60953003Y-78414184D01*
X60777893Y-78557893D01*
X60634184Y-78733003D01*
X60527398Y-78932785D01*
X60461640Y-79149561D01*
X60439436Y-79375000D01*
X51175000Y-79375000D01*
X51175000Y-73025714D01*
X55987500Y-73025714D01*
X55987500Y-67250905D01*
X66075000Y-67250905D01*
X66075000Y-67369095D01*
X66098058Y-67485014D01*
X66143287Y-67594207D01*
X66208950Y-67692478D01*
X66292522Y-67776050D01*
X66390793Y-67841713D01*
X66499986Y-67886942D01*
X66615905Y-67910000D01*
X66734095Y-67910000D01*
X66850014Y-67886942D01*
X66959207Y-67841713D01*
X67057478Y-67776050D01*
X67123528Y-67710000D01*
X86546472Y-67710000D01*
X86612522Y-67776050D01*
X86710793Y-67841713D01*
X86819986Y-67886942D01*
X86935905Y-67910000D01*
X87054095Y-67910000D01*
X87170014Y-67886942D01*
X87279207Y-67841713D01*
X87377478Y-67776050D01*
X87443528Y-67710000D01*
X117026472Y-67710000D01*
X117092522Y-67776050D01*
X117190793Y-67841713D01*
X117299986Y-67886942D01*
X117415905Y-67910000D01*
X117534095Y-67910000D01*
X117650014Y-67886942D01*
X117759207Y-67841713D01*
X117857478Y-67776050D01*
X117941050Y-67692478D01*
X118006713Y-67594207D01*
X118051942Y-67485014D01*
X118075000Y-67369095D01*
X118075000Y-67250905D01*
X118051942Y-67134986D01*
X118006713Y-67025793D01*
X117941050Y-66927522D01*
X117857478Y-66843950D01*
X117759207Y-66778287D01*
X117650014Y-66733058D01*
X117534095Y-66710000D01*
X117415905Y-66710000D01*
X117299986Y-66733058D01*
X117190793Y-66778287D01*
X117092522Y-66843950D01*
X117026472Y-66910000D01*
X87443528Y-66910000D01*
X87377478Y-66843950D01*
X87279207Y-66778287D01*
X87170014Y-66733058D01*
X87054095Y-66710000D01*
X86935905Y-66710000D01*
X86819986Y-66733058D01*
X86710793Y-66778287D01*
X86612522Y-66843950D01*
X86546472Y-66910000D01*
X67123528Y-66910000D01*
X67057478Y-66843950D01*
X66959207Y-66778287D01*
X66850014Y-66733058D01*
X66734095Y-66710000D01*
X66615905Y-66710000D01*
X66499986Y-66733058D01*
X66390793Y-66778287D01*
X66292522Y-66843950D01*
X66208950Y-66927522D01*
X66143287Y-67025793D01*
X66098058Y-67134986D01*
X66075000Y-67250905D01*
X55987500Y-67250905D01*
X55987500Y-61535905D01*
X67345000Y-61535905D01*
X67345000Y-61654095D01*
X67368058Y-61770014D01*
X67413287Y-61879207D01*
X67478950Y-61977478D01*
X67562522Y-62061050D01*
X67660793Y-62126713D01*
X67769986Y-62171942D01*
X67885905Y-62195000D01*
X67980000Y-62195000D01*
X67980000Y-62265000D01*
X67885905Y-62265000D01*
X67769986Y-62288058D01*
X67660793Y-62333287D01*
X67562522Y-62398950D01*
X67478950Y-62482522D01*
X67413287Y-62580793D01*
X67368058Y-62689986D01*
X67345000Y-62805905D01*
X67345000Y-62924095D01*
X67368058Y-63040014D01*
X67413287Y-63149207D01*
X67478950Y-63247478D01*
X67562522Y-63331050D01*
X67660793Y-63396713D01*
X67769986Y-63441942D01*
X67885905Y-63465000D01*
X68004095Y-63465000D01*
X68120014Y-63441942D01*
X68229207Y-63396713D01*
X68327478Y-63331050D01*
X68393528Y-63265000D01*
X68814354Y-63265000D01*
X68834000Y-63266935D01*
X68853646Y-63265000D01*
X68853647Y-63265000D01*
X68912414Y-63259212D01*
X68987814Y-63236340D01*
X69057303Y-63199197D01*
X69118211Y-63149211D01*
X69130738Y-63133947D01*
X69234682Y-63030002D01*
X71576034Y-63030002D01*
X71559058Y-63070986D01*
X71536000Y-63186905D01*
X71536000Y-63305095D01*
X71559058Y-63421014D01*
X71604287Y-63530207D01*
X71669950Y-63628478D01*
X71753522Y-63712050D01*
X71851793Y-63777713D01*
X71960986Y-63822942D01*
X72076905Y-63846000D01*
X72195095Y-63846000D01*
X72311014Y-63822942D01*
X72420207Y-63777713D01*
X72518478Y-63712050D01*
X72602050Y-63628478D01*
X72667713Y-63530207D01*
X72709218Y-63430004D01*
X80390319Y-63430004D01*
X80729263Y-63768948D01*
X80741789Y-63784211D01*
X80757050Y-63796735D01*
X80802697Y-63834197D01*
X80872186Y-63871340D01*
X80947586Y-63894212D01*
X81026000Y-63901935D01*
X81045647Y-63900000D01*
X81514354Y-63900000D01*
X81534000Y-63901935D01*
X81553646Y-63900000D01*
X81553647Y-63900000D01*
X81612414Y-63894212D01*
X81687814Y-63871340D01*
X81757303Y-63834197D01*
X81818211Y-63784211D01*
X81830737Y-63768948D01*
X82169681Y-63430004D01*
X87375319Y-63430004D01*
X87714263Y-63768948D01*
X87726789Y-63784211D01*
X87742050Y-63796735D01*
X87787697Y-63834197D01*
X87857186Y-63871340D01*
X87932586Y-63894212D01*
X88011000Y-63901935D01*
X88030647Y-63900000D01*
X88451472Y-63900000D01*
X88517522Y-63966050D01*
X88615793Y-64031713D01*
X88724986Y-64076942D01*
X88840905Y-64100000D01*
X88959095Y-64100000D01*
X89075014Y-64076942D01*
X89184207Y-64031713D01*
X89282478Y-63966050D01*
X89366050Y-63882478D01*
X89431713Y-63784207D01*
X89476942Y-63675014D01*
X89500000Y-63559095D01*
X89500000Y-63440905D01*
X89476942Y-63324986D01*
X89431713Y-63215793D01*
X89405281Y-63176236D01*
X89438211Y-63149211D01*
X89450738Y-63133947D01*
X89554682Y-63030002D01*
X91736899Y-63030002D01*
X91703661Y-63092186D01*
X91680788Y-63167587D01*
X91673065Y-63246000D01*
X91680788Y-63324413D01*
X91703661Y-63399814D01*
X91740803Y-63469302D01*
X91790790Y-63530210D01*
X91851698Y-63580197D01*
X91921186Y-63617339D01*
X91996587Y-63640212D01*
X92002241Y-63640769D01*
X92073522Y-63712050D01*
X92171793Y-63777713D01*
X92280986Y-63822942D01*
X92396905Y-63846000D01*
X92515095Y-63846000D01*
X92631014Y-63822942D01*
X92740207Y-63777713D01*
X92838478Y-63712050D01*
X92922050Y-63628478D01*
X92987713Y-63530207D01*
X93029218Y-63430004D01*
X117220319Y-63430004D01*
X117559263Y-63768948D01*
X117571789Y-63784211D01*
X117587050Y-63796735D01*
X117632697Y-63834197D01*
X117702186Y-63871340D01*
X117777586Y-63894212D01*
X117856000Y-63901935D01*
X117875647Y-63900000D01*
X118931472Y-63900000D01*
X118997522Y-63966050D01*
X119095793Y-64031713D01*
X119204986Y-64076942D01*
X119320905Y-64100000D01*
X119439095Y-64100000D01*
X119555014Y-64076942D01*
X119664207Y-64031713D01*
X119762478Y-63966050D01*
X119846050Y-63882478D01*
X119911713Y-63784207D01*
X119956942Y-63675014D01*
X119980000Y-63559095D01*
X119980000Y-63440905D01*
X119956942Y-63324986D01*
X119911713Y-63215793D01*
X119846050Y-63117522D01*
X119762478Y-63033950D01*
X119664207Y-62968287D01*
X119555014Y-62923058D01*
X119439095Y-62900000D01*
X119320905Y-62900000D01*
X119204986Y-62923058D01*
X119095793Y-62968287D01*
X118997522Y-63033950D01*
X118931472Y-63100000D01*
X118662095Y-63100000D01*
X118686942Y-63040014D01*
X118710000Y-62924095D01*
X118710000Y-62805905D01*
X118686942Y-62689986D01*
X118662095Y-62630000D01*
X118931472Y-62630000D01*
X118997522Y-62696050D01*
X119095793Y-62761713D01*
X119204986Y-62806942D01*
X119320905Y-62830000D01*
X119439095Y-62830000D01*
X119555014Y-62806942D01*
X119664207Y-62761713D01*
X119762478Y-62696050D01*
X119846050Y-62612478D01*
X119911713Y-62514207D01*
X119956942Y-62405014D01*
X119980000Y-62289095D01*
X119980000Y-62170905D01*
X119956942Y-62054986D01*
X119911713Y-61945793D01*
X119846050Y-61847522D01*
X119762478Y-61763950D01*
X119664207Y-61698287D01*
X119555014Y-61653058D01*
X119439095Y-61630000D01*
X119320905Y-61630000D01*
X119204986Y-61653058D01*
X119095793Y-61698287D01*
X118997522Y-61763950D01*
X118931472Y-61830000D01*
X118662095Y-61830000D01*
X118686942Y-61770014D01*
X118710000Y-61654095D01*
X118710000Y-61535905D01*
X118686942Y-61419986D01*
X118662095Y-61360000D01*
X118931472Y-61360000D01*
X118997522Y-61426050D01*
X119095793Y-61491713D01*
X119204986Y-61536942D01*
X119320905Y-61560000D01*
X119439095Y-61560000D01*
X119555014Y-61536942D01*
X119664207Y-61491713D01*
X119762478Y-61426050D01*
X119846050Y-61342478D01*
X119911713Y-61244207D01*
X119956942Y-61135014D01*
X119980000Y-61019095D01*
X119980000Y-60900905D01*
X119956942Y-60784986D01*
X119911713Y-60675793D01*
X119846050Y-60577522D01*
X119762478Y-60493950D01*
X119664207Y-60428287D01*
X119555014Y-60383058D01*
X119439095Y-60360000D01*
X119320905Y-60360000D01*
X119204986Y-60383058D01*
X119095793Y-60428287D01*
X118997522Y-60493950D01*
X118931472Y-60560000D01*
X117875647Y-60560000D01*
X117856000Y-60558065D01*
X117836353Y-60560000D01*
X117777586Y-60565788D01*
X117702186Y-60588660D01*
X117632697Y-60625803D01*
X117571789Y-60675789D01*
X117559263Y-60691052D01*
X117220319Y-61029996D01*
X89739371Y-61029996D01*
X89464625Y-60755250D01*
X89431713Y-60675793D01*
X89366050Y-60577522D01*
X89282478Y-60493950D01*
X89184207Y-60428287D01*
X89075014Y-60383058D01*
X88959095Y-60360000D01*
X88840905Y-60360000D01*
X88724986Y-60383058D01*
X88615793Y-60428287D01*
X88517522Y-60493950D01*
X88451472Y-60560000D01*
X88030635Y-60560000D01*
X88010999Y-60558066D01*
X87991363Y-60560000D01*
X87991353Y-60560000D01*
X87932586Y-60565788D01*
X87857186Y-60588660D01*
X87787697Y-60625803D01*
X87726789Y-60675789D01*
X87714263Y-60691052D01*
X87375319Y-61029996D01*
X81853218Y-61029996D01*
X81811713Y-60929793D01*
X81746050Y-60831522D01*
X81662478Y-60747950D01*
X81564207Y-60682287D01*
X81455014Y-60637058D01*
X81339095Y-60614000D01*
X81220905Y-60614000D01*
X81104986Y-60637058D01*
X80995793Y-60682287D01*
X80897522Y-60747950D01*
X80813950Y-60831522D01*
X80748287Y-60929793D01*
X80706782Y-61029996D01*
X69469681Y-61029996D01*
X69130737Y-60691052D01*
X69118211Y-60675789D01*
X69103817Y-60663976D01*
X69046050Y-60577522D01*
X68962478Y-60493950D01*
X68864207Y-60428287D01*
X68755014Y-60383058D01*
X68639095Y-60360000D01*
X68520905Y-60360000D01*
X68404986Y-60383058D01*
X68295793Y-60428287D01*
X68197522Y-60493950D01*
X68113950Y-60577522D01*
X68048287Y-60675793D01*
X68003058Y-60784986D01*
X67980000Y-60900905D01*
X67980000Y-60995000D01*
X67885905Y-60995000D01*
X67769986Y-61018058D01*
X67660793Y-61063287D01*
X67562522Y-61128950D01*
X67478950Y-61212522D01*
X67413287Y-61310793D01*
X67368058Y-61419986D01*
X67345000Y-61535905D01*
X55987500Y-61535905D01*
X55987500Y-59390000D01*
X51175000Y-59390000D01*
X51175000Y-55816696D01*
X51203739Y-55494677D01*
X52700000Y-55494677D01*
X52700000Y-56105323D01*
X52819131Y-56704237D01*
X53052815Y-57268401D01*
X53392072Y-57776135D01*
X53823865Y-58207928D01*
X54331599Y-58547185D01*
X54895763Y-58780869D01*
X55494677Y-58900000D01*
X56105323Y-58900000D01*
X56704237Y-58780869D01*
X57268401Y-58547185D01*
X57776135Y-58207928D01*
X58207928Y-57776135D01*
X58547185Y-57268401D01*
X58780869Y-56704237D01*
X58900000Y-56105323D01*
X58900000Y-55494677D01*
X142700000Y-55494677D01*
X142700000Y-56105323D01*
X142819131Y-56704237D01*
X143052815Y-57268401D01*
X143392072Y-57776135D01*
X143823865Y-58207928D01*
X144331599Y-58547185D01*
X144895763Y-58780869D01*
X145494677Y-58900000D01*
X146105323Y-58900000D01*
X146704237Y-58780869D01*
X147268401Y-58547185D01*
X147776135Y-58207928D01*
X148207928Y-57776135D01*
X148547185Y-57268401D01*
X148780869Y-56704237D01*
X148900000Y-56105323D01*
X148900000Y-55494677D01*
X148780869Y-54895763D01*
X148547185Y-54331599D01*
X148207928Y-53823865D01*
X147776135Y-53392072D01*
X147268401Y-53052815D01*
X146704237Y-52819131D01*
X146105323Y-52700000D01*
X145494677Y-52700000D01*
X144895763Y-52819131D01*
X144331599Y-53052815D01*
X143823865Y-53392072D01*
X143392072Y-53823865D01*
X143052815Y-54331599D01*
X142819131Y-54895763D01*
X142700000Y-55494677D01*
X58900000Y-55494677D01*
X58780869Y-54895763D01*
X58547185Y-54331599D01*
X58207928Y-53823865D01*
X57776135Y-53392072D01*
X57268401Y-53052815D01*
X56704237Y-52819131D01*
X56105323Y-52700000D01*
X55494677Y-52700000D01*
X54895763Y-52819131D01*
X54331599Y-53052815D01*
X53823865Y-53392072D01*
X53392072Y-53823865D01*
X53052815Y-54331599D01*
X52819131Y-54895763D01*
X52700000Y-55494677D01*
X51203739Y-55494677D01*
X51249562Y-54981248D01*
X51466468Y-54188372D01*
X51820351Y-53446442D01*
X52300027Y-52778902D01*
X52890329Y-52206860D01*
X53572609Y-51748387D01*
X54325289Y-51417984D01*
X55127470Y-51225397D01*
X55813751Y-51175000D01*
X145783304Y-51175000D01*
X146618752Y-51249562D01*
G36*
X93797893Y-86177893D02*
X93654184Y-86353003D01*
X93547398Y-86552785D01*
X93481640Y-86769561D01*
X93459436Y-86995000D01*
X93481640Y-87220439D01*
X93547398Y-87437215D01*
X93654184Y-87636997D01*
X93797893Y-87812107D01*
X93973003Y-87955816D01*
X94172785Y-88062602D01*
X94389561Y-88128360D01*
X94558508Y-88145000D01*
X94671492Y-88145000D01*
X94840439Y-88128360D01*
X95057215Y-88062602D01*
X95256997Y-87955816D01*
X95432107Y-87812107D01*
X95575816Y-87636997D01*
X95682602Y-87437215D01*
X95748360Y-87220439D01*
X95770564Y-86995000D01*
X95748360Y-86769561D01*
X95682602Y-86552785D01*
X95575816Y-86353003D01*
X95432107Y-86177893D01*
X95367657Y-86125000D01*
X101482343Y-86125000D01*
X101417893Y-86177893D01*
X101274184Y-86353003D01*
X101167398Y-86552785D01*
X101101640Y-86769561D01*
X101079436Y-86995000D01*
X101101640Y-87220439D01*
X101167398Y-87437215D01*
X101274184Y-87636997D01*
X101417893Y-87812107D01*
X101593003Y-87955816D01*
X101792785Y-88062602D01*
X101835000Y-88075408D01*
X101835000Y-88500000D01*
X92875685Y-88500000D01*
X92475000Y-88099315D01*
X92475000Y-88075408D01*
X92517215Y-88062602D01*
X92716997Y-87955816D01*
X92892107Y-87812107D01*
X93035816Y-87636997D01*
X93142602Y-87437215D01*
X93208360Y-87220439D01*
X93230564Y-86995000D01*
X93208360Y-86769561D01*
X93142602Y-86552785D01*
X93035816Y-86353003D01*
X92892107Y-86177893D01*
X92827657Y-86125000D01*
X93862343Y-86125000D01*
X93797893Y-86177893D01*
X93797893Y-86177893D01*
G37*
X93797893Y-86177893D02*
X93654184Y-86353003D01*
X93547398Y-86552785D01*
X93481640Y-86769561D01*
X93459436Y-86995000D01*
X93481640Y-87220439D01*
X93547398Y-87437215D01*
X93654184Y-87636997D01*
X93797893Y-87812107D01*
X93973003Y-87955816D01*
X94172785Y-88062602D01*
X94389561Y-88128360D01*
X94558508Y-88145000D01*
X94671492Y-88145000D01*
X94840439Y-88128360D01*
X95057215Y-88062602D01*
X95256997Y-87955816D01*
X95432107Y-87812107D01*
X95575816Y-87636997D01*
X95682602Y-87437215D01*
X95748360Y-87220439D01*
X95770564Y-86995000D01*
X95748360Y-86769561D01*
X95682602Y-86552785D01*
X95575816Y-86353003D01*
X95432107Y-86177893D01*
X95367657Y-86125000D01*
X101482343Y-86125000D01*
X101417893Y-86177893D01*
X101274184Y-86353003D01*
X101167398Y-86552785D01*
X101101640Y-86769561D01*
X101079436Y-86995000D01*
X101101640Y-87220439D01*
X101167398Y-87437215D01*
X101274184Y-87636997D01*
X101417893Y-87812107D01*
X101593003Y-87955816D01*
X101792785Y-88062602D01*
X101835000Y-88075408D01*
X101835000Y-88500000D01*
X92875685Y-88500000D01*
X92475000Y-88099315D01*
X92475000Y-88075408D01*
X92517215Y-88062602D01*
X92716997Y-87955816D01*
X92892107Y-87812107D01*
X93035816Y-87636997D01*
X93142602Y-87437215D01*
X93208360Y-87220439D01*
X93230564Y-86995000D01*
X93208360Y-86769561D01*
X93142602Y-86552785D01*
X93035816Y-86353003D01*
X92892107Y-86177893D01*
X92827657Y-86125000D01*
X93862343Y-86125000D01*
X93797893Y-86177893D01*
G36*
X103957893Y-86177893D02*
X103814184Y-86353003D01*
X103707398Y-86552785D01*
X103641640Y-86769561D01*
X103619436Y-86995000D01*
X103641640Y-87220439D01*
X103707398Y-87437215D01*
X103814184Y-87636997D01*
X103957893Y-87812107D01*
X104133003Y-87955816D01*
X104332785Y-88062602D01*
X104549561Y-88128360D01*
X104718508Y-88145000D01*
X104831492Y-88145000D01*
X105000439Y-88128360D01*
X105217215Y-88062602D01*
X105416997Y-87955816D01*
X105592107Y-87812107D01*
X105735816Y-87636997D01*
X105842602Y-87437215D01*
X105908360Y-87220439D01*
X105930564Y-86995000D01*
X105908360Y-86769561D01*
X105842602Y-86552785D01*
X105735816Y-86353003D01*
X105592107Y-86177893D01*
X105527657Y-86125000D01*
X111642343Y-86125000D01*
X111577893Y-86177893D01*
X111434184Y-86353003D01*
X111327398Y-86552785D01*
X111261640Y-86769561D01*
X111239436Y-86995000D01*
X111261640Y-87220439D01*
X111327398Y-87437215D01*
X111434184Y-87636997D01*
X111577893Y-87812107D01*
X111753003Y-87955816D01*
X111952785Y-88062602D01*
X111995001Y-88075408D01*
X111995001Y-88245344D01*
X111995000Y-88245354D01*
X111995000Y-88500000D01*
X102635000Y-88500000D01*
X102635000Y-88075408D01*
X102677215Y-88062602D01*
X102876997Y-87955816D01*
X103052107Y-87812107D01*
X103195816Y-87636997D01*
X103302602Y-87437215D01*
X103368360Y-87220439D01*
X103390564Y-86995000D01*
X103368360Y-86769561D01*
X103302602Y-86552785D01*
X103195816Y-86353003D01*
X103052107Y-86177893D01*
X102987657Y-86125000D01*
X104022343Y-86125000D01*
X103957893Y-86177893D01*
X103957893Y-86177893D01*
G37*
X103957893Y-86177893D02*
X103814184Y-86353003D01*
X103707398Y-86552785D01*
X103641640Y-86769561D01*
X103619436Y-86995000D01*
X103641640Y-87220439D01*
X103707398Y-87437215D01*
X103814184Y-87636997D01*
X103957893Y-87812107D01*
X104133003Y-87955816D01*
X104332785Y-88062602D01*
X104549561Y-88128360D01*
X104718508Y-88145000D01*
X104831492Y-88145000D01*
X105000439Y-88128360D01*
X105217215Y-88062602D01*
X105416997Y-87955816D01*
X105592107Y-87812107D01*
X105735816Y-87636997D01*
X105842602Y-87437215D01*
X105908360Y-87220439D01*
X105930564Y-86995000D01*
X105908360Y-86769561D01*
X105842602Y-86552785D01*
X105735816Y-86353003D01*
X105592107Y-86177893D01*
X105527657Y-86125000D01*
X111642343Y-86125000D01*
X111577893Y-86177893D01*
X111434184Y-86353003D01*
X111327398Y-86552785D01*
X111261640Y-86769561D01*
X111239436Y-86995000D01*
X111261640Y-87220439D01*
X111327398Y-87437215D01*
X111434184Y-87636997D01*
X111577893Y-87812107D01*
X111753003Y-87955816D01*
X111952785Y-88062602D01*
X111995001Y-88075408D01*
X111995001Y-88245344D01*
X111995000Y-88245354D01*
X111995000Y-88500000D01*
X102635000Y-88500000D01*
X102635000Y-88075408D01*
X102677215Y-88062602D01*
X102876997Y-87955816D01*
X103052107Y-87812107D01*
X103195816Y-87636997D01*
X103302602Y-87437215D01*
X103368360Y-87220439D01*
X103390564Y-86995000D01*
X103368360Y-86769561D01*
X103302602Y-86552785D01*
X103195816Y-86353003D01*
X103052107Y-86177893D01*
X102987657Y-86125000D01*
X104022343Y-86125000D01*
X103957893Y-86177893D01*
G36*
X114117893Y-86177893D02*
X113974184Y-86353003D01*
X113867398Y-86552785D01*
X113801640Y-86769561D01*
X113779436Y-86995000D01*
X113801640Y-87220439D01*
X113867398Y-87437215D01*
X113974184Y-87636997D01*
X114117893Y-87812107D01*
X114293003Y-87955816D01*
X114492785Y-88062602D01*
X114709561Y-88128360D01*
X114878508Y-88145000D01*
X114991492Y-88145000D01*
X115160439Y-88128360D01*
X115377215Y-88062602D01*
X115576997Y-87955816D01*
X115752107Y-87812107D01*
X115895816Y-87636997D01*
X116002602Y-87437215D01*
X116068360Y-87220439D01*
X116090564Y-86995000D01*
X116068360Y-86769561D01*
X116002602Y-86552785D01*
X115895816Y-86353003D01*
X115752107Y-86177893D01*
X115687657Y-86125000D01*
X121802343Y-86125000D01*
X121737893Y-86177893D01*
X121594184Y-86353003D01*
X121487398Y-86552785D01*
X121421640Y-86769561D01*
X121399436Y-86995000D01*
X121421640Y-87220439D01*
X121487398Y-87437215D01*
X121594184Y-87636997D01*
X121737893Y-87812107D01*
X121913003Y-87955816D01*
X122112785Y-88062602D01*
X122155000Y-88075408D01*
X122155000Y-88500000D01*
X112795000Y-88500000D01*
X112795000Y-88075408D01*
X112837215Y-88062602D01*
X113036997Y-87955816D01*
X113212107Y-87812107D01*
X113355816Y-87636997D01*
X113462602Y-87437215D01*
X113528360Y-87220439D01*
X113550564Y-86995000D01*
X113528360Y-86769561D01*
X113462602Y-86552785D01*
X113355816Y-86353003D01*
X113212107Y-86177893D01*
X113147657Y-86125000D01*
X114182343Y-86125000D01*
X114117893Y-86177893D01*
X114117893Y-86177893D01*
G37*
X114117893Y-86177893D02*
X113974184Y-86353003D01*
X113867398Y-86552785D01*
X113801640Y-86769561D01*
X113779436Y-86995000D01*
X113801640Y-87220439D01*
X113867398Y-87437215D01*
X113974184Y-87636997D01*
X114117893Y-87812107D01*
X114293003Y-87955816D01*
X114492785Y-88062602D01*
X114709561Y-88128360D01*
X114878508Y-88145000D01*
X114991492Y-88145000D01*
X115160439Y-88128360D01*
X115377215Y-88062602D01*
X115576997Y-87955816D01*
X115752107Y-87812107D01*
X115895816Y-87636997D01*
X116002602Y-87437215D01*
X116068360Y-87220439D01*
X116090564Y-86995000D01*
X116068360Y-86769561D01*
X116002602Y-86552785D01*
X115895816Y-86353003D01*
X115752107Y-86177893D01*
X115687657Y-86125000D01*
X121802343Y-86125000D01*
X121737893Y-86177893D01*
X121594184Y-86353003D01*
X121487398Y-86552785D01*
X121421640Y-86769561D01*
X121399436Y-86995000D01*
X121421640Y-87220439D01*
X121487398Y-87437215D01*
X121594184Y-87636997D01*
X121737893Y-87812107D01*
X121913003Y-87955816D01*
X122112785Y-88062602D01*
X122155000Y-88075408D01*
X122155000Y-88500000D01*
X112795000Y-88500000D01*
X112795000Y-88075408D01*
X112837215Y-88062602D01*
X113036997Y-87955816D01*
X113212107Y-87812107D01*
X113355816Y-87636997D01*
X113462602Y-87437215D01*
X113528360Y-87220439D01*
X113550564Y-86995000D01*
X113528360Y-86769561D01*
X113462602Y-86552785D01*
X113355816Y-86353003D01*
X113212107Y-86177893D01*
X113147657Y-86125000D01*
X114182343Y-86125000D01*
X114117893Y-86177893D01*
G36*
X124277893Y-86177893D02*
X124134184Y-86353003D01*
X124027398Y-86552785D01*
X123961640Y-86769561D01*
X123939436Y-86995000D01*
X123961640Y-87220439D01*
X124027398Y-87437215D01*
X124134184Y-87636997D01*
X124277893Y-87812107D01*
X124453003Y-87955816D01*
X124652785Y-88062602D01*
X124869561Y-88128360D01*
X125038508Y-88145000D01*
X125151492Y-88145000D01*
X125320439Y-88128360D01*
X125537215Y-88062602D01*
X125736997Y-87955816D01*
X125912107Y-87812107D01*
X126055816Y-87636997D01*
X126162602Y-87437215D01*
X126228360Y-87220439D01*
X126250564Y-86995000D01*
X126228360Y-86769561D01*
X126162602Y-86552785D01*
X126055816Y-86353003D01*
X125912107Y-86177893D01*
X125847657Y-86125000D01*
X131962343Y-86125000D01*
X131897893Y-86177893D01*
X131754184Y-86353003D01*
X131647398Y-86552785D01*
X131581640Y-86769561D01*
X131559436Y-86995000D01*
X131581640Y-87220439D01*
X131647398Y-87437215D01*
X131754184Y-87636997D01*
X131897893Y-87812107D01*
X132073003Y-87955816D01*
X132272785Y-88062602D01*
X132315001Y-88075408D01*
X132315001Y-88245344D01*
X132315000Y-88245354D01*
X132315000Y-88500000D01*
X122955000Y-88500000D01*
X122955000Y-88075408D01*
X122997215Y-88062602D01*
X123196997Y-87955816D01*
X123372107Y-87812107D01*
X123515816Y-87636997D01*
X123622602Y-87437215D01*
X123688360Y-87220439D01*
X123710564Y-86995000D01*
X123688360Y-86769561D01*
X123622602Y-86552785D01*
X123515816Y-86353003D01*
X123372107Y-86177893D01*
X123307657Y-86125000D01*
X124342343Y-86125000D01*
X124277893Y-86177893D01*
X124277893Y-86177893D01*
G37*
X124277893Y-86177893D02*
X124134184Y-86353003D01*
X124027398Y-86552785D01*
X123961640Y-86769561D01*
X123939436Y-86995000D01*
X123961640Y-87220439D01*
X124027398Y-87437215D01*
X124134184Y-87636997D01*
X124277893Y-87812107D01*
X124453003Y-87955816D01*
X124652785Y-88062602D01*
X124869561Y-88128360D01*
X125038508Y-88145000D01*
X125151492Y-88145000D01*
X125320439Y-88128360D01*
X125537215Y-88062602D01*
X125736997Y-87955816D01*
X125912107Y-87812107D01*
X126055816Y-87636997D01*
X126162602Y-87437215D01*
X126228360Y-87220439D01*
X126250564Y-86995000D01*
X126228360Y-86769561D01*
X126162602Y-86552785D01*
X126055816Y-86353003D01*
X125912107Y-86177893D01*
X125847657Y-86125000D01*
X131962343Y-86125000D01*
X131897893Y-86177893D01*
X131754184Y-86353003D01*
X131647398Y-86552785D01*
X131581640Y-86769561D01*
X131559436Y-86995000D01*
X131581640Y-87220439D01*
X131647398Y-87437215D01*
X131754184Y-87636997D01*
X131897893Y-87812107D01*
X132073003Y-87955816D01*
X132272785Y-88062602D01*
X132315001Y-88075408D01*
X132315001Y-88245344D01*
X132315000Y-88245354D01*
X132315000Y-88500000D01*
X122955000Y-88500000D01*
X122955000Y-88075408D01*
X122997215Y-88062602D01*
X123196997Y-87955816D01*
X123372107Y-87812107D01*
X123515816Y-87636997D01*
X123622602Y-87437215D01*
X123688360Y-87220439D01*
X123710564Y-86995000D01*
X123688360Y-86769561D01*
X123622602Y-86552785D01*
X123515816Y-86353003D01*
X123372107Y-86177893D01*
X123307657Y-86125000D01*
X124342343Y-86125000D01*
X124277893Y-86177893D01*
G36*
X73477893Y-86177893D02*
X73334184Y-86353003D01*
X73227398Y-86552785D01*
X73161640Y-86769561D01*
X73139436Y-86995000D01*
X73161640Y-87220439D01*
X73227398Y-87437215D01*
X73334184Y-87636997D01*
X73477893Y-87812107D01*
X73653003Y-87955816D01*
X73852785Y-88062602D01*
X74069561Y-88128360D01*
X74238508Y-88145000D01*
X74351492Y-88145000D01*
X74520439Y-88128360D01*
X74737215Y-88062602D01*
X74936997Y-87955816D01*
X75112107Y-87812107D01*
X75255816Y-87636997D01*
X75362602Y-87437215D01*
X75428360Y-87220439D01*
X75450564Y-86995000D01*
X75428360Y-86769561D01*
X75362602Y-86552785D01*
X75255816Y-86353003D01*
X75112107Y-86177893D01*
X75047657Y-86125000D01*
X81162343Y-86125000D01*
X81097893Y-86177893D01*
X80954184Y-86353003D01*
X80847398Y-86552785D01*
X80781640Y-86769561D01*
X80759436Y-86995000D01*
X80781640Y-87220439D01*
X80847398Y-87437215D01*
X80954184Y-87636997D01*
X81097893Y-87812107D01*
X81273003Y-87955816D01*
X81472785Y-88062602D01*
X81515000Y-88075408D01*
X81515000Y-88099315D01*
X81114315Y-88500000D01*
X72555685Y-88500000D01*
X72155000Y-88099315D01*
X72155000Y-88075408D01*
X72197215Y-88062602D01*
X72396997Y-87955816D01*
X72572107Y-87812107D01*
X72715816Y-87636997D01*
X72822602Y-87437215D01*
X72888360Y-87220439D01*
X72910564Y-86995000D01*
X72888360Y-86769561D01*
X72822602Y-86552785D01*
X72715816Y-86353003D01*
X72572107Y-86177893D01*
X72507657Y-86125000D01*
X73542343Y-86125000D01*
X73477893Y-86177893D01*
X73477893Y-86177893D01*
G37*
X73477893Y-86177893D02*
X73334184Y-86353003D01*
X73227398Y-86552785D01*
X73161640Y-86769561D01*
X73139436Y-86995000D01*
X73161640Y-87220439D01*
X73227398Y-87437215D01*
X73334184Y-87636997D01*
X73477893Y-87812107D01*
X73653003Y-87955816D01*
X73852785Y-88062602D01*
X74069561Y-88128360D01*
X74238508Y-88145000D01*
X74351492Y-88145000D01*
X74520439Y-88128360D01*
X74737215Y-88062602D01*
X74936997Y-87955816D01*
X75112107Y-87812107D01*
X75255816Y-87636997D01*
X75362602Y-87437215D01*
X75428360Y-87220439D01*
X75450564Y-86995000D01*
X75428360Y-86769561D01*
X75362602Y-86552785D01*
X75255816Y-86353003D01*
X75112107Y-86177893D01*
X75047657Y-86125000D01*
X81162343Y-86125000D01*
X81097893Y-86177893D01*
X80954184Y-86353003D01*
X80847398Y-86552785D01*
X80781640Y-86769561D01*
X80759436Y-86995000D01*
X80781640Y-87220439D01*
X80847398Y-87437215D01*
X80954184Y-87636997D01*
X81097893Y-87812107D01*
X81273003Y-87955816D01*
X81472785Y-88062602D01*
X81515000Y-88075408D01*
X81515000Y-88099315D01*
X81114315Y-88500000D01*
X72555685Y-88500000D01*
X72155000Y-88099315D01*
X72155000Y-88075408D01*
X72197215Y-88062602D01*
X72396997Y-87955816D01*
X72572107Y-87812107D01*
X72715816Y-87636997D01*
X72822602Y-87437215D01*
X72888360Y-87220439D01*
X72910564Y-86995000D01*
X72888360Y-86769561D01*
X72822602Y-86552785D01*
X72715816Y-86353003D01*
X72572107Y-86177893D01*
X72507657Y-86125000D01*
X73542343Y-86125000D01*
X73477893Y-86177893D01*
G36*
X121594184Y-83813003D02*
X121487398Y-84012785D01*
X121421640Y-84229561D01*
X121399436Y-84455000D01*
X121421640Y-84680439D01*
X121487398Y-84897215D01*
X121594184Y-85096997D01*
X121737893Y-85272107D01*
X121802343Y-85325000D01*
X115687657Y-85325000D01*
X115752107Y-85272107D01*
X115895816Y-85096997D01*
X116002602Y-84897215D01*
X116068360Y-84680439D01*
X116090564Y-84455000D01*
X116068360Y-84229561D01*
X116002602Y-84012785D01*
X115895816Y-83813003D01*
X115807180Y-83705000D01*
X121682820Y-83705000D01*
X121594184Y-83813003D01*
X121594184Y-83813003D01*
G37*
X121594184Y-83813003D02*
X121487398Y-84012785D01*
X121421640Y-84229561D01*
X121399436Y-84455000D01*
X121421640Y-84680439D01*
X121487398Y-84897215D01*
X121594184Y-85096997D01*
X121737893Y-85272107D01*
X121802343Y-85325000D01*
X115687657Y-85325000D01*
X115752107Y-85272107D01*
X115895816Y-85096997D01*
X116002602Y-84897215D01*
X116068360Y-84680439D01*
X116090564Y-84455000D01*
X116068360Y-84229561D01*
X116002602Y-84012785D01*
X115895816Y-83813003D01*
X115807180Y-83705000D01*
X121682820Y-83705000D01*
X121594184Y-83813003D01*
G36*
X80954184Y-83813003D02*
X80847398Y-84012785D01*
X80781640Y-84229561D01*
X80759436Y-84455000D01*
X80781640Y-84680439D01*
X80847398Y-84897215D01*
X80954184Y-85096997D01*
X81097893Y-85272107D01*
X81162343Y-85325000D01*
X75047657Y-85325000D01*
X75112107Y-85272107D01*
X75255816Y-85096997D01*
X75362602Y-84897215D01*
X75428360Y-84680439D01*
X75450564Y-84455000D01*
X75428360Y-84229561D01*
X75362602Y-84012785D01*
X75255816Y-83813003D01*
X75167180Y-83705000D01*
X81042820Y-83705000D01*
X80954184Y-83813003D01*
X80954184Y-83813003D01*
G37*
X80954184Y-83813003D02*
X80847398Y-84012785D01*
X80781640Y-84229561D01*
X80759436Y-84455000D01*
X80781640Y-84680439D01*
X80847398Y-84897215D01*
X80954184Y-85096997D01*
X81097893Y-85272107D01*
X81162343Y-85325000D01*
X75047657Y-85325000D01*
X75112107Y-85272107D01*
X75255816Y-85096997D01*
X75362602Y-84897215D01*
X75428360Y-84680439D01*
X75450564Y-84455000D01*
X75428360Y-84229561D01*
X75362602Y-84012785D01*
X75255816Y-83813003D01*
X75167180Y-83705000D01*
X81042820Y-83705000D01*
X80954184Y-83813003D01*
G36*
X91114184Y-83813003D02*
X91007398Y-84012785D01*
X90941640Y-84229561D01*
X90919436Y-84455000D01*
X90941640Y-84680439D01*
X91007398Y-84897215D01*
X91114184Y-85096997D01*
X91257893Y-85272107D01*
X91322343Y-85325000D01*
X85207657Y-85325000D01*
X85272107Y-85272107D01*
X85415816Y-85096997D01*
X85522602Y-84897215D01*
X85588360Y-84680439D01*
X85610564Y-84455000D01*
X85588360Y-84229561D01*
X85522602Y-84012785D01*
X85415816Y-83813003D01*
X85327180Y-83705000D01*
X91202820Y-83705000D01*
X91114184Y-83813003D01*
X91114184Y-83813003D01*
G37*
X91114184Y-83813003D02*
X91007398Y-84012785D01*
X90941640Y-84229561D01*
X90919436Y-84455000D01*
X90941640Y-84680439D01*
X91007398Y-84897215D01*
X91114184Y-85096997D01*
X91257893Y-85272107D01*
X91322343Y-85325000D01*
X85207657Y-85325000D01*
X85272107Y-85272107D01*
X85415816Y-85096997D01*
X85522602Y-84897215D01*
X85588360Y-84680439D01*
X85610564Y-84455000D01*
X85588360Y-84229561D01*
X85522602Y-84012785D01*
X85415816Y-83813003D01*
X85327180Y-83705000D01*
X91202820Y-83705000D01*
X91114184Y-83813003D01*
G36*
X101274184Y-83813003D02*
X101167398Y-84012785D01*
X101101640Y-84229561D01*
X101079436Y-84455000D01*
X101101640Y-84680439D01*
X101167398Y-84897215D01*
X101274184Y-85096997D01*
X101417893Y-85272107D01*
X101482343Y-85325000D01*
X95367657Y-85325000D01*
X95432107Y-85272107D01*
X95575816Y-85096997D01*
X95682602Y-84897215D01*
X95748360Y-84680439D01*
X95770564Y-84455000D01*
X95748360Y-84229561D01*
X95682602Y-84012785D01*
X95575816Y-83813003D01*
X95487180Y-83705000D01*
X101362820Y-83705000D01*
X101274184Y-83813003D01*
X101274184Y-83813003D01*
G37*
X101274184Y-83813003D02*
X101167398Y-84012785D01*
X101101640Y-84229561D01*
X101079436Y-84455000D01*
X101101640Y-84680439D01*
X101167398Y-84897215D01*
X101274184Y-85096997D01*
X101417893Y-85272107D01*
X101482343Y-85325000D01*
X95367657Y-85325000D01*
X95432107Y-85272107D01*
X95575816Y-85096997D01*
X95682602Y-84897215D01*
X95748360Y-84680439D01*
X95770564Y-84455000D01*
X95748360Y-84229561D01*
X95682602Y-84012785D01*
X95575816Y-83813003D01*
X95487180Y-83705000D01*
X101362820Y-83705000D01*
X101274184Y-83813003D01*
G36*
X111434184Y-83813003D02*
X111327398Y-84012785D01*
X111261640Y-84229561D01*
X111239436Y-84455000D01*
X111261640Y-84680439D01*
X111327398Y-84897215D01*
X111434184Y-85096997D01*
X111577893Y-85272107D01*
X111642343Y-85325000D01*
X105527657Y-85325000D01*
X105592107Y-85272107D01*
X105735816Y-85096997D01*
X105842602Y-84897215D01*
X105908360Y-84680439D01*
X105930564Y-84455000D01*
X105908360Y-84229561D01*
X105842602Y-84012785D01*
X105735816Y-83813003D01*
X105647180Y-83705000D01*
X111522820Y-83705000D01*
X111434184Y-83813003D01*
X111434184Y-83813003D01*
G37*
X111434184Y-83813003D02*
X111327398Y-84012785D01*
X111261640Y-84229561D01*
X111239436Y-84455000D01*
X111261640Y-84680439D01*
X111327398Y-84897215D01*
X111434184Y-85096997D01*
X111577893Y-85272107D01*
X111642343Y-85325000D01*
X105527657Y-85325000D01*
X105592107Y-85272107D01*
X105735816Y-85096997D01*
X105842602Y-84897215D01*
X105908360Y-84680439D01*
X105930564Y-84455000D01*
X105908360Y-84229561D01*
X105842602Y-84012785D01*
X105735816Y-83813003D01*
X105647180Y-83705000D01*
X111522820Y-83705000D01*
X111434184Y-83813003D01*
G36*
X131754184Y-83813003D02*
X131647398Y-84012785D01*
X131581640Y-84229561D01*
X131559436Y-84455000D01*
X131581640Y-84680439D01*
X131647398Y-84897215D01*
X131754184Y-85096997D01*
X131897893Y-85272107D01*
X131962343Y-85325000D01*
X125847657Y-85325000D01*
X125912107Y-85272107D01*
X126055816Y-85096997D01*
X126162602Y-84897215D01*
X126228360Y-84680439D01*
X126250564Y-84455000D01*
X126228360Y-84229561D01*
X126162602Y-84012785D01*
X126055816Y-83813003D01*
X125967180Y-83705000D01*
X131842820Y-83705000D01*
X131754184Y-83813003D01*
X131754184Y-83813003D01*
G37*
X131754184Y-83813003D02*
X131647398Y-84012785D01*
X131581640Y-84229561D01*
X131559436Y-84455000D01*
X131581640Y-84680439D01*
X131647398Y-84897215D01*
X131754184Y-85096997D01*
X131897893Y-85272107D01*
X131962343Y-85325000D01*
X125847657Y-85325000D01*
X125912107Y-85272107D01*
X126055816Y-85096997D01*
X126162602Y-84897215D01*
X126228360Y-84680439D01*
X126250564Y-84455000D01*
X126228360Y-84229561D01*
X126162602Y-84012785D01*
X126055816Y-83813003D01*
X125967180Y-83705000D01*
X131842820Y-83705000D01*
X131754184Y-83813003D01*
G36*
X134368319Y-81182664D02*
X134242485Y-81369719D01*
X134155561Y-81577728D01*
X134153480Y-81584617D01*
X134191088Y-81761000D01*
X135101000Y-81761000D01*
X135101000Y-81741000D01*
X135409000Y-81741000D01*
X135409000Y-81761000D01*
X136318912Y-81761000D01*
X136356520Y-81584617D01*
X136354439Y-81577728D01*
X136267515Y-81369719D01*
X136141681Y-81182664D01*
X136003152Y-81045000D01*
X142122343Y-81045000D01*
X142057893Y-81097893D01*
X141914184Y-81273003D01*
X141807398Y-81472785D01*
X141741640Y-81689561D01*
X141719436Y-81915000D01*
X141741640Y-82140439D01*
X141781795Y-82272814D01*
X141389610Y-82665000D01*
X136123906Y-82665000D01*
X136141681Y-82647336D01*
X136267515Y-82460281D01*
X136354439Y-82252272D01*
X136356520Y-82245383D01*
X136318912Y-82069000D01*
X135409000Y-82069000D01*
X135409000Y-82089000D01*
X135101000Y-82089000D01*
X135101000Y-82069000D01*
X134191088Y-82069000D01*
X134153480Y-82245383D01*
X134155561Y-82252272D01*
X134242485Y-82460281D01*
X134368319Y-82647336D01*
X134386094Y-82665000D01*
X133587180Y-82665000D01*
X133675816Y-82556997D01*
X133782602Y-82357215D01*
X133848360Y-82140439D01*
X133870564Y-81915000D01*
X133848360Y-81689561D01*
X133782602Y-81472785D01*
X133675816Y-81273003D01*
X133532107Y-81097893D01*
X133467657Y-81045000D01*
X134506848Y-81045000D01*
X134368319Y-81182664D01*
X134368319Y-81182664D01*
G37*
X134368319Y-81182664D02*
X134242485Y-81369719D01*
X134155561Y-81577728D01*
X134153480Y-81584617D01*
X134191088Y-81761000D01*
X135101000Y-81761000D01*
X135101000Y-81741000D01*
X135409000Y-81741000D01*
X135409000Y-81761000D01*
X136318912Y-81761000D01*
X136356520Y-81584617D01*
X136354439Y-81577728D01*
X136267515Y-81369719D01*
X136141681Y-81182664D01*
X136003152Y-81045000D01*
X142122343Y-81045000D01*
X142057893Y-81097893D01*
X141914184Y-81273003D01*
X141807398Y-81472785D01*
X141741640Y-81689561D01*
X141719436Y-81915000D01*
X141741640Y-82140439D01*
X141781795Y-82272814D01*
X141389610Y-82665000D01*
X136123906Y-82665000D01*
X136141681Y-82647336D01*
X136267515Y-82460281D01*
X136354439Y-82252272D01*
X136356520Y-82245383D01*
X136318912Y-82069000D01*
X135409000Y-82069000D01*
X135409000Y-82089000D01*
X135101000Y-82089000D01*
X135101000Y-82069000D01*
X134191088Y-82069000D01*
X134153480Y-82245383D01*
X134155561Y-82252272D01*
X134242485Y-82460281D01*
X134368319Y-82647336D01*
X134386094Y-82665000D01*
X133587180Y-82665000D01*
X133675816Y-82556997D01*
X133782602Y-82357215D01*
X133848360Y-82140439D01*
X133870564Y-81915000D01*
X133848360Y-81689561D01*
X133782602Y-81472785D01*
X133675816Y-81273003D01*
X133532107Y-81097893D01*
X133467657Y-81045000D01*
X134506848Y-81045000D01*
X134368319Y-81182664D01*
G36*
X114048319Y-81182664D02*
X113922485Y-81369719D01*
X113835561Y-81577728D01*
X113833480Y-81584617D01*
X113871088Y-81761000D01*
X114781000Y-81761000D01*
X114781000Y-81741000D01*
X115089000Y-81741000D01*
X115089000Y-81761000D01*
X115998912Y-81761000D01*
X116036520Y-81584617D01*
X116034439Y-81577728D01*
X115947515Y-81369719D01*
X115821681Y-81182664D01*
X115683152Y-81045000D01*
X121802343Y-81045000D01*
X121737893Y-81097893D01*
X121594184Y-81273003D01*
X121487398Y-81472785D01*
X121421640Y-81689561D01*
X121399436Y-81915000D01*
X121421640Y-82140439D01*
X121487398Y-82357215D01*
X121594184Y-82556997D01*
X121682820Y-82665000D01*
X115803906Y-82665000D01*
X115821681Y-82647336D01*
X115947515Y-82460281D01*
X116034439Y-82252272D01*
X116036520Y-82245383D01*
X115998912Y-82069000D01*
X115089000Y-82069000D01*
X115089000Y-82089000D01*
X114781000Y-82089000D01*
X114781000Y-82069000D01*
X113871088Y-82069000D01*
X113833480Y-82245383D01*
X113835561Y-82252272D01*
X113922485Y-82460281D01*
X114048319Y-82647336D01*
X114066094Y-82665000D01*
X113267180Y-82665000D01*
X113355816Y-82556997D01*
X113462602Y-82357215D01*
X113528360Y-82140439D01*
X113550564Y-81915000D01*
X113528360Y-81689561D01*
X113462602Y-81472785D01*
X113355816Y-81273003D01*
X113212107Y-81097893D01*
X113147657Y-81045000D01*
X114186848Y-81045000D01*
X114048319Y-81182664D01*
X114048319Y-81182664D01*
G37*
X114048319Y-81182664D02*
X113922485Y-81369719D01*
X113835561Y-81577728D01*
X113833480Y-81584617D01*
X113871088Y-81761000D01*
X114781000Y-81761000D01*
X114781000Y-81741000D01*
X115089000Y-81741000D01*
X115089000Y-81761000D01*
X115998912Y-81761000D01*
X116036520Y-81584617D01*
X116034439Y-81577728D01*
X115947515Y-81369719D01*
X115821681Y-81182664D01*
X115683152Y-81045000D01*
X121802343Y-81045000D01*
X121737893Y-81097893D01*
X121594184Y-81273003D01*
X121487398Y-81472785D01*
X121421640Y-81689561D01*
X121399436Y-81915000D01*
X121421640Y-82140439D01*
X121487398Y-82357215D01*
X121594184Y-82556997D01*
X121682820Y-82665000D01*
X115803906Y-82665000D01*
X115821681Y-82647336D01*
X115947515Y-82460281D01*
X116034439Y-82252272D01*
X116036520Y-82245383D01*
X115998912Y-82069000D01*
X115089000Y-82069000D01*
X115089000Y-82089000D01*
X114781000Y-82089000D01*
X114781000Y-82069000D01*
X113871088Y-82069000D01*
X113833480Y-82245383D01*
X113835561Y-82252272D01*
X113922485Y-82460281D01*
X114048319Y-82647336D01*
X114066094Y-82665000D01*
X113267180Y-82665000D01*
X113355816Y-82556997D01*
X113462602Y-82357215D01*
X113528360Y-82140439D01*
X113550564Y-81915000D01*
X113528360Y-81689561D01*
X113462602Y-81472785D01*
X113355816Y-81273003D01*
X113212107Y-81097893D01*
X113147657Y-81045000D01*
X114186848Y-81045000D01*
X114048319Y-81182664D01*
G36*
X103888319Y-81182664D02*
X103762485Y-81369719D01*
X103675561Y-81577728D01*
X103673480Y-81584617D01*
X103711088Y-81761000D01*
X104621000Y-81761000D01*
X104621000Y-81741000D01*
X104929000Y-81741000D01*
X104929000Y-81761000D01*
X105838912Y-81761000D01*
X105876520Y-81584617D01*
X105874439Y-81577728D01*
X105787515Y-81369719D01*
X105661681Y-81182664D01*
X105523152Y-81045000D01*
X111642343Y-81045000D01*
X111577893Y-81097893D01*
X111434184Y-81273003D01*
X111327398Y-81472785D01*
X111261640Y-81689561D01*
X111239436Y-81915000D01*
X111261640Y-82140439D01*
X111327398Y-82357215D01*
X111434184Y-82556997D01*
X111522820Y-82665000D01*
X105643906Y-82665000D01*
X105661681Y-82647336D01*
X105787515Y-82460281D01*
X105874439Y-82252272D01*
X105876520Y-82245383D01*
X105838912Y-82069000D01*
X104929000Y-82069000D01*
X104929000Y-82089000D01*
X104621000Y-82089000D01*
X104621000Y-82069000D01*
X103711088Y-82069000D01*
X103673480Y-82245383D01*
X103675561Y-82252272D01*
X103762485Y-82460281D01*
X103888319Y-82647336D01*
X103906094Y-82665000D01*
X103107180Y-82665000D01*
X103195816Y-82556997D01*
X103302602Y-82357215D01*
X103368360Y-82140439D01*
X103390564Y-81915000D01*
X103368360Y-81689561D01*
X103302602Y-81472785D01*
X103195816Y-81273003D01*
X103052107Y-81097893D01*
X102987657Y-81045000D01*
X104026848Y-81045000D01*
X103888319Y-81182664D01*
X103888319Y-81182664D01*
G37*
X103888319Y-81182664D02*
X103762485Y-81369719D01*
X103675561Y-81577728D01*
X103673480Y-81584617D01*
X103711088Y-81761000D01*
X104621000Y-81761000D01*
X104621000Y-81741000D01*
X104929000Y-81741000D01*
X104929000Y-81761000D01*
X105838912Y-81761000D01*
X105876520Y-81584617D01*
X105874439Y-81577728D01*
X105787515Y-81369719D01*
X105661681Y-81182664D01*
X105523152Y-81045000D01*
X111642343Y-81045000D01*
X111577893Y-81097893D01*
X111434184Y-81273003D01*
X111327398Y-81472785D01*
X111261640Y-81689561D01*
X111239436Y-81915000D01*
X111261640Y-82140439D01*
X111327398Y-82357215D01*
X111434184Y-82556997D01*
X111522820Y-82665000D01*
X105643906Y-82665000D01*
X105661681Y-82647336D01*
X105787515Y-82460281D01*
X105874439Y-82252272D01*
X105876520Y-82245383D01*
X105838912Y-82069000D01*
X104929000Y-82069000D01*
X104929000Y-82089000D01*
X104621000Y-82089000D01*
X104621000Y-82069000D01*
X103711088Y-82069000D01*
X103673480Y-82245383D01*
X103675561Y-82252272D01*
X103762485Y-82460281D01*
X103888319Y-82647336D01*
X103906094Y-82665000D01*
X103107180Y-82665000D01*
X103195816Y-82556997D01*
X103302602Y-82357215D01*
X103368360Y-82140439D01*
X103390564Y-81915000D01*
X103368360Y-81689561D01*
X103302602Y-81472785D01*
X103195816Y-81273003D01*
X103052107Y-81097893D01*
X102987657Y-81045000D01*
X104026848Y-81045000D01*
X103888319Y-81182664D01*
G36*
X124208319Y-81182664D02*
X124082485Y-81369719D01*
X123995561Y-81577728D01*
X123993480Y-81584617D01*
X124031088Y-81761000D01*
X124941000Y-81761000D01*
X124941000Y-81741000D01*
X125249000Y-81741000D01*
X125249000Y-81761000D01*
X126158912Y-81761000D01*
X126196520Y-81584617D01*
X126194439Y-81577728D01*
X126107515Y-81369719D01*
X125981681Y-81182664D01*
X125843152Y-81045000D01*
X131962343Y-81045000D01*
X131897893Y-81097893D01*
X131754184Y-81273003D01*
X131647398Y-81472785D01*
X131581640Y-81689561D01*
X131559436Y-81915000D01*
X131581640Y-82140439D01*
X131647398Y-82357215D01*
X131754184Y-82556997D01*
X131842820Y-82665000D01*
X125963906Y-82665000D01*
X125981681Y-82647336D01*
X126107515Y-82460281D01*
X126194439Y-82252272D01*
X126196520Y-82245383D01*
X126158912Y-82069000D01*
X125249000Y-82069000D01*
X125249000Y-82089000D01*
X124941000Y-82089000D01*
X124941000Y-82069000D01*
X124031088Y-82069000D01*
X123993480Y-82245383D01*
X123995561Y-82252272D01*
X124082485Y-82460281D01*
X124208319Y-82647336D01*
X124226094Y-82665000D01*
X123427180Y-82665000D01*
X123515816Y-82556997D01*
X123622602Y-82357215D01*
X123688360Y-82140439D01*
X123710564Y-81915000D01*
X123688360Y-81689561D01*
X123622602Y-81472785D01*
X123515816Y-81273003D01*
X123372107Y-81097893D01*
X123307657Y-81045000D01*
X124346848Y-81045000D01*
X124208319Y-81182664D01*
X124208319Y-81182664D01*
G37*
X124208319Y-81182664D02*
X124082485Y-81369719D01*
X123995561Y-81577728D01*
X123993480Y-81584617D01*
X124031088Y-81761000D01*
X124941000Y-81761000D01*
X124941000Y-81741000D01*
X125249000Y-81741000D01*
X125249000Y-81761000D01*
X126158912Y-81761000D01*
X126196520Y-81584617D01*
X126194439Y-81577728D01*
X126107515Y-81369719D01*
X125981681Y-81182664D01*
X125843152Y-81045000D01*
X131962343Y-81045000D01*
X131897893Y-81097893D01*
X131754184Y-81273003D01*
X131647398Y-81472785D01*
X131581640Y-81689561D01*
X131559436Y-81915000D01*
X131581640Y-82140439D01*
X131647398Y-82357215D01*
X131754184Y-82556997D01*
X131842820Y-82665000D01*
X125963906Y-82665000D01*
X125981681Y-82647336D01*
X126107515Y-82460281D01*
X126194439Y-82252272D01*
X126196520Y-82245383D01*
X126158912Y-82069000D01*
X125249000Y-82069000D01*
X125249000Y-82089000D01*
X124941000Y-82089000D01*
X124941000Y-82069000D01*
X124031088Y-82069000D01*
X123993480Y-82245383D01*
X123995561Y-82252272D01*
X124082485Y-82460281D01*
X124208319Y-82647336D01*
X124226094Y-82665000D01*
X123427180Y-82665000D01*
X123515816Y-82556997D01*
X123622602Y-82357215D01*
X123688360Y-82140439D01*
X123710564Y-81915000D01*
X123688360Y-81689561D01*
X123622602Y-81472785D01*
X123515816Y-81273003D01*
X123372107Y-81097893D01*
X123307657Y-81045000D01*
X124346848Y-81045000D01*
X124208319Y-81182664D01*
G36*
X111577893Y-78557893D02*
X111434184Y-78733003D01*
X111327398Y-78932785D01*
X111261640Y-79149561D01*
X111239436Y-79375000D01*
X111261640Y-79600439D01*
X111327398Y-79817215D01*
X111434184Y-80016997D01*
X111577893Y-80192107D01*
X111642343Y-80245000D01*
X105527657Y-80245000D01*
X105592107Y-80192107D01*
X105735816Y-80016997D01*
X105842602Y-79817215D01*
X105908360Y-79600439D01*
X105930564Y-79375000D01*
X105908360Y-79149561D01*
X105842602Y-78932785D01*
X105735816Y-78733003D01*
X105592107Y-78557893D01*
X105527657Y-78505000D01*
X111642343Y-78505000D01*
X111577893Y-78557893D01*
X111577893Y-78557893D01*
G37*
X111577893Y-78557893D02*
X111434184Y-78733003D01*
X111327398Y-78932785D01*
X111261640Y-79149561D01*
X111239436Y-79375000D01*
X111261640Y-79600439D01*
X111327398Y-79817215D01*
X111434184Y-80016997D01*
X111577893Y-80192107D01*
X111642343Y-80245000D01*
X105527657Y-80245000D01*
X105592107Y-80192107D01*
X105735816Y-80016997D01*
X105842602Y-79817215D01*
X105908360Y-79600439D01*
X105930564Y-79375000D01*
X105908360Y-79149561D01*
X105842602Y-78932785D01*
X105735816Y-78733003D01*
X105592107Y-78557893D01*
X105527657Y-78505000D01*
X111642343Y-78505000D01*
X111577893Y-78557893D01*
G36*
X121737893Y-78557893D02*
X121594184Y-78733003D01*
X121487398Y-78932785D01*
X121421640Y-79149561D01*
X121399436Y-79375000D01*
X121421640Y-79600439D01*
X121487398Y-79817215D01*
X121594184Y-80016997D01*
X121737893Y-80192107D01*
X121802343Y-80245000D01*
X115687657Y-80245000D01*
X115752107Y-80192107D01*
X115895816Y-80016997D01*
X116002602Y-79817215D01*
X116068360Y-79600439D01*
X116090564Y-79375000D01*
X116068360Y-79149561D01*
X116002602Y-78932785D01*
X115895816Y-78733003D01*
X115752107Y-78557893D01*
X115687657Y-78505000D01*
X121802343Y-78505000D01*
X121737893Y-78557893D01*
X121737893Y-78557893D01*
G37*
X121737893Y-78557893D02*
X121594184Y-78733003D01*
X121487398Y-78932785D01*
X121421640Y-79149561D01*
X121399436Y-79375000D01*
X121421640Y-79600439D01*
X121487398Y-79817215D01*
X121594184Y-80016997D01*
X121737893Y-80192107D01*
X121802343Y-80245000D01*
X115687657Y-80245000D01*
X115752107Y-80192107D01*
X115895816Y-80016997D01*
X116002602Y-79817215D01*
X116068360Y-79600439D01*
X116090564Y-79375000D01*
X116068360Y-79149561D01*
X116002602Y-78932785D01*
X115895816Y-78733003D01*
X115752107Y-78557893D01*
X115687657Y-78505000D01*
X121802343Y-78505000D01*
X121737893Y-78557893D01*
G36*
X131897893Y-78557893D02*
X131754184Y-78733003D01*
X131647398Y-78932785D01*
X131581640Y-79149561D01*
X131559436Y-79375000D01*
X131581640Y-79600439D01*
X131647398Y-79817215D01*
X131754184Y-80016997D01*
X131897893Y-80192107D01*
X131962343Y-80245000D01*
X125847657Y-80245000D01*
X125912107Y-80192107D01*
X126055816Y-80016997D01*
X126162602Y-79817215D01*
X126228360Y-79600439D01*
X126250564Y-79375000D01*
X126228360Y-79149561D01*
X126162602Y-78932785D01*
X126055816Y-78733003D01*
X125912107Y-78557893D01*
X125847657Y-78505000D01*
X131962343Y-78505000D01*
X131897893Y-78557893D01*
X131897893Y-78557893D01*
G37*
X131897893Y-78557893D02*
X131754184Y-78733003D01*
X131647398Y-78932785D01*
X131581640Y-79149561D01*
X131559436Y-79375000D01*
X131581640Y-79600439D01*
X131647398Y-79817215D01*
X131754184Y-80016997D01*
X131897893Y-80192107D01*
X131962343Y-80245000D01*
X125847657Y-80245000D01*
X125912107Y-80192107D01*
X126055816Y-80016997D01*
X126162602Y-79817215D01*
X126228360Y-79600439D01*
X126250564Y-79375000D01*
X126228360Y-79149561D01*
X126162602Y-78932785D01*
X126055816Y-78733003D01*
X125912107Y-78557893D01*
X125847657Y-78505000D01*
X131962343Y-78505000D01*
X131897893Y-78557893D01*
G36*
X101417893Y-78557893D02*
X101274184Y-78733003D01*
X101167398Y-78932785D01*
X101101640Y-79149561D01*
X101079436Y-79375000D01*
X101101640Y-79600439D01*
X101167398Y-79817215D01*
X101274184Y-80016997D01*
X101417893Y-80192107D01*
X101482343Y-80245000D01*
X96050686Y-80245000D01*
X95661806Y-79856121D01*
X95682602Y-79817215D01*
X95748360Y-79600439D01*
X95770564Y-79375000D01*
X95748360Y-79149561D01*
X95682602Y-78932785D01*
X95575816Y-78733003D01*
X95432107Y-78557893D01*
X95367657Y-78505000D01*
X101482343Y-78505000D01*
X101417893Y-78557893D01*
X101417893Y-78557893D01*
G37*
X101417893Y-78557893D02*
X101274184Y-78733003D01*
X101167398Y-78932785D01*
X101101640Y-79149561D01*
X101079436Y-79375000D01*
X101101640Y-79600439D01*
X101167398Y-79817215D01*
X101274184Y-80016997D01*
X101417893Y-80192107D01*
X101482343Y-80245000D01*
X96050686Y-80245000D01*
X95661806Y-79856121D01*
X95682602Y-79817215D01*
X95748360Y-79600439D01*
X95770564Y-79375000D01*
X95748360Y-79149561D01*
X95682602Y-78932785D01*
X95575816Y-78733003D01*
X95432107Y-78557893D01*
X95367657Y-78505000D01*
X101482343Y-78505000D01*
X101417893Y-78557893D01*
G36*
X96604259Y-75198943D02*
X96616789Y-75214211D01*
X96677697Y-75264197D01*
X96747186Y-75301340D01*
X96822586Y-75324212D01*
X96881353Y-75330000D01*
X96881363Y-75330000D01*
X96900999Y-75331934D01*
X96920635Y-75330000D01*
X97341472Y-75330000D01*
X97407522Y-75396050D01*
X97505793Y-75461713D01*
X97614986Y-75506942D01*
X97730905Y-75530000D01*
X97849095Y-75530000D01*
X97965014Y-75506942D01*
X98074207Y-75461713D01*
X98172478Y-75396050D01*
X98256050Y-75312478D01*
X98321713Y-75214207D01*
X98366942Y-75105014D01*
X98368934Y-75095002D01*
X104375001Y-75095002D01*
X104375001Y-75754592D01*
X104332785Y-75767398D01*
X104133003Y-75874184D01*
X103957893Y-76017893D01*
X103814184Y-76193003D01*
X103707398Y-76392785D01*
X103641640Y-76609561D01*
X103619436Y-76835000D01*
X103641640Y-77060439D01*
X103707398Y-77277215D01*
X103814184Y-77476997D01*
X103957893Y-77652107D01*
X104022343Y-77705000D01*
X102991345Y-77705000D01*
X103128263Y-77568082D01*
X103254116Y-77379729D01*
X103340806Y-77170443D01*
X103385000Y-76948265D01*
X103385000Y-76721735D01*
X103340806Y-76499557D01*
X103254116Y-76290271D01*
X103128263Y-76101918D01*
X102968082Y-75941737D01*
X102779729Y-75815884D01*
X102570443Y-75729194D01*
X102348265Y-75685000D01*
X102121735Y-75685000D01*
X101899557Y-75729194D01*
X101690271Y-75815884D01*
X101501918Y-75941737D01*
X101341737Y-76101918D01*
X101215884Y-76290271D01*
X101129194Y-76499557D01*
X101085000Y-76721735D01*
X101085000Y-76948265D01*
X101129194Y-77170443D01*
X101215884Y-77379729D01*
X101341737Y-77568082D01*
X101478655Y-77705000D01*
X95367657Y-77705000D01*
X95432107Y-77652107D01*
X95575816Y-77476997D01*
X95682602Y-77277215D01*
X95748360Y-77060439D01*
X95770564Y-76835000D01*
X95748360Y-76609561D01*
X95682602Y-76392785D01*
X95575816Y-76193003D01*
X95432107Y-76017893D01*
X95256997Y-75874184D01*
X95057215Y-75767398D01*
X95015000Y-75754592D01*
X95015000Y-75730685D01*
X95546735Y-75198950D01*
X95546735Y-75198949D01*
X95650682Y-75095002D01*
X96500317Y-75095002D01*
X96604259Y-75198943D01*
X96604259Y-75198943D01*
G37*
X96604259Y-75198943D02*
X96616789Y-75214211D01*
X96677697Y-75264197D01*
X96747186Y-75301340D01*
X96822586Y-75324212D01*
X96881353Y-75330000D01*
X96881363Y-75330000D01*
X96900999Y-75331934D01*
X96920635Y-75330000D01*
X97341472Y-75330000D01*
X97407522Y-75396050D01*
X97505793Y-75461713D01*
X97614986Y-75506942D01*
X97730905Y-75530000D01*
X97849095Y-75530000D01*
X97965014Y-75506942D01*
X98074207Y-75461713D01*
X98172478Y-75396050D01*
X98256050Y-75312478D01*
X98321713Y-75214207D01*
X98366942Y-75105014D01*
X98368934Y-75095002D01*
X104375001Y-75095002D01*
X104375001Y-75754592D01*
X104332785Y-75767398D01*
X104133003Y-75874184D01*
X103957893Y-76017893D01*
X103814184Y-76193003D01*
X103707398Y-76392785D01*
X103641640Y-76609561D01*
X103619436Y-76835000D01*
X103641640Y-77060439D01*
X103707398Y-77277215D01*
X103814184Y-77476997D01*
X103957893Y-77652107D01*
X104022343Y-77705000D01*
X102991345Y-77705000D01*
X103128263Y-77568082D01*
X103254116Y-77379729D01*
X103340806Y-77170443D01*
X103385000Y-76948265D01*
X103385000Y-76721735D01*
X103340806Y-76499557D01*
X103254116Y-76290271D01*
X103128263Y-76101918D01*
X102968082Y-75941737D01*
X102779729Y-75815884D01*
X102570443Y-75729194D01*
X102348265Y-75685000D01*
X102121735Y-75685000D01*
X101899557Y-75729194D01*
X101690271Y-75815884D01*
X101501918Y-75941737D01*
X101341737Y-76101918D01*
X101215884Y-76290271D01*
X101129194Y-76499557D01*
X101085000Y-76721735D01*
X101085000Y-76948265D01*
X101129194Y-77170443D01*
X101215884Y-77379729D01*
X101341737Y-77568082D01*
X101478655Y-77705000D01*
X95367657Y-77705000D01*
X95432107Y-77652107D01*
X95575816Y-77476997D01*
X95682602Y-77277215D01*
X95748360Y-77060439D01*
X95770564Y-76835000D01*
X95748360Y-76609561D01*
X95682602Y-76392785D01*
X95575816Y-76193003D01*
X95432107Y-76017893D01*
X95256997Y-75874184D01*
X95057215Y-75767398D01*
X95015000Y-75754592D01*
X95015000Y-75730685D01*
X95546735Y-75198950D01*
X95546735Y-75198949D01*
X95650682Y-75095002D01*
X96500317Y-75095002D01*
X96604259Y-75198943D01*
G36*
X106129259Y-75198943D02*
X106141789Y-75214211D01*
X106202697Y-75264197D01*
X106272186Y-75301340D01*
X106347586Y-75324212D01*
X106406353Y-75330000D01*
X106406363Y-75330000D01*
X106425999Y-75331934D01*
X106445635Y-75330000D01*
X106933356Y-75330000D01*
X106953002Y-75331935D01*
X106972648Y-75330000D01*
X106972649Y-75330000D01*
X107031416Y-75324212D01*
X107106816Y-75301340D01*
X107176305Y-75264197D01*
X107237213Y-75214211D01*
X107249740Y-75198947D01*
X107353684Y-75095002D01*
X114535001Y-75095002D01*
X114535001Y-75754592D01*
X114492785Y-75767398D01*
X114293003Y-75874184D01*
X114117893Y-76017893D01*
X113974184Y-76193003D01*
X113867398Y-76392785D01*
X113801640Y-76609561D01*
X113779436Y-76835000D01*
X113801640Y-77060439D01*
X113867398Y-77277215D01*
X113974184Y-77476997D01*
X114117893Y-77652107D01*
X114182343Y-77705000D01*
X113151345Y-77705000D01*
X113288263Y-77568082D01*
X113414116Y-77379729D01*
X113500806Y-77170443D01*
X113545000Y-76948265D01*
X113545000Y-76721735D01*
X113500806Y-76499557D01*
X113414116Y-76290271D01*
X113288263Y-76101918D01*
X113128082Y-75941737D01*
X112939729Y-75815884D01*
X112730443Y-75729194D01*
X112508265Y-75685000D01*
X112281735Y-75685000D01*
X112059557Y-75729194D01*
X111850271Y-75815884D01*
X111661918Y-75941737D01*
X111501737Y-76101918D01*
X111375884Y-76290271D01*
X111289194Y-76499557D01*
X111245000Y-76721735D01*
X111245000Y-76948265D01*
X111289194Y-77170443D01*
X111375884Y-77379729D01*
X111501737Y-77568082D01*
X111638655Y-77705000D01*
X105527657Y-77705000D01*
X105592107Y-77652107D01*
X105735816Y-77476997D01*
X105842602Y-77277215D01*
X105908360Y-77060439D01*
X105930564Y-76835000D01*
X105908360Y-76609561D01*
X105842602Y-76392785D01*
X105735816Y-76193003D01*
X105592107Y-76017893D01*
X105416997Y-75874184D01*
X105217215Y-75767398D01*
X105175000Y-75754592D01*
X105175000Y-75095002D01*
X106025317Y-75095002D01*
X106129259Y-75198943D01*
X106129259Y-75198943D01*
G37*
X106129259Y-75198943D02*
X106141789Y-75214211D01*
X106202697Y-75264197D01*
X106272186Y-75301340D01*
X106347586Y-75324212D01*
X106406353Y-75330000D01*
X106406363Y-75330000D01*
X106425999Y-75331934D01*
X106445635Y-75330000D01*
X106933356Y-75330000D01*
X106953002Y-75331935D01*
X106972648Y-75330000D01*
X106972649Y-75330000D01*
X107031416Y-75324212D01*
X107106816Y-75301340D01*
X107176305Y-75264197D01*
X107237213Y-75214211D01*
X107249740Y-75198947D01*
X107353684Y-75095002D01*
X114535001Y-75095002D01*
X114535001Y-75754592D01*
X114492785Y-75767398D01*
X114293003Y-75874184D01*
X114117893Y-76017893D01*
X113974184Y-76193003D01*
X113867398Y-76392785D01*
X113801640Y-76609561D01*
X113779436Y-76835000D01*
X113801640Y-77060439D01*
X113867398Y-77277215D01*
X113974184Y-77476997D01*
X114117893Y-77652107D01*
X114182343Y-77705000D01*
X113151345Y-77705000D01*
X113288263Y-77568082D01*
X113414116Y-77379729D01*
X113500806Y-77170443D01*
X113545000Y-76948265D01*
X113545000Y-76721735D01*
X113500806Y-76499557D01*
X113414116Y-76290271D01*
X113288263Y-76101918D01*
X113128082Y-75941737D01*
X112939729Y-75815884D01*
X112730443Y-75729194D01*
X112508265Y-75685000D01*
X112281735Y-75685000D01*
X112059557Y-75729194D01*
X111850271Y-75815884D01*
X111661918Y-75941737D01*
X111501737Y-76101918D01*
X111375884Y-76290271D01*
X111289194Y-76499557D01*
X111245000Y-76721735D01*
X111245000Y-76948265D01*
X111289194Y-77170443D01*
X111375884Y-77379729D01*
X111501737Y-77568082D01*
X111638655Y-77705000D01*
X105527657Y-77705000D01*
X105592107Y-77652107D01*
X105735816Y-77476997D01*
X105842602Y-77277215D01*
X105908360Y-77060439D01*
X105930564Y-76835000D01*
X105908360Y-76609561D01*
X105842602Y-76392785D01*
X105735816Y-76193003D01*
X105592107Y-76017893D01*
X105416997Y-75874184D01*
X105217215Y-75767398D01*
X105175000Y-75754592D01*
X105175000Y-75095002D01*
X106025317Y-75095002D01*
X106129259Y-75198943D01*
G36*
X126449259Y-75198943D02*
X126461789Y-75214211D01*
X126522697Y-75264197D01*
X126592186Y-75301340D01*
X126667586Y-75324212D01*
X126726353Y-75330000D01*
X126726363Y-75330000D01*
X126745999Y-75331934D01*
X126765635Y-75330000D01*
X127253356Y-75330000D01*
X127273002Y-75331935D01*
X127292648Y-75330000D01*
X127292649Y-75330000D01*
X127351416Y-75324212D01*
X127426816Y-75301340D01*
X127496305Y-75264197D01*
X127557213Y-75214211D01*
X127569740Y-75198947D01*
X127673684Y-75095002D01*
X134855001Y-75095002D01*
X134855001Y-75754592D01*
X134812785Y-75767398D01*
X134613003Y-75874184D01*
X134437893Y-76017893D01*
X134294184Y-76193003D01*
X134187398Y-76392785D01*
X134121640Y-76609561D01*
X134099436Y-76835000D01*
X134121640Y-77060439D01*
X134187398Y-77277215D01*
X134294184Y-77476997D01*
X134437893Y-77652107D01*
X134502343Y-77705000D01*
X133471345Y-77705000D01*
X133608263Y-77568082D01*
X133734116Y-77379729D01*
X133820806Y-77170443D01*
X133865000Y-76948265D01*
X133865000Y-76721735D01*
X133820806Y-76499557D01*
X133734116Y-76290271D01*
X133608263Y-76101918D01*
X133448082Y-75941737D01*
X133259729Y-75815884D01*
X133050443Y-75729194D01*
X132828265Y-75685000D01*
X132601735Y-75685000D01*
X132379557Y-75729194D01*
X132170271Y-75815884D01*
X131981918Y-75941737D01*
X131821737Y-76101918D01*
X131695884Y-76290271D01*
X131609194Y-76499557D01*
X131565000Y-76721735D01*
X131565000Y-76948265D01*
X131609194Y-77170443D01*
X131695884Y-77379729D01*
X131821737Y-77568082D01*
X131958655Y-77705000D01*
X125847657Y-77705000D01*
X125912107Y-77652107D01*
X126055816Y-77476997D01*
X126162602Y-77277215D01*
X126228360Y-77060439D01*
X126250564Y-76835000D01*
X126228360Y-76609561D01*
X126162602Y-76392785D01*
X126055816Y-76193003D01*
X125912107Y-76017893D01*
X125736997Y-75874184D01*
X125537215Y-75767398D01*
X125495000Y-75754592D01*
X125495000Y-75095002D01*
X126345317Y-75095002D01*
X126449259Y-75198943D01*
X126449259Y-75198943D01*
G37*
X126449259Y-75198943D02*
X126461789Y-75214211D01*
X126522697Y-75264197D01*
X126592186Y-75301340D01*
X126667586Y-75324212D01*
X126726353Y-75330000D01*
X126726363Y-75330000D01*
X126745999Y-75331934D01*
X126765635Y-75330000D01*
X127253356Y-75330000D01*
X127273002Y-75331935D01*
X127292648Y-75330000D01*
X127292649Y-75330000D01*
X127351416Y-75324212D01*
X127426816Y-75301340D01*
X127496305Y-75264197D01*
X127557213Y-75214211D01*
X127569740Y-75198947D01*
X127673684Y-75095002D01*
X134855001Y-75095002D01*
X134855001Y-75754592D01*
X134812785Y-75767398D01*
X134613003Y-75874184D01*
X134437893Y-76017893D01*
X134294184Y-76193003D01*
X134187398Y-76392785D01*
X134121640Y-76609561D01*
X134099436Y-76835000D01*
X134121640Y-77060439D01*
X134187398Y-77277215D01*
X134294184Y-77476997D01*
X134437893Y-77652107D01*
X134502343Y-77705000D01*
X133471345Y-77705000D01*
X133608263Y-77568082D01*
X133734116Y-77379729D01*
X133820806Y-77170443D01*
X133865000Y-76948265D01*
X133865000Y-76721735D01*
X133820806Y-76499557D01*
X133734116Y-76290271D01*
X133608263Y-76101918D01*
X133448082Y-75941737D01*
X133259729Y-75815884D01*
X133050443Y-75729194D01*
X132828265Y-75685000D01*
X132601735Y-75685000D01*
X132379557Y-75729194D01*
X132170271Y-75815884D01*
X131981918Y-75941737D01*
X131821737Y-76101918D01*
X131695884Y-76290271D01*
X131609194Y-76499557D01*
X131565000Y-76721735D01*
X131565000Y-76948265D01*
X131609194Y-77170443D01*
X131695884Y-77379729D01*
X131821737Y-77568082D01*
X131958655Y-77705000D01*
X125847657Y-77705000D01*
X125912107Y-77652107D01*
X126055816Y-77476997D01*
X126162602Y-77277215D01*
X126228360Y-77060439D01*
X126250564Y-76835000D01*
X126228360Y-76609561D01*
X126162602Y-76392785D01*
X126055816Y-76193003D01*
X125912107Y-76017893D01*
X125736997Y-75874184D01*
X125537215Y-75767398D01*
X125495000Y-75754592D01*
X125495000Y-75095002D01*
X126345317Y-75095002D01*
X126449259Y-75198943D01*
G36*
X116289259Y-75198943D02*
X116301789Y-75214211D01*
X116362697Y-75264197D01*
X116432186Y-75301340D01*
X116507586Y-75324212D01*
X116566353Y-75330000D01*
X116566363Y-75330000D01*
X116585999Y-75331934D01*
X116605635Y-75330000D01*
X117093356Y-75330000D01*
X117113002Y-75331935D01*
X117132648Y-75330000D01*
X117132649Y-75330000D01*
X117191416Y-75324212D01*
X117266816Y-75301340D01*
X117336305Y-75264197D01*
X117397213Y-75214211D01*
X117409740Y-75198947D01*
X117513684Y-75095002D01*
X124695001Y-75095002D01*
X124695001Y-75754592D01*
X124652785Y-75767398D01*
X124453003Y-75874184D01*
X124277893Y-76017893D01*
X124134184Y-76193003D01*
X124027398Y-76392785D01*
X123961640Y-76609561D01*
X123939436Y-76835000D01*
X123961640Y-77060439D01*
X124027398Y-77277215D01*
X124134184Y-77476997D01*
X124277893Y-77652107D01*
X124342343Y-77705000D01*
X123311345Y-77705000D01*
X123448263Y-77568082D01*
X123574116Y-77379729D01*
X123660806Y-77170443D01*
X123705000Y-76948265D01*
X123705000Y-76721735D01*
X123660806Y-76499557D01*
X123574116Y-76290271D01*
X123448263Y-76101918D01*
X123288082Y-75941737D01*
X123099729Y-75815884D01*
X122890443Y-75729194D01*
X122668265Y-75685000D01*
X122441735Y-75685000D01*
X122219557Y-75729194D01*
X122010271Y-75815884D01*
X121821918Y-75941737D01*
X121661737Y-76101918D01*
X121535884Y-76290271D01*
X121449194Y-76499557D01*
X121405000Y-76721735D01*
X121405000Y-76948265D01*
X121449194Y-77170443D01*
X121535884Y-77379729D01*
X121661737Y-77568082D01*
X121798655Y-77705000D01*
X115687657Y-77705000D01*
X115752107Y-77652107D01*
X115895816Y-77476997D01*
X116002602Y-77277215D01*
X116068360Y-77060439D01*
X116090564Y-76835000D01*
X116068360Y-76609561D01*
X116002602Y-76392785D01*
X115895816Y-76193003D01*
X115752107Y-76017893D01*
X115576997Y-75874184D01*
X115377215Y-75767398D01*
X115335000Y-75754592D01*
X115335000Y-75095002D01*
X116185317Y-75095002D01*
X116289259Y-75198943D01*
X116289259Y-75198943D01*
G37*
X116289259Y-75198943D02*
X116301789Y-75214211D01*
X116362697Y-75264197D01*
X116432186Y-75301340D01*
X116507586Y-75324212D01*
X116566353Y-75330000D01*
X116566363Y-75330000D01*
X116585999Y-75331934D01*
X116605635Y-75330000D01*
X117093356Y-75330000D01*
X117113002Y-75331935D01*
X117132648Y-75330000D01*
X117132649Y-75330000D01*
X117191416Y-75324212D01*
X117266816Y-75301340D01*
X117336305Y-75264197D01*
X117397213Y-75214211D01*
X117409740Y-75198947D01*
X117513684Y-75095002D01*
X124695001Y-75095002D01*
X124695001Y-75754592D01*
X124652785Y-75767398D01*
X124453003Y-75874184D01*
X124277893Y-76017893D01*
X124134184Y-76193003D01*
X124027398Y-76392785D01*
X123961640Y-76609561D01*
X123939436Y-76835000D01*
X123961640Y-77060439D01*
X124027398Y-77277215D01*
X124134184Y-77476997D01*
X124277893Y-77652107D01*
X124342343Y-77705000D01*
X123311345Y-77705000D01*
X123448263Y-77568082D01*
X123574116Y-77379729D01*
X123660806Y-77170443D01*
X123705000Y-76948265D01*
X123705000Y-76721735D01*
X123660806Y-76499557D01*
X123574116Y-76290271D01*
X123448263Y-76101918D01*
X123288082Y-75941737D01*
X123099729Y-75815884D01*
X122890443Y-75729194D01*
X122668265Y-75685000D01*
X122441735Y-75685000D01*
X122219557Y-75729194D01*
X122010271Y-75815884D01*
X121821918Y-75941737D01*
X121661737Y-76101918D01*
X121535884Y-76290271D01*
X121449194Y-76499557D01*
X121405000Y-76721735D01*
X121405000Y-76948265D01*
X121449194Y-77170443D01*
X121535884Y-77379729D01*
X121661737Y-77568082D01*
X121798655Y-77705000D01*
X115687657Y-77705000D01*
X115752107Y-77652107D01*
X115895816Y-77476997D01*
X116002602Y-77277215D01*
X116068360Y-77060439D01*
X116090564Y-76835000D01*
X116068360Y-76609561D01*
X116002602Y-76392785D01*
X115895816Y-76193003D01*
X115752107Y-76017893D01*
X115576997Y-75874184D01*
X115377215Y-75767398D01*
X115335000Y-75754592D01*
X115335000Y-75095002D01*
X116185317Y-75095002D01*
X116289259Y-75198943D01*
G04 #@! TD*
M02*
