M48
;DRILL file {KiCad (5.0.1)-4} date 23.11.2018 22:54:09
;FORMAT={-:-/ absolute / inch / decimal}
FMAT,2
INCH,TZ
T1C0.0157
T2C0.0315
T3C0.0394
T4C0.1260
%
G90
G05
M72
T1
X2.343Y-4.4
X2.5Y-3.925
X2.5Y-4.25
X2.5Y-4.45
X2.5Y-4.65
X2.5Y-4.85
X2.5Y-5.05
X2.5Y-5.25
X2.5Y-5.45
X2.5Y-5.65
X2.675Y-3.
X2.7Y-3.95
X2.75Y-5.775
X2.8Y-4.925
X2.8Y-5.075
X2.815Y-3.5
X2.815Y-3.7
X2.815Y-3.8
X2.815Y-3.9
X2.843Y-4.1
X2.8776Y-4.2
X2.885Y-3.6
X2.95Y-3.925
X3.05Y-5.775
X3.25Y-2.85
X3.3Y-3.45
X3.3Y-3.55
X3.3Y-3.65
X3.3Y-3.8
X3.3Y-3.95
X3.3Y-4.1
X3.3Y-4.25
X3.3Y-4.45
X3.3Y-4.65
X3.3Y-5.05
X3.3Y-5.25
X3.3Y-5.45
X3.3Y-5.65
X3.4825Y-4.385
X3.537Y-3.735
X3.565Y-3.7
X3.57Y-3.8
X3.5925Y-3.5505
X3.6Y-4.25
X3.6Y-4.45
X3.6Y-4.65
X3.6Y-4.85
X3.6Y-5.05
X3.6Y-5.25
X3.6Y-5.45
X3.6Y-5.65
X3.621Y-3.2545
X3.6474Y-3.1076
X3.648Y-2.95
X3.7Y-2.85
X3.72Y-3.18
X3.75Y-3.45
X3.755Y-3.54
X3.788Y-3.329
X3.788Y-3.75
X3.8Y-4.3
X3.8Y-4.4
X3.8Y-4.5
X3.8Y-4.6
X3.8Y-4.7
X3.805Y-3.85
X3.84Y-2.985
X3.85Y-2.85
X3.85Y-4.75
X3.85Y-5.775
X3.869Y-3.073
X3.885Y-4.65
X3.9Y-4.925
X3.9Y-5.075
X3.913Y-4.55
X3.941Y-4.45
X3.968Y-4.266
X3.97Y-4.352
X4.0235Y-4.1875
X4.075Y-4.35
X4.082Y-4.153
X4.082Y-4.2225
X4.105Y-2.9155
X4.1495Y-2.887
X4.15Y-5.775
X4.188Y-3.85
X4.1915Y-2.8145
X4.2Y-4.05
X4.4Y-4.25
X4.4Y-4.45
X4.4Y-4.65
X4.4Y-5.05
X4.4Y-5.25
X4.4Y-5.45
X4.4Y-5.65
X4.43Y-3.28
X4.432Y-3.8
X4.434Y-3.466
X4.434Y-3.7
X4.462Y-4.
X4.489Y-4.1
X4.502Y-3.304
X4.524Y-4.8
X4.5325Y-3.2675
X4.552Y-2.849
X4.559Y-4.7
X4.587Y-4.6
X4.615Y-4.5
X4.642Y-4.4
X4.6425Y-4.3
X4.7Y-4.2
X4.7Y-4.45
X4.7Y-4.65
X4.7Y-5.05
X4.7Y-5.25
X4.7Y-5.45
X4.7Y-5.65
X4.8Y-3.05
X4.85Y-3.45
X4.95Y-5.775
X5.Y-4.9
X5.Y-5.075
X5.225Y-3.9
X5.25Y-5.775
X5.3Y-3.4
X5.3Y-3.5
X5.3Y-3.6
X5.3Y-3.7
X5.3Y-3.8
X5.3Y-4.
X5.3Y-4.2
X5.3Y-4.3
X5.3Y-4.4
X5.3Y-4.5
X5.3Y-4.6
X5.3Y-4.7
X5.5Y-5.05
X5.5Y-5.25
X5.5Y-5.45
X5.5Y-5.65
X5.535Y-3.96
T2
X3.7Y-3.4
X3.7Y-3.5
X3.7Y-3.6
X3.7Y-3.7
X3.7Y-3.8
X3.7Y-3.9
X3.7Y-4.
X3.7Y-4.1
X3.7Y-4.2
X3.7Y-4.3
X3.7Y-4.4
X3.7Y-4.5
X3.7Y-4.6
X3.7Y-4.7
X3.7Y-4.8
X3.7Y-4.9
X3.7Y-5.
X3.7Y-5.1
X3.7Y-5.2
X3.7Y-5.3
X4.3Y-3.4
X4.3Y-3.5
X4.3Y-3.6
X4.3Y-3.7
X4.3Y-3.8
X4.3Y-3.9
X4.3Y-4.
X4.3Y-4.1
X4.3Y-4.2
X4.3Y-4.3
X4.3Y-4.4
X4.3Y-4.5
X4.3Y-4.6
X4.3Y-4.7
X4.3Y-4.8
X4.3Y-4.9
X4.3Y-5.
X4.3Y-5.1
X4.3Y-5.2
X4.3Y-5.3
X4.8Y-3.4
X4.8Y-3.5
X4.8Y-3.6
X4.8Y-3.7
X4.8Y-3.8
X4.8Y-3.9
X4.8Y-4.
X4.8Y-4.1
X4.8Y-4.2
X4.8Y-4.3
X4.8Y-4.4
X4.8Y-4.5
X4.8Y-4.6
X4.8Y-4.7
X4.8Y-4.8
X4.8Y-4.9
X4.8Y-5.
X4.8Y-5.1
X4.8Y-5.2
X4.8Y-5.3
X5.4Y-3.4
X5.4Y-3.5
X5.4Y-3.6
X5.4Y-3.7
X5.4Y-3.8
X5.4Y-3.9
X5.4Y-4.
X5.4Y-4.1
X5.4Y-4.2
X5.4Y-4.3
X5.4Y-4.4
X5.4Y-4.5
X5.4Y-4.6
X5.4Y-4.7
X5.4Y-4.8
X5.4Y-4.9
X5.4Y-5.
X5.4Y-5.1
X5.4Y-5.2
X5.4Y-5.3
X2.6Y-3.4
X2.6Y-3.5
X2.6Y-3.6
X2.6Y-3.7
X2.6Y-3.8
X2.6Y-3.9
X2.6Y-4.
X2.6Y-4.1
X2.6Y-4.2
X2.6Y-4.3
X2.6Y-4.4
X2.6Y-4.5
X2.6Y-4.6
X2.6Y-4.7
X2.6Y-4.8
X2.6Y-4.9
X2.6Y-5.
X2.6Y-5.1
X2.6Y-5.2
X2.6Y-5.3
X3.2Y-3.4
X3.2Y-3.5
X3.2Y-3.6
X3.2Y-3.7
X3.2Y-3.8
X3.2Y-3.9
X3.2Y-4.
X3.2Y-4.1
X3.2Y-4.2
X3.2Y-4.3
X3.2Y-4.4
X3.2Y-4.5
X3.2Y-4.6
X3.2Y-4.7
X3.2Y-4.8
X3.2Y-4.9
X3.2Y-5.
X3.2Y-5.1
X3.2Y-5.2
X3.2Y-5.3
T3
X2.55Y-2.6
X2.55Y-2.7
X2.65Y-2.6
X2.65Y-2.7
X2.75Y-2.6
X2.75Y-2.7
X2.85Y-2.6
X2.85Y-2.7
X2.95Y-2.6
X2.95Y-2.7
X3.05Y-2.6
X3.05Y-2.7
X3.15Y-2.6
X3.15Y-2.7
X3.25Y-2.6
X3.25Y-2.7
X3.35Y-2.6
X3.35Y-2.7
X3.45Y-2.6
X3.45Y-2.7
X3.55Y-2.6
X3.55Y-2.7
X3.65Y-2.6
X3.65Y-2.7
X3.75Y-2.6
X3.75Y-2.7
X3.85Y-2.6
X3.85Y-2.7
X3.95Y-2.6
X3.95Y-2.7
X4.05Y-2.6
X4.05Y-2.7
X4.15Y-2.6
X4.15Y-2.7
X4.25Y-2.6
X4.25Y-2.7
X4.35Y-2.6
X4.35Y-2.7
X4.45Y-2.6
X4.45Y-2.7
X4.55Y-2.6
X4.55Y-2.7
X4.65Y-2.6
X4.65Y-2.7
X4.75Y-2.6
X4.75Y-2.7
X4.85Y-2.6
X4.85Y-2.7
X4.95Y-2.6
X4.95Y-2.7
X5.05Y-2.6
X5.05Y-2.7
X5.15Y-2.6
X5.15Y-2.7
X5.25Y-2.6
X5.25Y-2.7
X5.35Y-2.6
X5.35Y-2.7
X5.45Y-2.6
X5.45Y-2.7
X3.8Y-5.6
X3.8Y-5.7
X3.9Y-5.6
X3.9Y-5.7
X4.Y-5.6
X4.Y-5.7
X4.1Y-5.6
X4.1Y-5.7
X4.2Y-5.6
X4.2Y-5.7
X2.7Y-5.6
X2.7Y-5.7
X2.8Y-5.6
X2.8Y-5.7
X2.9Y-5.6
X2.9Y-5.7
X3.Y-5.6
X3.Y-5.7
X3.1Y-5.6
X3.1Y-5.7
X3.2Y-2.2
X3.2Y-2.3
X3.3Y-2.2
X3.3Y-2.3
X3.4Y-2.2
X3.4Y-2.3
X3.5Y-2.2
X3.5Y-2.3
X3.6Y-2.2
X3.6Y-2.3
X3.7Y-2.2
X3.7Y-2.3
X3.8Y-2.2
X3.8Y-2.3
X3.9Y-2.2
X3.9Y-2.3
X4.Y-2.2
X4.Y-2.3
X4.1Y-2.2
X4.1Y-2.3
X4.2Y-2.2
X4.2Y-2.3
X4.3Y-2.2
X4.3Y-2.3
X4.4Y-2.2
X4.4Y-2.3
X4.5Y-2.2
X4.5Y-2.3
X4.6Y-2.2
X4.6Y-2.3
X4.7Y-2.2
X4.7Y-2.3
X4.8Y-2.2
X4.8Y-2.3
X5.65Y-3.5
X5.65Y-3.6
X5.65Y-3.7
X5.65Y-3.8
X5.65Y-3.9
X5.65Y-4.
X5.65Y-4.1
X5.65Y-4.2
X5.65Y-4.3
X5.65Y-4.4
X5.65Y-4.5
X5.65Y-4.6
X5.65Y-4.7
X5.65Y-4.8
X5.65Y-4.9
X5.65Y-5.
X5.65Y-5.1
X5.75Y-3.5
X5.75Y-3.6
X5.75Y-3.7
X5.75Y-3.8
X5.75Y-3.9
X5.75Y-4.
X5.75Y-4.1
X5.75Y-4.2
X5.75Y-4.3
X5.75Y-4.4
X5.75Y-4.5
X5.75Y-4.6
X5.75Y-4.7
X5.75Y-4.8
X5.75Y-4.9
X5.75Y-5.
X5.75Y-5.1
X4.9Y-5.6
X4.9Y-5.7
X5.Y-5.6
X5.Y-5.7
X5.1Y-5.6
X5.1Y-5.7
X5.2Y-5.6
X5.2Y-5.7
X5.3Y-5.6
X5.3Y-5.7
X4.55Y-3.
X4.55Y-3.1
X4.65Y-3.
X4.65Y-3.1
X4.75Y-3.
X4.75Y-3.1
X4.85Y-3.
X4.85Y-3.1
X4.95Y-3.
X4.95Y-3.1
X5.05Y-3.
X5.05Y-3.1
X5.15Y-3.
X5.15Y-3.1
X5.25Y-3.
X5.25Y-3.1
X5.35Y-3.
X5.35Y-3.1
X5.45Y-3.
X5.45Y-3.1
T4
X5.7402Y-5.7402
X2.1969Y-2.1969
X5.7402Y-2.1969
X2.1969Y-5.7402
T0
M30
