G04 #@! TF.GenerationSoftware,KiCad,Pcbnew,(5.0.1)-4*
G04 #@! TF.CreationDate,2018-11-23T22:56:41+01:00*
G04 #@! TF.ProjectId,Flips7,466C697073372E6B696361645F706362,V1.0*
G04 #@! TF.SameCoordinates,Original*
G04 #@! TF.FileFunction,Legend,Bot*
G04 #@! TF.FilePolarity,Positive*
%FSLAX46Y46*%
G04 Gerber Fmt 4.6, Leading zero omitted, Abs format (unit mm)*
G04 Created by KiCad (PCBNEW (5.0.1)-4) date 23.11.2018 22:56:41*
%MOMM*%
%LPD*%
G01*
G04 APERTURE LIST*
%ADD10C,0.400000*%
%ADD11C,0.300000*%
%ADD12C,0.250000*%
%ADD13C,0.010000*%
G04 APERTURE END LIST*
D10*
X109728000Y-116078000D02*
X107696000Y-118364000D01*
X107950000Y-116078000D02*
X107950000Y-104140000D01*
X120650000Y-116078000D02*
X107950000Y-116078000D01*
X120650000Y-104140000D02*
X120650000Y-116078000D01*
X107950000Y-104140000D02*
X120650000Y-104140000D01*
D11*
X109450000Y-111704571D02*
X109450000Y-112418857D01*
X109878571Y-111561714D02*
X108378571Y-112061714D01*
X109878571Y-112561714D01*
X108521428Y-112990285D02*
X108450000Y-113061714D01*
X108378571Y-113204571D01*
X108378571Y-113561714D01*
X108450000Y-113704571D01*
X108521428Y-113776000D01*
X108664285Y-113847428D01*
X108807142Y-113847428D01*
X109021428Y-113776000D01*
X109878571Y-112918857D01*
X109878571Y-113847428D01*
X112000000Y-111704571D02*
X112000000Y-112418857D01*
X112428571Y-111561714D02*
X110928571Y-112061714D01*
X112428571Y-112561714D01*
X112428571Y-113847428D02*
X112428571Y-112990285D01*
X112428571Y-113418857D02*
X110928571Y-113418857D01*
X111142857Y-113276000D01*
X111285714Y-113133142D01*
X111357142Y-112990285D01*
X113550000Y-111633142D02*
X113478571Y-111490285D01*
X113478571Y-111276000D01*
X113550000Y-111061714D01*
X113692857Y-110918857D01*
X113835714Y-110847428D01*
X114121428Y-110776000D01*
X114335714Y-110776000D01*
X114621428Y-110847428D01*
X114764285Y-110918857D01*
X114907142Y-111061714D01*
X114978571Y-111276000D01*
X114978571Y-111418857D01*
X114907142Y-111633142D01*
X114835714Y-111704571D01*
X114335714Y-111704571D01*
X114335714Y-111418857D01*
X114978571Y-112347428D02*
X113478571Y-112347428D01*
X114978571Y-113204571D01*
X113478571Y-113204571D01*
X114978571Y-113918857D02*
X113478571Y-113918857D01*
X113478571Y-114276000D01*
X113550000Y-114490285D01*
X113692857Y-114633142D01*
X113835714Y-114704571D01*
X114121428Y-114776000D01*
X114335714Y-114776000D01*
X114621428Y-114704571D01*
X114764285Y-114633142D01*
X114907142Y-114490285D01*
X114978571Y-114276000D01*
X114978571Y-113918857D01*
X117528571Y-110526000D02*
X116028571Y-110526000D01*
X116028571Y-110883142D01*
X116100000Y-111097428D01*
X116242857Y-111240285D01*
X116385714Y-111311714D01*
X116671428Y-111383142D01*
X116885714Y-111383142D01*
X117171428Y-111311714D01*
X117314285Y-111240285D01*
X117457142Y-111097428D01*
X117528571Y-110883142D01*
X117528571Y-110526000D01*
X117100000Y-111954571D02*
X117100000Y-112668857D01*
X117528571Y-111811714D02*
X116028571Y-112311714D01*
X117528571Y-112811714D01*
X116028571Y-113097428D02*
X116028571Y-113954571D01*
X117528571Y-113526000D02*
X116028571Y-113526000D01*
X117100000Y-114383142D02*
X117100000Y-115097428D01*
X117528571Y-114240285D02*
X116028571Y-114740285D01*
X117528571Y-115240285D01*
X119292857Y-112168857D02*
X119364285Y-112383142D01*
X119435714Y-112454571D01*
X119578571Y-112526000D01*
X119792857Y-112526000D01*
X119935714Y-112454571D01*
X120007142Y-112383142D01*
X120078571Y-112240285D01*
X120078571Y-111668857D01*
X118578571Y-111668857D01*
X118578571Y-112168857D01*
X118650000Y-112311714D01*
X118721428Y-112383142D01*
X118864285Y-112454571D01*
X119007142Y-112454571D01*
X119150000Y-112383142D01*
X119221428Y-112311714D01*
X119292857Y-112168857D01*
X119292857Y-111668857D01*
X118578571Y-113454571D02*
X118578571Y-113597428D01*
X118650000Y-113740285D01*
X118721428Y-113811714D01*
X118864285Y-113883142D01*
X119150000Y-113954571D01*
X119507142Y-113954571D01*
X119792857Y-113883142D01*
X119935714Y-113811714D01*
X120007142Y-113740285D01*
X120078571Y-113597428D01*
X120078571Y-113454571D01*
X120007142Y-113311714D01*
X119935714Y-113240285D01*
X119792857Y-113168857D01*
X119507142Y-113097428D01*
X119150000Y-113097428D01*
X118864285Y-113168857D01*
X118721428Y-113240285D01*
X118650000Y-113311714D01*
X118578571Y-113454571D01*
X109450000Y-105608571D02*
X109450000Y-106322857D01*
X109878571Y-105465714D02*
X108378571Y-105965714D01*
X109878571Y-106465714D01*
X108378571Y-107251428D02*
X108378571Y-107394285D01*
X108450000Y-107537142D01*
X108521428Y-107608571D01*
X108664285Y-107680000D01*
X108950000Y-107751428D01*
X109307142Y-107751428D01*
X109592857Y-107680000D01*
X109735714Y-107608571D01*
X109807142Y-107537142D01*
X109878571Y-107394285D01*
X109878571Y-107251428D01*
X109807142Y-107108571D01*
X109735714Y-107037142D01*
X109592857Y-106965714D01*
X109307142Y-106894285D01*
X108950000Y-106894285D01*
X108664285Y-106965714D01*
X108521428Y-107037142D01*
X108450000Y-107108571D01*
X108378571Y-107251428D01*
X110928571Y-104680000D02*
X112428571Y-105180000D01*
X110928571Y-105680000D01*
X112285714Y-107037142D02*
X112357142Y-106965714D01*
X112428571Y-106751428D01*
X112428571Y-106608571D01*
X112357142Y-106394285D01*
X112214285Y-106251428D01*
X112071428Y-106180000D01*
X111785714Y-106108571D01*
X111571428Y-106108571D01*
X111285714Y-106180000D01*
X111142857Y-106251428D01*
X111000000Y-106394285D01*
X110928571Y-106608571D01*
X110928571Y-106751428D01*
X111000000Y-106965714D01*
X111071428Y-107037142D01*
X112285714Y-108537142D02*
X112357142Y-108465714D01*
X112428571Y-108251428D01*
X112428571Y-108108571D01*
X112357142Y-107894285D01*
X112214285Y-107751428D01*
X112071428Y-107680000D01*
X111785714Y-107608571D01*
X111571428Y-107608571D01*
X111285714Y-107680000D01*
X111142857Y-107751428D01*
X111000000Y-107894285D01*
X110928571Y-108108571D01*
X110928571Y-108251428D01*
X111000000Y-108465714D01*
X111071428Y-108537142D01*
X113478571Y-105465714D02*
X114978571Y-105965714D01*
X113478571Y-106465714D01*
X114907142Y-106894285D02*
X114978571Y-107108571D01*
X114978571Y-107465714D01*
X114907142Y-107608571D01*
X114835714Y-107680000D01*
X114692857Y-107751428D01*
X114550000Y-107751428D01*
X114407142Y-107680000D01*
X114335714Y-107608571D01*
X114264285Y-107465714D01*
X114192857Y-107180000D01*
X114121428Y-107037142D01*
X114050000Y-106965714D01*
X113907142Y-106894285D01*
X113764285Y-106894285D01*
X113621428Y-106965714D01*
X113550000Y-107037142D01*
X113478571Y-107180000D01*
X113478571Y-107537142D01*
X113550000Y-107751428D01*
X116742857Y-105572857D02*
X116742857Y-106072857D01*
X117528571Y-106287142D02*
X117528571Y-105572857D01*
X116028571Y-105572857D01*
X116028571Y-106287142D01*
X117528571Y-106930000D02*
X116028571Y-106930000D01*
X117528571Y-107787142D01*
X116028571Y-107787142D01*
X119292857Y-106072857D02*
X119364285Y-106287142D01*
X119435714Y-106358571D01*
X119578571Y-106430000D01*
X119792857Y-106430000D01*
X119935714Y-106358571D01*
X120007142Y-106287142D01*
X120078571Y-106144285D01*
X120078571Y-105572857D01*
X118578571Y-105572857D01*
X118578571Y-106072857D01*
X118650000Y-106215714D01*
X118721428Y-106287142D01*
X118864285Y-106358571D01*
X119007142Y-106358571D01*
X119150000Y-106287142D01*
X119221428Y-106215714D01*
X119292857Y-106072857D01*
X119292857Y-105572857D01*
X120078571Y-107858571D02*
X120078571Y-107001428D01*
X120078571Y-107430000D02*
X118578571Y-107430000D01*
X118792857Y-107287142D01*
X118935714Y-107144285D01*
X119007142Y-107001428D01*
X37198714Y-62833571D02*
X37698714Y-62119285D01*
X38055857Y-62833571D02*
X38055857Y-61333571D01*
X37484428Y-61333571D01*
X37341571Y-61405000D01*
X37270142Y-61476428D01*
X37198714Y-61619285D01*
X37198714Y-61833571D01*
X37270142Y-61976428D01*
X37341571Y-62047857D01*
X37484428Y-62119285D01*
X38055857Y-62119285D01*
X36270142Y-62119285D02*
X36270142Y-62833571D01*
X36770142Y-61333571D02*
X36270142Y-62119285D01*
X35770142Y-61333571D01*
X34484428Y-62833571D02*
X35341571Y-62833571D01*
X34913000Y-62833571D02*
X34913000Y-61333571D01*
X35055857Y-61547857D01*
X35198714Y-61690714D01*
X35341571Y-61762142D01*
X33198714Y-61333571D02*
X33484428Y-61333571D01*
X33627285Y-61405000D01*
X33698714Y-61476428D01*
X33841571Y-61690714D01*
X33913000Y-61976428D01*
X33913000Y-62547857D01*
X33841571Y-62690714D01*
X33770142Y-62762142D01*
X33627285Y-62833571D01*
X33341571Y-62833571D01*
X33198714Y-62762142D01*
X33127285Y-62690714D01*
X33055857Y-62547857D01*
X33055857Y-62190714D01*
X33127285Y-62047857D01*
X33198714Y-61976428D01*
X33341571Y-61905000D01*
X33627285Y-61905000D01*
X33770142Y-61976428D01*
X33841571Y-62047857D01*
X33913000Y-62190714D01*
X37198714Y-65383571D02*
X37698714Y-64669285D01*
X38055857Y-65383571D02*
X38055857Y-63883571D01*
X37484428Y-63883571D01*
X37341571Y-63955000D01*
X37270142Y-64026428D01*
X37198714Y-64169285D01*
X37198714Y-64383571D01*
X37270142Y-64526428D01*
X37341571Y-64597857D01*
X37484428Y-64669285D01*
X38055857Y-64669285D01*
X36270142Y-64669285D02*
X36270142Y-65383571D01*
X36770142Y-63883571D02*
X36270142Y-64669285D01*
X35770142Y-63883571D01*
X34484428Y-65383571D02*
X35341571Y-65383571D01*
X34913000Y-65383571D02*
X34913000Y-63883571D01*
X35055857Y-64097857D01*
X35198714Y-64240714D01*
X35341571Y-64312142D01*
X33127285Y-63883571D02*
X33841571Y-63883571D01*
X33913000Y-64597857D01*
X33841571Y-64526428D01*
X33698714Y-64455000D01*
X33341571Y-64455000D01*
X33198714Y-64526428D01*
X33127285Y-64597857D01*
X33055857Y-64740714D01*
X33055857Y-65097857D01*
X33127285Y-65240714D01*
X33198714Y-65312142D01*
X33341571Y-65383571D01*
X33698714Y-65383571D01*
X33841571Y-65312142D01*
X33913000Y-65240714D01*
X37198714Y-67933571D02*
X37698714Y-67219285D01*
X38055857Y-67933571D02*
X38055857Y-66433571D01*
X37484428Y-66433571D01*
X37341571Y-66505000D01*
X37270142Y-66576428D01*
X37198714Y-66719285D01*
X37198714Y-66933571D01*
X37270142Y-67076428D01*
X37341571Y-67147857D01*
X37484428Y-67219285D01*
X38055857Y-67219285D01*
X36270142Y-67219285D02*
X36270142Y-67933571D01*
X36770142Y-66433571D02*
X36270142Y-67219285D01*
X35770142Y-66433571D01*
X34984428Y-66433571D02*
X34841571Y-66433571D01*
X34698714Y-66505000D01*
X34627285Y-66576428D01*
X34555857Y-66719285D01*
X34484428Y-67005000D01*
X34484428Y-67362142D01*
X34555857Y-67647857D01*
X34627285Y-67790714D01*
X34698714Y-67862142D01*
X34841571Y-67933571D01*
X34984428Y-67933571D01*
X35127285Y-67862142D01*
X35198714Y-67790714D01*
X35270142Y-67647857D01*
X35341571Y-67362142D01*
X35341571Y-67005000D01*
X35270142Y-66719285D01*
X35198714Y-66576428D01*
X35127285Y-66505000D01*
X34984428Y-66433571D01*
X33198714Y-66933571D02*
X33198714Y-67933571D01*
X33555857Y-66362142D02*
X33913000Y-67433571D01*
X32984428Y-67433571D01*
X37198714Y-70483571D02*
X37698714Y-69769285D01*
X38055857Y-70483571D02*
X38055857Y-68983571D01*
X37484428Y-68983571D01*
X37341571Y-69055000D01*
X37270142Y-69126428D01*
X37198714Y-69269285D01*
X37198714Y-69483571D01*
X37270142Y-69626428D01*
X37341571Y-69697857D01*
X37484428Y-69769285D01*
X38055857Y-69769285D01*
X36270142Y-69769285D02*
X36270142Y-70483571D01*
X36770142Y-68983571D02*
X36270142Y-69769285D01*
X35770142Y-68983571D01*
X34984428Y-68983571D02*
X34841571Y-68983571D01*
X34698714Y-69055000D01*
X34627285Y-69126428D01*
X34555857Y-69269285D01*
X34484428Y-69555000D01*
X34484428Y-69912142D01*
X34555857Y-70197857D01*
X34627285Y-70340714D01*
X34698714Y-70412142D01*
X34841571Y-70483571D01*
X34984428Y-70483571D01*
X35127285Y-70412142D01*
X35198714Y-70340714D01*
X35270142Y-70197857D01*
X35341571Y-69912142D01*
X35341571Y-69555000D01*
X35270142Y-69269285D01*
X35198714Y-69126428D01*
X35127285Y-69055000D01*
X34984428Y-68983571D01*
X33198714Y-68983571D02*
X33484428Y-68983571D01*
X33627285Y-69055000D01*
X33698714Y-69126428D01*
X33841571Y-69340714D01*
X33913000Y-69626428D01*
X33913000Y-70197857D01*
X33841571Y-70340714D01*
X33770142Y-70412142D01*
X33627285Y-70483571D01*
X33341571Y-70483571D01*
X33198714Y-70412142D01*
X33127285Y-70340714D01*
X33055857Y-70197857D01*
X33055857Y-69840714D01*
X33127285Y-69697857D01*
X33198714Y-69626428D01*
X33341571Y-69555000D01*
X33627285Y-69555000D01*
X33770142Y-69626428D01*
X33841571Y-69697857D01*
X33913000Y-69840714D01*
X37198714Y-73033571D02*
X37698714Y-72319285D01*
X38055857Y-73033571D02*
X38055857Y-71533571D01*
X37484428Y-71533571D01*
X37341571Y-71605000D01*
X37270142Y-71676428D01*
X37198714Y-71819285D01*
X37198714Y-72033571D01*
X37270142Y-72176428D01*
X37341571Y-72247857D01*
X37484428Y-72319285D01*
X38055857Y-72319285D01*
X36270142Y-72319285D02*
X36270142Y-73033571D01*
X36770142Y-71533571D02*
X36270142Y-72319285D01*
X35770142Y-71533571D01*
X34984428Y-71533571D02*
X34841571Y-71533571D01*
X34698714Y-71605000D01*
X34627285Y-71676428D01*
X34555857Y-71819285D01*
X34484428Y-72105000D01*
X34484428Y-72462142D01*
X34555857Y-72747857D01*
X34627285Y-72890714D01*
X34698714Y-72962142D01*
X34841571Y-73033571D01*
X34984428Y-73033571D01*
X35127285Y-72962142D01*
X35198714Y-72890714D01*
X35270142Y-72747857D01*
X35341571Y-72462142D01*
X35341571Y-72105000D01*
X35270142Y-71819285D01*
X35198714Y-71676428D01*
X35127285Y-71605000D01*
X34984428Y-71533571D01*
X33984428Y-71533571D02*
X33055857Y-71533571D01*
X33555857Y-72105000D01*
X33341571Y-72105000D01*
X33198714Y-72176428D01*
X33127285Y-72247857D01*
X33055857Y-72390714D01*
X33055857Y-72747857D01*
X33127285Y-72890714D01*
X33198714Y-72962142D01*
X33341571Y-73033571D01*
X33770142Y-73033571D01*
X33913000Y-72962142D01*
X33984428Y-72890714D01*
X37198714Y-75583571D02*
X37698714Y-74869285D01*
X38055857Y-75583571D02*
X38055857Y-74083571D01*
X37484428Y-74083571D01*
X37341571Y-74155000D01*
X37270142Y-74226428D01*
X37198714Y-74369285D01*
X37198714Y-74583571D01*
X37270142Y-74726428D01*
X37341571Y-74797857D01*
X37484428Y-74869285D01*
X38055857Y-74869285D01*
X36270142Y-74869285D02*
X36270142Y-75583571D01*
X36770142Y-74083571D02*
X36270142Y-74869285D01*
X35770142Y-74083571D01*
X34984428Y-74083571D02*
X34841571Y-74083571D01*
X34698714Y-74155000D01*
X34627285Y-74226428D01*
X34555857Y-74369285D01*
X34484428Y-74655000D01*
X34484428Y-75012142D01*
X34555857Y-75297857D01*
X34627285Y-75440714D01*
X34698714Y-75512142D01*
X34841571Y-75583571D01*
X34984428Y-75583571D01*
X35127285Y-75512142D01*
X35198714Y-75440714D01*
X35270142Y-75297857D01*
X35341571Y-75012142D01*
X35341571Y-74655000D01*
X35270142Y-74369285D01*
X35198714Y-74226428D01*
X35127285Y-74155000D01*
X34984428Y-74083571D01*
X33913000Y-74226428D02*
X33841571Y-74155000D01*
X33698714Y-74083571D01*
X33341571Y-74083571D01*
X33198714Y-74155000D01*
X33127285Y-74226428D01*
X33055857Y-74369285D01*
X33055857Y-74512142D01*
X33127285Y-74726428D01*
X33984428Y-75583571D01*
X33055857Y-75583571D01*
X37198714Y-78133571D02*
X37698714Y-77419285D01*
X38055857Y-78133571D02*
X38055857Y-76633571D01*
X37484428Y-76633571D01*
X37341571Y-76705000D01*
X37270142Y-76776428D01*
X37198714Y-76919285D01*
X37198714Y-77133571D01*
X37270142Y-77276428D01*
X37341571Y-77347857D01*
X37484428Y-77419285D01*
X38055857Y-77419285D01*
X36270142Y-77419285D02*
X36270142Y-78133571D01*
X36770142Y-76633571D02*
X36270142Y-77419285D01*
X35770142Y-76633571D01*
X34984428Y-76633571D02*
X34841571Y-76633571D01*
X34698714Y-76705000D01*
X34627285Y-76776428D01*
X34555857Y-76919285D01*
X34484428Y-77205000D01*
X34484428Y-77562142D01*
X34555857Y-77847857D01*
X34627285Y-77990714D01*
X34698714Y-78062142D01*
X34841571Y-78133571D01*
X34984428Y-78133571D01*
X35127285Y-78062142D01*
X35198714Y-77990714D01*
X35270142Y-77847857D01*
X35341571Y-77562142D01*
X35341571Y-77205000D01*
X35270142Y-76919285D01*
X35198714Y-76776428D01*
X35127285Y-76705000D01*
X34984428Y-76633571D01*
X33055857Y-78133571D02*
X33913000Y-78133571D01*
X33484428Y-78133571D02*
X33484428Y-76633571D01*
X33627285Y-76847857D01*
X33770142Y-76990714D01*
X33913000Y-77062142D01*
X37198714Y-83233571D02*
X37698714Y-82519285D01*
X38055857Y-83233571D02*
X38055857Y-81733571D01*
X37484428Y-81733571D01*
X37341571Y-81805000D01*
X37270142Y-81876428D01*
X37198714Y-82019285D01*
X37198714Y-82233571D01*
X37270142Y-82376428D01*
X37341571Y-82447857D01*
X37484428Y-82519285D01*
X38055857Y-82519285D01*
X36270142Y-82519285D02*
X36270142Y-83233571D01*
X36770142Y-81733571D02*
X36270142Y-82519285D01*
X35770142Y-81733571D01*
X34984428Y-81733571D02*
X34841571Y-81733571D01*
X34698714Y-81805000D01*
X34627285Y-81876428D01*
X34555857Y-82019285D01*
X34484428Y-82305000D01*
X34484428Y-82662142D01*
X34555857Y-82947857D01*
X34627285Y-83090714D01*
X34698714Y-83162142D01*
X34841571Y-83233571D01*
X34984428Y-83233571D01*
X35127285Y-83162142D01*
X35198714Y-83090714D01*
X35270142Y-82947857D01*
X35341571Y-82662142D01*
X35341571Y-82305000D01*
X35270142Y-82019285D01*
X35198714Y-81876428D01*
X35127285Y-81805000D01*
X34984428Y-81733571D01*
X33127285Y-81733571D02*
X33841571Y-81733571D01*
X33913000Y-82447857D01*
X33841571Y-82376428D01*
X33698714Y-82305000D01*
X33341571Y-82305000D01*
X33198714Y-82376428D01*
X33127285Y-82447857D01*
X33055857Y-82590714D01*
X33055857Y-82947857D01*
X33127285Y-83090714D01*
X33198714Y-83162142D01*
X33341571Y-83233571D01*
X33698714Y-83233571D01*
X33841571Y-83162142D01*
X33913000Y-83090714D01*
X37198714Y-85783571D02*
X37698714Y-85069285D01*
X38055857Y-85783571D02*
X38055857Y-84283571D01*
X37484428Y-84283571D01*
X37341571Y-84355000D01*
X37270142Y-84426428D01*
X37198714Y-84569285D01*
X37198714Y-84783571D01*
X37270142Y-84926428D01*
X37341571Y-84997857D01*
X37484428Y-85069285D01*
X38055857Y-85069285D01*
X36270142Y-85069285D02*
X36270142Y-85783571D01*
X36770142Y-84283571D02*
X36270142Y-85069285D01*
X35770142Y-84283571D01*
X34984428Y-84283571D02*
X34841571Y-84283571D01*
X34698714Y-84355000D01*
X34627285Y-84426428D01*
X34555857Y-84569285D01*
X34484428Y-84855000D01*
X34484428Y-85212142D01*
X34555857Y-85497857D01*
X34627285Y-85640714D01*
X34698714Y-85712142D01*
X34841571Y-85783571D01*
X34984428Y-85783571D01*
X35127285Y-85712142D01*
X35198714Y-85640714D01*
X35270142Y-85497857D01*
X35341571Y-85212142D01*
X35341571Y-84855000D01*
X35270142Y-84569285D01*
X35198714Y-84426428D01*
X35127285Y-84355000D01*
X34984428Y-84283571D01*
X33984428Y-84283571D02*
X32984428Y-84283571D01*
X33627285Y-85783571D01*
X37198714Y-88333571D02*
X37698714Y-87619285D01*
X38055857Y-88333571D02*
X38055857Y-86833571D01*
X37484428Y-86833571D01*
X37341571Y-86905000D01*
X37270142Y-86976428D01*
X37198714Y-87119285D01*
X37198714Y-87333571D01*
X37270142Y-87476428D01*
X37341571Y-87547857D01*
X37484428Y-87619285D01*
X38055857Y-87619285D01*
X36270142Y-87619285D02*
X36270142Y-88333571D01*
X36770142Y-86833571D02*
X36270142Y-87619285D01*
X35770142Y-86833571D01*
X34484428Y-88333571D02*
X35341571Y-88333571D01*
X34913000Y-88333571D02*
X34913000Y-86833571D01*
X35055857Y-87047857D01*
X35198714Y-87190714D01*
X35341571Y-87262142D01*
X33198714Y-87333571D02*
X33198714Y-88333571D01*
X33555857Y-86762142D02*
X33913000Y-87833571D01*
X32984428Y-87833571D01*
X37198714Y-90883571D02*
X37698714Y-90169285D01*
X38055857Y-90883571D02*
X38055857Y-89383571D01*
X37484428Y-89383571D01*
X37341571Y-89455000D01*
X37270142Y-89526428D01*
X37198714Y-89669285D01*
X37198714Y-89883571D01*
X37270142Y-90026428D01*
X37341571Y-90097857D01*
X37484428Y-90169285D01*
X38055857Y-90169285D01*
X36270142Y-90169285D02*
X36270142Y-90883571D01*
X36770142Y-89383571D02*
X36270142Y-90169285D01*
X35770142Y-89383571D01*
X34484428Y-90883571D02*
X35341571Y-90883571D01*
X34913000Y-90883571D02*
X34913000Y-89383571D01*
X35055857Y-89597857D01*
X35198714Y-89740714D01*
X35341571Y-89812142D01*
X33913000Y-89526428D02*
X33841571Y-89455000D01*
X33698714Y-89383571D01*
X33341571Y-89383571D01*
X33198714Y-89455000D01*
X33127285Y-89526428D01*
X33055857Y-89669285D01*
X33055857Y-89812142D01*
X33127285Y-90026428D01*
X33984428Y-90883571D01*
X33055857Y-90883571D01*
X37198714Y-93433571D02*
X37698714Y-92719285D01*
X38055857Y-93433571D02*
X38055857Y-91933571D01*
X37484428Y-91933571D01*
X37341571Y-92005000D01*
X37270142Y-92076428D01*
X37198714Y-92219285D01*
X37198714Y-92433571D01*
X37270142Y-92576428D01*
X37341571Y-92647857D01*
X37484428Y-92719285D01*
X38055857Y-92719285D01*
X36270142Y-92719285D02*
X36270142Y-93433571D01*
X36770142Y-91933571D02*
X36270142Y-92719285D01*
X35770142Y-91933571D01*
X34484428Y-93433571D02*
X35341571Y-93433571D01*
X34913000Y-93433571D02*
X34913000Y-91933571D01*
X35055857Y-92147857D01*
X35198714Y-92290714D01*
X35341571Y-92362142D01*
X33984428Y-91933571D02*
X33055857Y-91933571D01*
X33555857Y-92505000D01*
X33341571Y-92505000D01*
X33198714Y-92576428D01*
X33127285Y-92647857D01*
X33055857Y-92790714D01*
X33055857Y-93147857D01*
X33127285Y-93290714D01*
X33198714Y-93362142D01*
X33341571Y-93433571D01*
X33770142Y-93433571D01*
X33913000Y-93362142D01*
X33984428Y-93290714D01*
X37198714Y-95983571D02*
X37698714Y-95269285D01*
X38055857Y-95983571D02*
X38055857Y-94483571D01*
X37484428Y-94483571D01*
X37341571Y-94555000D01*
X37270142Y-94626428D01*
X37198714Y-94769285D01*
X37198714Y-94983571D01*
X37270142Y-95126428D01*
X37341571Y-95197857D01*
X37484428Y-95269285D01*
X38055857Y-95269285D01*
X36270142Y-95269285D02*
X36270142Y-95983571D01*
X36770142Y-94483571D02*
X36270142Y-95269285D01*
X35770142Y-94483571D01*
X34484428Y-95983571D02*
X35341571Y-95983571D01*
X34913000Y-95983571D02*
X34913000Y-94483571D01*
X35055857Y-94697857D01*
X35198714Y-94840714D01*
X35341571Y-94912142D01*
X33055857Y-95983571D02*
X33913000Y-95983571D01*
X33484428Y-95983571D02*
X33484428Y-94483571D01*
X33627285Y-94697857D01*
X33770142Y-94840714D01*
X33913000Y-94912142D01*
X37198714Y-98533571D02*
X37698714Y-97819285D01*
X38055857Y-98533571D02*
X38055857Y-97033571D01*
X37484428Y-97033571D01*
X37341571Y-97105000D01*
X37270142Y-97176428D01*
X37198714Y-97319285D01*
X37198714Y-97533571D01*
X37270142Y-97676428D01*
X37341571Y-97747857D01*
X37484428Y-97819285D01*
X38055857Y-97819285D01*
X36270142Y-97819285D02*
X36270142Y-98533571D01*
X36770142Y-97033571D02*
X36270142Y-97819285D01*
X35770142Y-97033571D01*
X34484428Y-98533571D02*
X35341571Y-98533571D01*
X34913000Y-98533571D02*
X34913000Y-97033571D01*
X35055857Y-97247857D01*
X35198714Y-97390714D01*
X35341571Y-97462142D01*
X33555857Y-97033571D02*
X33413000Y-97033571D01*
X33270142Y-97105000D01*
X33198714Y-97176428D01*
X33127285Y-97319285D01*
X33055857Y-97605000D01*
X33055857Y-97962142D01*
X33127285Y-98247857D01*
X33198714Y-98390714D01*
X33270142Y-98462142D01*
X33413000Y-98533571D01*
X33555857Y-98533571D01*
X33698714Y-98462142D01*
X33770142Y-98390714D01*
X33841571Y-98247857D01*
X33913000Y-97962142D01*
X33913000Y-97605000D01*
X33841571Y-97319285D01*
X33770142Y-97176428D01*
X33698714Y-97105000D01*
X33555857Y-97033571D01*
X37198714Y-101083571D02*
X37698714Y-100369285D01*
X38055857Y-101083571D02*
X38055857Y-99583571D01*
X37484428Y-99583571D01*
X37341571Y-99655000D01*
X37270142Y-99726428D01*
X37198714Y-99869285D01*
X37198714Y-100083571D01*
X37270142Y-100226428D01*
X37341571Y-100297857D01*
X37484428Y-100369285D01*
X38055857Y-100369285D01*
X36270142Y-100369285D02*
X36270142Y-101083571D01*
X36770142Y-99583571D02*
X36270142Y-100369285D01*
X35770142Y-99583571D01*
X34984428Y-99583571D02*
X34841571Y-99583571D01*
X34698714Y-99655000D01*
X34627285Y-99726428D01*
X34555857Y-99869285D01*
X34484428Y-100155000D01*
X34484428Y-100512142D01*
X34555857Y-100797857D01*
X34627285Y-100940714D01*
X34698714Y-101012142D01*
X34841571Y-101083571D01*
X34984428Y-101083571D01*
X35127285Y-101012142D01*
X35198714Y-100940714D01*
X35270142Y-100797857D01*
X35341571Y-100512142D01*
X35341571Y-100155000D01*
X35270142Y-99869285D01*
X35198714Y-99726428D01*
X35127285Y-99655000D01*
X34984428Y-99583571D01*
X33770142Y-101083571D02*
X33484428Y-101083571D01*
X33341571Y-101012142D01*
X33270142Y-100940714D01*
X33127285Y-100726428D01*
X33055857Y-100440714D01*
X33055857Y-99869285D01*
X33127285Y-99726428D01*
X33198714Y-99655000D01*
X33341571Y-99583571D01*
X33627285Y-99583571D01*
X33770142Y-99655000D01*
X33841571Y-99726428D01*
X33913000Y-99869285D01*
X33913000Y-100226428D01*
X33841571Y-100369285D01*
X33770142Y-100440714D01*
X33627285Y-100512142D01*
X33341571Y-100512142D01*
X33198714Y-100440714D01*
X33127285Y-100369285D01*
X33055857Y-100226428D01*
X37198714Y-103633571D02*
X37698714Y-102919285D01*
X38055857Y-103633571D02*
X38055857Y-102133571D01*
X37484428Y-102133571D01*
X37341571Y-102205000D01*
X37270142Y-102276428D01*
X37198714Y-102419285D01*
X37198714Y-102633571D01*
X37270142Y-102776428D01*
X37341571Y-102847857D01*
X37484428Y-102919285D01*
X38055857Y-102919285D01*
X36270142Y-102919285D02*
X36270142Y-103633571D01*
X36770142Y-102133571D02*
X36270142Y-102919285D01*
X35770142Y-102133571D01*
X34984428Y-102133571D02*
X34841571Y-102133571D01*
X34698714Y-102205000D01*
X34627285Y-102276428D01*
X34555857Y-102419285D01*
X34484428Y-102705000D01*
X34484428Y-103062142D01*
X34555857Y-103347857D01*
X34627285Y-103490714D01*
X34698714Y-103562142D01*
X34841571Y-103633571D01*
X34984428Y-103633571D01*
X35127285Y-103562142D01*
X35198714Y-103490714D01*
X35270142Y-103347857D01*
X35341571Y-103062142D01*
X35341571Y-102705000D01*
X35270142Y-102419285D01*
X35198714Y-102276428D01*
X35127285Y-102205000D01*
X34984428Y-102133571D01*
X33627285Y-102776428D02*
X33770142Y-102705000D01*
X33841571Y-102633571D01*
X33913000Y-102490714D01*
X33913000Y-102419285D01*
X33841571Y-102276428D01*
X33770142Y-102205000D01*
X33627285Y-102133571D01*
X33341571Y-102133571D01*
X33198714Y-102205000D01*
X33127285Y-102276428D01*
X33055857Y-102419285D01*
X33055857Y-102490714D01*
X33127285Y-102633571D01*
X33198714Y-102705000D01*
X33341571Y-102776428D01*
X33627285Y-102776428D01*
X33770142Y-102847857D01*
X33841571Y-102919285D01*
X33913000Y-103062142D01*
X33913000Y-103347857D01*
X33841571Y-103490714D01*
X33770142Y-103562142D01*
X33627285Y-103633571D01*
X33341571Y-103633571D01*
X33198714Y-103562142D01*
X33127285Y-103490714D01*
X33055857Y-103347857D01*
X33055857Y-103062142D01*
X33127285Y-102919285D01*
X33198714Y-102847857D01*
X33341571Y-102776428D01*
X49089285Y-61257142D02*
X50375000Y-63185714D01*
X48660714Y-62757142D02*
X48446428Y-62828571D01*
X48089285Y-62828571D01*
X47946428Y-62757142D01*
X47875000Y-62685714D01*
X47803571Y-62542857D01*
X47803571Y-62400000D01*
X47875000Y-62257142D01*
X47946428Y-62185714D01*
X48089285Y-62114285D01*
X48375000Y-62042857D01*
X48517857Y-61971428D01*
X48589285Y-61900000D01*
X48660714Y-61757142D01*
X48660714Y-61614285D01*
X48589285Y-61471428D01*
X48517857Y-61400000D01*
X48375000Y-61328571D01*
X48017857Y-61328571D01*
X47803571Y-61400000D01*
X46875000Y-62114285D02*
X46875000Y-62828571D01*
X47375000Y-61328571D02*
X46875000Y-62114285D01*
X46375000Y-61328571D01*
X45089285Y-62828571D02*
X45946428Y-62828571D01*
X45517857Y-62828571D02*
X45517857Y-61328571D01*
X45660714Y-61542857D01*
X45803571Y-61685714D01*
X45946428Y-61757142D01*
X43803571Y-61328571D02*
X44089285Y-61328571D01*
X44232142Y-61400000D01*
X44303571Y-61471428D01*
X44446428Y-61685714D01*
X44517857Y-61971428D01*
X44517857Y-62542857D01*
X44446428Y-62685714D01*
X44375000Y-62757142D01*
X44232142Y-62828571D01*
X43946428Y-62828571D01*
X43803571Y-62757142D01*
X43732142Y-62685714D01*
X43660714Y-62542857D01*
X43660714Y-62185714D01*
X43732142Y-62042857D01*
X43803571Y-61971428D01*
X43946428Y-61900000D01*
X44232142Y-61900000D01*
X44375000Y-61971428D01*
X44446428Y-62042857D01*
X44517857Y-62185714D01*
X49089285Y-63807142D02*
X50375000Y-65735714D01*
X48660714Y-65307142D02*
X48446428Y-65378571D01*
X48089285Y-65378571D01*
X47946428Y-65307142D01*
X47875000Y-65235714D01*
X47803571Y-65092857D01*
X47803571Y-64950000D01*
X47875000Y-64807142D01*
X47946428Y-64735714D01*
X48089285Y-64664285D01*
X48375000Y-64592857D01*
X48517857Y-64521428D01*
X48589285Y-64450000D01*
X48660714Y-64307142D01*
X48660714Y-64164285D01*
X48589285Y-64021428D01*
X48517857Y-63950000D01*
X48375000Y-63878571D01*
X48017857Y-63878571D01*
X47803571Y-63950000D01*
X46875000Y-64664285D02*
X46875000Y-65378571D01*
X47375000Y-63878571D02*
X46875000Y-64664285D01*
X46375000Y-63878571D01*
X45089285Y-65378571D02*
X45946428Y-65378571D01*
X45517857Y-65378571D02*
X45517857Y-63878571D01*
X45660714Y-64092857D01*
X45803571Y-64235714D01*
X45946428Y-64307142D01*
X43732142Y-63878571D02*
X44446428Y-63878571D01*
X44517857Y-64592857D01*
X44446428Y-64521428D01*
X44303571Y-64450000D01*
X43946428Y-64450000D01*
X43803571Y-64521428D01*
X43732142Y-64592857D01*
X43660714Y-64735714D01*
X43660714Y-65092857D01*
X43732142Y-65235714D01*
X43803571Y-65307142D01*
X43946428Y-65378571D01*
X44303571Y-65378571D01*
X44446428Y-65307142D01*
X44517857Y-65235714D01*
X49089285Y-66357142D02*
X50375000Y-68285714D01*
X48660714Y-67857142D02*
X48446428Y-67928571D01*
X48089285Y-67928571D01*
X47946428Y-67857142D01*
X47875000Y-67785714D01*
X47803571Y-67642857D01*
X47803571Y-67500000D01*
X47875000Y-67357142D01*
X47946428Y-67285714D01*
X48089285Y-67214285D01*
X48375000Y-67142857D01*
X48517857Y-67071428D01*
X48589285Y-67000000D01*
X48660714Y-66857142D01*
X48660714Y-66714285D01*
X48589285Y-66571428D01*
X48517857Y-66500000D01*
X48375000Y-66428571D01*
X48017857Y-66428571D01*
X47803571Y-66500000D01*
X46875000Y-67214285D02*
X46875000Y-67928571D01*
X47375000Y-66428571D02*
X46875000Y-67214285D01*
X46375000Y-66428571D01*
X45089285Y-67928571D02*
X45946428Y-67928571D01*
X45517857Y-67928571D02*
X45517857Y-66428571D01*
X45660714Y-66642857D01*
X45803571Y-66785714D01*
X45946428Y-66857142D01*
X43660714Y-67928571D02*
X44517857Y-67928571D01*
X44089285Y-67928571D02*
X44089285Y-66428571D01*
X44232142Y-66642857D01*
X44375000Y-66785714D01*
X44517857Y-66857142D01*
X49089285Y-68907142D02*
X50375000Y-70835714D01*
X48660714Y-70407142D02*
X48446428Y-70478571D01*
X48089285Y-70478571D01*
X47946428Y-70407142D01*
X47875000Y-70335714D01*
X47803571Y-70192857D01*
X47803571Y-70050000D01*
X47875000Y-69907142D01*
X47946428Y-69835714D01*
X48089285Y-69764285D01*
X48375000Y-69692857D01*
X48517857Y-69621428D01*
X48589285Y-69550000D01*
X48660714Y-69407142D01*
X48660714Y-69264285D01*
X48589285Y-69121428D01*
X48517857Y-69050000D01*
X48375000Y-68978571D01*
X48017857Y-68978571D01*
X47803571Y-69050000D01*
X46875000Y-69764285D02*
X46875000Y-70478571D01*
X47375000Y-68978571D02*
X46875000Y-69764285D01*
X46375000Y-68978571D01*
X45089285Y-70478571D02*
X45946428Y-70478571D01*
X45517857Y-70478571D02*
X45517857Y-68978571D01*
X45660714Y-69192857D01*
X45803571Y-69335714D01*
X45946428Y-69407142D01*
X44589285Y-68978571D02*
X43660714Y-68978571D01*
X44160714Y-69550000D01*
X43946428Y-69550000D01*
X43803571Y-69621428D01*
X43732142Y-69692857D01*
X43660714Y-69835714D01*
X43660714Y-70192857D01*
X43732142Y-70335714D01*
X43803571Y-70407142D01*
X43946428Y-70478571D01*
X44375000Y-70478571D01*
X44517857Y-70407142D01*
X44589285Y-70335714D01*
X49089285Y-71457142D02*
X50375000Y-73385714D01*
X48660714Y-72957142D02*
X48446428Y-73028571D01*
X48089285Y-73028571D01*
X47946428Y-72957142D01*
X47875000Y-72885714D01*
X47803571Y-72742857D01*
X47803571Y-72600000D01*
X47875000Y-72457142D01*
X47946428Y-72385714D01*
X48089285Y-72314285D01*
X48375000Y-72242857D01*
X48517857Y-72171428D01*
X48589285Y-72100000D01*
X48660714Y-71957142D01*
X48660714Y-71814285D01*
X48589285Y-71671428D01*
X48517857Y-71600000D01*
X48375000Y-71528571D01*
X48017857Y-71528571D01*
X47803571Y-71600000D01*
X46875000Y-72314285D02*
X46875000Y-73028571D01*
X47375000Y-71528571D02*
X46875000Y-72314285D01*
X46375000Y-71528571D01*
X45089285Y-73028571D02*
X45946428Y-73028571D01*
X45517857Y-73028571D02*
X45517857Y-71528571D01*
X45660714Y-71742857D01*
X45803571Y-71885714D01*
X45946428Y-71957142D01*
X44160714Y-71528571D02*
X44017857Y-71528571D01*
X43875000Y-71600000D01*
X43803571Y-71671428D01*
X43732142Y-71814285D01*
X43660714Y-72100000D01*
X43660714Y-72457142D01*
X43732142Y-72742857D01*
X43803571Y-72885714D01*
X43875000Y-72957142D01*
X44017857Y-73028571D01*
X44160714Y-73028571D01*
X44303571Y-72957142D01*
X44375000Y-72885714D01*
X44446428Y-72742857D01*
X44517857Y-72457142D01*
X44517857Y-72100000D01*
X44446428Y-71814285D01*
X44375000Y-71671428D01*
X44303571Y-71600000D01*
X44160714Y-71528571D01*
X49089285Y-74007142D02*
X50375000Y-75935714D01*
X48660714Y-75507142D02*
X48446428Y-75578571D01*
X48089285Y-75578571D01*
X47946428Y-75507142D01*
X47875000Y-75435714D01*
X47803571Y-75292857D01*
X47803571Y-75150000D01*
X47875000Y-75007142D01*
X47946428Y-74935714D01*
X48089285Y-74864285D01*
X48375000Y-74792857D01*
X48517857Y-74721428D01*
X48589285Y-74650000D01*
X48660714Y-74507142D01*
X48660714Y-74364285D01*
X48589285Y-74221428D01*
X48517857Y-74150000D01*
X48375000Y-74078571D01*
X48017857Y-74078571D01*
X47803571Y-74150000D01*
X46875000Y-74864285D02*
X46875000Y-75578571D01*
X47375000Y-74078571D02*
X46875000Y-74864285D01*
X46375000Y-74078571D01*
X45589285Y-74078571D02*
X45446428Y-74078571D01*
X45303571Y-74150000D01*
X45232142Y-74221428D01*
X45160714Y-74364285D01*
X45089285Y-74650000D01*
X45089285Y-75007142D01*
X45160714Y-75292857D01*
X45232142Y-75435714D01*
X45303571Y-75507142D01*
X45446428Y-75578571D01*
X45589285Y-75578571D01*
X45732142Y-75507142D01*
X45803571Y-75435714D01*
X45875000Y-75292857D01*
X45946428Y-75007142D01*
X45946428Y-74650000D01*
X45875000Y-74364285D01*
X45803571Y-74221428D01*
X45732142Y-74150000D01*
X45589285Y-74078571D01*
X44375000Y-75578571D02*
X44089285Y-75578571D01*
X43946428Y-75507142D01*
X43875000Y-75435714D01*
X43732142Y-75221428D01*
X43660714Y-74935714D01*
X43660714Y-74364285D01*
X43732142Y-74221428D01*
X43803571Y-74150000D01*
X43946428Y-74078571D01*
X44232142Y-74078571D01*
X44375000Y-74150000D01*
X44446428Y-74221428D01*
X44517857Y-74364285D01*
X44517857Y-74721428D01*
X44446428Y-74864285D01*
X44375000Y-74935714D01*
X44232142Y-75007142D01*
X43946428Y-75007142D01*
X43803571Y-74935714D01*
X43732142Y-74864285D01*
X43660714Y-74721428D01*
X49089285Y-76557142D02*
X50375000Y-78485714D01*
X48660714Y-78057142D02*
X48446428Y-78128571D01*
X48089285Y-78128571D01*
X47946428Y-78057142D01*
X47875000Y-77985714D01*
X47803571Y-77842857D01*
X47803571Y-77700000D01*
X47875000Y-77557142D01*
X47946428Y-77485714D01*
X48089285Y-77414285D01*
X48375000Y-77342857D01*
X48517857Y-77271428D01*
X48589285Y-77200000D01*
X48660714Y-77057142D01*
X48660714Y-76914285D01*
X48589285Y-76771428D01*
X48517857Y-76700000D01*
X48375000Y-76628571D01*
X48017857Y-76628571D01*
X47803571Y-76700000D01*
X46875000Y-77414285D02*
X46875000Y-78128571D01*
X47375000Y-76628571D02*
X46875000Y-77414285D01*
X46375000Y-76628571D01*
X45589285Y-76628571D02*
X45446428Y-76628571D01*
X45303571Y-76700000D01*
X45232142Y-76771428D01*
X45160714Y-76914285D01*
X45089285Y-77200000D01*
X45089285Y-77557142D01*
X45160714Y-77842857D01*
X45232142Y-77985714D01*
X45303571Y-78057142D01*
X45446428Y-78128571D01*
X45589285Y-78128571D01*
X45732142Y-78057142D01*
X45803571Y-77985714D01*
X45875000Y-77842857D01*
X45946428Y-77557142D01*
X45946428Y-77200000D01*
X45875000Y-76914285D01*
X45803571Y-76771428D01*
X45732142Y-76700000D01*
X45589285Y-76628571D01*
X44232142Y-77271428D02*
X44375000Y-77200000D01*
X44446428Y-77128571D01*
X44517857Y-76985714D01*
X44517857Y-76914285D01*
X44446428Y-76771428D01*
X44375000Y-76700000D01*
X44232142Y-76628571D01*
X43946428Y-76628571D01*
X43803571Y-76700000D01*
X43732142Y-76771428D01*
X43660714Y-76914285D01*
X43660714Y-76985714D01*
X43732142Y-77128571D01*
X43803571Y-77200000D01*
X43946428Y-77271428D01*
X44232142Y-77271428D01*
X44375000Y-77342857D01*
X44446428Y-77414285D01*
X44517857Y-77557142D01*
X44517857Y-77842857D01*
X44446428Y-77985714D01*
X44375000Y-78057142D01*
X44232142Y-78128571D01*
X43946428Y-78128571D01*
X43803571Y-78057142D01*
X43732142Y-77985714D01*
X43660714Y-77842857D01*
X43660714Y-77557142D01*
X43732142Y-77414285D01*
X43803571Y-77342857D01*
X43946428Y-77271428D01*
X49089285Y-81657142D02*
X50375000Y-83585714D01*
X48660714Y-83157142D02*
X48446428Y-83228571D01*
X48089285Y-83228571D01*
X47946428Y-83157142D01*
X47875000Y-83085714D01*
X47803571Y-82942857D01*
X47803571Y-82800000D01*
X47875000Y-82657142D01*
X47946428Y-82585714D01*
X48089285Y-82514285D01*
X48375000Y-82442857D01*
X48517857Y-82371428D01*
X48589285Y-82300000D01*
X48660714Y-82157142D01*
X48660714Y-82014285D01*
X48589285Y-81871428D01*
X48517857Y-81800000D01*
X48375000Y-81728571D01*
X48017857Y-81728571D01*
X47803571Y-81800000D01*
X46875000Y-82514285D02*
X46875000Y-83228571D01*
X47375000Y-81728571D02*
X46875000Y-82514285D01*
X46375000Y-81728571D01*
X45089285Y-83228571D02*
X45946428Y-83228571D01*
X45517857Y-83228571D02*
X45517857Y-81728571D01*
X45660714Y-81942857D01*
X45803571Y-82085714D01*
X45946428Y-82157142D01*
X44517857Y-81871428D02*
X44446428Y-81800000D01*
X44303571Y-81728571D01*
X43946428Y-81728571D01*
X43803571Y-81800000D01*
X43732142Y-81871428D01*
X43660714Y-82014285D01*
X43660714Y-82157142D01*
X43732142Y-82371428D01*
X44589285Y-83228571D01*
X43660714Y-83228571D01*
X49089285Y-84207142D02*
X50375000Y-86135714D01*
X48660714Y-85707142D02*
X48446428Y-85778571D01*
X48089285Y-85778571D01*
X47946428Y-85707142D01*
X47875000Y-85635714D01*
X47803571Y-85492857D01*
X47803571Y-85350000D01*
X47875000Y-85207142D01*
X47946428Y-85135714D01*
X48089285Y-85064285D01*
X48375000Y-84992857D01*
X48517857Y-84921428D01*
X48589285Y-84850000D01*
X48660714Y-84707142D01*
X48660714Y-84564285D01*
X48589285Y-84421428D01*
X48517857Y-84350000D01*
X48375000Y-84278571D01*
X48017857Y-84278571D01*
X47803571Y-84350000D01*
X46875000Y-85064285D02*
X46875000Y-85778571D01*
X47375000Y-84278571D02*
X46875000Y-85064285D01*
X46375000Y-84278571D01*
X45089285Y-85778571D02*
X45946428Y-85778571D01*
X45517857Y-85778571D02*
X45517857Y-84278571D01*
X45660714Y-84492857D01*
X45803571Y-84635714D01*
X45946428Y-84707142D01*
X43803571Y-84778571D02*
X43803571Y-85778571D01*
X44160714Y-84207142D02*
X44517857Y-85278571D01*
X43589285Y-85278571D01*
X49089285Y-86757142D02*
X50375000Y-88685714D01*
X48660714Y-88257142D02*
X48446428Y-88328571D01*
X48089285Y-88328571D01*
X47946428Y-88257142D01*
X47875000Y-88185714D01*
X47803571Y-88042857D01*
X47803571Y-87900000D01*
X47875000Y-87757142D01*
X47946428Y-87685714D01*
X48089285Y-87614285D01*
X48375000Y-87542857D01*
X48517857Y-87471428D01*
X48589285Y-87400000D01*
X48660714Y-87257142D01*
X48660714Y-87114285D01*
X48589285Y-86971428D01*
X48517857Y-86900000D01*
X48375000Y-86828571D01*
X48017857Y-86828571D01*
X47803571Y-86900000D01*
X46875000Y-87614285D02*
X46875000Y-88328571D01*
X47375000Y-86828571D02*
X46875000Y-87614285D01*
X46375000Y-86828571D01*
X45589285Y-86828571D02*
X45446428Y-86828571D01*
X45303571Y-86900000D01*
X45232142Y-86971428D01*
X45160714Y-87114285D01*
X45089285Y-87400000D01*
X45089285Y-87757142D01*
X45160714Y-88042857D01*
X45232142Y-88185714D01*
X45303571Y-88257142D01*
X45446428Y-88328571D01*
X45589285Y-88328571D01*
X45732142Y-88257142D01*
X45803571Y-88185714D01*
X45875000Y-88042857D01*
X45946428Y-87757142D01*
X45946428Y-87400000D01*
X45875000Y-87114285D01*
X45803571Y-86971428D01*
X45732142Y-86900000D01*
X45589285Y-86828571D01*
X44589285Y-86828571D02*
X43589285Y-86828571D01*
X44232142Y-88328571D01*
X49089285Y-89307142D02*
X50375000Y-91235714D01*
X48660714Y-90807142D02*
X48446428Y-90878571D01*
X48089285Y-90878571D01*
X47946428Y-90807142D01*
X47875000Y-90735714D01*
X47803571Y-90592857D01*
X47803571Y-90450000D01*
X47875000Y-90307142D01*
X47946428Y-90235714D01*
X48089285Y-90164285D01*
X48375000Y-90092857D01*
X48517857Y-90021428D01*
X48589285Y-89950000D01*
X48660714Y-89807142D01*
X48660714Y-89664285D01*
X48589285Y-89521428D01*
X48517857Y-89450000D01*
X48375000Y-89378571D01*
X48017857Y-89378571D01*
X47803571Y-89450000D01*
X46875000Y-90164285D02*
X46875000Y-90878571D01*
X47375000Y-89378571D02*
X46875000Y-90164285D01*
X46375000Y-89378571D01*
X45589285Y-89378571D02*
X45446428Y-89378571D01*
X45303571Y-89450000D01*
X45232142Y-89521428D01*
X45160714Y-89664285D01*
X45089285Y-89950000D01*
X45089285Y-90307142D01*
X45160714Y-90592857D01*
X45232142Y-90735714D01*
X45303571Y-90807142D01*
X45446428Y-90878571D01*
X45589285Y-90878571D01*
X45732142Y-90807142D01*
X45803571Y-90735714D01*
X45875000Y-90592857D01*
X45946428Y-90307142D01*
X45946428Y-89950000D01*
X45875000Y-89664285D01*
X45803571Y-89521428D01*
X45732142Y-89450000D01*
X45589285Y-89378571D01*
X43732142Y-89378571D02*
X44446428Y-89378571D01*
X44517857Y-90092857D01*
X44446428Y-90021428D01*
X44303571Y-89950000D01*
X43946428Y-89950000D01*
X43803571Y-90021428D01*
X43732142Y-90092857D01*
X43660714Y-90235714D01*
X43660714Y-90592857D01*
X43732142Y-90735714D01*
X43803571Y-90807142D01*
X43946428Y-90878571D01*
X44303571Y-90878571D01*
X44446428Y-90807142D01*
X44517857Y-90735714D01*
X49089285Y-91857142D02*
X50375000Y-93785714D01*
X48660714Y-93357142D02*
X48446428Y-93428571D01*
X48089285Y-93428571D01*
X47946428Y-93357142D01*
X47875000Y-93285714D01*
X47803571Y-93142857D01*
X47803571Y-93000000D01*
X47875000Y-92857142D01*
X47946428Y-92785714D01*
X48089285Y-92714285D01*
X48375000Y-92642857D01*
X48517857Y-92571428D01*
X48589285Y-92500000D01*
X48660714Y-92357142D01*
X48660714Y-92214285D01*
X48589285Y-92071428D01*
X48517857Y-92000000D01*
X48375000Y-91928571D01*
X48017857Y-91928571D01*
X47803571Y-92000000D01*
X46875000Y-92714285D02*
X46875000Y-93428571D01*
X47375000Y-91928571D02*
X46875000Y-92714285D01*
X46375000Y-91928571D01*
X45589285Y-91928571D02*
X45446428Y-91928571D01*
X45303571Y-92000000D01*
X45232142Y-92071428D01*
X45160714Y-92214285D01*
X45089285Y-92500000D01*
X45089285Y-92857142D01*
X45160714Y-93142857D01*
X45232142Y-93285714D01*
X45303571Y-93357142D01*
X45446428Y-93428571D01*
X45589285Y-93428571D01*
X45732142Y-93357142D01*
X45803571Y-93285714D01*
X45875000Y-93142857D01*
X45946428Y-92857142D01*
X45946428Y-92500000D01*
X45875000Y-92214285D01*
X45803571Y-92071428D01*
X45732142Y-92000000D01*
X45589285Y-91928571D01*
X43803571Y-91928571D02*
X44089285Y-91928571D01*
X44232142Y-92000000D01*
X44303571Y-92071428D01*
X44446428Y-92285714D01*
X44517857Y-92571428D01*
X44517857Y-93142857D01*
X44446428Y-93285714D01*
X44375000Y-93357142D01*
X44232142Y-93428571D01*
X43946428Y-93428571D01*
X43803571Y-93357142D01*
X43732142Y-93285714D01*
X43660714Y-93142857D01*
X43660714Y-92785714D01*
X43732142Y-92642857D01*
X43803571Y-92571428D01*
X43946428Y-92500000D01*
X44232142Y-92500000D01*
X44375000Y-92571428D01*
X44446428Y-92642857D01*
X44517857Y-92785714D01*
X49089285Y-94407142D02*
X50375000Y-96335714D01*
X48660714Y-95907142D02*
X48446428Y-95978571D01*
X48089285Y-95978571D01*
X47946428Y-95907142D01*
X47875000Y-95835714D01*
X47803571Y-95692857D01*
X47803571Y-95550000D01*
X47875000Y-95407142D01*
X47946428Y-95335714D01*
X48089285Y-95264285D01*
X48375000Y-95192857D01*
X48517857Y-95121428D01*
X48589285Y-95050000D01*
X48660714Y-94907142D01*
X48660714Y-94764285D01*
X48589285Y-94621428D01*
X48517857Y-94550000D01*
X48375000Y-94478571D01*
X48017857Y-94478571D01*
X47803571Y-94550000D01*
X46875000Y-95264285D02*
X46875000Y-95978571D01*
X47375000Y-94478571D02*
X46875000Y-95264285D01*
X46375000Y-94478571D01*
X45589285Y-94478571D02*
X45446428Y-94478571D01*
X45303571Y-94550000D01*
X45232142Y-94621428D01*
X45160714Y-94764285D01*
X45089285Y-95050000D01*
X45089285Y-95407142D01*
X45160714Y-95692857D01*
X45232142Y-95835714D01*
X45303571Y-95907142D01*
X45446428Y-95978571D01*
X45589285Y-95978571D01*
X45732142Y-95907142D01*
X45803571Y-95835714D01*
X45875000Y-95692857D01*
X45946428Y-95407142D01*
X45946428Y-95050000D01*
X45875000Y-94764285D01*
X45803571Y-94621428D01*
X45732142Y-94550000D01*
X45589285Y-94478571D01*
X43803571Y-94978571D02*
X43803571Y-95978571D01*
X44160714Y-94407142D02*
X44517857Y-95478571D01*
X43589285Y-95478571D01*
X49089285Y-96957142D02*
X50375000Y-98885714D01*
X48660714Y-98457142D02*
X48446428Y-98528571D01*
X48089285Y-98528571D01*
X47946428Y-98457142D01*
X47875000Y-98385714D01*
X47803571Y-98242857D01*
X47803571Y-98100000D01*
X47875000Y-97957142D01*
X47946428Y-97885714D01*
X48089285Y-97814285D01*
X48375000Y-97742857D01*
X48517857Y-97671428D01*
X48589285Y-97600000D01*
X48660714Y-97457142D01*
X48660714Y-97314285D01*
X48589285Y-97171428D01*
X48517857Y-97100000D01*
X48375000Y-97028571D01*
X48017857Y-97028571D01*
X47803571Y-97100000D01*
X46875000Y-97814285D02*
X46875000Y-98528571D01*
X47375000Y-97028571D02*
X46875000Y-97814285D01*
X46375000Y-97028571D01*
X45589285Y-97028571D02*
X45446428Y-97028571D01*
X45303571Y-97100000D01*
X45232142Y-97171428D01*
X45160714Y-97314285D01*
X45089285Y-97600000D01*
X45089285Y-97957142D01*
X45160714Y-98242857D01*
X45232142Y-98385714D01*
X45303571Y-98457142D01*
X45446428Y-98528571D01*
X45589285Y-98528571D01*
X45732142Y-98457142D01*
X45803571Y-98385714D01*
X45875000Y-98242857D01*
X45946428Y-97957142D01*
X45946428Y-97600000D01*
X45875000Y-97314285D01*
X45803571Y-97171428D01*
X45732142Y-97100000D01*
X45589285Y-97028571D01*
X44589285Y-97028571D02*
X43660714Y-97028571D01*
X44160714Y-97600000D01*
X43946428Y-97600000D01*
X43803571Y-97671428D01*
X43732142Y-97742857D01*
X43660714Y-97885714D01*
X43660714Y-98242857D01*
X43732142Y-98385714D01*
X43803571Y-98457142D01*
X43946428Y-98528571D01*
X44375000Y-98528571D01*
X44517857Y-98457142D01*
X44589285Y-98385714D01*
X49089285Y-99507142D02*
X50375000Y-101435714D01*
X48660714Y-101007142D02*
X48446428Y-101078571D01*
X48089285Y-101078571D01*
X47946428Y-101007142D01*
X47875000Y-100935714D01*
X47803571Y-100792857D01*
X47803571Y-100650000D01*
X47875000Y-100507142D01*
X47946428Y-100435714D01*
X48089285Y-100364285D01*
X48375000Y-100292857D01*
X48517857Y-100221428D01*
X48589285Y-100150000D01*
X48660714Y-100007142D01*
X48660714Y-99864285D01*
X48589285Y-99721428D01*
X48517857Y-99650000D01*
X48375000Y-99578571D01*
X48017857Y-99578571D01*
X47803571Y-99650000D01*
X46875000Y-100364285D02*
X46875000Y-101078571D01*
X47375000Y-99578571D02*
X46875000Y-100364285D01*
X46375000Y-99578571D01*
X45589285Y-99578571D02*
X45446428Y-99578571D01*
X45303571Y-99650000D01*
X45232142Y-99721428D01*
X45160714Y-99864285D01*
X45089285Y-100150000D01*
X45089285Y-100507142D01*
X45160714Y-100792857D01*
X45232142Y-100935714D01*
X45303571Y-101007142D01*
X45446428Y-101078571D01*
X45589285Y-101078571D01*
X45732142Y-101007142D01*
X45803571Y-100935714D01*
X45875000Y-100792857D01*
X45946428Y-100507142D01*
X45946428Y-100150000D01*
X45875000Y-99864285D01*
X45803571Y-99721428D01*
X45732142Y-99650000D01*
X45589285Y-99578571D01*
X44517857Y-99721428D02*
X44446428Y-99650000D01*
X44303571Y-99578571D01*
X43946428Y-99578571D01*
X43803571Y-99650000D01*
X43732142Y-99721428D01*
X43660714Y-99864285D01*
X43660714Y-100007142D01*
X43732142Y-100221428D01*
X44589285Y-101078571D01*
X43660714Y-101078571D01*
X49089285Y-102057142D02*
X50375000Y-103985714D01*
X48660714Y-103557142D02*
X48446428Y-103628571D01*
X48089285Y-103628571D01*
X47946428Y-103557142D01*
X47875000Y-103485714D01*
X47803571Y-103342857D01*
X47803571Y-103200000D01*
X47875000Y-103057142D01*
X47946428Y-102985714D01*
X48089285Y-102914285D01*
X48375000Y-102842857D01*
X48517857Y-102771428D01*
X48589285Y-102700000D01*
X48660714Y-102557142D01*
X48660714Y-102414285D01*
X48589285Y-102271428D01*
X48517857Y-102200000D01*
X48375000Y-102128571D01*
X48017857Y-102128571D01*
X47803571Y-102200000D01*
X46875000Y-102914285D02*
X46875000Y-103628571D01*
X47375000Y-102128571D02*
X46875000Y-102914285D01*
X46375000Y-102128571D01*
X45589285Y-102128571D02*
X45446428Y-102128571D01*
X45303571Y-102200000D01*
X45232142Y-102271428D01*
X45160714Y-102414285D01*
X45089285Y-102700000D01*
X45089285Y-103057142D01*
X45160714Y-103342857D01*
X45232142Y-103485714D01*
X45303571Y-103557142D01*
X45446428Y-103628571D01*
X45589285Y-103628571D01*
X45732142Y-103557142D01*
X45803571Y-103485714D01*
X45875000Y-103342857D01*
X45946428Y-103057142D01*
X45946428Y-102700000D01*
X45875000Y-102414285D01*
X45803571Y-102271428D01*
X45732142Y-102200000D01*
X45589285Y-102128571D01*
X43660714Y-103628571D02*
X44517857Y-103628571D01*
X44089285Y-103628571D02*
X44089285Y-102128571D01*
X44232142Y-102342857D01*
X44375000Y-102485714D01*
X44517857Y-102557142D01*
X38332142Y-31936714D02*
X40260714Y-30651000D01*
X39832142Y-32365285D02*
X39903571Y-32579571D01*
X39903571Y-32936714D01*
X39832142Y-33079571D01*
X39760714Y-33151000D01*
X39617857Y-33222428D01*
X39475000Y-33222428D01*
X39332142Y-33151000D01*
X39260714Y-33079571D01*
X39189285Y-32936714D01*
X39117857Y-32651000D01*
X39046428Y-32508142D01*
X38975000Y-32436714D01*
X38832142Y-32365285D01*
X38689285Y-32365285D01*
X38546428Y-32436714D01*
X38475000Y-32508142D01*
X38403571Y-32651000D01*
X38403571Y-33008142D01*
X38475000Y-33222428D01*
X39189285Y-34151000D02*
X39903571Y-34151000D01*
X38403571Y-33651000D02*
X39189285Y-34151000D01*
X38403571Y-34651000D01*
X39903571Y-35936714D02*
X39903571Y-35079571D01*
X39903571Y-35508142D02*
X38403571Y-35508142D01*
X38617857Y-35365285D01*
X38760714Y-35222428D01*
X38832142Y-35079571D01*
X38546428Y-36508142D02*
X38475000Y-36579571D01*
X38403571Y-36722428D01*
X38403571Y-37079571D01*
X38475000Y-37222428D01*
X38546428Y-37293857D01*
X38689285Y-37365285D01*
X38832142Y-37365285D01*
X39046428Y-37293857D01*
X39903571Y-36436714D01*
X39903571Y-37365285D01*
X42453571Y-33222428D02*
X41739285Y-32722428D01*
X42453571Y-32365285D02*
X40953571Y-32365285D01*
X40953571Y-32936714D01*
X41025000Y-33079571D01*
X41096428Y-33151000D01*
X41239285Y-33222428D01*
X41453571Y-33222428D01*
X41596428Y-33151000D01*
X41667857Y-33079571D01*
X41739285Y-32936714D01*
X41739285Y-32365285D01*
X41739285Y-34151000D02*
X42453571Y-34151000D01*
X40953571Y-33651000D02*
X41739285Y-34151000D01*
X40953571Y-34651000D01*
X42453571Y-35936714D02*
X42453571Y-35079571D01*
X42453571Y-35508142D02*
X40953571Y-35508142D01*
X41167857Y-35365285D01*
X41310714Y-35222428D01*
X41382142Y-35079571D01*
X41096428Y-36508142D02*
X41025000Y-36579571D01*
X40953571Y-36722428D01*
X40953571Y-37079571D01*
X41025000Y-37222428D01*
X41096428Y-37293857D01*
X41239285Y-37365285D01*
X41382142Y-37365285D01*
X41596428Y-37293857D01*
X42453571Y-36436714D01*
X42453571Y-37365285D01*
X43503571Y-33579571D02*
X45003571Y-34579571D01*
X43503571Y-34579571D02*
X45003571Y-33579571D01*
X43503571Y-35436714D02*
X43503571Y-35579571D01*
X43575000Y-35722428D01*
X43646428Y-35793857D01*
X43789285Y-35865285D01*
X44075000Y-35936714D01*
X44432142Y-35936714D01*
X44717857Y-35865285D01*
X44860714Y-35793857D01*
X44932142Y-35722428D01*
X45003571Y-35579571D01*
X45003571Y-35436714D01*
X44932142Y-35293857D01*
X44860714Y-35222428D01*
X44717857Y-35151000D01*
X44432142Y-35079571D01*
X44075000Y-35079571D01*
X43789285Y-35151000D01*
X43646428Y-35222428D01*
X43575000Y-35293857D01*
X43503571Y-35436714D01*
X43503571Y-36436714D02*
X43503571Y-37365285D01*
X44075000Y-36865285D01*
X44075000Y-37079571D01*
X44146428Y-37222428D01*
X44217857Y-37293857D01*
X44360714Y-37365285D01*
X44717857Y-37365285D01*
X44860714Y-37293857D01*
X44932142Y-37222428D01*
X45003571Y-37079571D01*
X45003571Y-36651000D01*
X44932142Y-36508142D01*
X44860714Y-36436714D01*
X46053571Y-33579571D02*
X47553571Y-34579571D01*
X46053571Y-34579571D02*
X47553571Y-33579571D01*
X46053571Y-35436714D02*
X46053571Y-35579571D01*
X46125000Y-35722428D01*
X46196428Y-35793857D01*
X46339285Y-35865285D01*
X46625000Y-35936714D01*
X46982142Y-35936714D01*
X47267857Y-35865285D01*
X47410714Y-35793857D01*
X47482142Y-35722428D01*
X47553571Y-35579571D01*
X47553571Y-35436714D01*
X47482142Y-35293857D01*
X47410714Y-35222428D01*
X47267857Y-35151000D01*
X46982142Y-35079571D01*
X46625000Y-35079571D01*
X46339285Y-35151000D01*
X46196428Y-35222428D01*
X46125000Y-35293857D01*
X46053571Y-35436714D01*
X46196428Y-36508142D02*
X46125000Y-36579571D01*
X46053571Y-36722428D01*
X46053571Y-37079571D01*
X46125000Y-37222428D01*
X46196428Y-37293857D01*
X46339285Y-37365285D01*
X46482142Y-37365285D01*
X46696428Y-37293857D01*
X47553571Y-36436714D01*
X47553571Y-37365285D01*
X48603571Y-33579571D02*
X50103571Y-34579571D01*
X48603571Y-34579571D02*
X50103571Y-33579571D01*
X48603571Y-35436714D02*
X48603571Y-35579571D01*
X48675000Y-35722428D01*
X48746428Y-35793857D01*
X48889285Y-35865285D01*
X49175000Y-35936714D01*
X49532142Y-35936714D01*
X49817857Y-35865285D01*
X49960714Y-35793857D01*
X50032142Y-35722428D01*
X50103571Y-35579571D01*
X50103571Y-35436714D01*
X50032142Y-35293857D01*
X49960714Y-35222428D01*
X49817857Y-35151000D01*
X49532142Y-35079571D01*
X49175000Y-35079571D01*
X48889285Y-35151000D01*
X48746428Y-35222428D01*
X48675000Y-35293857D01*
X48603571Y-35436714D01*
X50103571Y-37365285D02*
X50103571Y-36508142D01*
X50103571Y-36936714D02*
X48603571Y-36936714D01*
X48817857Y-36793857D01*
X48960714Y-36651000D01*
X49032142Y-36508142D01*
X51153571Y-33579571D02*
X52653571Y-34579571D01*
X51153571Y-34579571D02*
X52653571Y-33579571D01*
X51153571Y-35436714D02*
X51153571Y-35579571D01*
X51225000Y-35722428D01*
X51296428Y-35793857D01*
X51439285Y-35865285D01*
X51725000Y-35936714D01*
X52082142Y-35936714D01*
X52367857Y-35865285D01*
X52510714Y-35793857D01*
X52582142Y-35722428D01*
X52653571Y-35579571D01*
X52653571Y-35436714D01*
X52582142Y-35293857D01*
X52510714Y-35222428D01*
X52367857Y-35151000D01*
X52082142Y-35079571D01*
X51725000Y-35079571D01*
X51439285Y-35151000D01*
X51296428Y-35222428D01*
X51225000Y-35293857D01*
X51153571Y-35436714D01*
X52653571Y-36651000D02*
X52653571Y-36936714D01*
X52582142Y-37079571D01*
X52510714Y-37151000D01*
X52296428Y-37293857D01*
X52010714Y-37365285D01*
X51439285Y-37365285D01*
X51296428Y-37293857D01*
X51225000Y-37222428D01*
X51153571Y-37079571D01*
X51153571Y-36793857D01*
X51225000Y-36651000D01*
X51296428Y-36579571D01*
X51439285Y-36508142D01*
X51796428Y-36508142D01*
X51939285Y-36579571D01*
X52010714Y-36651000D01*
X52082142Y-36793857D01*
X52082142Y-37079571D01*
X52010714Y-37222428D01*
X51939285Y-37293857D01*
X51796428Y-37365285D01*
X55203571Y-33222428D02*
X54489285Y-32722428D01*
X55203571Y-32365285D02*
X53703571Y-32365285D01*
X53703571Y-32936714D01*
X53775000Y-33079571D01*
X53846428Y-33151000D01*
X53989285Y-33222428D01*
X54203571Y-33222428D01*
X54346428Y-33151000D01*
X54417857Y-33079571D01*
X54489285Y-32936714D01*
X54489285Y-32365285D01*
X54489285Y-34151000D02*
X55203571Y-34151000D01*
X53703571Y-33651000D02*
X54489285Y-34151000D01*
X53703571Y-34651000D01*
X55203571Y-35936714D02*
X55203571Y-35079571D01*
X55203571Y-35508142D02*
X53703571Y-35508142D01*
X53917857Y-35365285D01*
X54060714Y-35222428D01*
X54132142Y-35079571D01*
X53703571Y-36436714D02*
X53703571Y-37365285D01*
X54275000Y-36865285D01*
X54275000Y-37079571D01*
X54346428Y-37222428D01*
X54417857Y-37293857D01*
X54560714Y-37365285D01*
X54917857Y-37365285D01*
X55060714Y-37293857D01*
X55132142Y-37222428D01*
X55203571Y-37079571D01*
X55203571Y-36651000D01*
X55132142Y-36508142D01*
X55060714Y-36436714D01*
X56182142Y-31936714D02*
X58110714Y-30651000D01*
X57682142Y-32365285D02*
X57753571Y-32579571D01*
X57753571Y-32936714D01*
X57682142Y-33079571D01*
X57610714Y-33151000D01*
X57467857Y-33222428D01*
X57325000Y-33222428D01*
X57182142Y-33151000D01*
X57110714Y-33079571D01*
X57039285Y-32936714D01*
X56967857Y-32651000D01*
X56896428Y-32508142D01*
X56825000Y-32436714D01*
X56682142Y-32365285D01*
X56539285Y-32365285D01*
X56396428Y-32436714D01*
X56325000Y-32508142D01*
X56253571Y-32651000D01*
X56253571Y-33008142D01*
X56325000Y-33222428D01*
X57039285Y-34151000D02*
X57753571Y-34151000D01*
X56253571Y-33651000D02*
X57039285Y-34151000D01*
X56253571Y-34651000D01*
X57753571Y-35936714D02*
X57753571Y-35079571D01*
X57753571Y-35508142D02*
X56253571Y-35508142D01*
X56467857Y-35365285D01*
X56610714Y-35222428D01*
X56682142Y-35079571D01*
X56253571Y-36436714D02*
X56253571Y-37365285D01*
X56825000Y-36865285D01*
X56825000Y-37079571D01*
X56896428Y-37222428D01*
X56967857Y-37293857D01*
X57110714Y-37365285D01*
X57467857Y-37365285D01*
X57610714Y-37293857D01*
X57682142Y-37222428D01*
X57753571Y-37079571D01*
X57753571Y-36651000D01*
X57682142Y-36508142D01*
X57610714Y-36436714D01*
X58803571Y-33579571D02*
X60303571Y-34579571D01*
X58803571Y-34579571D02*
X60303571Y-33579571D01*
X58803571Y-35436714D02*
X58803571Y-35579571D01*
X58875000Y-35722428D01*
X58946428Y-35793857D01*
X59089285Y-35865285D01*
X59375000Y-35936714D01*
X59732142Y-35936714D01*
X60017857Y-35865285D01*
X60160714Y-35793857D01*
X60232142Y-35722428D01*
X60303571Y-35579571D01*
X60303571Y-35436714D01*
X60232142Y-35293857D01*
X60160714Y-35222428D01*
X60017857Y-35151000D01*
X59732142Y-35079571D01*
X59375000Y-35079571D01*
X59089285Y-35151000D01*
X58946428Y-35222428D01*
X58875000Y-35293857D01*
X58803571Y-35436714D01*
X59446428Y-36793857D02*
X59375000Y-36651000D01*
X59303571Y-36579571D01*
X59160714Y-36508142D01*
X59089285Y-36508142D01*
X58946428Y-36579571D01*
X58875000Y-36651000D01*
X58803571Y-36793857D01*
X58803571Y-37079571D01*
X58875000Y-37222428D01*
X58946428Y-37293857D01*
X59089285Y-37365285D01*
X59160714Y-37365285D01*
X59303571Y-37293857D01*
X59375000Y-37222428D01*
X59446428Y-37079571D01*
X59446428Y-36793857D01*
X59517857Y-36651000D01*
X59589285Y-36579571D01*
X59732142Y-36508142D01*
X60017857Y-36508142D01*
X60160714Y-36579571D01*
X60232142Y-36651000D01*
X60303571Y-36793857D01*
X60303571Y-37079571D01*
X60232142Y-37222428D01*
X60160714Y-37293857D01*
X60017857Y-37365285D01*
X59732142Y-37365285D01*
X59589285Y-37293857D01*
X59517857Y-37222428D01*
X59446428Y-37079571D01*
X61353571Y-33579571D02*
X62853571Y-34579571D01*
X61353571Y-34579571D02*
X62853571Y-33579571D01*
X61353571Y-35436714D02*
X61353571Y-35579571D01*
X61425000Y-35722428D01*
X61496428Y-35793857D01*
X61639285Y-35865285D01*
X61925000Y-35936714D01*
X62282142Y-35936714D01*
X62567857Y-35865285D01*
X62710714Y-35793857D01*
X62782142Y-35722428D01*
X62853571Y-35579571D01*
X62853571Y-35436714D01*
X62782142Y-35293857D01*
X62710714Y-35222428D01*
X62567857Y-35151000D01*
X62282142Y-35079571D01*
X61925000Y-35079571D01*
X61639285Y-35151000D01*
X61496428Y-35222428D01*
X61425000Y-35293857D01*
X61353571Y-35436714D01*
X61353571Y-36436714D02*
X61353571Y-37436714D01*
X62853571Y-36793857D01*
X63903571Y-33579571D02*
X65403571Y-34579571D01*
X63903571Y-34579571D02*
X65403571Y-33579571D01*
X63903571Y-35436714D02*
X63903571Y-35579571D01*
X63975000Y-35722428D01*
X64046428Y-35793857D01*
X64189285Y-35865285D01*
X64475000Y-35936714D01*
X64832142Y-35936714D01*
X65117857Y-35865285D01*
X65260714Y-35793857D01*
X65332142Y-35722428D01*
X65403571Y-35579571D01*
X65403571Y-35436714D01*
X65332142Y-35293857D01*
X65260714Y-35222428D01*
X65117857Y-35151000D01*
X64832142Y-35079571D01*
X64475000Y-35079571D01*
X64189285Y-35151000D01*
X64046428Y-35222428D01*
X63975000Y-35293857D01*
X63903571Y-35436714D01*
X63903571Y-37222428D02*
X63903571Y-36936714D01*
X63975000Y-36793857D01*
X64046428Y-36722428D01*
X64260714Y-36579571D01*
X64546428Y-36508142D01*
X65117857Y-36508142D01*
X65260714Y-36579571D01*
X65332142Y-36651000D01*
X65403571Y-36793857D01*
X65403571Y-37079571D01*
X65332142Y-37222428D01*
X65260714Y-37293857D01*
X65117857Y-37365285D01*
X64760714Y-37365285D01*
X64617857Y-37293857D01*
X64546428Y-37222428D01*
X64475000Y-37079571D01*
X64475000Y-36793857D01*
X64546428Y-36651000D01*
X64617857Y-36579571D01*
X64760714Y-36508142D01*
X66453571Y-33579571D02*
X67953571Y-34579571D01*
X66453571Y-34579571D02*
X67953571Y-33579571D01*
X66453571Y-35436714D02*
X66453571Y-35579571D01*
X66525000Y-35722428D01*
X66596428Y-35793857D01*
X66739285Y-35865285D01*
X67025000Y-35936714D01*
X67382142Y-35936714D01*
X67667857Y-35865285D01*
X67810714Y-35793857D01*
X67882142Y-35722428D01*
X67953571Y-35579571D01*
X67953571Y-35436714D01*
X67882142Y-35293857D01*
X67810714Y-35222428D01*
X67667857Y-35151000D01*
X67382142Y-35079571D01*
X67025000Y-35079571D01*
X66739285Y-35151000D01*
X66596428Y-35222428D01*
X66525000Y-35293857D01*
X66453571Y-35436714D01*
X66453571Y-37293857D02*
X66453571Y-36579571D01*
X67167857Y-36508142D01*
X67096428Y-36579571D01*
X67025000Y-36722428D01*
X67025000Y-37079571D01*
X67096428Y-37222428D01*
X67167857Y-37293857D01*
X67310714Y-37365285D01*
X67667857Y-37365285D01*
X67810714Y-37293857D01*
X67882142Y-37222428D01*
X67953571Y-37079571D01*
X67953571Y-36722428D01*
X67882142Y-36579571D01*
X67810714Y-36508142D01*
X68932142Y-31936714D02*
X70860714Y-30651000D01*
X70432142Y-32365285D02*
X70503571Y-32579571D01*
X70503571Y-32936714D01*
X70432142Y-33079571D01*
X70360714Y-33151000D01*
X70217857Y-33222428D01*
X70075000Y-33222428D01*
X69932142Y-33151000D01*
X69860714Y-33079571D01*
X69789285Y-32936714D01*
X69717857Y-32651000D01*
X69646428Y-32508142D01*
X69575000Y-32436714D01*
X69432142Y-32365285D01*
X69289285Y-32365285D01*
X69146428Y-32436714D01*
X69075000Y-32508142D01*
X69003571Y-32651000D01*
X69003571Y-33008142D01*
X69075000Y-33222428D01*
X69789285Y-34151000D02*
X70503571Y-34151000D01*
X69003571Y-33651000D02*
X69789285Y-34151000D01*
X69003571Y-34651000D01*
X70503571Y-35936714D02*
X70503571Y-35079571D01*
X70503571Y-35508142D02*
X69003571Y-35508142D01*
X69217857Y-35365285D01*
X69360714Y-35222428D01*
X69432142Y-35079571D01*
X69003571Y-36865285D02*
X69003571Y-37008142D01*
X69075000Y-37151000D01*
X69146428Y-37222428D01*
X69289285Y-37293857D01*
X69575000Y-37365285D01*
X69932142Y-37365285D01*
X70217857Y-37293857D01*
X70360714Y-37222428D01*
X70432142Y-37151000D01*
X70503571Y-37008142D01*
X70503571Y-36865285D01*
X70432142Y-36722428D01*
X70360714Y-36651000D01*
X70217857Y-36579571D01*
X69932142Y-36508142D01*
X69575000Y-36508142D01*
X69289285Y-36579571D01*
X69146428Y-36651000D01*
X69075000Y-36722428D01*
X69003571Y-36865285D01*
X71553571Y-31008142D02*
X73053571Y-32008142D01*
X71553571Y-32008142D02*
X73053571Y-31008142D01*
X71553571Y-32865285D02*
X71553571Y-33008142D01*
X71625000Y-33151000D01*
X71696428Y-33222428D01*
X71839285Y-33293857D01*
X72125000Y-33365285D01*
X72482142Y-33365285D01*
X72767857Y-33293857D01*
X72910714Y-33222428D01*
X72982142Y-33151000D01*
X73053571Y-33008142D01*
X73053571Y-32865285D01*
X72982142Y-32722428D01*
X72910714Y-32651000D01*
X72767857Y-32579571D01*
X72482142Y-32508142D01*
X72125000Y-32508142D01*
X71839285Y-32579571D01*
X71696428Y-32651000D01*
X71625000Y-32722428D01*
X71553571Y-32865285D01*
X72053571Y-34651000D02*
X73053571Y-34651000D01*
X71482142Y-34293857D02*
X72553571Y-33936714D01*
X72553571Y-34865285D01*
X72982142Y-35508142D02*
X73053571Y-35508142D01*
X73196428Y-35436714D01*
X73267857Y-35365285D01*
X72125000Y-35436714D02*
X72196428Y-35508142D01*
X72267857Y-35436714D01*
X72196428Y-35365285D01*
X72125000Y-35436714D01*
X72267857Y-35436714D01*
X72482142Y-36151000D02*
X72482142Y-37293857D01*
X75603571Y-33222428D02*
X74889285Y-32722428D01*
X75603571Y-32365285D02*
X74103571Y-32365285D01*
X74103571Y-32936714D01*
X74175000Y-33079571D01*
X74246428Y-33151000D01*
X74389285Y-33222428D01*
X74603571Y-33222428D01*
X74746428Y-33151000D01*
X74817857Y-33079571D01*
X74889285Y-32936714D01*
X74889285Y-32365285D01*
X74889285Y-34151000D02*
X75603571Y-34151000D01*
X74103571Y-33651000D02*
X74889285Y-34151000D01*
X74103571Y-34651000D01*
X75603571Y-35936714D02*
X75603571Y-35079571D01*
X75603571Y-35508142D02*
X74103571Y-35508142D01*
X74317857Y-35365285D01*
X74460714Y-35222428D01*
X74532142Y-35079571D01*
X74103571Y-36865285D02*
X74103571Y-37008142D01*
X74175000Y-37151000D01*
X74246428Y-37222428D01*
X74389285Y-37293857D01*
X74675000Y-37365285D01*
X75032142Y-37365285D01*
X75317857Y-37293857D01*
X75460714Y-37222428D01*
X75532142Y-37151000D01*
X75603571Y-37008142D01*
X75603571Y-36865285D01*
X75532142Y-36722428D01*
X75460714Y-36651000D01*
X75317857Y-36579571D01*
X75032142Y-36508142D01*
X74675000Y-36508142D01*
X74389285Y-36579571D01*
X74246428Y-36651000D01*
X74175000Y-36722428D01*
X74103571Y-36865285D01*
X76653571Y-33579571D02*
X78153571Y-34579571D01*
X76653571Y-34579571D02*
X78153571Y-33579571D01*
X76796428Y-35079571D02*
X76725000Y-35151000D01*
X76653571Y-35293857D01*
X76653571Y-35651000D01*
X76725000Y-35793857D01*
X76796428Y-35865285D01*
X76939285Y-35936714D01*
X77082142Y-35936714D01*
X77296428Y-35865285D01*
X78153571Y-35008142D01*
X78153571Y-35936714D01*
X76653571Y-37293857D02*
X76653571Y-36579571D01*
X77367857Y-36508142D01*
X77296428Y-36579571D01*
X77225000Y-36722428D01*
X77225000Y-37079571D01*
X77296428Y-37222428D01*
X77367857Y-37293857D01*
X77510714Y-37365285D01*
X77867857Y-37365285D01*
X78010714Y-37293857D01*
X78082142Y-37222428D01*
X78153571Y-37079571D01*
X78153571Y-36722428D01*
X78082142Y-36579571D01*
X78010714Y-36508142D01*
X79203571Y-33579571D02*
X80703571Y-34579571D01*
X79203571Y-34579571D02*
X80703571Y-33579571D01*
X79346428Y-35079571D02*
X79275000Y-35151000D01*
X79203571Y-35293857D01*
X79203571Y-35651000D01*
X79275000Y-35793857D01*
X79346428Y-35865285D01*
X79489285Y-35936714D01*
X79632142Y-35936714D01*
X79846428Y-35865285D01*
X80703571Y-35008142D01*
X80703571Y-35936714D01*
X79703571Y-37222428D02*
X80703571Y-37222428D01*
X79132142Y-36865285D02*
X80203571Y-36508142D01*
X80203571Y-37436714D01*
X81753571Y-33579571D02*
X83253571Y-34579571D01*
X81753571Y-34579571D02*
X83253571Y-33579571D01*
X81896428Y-35079571D02*
X81825000Y-35151000D01*
X81753571Y-35293857D01*
X81753571Y-35651000D01*
X81825000Y-35793857D01*
X81896428Y-35865285D01*
X82039285Y-35936714D01*
X82182142Y-35936714D01*
X82396428Y-35865285D01*
X83253571Y-35008142D01*
X83253571Y-35936714D01*
X81753571Y-36436714D02*
X81753571Y-37365285D01*
X82325000Y-36865285D01*
X82325000Y-37079571D01*
X82396428Y-37222428D01*
X82467857Y-37293857D01*
X82610714Y-37365285D01*
X82967857Y-37365285D01*
X83110714Y-37293857D01*
X83182142Y-37222428D01*
X83253571Y-37079571D01*
X83253571Y-36651000D01*
X83182142Y-36508142D01*
X83110714Y-36436714D01*
X84232142Y-31936714D02*
X86160714Y-30651000D01*
X85732142Y-32365285D02*
X85803571Y-32579571D01*
X85803571Y-32936714D01*
X85732142Y-33079571D01*
X85660714Y-33151000D01*
X85517857Y-33222428D01*
X85375000Y-33222428D01*
X85232142Y-33151000D01*
X85160714Y-33079571D01*
X85089285Y-32936714D01*
X85017857Y-32651000D01*
X84946428Y-32508142D01*
X84875000Y-32436714D01*
X84732142Y-32365285D01*
X84589285Y-32365285D01*
X84446428Y-32436714D01*
X84375000Y-32508142D01*
X84303571Y-32651000D01*
X84303571Y-33008142D01*
X84375000Y-33222428D01*
X85089285Y-34151000D02*
X85803571Y-34151000D01*
X84303571Y-33651000D02*
X85089285Y-34151000D01*
X84303571Y-34651000D01*
X85803571Y-35936714D02*
X85803571Y-35079571D01*
X85803571Y-35508142D02*
X84303571Y-35508142D01*
X84517857Y-35365285D01*
X84660714Y-35222428D01*
X84732142Y-35079571D01*
X84303571Y-37222428D02*
X84303571Y-36936714D01*
X84375000Y-36793857D01*
X84446428Y-36722428D01*
X84660714Y-36579571D01*
X84946428Y-36508142D01*
X85517857Y-36508142D01*
X85660714Y-36579571D01*
X85732142Y-36651000D01*
X85803571Y-36793857D01*
X85803571Y-37079571D01*
X85732142Y-37222428D01*
X85660714Y-37293857D01*
X85517857Y-37365285D01*
X85160714Y-37365285D01*
X85017857Y-37293857D01*
X84946428Y-37222428D01*
X84875000Y-37079571D01*
X84875000Y-36793857D01*
X84946428Y-36651000D01*
X85017857Y-36579571D01*
X85160714Y-36508142D01*
X86853571Y-33579571D02*
X88353571Y-34579571D01*
X86853571Y-34579571D02*
X88353571Y-33579571D01*
X86996428Y-35079571D02*
X86925000Y-35151000D01*
X86853571Y-35293857D01*
X86853571Y-35651000D01*
X86925000Y-35793857D01*
X86996428Y-35865285D01*
X87139285Y-35936714D01*
X87282142Y-35936714D01*
X87496428Y-35865285D01*
X88353571Y-35008142D01*
X88353571Y-35936714D01*
X86996428Y-36508142D02*
X86925000Y-36579571D01*
X86853571Y-36722428D01*
X86853571Y-37079571D01*
X86925000Y-37222428D01*
X86996428Y-37293857D01*
X87139285Y-37365285D01*
X87282142Y-37365285D01*
X87496428Y-37293857D01*
X88353571Y-36436714D01*
X88353571Y-37365285D01*
X90903571Y-33222428D02*
X90189285Y-32722428D01*
X90903571Y-32365285D02*
X89403571Y-32365285D01*
X89403571Y-32936714D01*
X89475000Y-33079571D01*
X89546428Y-33151000D01*
X89689285Y-33222428D01*
X89903571Y-33222428D01*
X90046428Y-33151000D01*
X90117857Y-33079571D01*
X90189285Y-32936714D01*
X90189285Y-32365285D01*
X90189285Y-34151000D02*
X90903571Y-34151000D01*
X89403571Y-33651000D02*
X90189285Y-34151000D01*
X89403571Y-34651000D01*
X90903571Y-35936714D02*
X90903571Y-35079571D01*
X90903571Y-35508142D02*
X89403571Y-35508142D01*
X89617857Y-35365285D01*
X89760714Y-35222428D01*
X89832142Y-35079571D01*
X89403571Y-37222428D02*
X89403571Y-36936714D01*
X89475000Y-36793857D01*
X89546428Y-36722428D01*
X89760714Y-36579571D01*
X90046428Y-36508142D01*
X90617857Y-36508142D01*
X90760714Y-36579571D01*
X90832142Y-36651000D01*
X90903571Y-36793857D01*
X90903571Y-37079571D01*
X90832142Y-37222428D01*
X90760714Y-37293857D01*
X90617857Y-37365285D01*
X90260714Y-37365285D01*
X90117857Y-37293857D01*
X90046428Y-37222428D01*
X89975000Y-37079571D01*
X89975000Y-36793857D01*
X90046428Y-36651000D01*
X90117857Y-36579571D01*
X90260714Y-36508142D01*
X93453571Y-33222428D02*
X92739285Y-32722428D01*
X93453571Y-32365285D02*
X91953571Y-32365285D01*
X91953571Y-32936714D01*
X92025000Y-33079571D01*
X92096428Y-33151000D01*
X92239285Y-33222428D01*
X92453571Y-33222428D01*
X92596428Y-33151000D01*
X92667857Y-33079571D01*
X92739285Y-32936714D01*
X92739285Y-32365285D01*
X92739285Y-34151000D02*
X93453571Y-34151000D01*
X91953571Y-33651000D02*
X92739285Y-34151000D01*
X91953571Y-34651000D01*
X93453571Y-35936714D02*
X93453571Y-35079571D01*
X93453571Y-35508142D02*
X91953571Y-35508142D01*
X92167857Y-35365285D01*
X92310714Y-35222428D01*
X92382142Y-35079571D01*
X91953571Y-37293857D02*
X91953571Y-36579571D01*
X92667857Y-36508142D01*
X92596428Y-36579571D01*
X92525000Y-36722428D01*
X92525000Y-37079571D01*
X92596428Y-37222428D01*
X92667857Y-37293857D01*
X92810714Y-37365285D01*
X93167857Y-37365285D01*
X93310714Y-37293857D01*
X93382142Y-37222428D01*
X93453571Y-37079571D01*
X93453571Y-36722428D01*
X93382142Y-36579571D01*
X93310714Y-36508142D01*
X94432142Y-31936714D02*
X96360714Y-30651000D01*
X95932142Y-32365285D02*
X96003571Y-32579571D01*
X96003571Y-32936714D01*
X95932142Y-33079571D01*
X95860714Y-33151000D01*
X95717857Y-33222428D01*
X95575000Y-33222428D01*
X95432142Y-33151000D01*
X95360714Y-33079571D01*
X95289285Y-32936714D01*
X95217857Y-32651000D01*
X95146428Y-32508142D01*
X95075000Y-32436714D01*
X94932142Y-32365285D01*
X94789285Y-32365285D01*
X94646428Y-32436714D01*
X94575000Y-32508142D01*
X94503571Y-32651000D01*
X94503571Y-33008142D01*
X94575000Y-33222428D01*
X95289285Y-34151000D02*
X96003571Y-34151000D01*
X94503571Y-33651000D02*
X95289285Y-34151000D01*
X94503571Y-34651000D01*
X96003571Y-35936714D02*
X96003571Y-35079571D01*
X96003571Y-35508142D02*
X94503571Y-35508142D01*
X94717857Y-35365285D01*
X94860714Y-35222428D01*
X94932142Y-35079571D01*
X94503571Y-37293857D02*
X94503571Y-36579571D01*
X95217857Y-36508142D01*
X95146428Y-36579571D01*
X95075000Y-36722428D01*
X95075000Y-37079571D01*
X95146428Y-37222428D01*
X95217857Y-37293857D01*
X95360714Y-37365285D01*
X95717857Y-37365285D01*
X95860714Y-37293857D01*
X95932142Y-37222428D01*
X96003571Y-37079571D01*
X96003571Y-36722428D01*
X95932142Y-36579571D01*
X95860714Y-36508142D01*
X97053571Y-33579571D02*
X98553571Y-34579571D01*
X97053571Y-34579571D02*
X98553571Y-33579571D01*
X97196428Y-35079571D02*
X97125000Y-35151000D01*
X97053571Y-35293857D01*
X97053571Y-35651000D01*
X97125000Y-35793857D01*
X97196428Y-35865285D01*
X97339285Y-35936714D01*
X97482142Y-35936714D01*
X97696428Y-35865285D01*
X98553571Y-35008142D01*
X98553571Y-35936714D01*
X97696428Y-36793857D02*
X97625000Y-36651000D01*
X97553571Y-36579571D01*
X97410714Y-36508142D01*
X97339285Y-36508142D01*
X97196428Y-36579571D01*
X97125000Y-36651000D01*
X97053571Y-36793857D01*
X97053571Y-37079571D01*
X97125000Y-37222428D01*
X97196428Y-37293857D01*
X97339285Y-37365285D01*
X97410714Y-37365285D01*
X97553571Y-37293857D01*
X97625000Y-37222428D01*
X97696428Y-37079571D01*
X97696428Y-36793857D01*
X97767857Y-36651000D01*
X97839285Y-36579571D01*
X97982142Y-36508142D01*
X98267857Y-36508142D01*
X98410714Y-36579571D01*
X98482142Y-36651000D01*
X98553571Y-36793857D01*
X98553571Y-37079571D01*
X98482142Y-37222428D01*
X98410714Y-37293857D01*
X98267857Y-37365285D01*
X97982142Y-37365285D01*
X97839285Y-37293857D01*
X97767857Y-37222428D01*
X97696428Y-37079571D01*
X99603571Y-31436714D02*
X101103571Y-32436714D01*
X99603571Y-32436714D02*
X101103571Y-31436714D01*
X99746428Y-32936714D02*
X99675000Y-33008142D01*
X99603571Y-33151000D01*
X99603571Y-33508142D01*
X99675000Y-33651000D01*
X99746428Y-33722428D01*
X99889285Y-33793857D01*
X100032142Y-33793857D01*
X100246428Y-33722428D01*
X101103571Y-32865285D01*
X101103571Y-33793857D01*
X99603571Y-34293857D02*
X99603571Y-35293857D01*
X101103571Y-34651000D01*
X101032142Y-35936714D02*
X101103571Y-35936714D01*
X101246428Y-35865285D01*
X101317857Y-35793857D01*
X100175000Y-35865285D02*
X100246428Y-35936714D01*
X100317857Y-35865285D01*
X100246428Y-35793857D01*
X100175000Y-35865285D01*
X100317857Y-35865285D01*
X100103571Y-37222428D02*
X101103571Y-37222428D01*
X99532142Y-36865285D02*
X100603571Y-36508142D01*
X100603571Y-37436714D01*
X102153571Y-33579571D02*
X103653571Y-34579571D01*
X102153571Y-34579571D02*
X103653571Y-33579571D01*
X102296428Y-35079571D02*
X102225000Y-35151000D01*
X102153571Y-35293857D01*
X102153571Y-35651000D01*
X102225000Y-35793857D01*
X102296428Y-35865285D01*
X102439285Y-35936714D01*
X102582142Y-35936714D01*
X102796428Y-35865285D01*
X103653571Y-35008142D01*
X103653571Y-35936714D01*
X102153571Y-37222428D02*
X102153571Y-36936714D01*
X102225000Y-36793857D01*
X102296428Y-36722428D01*
X102510714Y-36579571D01*
X102796428Y-36508142D01*
X103367857Y-36508142D01*
X103510714Y-36579571D01*
X103582142Y-36651000D01*
X103653571Y-36793857D01*
X103653571Y-37079571D01*
X103582142Y-37222428D01*
X103510714Y-37293857D01*
X103367857Y-37365285D01*
X103010714Y-37365285D01*
X102867857Y-37293857D01*
X102796428Y-37222428D01*
X102725000Y-37079571D01*
X102725000Y-36793857D01*
X102796428Y-36651000D01*
X102867857Y-36579571D01*
X103010714Y-36508142D01*
X104703571Y-33579571D02*
X106203571Y-34579571D01*
X104703571Y-34579571D02*
X106203571Y-33579571D01*
X104846428Y-35079571D02*
X104775000Y-35151000D01*
X104703571Y-35293857D01*
X104703571Y-35651000D01*
X104775000Y-35793857D01*
X104846428Y-35865285D01*
X104989285Y-35936714D01*
X105132142Y-35936714D01*
X105346428Y-35865285D01*
X106203571Y-35008142D01*
X106203571Y-35936714D01*
X106203571Y-37365285D02*
X106203571Y-36508142D01*
X106203571Y-36936714D02*
X104703571Y-36936714D01*
X104917857Y-36793857D01*
X105060714Y-36651000D01*
X105132142Y-36508142D01*
X108753571Y-33222428D02*
X108039285Y-32722428D01*
X108753571Y-32365285D02*
X107253571Y-32365285D01*
X107253571Y-32936714D01*
X107325000Y-33079571D01*
X107396428Y-33151000D01*
X107539285Y-33222428D01*
X107753571Y-33222428D01*
X107896428Y-33151000D01*
X107967857Y-33079571D01*
X108039285Y-32936714D01*
X108039285Y-32365285D01*
X108039285Y-34151000D02*
X108753571Y-34151000D01*
X107253571Y-33651000D02*
X108039285Y-34151000D01*
X107253571Y-34651000D01*
X108753571Y-35936714D02*
X108753571Y-35079571D01*
X108753571Y-35508142D02*
X107253571Y-35508142D01*
X107467857Y-35365285D01*
X107610714Y-35222428D01*
X107682142Y-35079571D01*
X108753571Y-37365285D02*
X108753571Y-36508142D01*
X108753571Y-36936714D02*
X107253571Y-36936714D01*
X107467857Y-36793857D01*
X107610714Y-36651000D01*
X107682142Y-36508142D01*
X109803571Y-33579571D02*
X111303571Y-34579571D01*
X109803571Y-34579571D02*
X111303571Y-33579571D01*
X109946428Y-35079571D02*
X109875000Y-35151000D01*
X109803571Y-35293857D01*
X109803571Y-35651000D01*
X109875000Y-35793857D01*
X109946428Y-35865285D01*
X110089285Y-35936714D01*
X110232142Y-35936714D01*
X110446428Y-35865285D01*
X111303571Y-35008142D01*
X111303571Y-35936714D01*
X109803571Y-36865285D02*
X109803571Y-37008142D01*
X109875000Y-37151000D01*
X109946428Y-37222428D01*
X110089285Y-37293857D01*
X110375000Y-37365285D01*
X110732142Y-37365285D01*
X111017857Y-37293857D01*
X111160714Y-37222428D01*
X111232142Y-37151000D01*
X111303571Y-37008142D01*
X111303571Y-36865285D01*
X111232142Y-36722428D01*
X111160714Y-36651000D01*
X111017857Y-36579571D01*
X110732142Y-36508142D01*
X110375000Y-36508142D01*
X110089285Y-36579571D01*
X109946428Y-36651000D01*
X109875000Y-36722428D01*
X109803571Y-36865285D01*
X112282142Y-31936714D02*
X114210714Y-30651000D01*
X113782142Y-32365285D02*
X113853571Y-32579571D01*
X113853571Y-32936714D01*
X113782142Y-33079571D01*
X113710714Y-33151000D01*
X113567857Y-33222428D01*
X113425000Y-33222428D01*
X113282142Y-33151000D01*
X113210714Y-33079571D01*
X113139285Y-32936714D01*
X113067857Y-32651000D01*
X112996428Y-32508142D01*
X112925000Y-32436714D01*
X112782142Y-32365285D01*
X112639285Y-32365285D01*
X112496428Y-32436714D01*
X112425000Y-32508142D01*
X112353571Y-32651000D01*
X112353571Y-33008142D01*
X112425000Y-33222428D01*
X113139285Y-34151000D02*
X113853571Y-34151000D01*
X112353571Y-33651000D02*
X113139285Y-34151000D01*
X112353571Y-34651000D01*
X113853571Y-35936714D02*
X113853571Y-35079571D01*
X113853571Y-35508142D02*
X112353571Y-35508142D01*
X112567857Y-35365285D01*
X112710714Y-35222428D01*
X112782142Y-35079571D01*
X113853571Y-37365285D02*
X113853571Y-36508142D01*
X113853571Y-36936714D02*
X112353571Y-36936714D01*
X112567857Y-36793857D01*
X112710714Y-36651000D01*
X112782142Y-36508142D01*
X38403571Y-45263571D02*
X39903571Y-46263571D01*
X38403571Y-46263571D02*
X39903571Y-45263571D01*
X39903571Y-47620714D02*
X39903571Y-46763571D01*
X39903571Y-47192142D02*
X38403571Y-47192142D01*
X38617857Y-47049285D01*
X38760714Y-46906428D01*
X38832142Y-46763571D01*
X39903571Y-49049285D02*
X39903571Y-48192142D01*
X39903571Y-48620714D02*
X38403571Y-48620714D01*
X38617857Y-48477857D01*
X38760714Y-48335000D01*
X38832142Y-48192142D01*
X40882142Y-43620714D02*
X42810714Y-42335000D01*
X42382142Y-44049285D02*
X42453571Y-44263571D01*
X42453571Y-44620714D01*
X42382142Y-44763571D01*
X42310714Y-44835000D01*
X42167857Y-44906428D01*
X42025000Y-44906428D01*
X41882142Y-44835000D01*
X41810714Y-44763571D01*
X41739285Y-44620714D01*
X41667857Y-44335000D01*
X41596428Y-44192142D01*
X41525000Y-44120714D01*
X41382142Y-44049285D01*
X41239285Y-44049285D01*
X41096428Y-44120714D01*
X41025000Y-44192142D01*
X40953571Y-44335000D01*
X40953571Y-44692142D01*
X41025000Y-44906428D01*
X41739285Y-45835000D02*
X42453571Y-45835000D01*
X40953571Y-45335000D02*
X41739285Y-45835000D01*
X40953571Y-46335000D01*
X40953571Y-47120714D02*
X40953571Y-47263571D01*
X41025000Y-47406428D01*
X41096428Y-47477857D01*
X41239285Y-47549285D01*
X41525000Y-47620714D01*
X41882142Y-47620714D01*
X42167857Y-47549285D01*
X42310714Y-47477857D01*
X42382142Y-47406428D01*
X42453571Y-47263571D01*
X42453571Y-47120714D01*
X42382142Y-46977857D01*
X42310714Y-46906428D01*
X42167857Y-46835000D01*
X41882142Y-46763571D01*
X41525000Y-46763571D01*
X41239285Y-46835000D01*
X41096428Y-46906428D01*
X41025000Y-46977857D01*
X40953571Y-47120714D01*
X40953571Y-48120714D02*
X40953571Y-49120714D01*
X42453571Y-48477857D01*
X45003571Y-44906428D02*
X44289285Y-44406428D01*
X45003571Y-44049285D02*
X43503571Y-44049285D01*
X43503571Y-44620714D01*
X43575000Y-44763571D01*
X43646428Y-44835000D01*
X43789285Y-44906428D01*
X44003571Y-44906428D01*
X44146428Y-44835000D01*
X44217857Y-44763571D01*
X44289285Y-44620714D01*
X44289285Y-44049285D01*
X44289285Y-45835000D02*
X45003571Y-45835000D01*
X43503571Y-45335000D02*
X44289285Y-45835000D01*
X43503571Y-46335000D01*
X43503571Y-47120714D02*
X43503571Y-47263571D01*
X43575000Y-47406428D01*
X43646428Y-47477857D01*
X43789285Y-47549285D01*
X44075000Y-47620714D01*
X44432142Y-47620714D01*
X44717857Y-47549285D01*
X44860714Y-47477857D01*
X44932142Y-47406428D01*
X45003571Y-47263571D01*
X45003571Y-47120714D01*
X44932142Y-46977857D01*
X44860714Y-46906428D01*
X44717857Y-46835000D01*
X44432142Y-46763571D01*
X44075000Y-46763571D01*
X43789285Y-46835000D01*
X43646428Y-46906428D01*
X43575000Y-46977857D01*
X43503571Y-47120714D01*
X43503571Y-48120714D02*
X43503571Y-49120714D01*
X45003571Y-48477857D01*
X46053571Y-45263571D02*
X47553571Y-46263571D01*
X46053571Y-46263571D02*
X47553571Y-45263571D01*
X47553571Y-47620714D02*
X47553571Y-46763571D01*
X47553571Y-47192142D02*
X46053571Y-47192142D01*
X46267857Y-47049285D01*
X46410714Y-46906428D01*
X46482142Y-46763571D01*
X46196428Y-48192142D02*
X46125000Y-48263571D01*
X46053571Y-48406428D01*
X46053571Y-48763571D01*
X46125000Y-48906428D01*
X46196428Y-48977857D01*
X46339285Y-49049285D01*
X46482142Y-49049285D01*
X46696428Y-48977857D01*
X47553571Y-48120714D01*
X47553571Y-49049285D01*
X48532142Y-43620714D02*
X50460714Y-42335000D01*
X50032142Y-44049285D02*
X50103571Y-44263571D01*
X50103571Y-44620714D01*
X50032142Y-44763571D01*
X49960714Y-44835000D01*
X49817857Y-44906428D01*
X49675000Y-44906428D01*
X49532142Y-44835000D01*
X49460714Y-44763571D01*
X49389285Y-44620714D01*
X49317857Y-44335000D01*
X49246428Y-44192142D01*
X49175000Y-44120714D01*
X49032142Y-44049285D01*
X48889285Y-44049285D01*
X48746428Y-44120714D01*
X48675000Y-44192142D01*
X48603571Y-44335000D01*
X48603571Y-44692142D01*
X48675000Y-44906428D01*
X49389285Y-45835000D02*
X50103571Y-45835000D01*
X48603571Y-45335000D02*
X49389285Y-45835000D01*
X48603571Y-46335000D01*
X48603571Y-47120714D02*
X48603571Y-47263571D01*
X48675000Y-47406428D01*
X48746428Y-47477857D01*
X48889285Y-47549285D01*
X49175000Y-47620714D01*
X49532142Y-47620714D01*
X49817857Y-47549285D01*
X49960714Y-47477857D01*
X50032142Y-47406428D01*
X50103571Y-47263571D01*
X50103571Y-47120714D01*
X50032142Y-46977857D01*
X49960714Y-46906428D01*
X49817857Y-46835000D01*
X49532142Y-46763571D01*
X49175000Y-46763571D01*
X48889285Y-46835000D01*
X48746428Y-46906428D01*
X48675000Y-46977857D01*
X48603571Y-47120714D01*
X48603571Y-48906428D02*
X48603571Y-48620714D01*
X48675000Y-48477857D01*
X48746428Y-48406428D01*
X48960714Y-48263571D01*
X49246428Y-48192142D01*
X49817857Y-48192142D01*
X49960714Y-48263571D01*
X50032142Y-48335000D01*
X50103571Y-48477857D01*
X50103571Y-48763571D01*
X50032142Y-48906428D01*
X49960714Y-48977857D01*
X49817857Y-49049285D01*
X49460714Y-49049285D01*
X49317857Y-48977857D01*
X49246428Y-48906428D01*
X49175000Y-48763571D01*
X49175000Y-48477857D01*
X49246428Y-48335000D01*
X49317857Y-48263571D01*
X49460714Y-48192142D01*
X52653571Y-44906428D02*
X51939285Y-44406428D01*
X52653571Y-44049285D02*
X51153571Y-44049285D01*
X51153571Y-44620714D01*
X51225000Y-44763571D01*
X51296428Y-44835000D01*
X51439285Y-44906428D01*
X51653571Y-44906428D01*
X51796428Y-44835000D01*
X51867857Y-44763571D01*
X51939285Y-44620714D01*
X51939285Y-44049285D01*
X51939285Y-45835000D02*
X52653571Y-45835000D01*
X51153571Y-45335000D02*
X51939285Y-45835000D01*
X51153571Y-46335000D01*
X51153571Y-47120714D02*
X51153571Y-47263571D01*
X51225000Y-47406428D01*
X51296428Y-47477857D01*
X51439285Y-47549285D01*
X51725000Y-47620714D01*
X52082142Y-47620714D01*
X52367857Y-47549285D01*
X52510714Y-47477857D01*
X52582142Y-47406428D01*
X52653571Y-47263571D01*
X52653571Y-47120714D01*
X52582142Y-46977857D01*
X52510714Y-46906428D01*
X52367857Y-46835000D01*
X52082142Y-46763571D01*
X51725000Y-46763571D01*
X51439285Y-46835000D01*
X51296428Y-46906428D01*
X51225000Y-46977857D01*
X51153571Y-47120714D01*
X51153571Y-48906428D02*
X51153571Y-48620714D01*
X51225000Y-48477857D01*
X51296428Y-48406428D01*
X51510714Y-48263571D01*
X51796428Y-48192142D01*
X52367857Y-48192142D01*
X52510714Y-48263571D01*
X52582142Y-48335000D01*
X52653571Y-48477857D01*
X52653571Y-48763571D01*
X52582142Y-48906428D01*
X52510714Y-48977857D01*
X52367857Y-49049285D01*
X52010714Y-49049285D01*
X51867857Y-48977857D01*
X51796428Y-48906428D01*
X51725000Y-48763571D01*
X51725000Y-48477857D01*
X51796428Y-48335000D01*
X51867857Y-48263571D01*
X52010714Y-48192142D01*
X53703571Y-45263571D02*
X55203571Y-46263571D01*
X53703571Y-46263571D02*
X55203571Y-45263571D01*
X55203571Y-47620714D02*
X55203571Y-46763571D01*
X55203571Y-47192142D02*
X53703571Y-47192142D01*
X53917857Y-47049285D01*
X54060714Y-46906428D01*
X54132142Y-46763571D01*
X53703571Y-48120714D02*
X53703571Y-49049285D01*
X54275000Y-48549285D01*
X54275000Y-48763571D01*
X54346428Y-48906428D01*
X54417857Y-48977857D01*
X54560714Y-49049285D01*
X54917857Y-49049285D01*
X55060714Y-48977857D01*
X55132142Y-48906428D01*
X55203571Y-48763571D01*
X55203571Y-48335000D01*
X55132142Y-48192142D01*
X55060714Y-48120714D01*
X56182142Y-43620714D02*
X58110714Y-42335000D01*
X57682142Y-44049285D02*
X57753571Y-44263571D01*
X57753571Y-44620714D01*
X57682142Y-44763571D01*
X57610714Y-44835000D01*
X57467857Y-44906428D01*
X57325000Y-44906428D01*
X57182142Y-44835000D01*
X57110714Y-44763571D01*
X57039285Y-44620714D01*
X56967857Y-44335000D01*
X56896428Y-44192142D01*
X56825000Y-44120714D01*
X56682142Y-44049285D01*
X56539285Y-44049285D01*
X56396428Y-44120714D01*
X56325000Y-44192142D01*
X56253571Y-44335000D01*
X56253571Y-44692142D01*
X56325000Y-44906428D01*
X57039285Y-45835000D02*
X57753571Y-45835000D01*
X56253571Y-45335000D02*
X57039285Y-45835000D01*
X56253571Y-46335000D01*
X56253571Y-47120714D02*
X56253571Y-47263571D01*
X56325000Y-47406428D01*
X56396428Y-47477857D01*
X56539285Y-47549285D01*
X56825000Y-47620714D01*
X57182142Y-47620714D01*
X57467857Y-47549285D01*
X57610714Y-47477857D01*
X57682142Y-47406428D01*
X57753571Y-47263571D01*
X57753571Y-47120714D01*
X57682142Y-46977857D01*
X57610714Y-46906428D01*
X57467857Y-46835000D01*
X57182142Y-46763571D01*
X56825000Y-46763571D01*
X56539285Y-46835000D01*
X56396428Y-46906428D01*
X56325000Y-46977857D01*
X56253571Y-47120714D01*
X56253571Y-48120714D02*
X56253571Y-49049285D01*
X56825000Y-48549285D01*
X56825000Y-48763571D01*
X56896428Y-48906428D01*
X56967857Y-48977857D01*
X57110714Y-49049285D01*
X57467857Y-49049285D01*
X57610714Y-48977857D01*
X57682142Y-48906428D01*
X57753571Y-48763571D01*
X57753571Y-48335000D01*
X57682142Y-48192142D01*
X57610714Y-48120714D01*
X60303571Y-44906428D02*
X59589285Y-44406428D01*
X60303571Y-44049285D02*
X58803571Y-44049285D01*
X58803571Y-44620714D01*
X58875000Y-44763571D01*
X58946428Y-44835000D01*
X59089285Y-44906428D01*
X59303571Y-44906428D01*
X59446428Y-44835000D01*
X59517857Y-44763571D01*
X59589285Y-44620714D01*
X59589285Y-44049285D01*
X59589285Y-45835000D02*
X60303571Y-45835000D01*
X58803571Y-45335000D02*
X59589285Y-45835000D01*
X58803571Y-46335000D01*
X58803571Y-47120714D02*
X58803571Y-47263571D01*
X58875000Y-47406428D01*
X58946428Y-47477857D01*
X59089285Y-47549285D01*
X59375000Y-47620714D01*
X59732142Y-47620714D01*
X60017857Y-47549285D01*
X60160714Y-47477857D01*
X60232142Y-47406428D01*
X60303571Y-47263571D01*
X60303571Y-47120714D01*
X60232142Y-46977857D01*
X60160714Y-46906428D01*
X60017857Y-46835000D01*
X59732142Y-46763571D01*
X59375000Y-46763571D01*
X59089285Y-46835000D01*
X58946428Y-46906428D01*
X58875000Y-46977857D01*
X58803571Y-47120714D01*
X58803571Y-48120714D02*
X58803571Y-49049285D01*
X59375000Y-48549285D01*
X59375000Y-48763571D01*
X59446428Y-48906428D01*
X59517857Y-48977857D01*
X59660714Y-49049285D01*
X60017857Y-49049285D01*
X60160714Y-48977857D01*
X60232142Y-48906428D01*
X60303571Y-48763571D01*
X60303571Y-48335000D01*
X60232142Y-48192142D01*
X60160714Y-48120714D01*
X61353571Y-45263571D02*
X62853571Y-46263571D01*
X61353571Y-46263571D02*
X62853571Y-45263571D01*
X62853571Y-47620714D02*
X62853571Y-46763571D01*
X62853571Y-47192142D02*
X61353571Y-47192142D01*
X61567857Y-47049285D01*
X61710714Y-46906428D01*
X61782142Y-46763571D01*
X61853571Y-48906428D02*
X62853571Y-48906428D01*
X61282142Y-48549285D02*
X62353571Y-48192142D01*
X62353571Y-49120714D01*
X63832142Y-43620714D02*
X65760714Y-42335000D01*
X65332142Y-44049285D02*
X65403571Y-44263571D01*
X65403571Y-44620714D01*
X65332142Y-44763571D01*
X65260714Y-44835000D01*
X65117857Y-44906428D01*
X64975000Y-44906428D01*
X64832142Y-44835000D01*
X64760714Y-44763571D01*
X64689285Y-44620714D01*
X64617857Y-44335000D01*
X64546428Y-44192142D01*
X64475000Y-44120714D01*
X64332142Y-44049285D01*
X64189285Y-44049285D01*
X64046428Y-44120714D01*
X63975000Y-44192142D01*
X63903571Y-44335000D01*
X63903571Y-44692142D01*
X63975000Y-44906428D01*
X64689285Y-45835000D02*
X65403571Y-45835000D01*
X63903571Y-45335000D02*
X64689285Y-45835000D01*
X63903571Y-46335000D01*
X63903571Y-47120714D02*
X63903571Y-47263571D01*
X63975000Y-47406428D01*
X64046428Y-47477857D01*
X64189285Y-47549285D01*
X64475000Y-47620714D01*
X64832142Y-47620714D01*
X65117857Y-47549285D01*
X65260714Y-47477857D01*
X65332142Y-47406428D01*
X65403571Y-47263571D01*
X65403571Y-47120714D01*
X65332142Y-46977857D01*
X65260714Y-46906428D01*
X65117857Y-46835000D01*
X64832142Y-46763571D01*
X64475000Y-46763571D01*
X64189285Y-46835000D01*
X64046428Y-46906428D01*
X63975000Y-46977857D01*
X63903571Y-47120714D01*
X64046428Y-48192142D02*
X63975000Y-48263571D01*
X63903571Y-48406428D01*
X63903571Y-48763571D01*
X63975000Y-48906428D01*
X64046428Y-48977857D01*
X64189285Y-49049285D01*
X64332142Y-49049285D01*
X64546428Y-48977857D01*
X65403571Y-48120714D01*
X65403571Y-49049285D01*
X66453571Y-45263571D02*
X67953571Y-46263571D01*
X66453571Y-46263571D02*
X67953571Y-45263571D01*
X67953571Y-47620714D02*
X67953571Y-46763571D01*
X67953571Y-47192142D02*
X66453571Y-47192142D01*
X66667857Y-47049285D01*
X66810714Y-46906428D01*
X66882142Y-46763571D01*
X66453571Y-48549285D02*
X66453571Y-48692142D01*
X66525000Y-48835000D01*
X66596428Y-48906428D01*
X66739285Y-48977857D01*
X67025000Y-49049285D01*
X67382142Y-49049285D01*
X67667857Y-48977857D01*
X67810714Y-48906428D01*
X67882142Y-48835000D01*
X67953571Y-48692142D01*
X67953571Y-48549285D01*
X67882142Y-48406428D01*
X67810714Y-48335000D01*
X67667857Y-48263571D01*
X67382142Y-48192142D01*
X67025000Y-48192142D01*
X66739285Y-48263571D01*
X66596428Y-48335000D01*
X66525000Y-48406428D01*
X66453571Y-48549285D01*
X70503571Y-44906428D02*
X69789285Y-44406428D01*
X70503571Y-44049285D02*
X69003571Y-44049285D01*
X69003571Y-44620714D01*
X69075000Y-44763571D01*
X69146428Y-44835000D01*
X69289285Y-44906428D01*
X69503571Y-44906428D01*
X69646428Y-44835000D01*
X69717857Y-44763571D01*
X69789285Y-44620714D01*
X69789285Y-44049285D01*
X69789285Y-45835000D02*
X70503571Y-45835000D01*
X69003571Y-45335000D02*
X69789285Y-45835000D01*
X69003571Y-46335000D01*
X69003571Y-47120714D02*
X69003571Y-47263571D01*
X69075000Y-47406428D01*
X69146428Y-47477857D01*
X69289285Y-47549285D01*
X69575000Y-47620714D01*
X69932142Y-47620714D01*
X70217857Y-47549285D01*
X70360714Y-47477857D01*
X70432142Y-47406428D01*
X70503571Y-47263571D01*
X70503571Y-47120714D01*
X70432142Y-46977857D01*
X70360714Y-46906428D01*
X70217857Y-46835000D01*
X69932142Y-46763571D01*
X69575000Y-46763571D01*
X69289285Y-46835000D01*
X69146428Y-46906428D01*
X69075000Y-46977857D01*
X69003571Y-47120714D01*
X69146428Y-48192142D02*
X69075000Y-48263571D01*
X69003571Y-48406428D01*
X69003571Y-48763571D01*
X69075000Y-48906428D01*
X69146428Y-48977857D01*
X69289285Y-49049285D01*
X69432142Y-49049285D01*
X69646428Y-48977857D01*
X70503571Y-48120714D01*
X70503571Y-49049285D01*
X73053571Y-44906428D02*
X72339285Y-44406428D01*
X73053571Y-44049285D02*
X71553571Y-44049285D01*
X71553571Y-44620714D01*
X71625000Y-44763571D01*
X71696428Y-44835000D01*
X71839285Y-44906428D01*
X72053571Y-44906428D01*
X72196428Y-44835000D01*
X72267857Y-44763571D01*
X72339285Y-44620714D01*
X72339285Y-44049285D01*
X72339285Y-45835000D02*
X73053571Y-45835000D01*
X71553571Y-45335000D02*
X72339285Y-45835000D01*
X71553571Y-46335000D01*
X73053571Y-47620714D02*
X73053571Y-46763571D01*
X73053571Y-47192142D02*
X71553571Y-47192142D01*
X71767857Y-47049285D01*
X71910714Y-46906428D01*
X71982142Y-46763571D01*
X72053571Y-48906428D02*
X73053571Y-48906428D01*
X71482142Y-48549285D02*
X72553571Y-48192142D01*
X72553571Y-49120714D01*
X74032142Y-43620714D02*
X75960714Y-42335000D01*
X75532142Y-44049285D02*
X75603571Y-44263571D01*
X75603571Y-44620714D01*
X75532142Y-44763571D01*
X75460714Y-44835000D01*
X75317857Y-44906428D01*
X75175000Y-44906428D01*
X75032142Y-44835000D01*
X74960714Y-44763571D01*
X74889285Y-44620714D01*
X74817857Y-44335000D01*
X74746428Y-44192142D01*
X74675000Y-44120714D01*
X74532142Y-44049285D01*
X74389285Y-44049285D01*
X74246428Y-44120714D01*
X74175000Y-44192142D01*
X74103571Y-44335000D01*
X74103571Y-44692142D01*
X74175000Y-44906428D01*
X74889285Y-45835000D02*
X75603571Y-45835000D01*
X74103571Y-45335000D02*
X74889285Y-45835000D01*
X74103571Y-46335000D01*
X75603571Y-47620714D02*
X75603571Y-46763571D01*
X75603571Y-47192142D02*
X74103571Y-47192142D01*
X74317857Y-47049285D01*
X74460714Y-46906428D01*
X74532142Y-46763571D01*
X74603571Y-48906428D02*
X75603571Y-48906428D01*
X74032142Y-48549285D02*
X75103571Y-48192142D01*
X75103571Y-49120714D01*
X76653571Y-45263571D02*
X78153571Y-46263571D01*
X76653571Y-46263571D02*
X78153571Y-45263571D01*
X78153571Y-47620714D02*
X78153571Y-46763571D01*
X78153571Y-47192142D02*
X76653571Y-47192142D01*
X76867857Y-47049285D01*
X77010714Y-46906428D01*
X77082142Y-46763571D01*
X76653571Y-48977857D02*
X76653571Y-48263571D01*
X77367857Y-48192142D01*
X77296428Y-48263571D01*
X77225000Y-48406428D01*
X77225000Y-48763571D01*
X77296428Y-48906428D01*
X77367857Y-48977857D01*
X77510714Y-49049285D01*
X77867857Y-49049285D01*
X78010714Y-48977857D01*
X78082142Y-48906428D01*
X78153571Y-48763571D01*
X78153571Y-48406428D01*
X78082142Y-48263571D01*
X78010714Y-48192142D01*
X79132142Y-43620714D02*
X81060714Y-42335000D01*
X80632142Y-44049285D02*
X80703571Y-44263571D01*
X80703571Y-44620714D01*
X80632142Y-44763571D01*
X80560714Y-44835000D01*
X80417857Y-44906428D01*
X80275000Y-44906428D01*
X80132142Y-44835000D01*
X80060714Y-44763571D01*
X79989285Y-44620714D01*
X79917857Y-44335000D01*
X79846428Y-44192142D01*
X79775000Y-44120714D01*
X79632142Y-44049285D01*
X79489285Y-44049285D01*
X79346428Y-44120714D01*
X79275000Y-44192142D01*
X79203571Y-44335000D01*
X79203571Y-44692142D01*
X79275000Y-44906428D01*
X79989285Y-45835000D02*
X80703571Y-45835000D01*
X79203571Y-45335000D02*
X79989285Y-45835000D01*
X79203571Y-46335000D01*
X79203571Y-47120714D02*
X79203571Y-47263571D01*
X79275000Y-47406428D01*
X79346428Y-47477857D01*
X79489285Y-47549285D01*
X79775000Y-47620714D01*
X80132142Y-47620714D01*
X80417857Y-47549285D01*
X80560714Y-47477857D01*
X80632142Y-47406428D01*
X80703571Y-47263571D01*
X80703571Y-47120714D01*
X80632142Y-46977857D01*
X80560714Y-46906428D01*
X80417857Y-46835000D01*
X80132142Y-46763571D01*
X79775000Y-46763571D01*
X79489285Y-46835000D01*
X79346428Y-46906428D01*
X79275000Y-46977857D01*
X79203571Y-47120714D01*
X80703571Y-49049285D02*
X80703571Y-48192142D01*
X80703571Y-48620714D02*
X79203571Y-48620714D01*
X79417857Y-48477857D01*
X79560714Y-48335000D01*
X79632142Y-48192142D01*
X83253571Y-44906428D02*
X82539285Y-44406428D01*
X83253571Y-44049285D02*
X81753571Y-44049285D01*
X81753571Y-44620714D01*
X81825000Y-44763571D01*
X81896428Y-44835000D01*
X82039285Y-44906428D01*
X82253571Y-44906428D01*
X82396428Y-44835000D01*
X82467857Y-44763571D01*
X82539285Y-44620714D01*
X82539285Y-44049285D01*
X82539285Y-45835000D02*
X83253571Y-45835000D01*
X81753571Y-45335000D02*
X82539285Y-45835000D01*
X81753571Y-46335000D01*
X81753571Y-47120714D02*
X81753571Y-47263571D01*
X81825000Y-47406428D01*
X81896428Y-47477857D01*
X82039285Y-47549285D01*
X82325000Y-47620714D01*
X82682142Y-47620714D01*
X82967857Y-47549285D01*
X83110714Y-47477857D01*
X83182142Y-47406428D01*
X83253571Y-47263571D01*
X83253571Y-47120714D01*
X83182142Y-46977857D01*
X83110714Y-46906428D01*
X82967857Y-46835000D01*
X82682142Y-46763571D01*
X82325000Y-46763571D01*
X82039285Y-46835000D01*
X81896428Y-46906428D01*
X81825000Y-46977857D01*
X81753571Y-47120714D01*
X83253571Y-49049285D02*
X83253571Y-48192142D01*
X83253571Y-48620714D02*
X81753571Y-48620714D01*
X81967857Y-48477857D01*
X82110714Y-48335000D01*
X82182142Y-48192142D01*
X84303571Y-45263571D02*
X85803571Y-46263571D01*
X84303571Y-46263571D02*
X85803571Y-45263571D01*
X85803571Y-47620714D02*
X85803571Y-46763571D01*
X85803571Y-47192142D02*
X84303571Y-47192142D01*
X84517857Y-47049285D01*
X84660714Y-46906428D01*
X84732142Y-46763571D01*
X84303571Y-48906428D02*
X84303571Y-48620714D01*
X84375000Y-48477857D01*
X84446428Y-48406428D01*
X84660714Y-48263571D01*
X84946428Y-48192142D01*
X85517857Y-48192142D01*
X85660714Y-48263571D01*
X85732142Y-48335000D01*
X85803571Y-48477857D01*
X85803571Y-48763571D01*
X85732142Y-48906428D01*
X85660714Y-48977857D01*
X85517857Y-49049285D01*
X85160714Y-49049285D01*
X85017857Y-48977857D01*
X84946428Y-48906428D01*
X84875000Y-48763571D01*
X84875000Y-48477857D01*
X84946428Y-48335000D01*
X85017857Y-48263571D01*
X85160714Y-48192142D01*
X86782142Y-43620714D02*
X88710714Y-42335000D01*
X88282142Y-44049285D02*
X88353571Y-44263571D01*
X88353571Y-44620714D01*
X88282142Y-44763571D01*
X88210714Y-44835000D01*
X88067857Y-44906428D01*
X87925000Y-44906428D01*
X87782142Y-44835000D01*
X87710714Y-44763571D01*
X87639285Y-44620714D01*
X87567857Y-44335000D01*
X87496428Y-44192142D01*
X87425000Y-44120714D01*
X87282142Y-44049285D01*
X87139285Y-44049285D01*
X86996428Y-44120714D01*
X86925000Y-44192142D01*
X86853571Y-44335000D01*
X86853571Y-44692142D01*
X86925000Y-44906428D01*
X87639285Y-45835000D02*
X88353571Y-45835000D01*
X86853571Y-45335000D02*
X87639285Y-45835000D01*
X86853571Y-46335000D01*
X86853571Y-47120714D02*
X86853571Y-47263571D01*
X86925000Y-47406428D01*
X86996428Y-47477857D01*
X87139285Y-47549285D01*
X87425000Y-47620714D01*
X87782142Y-47620714D01*
X88067857Y-47549285D01*
X88210714Y-47477857D01*
X88282142Y-47406428D01*
X88353571Y-47263571D01*
X88353571Y-47120714D01*
X88282142Y-46977857D01*
X88210714Y-46906428D01*
X88067857Y-46835000D01*
X87782142Y-46763571D01*
X87425000Y-46763571D01*
X87139285Y-46835000D01*
X86996428Y-46906428D01*
X86925000Y-46977857D01*
X86853571Y-47120714D01*
X87353571Y-48906428D02*
X88353571Y-48906428D01*
X86782142Y-48549285D02*
X87853571Y-48192142D01*
X87853571Y-49120714D01*
X90903571Y-44906428D02*
X90189285Y-44406428D01*
X90903571Y-44049285D02*
X89403571Y-44049285D01*
X89403571Y-44620714D01*
X89475000Y-44763571D01*
X89546428Y-44835000D01*
X89689285Y-44906428D01*
X89903571Y-44906428D01*
X90046428Y-44835000D01*
X90117857Y-44763571D01*
X90189285Y-44620714D01*
X90189285Y-44049285D01*
X90189285Y-45835000D02*
X90903571Y-45835000D01*
X89403571Y-45335000D02*
X90189285Y-45835000D01*
X89403571Y-46335000D01*
X89403571Y-47120714D02*
X89403571Y-47263571D01*
X89475000Y-47406428D01*
X89546428Y-47477857D01*
X89689285Y-47549285D01*
X89975000Y-47620714D01*
X90332142Y-47620714D01*
X90617857Y-47549285D01*
X90760714Y-47477857D01*
X90832142Y-47406428D01*
X90903571Y-47263571D01*
X90903571Y-47120714D01*
X90832142Y-46977857D01*
X90760714Y-46906428D01*
X90617857Y-46835000D01*
X90332142Y-46763571D01*
X89975000Y-46763571D01*
X89689285Y-46835000D01*
X89546428Y-46906428D01*
X89475000Y-46977857D01*
X89403571Y-47120714D01*
X89903571Y-48906428D02*
X90903571Y-48906428D01*
X89332142Y-48549285D02*
X90403571Y-48192142D01*
X90403571Y-49120714D01*
X91953571Y-45263571D02*
X93453571Y-46263571D01*
X91953571Y-46263571D02*
X93453571Y-45263571D01*
X93453571Y-47620714D02*
X93453571Y-46763571D01*
X93453571Y-47192142D02*
X91953571Y-47192142D01*
X92167857Y-47049285D01*
X92310714Y-46906428D01*
X92382142Y-46763571D01*
X91953571Y-48120714D02*
X91953571Y-49120714D01*
X93453571Y-48477857D01*
X94432142Y-43620714D02*
X96360714Y-42335000D01*
X95932142Y-44049285D02*
X96003571Y-44263571D01*
X96003571Y-44620714D01*
X95932142Y-44763571D01*
X95860714Y-44835000D01*
X95717857Y-44906428D01*
X95575000Y-44906428D01*
X95432142Y-44835000D01*
X95360714Y-44763571D01*
X95289285Y-44620714D01*
X95217857Y-44335000D01*
X95146428Y-44192142D01*
X95075000Y-44120714D01*
X94932142Y-44049285D01*
X94789285Y-44049285D01*
X94646428Y-44120714D01*
X94575000Y-44192142D01*
X94503571Y-44335000D01*
X94503571Y-44692142D01*
X94575000Y-44906428D01*
X95289285Y-45835000D02*
X96003571Y-45835000D01*
X94503571Y-45335000D02*
X95289285Y-45835000D01*
X94503571Y-46335000D01*
X94503571Y-47120714D02*
X94503571Y-47263571D01*
X94575000Y-47406428D01*
X94646428Y-47477857D01*
X94789285Y-47549285D01*
X95075000Y-47620714D01*
X95432142Y-47620714D01*
X95717857Y-47549285D01*
X95860714Y-47477857D01*
X95932142Y-47406428D01*
X96003571Y-47263571D01*
X96003571Y-47120714D01*
X95932142Y-46977857D01*
X95860714Y-46906428D01*
X95717857Y-46835000D01*
X95432142Y-46763571D01*
X95075000Y-46763571D01*
X94789285Y-46835000D01*
X94646428Y-46906428D01*
X94575000Y-46977857D01*
X94503571Y-47120714D01*
X94503571Y-48977857D02*
X94503571Y-48263571D01*
X95217857Y-48192142D01*
X95146428Y-48263571D01*
X95075000Y-48406428D01*
X95075000Y-48763571D01*
X95146428Y-48906428D01*
X95217857Y-48977857D01*
X95360714Y-49049285D01*
X95717857Y-49049285D01*
X95860714Y-48977857D01*
X95932142Y-48906428D01*
X96003571Y-48763571D01*
X96003571Y-48406428D01*
X95932142Y-48263571D01*
X95860714Y-48192142D01*
X98553571Y-44906428D02*
X97839285Y-44406428D01*
X98553571Y-44049285D02*
X97053571Y-44049285D01*
X97053571Y-44620714D01*
X97125000Y-44763571D01*
X97196428Y-44835000D01*
X97339285Y-44906428D01*
X97553571Y-44906428D01*
X97696428Y-44835000D01*
X97767857Y-44763571D01*
X97839285Y-44620714D01*
X97839285Y-44049285D01*
X97839285Y-45835000D02*
X98553571Y-45835000D01*
X97053571Y-45335000D02*
X97839285Y-45835000D01*
X97053571Y-46335000D01*
X97053571Y-47120714D02*
X97053571Y-47263571D01*
X97125000Y-47406428D01*
X97196428Y-47477857D01*
X97339285Y-47549285D01*
X97625000Y-47620714D01*
X97982142Y-47620714D01*
X98267857Y-47549285D01*
X98410714Y-47477857D01*
X98482142Y-47406428D01*
X98553571Y-47263571D01*
X98553571Y-47120714D01*
X98482142Y-46977857D01*
X98410714Y-46906428D01*
X98267857Y-46835000D01*
X97982142Y-46763571D01*
X97625000Y-46763571D01*
X97339285Y-46835000D01*
X97196428Y-46906428D01*
X97125000Y-46977857D01*
X97053571Y-47120714D01*
X97053571Y-48977857D02*
X97053571Y-48263571D01*
X97767857Y-48192142D01*
X97696428Y-48263571D01*
X97625000Y-48406428D01*
X97625000Y-48763571D01*
X97696428Y-48906428D01*
X97767857Y-48977857D01*
X97910714Y-49049285D01*
X98267857Y-49049285D01*
X98410714Y-48977857D01*
X98482142Y-48906428D01*
X98553571Y-48763571D01*
X98553571Y-48406428D01*
X98482142Y-48263571D01*
X98410714Y-48192142D01*
X99603571Y-45263571D02*
X101103571Y-46263571D01*
X99603571Y-46263571D02*
X101103571Y-45263571D01*
X101103571Y-47620714D02*
X101103571Y-46763571D01*
X101103571Y-47192142D02*
X99603571Y-47192142D01*
X99817857Y-47049285D01*
X99960714Y-46906428D01*
X100032142Y-46763571D01*
X100246428Y-48477857D02*
X100175000Y-48335000D01*
X100103571Y-48263571D01*
X99960714Y-48192142D01*
X99889285Y-48192142D01*
X99746428Y-48263571D01*
X99675000Y-48335000D01*
X99603571Y-48477857D01*
X99603571Y-48763571D01*
X99675000Y-48906428D01*
X99746428Y-48977857D01*
X99889285Y-49049285D01*
X99960714Y-49049285D01*
X100103571Y-48977857D01*
X100175000Y-48906428D01*
X100246428Y-48763571D01*
X100246428Y-48477857D01*
X100317857Y-48335000D01*
X100389285Y-48263571D01*
X100532142Y-48192142D01*
X100817857Y-48192142D01*
X100960714Y-48263571D01*
X101032142Y-48335000D01*
X101103571Y-48477857D01*
X101103571Y-48763571D01*
X101032142Y-48906428D01*
X100960714Y-48977857D01*
X100817857Y-49049285D01*
X100532142Y-49049285D01*
X100389285Y-48977857D01*
X100317857Y-48906428D01*
X100246428Y-48763571D01*
X102082142Y-43620714D02*
X104010714Y-42335000D01*
X103582142Y-44049285D02*
X103653571Y-44263571D01*
X103653571Y-44620714D01*
X103582142Y-44763571D01*
X103510714Y-44835000D01*
X103367857Y-44906428D01*
X103225000Y-44906428D01*
X103082142Y-44835000D01*
X103010714Y-44763571D01*
X102939285Y-44620714D01*
X102867857Y-44335000D01*
X102796428Y-44192142D01*
X102725000Y-44120714D01*
X102582142Y-44049285D01*
X102439285Y-44049285D01*
X102296428Y-44120714D01*
X102225000Y-44192142D01*
X102153571Y-44335000D01*
X102153571Y-44692142D01*
X102225000Y-44906428D01*
X102939285Y-45835000D02*
X103653571Y-45835000D01*
X102153571Y-45335000D02*
X102939285Y-45835000D01*
X102153571Y-46335000D01*
X102153571Y-47120714D02*
X102153571Y-47263571D01*
X102225000Y-47406428D01*
X102296428Y-47477857D01*
X102439285Y-47549285D01*
X102725000Y-47620714D01*
X103082142Y-47620714D01*
X103367857Y-47549285D01*
X103510714Y-47477857D01*
X103582142Y-47406428D01*
X103653571Y-47263571D01*
X103653571Y-47120714D01*
X103582142Y-46977857D01*
X103510714Y-46906428D01*
X103367857Y-46835000D01*
X103082142Y-46763571D01*
X102725000Y-46763571D01*
X102439285Y-46835000D01*
X102296428Y-46906428D01*
X102225000Y-46977857D01*
X102153571Y-47120714D01*
X102796428Y-48477857D02*
X102725000Y-48335000D01*
X102653571Y-48263571D01*
X102510714Y-48192142D01*
X102439285Y-48192142D01*
X102296428Y-48263571D01*
X102225000Y-48335000D01*
X102153571Y-48477857D01*
X102153571Y-48763571D01*
X102225000Y-48906428D01*
X102296428Y-48977857D01*
X102439285Y-49049285D01*
X102510714Y-49049285D01*
X102653571Y-48977857D01*
X102725000Y-48906428D01*
X102796428Y-48763571D01*
X102796428Y-48477857D01*
X102867857Y-48335000D01*
X102939285Y-48263571D01*
X103082142Y-48192142D01*
X103367857Y-48192142D01*
X103510714Y-48263571D01*
X103582142Y-48335000D01*
X103653571Y-48477857D01*
X103653571Y-48763571D01*
X103582142Y-48906428D01*
X103510714Y-48977857D01*
X103367857Y-49049285D01*
X103082142Y-49049285D01*
X102939285Y-48977857D01*
X102867857Y-48906428D01*
X102796428Y-48763571D01*
X106203571Y-44906428D02*
X105489285Y-44406428D01*
X106203571Y-44049285D02*
X104703571Y-44049285D01*
X104703571Y-44620714D01*
X104775000Y-44763571D01*
X104846428Y-44835000D01*
X104989285Y-44906428D01*
X105203571Y-44906428D01*
X105346428Y-44835000D01*
X105417857Y-44763571D01*
X105489285Y-44620714D01*
X105489285Y-44049285D01*
X105489285Y-45835000D02*
X106203571Y-45835000D01*
X104703571Y-45335000D02*
X105489285Y-45835000D01*
X104703571Y-46335000D01*
X104703571Y-47120714D02*
X104703571Y-47263571D01*
X104775000Y-47406428D01*
X104846428Y-47477857D01*
X104989285Y-47549285D01*
X105275000Y-47620714D01*
X105632142Y-47620714D01*
X105917857Y-47549285D01*
X106060714Y-47477857D01*
X106132142Y-47406428D01*
X106203571Y-47263571D01*
X106203571Y-47120714D01*
X106132142Y-46977857D01*
X106060714Y-46906428D01*
X105917857Y-46835000D01*
X105632142Y-46763571D01*
X105275000Y-46763571D01*
X104989285Y-46835000D01*
X104846428Y-46906428D01*
X104775000Y-46977857D01*
X104703571Y-47120714D01*
X105346428Y-48477857D02*
X105275000Y-48335000D01*
X105203571Y-48263571D01*
X105060714Y-48192142D01*
X104989285Y-48192142D01*
X104846428Y-48263571D01*
X104775000Y-48335000D01*
X104703571Y-48477857D01*
X104703571Y-48763571D01*
X104775000Y-48906428D01*
X104846428Y-48977857D01*
X104989285Y-49049285D01*
X105060714Y-49049285D01*
X105203571Y-48977857D01*
X105275000Y-48906428D01*
X105346428Y-48763571D01*
X105346428Y-48477857D01*
X105417857Y-48335000D01*
X105489285Y-48263571D01*
X105632142Y-48192142D01*
X105917857Y-48192142D01*
X106060714Y-48263571D01*
X106132142Y-48335000D01*
X106203571Y-48477857D01*
X106203571Y-48763571D01*
X106132142Y-48906428D01*
X106060714Y-48977857D01*
X105917857Y-49049285D01*
X105632142Y-49049285D01*
X105489285Y-48977857D01*
X105417857Y-48906428D01*
X105346428Y-48763571D01*
X107253571Y-45263571D02*
X108753571Y-46263571D01*
X107253571Y-46263571D02*
X108753571Y-45263571D01*
X108753571Y-47620714D02*
X108753571Y-46763571D01*
X108753571Y-47192142D02*
X107253571Y-47192142D01*
X107467857Y-47049285D01*
X107610714Y-46906428D01*
X107682142Y-46763571D01*
X108753571Y-48335000D02*
X108753571Y-48620714D01*
X108682142Y-48763571D01*
X108610714Y-48835000D01*
X108396428Y-48977857D01*
X108110714Y-49049285D01*
X107539285Y-49049285D01*
X107396428Y-48977857D01*
X107325000Y-48906428D01*
X107253571Y-48763571D01*
X107253571Y-48477857D01*
X107325000Y-48335000D01*
X107396428Y-48263571D01*
X107539285Y-48192142D01*
X107896428Y-48192142D01*
X108039285Y-48263571D01*
X108110714Y-48335000D01*
X108182142Y-48477857D01*
X108182142Y-48763571D01*
X108110714Y-48906428D01*
X108039285Y-48977857D01*
X107896428Y-49049285D01*
X109732142Y-43620714D02*
X111660714Y-42335000D01*
X111232142Y-44049285D02*
X111303571Y-44263571D01*
X111303571Y-44620714D01*
X111232142Y-44763571D01*
X111160714Y-44835000D01*
X111017857Y-44906428D01*
X110875000Y-44906428D01*
X110732142Y-44835000D01*
X110660714Y-44763571D01*
X110589285Y-44620714D01*
X110517857Y-44335000D01*
X110446428Y-44192142D01*
X110375000Y-44120714D01*
X110232142Y-44049285D01*
X110089285Y-44049285D01*
X109946428Y-44120714D01*
X109875000Y-44192142D01*
X109803571Y-44335000D01*
X109803571Y-44692142D01*
X109875000Y-44906428D01*
X110589285Y-45835000D02*
X111303571Y-45835000D01*
X109803571Y-45335000D02*
X110589285Y-45835000D01*
X109803571Y-46335000D01*
X109803571Y-47120714D02*
X109803571Y-47263571D01*
X109875000Y-47406428D01*
X109946428Y-47477857D01*
X110089285Y-47549285D01*
X110375000Y-47620714D01*
X110732142Y-47620714D01*
X111017857Y-47549285D01*
X111160714Y-47477857D01*
X111232142Y-47406428D01*
X111303571Y-47263571D01*
X111303571Y-47120714D01*
X111232142Y-46977857D01*
X111160714Y-46906428D01*
X111017857Y-46835000D01*
X110732142Y-46763571D01*
X110375000Y-46763571D01*
X110089285Y-46835000D01*
X109946428Y-46906428D01*
X109875000Y-46977857D01*
X109803571Y-47120714D01*
X111303571Y-48335000D02*
X111303571Y-48620714D01*
X111232142Y-48763571D01*
X111160714Y-48835000D01*
X110946428Y-48977857D01*
X110660714Y-49049285D01*
X110089285Y-49049285D01*
X109946428Y-48977857D01*
X109875000Y-48906428D01*
X109803571Y-48763571D01*
X109803571Y-48477857D01*
X109875000Y-48335000D01*
X109946428Y-48263571D01*
X110089285Y-48192142D01*
X110446428Y-48192142D01*
X110589285Y-48263571D01*
X110660714Y-48335000D01*
X110732142Y-48477857D01*
X110732142Y-48763571D01*
X110660714Y-48906428D01*
X110589285Y-48977857D01*
X110446428Y-49049285D01*
X113853571Y-44906428D02*
X113139285Y-44406428D01*
X113853571Y-44049285D02*
X112353571Y-44049285D01*
X112353571Y-44620714D01*
X112425000Y-44763571D01*
X112496428Y-44835000D01*
X112639285Y-44906428D01*
X112853571Y-44906428D01*
X112996428Y-44835000D01*
X113067857Y-44763571D01*
X113139285Y-44620714D01*
X113139285Y-44049285D01*
X113139285Y-45835000D02*
X113853571Y-45835000D01*
X112353571Y-45335000D02*
X113139285Y-45835000D01*
X112353571Y-46335000D01*
X112353571Y-47120714D02*
X112353571Y-47263571D01*
X112425000Y-47406428D01*
X112496428Y-47477857D01*
X112639285Y-47549285D01*
X112925000Y-47620714D01*
X113282142Y-47620714D01*
X113567857Y-47549285D01*
X113710714Y-47477857D01*
X113782142Y-47406428D01*
X113853571Y-47263571D01*
X113853571Y-47120714D01*
X113782142Y-46977857D01*
X113710714Y-46906428D01*
X113567857Y-46835000D01*
X113282142Y-46763571D01*
X112925000Y-46763571D01*
X112639285Y-46835000D01*
X112496428Y-46906428D01*
X112425000Y-46977857D01*
X112353571Y-47120714D01*
X113853571Y-48335000D02*
X113853571Y-48620714D01*
X113782142Y-48763571D01*
X113710714Y-48835000D01*
X113496428Y-48977857D01*
X113210714Y-49049285D01*
X112639285Y-49049285D01*
X112496428Y-48977857D01*
X112425000Y-48906428D01*
X112353571Y-48763571D01*
X112353571Y-48477857D01*
X112425000Y-48335000D01*
X112496428Y-48263571D01*
X112639285Y-48192142D01*
X112996428Y-48192142D01*
X113139285Y-48263571D01*
X113210714Y-48335000D01*
X113282142Y-48477857D01*
X113282142Y-48763571D01*
X113210714Y-48906428D01*
X113139285Y-48977857D01*
X112996428Y-49049285D01*
D12*
X36552000Y-122880380D02*
X36552000Y-121880380D01*
X36552000Y-122261333D02*
X36456761Y-122213714D01*
X36266285Y-122213714D01*
X36171047Y-122261333D01*
X36123428Y-122308952D01*
X36075809Y-122404190D01*
X36075809Y-122689904D01*
X36123428Y-122785142D01*
X36171047Y-122832761D01*
X36266285Y-122880380D01*
X36456761Y-122880380D01*
X36552000Y-122832761D01*
X35218666Y-122880380D02*
X35218666Y-122356571D01*
X35266285Y-122261333D01*
X35361523Y-122213714D01*
X35552000Y-122213714D01*
X35647238Y-122261333D01*
X35218666Y-122832761D02*
X35313904Y-122880380D01*
X35552000Y-122880380D01*
X35647238Y-122832761D01*
X35694857Y-122737523D01*
X35694857Y-122642285D01*
X35647238Y-122547047D01*
X35552000Y-122499428D01*
X35313904Y-122499428D01*
X35218666Y-122451809D01*
X34313904Y-122832761D02*
X34409142Y-122880380D01*
X34599619Y-122880380D01*
X34694857Y-122832761D01*
X34742476Y-122785142D01*
X34790095Y-122689904D01*
X34790095Y-122404190D01*
X34742476Y-122308952D01*
X34694857Y-122261333D01*
X34599619Y-122213714D01*
X34409142Y-122213714D01*
X34313904Y-122261333D01*
X33885333Y-122880380D02*
X33885333Y-121880380D01*
X33790095Y-122499428D02*
X33504380Y-122880380D01*
X33504380Y-122213714D02*
X33885333Y-122594666D01*
D13*
G04 #@! TO.C,REF\002A\002A\002A*
G36*
X28732178Y-113507822D02*
X32252971Y-113507822D01*
X32252971Y-112640198D01*
X28732178Y-112640198D01*
X28732178Y-113507822D01*
X28732178Y-113507822D01*
G37*
X28732178Y-113507822D02*
X32252971Y-113507822D01*
X32252971Y-112640198D01*
X28732178Y-112640198D01*
X28732178Y-113507822D01*
G36*
X28355570Y-107554848D02*
X28356189Y-107641931D01*
X28807914Y-108100891D01*
X29259639Y-108559852D01*
X29259968Y-108770471D01*
X29260297Y-108981089D01*
X29535390Y-108981089D01*
X29542478Y-109034530D01*
X29545162Y-109058888D01*
X29549687Y-109104759D01*
X29555809Y-109169405D01*
X29563288Y-109250091D01*
X29571881Y-109344081D01*
X29581346Y-109448637D01*
X29591442Y-109561025D01*
X29601926Y-109678507D01*
X29612556Y-109798348D01*
X29623091Y-109917811D01*
X29633287Y-110034159D01*
X29642905Y-110144657D01*
X29651700Y-110246569D01*
X29659432Y-110337158D01*
X29665858Y-110413687D01*
X29670737Y-110473421D01*
X29673825Y-110513624D01*
X29674883Y-110531559D01*
X29674882Y-110531644D01*
X29667173Y-110546035D01*
X29644019Y-110575748D01*
X29605105Y-110621131D01*
X29550116Y-110682529D01*
X29478736Y-110760288D01*
X29390651Y-110854754D01*
X29285546Y-110966272D01*
X29163105Y-111095188D01*
X29128690Y-111131287D01*
X28582863Y-111703416D01*
X28671119Y-111791436D01*
X28742515Y-111713758D01*
X28768634Y-111685686D01*
X28809434Y-111642274D01*
X28862223Y-111586366D01*
X28924309Y-111520808D01*
X28993000Y-111448441D01*
X29065604Y-111372112D01*
X29109040Y-111326524D01*
X29190584Y-111241119D01*
X29256496Y-111172710D01*
X29308456Y-111120053D01*
X29348145Y-111081905D01*
X29377243Y-111057020D01*
X29397431Y-111044156D01*
X29410390Y-111042068D01*
X29417800Y-111049513D01*
X29421342Y-111065246D01*
X29422697Y-111088023D01*
X29422879Y-111094239D01*
X29432297Y-111137061D01*
X29455503Y-111188819D01*
X29487864Y-111241328D01*
X29524748Y-111286403D01*
X29539507Y-111300328D01*
X29615233Y-111349047D01*
X29703692Y-111376306D01*
X29781900Y-111382773D01*
X29870532Y-111370576D01*
X29952388Y-111334813D01*
X30024836Y-111276722D01*
X30038203Y-111262262D01*
X30087082Y-111206733D01*
X30932674Y-111206733D01*
X30932674Y-111382773D01*
X31159010Y-111382773D01*
X31159010Y-111300531D01*
X31161850Y-111244386D01*
X31171393Y-111205416D01*
X31182991Y-111184219D01*
X31191277Y-111169052D01*
X31198373Y-111147062D01*
X31204748Y-111114987D01*
X31210872Y-111069569D01*
X31217216Y-111007548D01*
X31224250Y-110925662D01*
X31229066Y-110864746D01*
X31251161Y-110579343D01*
X31793565Y-111128805D01*
X31891637Y-111228228D01*
X31985784Y-111323815D01*
X32074285Y-111413810D01*
X32155420Y-111496457D01*
X32227469Y-111570001D01*
X32288712Y-111632684D01*
X32337427Y-111682752D01*
X32371896Y-111718448D01*
X32390379Y-111737995D01*
X32420743Y-111768944D01*
X32446071Y-111790530D01*
X32459695Y-111797723D01*
X32477095Y-111789297D01*
X32502460Y-111768245D01*
X32511058Y-111759671D01*
X32547514Y-111721620D01*
X32346802Y-111517658D01*
X32295596Y-111465699D01*
X32229569Y-111398820D01*
X32151618Y-111319950D01*
X32064638Y-111232014D01*
X31971526Y-111137941D01*
X31875179Y-111040658D01*
X31778492Y-110943093D01*
X31709134Y-110873145D01*
X31603703Y-110766550D01*
X31515129Y-110676307D01*
X31442281Y-110601192D01*
X31384023Y-110539986D01*
X31339225Y-110491466D01*
X31317021Y-110466129D01*
X31138724Y-110466129D01*
X31116401Y-110751555D01*
X31109669Y-110835219D01*
X31103157Y-110911727D01*
X31097234Y-110977081D01*
X31092268Y-111027281D01*
X31088629Y-111058329D01*
X31087458Y-111065273D01*
X31080838Y-111093565D01*
X30131364Y-111093565D01*
X30125026Y-111014606D01*
X30105890Y-110921315D01*
X30065846Y-110838791D01*
X30007418Y-110770038D01*
X29933129Y-110718063D01*
X29849748Y-110686863D01*
X29822698Y-110672228D01*
X29809156Y-110640819D01*
X29808872Y-110639434D01*
X29807247Y-110626174D01*
X29809256Y-110612595D01*
X29816858Y-110596181D01*
X29832016Y-110574411D01*
X29856688Y-110544767D01*
X29892836Y-110504732D01*
X29942420Y-110451785D01*
X30007401Y-110383409D01*
X30011599Y-110379005D01*
X30081493Y-110305611D01*
X30155800Y-110227437D01*
X30229414Y-110149864D01*
X30297229Y-110078275D01*
X30354140Y-110018051D01*
X30366832Y-110004587D01*
X30415487Y-109953820D01*
X30458709Y-109910375D01*
X30493395Y-109877241D01*
X30516444Y-109857405D01*
X30524182Y-109853046D01*
X30535722Y-109862170D01*
X30562710Y-109887200D01*
X30603021Y-109926052D01*
X30654529Y-109976643D01*
X30715109Y-110036888D01*
X30782636Y-110104704D01*
X30837826Y-110160565D01*
X31138724Y-110466129D01*
X31317021Y-110466129D01*
X31306751Y-110454411D01*
X31285471Y-110427599D01*
X31274251Y-110409808D01*
X31271754Y-110401570D01*
X31272700Y-110383590D01*
X31275573Y-110342892D01*
X31280187Y-110281819D01*
X31286358Y-110202713D01*
X31293898Y-110107914D01*
X31302621Y-109999767D01*
X31312343Y-109880612D01*
X31322876Y-109752791D01*
X31331365Y-109650635D01*
X31379396Y-109074674D01*
X31255805Y-109074674D01*
X31255273Y-109087104D01*
X31252769Y-109122110D01*
X31248496Y-109177215D01*
X31242653Y-109249943D01*
X31235443Y-109337814D01*
X31227066Y-109438351D01*
X31217723Y-109549077D01*
X31208758Y-109654205D01*
X31198602Y-109773483D01*
X31189142Y-109886080D01*
X31180596Y-109989305D01*
X31173179Y-110080473D01*
X31167108Y-110156895D01*
X31162601Y-110215883D01*
X31159873Y-110254749D01*
X31159116Y-110269844D01*
X31157935Y-110279238D01*
X31153256Y-110282966D01*
X31143276Y-110279471D01*
X31126190Y-110267199D01*
X31100196Y-110244594D01*
X31063490Y-110210100D01*
X31014267Y-110162162D01*
X30950726Y-110099224D01*
X30883305Y-110031968D01*
X30607601Y-109756477D01*
X30609533Y-109754406D01*
X30427290Y-109754406D01*
X30418984Y-109765780D01*
X30395733Y-109792563D01*
X30359865Y-109832292D01*
X30313713Y-109882507D01*
X30259606Y-109940746D01*
X30199874Y-110004547D01*
X30136848Y-110071449D01*
X30072858Y-110138990D01*
X30010236Y-110204710D01*
X29951310Y-110266146D01*
X29898412Y-110320837D01*
X29853872Y-110366322D01*
X29820020Y-110400138D01*
X29799188Y-110419826D01*
X29793506Y-110423837D01*
X29791634Y-110410891D01*
X29787746Y-110375134D01*
X29782057Y-110318804D01*
X29774781Y-110244140D01*
X29766131Y-110153380D01*
X29756322Y-110048762D01*
X29745566Y-109932526D01*
X29734079Y-109806908D01*
X29724907Y-109705618D01*
X29713174Y-109574279D01*
X29702335Y-109450552D01*
X29692570Y-109336681D01*
X29684063Y-109234911D01*
X29676995Y-109147487D01*
X29671549Y-109076653D01*
X29667908Y-109024653D01*
X29666253Y-108993732D01*
X29666442Y-108985703D01*
X29676334Y-108992854D01*
X29701524Y-109015841D01*
X29739810Y-109052439D01*
X29788989Y-109100422D01*
X29846861Y-109157566D01*
X29911222Y-109221647D01*
X29979871Y-109290438D01*
X30050605Y-109361716D01*
X30121222Y-109433255D01*
X30189520Y-109502830D01*
X30253296Y-109568217D01*
X30310350Y-109627191D01*
X30358478Y-109677527D01*
X30395478Y-109716999D01*
X30419148Y-109743383D01*
X30427290Y-109754406D01*
X30609533Y-109754406D01*
X30710409Y-109646295D01*
X30762768Y-109590377D01*
X30821535Y-109527948D01*
X30884385Y-109461443D01*
X30948995Y-109393298D01*
X31013042Y-109325948D01*
X31074203Y-109261828D01*
X31130153Y-109203372D01*
X31178570Y-109153018D01*
X31217130Y-109113198D01*
X31243509Y-109086350D01*
X31255384Y-109074908D01*
X31255805Y-109074674D01*
X31379396Y-109074674D01*
X31391401Y-108930726D01*
X31991938Y-108299158D01*
X32592475Y-107667589D01*
X32592034Y-107579315D01*
X32591592Y-107491040D01*
X32494583Y-107594666D01*
X32440291Y-107652463D01*
X32376192Y-107720368D01*
X32304016Y-107796572D01*
X32225492Y-107879269D01*
X32142349Y-107966653D01*
X32056319Y-108056915D01*
X31969130Y-108148250D01*
X31882513Y-108238849D01*
X31798197Y-108326907D01*
X31717912Y-108410615D01*
X31643387Y-108488167D01*
X31576354Y-108557757D01*
X31518541Y-108617576D01*
X31471679Y-108665818D01*
X31437496Y-108700676D01*
X31417724Y-108720343D01*
X31413390Y-108724116D01*
X31413092Y-108710992D01*
X31414731Y-108677389D01*
X31418023Y-108627880D01*
X31422682Y-108567037D01*
X31424682Y-108542732D01*
X31439577Y-108364951D01*
X31322955Y-108364951D01*
X31316934Y-108393243D01*
X31313863Y-108415618D01*
X31309548Y-108457717D01*
X31304488Y-108514178D01*
X31299181Y-108579635D01*
X31297344Y-108603862D01*
X31291927Y-108673421D01*
X31286459Y-108738018D01*
X31281488Y-108791548D01*
X31277561Y-108827910D01*
X31276675Y-108834509D01*
X31273334Y-108848056D01*
X31266101Y-108863914D01*
X31253440Y-108883861D01*
X31233811Y-108909673D01*
X31205678Y-108943129D01*
X31167502Y-108986007D01*
X31117746Y-109040083D01*
X31054871Y-109107136D01*
X30977341Y-109188943D01*
X30898251Y-109271950D01*
X30819564Y-109354094D01*
X30746112Y-109430169D01*
X30679724Y-109498325D01*
X30622227Y-109556712D01*
X30575451Y-109603481D01*
X30541224Y-109636782D01*
X30521373Y-109654767D01*
X30517140Y-109657442D01*
X30506003Y-109647741D01*
X30479971Y-109622441D01*
X30441570Y-109584082D01*
X30393328Y-109535200D01*
X30337770Y-109478334D01*
X30297592Y-109436906D01*
X30087831Y-109220000D01*
X30706337Y-109220000D01*
X30706337Y-108981089D01*
X29951881Y-108981089D01*
X29951881Y-109087542D01*
X29813565Y-108949654D01*
X29715447Y-108851840D01*
X29524357Y-108851840D01*
X29522529Y-108867270D01*
X29513277Y-108875867D01*
X29490950Y-108879613D01*
X29449895Y-108880489D01*
X29442624Y-108880495D01*
X29360891Y-108880495D01*
X29360891Y-108661172D01*
X29442624Y-108742179D01*
X29488730Y-108791428D01*
X29516306Y-108829159D01*
X29524357Y-108851840D01*
X29715447Y-108851840D01*
X29675248Y-108811766D01*
X29675248Y-108688952D01*
X29674863Y-108632450D01*
X29673100Y-108596505D01*
X29669050Y-108576530D01*
X29661801Y-108567937D01*
X29650870Y-108566139D01*
X29638712Y-108563498D01*
X29629727Y-108552912D01*
X29622826Y-108530381D01*
X29616924Y-108491909D01*
X29610935Y-108433498D01*
X29609013Y-108412104D01*
X29604852Y-108364951D01*
X31322955Y-108364951D01*
X31439577Y-108364951D01*
X31599109Y-108364951D01*
X31599109Y-108251782D01*
X31531314Y-108251782D01*
X31491662Y-108250696D01*
X31470116Y-108245454D01*
X31467480Y-108242334D01*
X31328616Y-108242334D01*
X31321308Y-108249462D01*
X31295993Y-108251662D01*
X31278908Y-108251782D01*
X31221881Y-108251782D01*
X31009221Y-108251782D01*
X29594698Y-108251782D01*
X29642542Y-108202786D01*
X29716850Y-108142324D01*
X29808816Y-108095691D01*
X29919998Y-108062249D01*
X30030471Y-108043753D01*
X30102773Y-108035122D01*
X30102773Y-108126040D01*
X30681188Y-108126040D01*
X30681188Y-108022893D01*
X30766065Y-108031496D01*
X30825368Y-108038756D01*
X30888551Y-108048379D01*
X30926386Y-108055252D01*
X31001832Y-108070407D01*
X31005526Y-108161095D01*
X31009221Y-108251782D01*
X31221881Y-108251782D01*
X31221881Y-108201485D01*
X31223544Y-108169976D01*
X31227697Y-108152463D01*
X31229371Y-108151188D01*
X31247987Y-108159254D01*
X31275183Y-108178820D01*
X31302448Y-108202944D01*
X31321267Y-108224682D01*
X31322943Y-108227508D01*
X31328616Y-108242334D01*
X31467480Y-108242334D01*
X31459662Y-108233081D01*
X31455442Y-108219604D01*
X31438219Y-108184627D01*
X31405138Y-108142579D01*
X31361893Y-108099356D01*
X31314174Y-108060854D01*
X31282830Y-108040801D01*
X31247123Y-108018851D01*
X31228819Y-108000411D01*
X31222388Y-107978668D01*
X31221894Y-107965718D01*
X31221894Y-107962575D01*
X30580594Y-107962575D01*
X30580594Y-108025446D01*
X30203367Y-108025446D01*
X30203367Y-107962575D01*
X30580594Y-107962575D01*
X31221894Y-107962575D01*
X31221881Y-107924852D01*
X31116048Y-107924852D01*
X31067355Y-107926029D01*
X31029405Y-107929165D01*
X31008308Y-107933671D01*
X31006023Y-107935495D01*
X30992641Y-107938295D01*
X30960074Y-107937148D01*
X30913916Y-107932393D01*
X30882376Y-107928003D01*
X30825188Y-107919378D01*
X30772886Y-107911591D01*
X30733582Y-107905847D01*
X30722055Y-107904215D01*
X30691937Y-107894888D01*
X30681188Y-107880272D01*
X30677920Y-107874320D01*
X30666230Y-107869778D01*
X30643288Y-107866470D01*
X30606265Y-107864215D01*
X30552332Y-107862834D01*
X30478660Y-107862150D01*
X30391980Y-107861980D01*
X30299471Y-107862077D01*
X30229094Y-107862530D01*
X30177836Y-107863590D01*
X30142680Y-107865503D01*
X30120611Y-107868519D01*
X30108615Y-107872885D01*
X30103676Y-107878849D01*
X30102773Y-107885784D01*
X30095079Y-107907795D01*
X30069879Y-107920321D01*
X30023991Y-107924788D01*
X30015736Y-107924852D01*
X29938027Y-107932868D01*
X29849767Y-107954936D01*
X29758915Y-107988084D01*
X29673430Y-108029339D01*
X29601274Y-108075731D01*
X29591928Y-108083082D01*
X29561467Y-108106998D01*
X29543428Y-108116576D01*
X29530831Y-108113480D01*
X29517900Y-108100704D01*
X29479707Y-108075678D01*
X29430002Y-108066071D01*
X29376476Y-108071067D01*
X29326822Y-108089851D01*
X29288733Y-108121606D01*
X29285975Y-108125297D01*
X29257474Y-108184575D01*
X29252172Y-108245934D01*
X29269482Y-108304427D01*
X29308820Y-108355104D01*
X29313630Y-108359289D01*
X29341560Y-108379167D01*
X29369898Y-108387921D01*
X29409737Y-108388553D01*
X29419689Y-108387992D01*
X29458668Y-108386562D01*
X29478746Y-108389839D01*
X29486015Y-108399728D01*
X29486760Y-108408961D01*
X29488284Y-108435744D01*
X29492065Y-108476025D01*
X29494782Y-108500124D01*
X29498723Y-108538401D01*
X29497084Y-108557996D01*
X29487579Y-108565158D01*
X29470649Y-108566139D01*
X29460608Y-108562901D01*
X29444410Y-108552420D01*
X29420855Y-108533548D01*
X29388743Y-108505135D01*
X29346872Y-108466035D01*
X29294043Y-108415097D01*
X29229055Y-108351173D01*
X29150709Y-108273114D01*
X29057803Y-108179772D01*
X28949137Y-108069998D01*
X28896769Y-108016952D01*
X28354951Y-107467767D01*
X28355570Y-107554848D01*
X28355570Y-107554848D01*
G37*
X28355570Y-107554848D02*
X28356189Y-107641931D01*
X28807914Y-108100891D01*
X29259639Y-108559852D01*
X29259968Y-108770471D01*
X29260297Y-108981089D01*
X29535390Y-108981089D01*
X29542478Y-109034530D01*
X29545162Y-109058888D01*
X29549687Y-109104759D01*
X29555809Y-109169405D01*
X29563288Y-109250091D01*
X29571881Y-109344081D01*
X29581346Y-109448637D01*
X29591442Y-109561025D01*
X29601926Y-109678507D01*
X29612556Y-109798348D01*
X29623091Y-109917811D01*
X29633287Y-110034159D01*
X29642905Y-110144657D01*
X29651700Y-110246569D01*
X29659432Y-110337158D01*
X29665858Y-110413687D01*
X29670737Y-110473421D01*
X29673825Y-110513624D01*
X29674883Y-110531559D01*
X29674882Y-110531644D01*
X29667173Y-110546035D01*
X29644019Y-110575748D01*
X29605105Y-110621131D01*
X29550116Y-110682529D01*
X29478736Y-110760288D01*
X29390651Y-110854754D01*
X29285546Y-110966272D01*
X29163105Y-111095188D01*
X29128690Y-111131287D01*
X28582863Y-111703416D01*
X28671119Y-111791436D01*
X28742515Y-111713758D01*
X28768634Y-111685686D01*
X28809434Y-111642274D01*
X28862223Y-111586366D01*
X28924309Y-111520808D01*
X28993000Y-111448441D01*
X29065604Y-111372112D01*
X29109040Y-111326524D01*
X29190584Y-111241119D01*
X29256496Y-111172710D01*
X29308456Y-111120053D01*
X29348145Y-111081905D01*
X29377243Y-111057020D01*
X29397431Y-111044156D01*
X29410390Y-111042068D01*
X29417800Y-111049513D01*
X29421342Y-111065246D01*
X29422697Y-111088023D01*
X29422879Y-111094239D01*
X29432297Y-111137061D01*
X29455503Y-111188819D01*
X29487864Y-111241328D01*
X29524748Y-111286403D01*
X29539507Y-111300328D01*
X29615233Y-111349047D01*
X29703692Y-111376306D01*
X29781900Y-111382773D01*
X29870532Y-111370576D01*
X29952388Y-111334813D01*
X30024836Y-111276722D01*
X30038203Y-111262262D01*
X30087082Y-111206733D01*
X30932674Y-111206733D01*
X30932674Y-111382773D01*
X31159010Y-111382773D01*
X31159010Y-111300531D01*
X31161850Y-111244386D01*
X31171393Y-111205416D01*
X31182991Y-111184219D01*
X31191277Y-111169052D01*
X31198373Y-111147062D01*
X31204748Y-111114987D01*
X31210872Y-111069569D01*
X31217216Y-111007548D01*
X31224250Y-110925662D01*
X31229066Y-110864746D01*
X31251161Y-110579343D01*
X31793565Y-111128805D01*
X31891637Y-111228228D01*
X31985784Y-111323815D01*
X32074285Y-111413810D01*
X32155420Y-111496457D01*
X32227469Y-111570001D01*
X32288712Y-111632684D01*
X32337427Y-111682752D01*
X32371896Y-111718448D01*
X32390379Y-111737995D01*
X32420743Y-111768944D01*
X32446071Y-111790530D01*
X32459695Y-111797723D01*
X32477095Y-111789297D01*
X32502460Y-111768245D01*
X32511058Y-111759671D01*
X32547514Y-111721620D01*
X32346802Y-111517658D01*
X32295596Y-111465699D01*
X32229569Y-111398820D01*
X32151618Y-111319950D01*
X32064638Y-111232014D01*
X31971526Y-111137941D01*
X31875179Y-111040658D01*
X31778492Y-110943093D01*
X31709134Y-110873145D01*
X31603703Y-110766550D01*
X31515129Y-110676307D01*
X31442281Y-110601192D01*
X31384023Y-110539986D01*
X31339225Y-110491466D01*
X31317021Y-110466129D01*
X31138724Y-110466129D01*
X31116401Y-110751555D01*
X31109669Y-110835219D01*
X31103157Y-110911727D01*
X31097234Y-110977081D01*
X31092268Y-111027281D01*
X31088629Y-111058329D01*
X31087458Y-111065273D01*
X31080838Y-111093565D01*
X30131364Y-111093565D01*
X30125026Y-111014606D01*
X30105890Y-110921315D01*
X30065846Y-110838791D01*
X30007418Y-110770038D01*
X29933129Y-110718063D01*
X29849748Y-110686863D01*
X29822698Y-110672228D01*
X29809156Y-110640819D01*
X29808872Y-110639434D01*
X29807247Y-110626174D01*
X29809256Y-110612595D01*
X29816858Y-110596181D01*
X29832016Y-110574411D01*
X29856688Y-110544767D01*
X29892836Y-110504732D01*
X29942420Y-110451785D01*
X30007401Y-110383409D01*
X30011599Y-110379005D01*
X30081493Y-110305611D01*
X30155800Y-110227437D01*
X30229414Y-110149864D01*
X30297229Y-110078275D01*
X30354140Y-110018051D01*
X30366832Y-110004587D01*
X30415487Y-109953820D01*
X30458709Y-109910375D01*
X30493395Y-109877241D01*
X30516444Y-109857405D01*
X30524182Y-109853046D01*
X30535722Y-109862170D01*
X30562710Y-109887200D01*
X30603021Y-109926052D01*
X30654529Y-109976643D01*
X30715109Y-110036888D01*
X30782636Y-110104704D01*
X30837826Y-110160565D01*
X31138724Y-110466129D01*
X31317021Y-110466129D01*
X31306751Y-110454411D01*
X31285471Y-110427599D01*
X31274251Y-110409808D01*
X31271754Y-110401570D01*
X31272700Y-110383590D01*
X31275573Y-110342892D01*
X31280187Y-110281819D01*
X31286358Y-110202713D01*
X31293898Y-110107914D01*
X31302621Y-109999767D01*
X31312343Y-109880612D01*
X31322876Y-109752791D01*
X31331365Y-109650635D01*
X31379396Y-109074674D01*
X31255805Y-109074674D01*
X31255273Y-109087104D01*
X31252769Y-109122110D01*
X31248496Y-109177215D01*
X31242653Y-109249943D01*
X31235443Y-109337814D01*
X31227066Y-109438351D01*
X31217723Y-109549077D01*
X31208758Y-109654205D01*
X31198602Y-109773483D01*
X31189142Y-109886080D01*
X31180596Y-109989305D01*
X31173179Y-110080473D01*
X31167108Y-110156895D01*
X31162601Y-110215883D01*
X31159873Y-110254749D01*
X31159116Y-110269844D01*
X31157935Y-110279238D01*
X31153256Y-110282966D01*
X31143276Y-110279471D01*
X31126190Y-110267199D01*
X31100196Y-110244594D01*
X31063490Y-110210100D01*
X31014267Y-110162162D01*
X30950726Y-110099224D01*
X30883305Y-110031968D01*
X30607601Y-109756477D01*
X30609533Y-109754406D01*
X30427290Y-109754406D01*
X30418984Y-109765780D01*
X30395733Y-109792563D01*
X30359865Y-109832292D01*
X30313713Y-109882507D01*
X30259606Y-109940746D01*
X30199874Y-110004547D01*
X30136848Y-110071449D01*
X30072858Y-110138990D01*
X30010236Y-110204710D01*
X29951310Y-110266146D01*
X29898412Y-110320837D01*
X29853872Y-110366322D01*
X29820020Y-110400138D01*
X29799188Y-110419826D01*
X29793506Y-110423837D01*
X29791634Y-110410891D01*
X29787746Y-110375134D01*
X29782057Y-110318804D01*
X29774781Y-110244140D01*
X29766131Y-110153380D01*
X29756322Y-110048762D01*
X29745566Y-109932526D01*
X29734079Y-109806908D01*
X29724907Y-109705618D01*
X29713174Y-109574279D01*
X29702335Y-109450552D01*
X29692570Y-109336681D01*
X29684063Y-109234911D01*
X29676995Y-109147487D01*
X29671549Y-109076653D01*
X29667908Y-109024653D01*
X29666253Y-108993732D01*
X29666442Y-108985703D01*
X29676334Y-108992854D01*
X29701524Y-109015841D01*
X29739810Y-109052439D01*
X29788989Y-109100422D01*
X29846861Y-109157566D01*
X29911222Y-109221647D01*
X29979871Y-109290438D01*
X30050605Y-109361716D01*
X30121222Y-109433255D01*
X30189520Y-109502830D01*
X30253296Y-109568217D01*
X30310350Y-109627191D01*
X30358478Y-109677527D01*
X30395478Y-109716999D01*
X30419148Y-109743383D01*
X30427290Y-109754406D01*
X30609533Y-109754406D01*
X30710409Y-109646295D01*
X30762768Y-109590377D01*
X30821535Y-109527948D01*
X30884385Y-109461443D01*
X30948995Y-109393298D01*
X31013042Y-109325948D01*
X31074203Y-109261828D01*
X31130153Y-109203372D01*
X31178570Y-109153018D01*
X31217130Y-109113198D01*
X31243509Y-109086350D01*
X31255384Y-109074908D01*
X31255805Y-109074674D01*
X31379396Y-109074674D01*
X31391401Y-108930726D01*
X31991938Y-108299158D01*
X32592475Y-107667589D01*
X32592034Y-107579315D01*
X32591592Y-107491040D01*
X32494583Y-107594666D01*
X32440291Y-107652463D01*
X32376192Y-107720368D01*
X32304016Y-107796572D01*
X32225492Y-107879269D01*
X32142349Y-107966653D01*
X32056319Y-108056915D01*
X31969130Y-108148250D01*
X31882513Y-108238849D01*
X31798197Y-108326907D01*
X31717912Y-108410615D01*
X31643387Y-108488167D01*
X31576354Y-108557757D01*
X31518541Y-108617576D01*
X31471679Y-108665818D01*
X31437496Y-108700676D01*
X31417724Y-108720343D01*
X31413390Y-108724116D01*
X31413092Y-108710992D01*
X31414731Y-108677389D01*
X31418023Y-108627880D01*
X31422682Y-108567037D01*
X31424682Y-108542732D01*
X31439577Y-108364951D01*
X31322955Y-108364951D01*
X31316934Y-108393243D01*
X31313863Y-108415618D01*
X31309548Y-108457717D01*
X31304488Y-108514178D01*
X31299181Y-108579635D01*
X31297344Y-108603862D01*
X31291927Y-108673421D01*
X31286459Y-108738018D01*
X31281488Y-108791548D01*
X31277561Y-108827910D01*
X31276675Y-108834509D01*
X31273334Y-108848056D01*
X31266101Y-108863914D01*
X31253440Y-108883861D01*
X31233811Y-108909673D01*
X31205678Y-108943129D01*
X31167502Y-108986007D01*
X31117746Y-109040083D01*
X31054871Y-109107136D01*
X30977341Y-109188943D01*
X30898251Y-109271950D01*
X30819564Y-109354094D01*
X30746112Y-109430169D01*
X30679724Y-109498325D01*
X30622227Y-109556712D01*
X30575451Y-109603481D01*
X30541224Y-109636782D01*
X30521373Y-109654767D01*
X30517140Y-109657442D01*
X30506003Y-109647741D01*
X30479971Y-109622441D01*
X30441570Y-109584082D01*
X30393328Y-109535200D01*
X30337770Y-109478334D01*
X30297592Y-109436906D01*
X30087831Y-109220000D01*
X30706337Y-109220000D01*
X30706337Y-108981089D01*
X29951881Y-108981089D01*
X29951881Y-109087542D01*
X29813565Y-108949654D01*
X29715447Y-108851840D01*
X29524357Y-108851840D01*
X29522529Y-108867270D01*
X29513277Y-108875867D01*
X29490950Y-108879613D01*
X29449895Y-108880489D01*
X29442624Y-108880495D01*
X29360891Y-108880495D01*
X29360891Y-108661172D01*
X29442624Y-108742179D01*
X29488730Y-108791428D01*
X29516306Y-108829159D01*
X29524357Y-108851840D01*
X29715447Y-108851840D01*
X29675248Y-108811766D01*
X29675248Y-108688952D01*
X29674863Y-108632450D01*
X29673100Y-108596505D01*
X29669050Y-108576530D01*
X29661801Y-108567937D01*
X29650870Y-108566139D01*
X29638712Y-108563498D01*
X29629727Y-108552912D01*
X29622826Y-108530381D01*
X29616924Y-108491909D01*
X29610935Y-108433498D01*
X29609013Y-108412104D01*
X29604852Y-108364951D01*
X31322955Y-108364951D01*
X31439577Y-108364951D01*
X31599109Y-108364951D01*
X31599109Y-108251782D01*
X31531314Y-108251782D01*
X31491662Y-108250696D01*
X31470116Y-108245454D01*
X31467480Y-108242334D01*
X31328616Y-108242334D01*
X31321308Y-108249462D01*
X31295993Y-108251662D01*
X31278908Y-108251782D01*
X31221881Y-108251782D01*
X31009221Y-108251782D01*
X29594698Y-108251782D01*
X29642542Y-108202786D01*
X29716850Y-108142324D01*
X29808816Y-108095691D01*
X29919998Y-108062249D01*
X30030471Y-108043753D01*
X30102773Y-108035122D01*
X30102773Y-108126040D01*
X30681188Y-108126040D01*
X30681188Y-108022893D01*
X30766065Y-108031496D01*
X30825368Y-108038756D01*
X30888551Y-108048379D01*
X30926386Y-108055252D01*
X31001832Y-108070407D01*
X31005526Y-108161095D01*
X31009221Y-108251782D01*
X31221881Y-108251782D01*
X31221881Y-108201485D01*
X31223544Y-108169976D01*
X31227697Y-108152463D01*
X31229371Y-108151188D01*
X31247987Y-108159254D01*
X31275183Y-108178820D01*
X31302448Y-108202944D01*
X31321267Y-108224682D01*
X31322943Y-108227508D01*
X31328616Y-108242334D01*
X31467480Y-108242334D01*
X31459662Y-108233081D01*
X31455442Y-108219604D01*
X31438219Y-108184627D01*
X31405138Y-108142579D01*
X31361893Y-108099356D01*
X31314174Y-108060854D01*
X31282830Y-108040801D01*
X31247123Y-108018851D01*
X31228819Y-108000411D01*
X31222388Y-107978668D01*
X31221894Y-107965718D01*
X31221894Y-107962575D01*
X30580594Y-107962575D01*
X30580594Y-108025446D01*
X30203367Y-108025446D01*
X30203367Y-107962575D01*
X30580594Y-107962575D01*
X31221894Y-107962575D01*
X31221881Y-107924852D01*
X31116048Y-107924852D01*
X31067355Y-107926029D01*
X31029405Y-107929165D01*
X31008308Y-107933671D01*
X31006023Y-107935495D01*
X30992641Y-107938295D01*
X30960074Y-107937148D01*
X30913916Y-107932393D01*
X30882376Y-107928003D01*
X30825188Y-107919378D01*
X30772886Y-107911591D01*
X30733582Y-107905847D01*
X30722055Y-107904215D01*
X30691937Y-107894888D01*
X30681188Y-107880272D01*
X30677920Y-107874320D01*
X30666230Y-107869778D01*
X30643288Y-107866470D01*
X30606265Y-107864215D01*
X30552332Y-107862834D01*
X30478660Y-107862150D01*
X30391980Y-107861980D01*
X30299471Y-107862077D01*
X30229094Y-107862530D01*
X30177836Y-107863590D01*
X30142680Y-107865503D01*
X30120611Y-107868519D01*
X30108615Y-107872885D01*
X30103676Y-107878849D01*
X30102773Y-107885784D01*
X30095079Y-107907795D01*
X30069879Y-107920321D01*
X30023991Y-107924788D01*
X30015736Y-107924852D01*
X29938027Y-107932868D01*
X29849767Y-107954936D01*
X29758915Y-107988084D01*
X29673430Y-108029339D01*
X29601274Y-108075731D01*
X29591928Y-108083082D01*
X29561467Y-108106998D01*
X29543428Y-108116576D01*
X29530831Y-108113480D01*
X29517900Y-108100704D01*
X29479707Y-108075678D01*
X29430002Y-108066071D01*
X29376476Y-108071067D01*
X29326822Y-108089851D01*
X29288733Y-108121606D01*
X29285975Y-108125297D01*
X29257474Y-108184575D01*
X29252172Y-108245934D01*
X29269482Y-108304427D01*
X29308820Y-108355104D01*
X29313630Y-108359289D01*
X29341560Y-108379167D01*
X29369898Y-108387921D01*
X29409737Y-108388553D01*
X29419689Y-108387992D01*
X29458668Y-108386562D01*
X29478746Y-108389839D01*
X29486015Y-108399728D01*
X29486760Y-108408961D01*
X29488284Y-108435744D01*
X29492065Y-108476025D01*
X29494782Y-108500124D01*
X29498723Y-108538401D01*
X29497084Y-108557996D01*
X29487579Y-108565158D01*
X29470649Y-108566139D01*
X29460608Y-108562901D01*
X29444410Y-108552420D01*
X29420855Y-108533548D01*
X29388743Y-108505135D01*
X29346872Y-108466035D01*
X29294043Y-108415097D01*
X29229055Y-108351173D01*
X29150709Y-108273114D01*
X29057803Y-108179772D01*
X28949137Y-108069998D01*
X28896769Y-108016952D01*
X28354951Y-107467767D01*
X28355570Y-107554848D01*
G04 #@! TD*
M02*
