M48
;DRILL file {KiCad (5.0.1)-4} date 23.11.2018 22:56:46
;FORMAT={-:-/ absolute / inch / decimal}
FMAT,2
INCH,TZ
T1C0.0118
T2C0.0315
T3C0.0394
T4C0.1260
%
G90
G05
M72
T1
X1.2Y-1.825
X1.2Y-2.3
X1.2Y-4.2
X1.3751Y-3.351
X1.435Y-2.75
X1.45Y-1.525
X1.467Y-2.8
X1.6Y-4.2
X1.696Y-2.8
X1.742Y-3.4029
X1.748Y-2.85
X1.774Y-2.9
X1.775Y-1.825
X1.775Y-3.8
X1.8Y-3.35
X1.83Y-3.55
X1.875Y-3.
X1.875Y-3.75
X1.885Y-3.2
X1.9Y-1.475
X1.9Y-4.
X1.935Y-2.45
X1.935Y-2.6
X1.935Y-3.7
X1.95Y-4.875
X1.96Y-2.4
X1.96Y-2.55
X1.97Y-2.5
X1.98Y-3.05
X2.Y-1.725
X2.Y-2.45
X2.Y-3.9
X2.025Y-4.15
X2.09Y-2.95
X2.125Y-4.45
X2.185Y-2.65
X2.3Y-1.475
X2.375Y-2.75
X2.375Y-2.85
X2.375Y-2.95
X2.375Y-3.25
X2.375Y-3.35
X2.375Y-3.45
X2.375Y-3.55
X2.375Y-3.65
X2.375Y-3.75
X2.375Y-3.85
X2.375Y-3.95
X2.375Y-4.05
X2.425Y-2.55
X2.425Y-2.65
X2.55Y-4.275
X2.575Y-2.275
X2.65Y-3.35
X2.8Y-1.475
X2.975Y-4.15
X3.Y-4.875
X3.025Y-2.6
X3.025Y-2.95
X3.025Y-3.15
X3.075Y-4.45
X3.125Y-2.425
X3.325Y-1.775
X3.35Y-2.3
X3.4Y-1.575
X3.5Y-3.3
X3.5Y-4.275
X3.55Y-3.175
X3.6Y-3.3
X3.875Y-2.3
X3.925Y-4.15
X3.95Y-4.875
X3.975Y-2.925
X3.975Y-3.15
X4.Y-1.575
X4.014Y-2.65
X4.025Y-4.45
X4.069Y-3.25
X4.07Y-3.85
X4.095Y-3.95
X4.24Y-2.8
X4.306Y-3.55
X4.35Y-4.85
X4.382Y-2.85
X4.4Y-2.325
X4.4Y-2.325
X4.43Y-2.443
X4.45Y-1.75
X4.45Y-3.3
X4.45Y-4.275
X4.5Y-3.175
X4.543Y-2.95
X4.55Y-3.3
X4.6Y-1.575
X4.621Y-2.85
X4.625Y-1.95
X4.642Y-2.198
X4.6425Y-3.65
X4.648Y-2.75
X4.67Y-3.75
X4.695Y-3.85
X4.713Y-3.263
X4.719Y-2.123
X4.8Y-1.775
X4.8Y-4.55
X4.834Y-2.443
X4.84Y-2.7
X4.84Y-3.
X4.84Y-3.3
X4.85Y-3.7
X4.85Y-3.9
X4.85Y-4.1
X4.85Y-4.3
T2
X4.2Y-2.55
X4.2Y-2.65
X4.2Y-2.75
X4.2Y-2.85
X4.2Y-2.95
X4.2Y-3.05
X4.2Y-3.15
X4.2Y-3.25
X4.2Y-3.35
X4.2Y-3.45
X4.2Y-3.55
X4.2Y-3.65
X4.2Y-3.75
X4.2Y-3.85
X4.2Y-3.95
X4.2Y-4.05
X4.2Y-4.15
X4.2Y-4.25
X4.2Y-4.35
X4.2Y-4.45
X4.8Y-2.55
X4.8Y-2.65
X4.8Y-2.75
X4.8Y-2.85
X4.8Y-2.95
X4.8Y-3.05
X4.8Y-3.15
X4.8Y-3.25
X4.8Y-3.35
X4.8Y-3.45
X4.8Y-3.55
X4.8Y-3.65
X4.8Y-3.75
X4.8Y-3.85
X4.8Y-3.95
X4.8Y-4.05
X4.8Y-4.15
X4.8Y-4.25
X4.8Y-4.35
X4.8Y-4.45
X2.3Y-2.55
X2.3Y-2.65
X2.3Y-2.75
X2.3Y-2.85
X2.3Y-2.95
X2.3Y-3.05
X2.3Y-3.15
X2.3Y-3.25
X2.3Y-3.35
X2.3Y-3.45
X2.3Y-3.55
X2.3Y-3.65
X2.3Y-3.75
X2.3Y-3.85
X2.3Y-3.95
X2.3Y-4.05
X2.3Y-4.15
X2.3Y-4.25
X2.3Y-4.35
X2.3Y-4.45
X2.9Y-2.55
X2.9Y-2.65
X2.9Y-2.75
X2.9Y-2.85
X2.9Y-2.95
X2.9Y-3.05
X2.9Y-3.15
X2.9Y-3.25
X2.9Y-3.35
X2.9Y-3.45
X2.9Y-3.55
X2.9Y-3.65
X2.9Y-3.75
X2.9Y-3.85
X2.9Y-3.95
X2.9Y-4.05
X2.9Y-4.15
X2.9Y-4.25
X2.9Y-4.35
X2.9Y-4.45
X3.25Y-2.55
X3.25Y-2.65
X3.25Y-2.75
X3.25Y-2.85
X3.25Y-2.95
X3.25Y-3.05
X3.25Y-3.15
X3.25Y-3.25
X3.25Y-3.35
X3.25Y-3.45
X3.25Y-3.55
X3.25Y-3.65
X3.25Y-3.75
X3.25Y-3.85
X3.25Y-3.95
X3.25Y-4.05
X3.25Y-4.15
X3.25Y-4.25
X3.25Y-4.35
X3.25Y-4.45
X3.85Y-2.55
X3.85Y-2.65
X3.85Y-2.75
X3.85Y-2.85
X3.85Y-2.95
X3.85Y-3.05
X3.85Y-3.15
X3.85Y-3.25
X3.85Y-3.35
X3.85Y-3.45
X3.85Y-3.55
X3.85Y-3.65
X3.85Y-3.75
X3.85Y-3.85
X3.85Y-3.95
X3.85Y-4.05
X3.85Y-4.15
X3.85Y-4.25
X3.85Y-4.35
X3.85Y-4.45
T3
X1.15Y-2.45
X1.15Y-2.55
X1.15Y-2.65
X1.15Y-2.75
X1.15Y-2.85
X1.15Y-2.95
X1.15Y-3.05
X1.15Y-3.15
X1.15Y-3.25
X1.15Y-3.35
X1.15Y-3.45
X1.15Y-3.55
X1.15Y-3.65
X1.15Y-3.75
X1.15Y-3.85
X1.15Y-3.95
X1.15Y-4.05
X1.25Y-2.45
X1.25Y-2.55
X1.25Y-2.65
X1.25Y-2.75
X1.25Y-2.85
X1.25Y-2.95
X1.25Y-3.05
X1.25Y-3.15
X1.25Y-3.25
X1.25Y-3.35
X1.25Y-3.45
X1.25Y-3.55
X1.25Y-3.65
X1.25Y-3.75
X1.25Y-3.85
X1.25Y-3.95
X1.25Y-4.05
X2.95Y-4.7
X2.95Y-4.8
X3.05Y-4.7
X3.05Y-4.8
X3.15Y-4.7
X3.15Y-4.8
X3.25Y-4.7
X3.25Y-4.8
X3.35Y-4.7
X3.35Y-4.8
X1.55Y-1.525
X1.55Y-1.625
X1.65Y-1.525
X1.65Y-1.625
X1.75Y-1.525
X1.75Y-1.625
X1.85Y-1.525
X1.85Y-1.625
X1.95Y-1.525
X1.95Y-1.625
X2.05Y-1.525
X2.05Y-1.625
X2.15Y-1.525
X2.15Y-1.625
X2.25Y-1.525
X2.25Y-1.625
X2.35Y-1.525
X2.35Y-1.625
X2.45Y-1.525
X2.45Y-1.625
X2.55Y-1.525
X2.55Y-1.625
X2.65Y-1.525
X2.65Y-1.625
X2.75Y-1.525
X2.75Y-1.625
X2.85Y-1.525
X2.85Y-1.625
X2.95Y-1.525
X2.95Y-1.625
X3.05Y-1.525
X3.05Y-1.625
X3.15Y-1.525
X3.15Y-1.625
X3.25Y-1.525
X3.25Y-1.625
X3.35Y-1.525
X3.35Y-1.625
X3.45Y-1.525
X3.45Y-1.625
X3.55Y-1.525
X3.55Y-1.625
X3.65Y-1.525
X3.65Y-1.625
X3.75Y-1.525
X3.75Y-1.625
X3.85Y-1.525
X3.85Y-1.625
X3.95Y-1.525
X3.95Y-1.625
X4.05Y-1.525
X4.05Y-1.625
X4.15Y-1.525
X4.15Y-1.625
X4.25Y-1.525
X4.25Y-1.625
X4.35Y-1.525
X4.35Y-1.625
X4.45Y-1.525
X4.45Y-1.625
X3.9Y-4.7
X3.9Y-4.8
X4.Y-4.7
X4.Y-4.8
X4.1Y-4.7
X4.1Y-4.8
X4.2Y-4.7
X4.2Y-4.8
X4.3Y-4.7
X4.3Y-4.8
X4.7Y-1.9
X4.7Y-2.
X4.8Y-1.9
X4.8Y-2.
X1.55Y-2.45
X1.55Y-2.55
X1.55Y-2.65
X1.55Y-2.75
X1.55Y-2.85
X1.55Y-2.95
X1.55Y-3.05
X1.55Y-3.15
X1.55Y-3.25
X1.55Y-3.35
X1.55Y-3.45
X1.55Y-3.55
X1.55Y-3.65
X1.55Y-3.75
X1.55Y-3.85
X1.55Y-3.95
X1.55Y-4.05
X1.65Y-2.45
X1.65Y-2.55
X1.65Y-2.65
X1.65Y-2.75
X1.65Y-2.85
X1.65Y-2.95
X1.65Y-3.05
X1.65Y-3.15
X1.65Y-3.25
X1.65Y-3.35
X1.65Y-3.45
X1.65Y-3.55
X1.65Y-3.65
X1.65Y-3.75
X1.65Y-3.85
X1.65Y-3.95
X1.65Y-4.05
X2.Y-4.7
X2.Y-4.8
X2.1Y-4.7
X2.1Y-4.8
X2.2Y-4.7
X2.2Y-4.8
X2.3Y-4.7
X2.3Y-4.8
X2.4Y-4.7
X2.4Y-4.8
T4
X4.7402Y-1.1969
X1.1969Y-4.7402
X4.7402Y-4.7402
X1.1969Y-1.1969
T0
M30
